<svg class="gridItem__media" xmlns="http://www.w3.org/2000/svg" width="1600" height="1200" style="enable-background:new 0 0 1600 1200" xml:space="preserve" fill="none"><path d="M354.5 973 164 766.74a30.817 30.817 0 0 1-4-36.43l245.87-422a41.563 41.563 0 0 1 31.72-20.42l562.58-57a41.564 41.564 0 0 1 32.05 10.52l377.4 341a30.826 30.826 0 0 1 9.29 15.594 30.793 30.793 0 0 1-1.1 18.116L1283.5 973h-929Z" fill="#F4F4F4"/><path d="M733 552.821s9.27 1.27 51.84.39c11.52 7 61.44 2.55 81.12.69 22.75 4.22 34-6.8 23.89-12.75-3.11-1.84-8.26-3.19-15.73-3.47.49-23.68-58.08-31.45-74.4 3.1-8.63-7-26.65-6.35-27.84 3.12-16.66-3.06-29.82.39-35.85 4-3.2 1.9-4.39 3.85-3.03 4.92Z" fill="#fff"/><path opacity=".08" d="M733 552.82s9.27 1.27 51.84.39c11.52 7 61.44 2.55 81.12.69 22.75 4.22 34-6.8 23.89-12.75a5.682 5.682 0 0 1-1.4 4.05c-2.31 2.64-6.66 3.74-10.63 3.4a28.401 28.401 0 0 1-10.95-3.68 13.652 13.652 0 0 0-5.11-2c-3.37-.33-6.28 1.8-8.65 3.77-2-3.16-6.91-4.87-11.07-3.83s-7 4.73-6.45 8.23c-8.15-1.46-16.46 2.44-24.76 1.82-9.47-.72-18-7.21-27.3-5.56-2.35.41-4.52 1.34-6.88 1.73a39.465 39.465 0 0 1-7.06.19c-7.59-.14-15.18.83-22.75.45a44.288 44.288 0 0 1-10.84-1.81c-3.17 1.89-4.36 3.84-3 4.91Z" fill="#21252B"/><path d="M412.44 904.439H623.7v-412.27H412.44v412.27Z" fill="#E6E6E6"/><path d="M450.85 904.439H623.7v-412.27H450.85v412.27Z" fill="#F0F0F0"/><path d="M409.96 498.9h218.28v-6.73H409.96v6.73ZM409.96 485.439h218.28v-6.73H409.96v6.73Z" fill="#E0E0E0"/><path d="M414.56 492.17h209.15v-6.73H414.56v6.73Z" fill="#F0F0F0"/><path d="M574.84 548.91h32.46v-32.46h-32.46v32.46Z" fill="#E6E6E6"/><path d="M574.84 548.91h29.6v-32.46h-29.6v32.46Z" fill="#F5F5F5"/><path d="M525.66 548.91h32.47v-32.46h-32.47v32.46Z" fill="#E6E6E6"/><path d="M525.669 548.91h29.601v-32.46h-29.601v32.46Z" fill="#F5F5F5"/><path d="M476.5 548.91h32.47v-32.46H476.5v32.46Z" fill="#E6E6E6"/><path d="M476.51 548.91h29.6v-32.46h-29.6v32.46Z" fill="#F5F5F5"/><path d="M574.84 596.711h32.46v-32.46h-32.46v32.46Z" fill="#E6E6E6"/><path d="M574.84 596.711h29.6v-32.46h-29.6v32.46Z" fill="#F5F5F5"/><path d="M525.66 596.711h32.47v-32.46h-32.47v32.46Z" fill="#E6E6E6"/><path d="M525.669 596.711h29.601v-32.46h-29.601v32.46Z" fill="#F5F5F5"/><path d="M476.5 596.711h32.47v-32.46H476.5v32.46Z" fill="#E6E6E6"/><path d="M476.51 596.711h29.6v-32.46h-29.6v32.46Z" fill="#F5F5F5"/><path d="M574.84 684.26h32.46v-32.47h-32.46v32.47Z" fill="#E6E6E6"/><path d="M574.84 684.26h29.6v-32.47h-29.6v32.47Z" fill="#F5F5F5"/><path d="M525.66 684.26h32.47v-32.47h-32.47v32.47Z" fill="#E6E6E6"/><path d="M525.669 684.26h29.601v-32.47h-29.601v32.47Z" fill="#F5F5F5"/><path d="M476.5 684.26h32.47v-32.47H476.5v32.47Z" fill="#E6E6E6"/><path d="M476.51 684.26h29.6v-32.47h-29.6v32.47Z" fill="#F5F5F5"/><path d="M574.84 732.061h32.46v-32.47h-32.46v32.47Z" fill="#E6E6E6"/><path d="M574.84 732.061h29.6v-32.47h-29.6v32.47Z" fill="#F5F5F5"/><path d="M525.66 732.061h32.47v-32.47h-32.47v32.47Z" fill="#E6E6E6"/><path d="M525.669 732.061h29.601v-32.47h-29.601v32.47Z" fill="#F5F5F5"/><path d="M476.5 732.061h32.47v-32.47H476.5v32.47Z" fill="#E6E6E6"/><path d="M476.51 732.061h29.6v-32.47h-29.6v32.47Z" fill="#F5F5F5"/><path d="M574.84 829.35h32.46v-32.47h-32.46v32.47Z" fill="#E6E6E6"/><path d="M574.84 829.35h29.6v-32.47h-29.6v32.47Z" fill="#F5F5F5"/><path d="M525.66 829.35h32.47v-32.47h-32.47v32.47Z" fill="#E6E6E6"/><path d="M525.669 829.35h29.601v-32.47h-29.601v32.47Z" fill="#F5F5F5"/><path d="M476.5 829.35h32.47v-32.47H476.5v32.47Z" fill="#E6E6E6"/><path d="M476.51 829.35h29.6v-32.47h-29.6v32.47Z" fill="#F5F5F5"/><path d="M574.84 877.16h32.46v-32.47h-32.46v32.47Z" fill="#E6E6E6"/><path d="M574.84 877.16h29.6v-32.47h-29.6v32.47Z" fill="#F5F5F5"/><path d="M525.66 877.16h32.47v-32.47h-32.47v32.47Z" fill="#E6E6E6"/><path d="M525.669 877.16h29.601v-32.47h-29.601v32.47Z" fill="#F5F5F5"/><path d="M476.5 877.16h32.47v-32.47H476.5v32.47Z" fill="#E6E6E6"/><path d="M476.51 877.16h29.6v-32.47h-29.6v32.47Z" fill="#F5F5F5"/><path d="M412.44 622.539H623.7v-3H412.44v3ZM412.44 772.18H623.7v-3H412.44v3ZM1015.65 613.01H869.54v355.54h146.11V613.01Z" fill="#E0E0E0"/><path d="M974.04 613.01h-104.5v355.54h104.5V613.01Z" fill="#F0F0F0"/><path d="M919.2 642.23h-38.89v18.88h38.89v-18.88Z" fill="#E6E6E6"/><path d="M919.2 642.23h-36.3v18.88h36.3v-18.88Z" fill="#F5F5F5"/><path d="M964.18 642.23h-38.89v18.88h38.89v-18.88Z" fill="#E6E6E6"/><path d="M964.18 642.23h-36.3v18.88h36.3v-18.88Z" fill="#F5F5F5"/><path d="M919.2 677.76h-38.89v18.88h38.89v-18.88Z" fill="#E6E6E6"/><path d="M919.2 677.76h-36.3v18.88h36.3v-18.88Z" fill="#F5F5F5"/><path d="M964.18 677.76h-38.89v18.88h38.89v-18.88Z" fill="#E6E6E6"/><path d="M964.18 677.76h-36.3v18.88h36.3v-18.88Z" fill="#F5F5F5"/><path d="M919.2 723.18h-38.89v18.88h38.89v-18.88Z" fill="#E6E6E6"/><path d="M919.2 723.18h-36.3v18.88h36.3v-18.88Z" fill="#F5F5F5"/><path d="M964.18 723.18h-38.89v18.88h38.89v-18.88Z" fill="#E6E6E6"/><path d="M964.18 723.18h-36.3v18.88h36.3v-18.88Z" fill="#F5F5F5"/><path d="M919.2 749.27h-38.89v18.88h38.89v-18.88Z" fill="#E6E6E6"/><path d="M919.2 749.27h-36.3v18.88h36.3v-18.88Z" fill="#F5F5F5"/><path d="M964.18 749.27h-38.89v18.88h38.89v-18.88Z" fill="#E6E6E6"/><path d="M964.18 749.27h-36.3v18.88h36.3v-18.88Z" fill="#F5F5F5"/><path d="M919.2 792.141h-38.89v18.88h38.89v-18.88Z" fill="#E6E6E6"/><path d="M919.2 792.141h-36.3v18.88h36.3v-18.88Z" fill="#F5F5F5"/><path d="M964.18 792.141h-38.89v18.88h38.89v-18.88Z" fill="#E6E6E6"/><path d="M964.18 792.141h-36.3v18.88h36.3v-18.88Z" fill="#F5F5F5"/><path d="M919.2 818.24h-38.89v18.88h38.89v-18.88Z" fill="#E6E6E6"/><path d="M919.2 818.24h-36.3v18.88h36.3v-18.88Z" fill="#F5F5F5"/><path d="M964.18 818.24h-38.89v18.88h38.89v-18.88Z" fill="#E6E6E6"/><path d="M964.18 818.24h-36.3v18.88h36.3v-18.88Z" fill="#F5F5F5"/><path d="M919.2 864.891h-38.89v18.88h38.89v-18.88Z" fill="#E6E6E6"/><path d="M919.2 864.891h-36.3v18.88h36.3v-18.88Z" fill="#F5F5F5"/><path d="M964.18 864.891h-38.89v18.88h38.89v-18.88Z" fill="#E6E6E6"/><path d="M964.18 864.891h-36.3v18.88h36.3v-18.88Z" fill="#F5F5F5"/><path d="M919.2 899.35h-38.89v18.88h38.89v-18.88Z" fill="#E6E6E6"/><path d="M919.2 899.35h-36.3v18.88h36.3v-18.88Z" fill="#F5F5F5"/><path d="M964.18 899.35h-38.89v18.88h38.89v-18.88Z" fill="#E6E6E6"/><path d="M964.18 899.35h-36.3v18.88h36.3v-18.88Z" fill="#F5F5F5"/><path opacity=".05" d="M1015.65 708.279H869.54v3.25h146.11v-3.25ZM1015.65 778.52H869.54v3.25h146.11v-3.25ZM1015.65 849.381H869.54v3.25h146.11v-3.25Z" fill="#000"/><path d="M1015.65 602.49H862.66v11.36h152.99v-11.36Z" fill="#E0E0E0"/><path opacity=".05" d="M1015.65 602.49h-34.96v11.36h34.96v-11.36Z" fill="#000"/><path d="M1238.58 506.68v389.63l-19.77 56.28h-151.8V506.68h171.57Z" fill="#E6E6E6"/><path d="M1175.07 506.68h-171.58V952.6h171.58V506.68Z" fill="#F0F0F0"/><path d="M1160.1 536.949h-141.64v22.71h141.64v-22.71Z" fill="#E6E6E6"/><path d="M1160.1 536.949h-136.14v22.71h136.14v-22.71Z" fill="#F5F5F5"/><path d="M1160.1 575.18h-141.64v22.71h141.64v-22.71Z" fill="#E6E6E6"/><path d="M1160.1 575.18h-136.14v22.71h136.14v-22.71Z" fill="#F5F5F5"/><path d="M1160.1 614.92h-141.64v22.71h141.64v-22.71Z" fill="#E6E6E6"/><path d="M1160.1 614.92h-136.14v22.71h136.14v-22.71Z" fill="#F5F5F5"/><path d="M1160.1 654.65h-141.64v22.71h141.64v-22.71Z" fill="#E6E6E6"/><path d="M1160.1 654.65h-136.14v22.71h136.14v-22.71Z" fill="#F5F5F5"/><path d="M1160.1 694.391h-141.64v22.71h141.64v-22.71Z" fill="#E6E6E6"/><path d="M1160.1 694.391h-136.14v22.71h136.14v-22.71Z" fill="#F5F5F5"/><path d="M1160.1 734.119h-141.64v22.71h141.64v-22.71Z" fill="#E6E6E6"/><path d="M1160.1 734.119h-136.14v22.71h136.14v-22.71Z" fill="#F5F5F5"/><path d="M1160.1 777.91h-141.64v22.71h141.64v-22.71Z" fill="#E6E6E6"/><path d="M1160.1 777.91h-136.14v22.71h136.14v-22.71Z" fill="#F5F5F5"/><path d="M1160.1 821.711h-141.64v22.71h141.64v-22.71Z" fill="#E6E6E6"/><path d="M1160.1 821.711h-136.14v22.71h136.14v-22.71Z" fill="#F5F5F5"/><path d="M1160.1 865.5h-141.64v22.71h141.64V865.5Z" fill="#E6E6E6"/><path d="M1160.1 865.5h-136.14v22.71h136.14V865.5Z" fill="#F5F5F5"/><path d="M1160.1 909.289h-141.64v22.71h141.64v-22.71Z" fill="#E6E6E6"/><path d="M1160.1 909.289h-136.14v22.71h136.14v-22.71Z" fill="#F5F5F5"/><path d="M1243.04 502.189h-244.4v10.88h244.4v-10.88ZM1243.04 482.561h-244.4v10.88h244.4v-10.88Z" fill="#E0E0E0"/><path d="M1234.92 491.311h-231.43v10.88h231.43v-10.88Z" fill="#F0F0F0"/><path d="M1238.58 536.939h-47.81v22.72h47.81v-22.72ZM1238.58 574.33h-47.81v22.72h47.81v-22.72ZM1238.58 611.721h-47.81v22.72h47.81v-22.72ZM1238.58 654.65h-47.81v22.72h47.81v-22.72ZM1238.58 694.381h-47.81v22.72h47.81v-22.72ZM1238.58 734.119h-47.81v22.72h47.81v-22.72ZM1238.58 777.91h-47.81v22.72h47.81v-22.72ZM1238.58 821.699h-47.81v22.72h47.81v-22.72ZM1238.58 865.49h-47.81v22.72h47.81v-22.72Z" fill="#E0E0E0"/><path d="m1407.59 579.93-1.2-1.09c-20.19 12.13-28.78 33.24-28.78 33.24-9.23-10.91-27.18-29.24-39.89-24-17.79 7.4 7.82 33.93 7.82 33.93-60.89 20.06-50.47 63.25-50.47 63.25-6.14-5.83-13.47-9.59-22-8.75-30.22 3-9 42.27-9 42.27-111.85-12.29-118.79 60.6-118.79 60.6s-12.82-46.33-28.37-43.58-7.1 52.49-7.1 52.49-10.09-29.85-28.93-23.93c-18.84 5.92 0 49.77 0 49.77-55 2.2-44.79 33-44.79 33a82.12 82.12 0 0 0-35.15-7.67c-41.13-.16-49.34 23.78-50.75 29.72l-.94-.87c-5.7-14.42-37.88-30-59.88-31.81a165.645 165.645 0 0 0-18.48-.48 136.963 136.963 0 0 0-16.79.48 77.198 77.198 0 0 0-22 5.91 137.655 137.655 0 0 0-36.67 17.76c-5-9.08-16.46-20.82-42.66-20.71a68.908 68.908 0 0 0-31.92 7.67s9.3-30.84-40.68-33c0 0 17.11-43.85 0-49.77-17.11-5.92-26.17 23.98-26.17 23.98s7.69-49.74-6.44-52.49-25.77 43.58-25.77 43.58-6.3-72.89-107.9-60.6c0 0 19.3-39.29-8.14-42.27-7.72-.84-14.37 2.92-19.95 8.75 0 0 9.47-43.19-45.84-63.25 0 0 23.26-26.53 7.1-33.93-11.54-5.29-27.85 13-36.23 24 0 0-13.31-29.77-42.28-40.29C270 536 276 689 276 689c-98-11-124.27 57.75-114 75l95 103.1 95.5 103.4h929l134.28-356.86a30.797 30.797 0 0 0 1.1-18.117 30.823 30.823 0 0 0-9.29-15.593Z" fill="#D9DCDE"/><path d="M1375.94 719.51c-17.57 9.13-21.56 22.64-21.56 22.64a60.047 60.047 0 0 0-30.38 11.64c-23.78 18.11-7 41.89-7 41.89-7.43-5.83-19.7-10.7-37-2.49-20.7 9.8-15.14 33.75-15.14 33.75-82.85-19.79-99.62 43.16-99.62 43.16-35.15 5.16-26.12 24.88-26.12 24.88-98.87-9.75-93.64 49.55-93.64 49.55-1.5-8-6.74-16-15.48-16.25-17.33-.49-12.63 18-12.63 18S992.6 917.8 973 926.79c-17.67 8.11-10.89 38-9.42 43.71h317.92l94.44-250.99ZM352.5 970.5h459.33c13.55-56-30.56-53-53.9-23.75 6.4-19.07-22.64-27.86-28.12-1.72 0 0 5.23-59.3-93.64-49.55 0 0 5.83-47.48-44.17-23.48 0 0 0-54-74-22 8-25.47-59.57-43.64-85-24 15.46-20.5 22-81-45-58 0 0-9.91-26.16-30-32-19-5.53-47.65 8.78-68 24-30.31-45.53-85.48-18.23-93 12-6.6 8.39-5.06 14.62-5.57 24.14L352.5 970.5Z" fill="#AFB3B8"/><path d="M668.64 772.42c-3.57 59.11 1.28 121.671-1.75 180.851L688 956l.84-12.06.16.06c4-56 14.66-116.13 19.88-172.27l-40.24.69Z" fill="#FC9D9D"/><path d="M690.46 926.391h-22.7c-.15 9-.41 18-.87 26.88l9.83 1.27 11.45-1 .67-9.63.16.06c.42-5.82.93-11.69 1.48-17.59l-.02.01Z" fill="#fff"/><path d="m666.46 945.361-.07 2.08a15.688 15.688 0 0 1-.94 5.19l-2.59 7.27a19.552 19.552 0 0 0-1.08 6.4v.36a2.687 2.687 0 0 0 .863 1.883 2.672 2.672 0 0 0 1.947.707h25.84a2.73 2.73 0 0 0 2.81-2.59v-.93c0-1.884-.293-3.757-.87-5.55l-2.23-7.41a14.844 14.844 0 0 1-.72-4.68v-2.73a6.743 6.743 0 0 0-1.87-4.61l-.36-.43a12.82 12.82 0 0 0-18.07-.22l-.64.65a7.221 7.221 0 0 0-2.02 4.61Z" class="change-color-in-svg" fill="#4D61FC" style="fill:#158566"/><path opacity=".6" d="M661.78 964.65h31.39c.058.357.082.719.07 1.08v.93a2.668 2.668 0 0 1-.862 1.884 2.686 2.686 0 0 1-1.948.706h-25.84a2.732 2.732 0 0 1-2.81-2.59v-2.01Z" fill="#000"/><path d="M683.52 946.51a.704.704 0 0 0-.29-.87 12.19 12.19 0 0 0-10.72 0 .63.63 0 0 0-.36.626.652.652 0 0 0 .07.244.623.623 0 0 0 .368.328.622.622 0 0 0 .492-.038 11.057 11.057 0 0 1 9.5 0c.086.055.188.08.29.07a.765.765 0 0 0 .65-.36ZM683.52 949.821a.687.687 0 0 0-.29-.86 12.12 12.12 0 0 0-10.72 0 .638.638 0 0 0-.29.86.646.646 0 0 0 .86.29 11 11 0 0 1 9.5 0 .469.469 0 0 0 .29.07.775.775 0 0 0 .65-.36ZM683.52 953.061a.704.704 0 0 0-.29-.87 12.19 12.19 0 0 0-10.72 0 .632.632 0 0 0-.329.374.65.65 0 0 0 .19.697.618.618 0 0 0 .467.158.641.641 0 0 0 .242-.069 11.057 11.057 0 0 1 9.5 0 .462.462 0 0 0 .29.07.766.766 0 0 0 .65-.36Z" fill="#fff"/><path d="m790 955.38-17-12.77a12.117 12.117 0 0 1-4.68-8.79L771 814c0-.65 0-1.29-.06-1.94l-3-40.56-42 4.7 7.75 46.6v1a247.395 247.395 0 0 0 4.3 58.89l.64 3.32c2.21 11.59 4.79 27.08 6.52 41.35l2.23 26.95 42.62 1.07Z" fill="#FC9D9D"/><path d="m745.21 927.331 2.23 26.95 42.56 1.1-17-12.77a12.127 12.127 0 0 1-4.68-8.79l.57-7.43-23.69.94" fill="#fff"/><path opacity=".15" d="M749 939c.41 4.77 7.09 7.82 11.58 9.62l6.42 2.55-19.55 2.14-2-23.76c-1.72-14.87-4.45-31.37-6.78-43.57l-.64-3.32a247.395 247.395 0 0 1-4.3-58.89v-1L729 790l8-1 4 33s-3 38 3.48 67.63c0 0 2.6 24 4 39.92.22 2.56.4 4.91.54 6.91L749 939Z" fill="#000"/><path d="m747.11 944.399 9.531 3a4.205 4.205 0 0 0 4-.83l7.529-6.42a4.692 4.692 0 0 1 5.94-.14l17 13.19 13.401 4.42a9.763 9.763 0 0 1 6.63 9.19 2.152 2.152 0 0 1-2.141 2.14h-59.4a5.09 5.09 0 0 1-3.622-1.49 5.1 5.1 0 0 1-1.498-3.62v-17.5a2.072 2.072 0 0 1 .837-1.618 2.068 2.068 0 0 1 1.793-.322Z" class="change-color-in-svg" fill="#4D61FC" style="fill:#158566"/><path opacity=".6" d="M744.55 964.641h66.31c.2.695.295 1.416.28 2.14a2.152 2.152 0 0 1-2.14 2.14h-59.4a5.131 5.131 0 0 1-5.05-4.28Z" fill="#000"/><path d="m774.18 946.82 3.6-3.87a.56.56 0 0 0 0-.76.537.537 0 0 0-.76 0l-3.6 3.87a.562.562 0 0 0 0 .76c.096.088.22.137.35.14a.908.908 0 0 0 .41-.14ZM777 948.999l3.59-3.87a.54.54 0 0 0 0-.76.561.561 0 0 0-.76 0l-3.59 3.87a.54.54 0 0 0 0 .76.505.505 0 0 0 .34.14.978.978 0 0 0 .42-.14ZM779.85 951.24l3.59-3.87a.542.542 0 0 0 0-.76.56.56 0 0 0-.76 0l-3.59 3.87a.539.539 0 0 0 0 .76.537.537 0 0 0 .34.14.595.595 0 0 0 .42-.14Z" fill="#fff"/><path d="m710.57 792-45.6-.07 2.63-60.67c.268-6.166.071-12.344-.59-18.48-1.33-12.45-1-23.78-.31-37.3L668 669l90.34 9.64 12.35 106.83-45.37 4.7L716 729l-5.43 63Z" fill="#21252B"/><g opacity=".3"><path opacity=".3" d="m717 730.009-1-.02.5-44.88h4.93v27.24l-2.98 5.88-.9-.46 2.88-5.66v-26h-2.93l-.5 43.9Z" fill="#000"/></g><path opacity=".3" d="m673.15 792 2.26-42.6a161.03 161.03 0 0 0 0-18.25A245.496 245.496 0 0 1 677 685l-11-8v14c-.45 6.75.18 11.38.55 18.14a196.994 196.994 0 0 1 1 32.67L665 792h8.15Z" fill="#000"/><g opacity=".3"><path opacity=".3" d="M758.09 701.87c-9.49-8.7-12.13-21-12.16-21.07l1-.2c0 .12 2.61 12 11.86 20.53l-.7.74Z" fill="#000"/></g><path opacity=".3" d="m725.32 790.169 6.57-1-8.89-53.55c-1.14-8.14-7-5.62-7-5.62l9.32 60.17Z" fill="#000"/><path d="m652.841 604.559 1-9.52 8.319 30.63 3 59.94 26.75 1.81a170.46 170.46 0 0 0 68.28-8.92c-1.88-40.41-9-94.45-9-94.45l-2.489-16.65 32-16-13-30.2-14.36 3.28c-6.66.84-22.57 3.88-22.57 3.88l-26.461 1.17-33.26-1.5-35.5 12.69c-11.65 5.82-11.649 22.47-11.649 22.47l-3.171 38 32.111 3.37Z" class="change-color-in-svg" fill="#4D61FC" style="fill:#158566"/><path d="m653.46 708.499-3.46-57.5-.15.07-1.13-17.91 2.12-28.6-28.1-3.28-.4 29.82a19.22 19.22 0 0 0 .46 6l4.29 25.08 13 50 13.37-3.68ZM815.09 518.261c-11.94-18.34-66.31-45.12-66.31-45.12l-10.78 8.86 42.73 36.26-13 3 13 30.2 25.57-12.76c14.23-7.1 8.79-20.44 8.79-20.44Z" fill="#FC9D9D"/><path d="m666.795 728.371-33.14-7.993a.868.868 0 0 0-1.049.642l-3.813 15.806a.871.871 0 0 0 .642 1.05l33.14 7.993a.869.869 0 0 0 1.049-.642l3.813-15.807a.87.87 0 0 0-.642-1.049Z" fill="#21252B"/><path opacity=".3" d="m666.795 728.371-33.14-7.993a.868.868 0 0 0-1.049.642l-3.813 15.806a.871.871 0 0 0 .642 1.05l33.14 7.993a.869.869 0 0 0 1.049-.642l3.813-15.807a.87.87 0 0 0-.642-1.049Z" fill="#000"/><path d="m665.663 728.082-33.14-7.993a.868.868 0 0 0-1.049.642l-3.813 15.806a.871.871 0 0 0 .642 1.05l33.14 7.993a.87.87 0 0 0 1.05-.642l3.812-15.807a.869.869 0 0 0-.642-1.049Z" fill="#21252B"/><path opacity=".4" d="M663.41 731.2a1.201 1.201 0 0 0 .16-1.57 1.003 1.003 0 0 0-1.108-.336.978.978 0 0 0-.352.206 1.177 1.177 0 0 0-.15 1.57.996.996 0 0 0 1.099.331 1 1 0 0 0 .351-.201Z" fill="#000"/><path d="M663.61 731.3a1.172 1.172 0 0 0 .16-1.57.996.996 0 0 0-1.099-.332.994.994 0 0 0-.351.202 1.196 1.196 0 0 0-.16 1.57 1.008 1.008 0 0 0 .697.378 1.013 1.013 0 0 0 .753-.248Z" fill="#3F4249"/><path opacity=".5" d="M663.4 731.001a.783.783 0 0 0 .09-1 .646.646 0 0 0-1-.09.776.776 0 0 0-.09 1 .654.654 0 0 0 .761.244.651.651 0 0 0 .239-.154Z" fill="#000"/><path opacity=".4" d="M663.4 730.43a.68.68 0 0 0-.52-.7h.12a.66.66 0 0 1 .66.69.764.764 0 0 1-.67.74h-.14a.702.702 0 0 0 .55-.73Z" fill="#000"/><path opacity=".4" d="M663.41 731.2a1.201 1.201 0 0 0 .16-1.57 1.003 1.003 0 0 0-1.108-.336.978.978 0 0 0-.352.206 1.177 1.177 0 0 0-.15 1.57.996.996 0 0 0 1.099.331 1 1 0 0 0 .351-.201Z" fill="#000"/><path d="M663.61 731.3a1.172 1.172 0 0 0 .16-1.57.996.996 0 0 0-1.099-.332.994.994 0 0 0-.351.202 1.196 1.196 0 0 0-.16 1.57 1.008 1.008 0 0 0 .697.378 1.013 1.013 0 0 0 .753-.248Z" fill="#3F4249"/><path opacity=".5" d="M663.4 731.001a.783.783 0 0 0 .09-1 .646.646 0 0 0-1-.09.776.776 0 0 0-.09 1 .654.654 0 0 0 .761.244.651.651 0 0 0 .239-.154Z" fill="#000"/><path opacity=".4" d="M663.4 730.43a.68.68 0 0 0-.52-.7h.12a.66.66 0 0 1 .66.69.764.764 0 0 1-.67.74h-.14a.702.702 0 0 0 .55-.73Z" fill="#000"/><g opacity=".3"><path opacity=".3" d="M651.73 571.68a.413.413 0 0 1-.278-.083.411.411 0 0 1-.152-.247 34.003 34.003 0 0 0-14.77-22 .414.414 0 0 1-.195-.25.416.416 0 0 1 .605-.47 34.886 34.886 0 0 1 15.17 22.52.41.41 0 0 1-.058.309.405.405 0 0 1-.262.171l-.06.05Z" fill="#000"/></g><path opacity=".2" d="m665.19 685.611 13.66 1.11v-2l-5.66-55.14a34.586 34.586 0 0 0-3.1-11.13L655 577.801l-3.33-7.49.75 2.63c1.62 7.06 2.62 17.06 2 22.28l.52 2.82 7.32 27.63 2.93 59.94Z" fill="#000"/><path d="m737.55 466.1-3.55-1.69-9.12-4.59-8.72-.05a.895.895 0 0 0-.72 1c.08 1 .52 2.49 2.42 2.16l-6.35-.62a1.135 1.135 0 0 0-1.13.67l-.24.55c-.39.88 1.72 2.16 2.66 2.32l.5.09-5.61-.74a.993.993 0 0 0-.846.799c-.026.136-.024.275.006.411a4.19 4.19 0 0 0 .67 1.82c.36.2-4-.16-5.67-.29a.524.524 0 0 0-.445.164.53.53 0 0 0-.135.456c.17 1 1.13 3 5.66 3.71 6.32 1 8.89.38 8.89.38l4.79 2.21-.72 2.95-6.82-1.28-.36 3.89c.93.65 8.59 2.87 8.59 2.87s10.54 2 13.64 1.11c3.1-.89 5.37-1.64 5.37-1.64l9.63-8.84-12.39-7.82Z" fill="#FC9D9D"/><path opacity=".15" d="M721.66 473.859s6-2.23 9.07-5.75M713.43 476.84l9.59 1.84s5-3.89 9.32-2.07M708 468.759s6.62 1 9.49-.31c0 0 1.09 2 4.66 2.5M713.31 465.9a39.13 39.13 0 0 0 6.88 0 9.39 9.39 0 0 0 5 3.11M717.09 463.07c2.009.429 4.083.449 6.1.06l3.9 2.7" stroke="#000" stroke-width=".6" stroke-miterlimit="10" stroke-linecap="round"/><path opacity=".15" d="M721 460.061a59.482 59.482 0 0 1-1.32 12l-.45 2.08-3.39-1.56.06-12.42 5.1-.1ZM720 478.001v5l-5.15-1.76.75-4.28 4.4 1.04ZM815 518.32c1.18 11.18-21.92 20.36-21.92 20.36l-15.39 5.76 3 7 25.57-12.76c13.74-6.81 9.14-19.39 8.74-20.36Z" fill="#000"/><path opacity=".2" d="m780.73 551.439-31.95 15.96-3.42-10.84 32.36-12.12 3.01 7Z" fill="#000"/><g opacity=".3"><path opacity=".3" d="M748.78 567.81a.411.411 0 0 1-.4-.29c0-.16-4.59-15.41-6.22-18.67a.42.42 0 0 1 .19-.56.397.397 0 0 1 .314-.019.421.421 0 0 1 .236.209c1.67 3.32 6.09 18.17 6.27 18.8a.424.424 0 0 1-.033.318.423.423 0 0 1-.247.202l-.11.01Z" fill="#000"/></g><g opacity=".3"><path opacity=".3" d="M706.07 648.25a.429.429 0 0 1-.4-.31.414.414 0 0 1 .151-.441.39.39 0 0 1 .149-.069c.17 0 17.37-4.82 25.44-19.67a.409.409 0 0 1 .247-.244.42.42 0 0 1 .556.482.447.447 0 0 1-.073.162c-8.25 15.17-25.78 20-26 20.07l-.07.02Z" fill="#000"/></g><g opacity=".15"><path opacity=".15" d="M644.21 633.58c-.08 0-.16-.1-.19-.26a.59.59 0 0 1 .11-.54c1.51-1.28 4.57-.08 4.7 0 .13.08.19.27.17.49-.02.22-.13.37-.25.33-.12-.04-3.07-1.21-4.46 0a.12.12 0 0 1-.08-.02Z" fill="#000"/></g><path d="m653.15 708.131 6.14 10.48 3.83 9-5.79-1.45s-.33 10.84-3.45 12.19c-.94.41-3.76-.65-3.47-2.93a3.785 3.785 0 0 1-3.13 1c-1.74-.36-2.16-1.49-2-3.65 0 0-.82 1.64-3.24.62-1.46-.62-1.09-2.82-1.09-2.82s-2.64.23-3-1.14a22.865 22.865 0 0 1-.14-6.77l1.58-7.58.59-4.9 13.17-2.05Z" fill="#FC9D9D"/><path opacity=".15" d="M641 730.611c.448-1.516.737-3.074.86-4.65M645.23 732.691a25.517 25.517 0 0 0 1.101-5.47M650.41 735.43a40.881 40.881 0 0 0 1.3-6.84" stroke="#000" stroke-width=".61" stroke-miterlimit="10" stroke-linecap="round"/><path opacity=".15" d="m632.19 661.001-5.5-26.4.24-32.67-4.19-.63-.4 29.82a19.223 19.223 0 0 0 .46 6l4.29 25.08 12.74 49.36-1.83 10.44-.32 2.07.11 3.94c.11 2.81 1.23 2.43 1.23 2.43v-7.12l2.82-12.32-9.65-50Z" fill="#000"/><path opacity=".2" d="m620.74 601.281 3.17-38s0-16.65 11.65-22.47l1.38-.43c-6.53 5.81-6.79 15.83-6.79 15.83l-3.22 45.75-6.19-.68Z" fill="#000"/><path d="m668.3 477.141 4.88 26.51-.88 24.63 13.83 5.2a51.372 51.372 0 0 0 14.21 3.12h.73a4.603 4.603 0 0 0 3.664-1.45 4.62 4.62 0 0 0 1.206-3.75l-1.94-16.08 8-.25c.273.015.547.015.82 0 5.15-.29 8.05-1.18 8.08-9.57l-.57-10.07 2.88-1.9a.645.645 0 0 0 .16-.12 1.86 1.86 0 0 0 .29-2.55l-5.91-7.15-.15-.53.14-1.21a28.255 28.255 0 0 0-2.44-14.87l-2.12-4.54-44.88 14.58Z" fill="#FC9D9D"/><path d="m713.54 469-11.81 2.31c-5.6 4 3.13 10.05-10.41 12.94-.25 1.55 1.76 7.63-.84 8-2 .49-2.2-2.23-2.49-3.58l-7.48 2.48c1.16 9.39-2.2 11.92-7.29 14-7.52-12.56-23.85-40.17-1.75-44.94 2.15.12 2.9-2.3 3.5-3.11 2-5.33 11.37-8.83 17.76-6.49a15.944 15.944 0 0 0 14.89 1.19c12.12-4.62 18.78 13.4 5.92 17.2Z" fill="#000"/><path d="m690.75 501.53-2.59-12.39a5.01 5.01 0 0 0-2.151-3.202 5.004 5.004 0 0 0-3.789-.718 5.11 5.11 0 0 0-3.86 6l.51 2.45a9.99 9.99 0 0 0 4.304 6.396 10.009 10.009 0 0 0 7.576 1.434v.03Z" fill="#FC9D9D"/><g opacity=".3"><path opacity=".3" d="m686.85 492.159-.43-2.06a3.34 3.34 0 0 0-5.239-2.01 3.278 3.278 0 0 0-.941 1.09v.09a.745.745 0 0 0 .135.832.75.75 0 0 0 .245.168.729.729 0 0 0 .584.033.722.722 0 0 0 .416-.413 1.698 1.698 0 0 1 1.25-1 1.9 1.9 0 0 1 1.425.27 1.891 1.891 0 0 1 .815 1.2l.43 2.07a.807.807 0 0 0 .9.59.61.61 0 0 0 .41-.86Z" fill="#21252B"/></g><path opacity=".15" d="m705.09 522.161-7.94-5.32a1.233 1.233 0 0 1-.43-1.09 1.212 1.212 0 0 1 1.33-1.07l5.91.56 1.13 6.92Z" fill="#000"/><path d="m703.88 515.509-5.83-.83c-10.12-.33-9.89-25.54-9.89-25.54l3.51-1.44c.61 10.73 4.34 15.38 4.34 15.38 4.5 6.11 9 4.77 11.89 2.68 1.73-1.26 3.05-3.94 3.91-5.92 2.58-6 8.55-3.45 8.55-3.45l.51 9.1c0 8.39-2.93 9.28-8.08 9.57a7.477 7.477 0 0 1-.82 0" fill="#000"/><path opacity=".15" d="m677.18 503.089 6.83-2.46a16.294 16.294 0 0 1-3.2-2.84 8.22 8.22 0 0 1-3.63 5.3Z" fill="#000"/><path d="M713.991 487.023c1.027-.188 1.689-1.27 1.479-2.416-.21-1.147-1.213-1.923-2.24-1.735-1.027.188-1.689 1.27-1.478 2.416.21 1.147 1.212 1.923 2.239 1.735Z" fill="#000"/><path d="M714.47 484.131c.155 0 .28-.13.28-.29 0-.16-.125-.29-.28-.29-.154 0-.28.13-.28.29 0 .16.126.29.28.29ZM720.76 501.921a15.929 15.929 0 0 0-4.8.54.393.393 0 0 1-.455-.177.39.39 0 0 1 .075-.483 10.504 10.504 0 0 1 5.08-2.84l.1 2.96Z" fill="#fff"/><path d="M716.58 477.59c-.11.43-2 .59-4.23 1.21-2.23.62-3.9 1.43-4.26 1.13-.16-.15.08-.59.74-1.11a8.596 8.596 0 0 1 3-1.47 9.501 9.501 0 0 1 3.43-.32c.9.11 1.37.35 1.32.56Z" fill="#000"/><path opacity=".15" d="M780.73 518.26S786 523 790 525" stroke="#000" stroke-miterlimit="10" stroke-linecap="round"/><path opacity=".2" d="M683.58 818.921s6.9-.13 9.66-2.53M762.08 818.661s6.29.13 7.61-1.27" stroke="#000" stroke-miterlimit="10"/><path opacity=".15" d="m667.3 943.81 4.61-5.78.24-111.64 1-34.39-5.36-.75c-1.67 50.28 1.39 102.48-.49 152.56Z" fill="#000"/><g opacity=".3"><path opacity=".3" d="m670.22 707.911-.3-1c11.72-3.63 14.64-18.79 14.66-18.94l1 .18c-.04.2-3.06 15.94-15.36 19.76Z" fill="#000"/></g><path d="M1097.37 952.889s-.85-23.87 12.36-31.12c13.21-7.25 110-11.08 110-11.08l47.27 32.83-2.5 25.31h-167.15l.02-15.94Z" fill="#3F4249"/><path d="M1030.14 968.83s-.18-1 14.67-16.85c14.85-15.85 78.17-11.68 84.15-11 5.98.68 13.44 27.89 13.44 27.89l-112.26-.04Z" fill="#868A91"/><path d="M592.84 850.939h6.7v-112.56h-6.7v112.56ZM540.57 850.939h6.7v-112.56h-6.7v112.56Z" fill="#B2B6BB"/><path opacity=".2" d="M592.84 738.391h6.7v11.61l-6.7-.73v-10.88Zm-52.26 9.26 6.7.73v-10h-6.7v9.27Z" fill="#000"/><path d="M540.75 730h58.61a3.32 3.32 0 0 1 3.28 3.35V738a3.32 3.32 0 0 1-3.28 3.35h-10a17.858 17.858 0 0 1-9.06-2.35 22.236 22.236 0 0 0-20.49 0 17.844 17.844 0 0 1-9.11 2.26h-10a3.311 3.311 0 0 1-3.27-3.35v-4.6a3.307 3.307 0 0 1 2.05-3.061c.403-.166.834-.25 1.27-.249Z" fill="#21252B"/><path d="M530.29 956.939h76.4a5.58 5.58 0 0 0 5.58-5.58v-137.88a5.581 5.581 0 0 0-5.58-5.58h-76.4a5.58 5.58 0 0 0-5.58 5.58v137.88a5.58 5.58 0 0 0 5.58 5.58Z" class="change-color-in-svg" fill="#4D61FC" style="fill:#158566"/><path opacity=".2" d="M530.29 956.939h76.4a5.58 5.58 0 0 0 5.58-5.58v-137.88a5.581 5.581 0 0 0-5.58-5.58h-76.4a5.58 5.58 0 0 0-5.58 5.58v137.88a5.58 5.58 0 0 0 5.58 5.58Z" fill="#000"/><path d="M598.1 807.9v149.04" stroke="#1656BD" stroke-width="1.42" stroke-miterlimit="10"/><path d="M499.17 956.939h76.4a5.58 5.58 0 0 0 5.58-5.58v-137.88a5.58 5.58 0 0 0-5.58-5.58h-76.4a5.581 5.581 0 0 0-5.58 5.58v137.88a5.58 5.58 0 0 0 5.58 5.58Z" class="change-color-in-svg" fill="#4D61FC" style="fill:#158566"/><path d="M597.8 807.9h-1.42v149.04h1.42V807.9Z" fill="#21252B"/><path d="M591.36 852.949h11.45v-5.11h-11.45v5.11ZM591.36 917h11.45v-5.11h-11.45V917Z" fill="#fff"/><g opacity=".3" fill="#000"><path opacity=".3" d="M565.539 945.161a2.89 2.89 0 0 0 2.89-2.89v-118.16a2.879 2.879 0 0 0-1.781-2.679 2.886 2.886 0 0 0-3.781 1.57 2.892 2.892 0 0 0-.218 1.109v118.16a2.89 2.89 0 0 0 2.89 2.89ZM546.759 945.161a2.89 2.89 0 0 0 2.89-2.89v-118.16a2.873 2.873 0 0 0-.843-2.05 2.883 2.883 0 0 0-2.047-.85 2.886 2.886 0 0 0-2.673 1.791 2.91 2.91 0 0 0-.217 1.109v118.16a2.89 2.89 0 0 0 2.89 2.89ZM527.999 945.161a2.89 2.89 0 0 0 2.89-2.89v-118.16a2.873 2.873 0 0 0-.843-2.05 2.877 2.877 0 0 0-2.047-.85 2.886 2.886 0 0 0-2.673 1.791 2.91 2.91 0 0 0-.217 1.109v118.16a2.89 2.89 0 0 0 2.89 2.89ZM509.2 945.161a2.898 2.898 0 0 0 2.043-.847 2.9 2.9 0 0 0 .847-2.043v-118.16a2.892 2.892 0 0 0-2.89-2.9 2.891 2.891 0 0 0-2.89 2.9v118.16a2.89 2.89 0 0 0 2.89 2.89Z"/></g><path d="M534.03 969.48a5.95 5.95 0 1 0 0-11.9 5.95 5.95 0 0 0 0 11.9ZM498.72 963.53a5.954 5.954 0 0 0 3.675 5.498 5.954 5.954 0 0 0 6.486-1.294 5.954 5.954 0 0 0-.913-9.156c-.98-.653-2.131-1-3.308-.998a5.947 5.947 0 0 0-4.204 1.743 5.94 5.94 0 0 0-1.736 4.207Z" fill="#3F4249"/><path d="M504.67 960.59h96.25v-3.89h-96.25v3.89Z" fill="#21252B"/><path d="M594.91 963.53a5.95 5.95 0 1 0 11.9 0 5.95 5.95 0 0 0-11.9 0ZM571.49 969.48a5.95 5.95 0 1 0 0-11.9 5.95 5.95 0 0 0 0 11.9Z" fill="#3F4249"/><path d="M571.49 965.841a2.31 2.31 0 1 0 0-4.62 2.31 2.31 0 0 0 0 4.62ZM598.55 963.531a2.307 2.307 0 0 0 2.76 2.265 2.306 2.306 0 0 0 1.815-1.815 2.313 2.313 0 0 0-2.265-2.76c-.613 0-1.2.243-1.634.676a2.312 2.312 0 0 0-.676 1.634Z" fill="#868A91"/><path d="M939.49 463h-16.48v506.05h16.48V463Z" fill="#B2B6BB"/><path opacity=".2" d="m923.01 535.8 16.49-21.21V463h-16.49v72.8Z" fill="#000"/><path d="M1055.51 363h-238.5v109.75h238.5V363Z" class="change-color-in-svg" fill="#4D61FC" style="fill:#158566"/><path opacity=".2" d="M1055.51 363h-238.5v109.75h238.5V363Z" fill="#000"/><path d="M1050.5 363H817.72v103.08h232.78V363Z" class="change-color-in-svg" fill="#4D61FC" style="fill:#158566"/><path d="M893.94 434.631h-7.66v13.18h-13.13v-13.18H846v-9.35l27.88-41.06h12.39v40h7.66l.01 10.41Zm-20.79-10.43v-10.79c0-1.8.073-4.41.22-7.83.14-3.42.26-5.41.34-6h-.34a48.91 48.91 0 0 1-3.88 7l-11.65 17.62h15.31ZM951.91 415.999c0 11.1-1.82 19.32-5.46 24.66-3.64 5.34-9.243 8.007-16.81 8-7.333 0-12.863-2.753-16.59-8.26-3.727-5.506-5.59-13.64-5.59-24.4 0-11.22 1.81-19.49 5.43-24.81 3.62-5.32 9.203-7.986 16.75-8 7.333 0 12.88 2.787 16.64 8.36 3.76 5.574 5.637 13.724 5.63 24.45Zm-31.1 0c0 7.8.667 13.39 2 16.77 1.333 3.38 3.603 5.067 6.81 5.06 3.133 0 5.393-1.71 6.78-5.13 1.387-3.42 2.083-8.986 2.09-16.7 0-7.8-.703-13.403-2.11-16.81-1.4-3.41-3.66-5.11-6.76-5.11-3.1 0-5.42 1.7-6.79 5.11s-2.02 9.03-2.02 16.81ZM1013.44 434.631h-7.65v13.18h-13.14v-13.18h-27.14v-9.35l27.88-41.06h12.4v40h7.65v10.41Zm-20.79-10.43v-10.79c0-1.8.073-4.41.22-7.83.15-3.42.26-5.41.35-6h-.35a47.825 47.825 0 0 1-3.87 7l-11.66 17.62h15.31Z" fill="#fff"/><path d="m995 354.179 3.36 7.51a.5.5 0 0 0 .43.24h4.56c1.59 0 3.57-.34 3.74 1.92 0 .63 1 .64 1 0-.3-4-5.3-2.9-8.06-2.9h-1c-.53 0 .27.46.09.05l-1.12-2.52c-.72-1.6-1.437-3.2-2.15-4.8-.26-.57-1.11-.07-.85.5Z" fill="#21252B"/><path d="M998.82 361.001c-2.58 0-6.79-.82-7 2.9 0 .64 1 .64 1 0 .07-1.41 1-1.92 2.24-1.92h3.74a.5.5 0 0 0 0-1" fill="#21252B"/><path d="M969.73 341.48s17.791-16.27 23.721-22.81c5.93-6.54 13.539-10.19 20.999-8.06 7.46 2.13 12.31 10.34 9.73 20.68s-14.54 25.54-30.719 24.78c-16.18-.76-21.461-11.55-23.731-14.59Z" fill="#DADDDF"/><path opacity=".1" d="M969.73 341.48s17.791-16.27 23.721-22.81c5.93-6.54 13.539-10.19 20.999-8.06 7.46 2.13 12.31 10.34 9.73 20.68s-14.54 25.54-30.719 24.78c-16.18-.76-21.461-11.55-23.731-14.59Z" fill="#000"/><path d="M975.2 348.56a8.546 8.546 0 0 0 7.81 1.06s-2.35 2.6 1.82 3.12 12.76-2.87 12.76-2.87-2 3.11 1.08 2.93c3.08-.18 9.53-3.75 14.83-9.18 5.3-5.43 12.79-14.13 8.08-24.37-3.78-8.21-15.78-13.55-32.89 5.61l-13.49 23.7Z" fill="#DADDDF"/><path d="M1014.44 310.61c-7.45-2.13-15.06 1.52-21 8.06-2.11 2.33-5.74 5.9-9.52 9.53l4.08 4.1 7.56-5.69s0-6.07 5-6.57c7.32-.72 6.22 14.32 24.24 6.45.26-8-4.17-14.1-10.42-15.88" class="change-color-in-svg" fill="#4D61FC" style="fill:#158566"/><path opacity=".2" d="M1014.44 310.61c-7.45-2.13-15.06 1.52-21 8.06-2.11 2.33-5.74 5.9-9.52 9.53l4.08 4.1 7.56-5.69s0-6.07 5-6.57c7.32-.72 6.22 14.32 24.24 6.45.26-8-4.17-14.1-10.42-15.88" fill="#000"/><path d="M1017.48 323.081a2.439 2.439 0 0 1-2.92 2.392 2.449 2.449 0 0 1-1.25-.671 2.415 2.415 0 0 1-.66-1.252c-.1-.473-.05-.964.14-1.41.18-.446.5-.826.9-1.093s.88-.408 1.36-.406c.32 0 .64.063.93.186.3.122.57.302.79.529.23.227.41.496.53.792.12.296.18.613.18.933Z" fill="#000"/><path d="M1024.32 321.25s5.06 2.51 5.17 3.54c.11 1.03-4.89 4.35-4.89 4.35s-2.26-4.81-.28-7.89" fill="#3F4249"/><path d="m992.72 355 3.36 7.5a.478.478 0 0 0 .43.25h4.56c1.6 0 3.57-.34 3.74 1.92.05.63 1 .63 1 0-.3-4-5.3-2.91-8-2.91h-1c-.54 0 .26.46.08.06l-1.13-2.52-2.15-4.8c-.26-.58-1.11-.08-.85.5" fill="#21252B"/><path d="M996.51 361.719c-2.58 0-6.78-.82-7 2.91 0 .64 1 .63 1 0 .07-1.41 1-1.92 2.24-1.92h3.74a.501.501 0 0 0 0-1" fill="#21252B"/><path d="M960 346.491s21.07-17.84 26.43-20.7c5.36-2.86 14.09-2.09 16.3 5.5 2.43 8.36-5.9 23.26-29.41 15.2l-7.09 11.11-6.23-11.11Z" class="change-color-in-svg" fill="#4D61FC" style="fill:#158566"/><path opacity=".2" d="M974.59 341.001s1.2 2 7.36-2.88c0 0-2.62 3.46-.49 4s7.86-3.54 7.86-3.54-2.92 2.9-.47 3.74c2.45.84 6.5-2.73 7.42-4.84.92-2.11 2.93-7.06-1.07-9.28-4-2.22-10.89.39-15.65 4.21s-6.11 6.32-5 8.59" fill="#fff"/><path d="M1016.23 322.891c0 .103-.03.205-.08.291a.569.569 0 0 1-.23.196.52.52 0 0 1-.57-.106.48.48 0 0 1-.15-.266.521.521 0 0 1 .03-.302c.04-.095.1-.177.19-.235a.544.544 0 0 1 .29-.088c.14 0 .27.053.36.149.1.095.16.225.16.361" fill="#fff"/><path d="M1086.5 930.17c-1 2.56-1.93 5.13-2.9 7.7a.516.516 0 0 1-.17.189.481.481 0 0 1-.24.081l-4.55.28c-1.59.1-3.59-.12-3.62 2.15 0 .63-1 .7-1 .06 0-4 5.1-3.23 7.86-3.4l1-.06c.54 0-.23.47-.08.06l1-2.59c.61-1.64 1.23-3.28 1.85-4.92.22-.59 1.1-.14.88.45" fill="#21252B"/><path d="M1083.13 937.15c2.57-.16 6.72-1.23 7.13 2.47.07.64-.91.69-1 .06-.16-1.4-1.12-1.85-2.36-1.77l-3.73.23a.5.5 0 0 1-.53-.47.524.524 0 0 1 .12-.362c.09-.099.22-.16.35-.168" fill="#21252B"/><path d="M1111 915.92s-18.77-15.14-25.09-21.3-14.14-9.33-21.44-6.74c-7.3 2.59-11.7 11.12-8.47 21.24 3.23 10.12 16.1 24.59 32.19 22.84 16.09-1.75 20.69-12.86 22.78-16" fill="#DADDDF"/><path opacity=".1" d="M1111 915.92s-18.77-15.14-25.09-21.3-14.14-9.33-21.44-6.74c-7.3 2.59-11.7 11.12-8.47 21.24 3.23 10.12 16.1 24.59 32.19 22.84 16.09-1.75 20.69-12.86 22.78-16" fill="#000"/><path d="M1105.93 923.331a8.562 8.562 0 0 1-3.67 1.714 8.54 8.54 0 0 1-4.05-.174s2.5 2.45-1.63 3.23c-4.13.78-12.91-2.07-12.91-2.07s2.22 3-.89 3c-3.11 0-9.75-3.14-15.38-8.24-5.63-5.1-13.64-13.31-9.57-23.82 3.27-8.43 14.91-14.51 33.18 3.56l14.92 22.8Z" fill="#DADDDF"/><path d="M1064.43 887.879c7.3-2.59 15.11.59 21.44 6.74 2.25 2.2 6.09 5.54 10.1 8.93l-3.83 4.34-7.9-5.21s-.35-6-5.44-6.24c-7.35-.27-5.33 14.67-23.79 7.93-.76-8 3.28-14.32 9.42-16.49" class="change-color-in-svg" fill="#4D61FC" style="fill:#158566"/><path opacity=".2" d="M1064.43 887.879c7.3-2.59 15.11.59 21.44 6.74 2.25 2.2 6.09 5.54 10.1 8.93l-3.83 4.34-7.9-5.21s-.35-6-5.44-6.24c-7.35-.27-5.33 14.67-23.79 7.93-.76-8 3.28-14.32 9.42-16.49" fill="#000"/><path d="M1062.16 900.51c.03.479.2.939.49 1.321.3.381.69.668 1.15.824a2.434 2.434 0 0 0 2.61-.69c.31-.36.52-.806.58-1.282.07-.476-.01-.96-.22-1.392a2.4 2.4 0 0 0-.96-1.033 2.408 2.408 0 0 0-1.37-.328 2.449 2.449 0 0 0-2.28 2.58" fill="#000"/><path d="M1055.22 899.111s-4.89 2.82-4.94 3.85c-.05 1.03 5.15 4 5.15 4s2-5-.21-7.9" fill="#3F4249"/><path d="m1088.85 930.8-2.9 7.7a.452.452 0 0 1-.17.193.45.45 0 0 1-.24.077l-4.54.28c-1.6.1-3.59-.11-3.63 2.15 0 .63-1 .7-1 .06.06-4 5.11-3.23 7.86-3.4l1-.06c.53 0-.24.48-.08.06l1-2.58 1.85-4.92c.22-.6 1.1-.15.88.44" fill="#21252B"/><path d="M1085.48 937.781c2.58-.16 6.72-1.23 7.13 2.48.07.63-.91.69-1 .06-.16-1.41-1.12-1.861-2.36-1.781l-3.73.231a.506.506 0 0 1-.53-.47.49.49 0 0 1 .13-.363c.08-.099.21-.16.34-.167" fill="#21252B"/><path d="M1121 920.331s-22.14-16.51-27.66-19c-5.52-2.49-14.19-1.21-15.93 6.5-1.91 8.5 7.33 22.86 30.29 13.36l7.76 10.64 5.54-11.5Z" class="change-color-in-svg" fill="#4D61FC" style="fill:#158566"/><path opacity=".2" d="M1106.08 915.76s-1.07 2.1-7.53-2.42c0 0 2.83 3.29.74 4s-8.07-3-8.07-3 3.1 2.71.7 3.7c-2.4.99-6.65-2.32-7.7-4.38-1.05-2.06-3.36-6.86.5-9.32s10.89-.29 15.87 3.23c4.98 3.52 6.5 5.93 5.49 8.27" fill="#fff"/><path d="M1063.4 900.25c.04.107.11.2.2.263a.521.521 0 0 0 .63-.038.479.479 0 0 0 .17-.285.476.476 0 0 0 0-.237.554.554 0 0 0-.11-.211.558.558 0 0 0-.43-.181.548.548 0 0 0-.23.068.472.472 0 0 0-.17.162.58.58 0 0 0-.08.223c-.01.079-.01.16.02.236" fill="#fff"/><path d="M905.05 927.51c-4.16-5-8.89-9.9-12.51-15.27-.8-1.19-4.95-8.81-1.52-7.88 3.43.93 6.45 6.69 7.9 9.49 1.45 2.8 3 5.59 4.33 8.45a22.86 22.86 0 0 1 1.69 3.83c0 .17.4 1.71.11 1.38-3.13-3.73.52.61 0 0ZM921.82 969.001a21.474 21.474 0 0 0-.8-5.23 31.951 31.951 0 0 0-4.67-9.65c-4.36-6.26-10.43-12.16-17.67-14.85a22.367 22.367 0 0 0-5.21-1.33c-.84-.09-3.44-.49-4.09.25-.65.74.17.58.81.85a27.147 27.147 0 0 1 3.68 2c11 6.76 24 14.66 26.91 28l1.04-.04Z" class="change-color-in-svg" fill="#4D61FC" style="fill:#158566"/><path opacity=".2" d="M921.82 969.001a21.474 21.474 0 0 0-.8-5.23 31.951 31.951 0 0 0-4.67-9.65c-4.36-6.26-10.43-12.16-17.67-14.85a22.367 22.367 0 0 0-5.21-1.33c-.84-.09-3.44-.49-4.09.25-.65.74.17.58.81.85a27.147 27.147 0 0 1 3.68 2c11 6.76 24 14.66 26.91 28l1.04-.04Z" fill="#000"/><path d="M924.22 969c-.63-10.23-3.67-20.08-7-29.71-1.51-4.38-3-8.82-4.88-13.07-2.27-5.14-5.05-10.13-7.77-15-1.29-2.32-2.62-4.61-4.06-6.84-.65-1-1.32-2-2-3-.28-.37-1.62-1.62-1.63-2.06 0-.65.61-.11 1 .11a21.184 21.184 0 0 1 2.59 1.93 41.227 41.227 0 0 1 5.36 5.69 59.628 59.628 0 0 1 8.45 14.3 156.438 156.438 0 0 1 5.07 15.58 149.108 149.108 0 0 1 4.36 18.55 83.19 83.19 0 0 1 .94 8.48c.06 1.2.08 2.4.07 3.6 0 .29.13 1.13 0 1.35-.11-.01-.46.71-.5.09Z" class="change-color-in-svg" fill="#4D61FC" style="fill:#158566"/><path opacity=".2" d="M924.22 969c-.63-10.23-3.67-20.08-7-29.71-1.51-4.38-3-8.82-4.88-13.07-2.27-5.14-5.05-10.13-7.77-15-1.29-2.32-2.62-4.61-4.06-6.84-.65-1-1.32-2-2-3-.28-.37-1.62-1.62-1.63-2.06 0-.65.61-.11 1 .11a21.184 21.184 0 0 1 2.59 1.93 41.227 41.227 0 0 1 5.36 5.69 59.628 59.628 0 0 1 8.45 14.3 156.438 156.438 0 0 1 5.07 15.58 149.108 149.108 0 0 1 4.36 18.55 83.19 83.19 0 0 1 .94 8.48c.06 1.2.08 2.4.07 3.6 0 .29.13 1.13 0 1.35-.11-.01-.46.71-.5.09Z" fill="#000"/><path d="M923.88 969h.84c0-.56-.11-1.15-.13-1.59a58.917 58.917 0 0 0-.77-7.39 58.34 58.34 0 0 0-4.75-15.43c-4.27-9-10.57-17.17-19.44-21.9-.84-.44-10.7-4.81-11-3.48-.17.64 3.24 2.5 3.78 2.89a92.57 92.57 0 0 1 5.16 4c7.39 6 14.49 12.62 19.15 21a66.981 66.981 0 0 1 7.16 21.9ZM928.53 968.999h.4v-1.93c0-1.81 0-3.62-.08-5.43-.1-4.07-.3-8.15-.68-12.2-.68-7.47-1.48-14.92-4.07-22a49.365 49.365 0 0 0-2-4.789c-.14-.27-1.17-2.641-1.49-2.171-.11.17.14 1.06.17 1.26.11.68.23 1.36.34 2 .28 1.65.57 3.29.88 4.93 1.37 7.35 3.17 14.61 4.31 22 .92 6.11 1.61 12.21 2.22 18.33Z" class="change-color-in-svg" fill="#4D61FC" style="fill:#158566"/><path opacity=".2" d="M928.53 968.999h.4v-1.93c0-1.81 0-3.62-.08-5.43-.1-4.07-.3-8.15-.68-12.2-.68-7.47-1.48-14.92-4.07-22a49.365 49.365 0 0 0-2-4.789c-.14-.27-1.17-2.641-1.49-2.171-.11.17.14 1.06.17 1.26.11.68.23 1.36.34 2 .28 1.65.57 3.29.88 4.93 1.37 7.35 3.17 14.61 4.31 22 .92 6.11 1.61 12.21 2.22 18.33Z" fill="#fff"/><path d="M934.94 947.921a41.21 41.21 0 0 1 .46-12.78 39.138 39.138 0 0 1 1.8-7.32 31.604 31.604 0 0 1 3.47-6.29c.54-.8 1.08-1.6 1.6-2.41.15-.24 1-2 1.21-2 .91-.1-.13 4-.31 4.63a32.269 32.269 0 0 1-2.93 6.44 29.525 29.525 0 0 0-2.77 6.91 72.329 72.329 0 0 0-1.76 7.61c-.19 1.15-.34 2.3-.42 3.46.055.455.055.915 0 1.37.02-.19-.29 1.09-.35.38Z" class="change-color-in-svg" fill="#4D61FC" style="fill:#158566"/><path opacity=".2" d="M934.94 947.921a41.21 41.21 0 0 1 .46-12.78 39.138 39.138 0 0 1 1.8-7.32 31.604 31.604 0 0 1 3.47-6.29c.54-.8 1.08-1.6 1.6-2.41.15-.24 1-2 1.21-2 .91-.1-.13 4-.31 4.63a32.269 32.269 0 0 1-2.93 6.44 29.525 29.525 0 0 0-2.77 6.91 72.329 72.329 0 0 0-1.76 7.61c-.19 1.15-.34 2.3-.42 3.46.055.455.055.915 0 1.37.02-.19-.29 1.09-.35.38Z" fill="#000"/><path d="M932.53 914.001c.19 1.91.33 3.83.48 5.75.66 8.61 1 17.25.9 25.87-.1 7-.3 16.09-.09 23.41h.67v-3.49c.12-2.14.2-5.08.36-7.21.38-4.82.84-9.62 1.17-14.44.57-8.36 1.08-16.75-.73-25a44.018 44.018 0 0 0-1.51-5.42c-.3-.86-.64-1.7-1-2.53-.09-.2-.36-1.18-.65-.85-.29.33.06 1.09.09 1.34.12.83.23 1.68.31 2.57ZM939.28 969.999c.46-4 1-9.26 1.37-11.09 1.05-5.32 2.26-10.6 3.68-15.83 2.28-8.39 5.79-16.52 9.36-24.43.93-2.06 1.86-4.13 2.84-6.17.26-.52 2-3.39 1-3.34-.5 0-1.73 1.46-2.13 1.83a30.731 30.731 0 0 0-2.33 2.39 38.933 38.933 0 0 0-3.911 5.12c-4.92 7.65-6.859 16.5-8.519 25.32a234.601 234.601 0 0 0-2.87 26.2h1.51Z" class="change-color-in-svg" fill="#4D61FC" style="fill:#158566"/><path d="M980 902.52c-1-.08-2.73.85-3.6 1.21a37.689 37.689 0 0 0-3.52 1.65 44.154 44.154 0 0 0-6.23 4.07c-9.6 7.44-15.2 18.44-19.81 29.42-3.58 8.53-7.78 21-8 31.13h1.07v-1.16c.1-1.303.28-2.599.54-3.88a64.026 64.026 0 0 1 2.6-9.22 149.357 149.357 0 0 1 8.07-18.15 105.073 105.073 0 0 1 21.38-28c2.08-2 4.28-3.8 6.54-5.55.71-.52 2.47-1.4.96-1.52Z" class="change-color-in-svg" fill="#4D61FC" style="fill:#158566"/><path opacity=".2" d="M980 902.52c-1-.08-2.73.85-3.6 1.21a37.689 37.689 0 0 0-3.52 1.65 44.154 44.154 0 0 0-6.23 4.07c-9.6 7.44-15.2 18.44-19.81 29.42-3.58 8.53-7.78 21-8 31.13h1.07v-1.16c.1-1.303.28-2.599.54-3.88a64.026 64.026 0 0 1 2.6-9.22 149.357 149.357 0 0 1 8.07-18.15 105.073 105.073 0 0 1 21.38-28c2.08-2 4.28-3.8 6.54-5.55.71-.52 2.47-1.4.96-1.52Z" fill="#fff"/><path d="M980.27 932.24c-.63-.84-4.4-.411-5.28-.331-1.591.168-3.16.503-4.68 1-8.47 2.69-14.83 9.4-20.21 16.19-4.28 5.4-8.91 13.611-10.81 20.911h1.29c.21-.927.47-1.842.78-2.74a39.827 39.827 0 0 1 3.35-6.111 70.982 70.982 0 0 1 9-11 83.004 83.004 0 0 1 20.12-14.769 35.505 35.505 0 0 1 4.86-2.14c.44-.16 2.08-.33 1.58-1.01Z" class="change-color-in-svg" fill="#4D61FC" style="fill:#158566"/><path opacity=".2" d="M980.27 932.24c-.63-.84-4.4-.411-5.28-.331-1.591.168-3.16.503-4.68 1-8.47 2.69-14.83 9.4-20.21 16.19-4.28 5.4-8.91 13.611-10.81 20.911h1.29c.21-.927.47-1.842.78-2.74a39.827 39.827 0 0 1 3.35-6.111 70.982 70.982 0 0 1 9-11 83.004 83.004 0 0 1 20.12-14.769 35.505 35.505 0 0 1 4.86-2.14c.44-.16 2.08-.33 1.58-1.01Z" fill="#000"/><path d="M1202.42 970.999s-9-2.92-9.93-19.63c-.76-13.33-10.68-8.63-17.88-18.25-8.21-11-1-15.85-6.46-28.4-3.37-7.75-13.44-3.42-14.33-21.43-.89-18.01-2.79-21.67-6.59-29 0 0 10.6 12.85 19 17.82 7.81 4.65 9.3 3.16 14.24 6.63 5.91 4.14 2 11.1 8 15.65 6 4.55 11.61 2.74 15.94 8.74 7.56 10.45 2.37 18 8.21 24.85 5.84 6.85 16.19 6.77 23.65 18.9a33.986 33.986 0 0 1 4.45 24.15l-38.3-.03Z" class="change-color-in-svg" fill="#4D61FC" style="fill:#158566"/><path d="m1224.03 971-53.32-77.23M1181.76 920.689l15.61 11.7M1182.39 898.811l1.94 14.7M1213.83 941.27l2.68 18.839" stroke="#000" stroke-width=".61" stroke-linecap="round" stroke-linejoin="round"/><path d="M1226.79 971s-11.39-27.34-10.28-45.86c1.11-18.52 6.7-22.9 3.71-36.44s-14-16.91-9.38-34.44c4.62-17.53 11.3-20.3 10-58 0 0 4.77 27.28 17.19 43.15 10.61 13.56 14.93 17.14 11 41.94-3.59 22.84 2.42 26.17 8.59 35.5 6.17 9.33 9.86 33.58 2 54.1l-32.83.05Z" class="change-color-in-svg" fill="#4D61FC" style="fill:#158566"/><path opacity=".3" d="M1226.79 971s-11.39-27.34-10.28-45.86c1.11-18.52 6.7-22.9 3.71-36.44s-14-16.91-9.38-34.44c4.62-17.53 11.3-20.3 10-58 0 0 4.77 27.28 17.19 43.15 10.61 13.56 14.93 17.14 11 41.94-3.59 22.84 2.42 26.17 8.59 35.5 6.17 9.33 9.86 33.58 2 54.1l-32.83.05Z" fill="#fff"/><path d="M1225.76 834.811s8 18.33 7.8 48.84c-.16 29 3.56 65 13.18 87.35" stroke="#000" stroke-width=".61" stroke-linecap="round" stroke-linejoin="round"/><path d="M1218 856s9.74 8.55 15.38 18.74M1239.75 874.75s.14 9.61-5.92 24.4M1224 915.85a27.774 27.774 0 0 0 4.74 9.792 27.607 27.607 0 0 0 8.15 7.208" stroke="#000" stroke-width=".61" stroke-linecap="round" stroke-linejoin="round"/><path d="M1262.12 892.419s-4.4-10.6 8-31.81 24.36-27.46 29-24.75c6.52 3.76-6.29 49-37 56.56Z" class="change-color-in-svg" fill="#4D61FC" style="fill:#158566"/><path d="M1255.5 913.861c4.24-14.09 6.66-27.91 19.77-43.55" stroke="#000" stroke-width=".61" stroke-linecap="round" stroke-linejoin="round"/><path d="M1275.89 952.921s-6.44-9.61-1.91-36.1c4.53-26.49 12.22-37.33 18-36.05 6.24 1.4 9.8 52.63-16.09 72.15Z" class="change-color-in-svg" fill="#4D61FC" style="fill:#158566"/><path d="M1268.4 971s11.63-19.77 12.68-49.42" stroke="#000" stroke-width=".61" stroke-linecap="round" stroke-linejoin="round"/><path d="M469.34 959.659s.56-15.86-8.22-20.68c-8.78-4.82-73.12-7.36-73.12-7.36l-31.4 21.81 1.66 16.82h111.09l-.01-10.59Z" fill="#3F4249"/><path d="M434.27 968c.28-2.35.6-5.49.81-6.57.63-3.15 1.35-6.29 2.19-9.39a99.03 99.03 0 0 1 5.54-14.48c.55-1.22 1.1-2.44 1.69-3.65.15-.31 1.17-2 .6-2-.3 0-1 .86-1.26 1.08-.485.449-.946.923-1.38 1.42a22.674 22.674 0 0 0-2.32 3c-2.91 4.54-4.07 9.78-5.05 15a137.686 137.686 0 0 0-1.7 15.53l.88.06Z" class="change-color-in-svg" fill="#4D61FC" style="fill:#158566"/><path d="M458.42 928a6.386 6.386 0 0 0-2.13.72c-.714.297-1.411.63-2.09 1a25.643 25.643 0 0 0-3.69 2.41c-5.69 4.41-9 10.93-11.74 17.44-2.13 5.04-4.62 12.43-4.77 18.43h.63v-.69A17.86 17.86 0 0 1 435 965a38.131 38.131 0 0 1 1.54-5.46 87.501 87.501 0 0 1 4.78-10.76 62.357 62.357 0 0 1 12.67-16.56c1.24-1.17 2.54-2.26 3.88-3.3.39-.33 1.43-.85.55-.92Z" class="change-color-in-svg" fill="#4D61FC" style="fill:#158566"/><path opacity=".2" d="M458.42 928a6.386 6.386 0 0 0-2.13.72c-.714.297-1.411.63-2.09 1a25.643 25.643 0 0 0-3.69 2.41c-5.69 4.41-9 10.93-11.74 17.44-2.13 5.04-4.62 12.43-4.77 18.43h.63v-.69A17.86 17.86 0 0 1 435 965a38.131 38.131 0 0 1 1.54-5.46 87.501 87.501 0 0 1 4.78-10.76 62.357 62.357 0 0 1 12.67-16.56c1.24-1.17 2.54-2.26 3.88-3.3.39-.33 1.43-.85.55-.92Z" fill="#fff"/><path d="M458.57 945.619c-.37-.5-2.61-.25-3.13-.2-.945.097-1.877.294-2.78.59-5 1.59-8.79 5.57-12 9.6a36.757 36.757 0 0 0-6.38 12.39h.72c.125-.548.278-1.088.46-1.62a24.273 24.273 0 0 1 2-3.63 42.468 42.468 0 0 1 5.31-6.5 49.167 49.167 0 0 1 11.93-8.76c.929-.49 1.892-.914 2.88-1.27.31-.1 1.28-.22.99-.6Z" class="change-color-in-svg" fill="#4D61FC" style="fill:#158566"/><path opacity=".2" d="M458.57 945.619c-.37-.5-2.61-.25-3.13-.2-.945.097-1.877.294-2.78.59-5 1.59-8.79 5.57-12 9.6a36.757 36.757 0 0 0-6.38 12.39h.72c.125-.548.278-1.088.46-1.62a24.273 24.273 0 0 1 2-3.63 42.468 42.468 0 0 1 5.31-6.5 49.167 49.167 0 0 1 11.93-8.76c.929-.49 1.892-.914 2.88-1.27.31-.1 1.28-.22.99-.6Z" fill="#000"/><path d="M404 941.179s10.59-5.21 18.92-25.38c6.87-16.61 4.82-26.41 1.15-27.87-5.13-2.02-29.63 32.16-20.07 53.25Z" class="change-color-in-svg" fill="#4D61FC" style="fill:#158566"/><path opacity=".15" d="M404 941.179s10.59-5.21 18.92-25.38c6.87-16.61 4.82-26.41 1.15-27.87-5.13-2.02-29.63 32.16-20.07 53.25Z" fill="#000"/><path d="M398.84 948.259c6.25-7.76 14.51-21.79 17.6-36.39" stroke="#000" stroke-width=".61" stroke-linecap="round" stroke-linejoin="round"/><path d="M385.26 902.79s11.5-2.67 24.19-20.42c10.46-14.62 10.69-24.63 7.45-26.88-4.5-3.12-36.12 24.6-31.64 47.3Z" class="change-color-in-svg" fill="#4D61FC" style="fill:#158566"/><path opacity=".15" d="M385.26 902.79s11.5-2.67 24.19-20.42c10.46-14.62 10.69-24.63 7.45-26.88-4.5-3.12-36.12 24.6-31.64 47.3Z" fill="#000"/><path d="M382 914.509c.27-13.82 12.78-24.16 22.79-36.39" stroke="#000" stroke-width=".61" stroke-linecap="round" stroke-linejoin="round"/><path d="M369 901.001s-11.8-.11-28.06-14.66c-13.39-12-15.79-21.72-13.12-24.62 3.68-4.06 40.57 16.12 41.18 39.28Z" class="change-color-in-svg" fill="#4D61FC" style="fill:#158566"/><path opacity=".15" d="M369 901.001s-11.8-.11-28.06-14.66c-13.39-12-15.79-21.72-13.12-24.62 3.68-4.06 40.57 16.12 41.18 39.28Z" fill="#000"/><path d="M379.06 907.75s-15.18-7.75-28.86-26.68" stroke="#000" stroke-width=".61" stroke-linecap="round" stroke-linejoin="round"/><path d="M382.52 928.37s-9.65 6.79-31.34 4.44c-17.88-1.94-25.49-8.44-25-12.36.65-5.45 42.39-10.54 56.34 7.92Z" class="change-color-in-svg" fill="#4D61FC" style="fill:#158566"/><path opacity=".15" d="M382.52 928.37s-9.65 6.79-31.34 4.44c-17.88-1.94-25.49-8.44-25-12.36.65-5.45 42.39-10.54 56.34 7.92Z" fill="#000"/><path d="M393.44 935.821c-8.77-8.05-17.6-11.45-37.77-12.68" stroke="#000" stroke-width=".61" stroke-linecap="round" stroke-linejoin="round"/><path d="M373.09 872.761s-7.42-9.18-6.52-31c.74-18 6.71-26 10.66-25.78 5.46.32 13.35 41.63-4.14 56.78Z" class="change-color-in-svg" fill="#4D61FC" style="fill:#158566"/><path opacity=".15" d="M373.09 872.761s-7.42-9.18-6.52-31c.74-18 6.71-26 10.66-25.78 5.46.32 13.35 41.63-4.14 56.78Z" fill="#000"/><path d="M398.84 959.629a27.534 27.534 0 0 0-1.8-16.71c-6.77-14.63-19-30.42-21.88-49.13-1.08-7.07-4.58-25.56 1.36-48.17" stroke="#000" stroke-width=".61" stroke-linecap="round" stroke-linejoin="round"/><path d="M453 970s.1-.65-7.65-11.2c-7.75-10.55-40.8-7.76-43.92-7.33-3.12.43-7 18.53-7 18.53H453Z" fill="#868A91"/><path d="M417.67 411.65s11.63 1.59 65.11.48c14.46 8.78 77.15 3.2 101.86.87 28.57 5.3 42.69-8.54 30-16-3.91-2.31-10.38-4-19.76-4.36.61-29.74-72.94-39.49-93.43 3.9-10.85-8.78-33.47-8-35 3.9-20.93-3.83-37.46.5-45 5-3.95 2.41-5.45 4.86-3.78 6.21Z" fill="#fff"/><path opacity=".08" d="M417.67 411.65s11.63 1.59 65.11.48c14.46 8.78 77.15 3.2 101.86.87 28.57 5.3 42.69-8.54 30-16a7.163 7.163 0 0 1-1.77 5.09c-2.9 3.31-8.35 4.68-13.34 4.27-4.99-.41-9.53-2.36-13.74-4.64-2-1.08-4-2.27-6.42-2.5-4.24-.41-7.89 2.26-10.87 4.73-2.45-4-8.67-6.11-13.9-4.8-5.23 1.31-8.86 5.93-8.1 10.33-10.23-1.83-20.66 3.06-31.09 2.28-11.9-.89-22.62-9.05-34.28-7-3 .53-5.69 1.68-8.65 2.18a48.592 48.592 0 0 1-8.87.23c-9.52-.17-19.05 1.05-28.56.57a55.356 55.356 0 0 1-13.57-2.29c-3.98 2.4-5.48 4.85-3.81 6.2Z" fill="#21252B"/><path d="M1233 433.821s-9.27 1.27-51.85.39c-11.51 7-61.43 2.55-81.11.69-22.75 4.22-34-6.8-23.9-12.75 3.12-1.84 8.27-3.19 15.74-3.47-.49-23.68 58.08-31.45 74.4 3.1 8.63-7 26.65-6.35 27.84 3.12 16.66-3.06 29.82.39 35.84 4 3.18 1.9 4.37 3.85 3.04 4.92Z" fill="#fff"/><path opacity=".08" d="M1233 433.82s-9.27 1.27-51.85.39c-11.51 7-61.43 2.55-81.11.69-22.75 4.22-34-6.8-23.9-12.75a5.723 5.723 0 0 0 1.41 4.05c2.31 2.64 6.65 3.74 10.63 3.4 3.88-.457 7.63-1.71 11-3.68a13.602 13.602 0 0 1 5.11-2c3.37-.33 6.28 1.8 8.65 3.77 2-3.16 6.9-4.87 11.07-3.83s7 4.73 6.45 8.23c8.15-1.46 16.46 2.44 24.75 1.82 9.48-.72 18-7.21 27.31-5.56 2.35.41 4.52 1.34 6.88 1.73 2.34.274 4.71.338 7.06.19 7.58-.14 15.17.83 22.75.45 3.66-.156 7.29-.768 10.8-1.82 3.13 1.9 4.32 3.85 2.99 4.92Z" fill="#21252B"/><path d="M1336.88 972.52H295.62a1.512 1.512 0 0 1-1.23-.342 1.517 1.517 0 0 1-.395-1.796 1.517 1.517 0 0 1 1.625-.862h1041.26c.22-.036.44-.024.65.035.22.059.41.164.58.307.17.142.3.32.4.52.09.2.14.418.14.638 0 .22-.05.438-.14.638-.1.2-.23.378-.4.52-.17.143-.36.248-.58.307-.21.059-.43.071-.65.035Z" fill="#B2B6BB"/><path d="m646.67 473.589-14.44-7.59a26.528 26.528 0 0 0-41.949-22.475 26.53 26.53 0 1 0 40.049 31.475l16.34-1.41Z" fill="#fff"/><path d="M605.771 492.159a26.995 26.995 0 0 1-23.202-40.411 27.003 27.003 0 0 1 28.751-13.059 26.998 26.998 0 0 1 21.42 27l15.67 8.25-17.73 1.55a26.938 26.938 0 0 1-24.909 16.67Zm0-53.06a26 26 0 1 0 24.149 35.73l.111-.28 14.949-1.31-13.209-6.95v-.29a26 26 0 0 0-20.611-26.3 25.643 25.643 0 0 0-5.44-.6h.051Z" fill="#B2B6BB"/><path d="m602 472-.07-1.47a6.528 6.528 0 0 1 .66-3.36 10.53 10.53 0 0 1 2.83-3.14 12.865 12.865 0 0 0 2.64-2.56 3.53 3.53 0 0 0 .56-2.12 2.27 2.27 0 0 0-1-1.92 4.536 4.536 0 0 0-2.7-.55 15.28 15.28 0 0 0-6.71 2.27l-2.37-4.24A18.94 18.94 0 0 1 605 452a10.07 10.07 0 0 1 6.61 1.65 6.438 6.438 0 0 1 2.66 5.13 6.996 6.996 0 0 1-.81 3.83 14.263 14.263 0 0 1-3.6 3.76 11.56 11.56 0 0 0-2.31 2.26 3.287 3.287 0 0 0-.42 1.95l.06 1.2-5.19.22Zm-.31 6.83a3.357 3.357 0 0 1 .78-2.57 3.618 3.618 0 0 1 2.56-1c.931-.1 1.865.169 2.6.75a3.882 3.882 0 0 1 .23 5 3.451 3.451 0 0 1-2.51 1 3.582 3.582 0 0 1-2.62-.76 3.304 3.304 0 0 1-1.09-2.44l.05.02Z" class="change-color-in-svg" fill="#4D61FC" style="fill:#158566"/></svg>