<svg class="gridItem__media" xmlns="http://www.w3.org/2000/svg" width="1600" height="1200" style="enable-background:new 0 0 1600 1200" xml:space="preserve" fill="none"><path d="m1318.26 1026.69 84.79-449.94c2.44-12.97.23-26.38-6.25-37.88l-169.85-301.16a56.007 56.007 0 0 0-44.6-28.34L484.28 157.2a55.976 55.976 0 0 0-47.36 20.19L161.83 510.64a56.015 56.015 0 0 0-11.73 46.63l93.86 469.42h1074.3Z" fill="#F2F2F2"/><path d="M1368.56 1027.75H198.69c-.35 0-.59-.24-.59-.59s.24-.59.59-.59h1169.98c.35 0 .59.24.59.59s-.35.59-.7.59Z" fill="#B0B4B9"/><path d="M932.92 985.23s-.44 5.03-1.03 6.69c-2.48 6.95-10.36 9.16-17.35 11.44l-38.33 13.56c-3.45 1.1-3.03 6.15.59 6.15h4.8c.59.84 1.6 1.35 2.7 1.35 1.01 0 2.19-.51 2.95-1.18.08-.08.17-.08.25-.17h.67c.08.08.25.08.34.25.59.67 1.52 1.18 2.53 1.18.93 0 2.02-.42 2.78-1.01.34-.34.93-.25 1.18.08.51.59 1.18.93 2.02.93.76 0 1.68-.34 2.36-.84.34-.25.84-.17 1.1.08.51.42 1.1.76 1.85.76 1.01 0 1.85-.59 2.27-1.35h.34l50.94-.76h.14c5.15-.13 9.49-3.91 10.51-8.96l4.2-23.95-37.81-4.25Z" fill="#FC9D9D"/><path opacity=".15" d="m956.65 987.061-24.12 1.12 25.53 6.96-3.01 12.109c-1.23 4.92-5.55 8.53-10.62 8.66h-.14l-50.55.76h-.34c-.42.84-1.35 1.35-2.27 1.35-.67 0-1.35-.25-1.85-.76-.34-.25-.76-.34-1.1-.08-.67.51-1.6.84-2.36.84-.84 0-1.52-.34-2.02-.93a.89.89 0 0 0-1.18-.08c-.76.67-1.85 1.01-2.78 1.01-1.01 0-1.94-.42-2.53-1.18-.08-.08-.17-.17-.34-.25h-.08l-.76.25c-.25.08-.42.17-.59.25-.08.08-.25.17-.34.25-2.36 1.68-1.68 5.73 1.52 5.73h4.8c.59.84 1.6 1.35 2.7 1.35 1.01 0 2.19-.51 2.95-1.18.08-.08.17-.08.25-.17h.67c.08.08.25.08.34.25.59.67 1.52 1.18 2.53 1.18.93 0 2.02-.42 2.78-1.01.34-.34.93-.25 1.18.08.51.59 1.18.93 2.02.93.76 0 1.68-.34 2.36-.84.34-.25.84-.17 1.1.08.51.42 1.1.76 1.85.76 1.01 0 1.85-.59 2.27-1.35h.34l47.43-.76c9.08 1.3 11.71-3.46 13.65-7l4.79-25.909-14.08-2.42Z" fill="#000"/><path opacity=".15" d="M912.18 1004.2s7.41 13.06 21.31 17.77h-14.07l-7.24-17.77Z" fill="#000"/><path d="M874.19 1026.69h86.94c1.26 0 2.36-1.01 2.36-2.36 0-1.26-1.01-2.36-2.36-2.36h-89.21v2.36c0 1.26 1.01 2.36 2.27 2.36Z" class="change-color-in-svg" fill="#4D61FC" style="fill:#158566"/><path d="M871.92 1021.97c.17-4.97 3.37-9.27 8.09-10.95l28.81-10.02c1.26-.42 2.53.25 2.86 1.52 1.26 4.21 4.38 13.23 10.53 19.46h38.92c1.26 0 2.36 1.01 2.36 2.36 0 1.35-1.01 2.36-2.36 2.36h-86.94c-1.26 0-2.27-1.01-2.27-2.27v-2.46Z" class="change-color-in-svg" fill="#4D61FC" style="fill:#158566"/><path d="M871.92 1021.97c.17-4.97 3.37-9.27 8.09-10.95l28.81-10.02c1.26-.42 2.53.25 2.86 1.52 1.26 4.21 4.38 13.23 10.53 19.46h38.92c1.26 0 2.36 1.01 2.36 2.36 0 1.35-1.01 2.36-2.36 2.36h-86.94c-1.26 0-2.27-1.01-2.27-2.27v-2.46Z" fill="#21252B"/><path opacity=".4" d="M871.92 1021.97c.17-3.96 2.19-7.5 5.39-9.6-4.13 2.95-3.37 5.9 2.53 5.64 30.41-1.43 34.37-1.43 37.91-1.77-.08-.08-.08-.17-.08-.25 1.35 2.11 2.86 4.21 4.63 5.98h38.84c1.26 0 2.36 1.01 2.36 2.36 0 1.35-1.01 2.36-2.36 2.36H874.2c-1.26 0-2.27-1.01-2.27-2.27l-.01-2.45Z" fill="#000"/><path opacity=".4" d="M871.92 1021.21h49.61l.68.76h-50.29v-.76Z" fill="#000"/><path d="M1181.9 859.931h-106.63c-7.27 0-12.5-7.12-10.44-14.22l11.58-236.71c1.37-4.71 5.62-7.94 10.44-7.94h106.63c7.27 0 12.5 7.12 10.44 14.22l-11.57 236.71c-1.38 4.71-5.63 7.94-10.45 7.94Z" fill="#84888F"/><path d="M1167.23 859.931h-92.87c-7.27 0-12.5-7.12-10.44-14.22l11.58-236.71c1.37-4.71 5.62-7.94 10.44-7.94h92.87c7.27 0 12.5 7.12 10.44 14.22l-11.57 236.71c-1.38 4.71-5.63 7.94-10.45 7.94Z" fill="#B0B4B9"/><path d="M1149.35 859.929h-112.86c-5.26 0-9.53-4.27-9.53-9.53s4.27-9.53 9.53-9.53h112.86c5.26 0 9.53 4.27 9.53 9.53 0 5.27-4.26 9.53-9.53 9.53ZM1130.56 1008.36h-97.01v9.6h97.01v-9.6Z" fill="#B0B4B9"/><path d="M1042.57 1016.04c.83 4.98-2.54 9.69-7.53 10.52-4.98.83-9.69-2.54-10.52-7.53-.83-4.98 2.54-9.69 7.53-10.52 4.99-.83 9.7 2.54 10.52 7.53Z" fill="#B0B4B9"/><path d="M1032.05 1008.51c.5-.08 1-.11 1.5-.11v-.04h97.01v9.6h-87.88a9.145 9.145 0 0 1-7.64 8.6c-4.98.83-9.69-2.54-10.52-7.53-.83-4.98 2.54-9.69 7.53-10.52Z" fill="#B0B4B9"/><path d="M1167.31 1008.36h-97.01v9.6h97.01v-9.6Z" fill="#84888F"/><path d="M1079.32 1016.04c.83 4.98-2.54 9.69-7.53 10.52-4.98.83-9.69-2.54-10.52-7.53-.83-4.98 2.54-9.69 7.53-10.52 4.99-.83 9.7 2.54 10.52 7.53ZM1122.4 854.211h-9.6v158.079h9.6V854.211ZM1176.33 1016.04c.83 4.98-2.54 9.69-7.53 10.52-4.98.83-9.69-2.54-10.52-7.53-.83-4.98 2.54-9.69 7.53-10.52 4.99-.83 9.7 2.54 10.52 7.53Z" fill="#84888F"/><path d="M1178.9 859.929h-112.85c-5.26 0-9.53-4.27-9.53-9.53s4.27-9.53 9.53-9.53h112.85c5.26 0 9.53 4.27 9.53 9.53 0 5.27-4.27 9.53-9.53 9.53Z" fill="#84888F"/><path d="M1287.95 778.01h-7.3v248.64h7.3V778.01ZM1280.65 778.01h-77.22v248.63h77.22V778.01Z" fill="#61656D"/><path opacity=".5" d="M1280.65 778.01h-77.22v248.63h77.22V778.01Z" fill="#000"/><path d="M1297.33 763.779H783.68v14.22h513.65c3.93 0 7.11-3.18 7.11-7.11 0-3.92-3.18-7.11-7.11-7.11Z" fill="#61656D"/><path d="m932.52 988.18 38.2 1.3 15.5-148.21h148.69v-63.01H960.95c-.46 0-.92.01-1.38.03-13.46.68-23.9 12.11-24.11 25.59l-2.94 184.3Z" fill="#3F4249"/><path d="M1001.44 985.23s-.44 5.03-1.03 6.69c-2.48 6.95-10.36 9.16-17.35 11.44l-38.33 13.56c-3.45 1.1-3.03 6.15.59 6.15h4.8c.59.84 1.6 1.35 2.7 1.35 1.01 0 2.19-.51 2.95-1.18.08-.08.17-.08.25-.17h.67c.08.08.25.08.34.25.59.67 1.52 1.18 2.53 1.18.93 0 2.02-.42 2.78-1.01.34-.34.93-.25 1.18.08.51.59 1.18.93 2.02.93.76 0 1.68-.34 2.36-.84.34-.25.84-.17 1.1.08.51.42 1.1.76 1.85.76 1.01 0 1.85-.59 2.27-1.35h.34l50.94-.76h.14c5.15-.13 9.49-3.91 10.51-8.96l4.86-23.95-38.47-4.25Z" fill="#FC9D9D"/><path opacity=".15" d="m1025.17 987.061-24.22 2.32 25.62 5.76-3.01 12.109c-1.23 4.92-5.55 8.53-10.62 8.66h-.14l-50.55.76h-.34c-.42.84-1.35 1.35-2.27 1.35-.67 0-1.35-.25-1.85-.76-.34-.25-.76-.34-1.1-.08-.67.51-1.6.84-2.36.84-.84 0-1.52-.34-2.02-.93a.89.89 0 0 0-1.18-.08c-.76.67-1.85 1.01-2.78 1.01-1.01 0-1.94-.42-2.53-1.18-.08-.08-.17-.17-.34-.25h-.08l-.76.25c-.25.08-.42.17-.59.25-.08.08-.25.17-.34.25-2.36 1.68-1.68 5.73 1.52 5.73h4.8c.59.84 1.6 1.35 2.7 1.35 1.01 0 2.19-.51 2.95-1.18.08-.08.17-.08.25-.17h.67c.08.08.25.08.34.25.59.67 1.52 1.18 2.53 1.18.93 0 2.02-.42 2.78-1.01.34-.34.93-.25 1.18.08.51.59 1.18.93 2.02.93.76 0 1.68-.34 2.36-.84.34-.25.84-.17 1.1.08.51.42 1.1.76 1.85.76 1.01 0 1.85-.59 2.27-1.35h.34l47.43-.76c9.08 1.3 11.71-3.46 13.65-7l5.45-25.909-14.73-2.42Z" fill="#000"/><path opacity=".15" d="M980.7 1004.2s7.41 13.06 21.31 17.77h-14.07l-7.24-17.77Z" fill="#000"/><path opacity=".2" d="m951.03 988.81 19.7.67 15.5-148.21h148.69v-63.01H986.14c-5.56 0-10.91 2.91-15.39 7.1-6.52 6.1-10.2 14.64-10.65 23.56l-9.07 179.89Z" fill="#000"/><path d="M942.71 1026.69h86.94c1.26 0 2.36-1.01 2.36-2.36 0-1.26-1.01-2.36-2.36-2.36h-89.21v2.36c0 1.26 1.01 2.36 2.27 2.36Z" class="change-color-in-svg" fill="#4D61FC" style="fill:#158566"/><path d="M940.44 1021.97c.17-4.97 3.37-9.27 8.09-10.95l28.81-10.02c1.26-.42 2.53.25 2.86 1.52 1.26 4.21 4.38 13.23 10.53 19.46h38.92c1.26 0 2.36 1.01 2.36 2.36 0 1.35-1.01 2.36-2.36 2.36h-86.94c-1.26 0-2.27-1.01-2.27-2.27v-2.46Z" class="change-color-in-svg" fill="#4D61FC" style="fill:#158566"/><path d="M940.44 1021.97c.17-4.97 3.37-9.27 8.09-10.95l28.81-10.02c1.26-.42 2.53.25 2.86 1.52 1.26 4.21 4.38 13.23 10.53 19.46h38.92c1.26 0 2.36 1.01 2.36 2.36 0 1.35-1.01 2.36-2.36 2.36h-86.94c-1.26 0-2.27-1.01-2.27-2.27v-2.46Z" fill="#21252B"/><path opacity=".4" d="M940.44 1021.97c.17-3.96 2.19-7.5 5.39-9.6-4.13 2.95-3.37 5.9 2.53 5.64 30.41-1.43 34.37-1.43 37.91-1.77-.08-.08-.08-.17-.08-.25 1.35 2.11 2.86 4.21 4.63 5.98h38.84c1.26 0 2.36 1.01 2.36 2.36 0 1.35-1.01 2.36-2.36 2.36h-86.94c-1.26 0-2.27-1.01-2.27-2.27l-.01-2.45Z" fill="#000"/><path opacity=".4" d="M940.44 1021.21h49.62l.67.76h-50.29v-.76Z" fill="#000"/><path d="m1000.95 989.38 38.95.1 32.76-148.21h69.66c13.27 0 24.03-10.76 24.03-24.03v-38.99h-117.02c-11.12 0-21.14 6.74-25.36 17.02l-23.02 194.11Z" fill="#3F4249"/><path opacity=".2" d="M1048.48 827.88c6.32-12.3 13.31-15.92 27.13-15.92h71.91l-3.62-33.7h21.99v39.77c0 12.84-10.41 23.24-23.24 23.24h-69.89l-32.84 148.21-17.96-.05 26.52-161.55Z" fill="#000"/><path d="m999.36 763.7 16.85-116.08c1.77-11.96 10.61-21.65 22.32-24.43l45.07-10.7 45.41.42 41.95 10.02c14.91 3.54 24.6 17.94 22.32 33.11l-4.89 32.18-8.26 17.86c-.42 1.01-.67 2.02-.93 3.03l-12.87 54.67-166.97-.08Z" class="change-color-in-svg" fill="#4D61FC" style="fill:#158566"/><path d="m1040.5 675.789 103.76 4.17-2.21 21.43-103.66-4.72 2.11-20.88Z" fill="#fff"/><path opacity=".2" d="m1139.62 724.44 6.66-65.46c.08-.84-1.1-1.1-1.35-.25l-20.72 67.98 15.41-2.27Z" fill="#000"/><path d="M1015.87 754.69c.84 1.01 2.36 1.26 3.45.42l14.91-10.95-18.95 8.68c-.08.67.17 1.34.59 1.85Z" fill="#868A91"/><path opacity=".2" d="m1042.24 658.651-8 78.93-6.99 6.91-6.4-4.21 13.98-75.82c1.43-6.23 7.41-6.74 7.41-5.81Z" fill="#000"/><path d="M1129.09 612.91s.84 3.45-1.85 5.14c-3.03 1.77-14.74 9.6-31.25 4.63 0 0-5.22-1.43-10.19-5.05-1.1-.84-1.94-2.02-2.11-3.45V612.58l-4.63 1.1c0 1.43.42 4.13 2.78 6.49 1.35 1.35 21.31 16.76 46.75 2.53 0 0 5.56-2.19 4.97-8.68l-4.47-1.11Z" fill="#fff"/><path d="m1065.24 735.311-11.96 1.6-25.53-2.27c-2.7.25-3.88.76-5.9 2.53l-15.75 14.07c-1.01.93-1.1 2.44-.25 3.45.84 1.01 2.36 1.26 3.45.42l14.91-10.95-9.69 11.46c-1.1 1.26-.59 3.29 1.01 3.88.93.34 1.85.08 2.53-.51l12.97-12.72-9.86 9.69a2.248 2.248 0 0 0 .76 3.71c.76.34 1.6.17 2.19-.25l13.82-10.11-9.35 6.91c-1.1.76-1.1 2.44 0 3.2.59.42 1.35.51 1.94.25l12.55-5.22c1.18-.51 2.61-.51 3.79.08l4.8 2.36c3.88 1.94 8.26 2.95 12.55 2.95h7.83c11.22-.01-6.81-24.53-6.81-24.53Z" fill="#FC9D9D"/><path opacity=".15" d="M1028.59 756.619c.08 0 .17 0 .25-.08l8.59-6.32c.17-.17.25-.42.08-.59-.17-.17-.42-.25-.59-.08l-8.59 6.32c-.17.17-.25.42-.08.59.09.08.26.16.34.16ZM1021.27 756.37c.08 0 .25 0 .25-.08l9.27-9.1c.17-.17.17-.42 0-.59a.405.405 0 0 0-.59 0l-9.27 9.1c-.17.17-.17.42 0 .59.08.08.25.08.34.08ZM1040.3 752.919c-2.86 1.43-7.67 3.88-9.35 4.8-2.36 1.35-3.03-.42-3.03-.42-.17.76.08 1.6.76 2.11.59.42 1.35.51 1.94.25l12.55-5.22c1.18-.51 2.61-.51 3.79.08l-2.44-1.43c-1.35-.76-2.87-.76-4.22-.17Z" fill="#000"/><path d="m1067.18 736.321 72.36-10.61 4.72-45.83 45.15 2.27-9.18 58.55c-1.77 11.04-11.2 19.12-22.32 19.12h-82.3l-8.43-23.5Z" class="change-color-in-svg" fill="#4D61FC" style="fill:#158566"/><path d="m1057.32 736.321 82.22-10.53 4.72-45.83 45.15 2.27-9.18 58.55c-1.77 11.04-11.2 19.12-22.32 19.12h-92.41l-8.18-23.58Z" class="change-color-in-svg" fill="#4D61FC" style="fill:#158566"/><path d="m1065.49 735.311-8.17 1.01 8.09 23.51h10.11l-10.03-24.52Z" fill="#fff"/><path opacity=".2" d="M1064.65 734.72c.08.34.34.51.59.51h.08l74.3-10.78.17-1.35-74.64 10.87c-.33.08-.58.41-.5.75Z" fill="#000"/><path opacity=".15" d="m1064.06 755.61 1.35 4.13h92.41c11.12 0 20.64-8.09 22.32-19.12l13.23-84.66c2.27-15.16-7.41-29.57-22.32-33.11l-7.83-1.85c11.96 5.31 19.21 18.03 17.19 31.34l-12.22 78.01c-1.77 11.04-11.2 19.12-22.32 19.12l-81.81 6.14Z" fill="#000"/><path opacity=".15" d="M1055.89 755.7c1.94 0 3.45-1.77 3.29-3.71l-1.85-15.67 8.17 23.5h-1.18c-4.38 0-8.68-1.01-12.55-2.95l-5.73-2.7c1.34.18 4.88 1.53 9.85 1.53Z" fill="#000"/><path d="M1076.7 759.15h-83.06c-.67 0-1.26.59-1.26 1.26v2.11c0 .67.59 1.26 1.26 1.26h83.06c.67 0 1.26-.59 1.26-1.26v-2.11c0-.67-.51-1.26-1.26-1.26Z" fill="#21252B"/><path opacity=".6" d="M1076.7 759.15h-83.06c-.67 0-1.26.59-1.26 1.26v2.11c0 .67.59 1.26 1.26 1.26h83.06c.67 0 1.26-.59 1.26-1.26v-2.11c0-.67-.51-1.26-1.26-1.26Z" fill="#000"/><path d="M1020.68 759.15H875.86c-.67 0-1.26.59-1.26 1.26v2.11c0 .67.59 1.26 1.26 1.26h144.81c.67 0 1.26-.59 1.26-1.26v-2.11c-.08-.67-.58-1.26-1.25-1.26Z" fill="#21252B"/><path opacity=".6" d="M877.72 759.99h147.42c.25 0 .42-.17.42-.42 0-.25-.17-.42-.42-.42H877.72c-.25 0-.42.17-.42.42 0 .25.25.42.42.42Z" fill="#000"/><path d="M1021.01 759.149h-21.82a3.51 3.51 0 0 1-3.45-2.86l-18.28-96.12c-.42-2.19 1.26-4.13 3.45-4.13h21.82a3.51 3.51 0 0 1 3.45 2.86l18.28 96.12c.34 2.19-1.26 4.13-3.45 4.13Z" fill="#21252B"/><path opacity=".6" d="M1021.01 759.149h-21.82a3.51 3.51 0 0 1-3.45-2.86l-18.28-96.12c-.42-2.19 1.26-4.13 3.45-4.13h21.82a3.51 3.51 0 0 1 3.45 2.86l18.28 96.12c.34 2.19-1.26 4.13-3.45 4.13Z" fill="#000"/><path d="M1017.9 759.149H877.8a3.51 3.51 0 0 1-3.45-2.86l-18.28-96.12c-.42-2.19 1.26-4.13 3.45-4.13h140.01a3.51 3.51 0 0 1 3.45 2.86l18.28 96.12c.43 2.19-1.17 4.13-3.36 4.13Z" fill="#21252B"/><path opacity=".6" d="M937.87 704.9c.84 1.94-.08 3.62-2.02 3.62h-.34c2.27 2.53 5.73 4.3 8.76 4.21 4.13-.08 6.07-3.45 4.21-7.58-1.77-4.13-6.66-7.33-10.78-7.24-2.61.08-4.38 1.43-4.8 3.54 1.93.08 4.12 1.51 4.97 3.45Z" fill="#000"/><path d="M1079.9 562.781s38.58-28.31 42.37 2.53l1.1 8.09 5.73 39.51v.08l.08.84c.17 1.18-.17 2.27-.84 3.12v.08l-.08.08c-.25.34-.59.67-1.01.93-3.12 1.94-5.14 2.95-7.67 3.88-11.46 4.38-24.68 2.7-34.79-5.05a4.818 4.818 0 0 1-1.1-3.37l.67-20.55c-.67-2.11-1.1-4.46-1.35-7.08-1.26-12.13-3.11-23.09-3.11-23.09Z" fill="#FC9D9D"/><path d="M1075.52 564.97c7.58 0 13.73-6.15 13.73-13.73s-6.15-13.73-13.73-13.73-13.73 6.15-13.73 13.73 6.15 13.73 13.73 13.73Z" fill="#21252B"/><path d="M1073.75 541.3s-9.94 61.24 21.31 63.01c27.04 1.6 26.87-40.27 26.87-40.27l-3.29-26.96-44.89 4.22Z" fill="#FC9D9D"/><path d="M1075.77 544.931h27.46c3.45 0 6.23 2.78 6.23 6.23 0 3.45 2.78 6.23 6.23 6.23.93 0 1.68.76 1.68 1.68v6.07c0 .76.59 1.43 1.43 1.43.67 0 1.26-.51 1.35-1.18l.84-5.81 1.1-2.02 6.74 3.54s9.27-16.85 3.2-31.09c-3.45-8.17-11.96-10.45-15.84-10.7-1.26-.08-2.44-.76-3.2-1.77-1.77-2.61-5.98-6.99-14.57-5.98-6.57.76-10.02 4.55-11.63 7.67-1.01 1.77-3.2 2.61-5.14 1.94-2.86-1.01-6.99-1.52-11.46 1.68-8.74 6.07-4.02 21.32 5.58 22.08Z" fill="#21252B"/><path opacity=".15" d="M1123.7 575.42s-2.53.42-3.96-.59l4.8 6.4-.84-5.81Z" fill="#000"/><path d="M1121.01 559.5s1.6-5.81 7.67-3.62c6.91 2.44 6.74 17.86-4.63 19.54-5.98.93-4.97-2.61-4.3-7.33l1.26-8.59Z" fill="#FC9D9D"/><path opacity=".3" d="M1129.26 559.751c-1.18-.67-2.36-.93-3.37-.59-1.01.34-1.85 1.1-2.44 2.27-.59 1.26-.93 2.7-.84 4.21v1.36c0 .42.34.67.76.67s.67-.34.67-.76v-1.35c-.08-.34.08-2.36.67-3.54.42-.84 1.01-1.43 1.6-1.6.59-.17 1.35 0 2.27.51.34.17.76.08.93-.25.17-.25.09-.68-.25-.93Z" fill="#000"/><path d="m1075.69 546.19 3.2.08c.34 0 .67-.25.67-.59 0-.34-.25-.67-.59-.67l-3.2-.08c-.42 0-.84-.08-1.18-.17-.76-.17-2.27-.67-3.79-1.52-.34-.17-.67-.08-.84.25-.17.34-.08.67.25.84 1.6.93 3.29 1.43 4.13 1.6.33.17.84.26 1.35.26Z" fill="#FC9D9D"/><path opacity=".15" d="m1083.69 610.04.34-9.77c2.78 2.53 10.53 5.81 18.7 3.2 0 0 .08-.08 0 0 5.05-1.68 8.34-4.8 10.28-7.5.17-.25.59-.34.84-.17s.34.59.17.84c-2.44 3.29-6.74 7.24-13.65 8.68-8.17 6.41-16.68 4.72-16.68 4.72Z" fill="#000"/><g opacity=".45"><path opacity=".3" d="M1091.78 592.27h3.79c.42 0 .84-.34.84-.84 0-.42-.34-.84-.84-.84h-3.71c-.42 0-.84.34-.84.84.08.42.42.75.76.84Z" fill="#000"/></g><g opacity=".45"><path opacity=".3" d="M1090.26 588.811c6.82.51 9.6-3.37 10.53-5.31.17-.42 0-.84-.34-1.01-.42-.17-.84 0-1.01.34-.93 1.85-3.96 5.98-12.3 3.88-.42-.08-.84.17-.93.59-.09.42.17.84.59.93 1.18.33 2.36.5 3.46.58Z" fill="#000"/></g><path d="M1098.09 571.96c1.35 0 2.44-1.09 2.44-2.44 0-1.35-1.09-2.44-2.44-2.44-1.35 0-2.44 1.09-2.44 2.44 0 1.35 1.09 2.44 2.44 2.44Z" fill="#21252B"/><path d="M1096.91 570.62c.28 0 .51-.23.51-.51s-.23-.51-.51-.51-.51.23-.51.51.23.51.51.51Z" fill="#fff"/><path d="M1078.55 573.48c1.35 0 2.44-1.09 2.44-2.44 0-1.35-1.09-2.44-2.44-2.44-1.35 0-2.44 1.09-2.44 2.44 0 1.35 1.09 2.44 2.44 2.44Z" fill="#21252B"/><path d="M1077.37 572.059c.28 0 .51-.23.51-.51s-.23-.51-.51-.51-.51.23-.51.51.23.51.51.51Z" fill="#fff"/><g opacity=".45"><path opacity=".3" d="M1087.98 582.92h3.37a.76.76 0 1 0 0-1.52h-3.37c-.84 0-1.52-.67-1.52-1.52 0-.84.67-1.52 1.52-1.52a.76.76 0 1 0 0-1.52c-1.6 0-2.95 1.35-2.95 2.95.01 1.78 1.27 3.13 2.95 3.13Z" fill="#000"/></g><path d="m1067.6 568.849.17 2.78c.34 5.39 5.05 9.35 10.36 9.01 5.39-.34 9.35-5.05 9.01-10.36l-.17-2.78c-.08-.84-.42-1.52-.93-2.11l3.79-.25c-.42.59-.67 1.35-.59 2.19l.17 2.78c.34 5.39 5.05 9.35 10.36 9.01 5.39-.34 9.35-5.05 9.01-10.36l-.17-2.78c-.08-1.94-1.85-3.45-3.79-3.29l-12.13.84h-.08l-9.44.67-1.43.08-10.78.76c-1.93.19-3.45 1.96-3.36 3.81Zm25.19-3.88h.08l12.13-.84c1.18-.08 2.19.84 2.27 2.02l.17 2.78c.34 4.55-3.12 8.51-7.67 8.85-4.55.34-8.51-3.12-8.85-7.67l-.17-2.78c-.07-1.18.86-2.27 2.04-2.36Zm-23.68 3.71c-.08-1.18.84-2.19 2.02-2.27l10.78-.76 1.43-.08c1.18-.08 2.19.84 2.27 2.02l.17 2.78c.34 4.55-3.12 8.51-7.67 8.85-4.55.34-8.51-3.12-8.85-7.67l-.15-2.87Z" fill="#21252B"/><path d="M794.46 177.471h-14.79v850.279h14.79V177.471Z" fill="#fff"/><path d="M990.96 532.87H589.78c-.74 0-1.34-.6-1.34-1.34V280.99c0-.74.6-1.34 1.34-1.34h401.18c.74 0 1.34.6 1.34 1.34v250.53c0 .75-.6 1.35-1.34 1.35Z" class="change-color-in-svg" fill="#4D61FC" style="fill:#158566"/><path opacity=".2" d="M990.96 532.87H589.78c-.74 0-1.34-.6-1.34-1.34V280.99c0-.74.6-1.34 1.34-1.34h401.18c.74 0 1.34.6 1.34 1.34v250.53c0 .75-.6 1.35-1.34 1.35Z" fill="#fff"/><path d="M984.34 532.87H583.16c-.74 0-1.34-.6-1.34-1.34V280.99c0-.74.6-1.34 1.34-1.34h401.18c.74 0 1.34.6 1.34 1.34v250.53c.01.75-.59 1.35-1.34 1.35Z" fill="#3F4249"/><path d="M977.67 287.74H589.83v237.04h387.84V287.74Z" class="change-color-in-svg" fill="#4D61FC" style="fill:#158566"/><path opacity=".7" d="M977.67 287.74H692.42v237.04h285.25V287.74Z" fill="#fff"/><path opacity=".5" d="M692.42 287.74H589.83v237.04h102.59V287.74Z" fill="#fff"/><path d="M562.07 680.101c2.36 0 4.27-1.91 4.27-4.27 0-2.36-1.91-4.27-4.27-4.27-2.36 0-4.27 1.91-4.27 4.27 0 2.36 1.91 4.27 4.27 4.27Z" fill="#000"/><path d="M562.07 677.32c.82 0 1.49-.67 1.49-1.49s-.67-1.49-1.49-1.49-1.49.67-1.49 1.49.67 1.49 1.49 1.49Z" fill="#fff"/><path d="M562.07 673.08V503.76h19.75" stroke="#000" stroke-width="3" stroke-miterlimit="10"/><path d="M928.33 647.19c2.36 0 4.27-1.91 4.27-4.27 0-2.36-1.91-4.27-4.27-4.27-2.36 0-4.27 1.91-4.27 4.27 0 2.36 1.91 4.27 4.27 4.27Z" fill="#000"/><path d="M928.33 644.41c.82 0 1.49-.67 1.49-1.49s-.67-1.49-1.49-1.49-1.49.67-1.49 1.49.67 1.49 1.49 1.49Z" fill="#fff"/><path d="M928.33 640.159v-107.29" stroke="#000" stroke-width="3" stroke-miterlimit="10"/><path d="M837.54 312.92H713.86v4.5h123.68v-4.5ZM772.5 328.551h-58.64v4.5h58.64v-4.5ZM790.08 344.189h-58.64v4.5h58.64v-4.5Z" fill="#fff"/><path d="M836.79 430.84H713.86v4.5h122.93v-4.5Z" fill="#B074FF"/><path d="M776.94 446.52h-63.08v4.5h63.08v-4.5ZM776.94 462.199h-63.08v4.5h63.08v-4.5ZM818.69 481.85h-63.08v4.5h63.08v-4.5ZM860.07 481.85H832.6v4.5h27.47v-4.5ZM823.23 501.51h-27.47v4.5h27.47v-4.5ZM901.53 501.51h-59.72v4.5h59.72v-4.5ZM950.65 501.51h-41.31v4.5h41.31v-4.5ZM943.71 481.85h-68.73v4.5h68.73v-4.5Z" fill="#fff"/><path d="M853.45 446.52h-63.08v4.5h63.08v-4.5Z" fill="#00BEFF"/><path d="M940.38 430.84h-86.52v4.5h86.52v-4.5ZM849.22 328.551h-58.64v4.5h58.64v-4.5Z" fill="#FD8A88"/><path d="M811.03 361.289h-58.64v4.5h58.64v-4.5Z" fill="#fff"/><path d="M865.63 361.289H831.2v4.5h34.43v-4.5Z" fill="#00BEFF"/><path d="M959.48 361.289h-77.79v4.5h77.79v-4.5ZM787.79 379.25h-35.4v4.5h35.4v-4.5ZM865.63 379.25h-57.67v4.5h57.67v-4.5ZM959.48 379.25h-85.82v4.5h85.82v-4.5ZM821.92 397.211h-69.53v4.5h69.53v-4.5Z" fill="#fff"/><path d="M876.52 397.211H831.2v4.5h45.32v-4.5Z" fill="#FD8A88"/><path d="M964.16 397.211h-77.79v4.5h77.79v-4.5ZM811.03 415.17h-58.64v4.5h58.64v-4.5ZM865.63 415.17H831.2v4.5h34.43v-4.5ZM959.48 415.17h-77.79v4.5h77.79v-4.5Z" fill="#fff"/><path d="M951.83 328.551H864.1v4.5h87.73v-4.5Z" fill="#00F3BE"/><g opacity=".5" fill="#fff"><path opacity=".5" d="M612.75 308.41h-13.52v13.52h13.52v-13.52ZM681.88 312.92h-57.63v4.5h57.63v-4.5ZM612.75 328.551h-13.52v13.52h13.52v-13.52ZM681.88 333.061h-57.63v4.5h57.63v-4.5ZM612.75 348.689h-13.52v13.52h13.52v-13.52ZM681.88 353.199h-57.63v4.5h57.63v-4.5ZM631.47 370.24h-13.52v13.52h13.52v-13.52ZM681.89 374.74h-38.91v4.5h38.91v-4.5ZM631.47 391.041h-13.52v13.52h13.52v-13.52ZM681.89 395.551h-38.91v4.5h38.91v-4.5ZM631.47 411.85h-13.52v13.52h13.52v-13.52ZM681.89 416.35h-38.91v4.5h38.91v-4.5ZM612.75 434.99h-13.52v13.52h13.52v-13.52ZM681.88 439.5h-57.63v4.5h57.63v-4.5ZM631.47 456.541h-13.52v13.52h13.52v-13.52ZM681.89 461.051h-38.91v4.5h38.91v-4.5ZM631.47 477.35h-13.52v13.52h13.52v-13.52ZM681.89 481.85h-38.91v4.5h38.91v-4.5ZM631.47 498.15h-13.52v13.52h13.52v-13.52ZM681.89 502.66h-38.91v4.5h38.91v-4.5Z"/></g><g opacity=".7" fill="#fff"><path opacity=".7" d="M702.71 312.92h-4.5v4.5h4.5v-4.5ZM702.71 328.551h-4.5v4.5h4.5v-4.5ZM702.71 344.189h-4.5v4.5h4.5v-4.5ZM702.71 359.82h-4.5v4.5h4.5v-4.5ZM702.71 375.459h-4.5v4.5h4.5v-4.5ZM702.71 391.09h-4.5v4.5h4.5v-4.5ZM702.71 406.721h-4.5v4.5h4.5v-4.5ZM702.71 422.359h-4.5v4.5h4.5v-4.5ZM702.71 437.99h-4.5v4.5h4.5v-4.5ZM702.71 453.619h-4.5v4.5h4.5v-4.5ZM702.71 469.26h-4.5v4.5h4.5v-4.5ZM702.71 484.891h-4.5v4.5h4.5v-4.5ZM702.71 500.529h-4.5v4.5h4.5v-4.5Z"/></g><path d="M488.31 370.051c-16.54 0-15.51 7.17-15.51 7.17l.02 7.43h15.79v2.23h-22.06s-10.59-1.2-10.59 15.49 9.24 16.1 9.24 16.1h5.51v-7.75s-.3-9.24 9.09-9.24h15.66s8.8.14 8.8-8.5v-14.28c.01 0 1.34-8.65-15.95-8.65Zm-8.7 5c1.57 0 2.84 1.27 2.84 2.84v.01c0 1.57-1.27 2.84-2.84 2.84h-.01c-1.57 0-2.84-1.27-2.84-2.84v-.01a2.84 2.84 0 0 1 2.85-2.84c-.01 0-.01 0 0 0Z" fill="url(#a)"/><path d="M488.78 434.889c16.54 0 15.51-7.17 15.51-7.17l-.02-7.43h-15.79v-2.23h22.06s10.59 1.2 10.59-15.49-9.24-16.1-9.24-16.1h-5.51v7.75s.3 9.24-9.09 9.24h-15.66s-8.8-.14-8.8 8.5v14.29c0-.02-1.34 8.64 15.95 8.64Zm8.71-5c-1.57 0-2.84-1.27-2.84-2.84v-.01c0-1.57 1.27-2.84 2.83-2.84h.01c1.57 0 2.84 1.27 2.84 2.84v.01c0 1.56-1.27 2.84-2.84 2.84Z" fill="url(#b)"/><path d="M486.01 324.041c-.38 0-.75-.09-1.1-.28l-3.46-2.04c-.5-.28-.25-.38-.09-.44.69-.25.82-.28 1.57-.72.06-.03.19-.03.25.03l2.67 1.57c.09.06.22.06.31 0l10.38-5.98c.09-.06.16-.16.16-.28v-11.95c0-.13-.06-.22-.16-.28l-10.35-5.98a.29.29 0 0 0-.31 0l-10.35 5.98c-.09.06-.16.16-.16.28v11.95c0 .13.06.22.16.28l2.83 1.64c1.54.79 2.48-.13 2.48-1.04v-11.86c0-.16.13-.28.31-.28h1.32c.16 0 .28.13.28.28v11.82c0 2.04-1.13 3.24-3.08 3.24-.6 0-1.07 0-2.39-.66l-2.7-1.57c-.66-.38-1.1-1.1-1.1-1.89v-11.95c0-.79.41-1.51 1.1-1.89l10.38-5.98c.66-.38 1.54-.38 2.17 0l10.38 5.98c.66.38 1.1 1.1 1.1 1.89v11.95c0 .79-.41 1.51-1.1 1.89l-10.38 5.98c-.36.19-.74.31-1.12.31Z" fill="#689F63"/><path d="M489.22 315.8c-4.53 0-5.47-2.08-5.47-3.84 0-.16.13-.28.31-.28h1.35c.16 0 .28.09.28.25.19 1.35.82 2.04 3.55 2.04 2.17 0 3.11-.5 3.11-1.67 0-.66-.25-1.16-3.65-1.51-2.83-.28-4.59-.91-4.59-3.18 0-2.11 1.76-3.33 4.72-3.33 3.33 0 4.97 1.16 5.16 3.62 0 .09-.03.16-.09.22s-.13.09-.22.09h-1.35c-.13 0-.25-.09-.28-.22-.31-1.45-1.1-1.89-3.24-1.89-2.39 0-2.67.82-2.67 1.45 0 .75.31.97 3.55 1.42 3.18.41 4.69 1.01 4.69 3.27s-1.89 3.56-5.16 3.56Zm12.61-12.67h.35c.28 0 .35-.19.35-.31 0-.31-.22-.31-.31-.31h-.35l-.04.62Zm-.44-1.01h.79c.25 0 .79 0 .79.6 0 .41-.25.5-.41.53.31.03.31.22.38.5.03.19.06.5.13.6h-.47c0-.09-.09-.66-.09-.69-.03-.13-.06-.19-.22-.19h-.38v.91h-.44v-2.26h-.08Zm-.91 1.14c0 .94.75 1.67 1.67 1.67.94 0 1.67-.75 1.67-1.67 0-.94-.75-1.67-1.67-1.67-.92 0-1.67.72-1.67 1.67Zm3.68 0c0 1.1-.91 2.01-2.01 2.01-1.1 0-2.01-.88-2.01-2.01s.94-2.01 2.01-2.01c1.06.02 2.01.87 2.01 2.01Z" fill="#689F63"/><path d="M453.9 277.22c0-.47-.25-.91-.66-1.16l-10.98-6.32c-.19-.09-.41-.16-.6-.19h-.13c-.22 0-.41.06-.6.19l-10.98 6.32c-.41.25-.66.69-.66 1.16l.03 17.04c0 .25.13.47.31.57.19.13.47.13.66 0l6.51-3.74c.41-.25.66-.69.66-1.16v-7.96c0-.47.25-.91.66-1.16l2.77-1.6c.22-.13.44-.19.66-.19.22 0 .47.06.66.19l2.77 1.6c.41.25.66.66.66 1.16v7.96c0 .47.25.91.66 1.16l6.54 3.74c.22.13.47.13.66 0 .19-.13.31-.35.31-.57l.09-17.04Zm51.86 8.86c0 .13-.06.22-.16.28l-3.77 2.17c-.09.06-.22.06-.35 0l-3.77-2.17a.341.341 0 0 1-.16-.28v-4.37c0-.13.06-.22.16-.28l3.77-2.17c.09-.06.22-.06.35 0l3.77 2.17c.09.06.16.16.16.28v4.37Zm1.04-32.26c-.22-.13-.47-.13-.66 0-.19.13-.31.35-.31.57v16.89c0 .16-.09.31-.22.41-.16.09-.31.09-.47 0l-2.77-1.57c-.41-.25-.91-.25-1.32 0l-11.01 6.35c-.41.25-.66.66-.66 1.13v12.7c0 .47.25.91.66 1.16l11.01 6.35c.41.25.91.25 1.32 0l11.01-6.35c.41-.25.66-.66.66-1.16v-31.67c0-.47-.25-.91-.69-1.16l-6.55-3.65Zm36.6 27.8c.41-.25.66-.66.66-1.13v-3.08c0-.47-.25-.91-.66-1.16l-10.91-6.35c-.41-.25-.91-.25-1.32 0l-11.01 6.35c-.41.25-.66.66-.66 1.16v12.67c0 .47.25.91.66 1.16l10.91 6.23c.41.22.88.22 1.29 0l6.6-3.68c.22-.13.35-.35.35-.57a.61.61 0 0 0-.35-.57l-11.07-6.35a.679.679 0 0 1-.35-.57v-3.99c0-.25.13-.47.35-.57l3.43-1.98c.22-.13.47-.13.66 0l3.43 1.98c.22.13.35.35.35.57v3.14c0 .25.13.47.35.57.22.13.47.13.66 0l6.63-3.83Z" fill="#404137"/><path d="M531.64 281.021c.06-.03.19-.03.25 0l2.11 1.23c.09.03.13.13.13.22v2.42c0 .09-.06.19-.13.22l-2.11 1.23c-.09.03-.19.03-.25 0l-2.11-1.23c-.09-.03-.13-.13-.13-.22v-2.42c0-.09.03-.19.13-.22l2.11-1.23Z" fill="#689F63"/><path d="m494.94 275.199-30.82-15.09-15.78 32.23 30.82 15.1 15.78-32.24Z" fill="url(#c)"/><path d="m446.36 279.67 21.73 29.43 28.77-21.22-21.76-29.47-28.74 21.26Z" fill="url(#d)"/><path d="M483.87 269.789H460.1v27.86h23.77v-27.86Z" fill="url(#e)"/><path d="M1250.88 392.52v6.25h11.28c2.31 0 6.28-1.69 6.42-6.42v-2.42c0-4.04-3.31-6.42-6.42-6.42h-5.62v-2.9h11.15v-6.28h-10.7c-2.76 0-6.45 2.28-6.45 6.52v2.17c0 4.24 3.66 6.42 6.45 6.42 7.76.03-1.86 0 5.31 0v3.04l-11.42.04Zm-60.46-1.52s6.04-.52 6.04-8.32c0-7.8-7.32-8.52-7.32-8.52h-13.18v24.6h6.63v-5.94l5.73 5.94h9.8l-7.7-7.76Zm-2.55-5.04h-5.28v-5.62h5.31s1.48.55 1.48 2.8-1.51 2.82-1.51 2.82Zm24.95-11.63h-6.73c-4.8 0-6.42 4.35-6.42 6.42v18.01h6.73v-4.31h6.32v4.31h6.52v-18.01c-.01-5.25-4.77-6.42-6.42-6.42Zm-.11 13.15h-6.35v-5.97s0-1.35 2.1-1.35h2.31c1.86 0 1.9 1.35 1.9 1.35v5.97h.04Zm9.59-13.15h7.01v24.43h-7.01v-24.43Zm16.85 18.12v-18.12h-6.97v24.43h16.39v-6.32h-9.42v.01Z" fill="#C00"/><path d="M1134.38 398.759h27.26s-5.21-23.78 12.04-33.4c3.76-1.83 15.74-8.66 35.34 5.83.62-.52 1.21-.93 1.21-.93s-17.94-17.91-37.92-15.91c-10.04.9-22.4 10.04-29.64 22.12-7.26 12.08-8.29 22.29-8.29 22.29Z" fill="#C00"/><path d="M1134.38 398.759h27.26s-5.21-23.78 12.04-33.4c3.76-1.83 15.74-8.66 35.34 5.83.62-.52 1.21-.93 1.21-.93s-17.94-17.91-37.92-15.91c-10.04.9-22.4 10.04-29.64 22.12-7.26 12.08-8.29 22.29-8.29 22.29Z" fill="#C00"/><path d="M1134.38 398.76h27.26s-5.21-23.78 12.04-33.4c3.76-1.83 15.74-8.66 35.34 5.83.62-.52 1.21-.93 1.21-.93s-17.94-17.91-37.92-15.91c-10.08.9-22.43 10.04-29.68 22.12-7.25 12.08-8.25 22.29-8.25 22.29Zm56.8-42.48.14-2.31c-.31-.17-1.17-.59-3.35-1.21l-.14 2.28c1.14.38 2.24.79 3.35 1.24Z" fill="#C00"/><path d="m1187.9 363.601-.14 2.17c1.14.03 2.28.17 3.42.41l.14-2.14c-1.18-.24-2.32-.37-3.42-.44Zm-12.77-10.77h.35l-.69-2.11c-1.07 0-2.17.07-3.31.21l.66 2.04c.99-.1 1.99-.14 2.99-.14Zm1.66 12.7.79 2.38c1-.48 2-.9 3-1.21l-.76-2.28c-1.17.35-2.17.73-3.03 1.11Zm-15.67-9.08-1.55-2.38c-.86.45-1.76.93-2.69 1.48l1.59 2.42c.89-.55 1.75-1.07 2.65-1.52Zm7.08 15.53 1.66 2.48c.59-.86 1.28-1.66 2.04-2.45l-1.55-2.35c-.81.74-1.53 1.53-2.15 2.32Zm-5.01 11.12 2.8 2.21c.14-1.35.38-2.69.72-4.04l-2.48-1.97c-.45 1.28-.76 2.55-1.04 3.8Zm-15.11-16.4-2.45-2.14c-.9.86-1.76 1.73-2.55 2.59l2.66 2.28c.72-.93 1.51-1.86 2.34-2.73Zm-10.42 15.43-3.97-1.45c-.66 1.48-1.38 3.21-1.73 4.14l3.97 1.45c.45-1.17 1.17-2.86 1.73-4.14Zm25.01 9.73c.07 1.83.24 3.31.41 4.35l4.14 1.48c-.31-1.35-.62-2.86-.83-4.49l-3.72-1.34Z" fill="#C00"/><path d="M1104.64 331.2h-.38v-.21h1.02v.21h-.38v1.06h-.26v-1.06Zm2.03.06-.38 1h-.17l-.37-1v1h-.25v-1.27h.37l.35.9.34-.9h.37v1.27h-.24l-.02-1Z" fill="#E76F00"/><path d="M1070.74 305.261s-2.63 1.53 1.87 2.05c5.46.62 8.25.53 14.27-.61 0 0 1.58.99 3.79 1.85-13.48 5.79-30.52-.33-19.93-3.29Zm-1.64-7.55s-2.95 2.19 1.56 2.65c5.84.6 10.44.65 18.42-.88 0 0 1.1 1.12 2.84 1.73-16.33 4.77-34.5.38-22.82-3.5Z" fill="#5382A1"/><path d="M1083 284.91c3.33 3.83-.87 7.27-.87 7.27s8.44-4.36 4.57-9.82c-3.62-5.09-6.4-7.62 8.64-16.34-.02.01-23.61 5.9-12.34 18.89Z" fill="#E76F00"/><path d="M1100.84 310.84s1.95 1.61-2.15 2.85c-7.79 2.36-32.42 3.07-39.26.09-2.46-1.07 2.15-2.56 3.6-2.87 1.51-.33 2.38-.27 2.38-.27-2.74-1.93-17.68 3.78-7.59 5.42 27.52 4.47 50.16-2 43.02-5.22Zm-28.83-20.95s-12.53 2.98-4.44 4.06c3.42.46 10.23.35 16.57-.18 5.18-.44 10.39-1.37 10.39-1.37s-1.83.78-3.15 1.69c-12.72 3.35-37.3 1.79-30.22-1.63 5.99-2.89 10.85-2.57 10.85-2.57Zm22.48 12.57c12.93-6.72 6.95-13.18 2.78-12.31-1.02.21-1.48.4-1.48.4s.38-.59 1.1-.85c8.26-2.9 14.61 8.56-2.67 13.1.01-.01.21-.18.27-.34Z" fill="#5382A1"/><path d="M1086.69 251.949s7.16 7.16-6.79 18.18c-11.19 8.84-2.55 13.88 0 19.63-6.53-5.89-11.33-11.08-8.11-15.91 4.71-7.08 17.79-10.52 14.9-21.9Z" fill="#E76F00"/><path d="M1073.28 320.669c12.41.79 31.48-.44 31.93-6.31 0 0-.87 2.23-10.26 4-10.6 1.99-23.66 1.76-31.42.48.01-.01 1.59 1.3 9.75 1.83Z" fill="#5382A1"/><path d="M1071.25 343.109c-1.17 1.02-2.41 1.59-3.52 1.59-1.58 0-2.44-.95-2.44-2.47 0-1.65.92-2.85 4.6-2.85h1.36v3.73Zm3.23 3.65v-11.29c0-2.88-1.64-4.79-5.61-4.79-2.31 0-4.34.57-5.99 1.3l.48 2c1.3-.48 2.98-.92 4.63-.92 2.28 0 3.27.92 3.27 2.82v1.43h-1.14c-5.55 0-8.05 2.15-8.05 5.39 0 2.79 1.65 4.38 4.76 4.38 2 0 3.49-.82 4.88-2.03l.25 1.71h2.52Zm10.78 0h-4.03l-4.85-15.79h3.52l3.01 9.7.67 2.92c1.52-4.22 2.6-8.5 3.14-12.62h3.42c-.91 5.2-2.56 10.91-4.88 15.79Zm15.46-3.65c-1.17 1.02-2.41 1.59-3.52 1.59-1.58 0-2.44-.95-2.44-2.47 0-1.65.92-2.85 4.6-2.85h1.36v3.73Zm3.24 3.65v-11.29c0-2.88-1.65-4.79-5.61-4.79-2.32 0-4.34.57-5.99 1.3l.48 2c1.3-.48 2.98-.92 4.63-.92 2.28 0 3.27.92 3.27 2.82v1.43h-1.14c-5.55 0-8.05 2.15-8.05 5.39 0 2.79 1.65 4.38 4.75 4.38 2 0 3.49-.82 4.88-2.03l.25 1.71h2.53Zm-45.45 2.68c-.92 1.35-2.41 2.41-4.04 3.01l-1.6-1.88c1.24-.64 2.3-1.66 2.8-2.62.43-.85.6-1.95.6-4.57v-18.02h3.43v17.77c.01 3.51-.27 4.93-1.19 6.31Z" fill="#E76F00"/><path d="m388.6 419.58-5.19 58.18-23.35 6.47-23.28-6.46-5.19-58.19h57.01Z" fill="#E44D26"/><path d="m360.09 479.29 18.87-5.23 4.44-49.72h-23.3v54.95h-.01Z" fill="#F16529"/><path d="M349.99 438.62h10.1v-7.14h-17.9l.17 1.91 1.75 19.67h15.97v-7.14h-9.44l-.65-7.3Zm1.61 18.01h-7.16l1 11.21 14.62 4.06.03-.01v-7.43l-.03.01-7.95-2.15-.51-5.69Z" fill="#EBEBEB"/><path d="M336.89 403.77h3.63v3.58h3.32v-3.58h3.63v10.85h-3.63v-3.63h-3.32v3.63h-3.63v-10.85Zm15.34 3.6h-3.19v-3.6h10.01v3.6h-3.19v7.25h-3.63v-7.25Zm8.41-3.6h3.78l2.33 3.81 2.32-3.81h3.78v10.85h-3.61v-5.38l-2.5 3.86h-.06l-2.5-3.86v5.38h-3.55v-10.85h.01Zm14.02 0h3.63v7.26h5.1v3.59h-8.73v-10.85Z" fill="#000"/><path d="M360.07 453.06h8.79l-.83 9.26-7.96 2.15v7.43l14.63-4.05.11-1.21 1.68-18.79.17-1.92h-16.59v7.13Zm0-14.46v.02h17.24l.14-1.6.33-3.62.17-1.91h-17.88v7.11Z" fill="#fff"/><path d="M1220.78 444.939h-4.22l4.39 4.76v2.26h-9.04v-2.65h4.39l-4.39-4.76v-2.27h8.87v2.66Zm-10.66 0h-4.22l4.39 4.76v2.26h-9.04v-2.65h4.39l-4.39-4.76v-2.27h8.87v2.66Zm-10.56.11h-4.55v4.16h4.55v2.76h-7.79v-9.68h7.79v2.76Z" fill="#131313"/><path d="m1185.57 508.281-4.63-51.89h50.83l-4.63 51.88-20.82 5.77-20.75-5.76Z" fill="#1572B6"/><path d="m1206.36 509.631 16.82-4.66 3.96-44.33h-20.78v48.99Z" fill="#33A9DC"/><path d="M1206.36 479.431h8.42l.58-6.52h-9v-6.36h15.96l-.15 1.71-1.56 17.54h-14.24v-6.37h-.01Z" fill="#fff"/><path d="M1206.4 495.96h-.03l-7.09-1.91-.45-5.07h-6.38l.89 9.99 13.04 3.63h.04v-6.63l-.02-.01Z" fill="#EBEBEB"/><path d="m1214.24 485.53-.77 8.52-7.1 1.91v6.63l13.05-3.62.09-1.08 1.11-12.37-6.38.01Z" fill="#fff"/><path d="M1206.38 466.561v6.36h-15.37l-.13-1.43-.29-3.23-.15-1.71 15.94.01Zm-.02 12.87v6.36h-7.01l-.12-1.43-.29-3.23-.15-1.71 7.57.01Z" fill="#EBEBEB"/><path d="M366.04 665.81c-133.09 45.56-114.5 229.98-97.86 316.07 5.01 25.91 27.62 44.67 54.02 44.67h367.9c26.2 0 48.86-18.45 53.92-44.16 4.21-21.41 6.69-50.58 2.66-87.46-9.55-87.51-78.84-101.03-78.84-101.03s-87.81-14.32-122.81-59.67-90.68-98.65-178.99-68.42Z" fill="#B1B5BA"/><path d="m542.08 757.04-11.35-12.68c-1.49-1.61-2.39-2.07-4.49-2.55l-20.64-.58-33.51-6.25-13.63 14.471 29.2 5.279 2.71 1.39c4.51 2.43 9.84 2.931 14.7 1.211l.12.01 4.12-1.44c1-.36 2.18-.23 3.08.24l9.56 5.289c.45.29 1.05.24 1.56-.06.89-.5 1.06-1.909.3-2.599l-6.8-6.411 10.18 9.31c.43.41 1.13.61 1.74.44 1.24-.34 1.77-1.83.93-2.89l-7.02-8.71 9.23 11.36c.54.54 1.22.861 1.97.591 1.35-.32 1.9-1.941 1.18-2.981l-6.74-10.11 10.92 10.11c.75.8 2.07.72 2.76-.04.51-.3.66-1.6-.08-2.4Z" fill="#F69797"/><path opacity=".15" d="m469.55 747.609 19.47 4.52c1.52.29 2.99 1.06 4.19 2.04 1.75 1.4 5.11 3.46 9.73 3.87 0 0-7.07 2.18-15.31-3.2l-22.41-3.9 4.33-3.33Z" fill="#000"/><path d="m607.36 1024.61 46.02 1.41c.8-1.36 3.06-5.44.45-6.41l-31.02-13.48c-5.48-2.06-11.78-4.5-13.04-8.3-.6-.9.46-2.73.11-3.75l-3.05-46.33-23.06 5.14-2.89 40.89c.5 4.06.06 10.93.07 14.83l-.07 6.29c.11 4.79 3.76 8.67 8.41 8.94h.13l17.94.77Z" fill="#F69797"/><path opacity=".15" d="m623.43 1020.42-16.34-.75h-.13c-4.65-.27-8.31-4.16-8.41-8.94l.07-6.29c-.01-3.9-1.16-10.77-1.66-14.83l2.85-40.28-16.03 3.57-2.89 40.89c.5 4.06.06 10.93.07 14.83l-.07 6.29c.11 4.79 3.76 8.67 8.41 8.94h.13l17.93.75 46.02 1.41c.53-.91 1.71-3.03 1.66-4.63l-31.61-.96Z" fill="#000"/><path d="M583.78 844.951H484.1c-20.33 0-36.79-16.34-37.16-36.54l-.37-23.19h162.86c15.5 0 27.5 13.58 25.58 28.96l-25.56 182.07-28.51-3.6-1.06-32.17c-4.73-62.27-3.07-77.06 3.9-115.53Z" fill="#3F4249"/><path opacity=".2" d="M607.78 820.121c.9-18.93-14.2-34.77-33.16-34.79-49.92-.04-107.06-.11-107.06-.11h-21l.37 23.19c.37 20.2 16.83 36.54 37.16 36.54h99.68c-6.97 38.47-8.63 53.26-3.9 115.54l1.06 32.17 16.38 2.07 10.47-174.61Z" fill="#000"/><path d="M659.53 1026.69h45.64c.75-1.37 2.87-5.49.25-6.36l-31.05-13.34c-5.49-1.87-9.23-3.12-12.47-7.23-.62-.87-1.25-1.87-1.62-2.87l-24.19-54.87-29.8 14.339 25.31 43.891c2.24 3.24 2.74 7.48 2.87 11.35l.12 6.23c.25 4.74 3.99 8.48 8.6 8.6h.12l16.22.26Z" fill="#F69797"/><path opacity=".15" d="M706.04 1024.69c-.37.87-.75 1.62-1 2.12H659.4l-16.34-.25h-.12c-4.74-.12-8.48-3.99-8.6-8.6l-.12-6.23c-.12-3.87-.75-8.23-2.87-11.35l-9.1-15.709.5-4.36 13.84 9.98 8.73 21.199s8.35 11.35 33.29 12.34l24.94.87h2.49v-.01Z" fill="#000"/><path d="m654.17 982.921-26.56 10.97-16.83-27.31c-40.78-60.48-48.85-71-65.06-121.5h-120.1c-20.33 0-36.79-16.34-37.16-36.54l8.71-23.32 154.53.12c11.97 0 22.82 7.23 27.43 18.33l75.04 179.25Z" fill="#3F4249"/><path opacity=".2" d="M610.78 942.021c-32.17-55.36-31.65-61.151-46.11-107.161-3.99-12.72-13.09-15.459-19.58-15.459l-56.87.37c-19.2-.5-52.5 1.499-68.33-9.231l-27.68-25.31h4.97l-8.46 23.19c.37 20.33 16.83 36.541 37.16 36.541h120.09c17.46 52.12 24.41 61.4 65.06 121.5l16.83 27.31 8.98-3.74c-.13.12-20.33-38.04-26.06-48.01Z" fill="#000"/><path d="M460.05 635.291c1 1.4 2.85 2.22 4.97 2.65 8.73 1.78 15.38 3.03 19.21-5.05 5.86-12.78 14.08-42.86 9.91-63.38-8.51.97-10.25 2.22-10.25 2.22s-9.34-7.23-9.52-7.42c.05-.12-25.19 56.05-14.32 70.98ZM437.35 617.02l20.62-72.17c-3.35-1.9-10.79.62-13.17 1.87-31.03 17.57-48.61 75.28-54.69 97.01 7.43 22.4 40.61-9.9 45.58-12.59 2.46-1.48 1.66-14.12 1.66-14.12Z" fill="#21252B"/><path d="m485.24 628.709-37.37 45.57-27.85-42.16 2.44-4.33c.25-.09.49-.06.74-.15 3.1-.96 5.14-4.08 5.03-7.32l8.02-23.54 26.54 20.69c.43 3.52 1.37 9.91 7.34 10.06l15.11 1.18Z" fill="#F69797"/><path d="M412.6 629.28c1.17-.03 8.3-.25 13.31 4.43 20.91 19.54 41.48 16.07 47.31-5.94l4.68.269s2.89 11.921 11.03 30.481c1.3 2.96 6.6 15.41 6.6 15.41 7.27 19.14-3.08 32-3.08 32-.89 1.45-1.42 2.949-1.49 4.619 0 0-.86 35.811 5.02 53.581 2.2 6.66 10.26 26.37 10.26 26.37s-49.67 1.6-69.89 10.89l-31.33 14.35c-10.12 4.7-20.83-5.15-17.1-15.73l1.77-4.94c6.68-18.5 19.75-38.1 18.64-57.61l-2.05-44.56-21.59-14.801-1.79-13.199c2.61-28.92 25.66-35.52 29.7-35.62Z" class="change-color-in-svg" fill="#4D61FC" style="fill:#158566"/><path d="m442.02 779.17.53-.42c-1.05-1.32-.81-3.33.5-4.37l-.42-.53c-1.32 1.05-3.33.81-4.37-.5l-.53.42c1.05 1.32.81 3.33-.5 4.37l.42.53a2.947 2.947 0 0 1 4.37.5Z" class="change-color-in-svg" fill="#4D61FC" style="fill:#158566"/><path opacity=".3" d="M409.08 696.859c.97-.13 1.95.7 1.96 1.66 0 0 2.33 18.68 16.78 21.37-.81 1.07-9.73 2.36-10.26 3.86 0 0-3.78 74.07 7.28 83.01l-19.59 9c-10.12 4.7-20.83-5.15-17.1-15.73l1.77-4.94c6.68-18.5 19.31-36.16 18.21-55.67l-.73-40.46c-.23-1.12.59-1.99 1.68-2.1Z" fill="#000"/><path d="m491.4 784.849.53-.42c-1.05-1.32-.81-3.33.5-4.37l-.42-.53c-1.32 1.05-3.33.81-4.37-.5l-.53.42c1.05 1.32.81 3.33-.5 4.37l.42.53c1.33-1.16 3.22-.95 4.37.5Z" class="change-color-in-svg" fill="#4D61FC" style="fill:#158566"/><path opacity=".3" d="M492.33 705.92c-2.13 2.82-5.02 4.86-8.25 5.91l6 4.94.77-6.23c0-.01.19-2.74 1.48-4.62Z" fill="#000"/><path d="m528.85 784.969-11.35-12.67c-1.49-1.61-2.39-2.07-4.49-2.55l-23.02.18-30.93-8.39-13.84 15.84 29.2 5.28 2.71 1.39c4.51 2.43 9.84 2.93 14.7 1.21l.12.01 4.12-1.44c1-.36 2.18-.23 3.08.24l9.56 5.29c.45.29 1.05.24 1.56-.06.89-.5 1.06-1.91.3-2.6l-6.8-6.41 10.18 9.31c.43.41 1.13.61 1.74.44 1.24-.34 1.77-1.83.93-2.89l-7.02-8.71 9.23 11.36c.54.54 1.22.86 1.97.59 1.35-.32 1.9-1.94 1.18-2.98l-6.74-10.11 10.92 10.11c.75.8 2.07.72 2.76-.04.52-.29.67-1.59-.07-2.4Z" fill="#F69797"/><path opacity=".15" d="M510.39 787.28c-.12-.01-.12-.01-.22-.15l-6.27-5.87c-.1-.13-.2-.38-.06-.49.13-.1.38-.2.49-.06l6.27 5.87c.1.13.2.38.06.49-.14.1-.27.21-.27.21ZM516.2 787.711c-.12-.01-.24-.03-.22-.15l-6.6-8.18c-.1-.13-.08-.37.05-.47.13-.1.37-.08.47.05l6.6 8.18c.1.13.08.37-.05.47-.01.13-.13.11-.25.1Z" fill="#000"/><path d="m382.9 664.869-11.84 93.32c.92 5.49 4.69 10.23 9.96 12.28l57.24 22.63 30.04-29.1-66.54-17.71 19.79-72.35-38.65-9.07Z" class="change-color-in-svg" fill="#4D61FC" style="fill:#158566"/><path opacity=".3" d="m419.88 751.13.36-1.04 68.07 18.79-.17.46-68.26-18.21Z" fill="#000"/><path opacity=".15" d="m456.32 775.551 19.47 4.52c1.52.29 2.99 1.06 4.19 2.04 1.75 1.4 5.11 3.46 9.73 3.87 0 0-7.07 2.18-15.31-3.2l-22.41-3.9 4.33-3.33Z" fill="#000"/><path d="M424.05 649.391c.95.11 1.74-.52 1.84-1.46.11-.95-.52-1.74-1.46-1.84-.94-.11-1.74.52-1.84 1.46-.12.94.51 1.73 1.46 1.84Z" fill="#F4F4F4"/><path d="M471.01 786.449h73.01c.59 0 1.07.48 1.07 1.07v1.9c0 .59-.48 1.07-1.07 1.07h-73.01c-.59 0-1.07-.48-1.07-1.07v-1.9c0-.6.36-1.07 1.07-1.07Z" fill="#21252B"/><path opacity=".6" d="M471.01 786.449h73.01c.59 0 1.07.48 1.07 1.07v1.9c0 .59-.48 1.07-1.07 1.07h-73.01c-.59 0-1.07-.48-1.07-1.07v-1.9c0-.6.36-1.07 1.07-1.07Z" fill="#000"/><path d="M520.24 786.449h131.83c.59 0 1.07.48 1.07 1.07v1.9c0 .59-.48 1.07-1.07 1.07H520.24c-.59 0-1.07-.48-1.07-1.07v-1.9c0-.6.47-1.07 1.07-1.07Z" fill="#21252B"/><path opacity=".6" d="M645.92 787.159H516.31c-.24 0-.36-.12-.36-.36s.12-.36.36-.36h129.61c.24 0 .36.12.36.36s-.24.36-.36.36Z" fill="#000"/><path d="m523.74 790.319 19.14-.22c1.43-.02 2.72-1.1 3.06-2.53l15.08-84.72a3.105 3.105 0 0 0-3.13-3.65l-19.14.22c-1.43.02-2.72 1.1-3.06 2.53l-15.08 84.72c-.22 2.02 1.11 3.67 3.13 3.65Z" fill="#21252B"/><path opacity=".6" d="m523.74 790.319 19.14-.22c1.43-.02 2.72-1.1 3.06-2.53l15.08-84.72a3.105 3.105 0 0 0-3.13-3.65l-19.14.22c-1.43.02-2.72 1.1-3.06 2.53l-15.08 84.72c-.22 2.02 1.11 3.67 3.13 3.65Z" fill="#000"/><path d="m526.48 790.281 123.18-1.41c1.43-.02 2.72-1.1 3.06-2.53l15.08-84.72a3.105 3.105 0 0 0-3.13-3.65l-123.18 1.41c-1.43.02-2.72 1.1-3.06 2.53l-14.96 84.72c-.34 2.03.99 3.68 3.01 3.65Z" fill="#21252B"/><path opacity=".6" d="M596.2 741.799c-.69 1.67.16 3.21 1.82 3.19h.24c-2 2.28-4.95 3.86-7.69 3.77-3.69-.08-5.39-3.03-3.76-6.62 1.5-3.7 5.75-6.49 9.44-6.53 2.26.09 3.82 1.26 4.32 3.04-1.67.15-3.56 1.36-4.37 3.15Z" fill="#000"/><path d="m458.15 622.87-1.68-.26c-12.49-1.94-21.31-14.56-19.37-27.05l4.75-31.64c.7-4.19 4.58-7.04 8.65-6.38l29.59 4.48c5.42.78 9.09 5.86 8.31 11.29l-4.43 29.47c-1.91 12.37-12.86 22.46-25.82 20.09Z" fill="#F69797"/><path d="m460.96 606.39.62 1.38c1.7 3.57 6.57 4.14 9.21 1.2l1.15-1.35c.24-.29.14-.71-.23-.72l-10.27-1.09c-.33-.13-.61.28-.48.58Z" fill="#fff"/><path d="M460.11 592.21c1.33.51 2.71-.12 3.22-1.45.51-1.33-.12-2.71-1.45-3.22-1.33-.51-2.71.12-3.22 1.45-.51 1.33.12 2.71 1.45 3.22Z" fill="#21252B"/><path d="M461.64 591.519c.22.08.53-.05.61-.28.08-.22-.05-.53-.28-.61-.23-.08-.53.05-.61.28-.08.22.06.52.28.61Z" fill="#fff"/><path d="M478.84 596.13c1.33.51 2.71-.12 3.22-1.45.51-1.33-.12-2.71-1.45-3.22-1.33-.51-2.71.12-3.22 1.45-.51 1.33.12 2.71 1.45 3.22Z" fill="#21252B"/><path d="M480.53 595.371c.22.08.53-.05.61-.28.08-.22-.05-.53-.28-.61-.23-.08-.53.05-.61.28-.08.22.06.53.28.61Z" fill="#fff"/><path opacity=".3" d="m469.6 603.059-3.3-.36c-.38-.02-.74-.41-.61-.74.02-.38.41-.74.74-.61l3.3.36c.86.07 1.6-.54 1.63-1.29.07-.86-.54-1.6-1.29-1.63-.38-.02-.74-.41-.61-.74.02-.38.41-.74.74-.61 1.57.21 2.79 1.69 2.58 3.27-.17 1.45-1.6 2.56-3.18 2.35Z" fill="#000"/><path d="m493.99 582.67 1.22.46c2.42-34.56-31.13-47.03-50.57-36.34-11.74 6.48-21.09 20.74-21.09 20.74.48 6.79 6.09 14.13 6.9 19.02.33 2.16 5.6-5.38 7.47-5.94.26-.03 1.37 2.43 2.13 4.11.48 1.07 1.94 1.25 2.48.18 2.03-3.68 3.33-7.77 3.98-11.84l.53-3.74c8.38.38 34.17.11 39.8.34 1.39.02 1.79 2.33 1.66 3.68l-2.78 18.4 6.19-6.94 2.08-2.13Z" fill="#21252B"/><path d="M438.42 597.081s-10.94-.33-12-11.29c-1.17-11 12.36-11.47 13.15-.48l.19 11.9-1.34-.13Z" fill="#F69797"/><path opacity=".3" d="M430.37 580.43c1.27-.66 2.37-.88 3.37-.5s1.87 1.09 2.39 2.43c.55 1.23.87 2.74.76 4.36l-.05 1.13c-.07.86-1.51.95-1.5-.06l.09-1.24c.02-.38.02-2.41-.57-3.52-.41-.92-1-1.4-1.55-1.61-.56-.21-1.39-.02-2.31.4-.31.14-.79.08-.93-.23-.22-.47-.05-.92.3-1.16Z" fill="#000"/><path d="M483.62 584.209c-3.03-.39-6.01.77-8.05 2.8-2.5-1.46-4.95-1.37-6.05-1.15-1.25-3.4-4.35-5.97-8.09-6.5-5.47-.67-10.41 3.3-11.04 8.66-.67 5.47 3.3 10.41 8.66 11.04 5.47.67 10.41-3.3 11.04-8.66a8.35 8.35 0 0 0-.17-3.24c.95-.15 2.87-.18 4.9.84-1.03 1.39-1.82 3.12-2.01 4.96-.67 5.47 3.3 10.41 8.66 11.04 5.47.67 10.41-3.3 11.04-8.66.44-5.56-3.43-10.46-8.89-11.13Zm-24.49 13.6c-4.76-.53-8.19-4.89-7.55-9.6.53-4.76 4.89-8.19 9.6-7.55 4.76.53 8.19 4.89 7.55 9.6-.49 4.65-4.84 8.09-9.6 7.55Zm22.35 4.79c-4.76-.53-8.19-4.89-7.55-9.6.53-4.76 4.89-8.19 9.6-7.55 4.76.53 8.19 4.89 7.55 9.6-.53 4.75-4.85 8.08-9.6 7.55Z" fill="#fff"/><path d="M435.27 595c1.11.42 2.34-.13 2.76-1.24.42-1.11-.13-2.34-1.24-2.76-1.11-.42-2.34.13-2.76 1.24-.42 1.11.13 2.34 1.24 2.76Z" class="change-color-in-svg" fill="#4D61FC" style="fill:#158566"/><path opacity=".15" d="M436.48 594.819c-1.35-.13-2.17-1.33-2.08-2.57.06-.49.23-.93.46-1.22-.61.28-.98.9-1.12 1.61-.2 1.2.66 2.28 1.9 2.37.49.06.9-.04 1.25-.29-.07.23-.18.19-.41.1ZM436.25 596.77l3.74.529-5.91 7.55 2.17-8.079Z" fill="#000"/><path d="M488.43 573.19c-17.1-11.57-24.65 17.74-42.68 6.58-16.89-10.47 7.92-26.25 7.92-26.25l17.22 3.22 20.67 10.89-3.13 5.56Z" fill="#21252B"/><path d="M447.62 581.881s-2.27-.73-4.97-3.66l4.97 3.66Z" fill="#000"/><path d="M447.62 581.881s-2.27-.73-4.97-3.66" stroke="#F69797" stroke-width="1.299" stroke-miterlimit="10" stroke-linecap="round"/><path opacity=".15" d="M464.86 624.59c-.65-.94-.8-1.5-.8-1.5s-5.49.88-11.64-1.53a.903.903 0 0 0-.95.39c-.08.35.07.75.39.95 1.13.38 2.15.75 3.19.98 6.4 1.47 9.81.71 9.81.71Z" fill="#000"/><path d="M436.25 596.771s-1.28 41.93 3.74 58.2c0 0-3.65.5-8.57.61-.63.01-1.7-13.85-2.36-13.85-.71 0-1.02 13.86-1.76 13.84-5.96-.17-12.69-1.1-16.99-3.97-5.01-3.31.14-35.26 9.09-49.82 6.32-10.27 16.85-5.01 16.85-5.01Z" fill="#21252B"/><path d="m477.9 628.039 5.88.42c4.82.34 8.56 4.36 8.56 9.19v31c-.01 0-12.06-29.6-14.44-40.61Z" class="change-color-in-svg" fill="#4D61FC" style="fill:#158566"/><path opacity=".3" d="M492.33 666.44c-4.36-10.22-13.02-26.34-13.02-26.34l13.02 19.61v6.73Z" fill="#000"/><path d="m500.03 740.19-3.86 24.48s-5.38-14.33-4.42-26.16l8.28 1.68Z" class="change-color-in-svg" fill="#4D61FC" style="fill:#158566"/><path opacity=".3" d="M496.17 764.67c-5.72-14.58-4.37-26.16-4.37-26.16l2.5.51s-.6 5.11-.66 11.07c-.04 4.19 2.53 14.58 2.53 14.58ZM389.44 659.83l-10.6 74.83c-1.92 11.83 5.06 23.48 16.55 26.88.1.03.19.06.29.08l60.75 13.94-18.18 17.54-57.02-22.48c-5.38-2.17-9.26-6.93-10.15-12.66l11.81-93.09c1.33-15.47 9.99-31.4 28.58-35.47-10.89 3.18-20.86 15.29-22.03 30.43Z" fill="#000"/><path d="M437.21 691.41c.48.38.73.84.93 1.32.17.49.28 1.01.15 1.61-.48-.38-.73-.84-.93-1.32-.16-.5-.27-1.01-.15-1.61ZM437.75 694.7c-.35.45-.78.66-1.22.81-.45.13-.92.2-1.47.03.35-.45.78-.66 1.22-.81.46-.13.93-.2 1.47-.03ZM438.21 698.401c-.37-.48-.5-.99-.57-1.51-.04-.52-.02-1.04.25-1.59.38.48.5.99.57 1.51.04.51.01 1.04-.25 1.59ZM438.29 694.979c.45-.35.92-.44 1.39-.49.47-.01.94.04 1.43.34-.45.35-.92.45-1.39.49-.47.01-.94-.04-1.43-.34ZM474.26 659.711c.48.38.73.84.93 1.32.17.49.28 1.01.15 1.61-.48-.38-.73-.84-.93-1.32-.16-.5-.27-1.01-.15-1.61ZM474.8 663.001c-.35.45-.78.66-1.22.81-.45.13-.92.2-1.47.03.35-.45.78-.66 1.22-.81.45-.13.92-.19 1.47-.03ZM475.25 666.7c-.37-.48-.5-.99-.57-1.51-.04-.52-.02-1.04.25-1.59.38.48.5.99.57 1.51.04.52.02 1.04-.25 1.59ZM475.34 663.28c.45-.35.92-.44 1.39-.49.47-.01.94.04 1.43.34-.45.35-.92.45-1.39.49-.47.01-.95-.04-1.43-.34ZM483.27 638.35c.61-.08 1.11.07 1.59.27.47.23.91.51 1.25 1.02-.61.08-1.11-.07-1.59-.27-.47-.23-.91-.51-1.25-1.02ZM485.99 640.279c.07.56-.08 1.02-.28 1.44-.23.41-.51.79-1.01 1.06-.07-.57.08-1.02.28-1.44.22-.4.51-.79 1.01-1.06ZM488.94 642.56c-.61-.08-1.06-.34-1.47-.66-.4-.34-.75-.72-.96-1.3.61.07 1.06.34 1.47.66.4.34.75.72.96 1.3ZM486.57 640.1c.07-.56.33-.96.63-1.33.32-.34.69-.64 1.25-.78-.07.57-.33.97-.63 1.33-.33.34-.7.64-1.25.78ZM424.57 725.061c.48.38.73.84.93 1.32.17.49.28 1.01.15 1.61-.48-.38-.73-.84-.93-1.32-.16-.5-.27-1.01-.15-1.61ZM425.11 728.35c-.35.45-.78.66-1.22.81-.45.13-.92.2-1.47.03.35-.45.78-.66 1.22-.81.46-.13.93-.19 1.47-.03ZM425.57 732.049c-.37-.48-.5-.99-.57-1.51-.04-.52-.02-1.04.25-1.59.38.48.5.99.57 1.51.04.52.02 1.04-.25 1.59ZM425.65 728.63c.45-.35.92-.44 1.39-.49.47-.01.94.04 1.43.34-.45.35-.92.45-1.39.49-.47.01-.94-.04-1.43-.34ZM486.42 696.57c.48.38.73.84.93 1.32.17.49.28 1.01.15 1.61-.48-.38-.73-.84-.93-1.32-.16-.5-.27-1.01-.15-1.61ZM486.96 699.86c-.35.45-.78.66-1.22.81-.45.13-.92.19-1.47.03.35-.45.78-.66 1.22-.81.45-.13.92-.2 1.47-.03ZM487.41 703.561c-.37-.48-.5-.99-.57-1.51-.04-.52-.02-1.04.25-1.59.38.48.5.99.57 1.51.04.51.02 1.04-.25 1.59ZM487.5 700.14c.45-.35.92-.44 1.39-.49.47-.01.94.04 1.43.34-.45.35-.92.45-1.39.49-.47.01-.95-.04-1.43-.34ZM438.14 757.141c.48.38.73.84.93 1.32.17.49.28 1.01.15 1.61-.48-.38-.73-.84-.93-1.32-.17-.5-.28-1.02-.15-1.61ZM438.68 760.431c-.35.45-.78.66-1.22.81-.45.13-.92.2-1.47.03.35-.45.78-.66 1.22-.81.45-.13.92-.2 1.47-.03ZM439.13 764.12c-.37-.48-.5-.991-.57-1.511-.04-.52-.02-1.039.25-1.589.38.48.5.99.57 1.51.04.52.02 1.04-.25 1.59ZM439.22 760.71c.45-.35.92-.44 1.39-.49.47-.01.94.04 1.43.34-.45.35-.92.45-1.39.49-.47 0-.95-.05-1.43-.34ZM473 737.439c.48.38.73.84.93 1.32.17.49.28 1.01.15 1.61-.48-.38-.73-.84-.93-1.32-.16-.5-.27-1.01-.15-1.61ZM473.54 740.729c-.35.45-.78.66-1.22.81-.45.13-.92.2-1.47.03.35-.45.78-.66 1.22-.81.46-.13.93-.2 1.47-.03ZM474 744.43c-.37-.48-.5-.99-.57-1.51-.04-.52-.02-1.04.25-1.59.38.48.5.99.57 1.51.03.51.01 1.04-.25 1.59ZM474.08 741.011c.45-.35.92-.44 1.39-.49.47-.01.94.04 1.43.34-.45.35-.92.45-1.39.49-.47.01-.94-.04-1.43-.34ZM413.18 770.17c.48.38.73.84.93 1.32.17.49.28 1.01.15 1.61-.48-.38-.73-.84-.93-1.32-.16-.5-.27-1.02-.15-1.61ZM413.72 773.46c-.35.45-.78.66-1.22.81-.45.13-.92.2-1.47.03.35-.45.78-.66 1.22-.81.46-.13.93-.2 1.47-.03ZM414.18 777.151c-.37-.48-.5-.99-.57-1.51-.04-.52-.02-1.04.25-1.59.38.48.5.99.57 1.51.03.52.01 1.04-.25 1.59ZM414.26 773.739c.45-.35.92-.44 1.39-.49.47-.01.94.04 1.43.34-.45.35-.92.45-1.39.49-.47 0-.94-.05-1.43-.34ZM398.35 800.25c.48.38.73.84.93 1.32.17.49.28 1.01.15 1.61-.48-.38-.73-.84-.93-1.32-.16-.5-.27-1.01-.15-1.61ZM398.89 803.54c-.35.45-.78.66-1.22.81-.45.13-.92.2-1.47.03.35-.45.78-.66 1.22-.81.45-.13.92-.2 1.47-.03ZM399.34 807.241c-.37-.48-.5-.99-.57-1.51-.04-.52-.02-1.04.25-1.59.38.48.5.99.57 1.51.04.51.02 1.04-.25 1.59ZM399.43 803.819c.45-.35.92-.44 1.39-.49.47-.01.94.04 1.43.34-.45.35-.92.45-1.39.49-.47.01-.95-.04-1.43-.34ZM391.7 735.84c.61-.01 1.1.19 1.55.44.44.28.85.61 1.13 1.15-.61.01-1.1-.19-1.55-.44-.44-.28-.85-.61-1.13-1.15ZM394.19 738.061c.01.57-.19 1-.44 1.4-.27.38-.6.73-1.12.94-.01-.57.19-1 .44-1.4.27-.38.59-.73 1.12-.94ZM396.87 740.649c-.59-.14-1.01-.46-1.39-.81-.36-.38-.67-.8-.81-1.4.6.14 1.02.46 1.39.81.36.38.67.8.81 1.4ZM394.79 737.941c.13-.55.43-.92.77-1.25.36-.3.76-.56 1.32-.63-.13.55-.43.92-.77 1.25-.36.29-.76.55-1.32.63ZM414.48 685.279c-.52.32-1.04.39-1.56.41-.52-.02-1.04-.09-1.56-.42.52-.32 1.04-.4 1.56-.41.52.03 1.04.1 1.56.42ZM411.21 684.64c-.3-.49-.35-.96-.34-1.43.04-.47.14-.93.49-1.39.3.49.35.96.34 1.43-.05.48-.14.94-.49 1.39ZM407.58 683.781c.58-.18 1.11-.12 1.61-.01.5.14.98.35 1.41.79-.58.18-1.11.12-1.61.01-.5-.14-.98-.35-1.41-.79ZM410.76 685.051c.17.54.1 1.01-.03 1.47-.15.44-.37.87-.82 1.22-.17-.55-.1-1.02.03-1.47.16-.44.37-.87.82-1.22ZM394.02 661.65c.48.38.73.84.93 1.32.17.49.28 1.01.15 1.61-.48-.38-.73-.84-.93-1.32-.17-.49-.28-1.01-.15-1.61ZM394.56 664.95c-.35.45-.78.66-1.22.81-.45.13-.92.19-1.47.03.35-.45.78-.66 1.22-.81.45-.13.92-.2 1.47-.03ZM395.01 668.639c-.37-.48-.5-.99-.57-1.51-.04-.52-.02-1.04.25-1.59.38.48.5.99.57 1.51.04.52.02 1.04-.25 1.59ZM395.1 665.229c.45-.35.92-.44 1.39-.49.47-.01.94.04 1.43.34-.45.35-.92.45-1.39.49-.48 0-.95-.05-1.43-.34Z" fill="#fff"/><path d="M366.04 665.811s-58.71 135.9 39.45 162.95c41.98 11.57 89.16-6.14 116.02-2.03 48.22 7.37 68.18 109.87 48.38 199.819H323.35c-31.14 0-57.58-22.9-61.9-53.729-7.66-54.71-13.28-141.35 11.77-212.45 26.66-75.65 92.82-94.56 92.82-94.56Z" fill="#858990"/><path d="m291.11 975.881-.68-.14c.14-.55 7.39-58.59 23.96-89.94l.55.27c-16.44 31.49-23.83 89.26-23.83 89.81ZM288.51 955.071h-.68c1.78-31.9-9.45-78.58-9.58-79.12l.68-.14c0 .41 11.36 47.23 9.58 79.26Z" fill="#3F4249"/><path d="M313.15 888.809s.14-31.35 27.52-33.27c.13.01 2.33 27.66-27.52 33.27ZM247.44 882.1s-7.39-29.84-39.84-21.36c.01-.13 6.17 21.77 39.84 21.36ZM282.62 894.291s9.72-25.46-12.87-38.74c.14 0-9.71 25.05 12.87 38.74Z" class="change-color-in-svg" fill="#4D61FC" style="fill:#158566"/><path d="M277.7 975.88h-.68c0-58.86-29.43-93.22-29.84-93.64l.55-.41c.26.41 29.97 34.91 29.97 94.05ZM287.14 975.88h-.68c3.42-60.37 6.16-70.91 11.5-91.72.55-2.19 1.1-4.38 1.78-6.84l.68.14c-.55 2.46-1.23 4.65-1.78 6.84-5.34 20.8-8.08 31.21-11.5 91.58Z" fill="#3F4249"/><path d="M270.72 974.779h-.68c3.7-45.31-6.84-77.35-16.29-96.24-11.09-22.04-24.78-34.36-31.21-37.37l.27-.55c6.57 3.01 20.4 15.47 31.49 37.65 9.57 18.89 20.25 51.06 16.42 96.51Z" fill="#3F4249"/><path d="M265.65 974.779h-.68c.14-.55 8.21-58.45-27.38-77.62l.27-.55c10.4 5.61 23.55 18.21 27.52 46.54 2.46 16.85.27 31.49.27 31.63ZM292.21 967.12l-.68-.27c0-.14 3.29-9.45 13.28-17.25l.41.55c-9.73 7.66-13.01 16.83-13.01 16.97ZM295.49 949.181l-.41-.55c.82-.68 20.67-18.07 30.8-21.08l.14.68c-9.99 2.88-30.39 20.68-30.53 20.95Z" fill="#3F4249"/><path d="M254.01 911.671s-8.08-30.66-39.97-23.55c0 .01 5.48 26.15 39.97 23.55Z" class="change-color-in-svg" fill="#4D61FC" style="fill:#158566"/><path opacity=".4" d="M254.01 911.671s-8.08-30.66-39.97-23.55c0 .01 5.48 26.15 39.97 23.55Z" fill="#fff"/><path d="M270.44 943.161s-5.48-21.77-34.77-14.65c0 0 9.58 21.77 34.77 14.65ZM290.29 928.919s2.74-34.22 38.47-38.47c-.14.14 1.64 33.54-38.47 38.47Z" class="change-color-in-svg" fill="#4D61FC" style="fill:#158566"/><path d="M280.85 975.879h-.68c.27-24.37 1.64-150.04 1.64-151.27h.68c-.14 1.23-1.51 126.9-1.64 151.27Z" fill="#3F4249"/><path d="M287.42 919.891s-30.53 1.64-30.53-32.17c0 0 29.57.41 30.53 32.17Z" class="change-color-in-svg" fill="#4D61FC" style="fill:#158566"/><path opacity=".4" d="M287.42 919.891s-30.53 1.64-30.53-32.17c0 0 29.57.41 30.53 32.17Z" fill="#fff"/><path d="M316.16 932.889s8.35-23.27 34.5-17.39c0 .14-4.38 19.58-34.5 17.39Z" class="change-color-in-svg" fill="#4D61FC" style="fill:#158566"/><path opacity=".4" d="M316.16 932.889s8.35-23.27 34.5-17.39c0 .14-4.38 19.58-34.5 17.39Z" fill="#fff"/><path d="M303.98 975.189h-53.94v6.84h53.94v-6.84Z" fill="#3F4249"/><path d="M297.14 1026.25h-40.25l-3.01-44.211h46.27l-3.01 44.211Z" fill="#84888F"/><path d="M297.14 1026.25h-40.25l-3.01-44.211h46.27l-3.01 44.211Z" fill="#3F4249"/><path opacity=".2" d="M303.98 975.189h-8.62v6.85h-41.48l.13 1.91h33.27l.14 42.301h9.72l3.01-44.211h3.83v-6.85Z" fill="#000"/><path d="M281.67 850.76s-14.92-22.59 4.52-44.08c-.01-.14 12.86 21.9-4.52 44.08Z" class="change-color-in-svg" fill="#4D61FC" style="fill:#158566"/><path opacity=".4" d="M281.67 850.76s-14.92-22.59 4.52-44.08c-.01-.14 12.86 21.9-4.52 44.08Z" fill="#fff"/><path d="M295.22 896.069s-16.43-34.91 12.87-56.54c0 .14 20.26 31.76-12.87 56.54Z" class="change-color-in-svg" fill="#4D61FC" style="fill:#158566"/><path opacity=".4" d="M295.22 896.069s-16.43-34.91 12.87-56.54c0 .14 20.12 31.76-12.87 56.54Z" fill="#fff"/><path d="M299.19 955.89s3.97-15.2 24.78-12.05c0 0-3.43 15.47-24.78 12.05ZM270.72 962.871s-4.52-29.57 22.45-32.99c0 0 6.43 25.6-22.45 32.99Z" class="change-color-in-svg" fill="#4D61FC" style="fill:#158566"/><path opacity=".4" d="M270.72 962.871s-4.52-29.57 22.45-32.99c0 0 6.43 25.6-22.45 32.99Z" fill="#fff"/><path d="M215.41 836.38s16.29-1.64 19.44 13.96c-.14 0-14.79 1.78-19.44-13.96Z" class="change-color-in-svg" fill="#4D61FC" style="fill:#158566"/><path opacity=".3" d="M215.41 836.38s16.29-1.64 19.44 13.96c-.14 0-14.79 1.78-19.44-13.96Z" fill="#fff"/><path d="M254.97 834.74s-20.26 21.08-.41 43.94c0 0 19.85-22.45.41-43.94Z" class="change-color-in-svg" fill="#4D61FC" style="fill:#158566"/><path opacity=".4" d="M254.97 834.74s-20.26 21.08-.41 43.94c0 0 19.85-22.45.41-43.94Z" fill="#fff"/><defs><linearGradient id="a" x1="462.045" y1="376.054" x2="494.294" y2="408.046" gradientUnits="userSpaceOnUse"><stop stop-color="#387EB8"/><stop offset="1" stop-color="#366994"/></linearGradient><linearGradient id="b" x1="481.834" y1="396.609" x2="516.488" y2="429.337" gradientUnits="userSpaceOnUse"><stop stop-color="#FFE052"/><stop offset="1" stop-color="#FFC331"/></linearGradient><linearGradient id="c" x1="479.543" y1="267.651" x2="463.74" y2="299.888" gradientUnits="userSpaceOnUse"><stop stop-color="#3E863D"/><stop offset=".3" stop-color="#3E863D"/><stop offset=".5" stop-color="#55934F"/><stop offset=".8" stop-color="#5AAD45"/><stop offset="1" stop-color="#5AAD45"/></linearGradient><linearGradient id="d" x1="457.223" y1="294.393" x2="485.985" y2="273.142" gradientUnits="userSpaceOnUse"><stop stop-color="#3E863D"/><stop offset=".57" stop-color="#3E863D"/><stop offset=".72" stop-color="#619857"/><stop offset="1" stop-color="#76AC64"/></linearGradient><linearGradient id="e" x1="460.1" y1="283.72" x2="483.87" y2="283.72" gradientUnits="userSpaceOnUse"><stop stop-color="#6BBF47"/><stop offset=".16" stop-color="#6BBF47"/><stop offset=".38" stop-color="#79B461"/><stop offset=".47" stop-color="#75AC64"/><stop offset=".7" stop-color="#659E5A"/><stop offset=".9" stop-color="#3E863D"/><stop offset="1" stop-color="#3E863D"/></linearGradient></defs></svg>