<svg class="gridItem__media" xmlns="http://www.w3.org/2000/svg" width="1600" height="1200" style="enable-background:new 0 0 1600 1200" xml:space="preserve" fill="none"><path d="m217.759 446.82 412-313.71a99.619 99.619 0 0 1 79.36-18.45l493.601 96.16a99.186 99.186 0 0 1 41.48 18.667A99.174 99.174 0 0 1 1273 264.7l126 259.07a97.627 97.627 0 0 1 9.85 44.301 97.597 97.597 0 0 1-11.24 43.969L1175 1034.54a99.002 99.002 0 0 1-38.35 39.6 99.082 99.082 0 0 1-53.59 12.95l-564.271-24.22a99.717 99.717 0 0 1-53.51-18.34l-254.28-180.7a98.22 98.22 0 0 1-41.41-83.65l9.55-259.11a97.897 97.897 0 0 1 38.62-74.25Z" fill="#F4F4F4"/><path d="M854.43 802.13H742.68L754 663.25h88.32l23.53 125.08a11.65 11.65 0 0 1-11.42 13.8ZM1055.44 347.301h21.81c4.34 0 8.5 1.723 11.57 4.792a16.392 16.392 0 0 1 4.79 11.568v378.12c0 4.142-1.65 8.114-4.57 11.045a15.646 15.646 0 0 1-11.04 4.585h-38.9v-393.75a16.37 16.37 0 0 1 4.78-11.561 16.37 16.37 0 0 1 11.56-4.799Z" fill="#3F4249"/><path d="M461 681.061h623.9v60.54c0 4.195-1.67 8.219-4.63 11.186a15.826 15.826 0 0 1-11.19 4.634H476.8a15.82 15.82 0 0 1-15.8-15.82v-60.54Z" fill="#868A91"/><path d="M477.35 347.301h591.18c4.34 0 8.5 1.723 11.57 4.792a16.35 16.35 0 0 1 4.79 11.568v317.4H461v-317.4a16.36 16.36 0 0 1 16.35-16.36Z" fill="#61656D"/><path opacity=".2" d="M772.938 732.691c7.429 0 13.45-6.022 13.45-13.45 0-7.428-6.021-13.45-13.45-13.45-7.428 0-13.45 6.022-13.45 13.45 0 7.428 6.022 13.45 13.45 13.45Z" fill="#fff"/><path d="M854.659 804.52c-.87.002-1.74-.065-2.6-.2h-172.2V800h172.83s4.85.91 7.44-1.66c1.81-1.8 2.29-5 1.43-9.61l4.28-.8c1.15 6.1.26 10.66-2.66 13.53a12.001 12.001 0 0 1-8.52 3.06Z" fill="#3F4249"/><path d="M800.749 799.949h-120.89v4.36h120.89v-4.36Z" fill="#868A91"/><path d="M1066.35 364.02H479.527v300.32h586.823V364.02Z" fill="#fff"/><path d="M1066.35 364.02H479.527v22.54h586.823v-22.54ZM506.247 386.561h-26.72v277.77h26.72v-277.77Z" fill="#868A91"/><path d="M1066.34 386.561H962.719v277.77h103.621v-277.77Z" fill="#B2B6BB"/><path opacity=".6" d="M1066.35 651.98H479.527v12.361h586.823V651.98Z" fill="#868A91"/><path d="M1049.01 400.381h-69.231a6.15 6.15 0 0 0-6.15 6.15v101.5a6.15 6.15 0 0 0 6.15 6.15h69.231c3.4 0 6.15-2.754 6.15-6.15v-101.5c0-3.397-2.75-6.15-6.15-6.15ZM1049.01 522.541h-69.231a6.15 6.15 0 0 0-6.15 6.15v30.6a6.15 6.15 0 0 0 6.15 6.15h69.231c3.4 0 6.15-2.753 6.15-6.15v-30.6c0-3.397-2.75-6.15-6.15-6.15ZM1049.01 573.439h-69.231a6.15 6.15 0 0 0-6.15 6.15v66.23a6.15 6.15 0 0 0 6.15 6.15h69.231c3.4 0 6.15-2.753 6.15-6.15v-66.23c0-3.396-2.75-6.15-6.15-6.15ZM574.1 386.561h-67.85v9.45h67.85v-9.45Z" fill="#3F4249"/><path d="M962.718 386.561h-388.62v9.45h388.62v-9.45ZM1043.46 417.78h-58.401a2.182 2.182 0 0 1-1.542-3.722 2.185 2.185 0 0 1 1.542-.638h58.401a2.178 2.178 0 0 1 1.54 3.721c-.41.409-.96.639-1.54.639ZM1043.46 437.7h-58.402a2.189 2.189 0 0 1 0-4.37h58.402c.55.038 1.07.284 1.45.69.38.405.59.94.59 1.495a2.192 2.192 0 0 1-2.04 2.185ZM1046.16 546.18h-63.802a2.193 2.193 0 0 1-2.042-2.185 2.191 2.191 0 0 1 2.042-2.185h63.802c.3-.021.6.021.88.122.28.1.54.258.76.463.22.205.4.452.52.728.11.275.18.572.18.872 0 .3-.07.597-.18.872a2.222 2.222 0 0 1-1.28 1.191c-.28.1-.58.142-.88.122ZM1035.23 458.09h-50.171a2.18 2.18 0 1 1 0-4.36h50.171c.58 0 1.13.23 1.54.639a2.176 2.176 0 0 1 0 3.083c-.41.409-.96.638-1.54.638ZM1035.23 476.241h-50.171a2.182 2.182 0 0 1-1.542-3.722 2.185 2.185 0 0 1 1.542-.638h50.171a2.178 2.178 0 0 1 1.54 3.721c-.41.409-.96.639-1.54.639Z" fill="#B2B6BB"/><path d="M991.63 505.751a10.059 10.059 0 0 1-7.113-17.174 10.056 10.056 0 0 1 10.963-2.18 10.058 10.058 0 0 1 3.261 16.404 10.072 10.072 0 0 1-7.111 2.95Zm0-15.75a5.683 5.683 0 0 0-5.249 3.519 5.695 5.695 0 0 0 1.239 6.198 5.687 5.687 0 0 0 9.71-4.027 5.683 5.683 0 0 0-1.67-4.027 5.676 5.676 0 0 0-4.03-1.663ZM1015 505.751c-1.99.012-3.94-.568-5.61-1.666a10.074 10.074 0 0 1-4.33-10.32 10.16 10.16 0 0 1 2.74-5.166 10.093 10.093 0 0 1 5.15-2.77c1.96-.393 3.98-.198 5.82.562a10.046 10.046 0 0 1 3.3 16.389 10.055 10.055 0 0 1-7.07 2.971Zm0-15.75a5.675 5.675 0 0 0-3.16.963 5.69 5.69 0 1 0 8.86 4.727c0-.748-.15-1.489-.44-2.18a5.556 5.556 0 0 0-1.23-1.847 5.702 5.702 0 0 0-4.03-1.663ZM1038.29 505.751c-1.99 0-3.93-.59-5.59-1.696a10.065 10.065 0 0 1-3.7-4.514 10.061 10.061 0 0 1-.58-5.813 10.064 10.064 0 0 1 2.76-5.151 10.051 10.051 0 0 1 15.47 1.525 10.042 10.042 0 0 1-1.25 12.699 10.073 10.073 0 0 1-7.11 2.95Zm0-15.75c-1.12 0-2.23.334-3.16.959a5.669 5.669 0 0 0-2.42 5.841 5.662 5.662 0 0 0 1.56 2.913 5.675 5.675 0 0 0 2.91 1.558c1.1.219 2.25.106 3.29-.324a5.653 5.653 0 0 0 2.55-2.096 5.684 5.684 0 0 0-.71-7.185 5.668 5.668 0 0 0-4.02-1.666ZM1034.17 554.541c-.58 0-1.13-.23-1.54-.639a2.176 2.176 0 0 1-.64-1.541v-17.46a2.178 2.178 0 0 1 2.18-2.18 2.178 2.178 0 0 1 2.18 2.18v17.46a2.19 2.19 0 0 1-2.18 2.18Z" fill="#fff"/><path d="M998.159 582.17h-13.18a2.62 2.62 0 0 0-2.62 2.62v13.18a2.62 2.62 0 0 0 2.62 2.62h13.18a2.62 2.62 0 0 0 2.621-2.62v-13.18a2.62 2.62 0 0 0-2.621-2.62Z" fill="#B2B6BB"/><path d="M1007.36 591.381h-13.181a2.62 2.62 0 0 0-2.62 2.62v13.18a2.62 2.62 0 0 0 2.62 2.62h13.181c1.45 0 2.62-1.173 2.62-2.62v-13.18c0-1.447-1.17-2.62-2.62-2.62Z" fill="#fff"/><path d="M1046.16 587.26h-27.26c-.58 0-1.13-.229-1.54-.638a2.177 2.177 0 0 1 0-3.083c.41-.409.96-.639 1.54-.639h27.26c.58 0 1.13.23 1.54.639a2.176 2.176 0 0 1 0 3.083c-.41.409-.96.638-1.54.638ZM1046.16 627.071h-63.8a2.182 2.182 0 0 1-1.542-3.722 2.185 2.185 0 0 1 1.542-.638h63.8a2.178 2.178 0 0 1 1.54 3.721c-.41.409-.96.639-1.54.639ZM1046.16 642.901h-63.8a2.18 2.18 0 0 1 0-4.36h63.8c.58 0 1.13.23 1.54.639a2.174 2.174 0 0 1 0 3.083c-.41.408-.96.638-1.54.638Z" fill="#B2B6BB"/><path opacity=".1" d="M962.72 418.33V414H944v-18h-4.37v18h-17.54v-18h-4.36v18H900.2v-18h-4.36v18h-17.53v-18H874v18h-17.58v-18h-4.36v18h-17.53v-18h-4.36v18h-17.53v-18h-4.36v18h-17.53v-18h-4.37v18h-17.52v-18h-4.37v18H747v-18h-4.4v18h-17.53v-18h-4.36v18h-17.53v-18h-4.36v18h-17.53v-18h-4.36v18H659.4v-18H655v18h-17.49v-18h-4.37v18h-17.52v-18h-4.37v18h-17.52v-18h-4.37v18h-17.53v-18h-4.36v18h-17.53v-18h-4.36v18h-17.53v-18h-4.36v18h-17.44v4.36h17.44v17.19h-17.44v4.36h17.44v17.18h-17.44v4.37h17.44v17.18h-17.44V483h17.44v17.19h-17.44v4.36h17.44v17.15h-17.44v4.36h17.44v17.19h-17.44v4.36h17.44v17.19h-17.44v4.36h17.44v17.18h-17.44v4.36h17.44v17.19h-17.44v4.36h17.44v17.18h-17.44v4.37h17.44V652h4.36v-18.2h17.53V652h4.36v-18.2h17.53V652h4.36v-18.2h17.53V652h4.37v-18.2h17.52V652h4.37v-18.2h17.52V652h4.37v-18.2H655V652h4.36v-18.2h17.53V652h4.36v-18.2h17.53V652h4.36v-18.2h17.53V652h4.36v-18.2h17.57V652h4.4v-18.2h17.53V652h4.37v-18.2h17.52V652h4.37v-18.2h17.53V652h4.36v-18.2h17.53V652h4.36v-18.2h17.53V652h4.36v-18.2H874V652h4.36v-18.2h17.53V652h4.36v-18.2h17.53V652h4.36v-18.2h17.53V652H944v-18.2h18.73v-4.37H944v-17.18h18.73v-4.36H944V590.7h18.73v-4.36H944v-17.18h18.73v-4.36H944v-17.19h18.73v-4.36H944v-17.19h18.73v-4.36H944v-17.18h18.73v-4.36H944V483h18.73v-4.36H944v-17.21h18.73v-4.37H944v-17.18h18.73v-4.36H944v-17.19h18.72Zm-45 0v17.19H900.2v-17.19h17.52ZM808.28 521.7h-17.53v-17.18h17.53v17.18Zm4.36-17.18h17.53v17.18h-17.53v-17.18Zm-26.26 17.18h-17.52v-17.18h17.52v17.18Zm-21.89 0H747v-17.18h17.53l-.04 17.18Zm-21.89 0h-17.53v-17.18h17.53v17.18Zm-21.89 0h-17.53v-17.18h17.53v17.18Zm-21.89 0h-17.53v-17.18h17.53v17.18Zm-21.89 0H659.4v-17.18h17.53v17.18Zm-21.89 0h-17.53v-17.18H655l.04 17.18Zm-21.9 0h-17.52v-17.18h17.52v17.18Zm0 4.36v17.19h-17.52v-17.19h17.52Zm4.37 0H655v17.19h-17.49v-17.19Zm21.89 0h17.53v17.19H659.4v-17.19Zm21.89 0h17.53v17.19h-17.53v-17.19Zm21.89 0h17.53v17.19h-17.53v-17.19Zm21.89 0h17.53v17.19h-17.53v-17.19Zm21.89 0h17.53v17.19H747l-.04-17.19Zm21.9 0h17.52v17.19h-17.52v-17.19Zm21.89 0h17.53v17.19h-17.53v-17.19Zm21.89 0h17.53v17.19h-17.53v-17.19Zm21.89 0h17.53v17.19h-17.53v-17.19Zm0-4.36v-17.18h17.53v17.18h-17.53Zm0-21.54V483h17.53v17.19l-17.53-.03Zm-4.36 0h-17.53V483h17.53v17.16Zm-21.89 0h-17.53V483h17.53v17.16Zm-21.9 0h-17.52V483h17.52v17.16Zm-21.89 0H747V483h17.53l-.04 17.16Zm-21.89 0h-17.53V483h17.53v17.16Zm-21.89 0h-17.53V483h17.53v17.16Zm-21.89 0h-17.53V483h17.53v17.16Zm-21.89 0H659.4V483h17.53v17.16Zm-21.89 0h-17.53V483H655l.04 17.16Zm-21.9 0h-17.52V483h17.52v17.16Zm-21.89 0h-17.52V483h17.52v17.16Zm0 4.36v17.18h-17.52v-17.18h17.52Zm0 21.54v17.19h-17.52v-17.19h17.52Zm0 21.55v17.19h-17.52v-17.19h17.52Zm4.37 0h17.52v17.19h-17.52v-17.19Zm21.89 0H655v17.19h-17.49v-17.19Zm21.89 0h17.53v17.19H659.4v-17.19Zm21.89 0h17.53v17.19h-17.53v-17.19Zm21.89 0h17.53v17.19h-17.53v-17.19Zm21.89 0h17.53v17.19h-17.53v-17.19Zm21.89 0h17.53v17.19H747l-.04-17.19Zm21.9 0h17.52v17.19h-17.52v-17.19Zm21.89 0h17.53v17.19h-17.53v-17.19Zm21.89 0h17.53v17.19h-17.53v-17.19Zm21.89 0h17.53v17.19h-17.53v-17.19Zm21.89 0H874v17.19h-17.58v-17.19Zm0-4.36v-17.19H874v17.19h-17.58Zm0-21.55v-17.18H874v17.18h-17.58Zm0-21.54V483H874v17.19l-17.58-.03Zm0-21.55v-17.18H874v17.18h-17.58Zm-4.36 0h-17.53v-17.18h17.53v17.18Zm-21.89 0h-17.53v-17.18h17.53v17.18Zm-21.89 0h-17.53v-17.18h17.53v17.18Zm-21.9 0h-17.52v-17.18h17.52v17.18Zm-21.89 0H747v-17.18h17.53l-.04 17.18Zm-21.89 0h-17.53v-17.18h17.53v17.18Zm-21.89 0h-17.53v-17.18h17.53v17.18Zm-21.89 0h-17.53v-17.18h17.53v17.18Zm-21.89 0H659.4v-17.18h17.53v17.18Zm-21.89 0h-17.53v-17.18H655l.04 17.18Zm-21.9 0h-17.52v-17.18h17.52v17.18Zm-21.89 0h-17.52v-17.18h17.52v17.18Zm-21.89 0h-17.53v-17.18h17.53v17.18Zm0 4.36v17.19h-17.53V483l17.53-.03Zm0 21.55v17.18h-17.53v-17.18h17.53Zm0 21.54v17.19h-17.53v-17.19h17.53Zm0 21.55v17.19h-17.53v-17.19h17.53Zm0 21.55v17.18h-17.53v-17.18h17.53Zm4.37 0h17.52v17.18h-17.52v-17.18Zm21.89 0h17.52v17.18h-17.52v-17.18Zm21.89 0H655v17.18h-17.49v-17.18Zm21.89 0h17.53v17.18H659.4v-17.18Zm21.89 0h17.53v17.18h-17.53v-17.18Zm21.89 0h17.53v17.18h-17.53v-17.18Zm21.89 0h17.53v17.18h-17.53v-17.18Zm21.89 0h17.53v17.18H747l-.04-17.18Zm21.9 0h17.52v17.18h-17.52v-17.18Zm21.89 0h17.53v17.18h-17.53v-17.18Zm21.89 0h17.53v17.18h-17.53v-17.18Zm21.89 0h17.53v17.18h-17.53v-17.18Zm21.89 0H874v17.18h-17.58v-17.18Zm21.89 0h17.53v17.18h-17.53v-17.18Zm0-4.36v-17.19h17.53v17.19h-17.53Zm0-21.55v-17.19h17.53v17.19h-17.53Zm0-21.55v-17.18h17.53v17.18h-17.53Zm0-21.54V483h17.53v17.19l-17.53-.03Zm0-21.55v-17.18h17.53v17.18h-17.53Zm0-21.55v-17.18h17.53v17.18h-17.53Zm-4.36 0h-17.53v-17.18H874l-.05 17.18Zm-21.89 0h-17.53v-17.18h17.53v17.18Zm-21.89 0h-17.53v-17.18h17.53v17.18Zm-21.89 0h-17.53v-17.18h17.53v17.18Zm-21.9 0h-17.52v-17.18h17.52v17.18Zm-21.89 0H747v-17.18h17.53l-.04 17.18Zm-21.89 0h-17.53v-17.18h17.53v17.18Zm-21.89 0h-17.53v-17.18h17.53v17.18Zm-21.89 0h-17.53v-17.18h17.53v17.18Zm-21.89 0H659.4v-17.18h17.53v17.18Zm-21.89 0h-17.53v-17.18H655l.04 17.18Zm-21.9 0h-17.52v-17.18h17.52v17.18Zm-21.89 0h-17.52v-17.18h17.52v17.18Zm-21.89 0h-17.53v-17.18h17.53v17.18Zm-21.89 0h-17.53v-17.18h17.53v17.18Zm0 4.37v17.18h-17.53v-17.18h17.53Zm0 21.54v17.19h-17.53V483l17.53-.03Zm0 21.55v17.18h-17.53v-17.18h17.53Zm0 21.54v17.19h-17.53v-17.19h17.53Zm0 21.55v17.19h-17.53v-17.19h17.53Zm0 21.55v17.18h-17.53v-17.18h17.53Zm0 21.54v17.19h-17.53V590.7h17.53Zm4.36 0h17.53v17.19h-17.53V590.7Zm21.9 0h17.52v17.19h-17.52V590.7Zm21.89 0h17.52v17.19h-17.52V590.7Zm21.89 0H655v17.19h-17.49V590.7Zm21.89 0h17.53v17.19H659.4V590.7Zm21.89 0h17.53v17.19h-17.53V590.7Zm21.89 0h17.53v17.19h-17.53V590.7Zm21.89 0h17.53v17.19h-17.53V590.7Zm21.89 0h17.53v17.19H747l-.04-17.19Zm21.9 0h17.52v17.19h-17.52V590.7Zm21.89 0h17.53v17.19h-17.53V590.7Zm21.89 0h17.53v17.19h-17.53V590.7Zm21.89 0h17.53v17.19h-17.53V590.7Zm21.89 0H874v17.19h-17.58V590.7Zm21.89 0h17.53v17.19h-17.53V590.7Zm21.89 0h17.53v17.19H900.2V590.7Zm0-4.36v-17.18h17.53v17.18H900.2Zm0-21.54v-17.19h17.53v17.19H900.2Zm0-21.55v-17.19h17.53v17.19H900.2Zm0-21.55v-17.18h17.53v17.18H900.2Zm0-21.54V483h17.53v17.19l-17.53-.03Zm0-21.55v-17.18h17.53v17.18H900.2Zm0-21.55v-17.18h17.53v17.18H900.2Zm-4.36-38.73v17.19h-17.53v-17.19h17.53Zm-21.89 0v17.19h-17.53v-17.19h17.53Zm-21.89 0v17.19h-17.53v-17.19h17.53Zm-21.89 0v17.19h-17.53v-17.19h17.53Zm-21.89 0v17.19h-17.53v-17.19h17.53Zm-21.9 0v17.19h-17.52v-17.19h17.52Zm-21.89 0v17.19H747v-17.19h17.49Zm-21.89 0v17.19h-17.53v-17.19h17.53Zm-21.89 0v17.19h-17.53v-17.19h17.53Zm-21.89 0v17.19h-17.53v-17.19h17.53Zm-21.89 0v17.19H659.4v-17.19h17.53Zm-21.89 0v17.19h-17.53v-17.19h17.53Zm-21.9 0v17.19h-17.52v-17.19h17.52Zm-21.89 0v17.19h-17.52v-17.19h17.52Zm-21.89 0v17.19h-17.53v-17.19h17.53Zm-21.89 0v17.19h-17.53v-17.19h17.53Zm-39.42 0h17.53v17.19h-17.53v-17.19Zm0 21.55h17.53v17.18h-17.53v-17.18Zm0 21.55h17.53v17.18h-17.53v-17.18Zm0 21.54h17.53v17.19h-17.53v-17.19Zm0 21.55h17.53v17.18h-17.53v-17.18Zm0 21.54h17.53v17.19h-17.53v-17.19Zm0 21.55h17.53v17.19h-17.53v-17.19Zm0 21.55h17.53v17.18h-17.53v-17.18Zm0 21.54h17.53v17.19h-17.53V590.7Zm0 38.73v-17.18h17.53v17.18h-17.53Zm21.89 0v-17.18h17.53v17.18h-17.53Zm21.89 0v-17.18h17.53v17.18h-17.53Zm21.9 0v-17.18h17.52v17.18h-17.52Zm21.89 0v-17.18h17.52v17.18h-17.52Zm21.89 0v-17.18H655v17.18h-17.49Zm21.89 0v-17.18h17.53v17.18H659.4Zm21.89 0v-17.18h17.53v17.18h-17.53Zm21.89 0v-17.18h17.53v17.18h-17.53Zm21.89 0v-17.18h17.53v17.18h-17.53Zm21.89 0v-17.18h17.53v17.18h-17.53Zm21.9 0v-17.18h17.52v17.18h-17.52Zm21.89 0v-17.18h17.53v17.18h-17.53Zm21.89 0v-17.18h17.53v17.18h-17.53Zm21.89 0v-17.18h17.53v17.18h-17.53Zm21.89 0v-17.18H874v17.18h-17.58Zm21.89 0v-17.18h17.53v17.18h-17.53Zm21.89 0v-17.18h17.53v17.18H900.2Zm39.42 0h-17.53v-17.18h17.53v17.18Zm0-21.54h-17.53V590.7h17.53v17.19Zm0-21.55h-17.53v-17.18h17.53v17.18Zm0-21.54h-17.53v-17.19h17.53v17.19Zm0-21.55h-17.53v-17.19h17.53v17.19Zm0-21.55h-17.53v-17.18h17.53v17.18Zm0-21.54h-17.53V483h17.53v17.16Zm0-21.55h-17.53v-17.18h17.53v17.18Zm0-21.55h-17.53v-17.18h17.53v17.18Zm0-21.54h-17.53v-17.19h17.53v17.19Z" fill="#B2B6BB"/><path d="m579.008 578.621 73.85-127.91 73.85 127.91h-147.7Z" fill="#3F4249"/><path d="M704.54 497.751c7.578 0 13.72-6.143 13.72-13.72 0-7.578-6.142-13.72-13.72-13.72-7.577 0-13.72 6.142-13.72 13.72 0 7.577 6.143 13.72 13.72 13.72ZM621.798 475.061h-72.29v72.29h72.29v-72.29Z" class="change-color-in-svg" fill="#4D61FC" style="fill:#158566"/><path opacity=".7" d="M718.589 601.42a46.799 46.799 0 0 1-9.13-92.7 46.8 46.8 0 0 1 55.93 45.9 46.849 46.849 0 0 1-46.8 46.8Zm0-86.76a39.996 39.996 0 0 0-36.955 24.693 40 40 0 1 0 36.955-24.693Z" fill="#B2B6BB"/><path d="M882.879 490.529h-100.58a4.44 4.44 0 0 0 0 8.88h100.58a4.44 4.44 0 1 0 0-8.88ZM926.659 516.23h-144.36a4.44 4.44 0 0 0 0 8.88h144.36a4.44 4.44 0 1 0 0-8.88Z" fill="#868A91"/><path d="M829.719 547.609h-39.83c-5.44 0-9.85 4.41-9.85 9.85 0 5.44 4.41 9.85 9.85 9.85h39.83c5.44 0 9.85-4.41 9.85-9.85 0-5.44-4.41-9.85-9.85-9.85Z" class="change-color-in-svg" fill="#4D61FC" style="fill:#158566"/><path d="M581.078 389.73a192.085 192.085 0 0 1-52.23 131.93 167.756 167.756 0 0 1-9.63 9.57 192.867 192.867 0 0 1-51.46 34.2 190.77 190.77 0 0 1-23.18 8.73 186.788 186.788 0 0 1-17 4.34 193.224 193.224 0 0 1-39.35 4h-.09a192.295 192.295 0 0 1-31-2.51 186.88 186.88 0 0 1-23.9-5.46c-10.113-3-19.96-6.833-29.44-11.46a192.885 192.885 0 0 1-108.374-172.509A192.89 192.89 0 0 1 302.218 217.07a191.275 191.275 0 0 1 30.42-12.07l.53-.16c1.86-.55 3.73-1.08 5.62-1.57.27-.08.54-.16.82-.22 5.77-1.5 11.63-2.75 17.59-3.7a193.72 193.72 0 0 1 31.06-2.5c6.18 0 12.31.29 18.34.87 3.45.32 6.87.73 10.27 1.25a192.144 192.144 0 0 1 104.77 51.53c1.93 1.84 3.81 3.72 5.66 5.64.54.56 1.08 1.13 1.6 1.69 1.54 1.64 3.043 3.306 4.51 5a186.97 186.97 0 0 1 12.75 16.24c2.45 3.48 4.78 7 7 10.68a194.36 194.36 0 0 1 12.78 25c.59 1.4 1.16 2.8 1.72 4.22V319.12a192.018 192.018 0 0 1 9.19 30.58 193.727 193.727 0 0 1 4.23 40.03Z" fill="#B2B6BB"/><path d="M384.66 354.72c-30.4 32.13-76.61 37.76-103.24 12.57-26.63-25.19-23.54-71.64 6.86-103.77a95.165 95.165 0 0 1 17.59-14.64c28.68-18.52 63.77-18.63 85.65 2.06a56.216 56.216 0 0 1 9.67 12.11c15.49 26.17 9.49 64.17-16.53 91.67Z" fill="#000"/><path d="M371.287 238.701c-20.13-7-44.48-3.34-65.42 10.18 11.85 18.32 31.48 30.29 53.71 30.29a61.112 61.112 0 0 0 26-5.81c-4.81-11.54-9.53-23.11-14.29-34.66Z" class="change-color-in-svg" fill="#4D61FC" style="fill:#158566"/><path d="M417.499 208.229c0 34.64-25.93 62.71-57.92 62.71-31.99 0-57.93-28.07-57.93-62.71a66.4 66.4 0 0 1 7.59-31l.28-.51c9.71-18 27.53-30.35 48.05-31.11h2c.67 0 1.51 0 2.25.06 2.53.101 5.05.381 7.54.84 20.59 3.81 37.48 19.38 44.54 40.11.33 1 .64 1.91.92 2.89a67.159 67.159 0 0 1 2.68 18.72Z" fill="#000"/><path d="m544.66 338.12 7-32.82a2.778 2.778 0 0 0-1.78-3.2h-.08a6.791 6.791 0 0 0-8.43 3.43L537 314.7l7.66 23.42Z" fill="#956363"/><path opacity=".15" d="m544.66 338.12 7-32.82a2.778 2.778 0 0 0-1.78-3.2h-.08a6.791 6.791 0 0 0-8.43 3.43L537 314.7l7.66 23.42Z" fill="#000"/><path d="m567.559 319 23.79-23.69a2.787 2.787 0 0 1 3.66-.24l.07.05a6.804 6.804 0 0 1 1.67 8.95l-5.33 8.71-23.86 6.22Z" fill="#956363"/><path opacity=".15" d="m567.559 319 23.79-23.69a2.787 2.787 0 0 1 3.66-.24l.07.05a6.804 6.804 0 0 1 1.67 8.95l-5.33 8.71-23.86 6.22Z" fill="#000"/><path d="M653.081 163.32h-100.18c-14.139 0-25.6 11.462-25.6 25.6V289.1c0 14.139 11.461 25.6 25.6 25.6h100.18c14.138 0 25.6-11.461 25.6-25.6V188.92c0-14.138-11.462-25.6-25.6-25.6Z" class="change-color-in-svg" fill="#4D61FC" style="fill:#158566"/><path opacity=".15" d="M653.081 163.32h-100.18c-14.139 0-25.6 11.462-25.6 25.6V289.1c0 14.139 11.461 25.6 25.6 25.6h100.18c14.138 0 25.6-11.461 25.6-25.6V188.92c0-14.138-11.462-25.6-25.6-25.6Z" fill="#000"/><path d="M647.421 163.32h-100.18c-14.139 0-25.6 11.462-25.6 25.6V289.1c0 14.139 11.461 25.6 25.6 25.6h100.18c14.138 0 25.6-11.461 25.6-25.6V188.92c0-14.138-11.462-25.6-25.6-25.6Z" class="change-color-in-svg" fill="#4D61FC" style="fill:#158566"/><path d="M644.578 280.091c-1.621.024-3.241-.1-4.84-.37a3.918 3.918 0 0 1-.38-.11 5.423 5.423 0 0 1-2-1.16 24.795 24.795 0 0 1-2.84-5 225.09 225.09 0 0 1-3.64-7.84l-3.6-8.48-26.68-62.79-.3-.71h-4.11l-.3.71c-3.113 7.4-6.24 14.793-9.38 22.18l-17.2 39-6.64 14.42c-2.11 4.56-3.51 7.24-4.21 8.07a4.918 4.918 0 0 1-2.37 1.64 6.634 6.634 0 0 1-1.16.23c-1.08.13-2.68.22-4.78.25l-.57.5v3.29l.57.5c4.72-.333 9.387-.5 14-.5 4.087 0 8.85.167 14.29.5l.51-.5v-3.29l-.57-.5c-4.59 0-7.47-.32-8.61-.83a2.466 2.466 0 0 1-1.7-2.33c.237-2.22.856-4.382 1.83-6.39l6.9-16.2h36.62l7.77 19.3c.518 1.159.823 2.402.9 3.67a2.108 2.108 0 0 1-1.78 2.18 51.104 51.104 0 0 1-8.85.6l-.51.5v3.29l.51.5c6.993-.16 13.993-.347 21-.56 1.9 0 3.923.05 6.07.15 1.9.1 3.91.24 6 .41l.17-.17.33-.33v-3.29l-.45-.54Zm-65.58-31.19 16.13-38.13 15.87 38.13h-32Z" fill="#fff"/><path d="M650.428 199.001v-10.71h-10.69v4.64h-84.81v-4.64h-10.69v10.71h4.63v80.08h-4.63v10.68h10.69v-4.64h84.81v4.64h10.69v-10.71h-4.64v-80.05h4.64Zm-95.5 84.71v-4.63h-4.64v-80.08h4.64v-4.63h84.81v4.63h4.63v80.08h-4.63v4.63h-84.81Z" class="change-color-in-svg" fill="#4D61FC" style="fill:#158566"/><path opacity=".2" d="M650.428 199.001v-10.71h-10.69v4.64h-84.81v-4.64h-10.69v10.71h4.63v80.08h-4.63v10.68h10.69v-4.64h84.81v4.64h10.69v-10.71h-4.64v-80.05h4.64Zm-95.5 84.71v-4.63h-4.64v-80.08h4.64v-4.63h84.81v4.63h4.63v80.08h-4.63v4.63h-84.81Z" fill="#000"/><path d="m403.94 290.219 20.48 52.25c-12.37 18.55-71.31 10.84-87-12.36l-18.94-44.06 4.36-1.2a9.994 9.994 0 0 0 7.43-9.41l4.16-48.91 51.77-7 1.72 40 .88 19.9a10.052 10.052 0 0 0 7.31 8.57l7.83 2.22Z" fill="#956363"/><path d="m373.43 271.781-2.71.08a35.462 35.462 0 0 1-36.53-34.34l-1.54-49.71a11.837 11.837 0 0 1 6.963-11.15 11.82 11.82 0 0 1 4.497-1.04l46.39-1.43a15.36 15.36 0 0 1 15.83 14.88l1.43 46.18a35.435 35.435 0 0 1-34.33 36.53Z" fill="#956363"/><path d="M370.428 222.13a3.85 3.85 0 1 0 0-7.7 3.85 3.85 0 0 0 0 7.7Z" fill="#21252B"/><path d="M372.65 219.849a.83.83 0 1 0 .002-1.658.83.83 0 0 0-.002 1.658Z" fill="#fff"/><path d="M400.069 221.671a3.85 3.85 0 1 0 0-7.7 3.85 3.85 0 0 0 0 7.7Z" fill="#21252B"/><path d="M402.017 219.551a.83.83 0 1 0 0-1.661.83.83 0 0 0 0 1.661Z" fill="#fff"/><path opacity=".3" d="m385.998 239.999-5.2.33a1.12 1.12 0 0 1-.14-2.23l5.19-.33a2.36 2.36 0 0 0-.31-4.7 1.12 1.12 0 0 1-.14-2.23 4.59 4.59 0 0 1 .6 9.16Z" fill="#000"/><path d="M336.79 239.55s-16.78 2.56-21.56-13.89c-4.78-16.45 15.7-21 19.86-4.42l3.61 18.19-1.91.12Z" fill="#956363"/><path opacity=".3" d="M319.789 216.41a6.612 6.612 0 0 1 5-1.73 6.486 6.486 0 0 1 4.32 3 13.108 13.108 0 0 1 2.39 6.36l.21 1.81c.19 1.32-2.09 1.89-2.24.34l-.26-2a12.99 12.99 0 0 0-1.88-5.28 3.727 3.727 0 0 0-4.695-1.855 3.734 3.734 0 0 0-1.495 1.055 1.092 1.092 0 0 1-.833.305 1.112 1.112 0 0 1-.787-.41 1.101 1.101 0 0 1 .25-1.605l.02.01Z" fill="#000"/><path d="M417.768 221a15.408 15.408 0 0 0-10.87-13.71 15.016 15.016 0 0 0-5.5-.65 15.402 15.402 0 0 0-11.59 6.53 14.125 14.125 0 0 0-9.53 0 15.388 15.388 0 0 0-25.95-.967 15.395 15.395 0 0 0-2.69 9.747c.043.751.147 1.496.31 2.23a15.387 15.387 0 0 0 6.2 9.345 15.387 15.387 0 0 0 24.21-13.435.752.752 0 0 0 0-.15 15.045 15.045 0 0 0-1.2-5 12.5 12.5 0 0 1 7.62 0 15.268 15.268 0 0 0-1.78 8.06 15.407 15.407 0 0 0 5.212 10.604 15.422 15.422 0 0 0 11.188 3.796 15.158 15.158 0 0 0 4.39-1 15.397 15.397 0 0 0 10-15.42l-.02.02Zm-49.89 13.32a13.473 13.473 0 0 1-14.31-12.54 13.43 13.43 0 0 1 12.53-14.28 13.423 13.423 0 0 1 9.736 3.308 13.42 13.42 0 0 1 4.544 9.222c.005.093.005.187 0 .28a13.446 13.446 0 0 1-12.5 14.04v-.03Zm46.91-7.14a13.396 13.396 0 0 1-7.05 7.15c-1.409.627-2.92.993-4.46 1.08a13.43 13.43 0 1 1 12.53-14.28 15.37 15.37 0 0 1 0 2.37 13.045 13.045 0 0 1-1.02 3.71v-.03ZM331.831 237.301a3.37 3.37 0 1 0 0-6.74 3.37 3.37 0 0 0 0 6.74Z" fill="#fff"/><path opacity=".15" d="M333.161 236.689a3.655 3.655 0 0 1-3.88-3.41 3.55 3.55 0 0 1 .44-2 3.36 3.36 0 1 0 4.21 5.24 3.999 3.999 0 0 1-.77.17ZM333.481 239.67h5.47l-6.24 10.91.77-10.91ZM349.511 267.16a42.256 42.256 0 0 0 16.23 5.43 31 31 0 0 0 18.57 6.59 11.508 11.508 0 0 0 4.4-.63l-.46-10.55-1 .43c-4.47 1.84-9.22 2.23-14.48 2.4-1.45 0-2.87 0-4.28-.07-.56 0-1.09-.06-1.62-.13-.12.015-.241.015-.36 0-.85-.1-1.68-.23-2.47-.36l-1-.2a39.08 39.08 0 0 1-12.47-4.68.997.997 0 0 0-1.157.057.98.98 0 0 0-.263.313.986.986 0 0 0-.119.777.99.99 0 0 0 .479.623Z" fill="#000"/><path d="M388.847 246.061a.664.664 0 0 1 .569.338.664.664 0 0 1 .001.662 10.93 10.93 0 0 1-19.76-.25.677.677 0 0 1 .261-.918.67.67 0 0 1 .339-.082l18.59.25Z" fill="#fff"/><path d="M628.9 288a3.063 3.063 0 0 0-3.5 2.12l-5.27 17.45a3.181 3.181 0 0 1-2.77 2.23l-37.31 3.13a18.576 18.576 0 0 0-16.41 13.83l-4.3 16.24 29.94 11.41 3.17-10.45a4.757 4.757 0 0 1 3.54-3.26l25.64-5.53a12.507 12.507 0 0 0 7.47-4.87l25-33.77a3.001 3.001 0 0 0-.66-4.13 3.007 3.007 0 0 0-2.005-.522c-.709.07-1.37.39-1.865.902l-11 11.92 6.08-19.21a3.102 3.102 0 0 0-2.08-3.84 3.09 3.09 0 0 0-3.72 1.72l-11.57 26.83 4-18.55a3.07 3.07 0 0 0-.427-2.322A3.055 3.055 0 0 0 628.9 288Z" fill="#956363"/><path opacity=".15" d="M637.818 311.191a.92.92 0 0 0 .88-.65l2.06-7a.915.915 0 0 0-.27-1.029.907.907 0 0 0-.331-.177.909.909 0 0 0-.729.09.93.93 0 0 0-.43.595l-2.06 7a.898.898 0 0 0 .071.7.915.915 0 0 0 .549.441c.085.02.172.03.26.03Z" fill="#000"/><path d="m591.419 348.93-26.08 163.53a28.738 28.738 0 0 1-5.39 12.9 24.816 24.816 0 0 1-2.58 3 29.309 29.309 0 0 1-15.18 8.07c-1.937.38-3.906.571-5.88.57a28.877 28.877 0 0 1-5.92-.64l-.75-.17c-.75-.18-1.49-.39-2.22-.64l-1.42-.55-.74-.31c-.72-.3-1.42-.63-2.12-1-.61-.32-1.21-.67-1.81-1l-.52-.34-1.07-.74-.49-.36a25.786 25.786 0 0 1-2.08-1.74 28.526 28.526 0 0 1-3-3.13l-47.89-58.23-6.19-7.53 1.16 15.93 6.5 88.9a190.77 190.77 0 0 1-23.18 8.73 186.46 186.46 0 0 1-17 4.34 193.224 193.224 0 0 1-39.35 4h-.09l9.87-61.61 3.68-23 2.35-14.69 2.44-15.25 7.35-46 10.18-63.43.26-1.65-3.07-10.89-8-28.36-4.68-9.53-9.29-18.94 1.83.41 2.25.5 6.2 1.38 14.36 3.2a35.069 35.069 0 0 1 12.962 5.816 35.068 35.068 0 0 1 9.588 10.484l31.76 53.29 15.87 26.64 9.22 15.45.82 1.38 22.44 37.66 32.48-105.32 1.08.29 15.75 4.3 15.17 4.15.42.13Z" fill="#414042"/><path opacity=".2" d="M457.201 429.35a2.43 2.43 0 0 1 4.41-1.61l61.65 88.65c10.37 12.6 27.26 13.38 38.87 5.57-9.3 17.09-34.29 21-48 4.4l-54.03-65.76-2.9-31.25Z" fill="#000"/><path d="M438.251 435.57a29.74 29.74 0 0 0-2.64 14.55l1.24 17.17 2.51 34.7 5.22 72.17a186.872 186.872 0 0 1-17 4.34 193.231 193.231 0 0 1-39.35 4h-.09a192.286 192.286 0 0 1-31-2.51 186.88 186.88 0 0 1-23.9-5.46l-19.06-146.91-6-46.2-.17-1.29-6.53-50.31-4-30.73-.84-6.46v-.14l6-1.78 14-4.19h.05l5.34-1.59v.13c11.34 39.83 48.27 61.57 73 56.65l1.19-.26c11.81-2.81 13.69-12.7 11.9-23.23-.21-1.2-.46-2.42-.75-3.63 0-.13-.07-.26-.1-.38s0-.05 0-.08c-.16-.65-.34-1.29-.51-1.94l-.45-1.51a29.02 29.02 0 0 1-.24-.78c-.17-.51-.33-1-.51-1.53s-.34-1-.52-1.52-.36-1-.55-1.5c-.19-.5-.37-1-.56-1.45-.28-.71-.56-1.41-.85-2.09-.1-.25-.21-.49-.31-.73-.39-.91-.78-1.79-1.16-2.63-.12-.26-.24-.5-.34-.75-.1-.25-.34-.71-.5-1.05v-.05c-.37-.79-.74-1.54-1.09-2.24a.558.558 0 0 1-.06-.14c-.17-.3-.32-.59-.45-.88l-.43-.81a.753.753 0 0 0-.07-.12c-.39-.75-.75-1.42-1.06-2-.09-.2-.2-.38-.3-.56-.53-.95-.89-1.56-1-1.73l4.73 1.27.05.1.08.14 8.06 14.25.41.71 35.24 62.41a59.164 59.164 0 0 1 1.12 51.59l-7.75 16.98Z" class="change-color-in-svg" fill="#4D61FC" style="fill:#158566"/><path opacity=".15" d="M438.248 435.57a29.741 29.741 0 0 0-2.64 14.55l1.24 17.17 2.51 34.7 5.22 72.17a186.46 186.46 0 0 1-17 4.34l-1.52-23.79a37.295 37.295 0 0 0-8.186-21.029 37.291 37.291 0 0 0-18.814-12.461l-1.08-.31-46.88-13.36-6.77-1.94-7.07-59.43-.84-7.09 8 5.84 58.24 42.34 1.31-4.08 4.35-13.54 15-46.68 4.49-14a65.65 65.65 0 0 0-1.42-44.17l-2.39-6.26-4.48-11.36-11.41-29c-.21-1.2-.46-2.42-.75-3.63 0-.14-.07-.28-.09-.4a.152.152 0 0 1 0-.06c-.16-.65-.34-1.29-.51-1.94-.17-.65-.29-1-.45-1.51a29.02 29.02 0 0 1-.24-.78c-.16-.51-.32-1-.51-1.53s-.34-1-.52-1.52-.36-1-.55-1.5c-.19-.5-.37-1-.56-1.45-.28-.71-.56-1.41-.85-2.09-.1-.25-.21-.49-.31-.73-.39-.91-.77-1.79-1.16-2.63-.12-.26-.24-.5-.34-.75-.1-.25-.33-.71-.5-1.05v-.05c-.37-.79-.74-1.54-1.09-2.24a.597.597 0 0 1-.06-.14c-.16-.3-.31-.59-.45-.88l-.43-.81a.8.8 0 0 0-.07-.12c-.38-.75-.74-1.42-1.06-2-.09-.2-.2-.38-.3-.56-.53-.95-.89-1.56-1-1.73l4.73 1.27.05.1.08.14 8.06 14.25.41.71 35.24 62.45a59.165 59.165 0 0 1 1.12 51.59l-7.75 16.98Z" fill="#000"/><path opacity=".06" d="m526.559 445.369-.87 20.67-21.58-58.35 22.45 37.68Z" fill="#000"/><path d="M332.647 219.539c0 1.928 1.56 3.49 3.485 3.49a3.487 3.487 0 0 0 3.485-3.49v-18.11c0-1.927-1.56-3.49-3.485-3.49a3.488 3.488 0 0 0-3.485 3.49v18.11Z" fill="#000"/><path d="M357.148 580.001a186.958 186.958 0 0 1-23.9-5.46c-10.113-3-19.96-6.833-29.44-11.46a193.429 193.429 0 0 1-29.87-18.08l-27.94-193.63a48.434 48.434 0 0 1 33-53l2.23-.72 15.39-5 5.95-1.92 13.9-4.51c.019.106.049.21.09.31 0 .14.1.32.18.56 1.32 4.29 7.25 24.62 14.7 67.35 1.447 8.266 2.944 17.4 4.49 27.4 1.26 8.28 2.55 17.173 3.87 26.68 1.54 11.24 3.09 23.38 4.65 36.42.3 2.55.61 5.14.91 7.76 1.94 16.793 3.85 35.08 5.73 54.86 2.134 22.166 4.154 46.313 6.06 72.44Z" fill="#414042"/><path d="M537.549 269.741a3.06 3.06 0 0 1 .11 4.09l-11.81 13.88a3.172 3.172 0 0 0-.38 3.54l17.58 33.06a18.554 18.554 0 0 1-2.75 21.28L529 358.001l-25.81-19 7.06-8.32a4.732 4.732 0 0 0 .829-4.74l-9.239-24.55a12.51 12.51 0 0 1 .05-8.92l14.829-39.35a3.003 3.003 0 0 1 3.82-1.68 2.94 2.94 0 0 1 1.781 3.46l-4 15.74 12.849-15.51a3.102 3.102 0 0 1 4.361-.33 3.089 3.089 0 0 1 .56 4.06l-16.291 24.25 13.42-13.43a3.065 3.065 0 0 1 3.347-.618c.369.159.703.389.983.678Z" fill="#956363"/><path opacity=".15" d="M513.189 274.83a.918.918 0 0 1 .08-1.1l4.73-5.5a.915.915 0 0 1 1.39 1.19l-4.731 5.51a.929.929 0 0 1-1.299.1 1.047 1.047 0 0 1-.17-.2Z" fill="#000"/><path d="m248.7 353.281 5.21 26 147.69 118.52a35.405 35.405 0 0 0 42.29 1.538 35.397 35.397 0 0 0 10.26-10.948c29.65-49.39 80.41-134.21 80.85-135.56.24-.67-2.82-3.63-6.91-7.19l-.12-.1c-7.51-6.55-18.34-15.06-18.34-15.06l-89.87 96.37-120-98.39-18.55-30.83a48.48 48.48 0 0 0-32.58 55.65h.07Z" fill="#414042"/><path opacity=".2" d="M534.998 352.841c-.25.7-14.22 24.17-31.74 53.47-8.28 13.87-17.36 29-26.17 43.74-3.68 6.16-7.31 12.23-10.83 18.08-1.7 2.86-3.366 5.66-5 8.4l-7.11 11.86a35.404 35.404 0 0 1-24.066 16.646 35.416 35.416 0 0 1-14.961-.509 35.423 35.423 0 0 1-13.513-6.727l-56.19-45.11-8.11-6.51-23.13-18.56-41.8-33.57a5.24 5.24 0 0 0-8.35 5.3v.14l39.78 163.63a193.438 193.438 0 0 1-29.87-18.12l-27.94-193.63a48.434 48.434 0 0 1 33-53l2.23-.72 15.39-5 5.95-1.92 13.9-4.51c.031.106.078.208.14.3.06.13.14.29.23.5l-.1.07-19.29 12-9.36 5.91-.38.23c-.46.29-.9.59-1.34.9-17.44 12.26-18.88 37.9-2.77 52.27l24.4 21.73 1.85 1.65 30 26.73 66.64 59.43 1.91 1.71 1.53 1.36a17.811 17.811 0 0 0 20.605 2.206 17.794 17.794 0 0 0 5.495-4.836l.81-1.09 21.24-28.36 5.92-7.83 30.11-40.24 28.27-37.75 5.67-7.57.11.11a55.507 55.507 0 0 1 6.46 6.22c.32.46.47.79.38.97Z" fill="#000"/><path d="M373.998 170.941a34.286 34.286 0 0 1-.39 5.1 32.52 32.52 0 0 1-64.12.63c9.71-18 27.53-30.35 48.05-31.11h2c.67 0 1.51 0 2.25.06a31.142 31.142 0 0 1 6.21 6.38 32.242 32.242 0 0 1 6 18.94Z" fill="#000"/><path d="M413.929 186.531a32.528 32.528 0 0 1-42.341-13.758 32.528 32.528 0 0 1-4.029-15.662 32.76 32.76 0 0 1 .44-5.11c.301-1.91.777-3.787 1.42-5.61 20.58 3.84 37.45 19.41 44.51 40.14Z" fill="#000"/><path d="M453.17 867.581c63.983 0 115.85-51.868 115.85-115.85 0-63.982-51.867-115.85-115.85-115.85-63.982 0-115.85 51.868-115.85 115.85 0 63.982 51.868 115.85 115.85 115.85Z" fill="#B2B6BB"/><path d="M562.949 774.881v50.1a10.309 10.309 0 0 1-3.002 7.309 10.298 10.298 0 0 1-7.298 3.031h-143a35.347 35.347 0 0 1-35.35-35.35 35.347 35.347 0 0 1 35.35-35.35h143a10.297 10.297 0 0 1 10.3 10.3v-.04Z" fill="#000"/><path d="M562.949 772.01v50.1a10.305 10.305 0 0 1-6.335 9.546c-1.25.522-2.591.791-3.945.794h-143a35.347 35.347 0 0 1-35.35-35.35 35.347 35.347 0 0 1 35.35-35.35h143a10.3 10.3 0 0 1 10.3 10.3l-.02-.04Z" fill="#3F4249"/><path d="M454.898 771.41v53.11h-17.43a5.5 5.5 0 0 1-5.5-5.5v-42.11a5.502 5.502 0 0 1 5.5-5.5h17.43Z" class="change-color-in-svg" fill="#4D61FC" style="fill:#158566"/><path d="M477.828 824.49v-53.07h-22.93v53.07h22.93ZM500.77 824.49v-53.07h-22.93v53.07h22.93Z" class="change-color-in-svg" fill="#4D61FC" style="fill:#158566"/><path d="M523.699 824.49v-53.07h-22.93v53.07h22.93ZM546.641 776.92v42.07a5.5 5.5 0 0 1-5.5 5.5h-17.43v-53.07h17.41a5.5 5.5 0 0 1 5.52 5.5Z" class="change-color-in-svg" fill="#4D61FC" style="fill:#158566"/><path opacity=".15" d="M541.131 771.42h-103.67a5.496 5.496 0 0 0-5.5 5.5V819a5.496 5.496 0 0 0 5.5 5.5h103.67a5.5 5.5 0 0 0 5.5-5.5v-42.08a5.496 5.496 0 0 0-5.5-5.5Z" fill="#000"/><path opacity=".2" d="M477.828 824.49v-53.07h-22.93v53.07h22.93Z" fill="#fff"/><path opacity=".4" d="M500.77 824.49v-53.07h-22.93v53.07h22.93Z" fill="#fff"/><path opacity=".6" d="M523.699 824.49v-53.07h-22.93v53.07h22.93Z" fill="#fff"/><path opacity=".8" d="M546.641 776.92v42.07a5.5 5.5 0 0 1-5.5 5.5h-17.43v-53.07h17.41a5.5 5.5 0 0 1 5.52 5.5Z" fill="#fff"/><path d="M404.139 811.05c7.235 0 13.1-5.865 13.1-13.1 0-7.235-5.865-13.1-13.1-13.1-7.235 0-13.1 5.865-13.1 13.1 0 7.235 5.865 13.1 13.1 13.1Z" fill="#B2B6BB"/><path d="M404.138 805.08a7.13 7.13 0 1 0 0-14.26 7.13 7.13 0 0 0 0 14.26Z" fill="#61656D"/><path d="m500.127 669.342 35.426 35.426a10.297 10.297 0 0 1 0 14.566L434.437 820.451a35.352 35.352 0 0 1-49.993 0 35.353 35.353 0 0 1 0-49.993l101.117-101.116a10.297 10.297 0 0 1 14.566 0Z" fill="#000"/><path d="m498.057 667.279 35.426 35.426a10.304 10.304 0 0 1 0 14.567L432.366 818.388a35.35 35.35 0 0 1-49.992 0 35.351 35.351 0 0 1 0-49.992L483.49 667.279a10.304 10.304 0 0 1 14.567 0Z" fill="#3F4249"/><path d="m421.27 743.297 37.526 37.526-12.325 12.325a5.5 5.5 0 0 1-7.778 0L408.945 763.4a5.498 5.498 0 0 1 0-7.778l12.325-12.325Z" fill="#61656D"/><path d="m475.003 764.612-37.526-37.526-16.214 16.214 37.526 37.526 16.214-16.214ZM491.221 748.391l-37.526-37.526-16.214 16.214 37.527 37.526 16.213-16.214ZM507.448 732.173l-37.526-37.527-16.214 16.214 37.526 37.527 16.214-16.214Z" fill="#61656D"/><path d="m490.022 682.319 29.748 29.748a5.5 5.5 0 0 1 0 7.778l-12.325 12.325-37.526-37.526 12.325-12.325a5.496 5.496 0 0 1 7.778 0Z" fill="#61656D"/><path opacity=".2" d="m475.003 764.612-37.526-37.526-16.214 16.214 37.526 37.526 16.214-16.214Z" fill="#fff"/><path opacity=".4" d="m491.221 748.391-37.526-37.526-16.214 16.214 37.527 37.526 16.213-16.214Z" fill="#fff"/><path opacity=".6" d="m507.448 732.173-37.526-37.527-16.214 16.214 37.526 37.527 16.214-16.214Z" fill="#fff"/><path opacity=".8" d="m490.022 682.319 29.748 29.748a5.5 5.5 0 0 1 0 7.778l-12.325 12.325-37.526-37.526 12.325-12.325a5.496 5.496 0 0 1 7.778 0Z" fill="#fff"/><path d="M404.139 811.05c7.235 0 13.1-5.865 13.1-13.1 0-7.235-5.865-13.1-13.1-13.1-7.235 0-13.1 5.865-13.1 13.1 0 7.235 5.865 13.1 13.1 13.1Z" fill="#B2B6BB"/><path d="M404.138 805.08a7.13 7.13 0 1 0 0-14.26 7.13 7.13 0 0 0 0 14.26Z" fill="#61656D"/><path d="M381.07 639.141h50.1c2.731 0 5.351 1.085 7.283 3.016a10.305 10.305 0 0 1 3.017 7.284v143a35.353 35.353 0 0 1-35.35 35.35 35.352 35.352 0 0 1-35.35-35.35v-143c0-2.732 1.085-5.352 3.016-7.284a10.304 10.304 0 0 1 7.284-3.016Z" fill="#000"/><path d="M378.198 639.141h50.1c2.732 0 5.352 1.085 7.284 3.016a10.304 10.304 0 0 1 3.016 7.284v143a35.352 35.352 0 0 1-35.35 35.35 35.353 35.353 0 0 1-35.35-35.35v-143c0-2.732 1.086-5.352 3.017-7.284a10.303 10.303 0 0 1 7.283-3.016Z" class="change-color-in-svg" fill="#4D61FC" style="fill:#158566"/><path d="M378.198 639.141h50.1c2.732 0 5.352 1.085 7.284 3.016a10.304 10.304 0 0 1 3.016 7.284v143a35.352 35.352 0 0 1-35.35 35.35 35.353 35.353 0 0 1-35.35-35.35v-143c0-2.732 1.086-5.352 3.017-7.284a10.303 10.303 0 0 1 7.283-3.016Z" fill="#3F4249"/><path d="M377.598 747.199h53.07v17.43a5.5 5.5 0 0 1-5.5 5.5h-42.07a5.496 5.496 0 0 1-5.5-5.5v-17.43ZM430.668 724.26h-53.07v22.93h53.07v-22.93ZM430.668 701.33h-53.07v22.93h53.07v-22.93ZM430.668 678.391h-53.07v22.93h53.07v-22.93ZM383.098 655.461h42.07a5.5 5.5 0 0 1 5.5 5.5v17.43h-53.07v-17.39a5.504 5.504 0 0 1 3.386-5.118 5.497 5.497 0 0 1 2.114-.422Z" class="change-color-in-svg" fill="#4D61FC" style="fill:#158566"/><path opacity=".2" d="M430.668 724.26h-53.07v22.93h53.07v-22.93Z" fill="#fff"/><path opacity=".4" d="M430.668 701.33h-53.07v22.93h53.07v-22.93Z" fill="#fff"/><path opacity=".6" d="M430.668 678.391h-53.07v22.93h53.07v-22.93Z" fill="#fff"/><path opacity=".8" d="M383.098 655.461h42.07a5.5 5.5 0 0 1 5.5 5.5v17.43h-53.07v-17.39a5.504 5.504 0 0 1 3.386-5.118 5.497 5.497 0 0 1 2.114-.422Z" fill="#fff"/><path d="M404.139 811.05c7.235 0 13.1-5.865 13.1-13.1 0-7.235-5.865-13.1-13.1-13.1-7.235 0-13.1 5.865-13.1 13.1 0 7.235 5.865 13.1 13.1 13.1Z" fill="#000"/><path d="M404.138 805.08a7.13 7.13 0 1 0 0-14.26 7.13 7.13 0 0 0 0 14.26Z" fill="#3F4249"/><path d="M776.171 765.541h-100.18c-14.139 0-25.6 11.462-25.6 25.6v100.18c0 14.139 11.461 25.6 25.6 25.6h100.18c14.138 0 25.6-11.461 25.6-25.6v-100.18c0-14.138-11.462-25.6-25.6-25.6Z" class="change-color-in-svg" fill="#4D61FC" style="fill:#158566"/><path opacity=".15" d="M776.171 765.541h-100.18c-14.139 0-25.6 11.462-25.6 25.6v100.18c0 14.139 11.461 25.6 25.6 25.6h100.18c14.138 0 25.6-11.461 25.6-25.6v-100.18c0-14.138-11.462-25.6-25.6-25.6Z" fill="#000"/><path d="M770.51 765.541H670.331c-14.139 0-25.601 11.462-25.601 25.6v100.18c0 14.139 11.462 25.6 25.601 25.6H770.51c14.139 0 25.6-11.461 25.6-25.6v-100.18c0-14.138-11.461-25.6-25.6-25.6Z" class="change-color-in-svg" fill="#4D61FC" style="fill:#158566"/><path d="M765.518 801.84h-88.22a.72.72 0 0 1 0-1.44h88.22a.72.72 0 0 1 0 1.44ZM725.048 814.09h-7.18c-3.81 19.18-12.93 37.92-25.72 50.42l12.5 19.4h33.62l12.49-19.4c-12.76-12.51-21.9-31.24-25.71-50.42Zm-3.59 56.24a7.998 7.998 0 0 1-7.846-9.561 8.002 8.002 0 0 1 14.498-2.884 8.003 8.003 0 0 1-.995 10.102 8 8 0 0 1-5.657 2.343Z" fill="#fff"/><path d="M722.498 814.09h-2.08v33.46h2.08v-33.46ZM737.978 883.91h-33.33v8.04h33.33v-8.04Z" class="change-color-in-svg" fill="#4D61FC" style="fill:#158566"/><path d="M765.517 842.761a.716.716 0 0 1-.485-.19.717.717 0 0 1-.225-.47 43.338 43.338 0 0 0-38.63-40.27.714.714 0 0 1 .161-1.42 44.89 44.89 0 0 1 39.899 41.59.723.723 0 0 1-.178.518.723.723 0 0 1-.492.242h-.05ZM677.399 842.77a.717.717 0 0 1-.498-.236.697.697 0 0 1-.172-.524 44.998 44.998 0 0 1 39.9-41.58.712.712 0 0 1 .79.63.716.716 0 0 1-.63.79 43.391 43.391 0 0 0-38.63 40.26.728.728 0 0 1-.76.66Z" fill="#fff"/><path d="M716.66 806.241h9.6V796.641h-9.6V806.241ZM672.5 806.241h9.6V796.641h-9.6V806.241ZM760.82 806.241h9.6V796.641h-9.6V806.241ZM760.818 851.65h9.6v-9.6h-9.6v9.6ZM672.49 851.65h9.6v-9.6h-9.6v9.6Z" class="change-color-in-svg" fill="#4D61FC" style="fill:#158566"/><path opacity=".2" d="M722.498 814.09h-2.08v33.46h2.08v-33.46ZM737.978 883.91h-33.33v8.04h33.33v-8.04ZM716.66 806.241h9.6V796.641h-9.6V806.241ZM672.5 806.241h9.6V796.641h-9.6V806.241ZM760.82 806.241h9.6V796.641h-9.6V806.241ZM760.822 851.65h9.6v-9.6h-9.6v9.6ZM672.49 851.65h9.6v-9.6h-9.6v9.6Z" fill="#000"/><path d="M1144.25 271.609h-100.18c-14.14 0-25.6 11.462-25.6 25.6v100.18c0 14.139 11.46 25.6 25.6 25.6h100.18c14.14 0 25.6-11.461 25.6-25.6v-100.18c0-14.138-11.46-25.6-25.6-25.6Z" class="change-color-in-svg" fill="#4D61FC" style="fill:#158566"/><path opacity=".15" d="M1144.25 271.609h-100.18c-14.14 0-25.6 11.462-25.6 25.6v100.18c0 14.139 11.46 25.6 25.6 25.6h100.18c14.14 0 25.6-11.461 25.6-25.6v-100.18c0-14.138-11.46-25.6-25.6-25.6Z" fill="#000"/><path d="M1138.59 271.609h-100.18c-14.14 0-25.6 11.462-25.6 25.6v100.18c0 14.139 11.46 25.6 25.6 25.6h100.18c14.14 0 25.6-11.461 25.6-25.6v-100.18c0-14.138-11.46-25.6-25.6-25.6Z" class="change-color-in-svg" fill="#4D61FC" style="fill:#158566"/><path opacity=".8" d="M1113.39 359.5c16.27 0 29.46-13.19 29.46-29.46 0-16.27-13.19-29.46-29.46-29.46-16.27 0-29.46 13.19-29.46 29.46 0 16.27 13.19 29.46 29.46 29.46Z" fill="#fff"/><path opacity=".42" d="M1069.29 358.33c16.27 0 29.46-13.19 29.46-29.46 0-16.27-13.19-29.46-29.46-29.46-16.27 0-29.46 13.19-29.46 29.46 0 16.27 13.19 29.46 29.46 29.46Z" fill="#fff"/><path d="M1096.43 317.41a29.258 29.258 0 0 0-4.57-7.48 29.41 29.41 0 0 0-7.89 19.31 29.475 29.475 0 0 0 6.89 19.69 29.458 29.458 0 0 0 5.57-31.52Z" class="change-color-in-svg" fill="#4D61FC" style="fill:#158566"/><path d="M1119.33 372.677c2.78-16.031-7.96-31.282-23.99-34.066-16.03-2.783-31.28 7.956-34.07 23.986-2.78 16.031 7.96 31.282 23.99 34.066 16.03 2.783 31.28-7.956 34.07-23.986Z" fill="#fff"/><path d="M1118.49 359.061a29.39 29.39 0 0 0-12.77-16.524 29.415 29.415 0 0 0-20.51-3.896 29.473 29.473 0 0 0 12.77 16.518 29.455 29.455 0 0 0 20.51 3.902Z" class="change-color-in-svg" fill="#4D61FC" style="fill:#158566"/><path d="M1066.83 349.87a28.993 28.993 0 0 0-4.2 7.69 29.436 29.436 0 0 0 20.71-2.756A29.446 29.446 0 0 0 1097 339a29.448 29.448 0 0 0-16.7.965 29.446 29.446 0 0 0-13.47 9.905Z" class="change-color-in-svg" fill="#4D61FC" style="fill:#158566"/><path d="M1090.82 349.001a29.299 29.299 0 0 0 6.14-10c-.23-.06-.46-.1-.7-.15l-.4-.08-.75-.14-.52-.08-.72-.09c-.36-.05-.72-.08-1.08-.11l-.63-.05h-2.83l-1 .05h-.45c-.35 0-.7.06-1.05.1h-.25c-.43.05-.86.12-1.29.19h-.12a29.437 29.437 0 0 0 5.65 10.36Z" fill="#fff"/><path d="M1430.46 822.56a232.323 232.323 0 0 1-31.09 116.308 232.28 232.28 0 0 1-85.12 85.132c-2.56 1.5-5.17 2.94-7.79 4.34l-2.21 1.15a231.623 231.623 0 0 1-104.76 25.7h-1.68c-3 0-5.94-.06-8.89-.16-25.89-.95-51.43-6.24-75.57-15.64-6.79-2.67-13.43-5.62-19.91-8.86l-.24-.13a233.245 233.245 0 0 1-58.15-41.64c-4.67-4.6-9.17-9.4-13.5-14.4a231.843 231.843 0 0 1-56.362-151.81c0-100.56 63.792-186.21 153.132-218.69a227.902 227.902 0 0 1 25.5-7.64c1.14-.28 2.29-.55 3.44-.8a233.958 233.958 0 0 1 50.57-5.51c7.28 0 14.48.334 21.6 1 1.14.1 2.27.22 3.41.34a231.16 231.16 0 0 1 35.24 6.55c99.26 26.55 172.38 117.12 172.38 224.76Z" fill="#3F4249"/><path d="M1137.55 624.84c-.73-.19-1.46-.41-2.18-.65-13.57-4.53-18.87-17.53-17.42-31.07 3-28.34 27.63-40.77 57.15-26 29.52 14.77 41.37-13.59 60.21-3.93 18.84 9.66 12 29.58 12 29.58s12.91-1.49 21.06 23.27c8.15 24.76-19.2 57.09-34.47 67.78-15.27 10.69-28.67-73.82-28.67-73.82a278.136 278.136 0 0 1-27.81 10.13c-12.51 3.87-26.66 8.19-39.87 4.71Z" fill="#000"/><path d="M1194.05 792.499c-3.62-2.09-67.14-62-80.87-59.55-2.42-13.79 20.06-4.43 28.09-16.85a20.223 20.223 0 0 1 8.49-7.68c6.66-3 12.09-2 13.87-.24 25.89 25.69 43.31 14.81 70.25-4.31 3.19-2.26 16-1.09 19.33 11 10.72 20.53 31.46 3.88 31.45 24.17 0 1.54-1.92 1.42-4.8.72a40.053 40.053 0 0 0-30 4.76l-55.81 47.98Z" class="change-color-in-svg" fill="#4D61FC" style="fill:#158566"/><path d="m820.441 871.571-19.61-7.76-25.76 1.19a2.894 2.894 0 0 0-2.892 2.606c-.048.474.021.953.202 1.394a3.816 3.816 0 0 0 3.46 2.4l24 1.19 13.26 8.37-13.26-8.37-21.34 1a2.62 2.62 0 0 0-2.49 3.18 3.193 3.193 0 0 0 3.26 2.2l21.15 1 19.22 11.95-19.22-11.95-15.77 2.39a1.76 1.76 0 0 0-1.237.877 1.776 1.776 0 0 0-.103 1.513 2.641 2.641 0 0 0 2.31 1.4h17.68l18.45 10-1.31-24.58Z" fill="#FC9D9D"/><path opacity=".15" d="m820.441 871.571-19.61-7.76-25.76 1.19a2.894 2.894 0 0 0-2.892 2.606c-.048.474.021.953.202 1.394a3.816 3.816 0 0 0 3.46 2.4l24 1.19 13.26 8.37-13.26-8.37-21.34 1a2.62 2.62 0 0 0-2.49 3.18 3.193 3.193 0 0 0 3.26 2.2l21.15 1 19.22 11.95-19.22-11.95-15.77 2.39a1.76 1.76 0 0 0-1.237.877 1.776 1.776 0 0 0-.103 1.513 2.641 2.641 0 0 0 2.31 1.4h17.68l18.45 10-1.31-24.58Z" fill="#000"/><path d="m820.63 864.399 25.56 25.1a15.411 15.411 0 0 0 5.19 3.19l58.44 17.53-15.57 35.86-52.67-20.92c-11 .2-20.76-5.57-28.25-12.95h-.2a11.863 11.863 0 0 0-3.65-2.39c-5-1.79-17.3-6.37-17.3-6.37a1.419 1.419 0 0 1-1.051-1.224 1.425 1.425 0 0 1 .051-.566c.77-3.19 4-5.58 8.07-5.18l9 1c4.8.4 8.46-3.38 7.49-7.57l-5.19-18.33a4.336 4.336 0 0 0-2.11-2.78l-29.41-16.34a2.413 2.413 0 0 1-1.341-1.313 2.42 2.42 0 0 1 .001-1.877 3.061 3.061 0 0 1 4-1.59c7.69 3 31.33 12.75 36.71 15.14.81.426 1.56.957 2.23 1.58Z" fill="#FC9D9D"/><path opacity=".15" d="M845.65 919.74c-11 .2-22.66-5.59-30.15-13h-.19a12.01 12.01 0 0 0-3.66-2.39c-5-1.79-17.3-6.37-17.3-6.37a1.576 1.576 0 0 1-.43-.22 6.558 6.558 0 0 0-2.7 3.86 1.42 1.42 0 0 0 .122 1.106 1.43 1.43 0 0 0 .878.684s12.3 4.58 17.3 6.37a11.845 11.845 0 0 1 3.65 2.39h.2c7.49 7.38 17.29 13.15 28.25 12.95l52.67 20.92s-16-16.92-30.94-24.57c-6.47-3.26-13.7-2.35-17.7-1.73Z" fill="#000"/><path d="m1095.22 736.489-2.76 90.67-36.75 128.6c-10.75 36.48-40.44 51.941-70.498 37.47l-126.29-60.78 13.34-33.29 117 30.75 41.998-142a70.712 70.712 0 0 1 52.84-49.05l11.15-2.41-.03.04Z" class="change-color-in-svg" fill="#4D61FC" style="fill:#158566"/><path opacity=".15" d="m1095.21 736.49-2.76 90.67-36.74 128.59c-10.75 36.49-40.44 52-70.498 37.48l-126.29-60.77 4.39-11 112.69 54.3c30.058 14.46 59.748-1 70.498-37.48l36.75-128.59 2.16-71.08 9.8-2.12Z" fill="#000"/><path d="M1333.14 755.63c-8.47-2.65-11.49 32.54-12.87 76.76-.21 6.37-.37 12.91-.51 19.57l-1.37 15.67v.33l-2.72 31-11.39 130.51a231.592 231.592 0 0 1-104.76 25.7h-1.68c-3 0-5.94-.06-8.89-.16-25.89-.95-51.43-6.24-75.57-15.64-6.79-2.67-13.42-5.62-19.91-8.86l-5.78-107.1-1.16-21.39-.31-5.7-.35-6.3-1.8-33.43-.08-1.46c-1.07-11.75-2.06-23.94-3.12-35.74v-.84c-3.16-35.08-6.92-66.54-14.94-72.44a145.458 145.458 0 0 1 19.61-7.09c2.6-.76 5.28-1.46 8-2.11 6.3-1.54 12.91-2.84 19.75-3.92h.13a375.607 375.607 0 0 1 45.79-4.14c.1-.01.19-.01.29 0 15.71-.53 31.73-.27 47.43.61 10.94.6 21.71 1.5 32.1 2.64 2.85.32 5.68.65 8.47 1 4.38.54 8.67 1.123 12.87 1.75 8.61 1.28 16.79 2.73 24.37 4.3 17.63 3.61 32 7.86 41.21 12.22a38.192 38.192 0 0 1 7.19 4.26Z" class="change-color-in-svg" fill="#4D61FC" style="fill:#158566"/><path opacity=".15" d="M1246.58 854.361c7.66 0 13.88-10.141 13.88-22.65 0-12.51-6.22-22.65-13.88-22.65-7.67 0-13.88 10.14-13.88 22.65 0 12.509 6.21 22.65 13.88 22.65Z" fill="#000"/><path opacity=".15" d="M1284.66 738.999a.17.17 0 0 1 0 .1c.01.089.01.18 0 .27a.85.85 0 0 1-.13.3 1.83 1.83 0 0 0-.09.13c-.11.099-.24.177-.38.23-.81.32-2.25.11-4.11-.34-3-.727-6.08-1.087-9.17-1.07h-1.23c-.94 0-1.88.08-2.8.19l-1.35.16-1.11.17-.77.14-1.14.23c-.44.08-.89.19-1.33.31-1 .24-1.88.51-2.82.83l-1 .33c-.63.23-1.26.47-1.88.75-.31.12-.61.25-.92.39l-1.28.59c-.42.2-.85.42-1.26.64-.64.33-1.27.69-1.9 1.07l-50.4 43.35v267.361h-1.68c-3 0-5.94-.06-8.89-.16V788.209c-.4-.36-.83-.72-1.27-1.1a3.277 3.277 0 0 0-.28-.26l-1.73-1.52-2.87-2.53-2.09-1.84a226.67 226.67 0 0 0-3.65-3.19c-.3-.27-.59-.53-.9-.79l-1.19-1-2.2-1.91c-.49-.43-1-.87-1.5-1.29l-.07-.07-1.51-1.3c-1.5-1.31-3.07-2.64-4.64-4-.16-.13-.31-.27-.48-.4l-2.75-2.33a74.9 74.9 0 0 0-1.65-1.37c-.56-.45-1.09-.92-1.65-1.37-.56-.45-1.1-.92-1.66-1.37-.56-.45-1.1-.93-1.66-1.38-.13-.12-.27-.22-.4-.33-1.41-1.16-2.83-2.31-4.26-3.45-.46-.38-.93-.76-1.41-1.13-.74-.6-1.5-1.19-2.25-1.78l-.57-.45c-1.87-1.45-3.72-2.89-5.55-4.25l-.41-.31c-.77-.58-1.54-1.15-2.3-1.7l-1.33-1c-.89-.64-1.76-1.26-2.62-1.86-.51-.36-1-.71-1.51-1-1-.69-2-1.33-2.9-1.95l-1.34-.85a1.498 1.498 0 0 0-.22-.13c-.41-.28-.83-.52-1.23-.77s-.89-.55-1.33-.8c-.44-.25-.86-.51-1.29-.74-.43-.23-.84-.47-1.26-.68-.82-.45-1.6-.84-2.36-1.19-.38-.17-.74-.34-1.1-.49-.36-.15-.53-.23-.78-.32a4.074 4.074 0 0 0-.53-.19h-.09a8.66 8.66 0 0 0-.65-.23l-.69-.21h-.07l-.51-.12a.223.223 0 0 0-.14 0 2.603 2.603 0 0 0-.47-.09h-.07l-.53-.08h-.86c-.26-.007-.51.013-.77.06h-.13c-2.42-13.79 20-4.43 28.08-16.86a20.285 20.285 0 0 1 8.49-7.67c.42-.19.85-.37 1.26-.53.71-.276 1.43-.513 2.16-.71.31-.09.61-.16.9-.23h.18l.65-.13.49-.08.72-.09.69-.06H1158.68c.14-.01.27-.01.4 0l.68.07c.27 0 .53.08.78.13l.63.14h.08c.12.027.24.064.36.11.22.068.44.148.65.24.19.074.38.161.56.26h.06c.31.173.6.385.85.63a89.64 89.64 0 0 0 4.13 3.86l.86.73c1.48 1.26 2.94 2.38 4.38 3.4.33.24.65.47 1 .68a42.901 42.901 0 0 0 7.8 4.21c.88.35 1.75.66 2.61.91.23.08.45.14.68.2.23.06.7.21 1 .29.3.08.8.19 1.19.26.19.046.38.083.57.11.34.07.67.11 1 .16.33.05.53.07.77.1l.83.09h.18c.35 0 .68.06 1 .07.32.01.91 0 1.36 0h1.48c.45 0 .92 0 1.37-.1.45-.1.86-.09 1.3-.16.08.01.17.01.25 0 .4-.05.82-.12 1.22-.2 1.09-.19 2.18-.45 3.29-.76l1.11-.33c.49-.15 1-.31 1.45-.48.45-.17.8-.28 1.21-.44l.48-.19c.89-.34 1.78-.72 2.69-1.14.47-.21.94-.42 1.42-.66.27-.12.53-.25.8-.39l1.1-.56a79.608 79.608 0 0 0 4.19-2.31c.43-.25.87-.51 1.3-.78.43-.27.67-.41 1-.62 3.38-2.07 6.87-4.43 10.54-7l3.15-2.2 1.45-1c.11-.073.23-.14.34-.2.21-.118.43-.216.65-.29l.46-.14c.2-.056.39-.1.59-.13.15-.033.3-.057.45-.07l.55-.07H1239.15l.82.08c.34 0 .7.12 1.06.19.95.202 1.88.483 2.78.84l.55.24.56.26c.19.086.38.183.56.29 1.11.587 2.14 1.313 3.07 2.16l.16.14c.2.19.4.38.59.58.24.25.46.51.69.78.23.27.34.42.5.63l.28.39c.16.208.31.425.44.65.03.053.06.103.1.15.17.31.35.62.52.94.16.302.31.612.44.93l.11.25c.14.33.28.69.4 1 .14.4.27.8.39 1.23 10.76 20.41 31.5 3.76 31.49 24.05Z" fill="#000"/><path d="M1411.38 915a233.577 233.577 0 0 1-97.13 109c-2.56 1.5-5.17 2.94-7.79 4.34l41.09-91.75-29.16-69-6.16-14.57a72.757 72.757 0 0 1-11.84-30.18 101.758 101.758 0 0 1 3.69-46.91c5.12-15.51 13.55-26 21.78-24.63 1 .29 34.4 9.92 44.11 39.24l37.8 102.07a93.334 93.334 0 0 1 3.61 22.39Z" class="change-color-in-svg" fill="#4D61FC" style="fill:#158566"/><path opacity=".15" d="m1352.12 943.86-37.87 80.14c-2.56 1.5-5.17 2.94-7.79 4.34l41.09-91.75-29.19-68.59-.1-.22-2.62 31.22c-9.57-13.61-14.42-46.81-15.25-76.1-.55-19.9.74-38 3.69-46.91.89-2.7 3.93-1.71 4.44 1.09 3.53 19.17 6.62 39.37 11.75 55.35a96.423 96.423 0 0 0 3.57 9.59l28.63 77.93a29.08 29.08 0 0 1 2.4 11.993c-.06 4.123-1 8.186-2.75 11.917Z" fill="#000"/><path d="M1257.86 608.529c-.49 2.76-4.22 62.62-35.08 86.92v-69.59l35.08-17.33Z" fill="#000"/><path d="m1239.21 735.999-4.92-72.21-1-14.36c-2.46-55.18-74.46-10-74.46-10s2 19.08 2.88 40.21c.02 4.346.49 8.677 1.43 12.92l-4.72 42.87 80.79.57Z" fill="#FC9D9D"/><path d="M1239.2 735.999a7.846 7.846 0 0 1-3.68 6.57l-12.69 8.62-26.9 18.25c-.61.35-1.32.499-2.02.425a3.324 3.324 0 0 1-1.88-.835l-22.94-19.72-7.83-6.74a7.814 7.814 0 0 1-2.37-3.22 7.913 7.913 0 0 1-.49-3.97l80.8.62ZM1231 598.76l2 48s-5.33 74-52.92 67.69c-54.77-7.18-29.34-114.26-29.34-114.26l80.26-1.43Z" fill="#FC9D9D"/><path opacity=".15" d="M1189.16 717.11a41.616 41.616 0 0 0 25.44-13.53c.19-.191.3-.45.3-.72a1.024 1.024 0 0 0-1.02-1.018c-.27 0-.53.107-.72.298a40.977 40.977 0 0 1-19.28 11.9c-14.77 3.28-27.9-3.49-32.62-8.21l-1.84 17.23a39.628 39.628 0 0 0 29.74-5.95Z" fill="#000"/><path d="M1187.11 654.55a4.31 4.31 0 1 0 0-8.62 4.31 4.31 0 0 0 0 8.62Z" fill="#000"/><path d="M1185.26 649.839a1.03 1.03 0 1 0 .002-2.058 1.03 1.03 0 0 0-.002 2.058Z" fill="#fff"/><path d="M1153.27 654.55a4.31 4.31 0 1 0 0-8.62 4.31 4.31 0 0 0 0 8.62Z" fill="#000"/><path d="M1151.42 649.839a1.03 1.03 0 1 0 .002-2.058 1.03 1.03 0 0 0-.002 2.058Z" fill="#fff"/><path opacity=".15" d="M1166 669.941a5.403 5.403 0 0 1 1.94-3.506 5.401 5.401 0 0 1 3.81-1.214c.61 0 1 .61 1 1.43 0 .62-.61 1-1.43 1-.35-.027-.7.015-1.03.124-.34.109-.65.283-.91.511-.27.229-.49.507-.65.82a2.71 2.71 0 0 0-.28 1.005c-.03.35.02.701.13 1.035.1.334.28.643.51.909.23.267.5.485.82.644.31.159.65.255 1 .282l5.74.41c.62 0 1 .62 1 1.44 0 .61-.62 1-1.44 1l-5.74-.41a4.809 4.809 0 0 1-3.43-1.761 4.848 4.848 0 0 1-.91-1.751 4.845 4.845 0 0 1-.13-1.968Z" fill="#000"/><path d="M1203.32 638.999H1143c-.84-.06-1.69.065-2.48.366a5.77 5.77 0 0 0-2.08 1.378 5.667 5.667 0 0 0-1.31 2.131 5.673 5.673 0 0 0-.29 2.485v4.93c.02 3.018.83 5.978 2.34 8.589a17.33 17.33 0 0 0 6.29 6.301 16.9 16.9 0 0 0 7.66 2.299c2.71.142 5.4-.365 7.87-1.479a17.35 17.35 0 0 0 7.51-6.347 17.297 17.297 0 0 0 2.83-9.413v-4.93a6.484 6.484 0 0 0-1.43-3.89h6.77a5.538 5.538 0 0 0-1.11 1.801 5.316 5.316 0 0 0-.33 2.089v4.93c0 4.57 1.81 8.952 5.05 12.183a17.217 17.217 0 0 0 24.36 0 17.237 17.237 0 0 0 5.05-12.183v-4.93a6.364 6.364 0 0 0-1.9-4.463 6.37 6.37 0 0 0-4.48-1.847Zm-35.08 11.29c.03 2.62-.64 5.2-1.95 7.469a14.646 14.646 0 0 1-5.49 5.431 15.132 15.132 0 0 1-7.33 1.86c-2.91.015-5.76-.823-8.2-2.41a14.516 14.516 0 0 1-4.87-5.333 14.539 14.539 0 0 1-1.7-7.017v-4.93a3.998 3.998 0 0 1 3.89-3.89h21.75c1.02.025 2 .443 2.73 1.167a4.03 4.03 0 0 1 1.17 2.723v4.93Zm38.76-.29a14.738 14.738 0 0 1-4.19 10.691 14.746 14.746 0 0 1-4.83 3.302 14.805 14.805 0 0 1-11.49 0 14.746 14.746 0 0 1-4.83-3.302 14.738 14.738 0 0 1-4.19-10.691v-4.92c.21-2.05 2-3.48 4.1-3.9h21.54c1.02.028 2 .448 2.72 1.174a3.994 3.994 0 0 1 1.17 2.726v4.92Z" fill="#000"/><path d="M1228.55 653.529c-1.85 8.2-3.9 14.35 6.76 13.53 20.31-1.43 22.57-28.71 10.67-34-10.46-4.71-14 5.34-14 5.34l-3.43 15.13Z" fill="#FC9D9D"/><path opacity=".15" d="M1247.21 645.709c-.41.61-1 .61-1.84.41-1.44-1-2.88-1.44-3.9-1-1 0-1.85 1-2.87 2.46-1.44 1.85-1.85 5.34-1.85 6.16l-.41 2.46c0 .62-.62 1-1.44 1-.61 0-1-.62-1-1.44l.41-2.46c.41-2.87.61-5.34 2-7.59 1.44-1.85 2.87-3.28 4.72-3.49a8 8 0 0 1 5.74 1.44c.44.2.65.82.44 2.05ZM1113.35 1039.4c-6.79-2.67-13.42-5.62-19.91-8.86l-.24-.13-5.67-107-1.13-21.39-.31-5.7-.33-6.3-1.76-32.44-.06-.75-3.14-37.42v-.35l1.14-4.65 1.37-5.56 3.27-13.33c.4-3.17 4.67-3.76 6.9-2a3.424 3.424 0 0 1 1.33 2.57l7.16 94 .49 6.3.42 5.7 1.64 21.39 8.83 115.92Z" fill="#000"/><path d="M1143.62 595.439s3.69 21.54 36.47 18.12c18.23-1.91 27-3.56 31.09-4.65a2.987 2.987 0 0 1 2.54.542c.36.276.65.628.85 1.032.2.403.31.846.32 1.296v8.07c0 1.327.52 2.598 1.46 3.536a5.006 5.006 0 0 0 3.54 1.464c1.32 0 2.6.527 3.53 1.465a4.995 4.995 0 0 1 1.47 3.535v18.07a4.096 4.096 0 0 0 4.1 4.1 4.096 4.096 0 0 0 4.1-4.1v-52.48h-89.47Z" fill="#000"/><path d="M1146.41 672.889s1.74 7.21 7.63 8 5.87-5.58 15.41-5.57c9.54.01 20-1.54 25.91 3.7 6.65 5.86 15.2 5.12 20.12-2.33a60.795 60.795 0 0 0 8.06-18c.22-.89 1.83-10.74 1.32-10.74h8.2s2.37 25.87-4.73 42.93c-7.1 17.06-24.16 55.67-48.56 52.4-24.4-3.27-32.07-38.78-33.36-70.39Z" fill="#000"/><path d="M1184.81 687.199v.12c0 4.5-4.41 8.13-9.86 8.13-5.45 0-9.86-3.63-9.86-8.13v-.12h19.72Z" fill="#fff"/></svg>