<svg class="gridItem__media" xmlns="http://www.w3.org/2000/svg" width="1600" height="1200" style="enable-background:new 0 0 1600 1200" xml:space="preserve" fill="none"><path d="m253.28 1058.31-57.2-540.419a66.623 66.623 0 0 1 9.58-42.06l187.41-303.37a66.662 66.662 0 0 1 60.94-31.5l738.53 46.83c26.44 1.68 49.38 18.85 58.44 43.75l149.3 410.61a66.729 66.729 0 0 1 3.36 32.09l-54.1 383.749-1096.26.32Z" fill="#F3F3F3"/><path d="M864.38 778.86h-20.95c-3.25 0-5.85-2.6-5.85-5.85v-34.43h32.72v34.43c-.08 3.25-2.68 5.85-5.92 5.85Z" fill="#868A91"/><path d="M875.34 767.081h-5.12v-2.52h5.12c1.3 0 2.35-1.06 2.35-2.35v-14.04c0-1.3-1.06-2.35-2.35-2.35h-5.12v-2.52h5.12c2.68 0 4.79 2.19 4.79 4.79v14.04a4.784 4.784 0 0 1-4.79 4.95Z" fill="#868A91"/><path d="M872.5 745.81v-2.52h-2.27v-4.79h-7.14v33.86c0 2.93-2.35 5.28-5.28 5.28h-18.1c.98.81 2.27 1.3 3.66 1.3h20.95c3.25 0 5.85-2.6 5.85-5.85v-5.93h2.27v-2.52h-2.27v-18.76h2.35l-.02-.07Z" fill="#61656D"/><path d="M848.71 736.07c-.25 0-.41-.16-.41-.41 0-3.08-2.52-5.68-5.68-5.68h-2.76a4.37 4.37 0 0 1-4.39-4.39 4.37 4.37 0 0 1 4.39-4.39h15.59c1.95 0 3.57-1.62 3.57-3.57 0-1.95-1.62-3.57-3.57-3.57h-3.74c-2.52 0-4.47-2.03-4.47-4.47 0-.25.16-.41.41-.41.25 0 .41.16.41.41 0 2.03 1.62 3.66 3.66 3.66h3.74a4.37 4.37 0 0 1 4.39 4.39 4.37 4.37 0 0 1-4.39 4.39h-15.59c-1.95 0-3.57 1.62-3.57 3.57 0 1.95 1.62 3.57 3.57 3.57h2.76c3.57 0 6.49 2.93 6.49 6.49-.01.25-.17.41-.41.41ZM857.72 738.591c-.25 0-.41-.161-.41-.411v-.979c0-.73-.57-1.3-1.3-1.3-1.22 0-2.11-.981-2.11-2.111v-1.709c0-1.22.98-2.111 2.11-2.111h2.6c3.49 0 6.41-2.84 6.41-6.41v-3.169c0-.25.16-.411.41-.411.25 0 .41.161.41.411v3.079c0 3.98-3.25 7.22-7.22 7.22h-2.6c-.73 0-1.3.57-1.3 1.3v1.711c0 .73.57 1.299 1.3 1.299 1.22 0 2.11.98 2.11 2.11v.981c0 .25-.17.5-.41.5Z" fill="#fff"/><path d="M1263.2 787.73h-12.52l37.63 270.26h4.9l-30.01-270.26ZM772.53 1057.99h4.9l37.62-270.26h-12.51l-30.01 270.26Z" fill="#DADDDF"/><path d="M1293.2 1057.99h-2.11l-32.26-262.649a3.987 3.987 0 0 0-3.55-3.481l-4.09-.409-.52-3.721h12.52l30.01 270.26Z" fill="#B2B6BB"/><path d="M1301.71 787.73h-12.51l37.62 270.26h4.91l-30.02-270.26ZM811.05 1057.99h4.9l37.62-270.26h-12.51l-30.01 270.26Z" fill="#DADDDF"/><path d="M1331.72 1057.99h-2.11l-12.57-95.82-3.87-2.23-23.46-168.489-.52-3.721h12.52l30.01 270.26ZM814.15 1057.99l12.2-95-4.41-3.05 19.12-172.21h12.52l-37.62 270.26h-1.81Z" fill="#B2B6BB"/><path d="M817.92 782.96a4.76 4.76 0 0 0 4.76 4.769h499.7c2.63 0 4.76-2.139 4.76-4.769 0-2.63-2.13-4.771-4.76-4.771h-499.7c-2.63-.01-4.76 2.131-4.76 4.771Z" fill="#61656D"/><path d="M817.92 782.96a4.76 4.76 0 0 0 4.76 4.769h499.7c2.63 0 4.76-2.139 4.76-4.769 0-2.63-2.13-4.771-4.76-4.771h-499.7c-2.63-.01-4.76 2.131-4.76 4.771Z" fill="#B2B6BB"/><path d="M780.43 782.96a4.76 4.76 0 0 0 4.76 4.769h446.13c2.63 0 4.76-2.139 4.76-4.769 0-2.63-2.13-4.771-4.76-4.771H785.19c-2.63-.01-4.76 2.131-4.76 4.771ZM1250.68 787.73H815.05l-6.82 48.99h449.27l-6.82-48.99Z" fill="#DADDDF"/><path d="M809.14 795.64a3.748 3.748 0 0 0-2.94-4.15l-3.98-.84.33-2.93h12.51l434.25-.04.01.05h1.37l6.82 48.99h-2.3l-4.85-35.58H813.19l-35.76 256.85h-1.8l33.51-262.35ZM1268.64 836.72h31.44l-6.87-48.99h-31.97l7.4 48.99ZM1066.74 778.18H980.5c-6.24 0-11.29-5.06-11.29-11.29 0-6.24 5.06-11.29 11.29-11.29h86.24v22.58Z" fill="#B2B6BB"/><path d="M1059.56 778.18h43.51v-3.32l-13.47-.02v-15.92l13.47.04v-3.37h-43.51c-6.24 0-11.29 5.06-11.29 11.29 0 6.25 5.05 11.3 11.29 11.3Z" fill="#858990"/><path d="M1059.61 774.85h40.3v-15.92h-40.3c-4.4 0-7.96 3.56-7.96 7.96s3.56 7.96 7.96 7.96ZM1039.55 755.599h-71.9a2.97 2.97 0 0 1-2.97-2.969v-11.39a2.97 2.97 0 0 1 2.97-2.97h71.9v17.329Z" fill="#fff"/><path d="M1008.5 750.349h-24.88c-.65 0-1.18-.53-1.18-1.18v-3.95c0-.65.53-1.18 1.18-1.18h24.88c.65 0 1.18.53 1.18 1.18v3.95c0 .65-.52 1.18-1.18 1.18Z" fill="#DADDDF"/><path d="M1028.34 755.6h39.1v-17.34h-39.1a2.97 2.97 0 0 0-2.97 2.97v11.39c0 1.64 1.33 2.98 2.97 2.98Z" fill="#B1B5BA"/><path d="M1029.41 753.031h38.03v-12.22h-38.03c-.8 0-1.44.64-1.44 1.44v9.34c-.01.8.64 1.44 1.44 1.44Z" fill="#fff"/><path d="M1004.47 738.25h85.09c2.23 0 4.04-1.81 4.04-4.04v-9.27c0-2.23-1.81-4.04-4.04-4.04h-85.09v17.35Z" fill="#DADDDF"/><path d="M1014.62 735.691h-39.15v-12.22h39.15c.8 0 1.44.64 1.44 1.44v9.34c0 .8-.65 1.44-1.44 1.44Z" fill="#fff"/><path d="M1015.68 720.91h-43.16v2.56h42.09c.8 0 1.44.64 1.44 1.44v9.34c0 .8-.64 1.44-1.44 1.44h-42.09v2.56h43.16a2.97 2.97 0 0 0 2.97-2.97v-11.39c0-1.65-1.33-2.98-2.97-2.98Z" fill="#B1B5BA"/><path d="m312.55 196.52.02 340.6a7.93 7.93 0 0 0 7.93 7.93l493.15-.02a7.93 7.93 0 0 0 7.93-7.93l-.02-340.6a7.93 7.93 0 0 0-7.93-7.93l-493.15.02a7.93 7.93 0 0 0-7.93 7.93Z" fill="#868A91"/><path d="M821.56 196.5a7.93 7.93 0 0 0-7.93-7.93l-493.15.02a7.93 7.93 0 0 0-7.93 7.93v15.79h509.02l-.01-15.81Z" fill="#3F4249"/><path d="m306.57 196.52.02 340.6a7.93 7.93 0 0 0 7.93 7.93l493.15-.02a7.93 7.93 0 0 0 7.93-7.93l-.02-340.6a7.93 7.93 0 0 0-7.93-7.93l-493.15.02a7.93 7.93 0 0 0-7.93 7.93Z" fill="#D8DBDD"/><path d="M815.59 196.5a7.93 7.93 0 0 0-7.93-7.93l-493.15.02a7.93 7.93 0 0 0-7.93 7.93v15.79H815.6l-.01-15.81Z" fill="#61656D"/><path d="M325.45 205.36c2.72 0 4.92-2.2 4.92-4.92 0-2.72-2.2-4.92-4.92-4.92-2.72 0-4.92 2.2-4.92 4.92 0 2.72 2.2 4.92 4.92 4.92Z" fill="#B2B6BB"/><path d="M343.17 205.36c2.72 0 4.92-2.2 4.92-4.92 0-2.72-2.2-4.92-4.92-4.92-2.72 0-4.92 2.2-4.92 4.92 0 2.72 2.2 4.92 4.92 4.92Z" fill="#fff"/><path d="M360.9 205.36c2.72 0 4.92-2.2 4.92-4.92 0-2.72-2.2-4.92-4.92-4.92-2.72 0-4.92 2.2-4.92 4.92 0 2.72 2.2 4.92 4.92 4.92Z" fill="#000"/><path d="M763.1 252.52H414.77a3.83 3.83 0 0 1-3.83-3.83v-15.34a3.83 3.83 0 0 1 3.83-3.83H763.1a3.83 3.83 0 0 1 3.83 3.83v15.34c0 2.12-1.71 3.83-3.83 3.83Z" fill="#B2B6BB"/><path d="M755.86 237.82c-1.7-1.7-4.46-1.7-6.15 0-1.7 1.7-1.7 4.46 0 6.15 1.55 1.55 3.99 1.67 5.69.38l2.43 2.43.84-.84-2.43-2.43a4.346 4.346 0 0 0-.38-5.69Zm-.84 5.32a3.172 3.172 0 0 1-4.48 0 3.18 3.18 0 0 1 0-4.48 3.172 3.172 0 0 1 4.48 0 3.163 3.163 0 0 1 0 4.48Z" fill="#3F4249"/><path d="M387.98 236.609h-12.9v1.27h12.9v-1.27ZM387.98 241.131h-12.9v1.27h12.9v-1.27ZM387.98 245.65h-12.9v1.27h12.9v-1.27Z" fill="#868A91"/><path d="M344.36 252.519h-14.83c-2.25 0-4.08-1.83-4.08-4.08v-14.83c0-2.25 1.83-4.08 4.08-4.08h14.83c2.25 0 4.08 1.83 4.08 4.08v14.83c0 2.26-1.82 4.08-4.08 4.08Z" fill="#61656D"/><path d="M333.43 236.84v8.58c0 .44.48.7.85.48l7.09-4.29c.36-.22.36-.74 0-.96l-7.09-4.29a.563.563 0 0 0-.85.48Z" fill="#fff"/><path d="M570.79 425.93H331.23c-2.4 0-4.35-1.95-4.35-4.35V269.12c0-2.4 1.95-4.35 4.35-4.35h239.56c2.4 0 4.35 1.95 4.35 4.35v152.46c0 2.4-1.95 4.35-4.35 4.35Z" fill="#61656D"/><g opacity=".7"><path opacity=".7" d="M564.14 444.131H372.46c-1.25 0-2.25-1.01-2.25-2.25 0-1.25 1.01-2.25 2.25-2.25h191.68c1.25 0 2.25 1.01 2.25 2.25.01 1.24-1 2.25-2.25 2.25Z" fill="#3F4249"/><path opacity=".7" d="M564.14 460.471H372.46c-1.25 0-2.25-1.01-2.25-2.25 0-1.25 1.01-2.25 2.25-2.25h191.68c1.25 0 2.25 1.01 2.25 2.25.01 1.24-1 2.25-2.25 2.25ZM480.19 476.82H372.46c-1.25 0-2.25-1.01-2.25-2.25 0-1.25 1.01-2.25 2.25-2.25h107.73c1.25 0 2.25 1.01 2.25 2.25.01 1.24-1 2.25-2.25 2.25Z" fill="#B2B6BB"/></g><g opacity=".7" fill="#fff"><path opacity=".7" d="M537.61 508.96H398.16c-.91 0-1.64-.73-1.64-1.64 0-.91.73-1.64 1.64-1.64h139.46c.91 0 1.64.73 1.64 1.64a1.65 1.65 0 0 1-1.65 1.64ZM487.26 524.171h-89.1c-.91 0-1.64-.73-1.64-1.64 0-.91.73-1.64 1.64-1.64h89.1c.91 0 1.64.73 1.64 1.64 0 .9-.74 1.64-1.64 1.64Z"/></g><path d="M566.4 413.631H332.76v1.24H566.4v-1.24Z" fill="#3F4249"/><path d="M469.68 413.26H332.76v1.99h136.92v-1.99Z" fill="#fff"/><path d="M470.13 417.6c1.85 0 3.34-1.49 3.34-3.34 0-1.85-1.49-3.34-3.34-3.34-1.85 0-3.34 1.49-3.34 3.34 0 1.85 1.5 3.34 3.34 3.34Z" fill="#fff"/><path d="M449.58 375.759c-16.79 0-30.41-13.61-30.41-30.41 0-16.79 13.61-30.41 30.41-30.41 16.79 0 30.41 13.61 30.41 30.41-.01 16.79-13.62 30.41-30.41 30.41Z" fill="#868A91"/><path d="M441.35 334.291v22.68c0 1.15 1.26 1.86 2.24 1.26l18.75-11.34c.95-.58.95-1.95 0-2.53l-18.75-11.34a1.48 1.48 0 0 0-2.24 1.27ZM377.59 533.969h-48.05a2.5 2.5 0 0 1-2.5-2.5v-40.85a2.5 2.5 0 0 1 2.5-2.5h48.05a2.5 2.5 0 0 1 2.5 2.5v40.85c0 1.39-1.12 2.5-2.5 2.5Z" fill="#fff"/><path d="M378.3 531.38h-49.46v-40.43c0-.61.5-1.11 1.11-1.11h47.24c.61 0 1.11.5 1.11 1.11v40.43Z" fill="#F4F4F4"/><path d="M339.54 506.15c3.02 0 5.46-2.44 5.46-5.46s-2.44-5.46-5.46-5.46-5.46 2.44-5.46 5.46 2.44 5.46 5.46 5.46ZM328.84 531.42v-4.78l18.73-16.44a1.6 1.6 0 0 1 2.04-.06l5.1 4L365.56 504c.64-.6 1.63-.57 2.24.06l10.49 10.84v16.52c0 .53-.43.95-.95.95h-47.56c-.52 0-.94-.43-.94-.95Z" fill="#B0B4B9"/><path d="M348.3 468.121h-15.71a5.54 5.54 0 0 1-5.54-5.54v-17.41a5.54 5.54 0 0 1 5.54-5.54h15.71a5.54 5.54 0 0 1 5.54 5.54v17.41a5.54 5.54 0 0 1-5.54 5.54Z" fill="#61656D"/><path d="M725.16 395.409H599.78c-1.14 0-2.06-.92-2.06-2.06 0-1.14.92-2.06 2.06-2.06h125.38c1.14 0 2.06.92 2.06 2.06a2.07 2.07 0 0 1-2.06 2.06ZM725.16 410.319H599.78c-1.14 0-2.06-.92-2.06-2.06 0-1.14.92-2.06 2.06-2.06h125.38c1.14 0 2.06.92 2.06 2.06a2.07 2.07 0 0 1-2.06 2.06ZM669.75 425.229h-69.97c-1.14 0-2.06-.92-2.06-2.06 0-1.14.92-2.06 2.06-2.06h69.97c1.14 0 2.06.92 2.06 2.06-.01 1.13-.93 2.06-2.06 2.06ZM737.22 379.82H600.86c-1.74 0-3.14-1.41-3.14-3.14v-86.31c0-1.74 1.41-3.14 3.14-3.14h136.36c1.74 0 3.14 1.41 3.14 3.14v86.31c0 1.73-1.4 3.14-3.14 3.14Z" fill="#B2B6BB"/><path d="M669.04 353.69c-11.14 0-20.18-9.03-20.18-20.18 0-11.14 9.03-20.18 20.18-20.18 11.14 0 20.18 9.03 20.18 20.18s-9.03 20.18-20.18 20.18Z" fill="#868A91"/><path d="M662.87 326.181v15.05c0 .76.83 1.23 1.49.84l12.44-7.52c.63-.38.63-1.3 0-1.68l-12.44-7.52a.97.97 0 0 0-1.49.83Z" fill="#fff"/><path d="M815.6 398.959h-35.36c-1.13 0-2.05-.92-2.05-2.05s.92-2.05 2.05-2.05h35.36v4.1ZM815.6 413.85h-35.36c-1.13 0-2.05-.92-2.05-2.05s.92-2.05 2.05-2.05h35.36v4.1ZM815.6 428.731h-35.36c-1.13 0-2.05-.92-2.05-2.05s.92-2.05 2.05-2.05h35.36v4.1Z" fill="#B2B6BB"/><path opacity=".7" d="M815.6 379.691h-34.28c-1.73 0-3.14-1.41-3.14-3.14v-86.19c0-1.73 1.41-3.14 3.14-3.14h34.28v92.47Z" fill="#B2B6BB"/><path d="M680.78 513.219h-81.72a1.34 1.34 0 0 1 0-2.68h81.72a1.34 1.34 0 0 1 0 2.68ZM680.78 522.93h-81.72a1.34 1.34 0 0 1 0-2.68h81.72a1.34 1.34 0 0 1 0 2.68ZM644.67 532.651h-45.61a1.34 1.34 0 0 1 0-2.68h45.61a1.34 1.34 0 0 1 0 2.68Z" fill="#B2B6BB"/><path opacity=".7" d="M688.65 500.639h-88.88c-1.13 0-2.05-.92-2.05-2.05v-56.26c0-1.13.92-2.05 2.05-2.05h88.88c1.13 0 2.05.92 2.05 2.05v56.26c0 1.13-.92 2.05-2.05 2.05Z" fill="#fff"/><path d="M640.74 466.341v8.45c0 .43.47.69.84.47l6.98-4.22c.35-.21.35-.73 0-.94l-6.98-4.22a.543.543 0 0 0-.84.46Z" fill="#fff"/><path d="M804.09 524.979h-94.9c-.86 0-1.56-.7-1.56-1.56 0-.86.7-1.56 1.56-1.56h94.9c.86 0 1.56.7 1.56 1.56 0 .87-.7 1.56-1.56 1.56ZM804.09 536.27h-94.9c-.86 0-1.56-.7-1.56-1.56 0-.86.7-1.56 1.56-1.56h94.9c.86 0 1.56.7 1.56 1.56 0 .86-.7 1.56-1.56 1.56Z" fill="#B2B6BB"/><path opacity=".7" d="M813.22 510.369H710.01c-1.31 0-2.38-1.07-2.38-2.38v-65.33c0-1.31 1.07-2.38 2.38-2.38h103.21c1.31 0 2.38 1.07 2.38 2.38v65.33c0 1.32-1.06 2.38-2.38 2.38Z" fill="#fff"/><path d="M770.1 488.47h-16.97c-2.58 0-4.67-2.09-4.67-4.67v-16.97c0-2.58 2.09-4.67 4.67-4.67h16.97c2.58 0 4.67 2.09 4.67 4.67v16.97c-.01 2.58-2.1 4.67-4.67 4.67Z" fill="#B2B6BB"/><path d="M757.59 470.54v9.81c0 .5.54.8.97.55l8.11-4.9c.41-.25.41-.85 0-1.09l-8.11-4.9a.627.627 0 0 0-.97.53Z" fill="#fff"/><path d="m362.82 1006.35-.69-.08c.03-.32 3.51-31.951 3.97-35.061 2.03-13.9 9.8-61.41 24.44-89.17l.61.32c-14.58 27.67-22.34 75.08-24.36 88.95-.46 3.1-3.94 34.721-3.97 35.041ZM363.34 954.431l-.69-.04c1.84-33.42-9.91-82.19-10.03-82.68l.67-.16c.12.49 11.89 49.36 10.05 82.88Z" fill="#868A91"/><path d="M389.21 885.111s.11-32.85 28.85-34.72c0 0 2.37 28.82-28.85 34.72ZM320.47 878.09s-7.73-31.16-41.72-22.4c0-.01 6.44 22.91 41.72 22.4ZM357.28 890.901s10.1-26.56-13.39-40.51c-.01 0-10.33 26.13 13.39 40.51Z" class="change-color-in-svg" fill="#4D61FC" style="fill:#158566"/><path d="M351.9 1006.31c-.01-.34-.58-34.49-.65-36.59-1.05-30.08-9.44-53.33-16.29-67.54-7.42-15.4-14.69-23.79-14.76-23.87l.52-.46c.07.08 7.39 8.53 14.85 24 6.88 14.27 15.31 37.63 16.37 67.84.07 2.11.64 36.25.65 36.6l-.69.02ZM359.74 1006.33l-.69-.05c.02-.32 2.34-31.731 2.38-32.511 3.55-61.04 6.32-71.89 11.85-93.5.58-2.25 1.18-4.61 1.82-7.16l.67.17c-.64 2.55-1.24 4.92-1.82 7.16-5.52 21.56-8.29 32.39-11.83 93.37-.04.79-2.29 31.231-2.38 32.521Z" fill="#868A91"/><path d="m342.25 1006.34-.69-.06c.03-.35 2.84-34.649 2.94-36.289 2.81-45.69-8.27-77.91-18.05-96.89-11.46-22.24-25.4-34.76-31.97-37.75l.29-.63c5.73 2.61 19.85 13.92 32.29 38.06 9.82 19.05 20.94 51.39 18.13 97.25-.1 1.65-2.92 35.959-2.94 36.309Z" fill="#868A91"/><path d="m336.14 1006.35-.69-.07 3.35-31.26c.01-.04.41-2.82.69-7.3 1.04-16.91.26-57.97-29.32-73.87l.33-.61c29.94 16.09 30.73 57.47 29.69 74.52-.28 4.51-.69 7.31-.69 7.34l-3.36 31.25ZM367.29 967.039l-.66-.219c.03-.1 3.43-9.91 13.88-18.05l.43.55c-10.28 8-13.62 17.619-13.65 17.719ZM370.67 948.219l-.46-.52c.88-.77 21.58-18.88 32.26-22.09l.2.66c-10.53 3.16-31.78 21.76-32 21.95Z" fill="#868A91"/><path d="M327.35 909.07s-8.42-32.1-41.85-24.62c0 0 5.66 27.37 41.85 24.62Z" class="change-color-in-svg" fill="#4D61FC" style="fill:#158566"/><path opacity=".4" d="M327.35 909.07s-8.42-32.1-41.85-24.62c0 0 5.66 27.37 41.85 24.62Z" fill="#fff"/><path d="M344.47 941.921s-5.79-22.791-36.31-15.26c0 0 10.04 22.79 36.31 15.26ZM365.21 927.141s2.83-35.8 40.17-40.17c0 0 1.81 35.02-40.17 40.17Z" class="change-color-in-svg" fill="#4D61FC" style="fill:#158566"/><path d="M354.74 1006.31c0-.33-.08-32.8-.06-34.45.35-33.63 1.66-153.86 1.66-153.86l.69.01s-1.31 120.23-1.66 153.86c-.02 1.65.06 34.11.06 34.44h-.69Z" fill="#868A91"/><path d="M362.2 917.591s-31.86 1.669-31.86-33.611c.01.01 30.83.391 31.86 33.611Z" class="change-color-in-svg" fill="#4D61FC" style="fill:#158566"/><path opacity=".4" d="M362.2 917.591s-31.86 1.669-31.86-33.611c.01.01 30.83.391 31.86 33.611Z" fill="#fff"/><path d="M392.31 931.301s8.67-24.27 36.07-18.16c0-.01-4.55 20.43-36.07 18.16Z" class="change-color-in-svg" fill="#4D61FC" style="fill:#158566"/><path opacity=".4" d="M392.31 931.301s8.67-24.27 36.07-18.16c0-.01-4.55 20.43-36.07 18.16Z" fill="#fff"/><path d="M376.85 1004.57h-56.38v7.1h56.38v-7.1Z" fill="#868A91"/><path d="M369.7 1057.99h-42.08l-3.15-46.32h48.38l-3.15 46.32Z" fill="#868A91"/><path d="M369.7 1057.99h-42.08l-3.15-46.32h48.38l-3.15 46.32Z" fill="#868A91"/><path d="M376.85 1004.57h-9.11v7.1h-43.27l.13 1.95h34.68l.14 44.37h10.28l3.15-46.32h4v-7.1Z" fill="#61656D"/><path d="M356.26 845.291s-15.58-23.56 4.68-46.16c.01 0 13.48 22.99-4.68 46.16Z" class="change-color-in-svg" fill="#4D61FC" style="fill:#158566"/><path opacity=".4" d="M356.26 845.291s-15.58-23.56 4.68-46.16c.01 0 13.48 22.99-4.68 46.16Z" fill="#fff"/><path d="M370.43 892.789s-17.12-36.57 13.46-59.1c0 0 21.11 33.09-13.46 59.1Z" class="change-color-in-svg" fill="#4D61FC" style="fill:#158566"/><path opacity=".4" d="M370.4 892.789s-17.12-36.57 13.46-59.1c-.01 0 21.11 33.09-13.46 59.1Z" fill="#fff"/><path d="M374.53 955.31s4.18-15.94 25.94-12.56c0 0-3.56 16.16-25.94 12.56ZM344.77 962.641s-4.77-30.9 23.46-34.51c.01 0 6.77 26.79-23.46 34.51Z" class="change-color-in-svg" fill="#4D61FC" style="fill:#158566"/><path opacity=".4" d="M344.77 962.641s-4.77-30.9 23.46-34.51c.01 0 6.77 26.79-23.46 34.51Z" fill="#fff"/><path d="M286.88 830.329s17-1.74 20.28 14.55c0 0-15.32 1.87-20.28-14.55Z" class="change-color-in-svg" fill="#4D61FC" style="fill:#158566"/><path opacity=".3" d="M286.88 830.329s17-1.74 20.28 14.55c0 0-15.32 1.87-20.28-14.55Z" fill="#fff"/><path d="M328.36 828.609s-21.15 22.01-.5 45.98c0 .01 20.77-23.45.5-45.98Z" class="change-color-in-svg" fill="#4D61FC" style="fill:#158566"/><path opacity=".4" d="M328.36 828.609s-21.15 22.01-.5 45.98c0 .01 20.77-23.45.5-45.98Z" fill="#fff"/><path d="M1362.41 1059.17H239.24c-.35 0-.59-.24-.59-.59s.24-.59.59-.59h1123.29c.35 0 .59.24.59.59s-.36.59-.71.59Z" fill="#B1B5BA"/><path d="M989.53 242.471c-.08 0-.16.01-.24.01h-5.89l-2.41 1.03c-15.55 3.82-27.08 17.85-27.08 34.58 0 16.94 11.83 31.11 27.68 34.72l1.81.9h6.13c19.67 0 35.61-15.95 35.61-35.61 0-19.68-15.94-35.63-35.61-35.63Z" class="change-color-in-svg" fill="#4D61FC" style="fill:#158566"/><path opacity=".2" d="M989.53 242.471c-.08 0-.16.01-.24.01h-5.89l-2.41 1.03c-15.55 3.82-27.08 17.85-27.08 34.58 0 16.94 11.83 31.11 27.68 34.72l1.17.9h6.76c19.67 0 35.61-15.95 35.61-35.61.01-19.68-15.93-35.63-35.6-35.63Z" fill="#000"/><path d="M983.4 313.7c-19.67 0-35.61-15.95-35.61-35.61 0-19.67 15.95-35.61 35.61-35.61 19.67 0 35.61 15.95 35.61 35.61.01 19.67-15.94 35.61-35.61 35.61Z" class="change-color-in-svg" fill="#4D61FC" style="fill:#158566"/><path d="m977.56 294.72-13.84-13.84c-.44-.44-.44-1.15 0-1.59l4.15-4.15c.44-.44 1.15-.44 1.59 0l8.89 8.89 17.74-17.72c.44-.44 1.15-.44 1.59 0l4.15 4.15c.44.44.44 1.15 0 1.59l-22.69 22.67c-.42.44-1.14.44-1.58 0Z" fill="#fff"/><path d="m750.56 347.011.02 340.72a7.93 7.93 0 0 0 7.93 7.93l493.33-.02a7.93 7.93 0 0 0 7.93-7.93l-.02-340.72a7.93 7.93 0 0 0-7.93-7.93l-493.33.02c-4.38-.01-7.93 3.55-7.93 7.93Z" class="change-color-in-svg" fill="#4D61FC" style="fill:#158566"/><path opacity=".3" d="m750.56 347.011.02 340.72a7.93 7.93 0 0 0 7.93 7.93l493.33-.02a7.93 7.93 0 0 0 7.93-7.93l-.02-340.72a7.93 7.93 0 0 0-7.93-7.93l-493.33.02c-4.38-.01-7.93 3.55-7.93 7.93Z" fill="#fff"/><path opacity=".3" d="m750.56 347.011.02 340.72a7.93 7.93 0 0 0 7.93 7.93l493.33-.02a7.93 7.93 0 0 0 7.93-7.93l-.02-340.72a7.93 7.93 0 0 0-7.93-7.93l-493.33.02c-4.38-.01-7.93 3.55-7.93 7.93Z" fill="#fff"/><path d="m1219.15 339.051-1.4 23.74h42.01v-15.81a7.93 7.93 0 0 0-7.93-7.93h-32.68Z" fill="#21252B"/><path d="m744.58 347.011.02 340.72a7.93 7.93 0 0 0 7.93 7.93l493.33-.02a7.93 7.93 0 0 0 7.93-7.93l-.02-340.72a7.93 7.93 0 0 0-7.93-7.93l-493.33.02c-4.38-.01-7.93 3.55-7.93 7.93Z" class="change-color-in-svg" fill="#4D61FC" style="fill:#158566"/><path opacity=".7" d="m744.58 347.011.02 340.72a7.93 7.93 0 0 0 7.93 7.93l493.33-.02a7.93 7.93 0 0 0 7.93-7.93l-.02-340.72a7.93 7.93 0 0 0-7.93-7.93l-493.33.02c-4.38-.01-7.93 3.55-7.93 7.93Z" fill="#fff"/><path d="M1174.7 403.029H826.25a3.83 3.83 0 0 1-3.83-3.83v-15.34a3.83 3.83 0 0 1 3.83-3.83h348.46a3.83 3.83 0 0 1 3.83 3.83v15.34a3.845 3.845 0 0 1-3.84 3.83Z" fill="#fff"/><path d="M1167.46 388.32c-1.7-1.7-4.46-1.7-6.16 0-1.7 1.7-1.7 4.46 0 6.16 1.55 1.55 3.99 1.67 5.7.38l2.43 2.43.84-.84-2.43-2.43c1.28-1.71 1.17-4.15-.38-5.7Zm-.84 5.32a3.163 3.163 0 0 1-4.48 0 3.172 3.172 0 0 1 0-4.48 3.163 3.163 0 0 1 4.48 0 3.18 3.18 0 0 1 0 4.48ZM1219.15 387.74h-12.9v1.27h12.9v-1.27ZM1219.15 392.26h-12.9v1.27h12.9v-1.27ZM1219.15 396.779h-12.9v1.27h12.9v-1.27Z" class="change-color-in-svg" fill="#4D61FC" style="fill:#158566"/><path d="M1253.78 346.981a7.93 7.93 0 0 0-7.93-7.93l-493.33.02a7.93 7.93 0 0 0-7.93 7.93v15.83h509.2l-.01-15.85Z" fill="#3F4249"/><path d="M782.39 403.029h-14.84c-2.25 0-4.08-1.83-4.08-4.08v-14.84c0-2.25 1.83-4.08 4.08-4.08h14.84c2.25 0 4.08 1.83 4.08 4.08v14.84c0 2.25-1.83 4.08-4.08 4.08Z" class="change-color-in-svg" fill="#4D61FC" style="fill:#158566"/><path d="M771.45 387.34v8.58c0 .44.48.7.85.48l7.09-4.29c.36-.22.36-.74 0-.96l-7.09-4.29a.563.563 0 0 0-.85.48Z" fill="#fff"/><path opacity=".5" d="M1007.46 579.531H767.82c-2.4 0-4.35-1.95-4.35-4.35v-152.52c0-2.4 1.95-4.35 4.35-4.35h239.64c2.4 0 4.35 1.95 4.35 4.35v152.52c0 2.4-1.95 4.35-4.35 4.35Z" class="change-color-in-svg" fill="#4D61FC" style="fill:#158566"/><path opacity=".8" d="M1104.35 469.551h-75.46c-.96 0-1.74-.78-1.74-1.74v-47.77c0-.96.78-1.74 1.74-1.74h75.46c.96 0 1.74.78 1.74 1.74v47.77c0 .96-.78 1.74-1.74 1.74ZM1104.35 532.92h-75.46c-.96 0-1.74-.78-1.74-1.74v-47.77c0-.96.78-1.74 1.74-1.74h75.46c.96 0 1.74.78 1.74 1.74v47.77c0 .97-.78 1.74-1.74 1.74ZM1104.35 596.301h-75.46c-.96 0-1.74-.78-1.74-1.74v-47.77c0-.96.78-1.74 1.74-1.74h75.46c.96 0 1.74.78 1.74 1.74v47.77c0 .96-.78 1.74-1.74 1.74ZM1104.35 659.67h-75.46c-.96 0-1.74-.78-1.74-1.74v-47.77c0-.96.78-1.74 1.74-1.74h75.46c.96 0 1.74.78 1.74 1.74v47.77c0 .96-.78 1.74-1.74 1.74Z" fill="#fff"/><g opacity=".8" fill="#fff"><path opacity=".8" d="M1228.8 422.821h-108.03c-1.25 0-2.26-1.01-2.26-2.26 0-1.25 1.01-2.26 2.26-2.26h108.03c1.25 0 2.26 1.01 2.26 2.26 0 1.25-1.01 2.26-2.26 2.26ZM1228.8 439.17h-108.03c-1.25 0-2.26-1.01-2.26-2.26 0-1.25 1.01-2.26 2.26-2.26h108.03c1.25 0 2.26 1.01 2.26 2.26 0 1.25-1.01 2.26-2.26 2.26ZM1180.65 455.52h-59.87c-1.25 0-2.26-1.01-2.26-2.26 0-1.25 1.01-2.26 2.26-2.26h59.87c1.25 0 2.26 1.01 2.26 2.26a2.27 2.27 0 0 1-2.26 2.26Z"/></g><g opacity=".8" fill="#fff"><path opacity=".8" d="M1228.8 486.19h-108.03c-1.25 0-2.26-1.01-2.26-2.26 0-1.25 1.01-2.26 2.26-2.26h108.03c1.25 0 2.26 1.01 2.26 2.26 0 1.25-1.01 2.26-2.26 2.26ZM1228.8 502.54h-108.03c-1.25 0-2.26-1.01-2.26-2.26 0-1.25 1.01-2.26 2.26-2.26h108.03c1.25 0 2.26 1.01 2.26 2.26 0 1.25-1.01 2.26-2.26 2.26ZM1180.65 518.889h-59.87c-1.25 0-2.26-1.01-2.26-2.26 0-1.25 1.01-2.26 2.26-2.26h59.87c1.25 0 2.26 1.01 2.26 2.26a2.27 2.27 0 0 1-2.26 2.26Z"/></g><g opacity=".8" fill="#fff"><path opacity=".8" d="M1228.8 549.559h-108.03c-1.25 0-2.26-1.01-2.26-2.26 0-1.25 1.01-2.26 2.26-2.26h108.03c1.25 0 2.26 1.01 2.26 2.26 0 1.25-1.01 2.26-2.26 2.26ZM1228.8 565.909h-108.03c-1.25 0-2.26-1.01-2.26-2.26 0-1.25 1.01-2.26 2.26-2.26h108.03c1.25 0 2.26 1.01 2.26 2.26 0 1.25-1.01 2.26-2.26 2.26ZM1180.65 582.258h-59.87c-1.25 0-2.26-1.01-2.26-2.26 0-1.25 1.01-2.26 2.26-2.26h59.87c1.25 0 2.26 1.01 2.26 2.26a2.27 2.27 0 0 1-2.26 2.26Z"/></g><g opacity=".8" fill="#fff"><path opacity=".8" d="M1228.8 612.93h-108.03c-1.25 0-2.26-1.01-2.26-2.26 0-1.25 1.01-2.26 2.26-2.26h108.03c1.25 0 2.26 1.01 2.26 2.26 0 1.25-1.01 2.26-2.26 2.26ZM1228.8 629.28h-108.03c-1.25 0-2.26-1.01-2.26-2.26 0-1.25 1.01-2.26 2.26-2.26h108.03c1.25 0 2.26 1.01 2.26 2.26 0 1.25-1.01 2.26-2.26 2.26ZM1180.65 645.629h-59.87c-1.25 0-2.26-1.01-2.26-2.26 0-1.25 1.01-2.26 2.26-2.26h59.87c1.25 0 2.26 1.01 2.26 2.26a2.27 2.27 0 0 1-2.26 2.26Z"/></g><g opacity=".8" fill="#fff"><path opacity=".8" d="M975.99 638.549h-176.7c-1.18 0-2.14-.96-2.14-2.14v-.23c0-1.18.96-2.14 2.14-2.14H976c1.18 0 2.14.96 2.14 2.14v.23a2.151 2.151 0 0 1-2.15 2.14ZM975.99 654.899h-176.7c-1.18 0-2.14-.96-2.14-2.14v-.23c0-1.18.96-2.14 2.14-2.14H976c1.18 0 2.14.96 2.14 2.14v.23a2.151 2.151 0 0 1-2.15 2.14ZM898.55 671.248h-99.26c-1.18 0-2.14-.96-2.14-2.14v-.23c0-1.18.96-2.14 2.14-2.14h99.26c1.18 0 2.14.96 2.14 2.14v.23c0 1.18-.96 2.14-2.14 2.14Z"/></g><g opacity=".8" fill="#fff"><path opacity=".8" d="M1228.8 676.299h-108.03c-1.25 0-2.26-1.01-2.26-2.26 0-1.25 1.01-2.26 2.26-2.26h108.03c1.25 0 2.26 1.01 2.26 2.26 0 1.25-1.01 2.26-2.26 2.26ZM1228.8 692.649h-108.03c-1.25 0-2.26-1.01-2.26-2.26 0-1.25 1.01-2.26 2.26-2.26h108.03c1.25 0 2.26 1.01 2.26 2.26 0 1.25-1.01 2.26-2.26 2.26Z"/></g><path opacity=".8" d="M1106.09 695.651v-22.11c0-.96-.78-1.74-1.74-1.74h-75.46c-.96 0-1.74.78-1.74 1.74v22.11h78.94Z" fill="#fff"/><path d="M791.23 565.93v7.26l6.01-3.63-6.01-3.63ZM807.08 573.19l6-3.63-6-3.63v7.26ZM813.08 565.93v7.26h1.52v-7.26h-1.52ZM780.94 573.19l-6-3.63 6-3.63v7.26ZM774.94 565.93v7.26h-1.51v-7.26h1.51ZM1004.5 557.939H770.78v.99h233.72v-.99Z" fill="#fff"/><path d="M907.75 557.439H770.78v1.99h136.97v-1.99Z" class="change-color-in-svg" fill="#4D61FC" style="fill:#158566"/><path d="M908.2 561.78c1.84 0 3.34-1.5 3.34-3.34 0-1.85-1.49-3.34-3.34-3.34-1.85 0-3.34 1.49-3.34 3.34 0 1.85 1.49 3.34 3.34 3.34Z" class="change-color-in-svg" fill="#4D61FC" style="fill:#158566"/><path d="M895.06 510.42h-14.84c-2.25 0-4.08-1.83-4.08-4.08V491.5c0-2.25 1.83-4.08 4.08-4.08h14.84c2.25 0 4.08 1.83 4.08 4.08v14.84c0 2.25-1.83 4.08-4.08 4.08Z" fill="#fff"/><path d="M884.12 494.73v8.58c0 .44.48.7.85.48l7.09-4.29c.36-.22.36-.74 0-.96l-7.09-4.29a.563.563 0 0 0-.85.48Z" class="change-color-in-svg" fill="#4D61FC" style="fill:#158566"/><path opacity=".5" d="M1069.64 448.62h-6.05c-.92 0-1.66-.75-1.66-1.66v-6.05c0-.92.74-1.66 1.66-1.66h6.05c.92 0 1.66.75 1.66 1.66v6.05c.01.92-.74 1.66-1.66 1.66Z" class="change-color-in-svg" fill="#4D61FC" style="fill:#158566"/><path opacity=".8" d="M1065.18 442.23v3.5c0 .18.19.29.35.2l2.89-1.75c.15-.09.15-.3 0-.39l-2.89-1.75c-.15-.1-.35.01-.35.19Z" fill="#fff"/><path opacity=".5" d="M1069.64 511.989h-6.05c-.92 0-1.66-.75-1.66-1.66v-6.05c0-.92.74-1.66 1.66-1.66h6.05c.92 0 1.66.75 1.66 1.66v6.05c.01.92-.74 1.66-1.66 1.66Z" class="change-color-in-svg" fill="#4D61FC" style="fill:#158566"/><path opacity=".8" d="M1065.18 505.601v3.5c0 .18.19.29.35.2l2.89-1.75c.15-.09.15-.3 0-.39l-2.89-1.75c-.15-.1-.35.01-.35.19Z" fill="#fff"/><path opacity=".5" d="M1069.64 575.36h-6.05c-.92 0-1.66-.75-1.66-1.66v-6.05c0-.92.74-1.66 1.66-1.66h6.05c.92 0 1.66.75 1.66 1.66v6.05c.01.92-.74 1.66-1.66 1.66Z" class="change-color-in-svg" fill="#4D61FC" style="fill:#158566"/><path opacity=".8" d="M1065.18 568.97v3.5c0 .18.19.29.35.2l2.89-1.75c.15-.09.15-.3 0-.39l-2.89-1.75c-.15-.1-.35.01-.35.19Z" fill="#fff"/><path opacity=".5" d="M1069.64 638.729h-6.05c-.92 0-1.66-.74-1.66-1.66v-6.05c0-.92.74-1.66 1.66-1.66h6.05c.92 0 1.66.75 1.66 1.66v6.05c.01.92-.74 1.66-1.66 1.66Z" class="change-color-in-svg" fill="#4D61FC" style="fill:#158566"/><path opacity=".8" d="M1065.18 632.339v3.5c0 .18.19.29.35.2l2.89-1.75c.15-.09.15-.3 0-.39l-2.89-1.75c-.15-.1-.35.01-.35.19Z" fill="#fff"/><path d="M985.01 567.379h1.3v-2.48h2.47v-1.29h-3.77v3.77ZM993.01 563.609v1.29h2.47v2.48h1.3v-3.77h-3.77ZM995.48 573.701h-2.47V575h3.77v-3.77h-1.3v2.471ZM986.31 571.23h-1.3V575h3.77v-1.299h-2.47v-2.471ZM977.9 563.65h-20.56v11.34h20.56v-11.34Z" fill="#fff"/><path opacity=".5" d="M937.28 612.09H799.39c-1.24 0-2.24-1-2.24-2.24v-4.1c0-1.24 1-2.24 2.24-2.24h137.89c1.24 0 2.24 1 2.24 2.24v4.1c.01 1.24-1 2.24-2.24 2.24Z" class="change-color-in-svg" fill="#4D61FC" style="fill:#158566"/><path d="M782.36 619.301h-14.84c-2.25 0-4.08-1.83-4.08-4.08v-14.84c0-2.25 1.83-4.08 4.08-4.08h14.84c2.25 0 4.08 1.83 4.08 4.08v14.84c0 2.25-1.82 4.08-4.08 4.08Z" fill="#fff"/><path d="M782.18 611.23h-14.16v3.56h14.16v-3.56Z" class="change-color-in-svg" fill="#4D61FC" style="fill:#158566"/><path opacity=".5" d="M778.88 601.859h-7.56v7.21h7.56v-7.21Z" class="change-color-in-svg" fill="#4D61FC" style="fill:#158566"/><path opacity=".7" d="M1011.07 615.18h-17.51c-.61 0-1.1-.49-1.1-1.1v-13.13c0-.61.49-1.1 1.1-1.1h17.51c.61 0 1.1.49 1.1 1.1v13.13c0 .61-.49 1.1-1.1 1.1Z" fill="#fff"/><path d="M1002.98 610.721c-.4.29-.94.29-1.34 0-2.88-2.09-4.17-5-2.43-6.29 1.02-.76 2.39-.09 2.9.78.09.15.3.15.39 0 .52-.87 1.88-1.54 2.9-.78 1.75 1.29.46 4.2-2.42 6.29ZM763.47 355.869c2.72 0 4.92-2.2 4.92-4.92 0-2.72-2.2-4.92-4.92-4.92-2.72 0-4.92 2.2-4.92 4.92 0 2.72 2.2 4.92 4.92 4.92Z" class="change-color-in-svg" fill="#4D61FC" style="fill:#158566"/><path d="M781.2 355.869c2.72 0 4.92-2.2 4.92-4.92 0-2.72-2.2-4.92-4.92-4.92-2.72 0-4.92 2.2-4.92 4.92 0 2.72 2.2 4.92 4.92 4.92Z" fill="#DADDDF"/><path d="M798.92 355.869c2.72 0 4.92-2.2 4.92-4.92 0-2.72-2.2-4.92-4.92-4.92-2.72 0-4.92 2.2-4.92 4.92 0 2.72 2.2 4.92 4.92 4.92Z" fill="#21252B"/><path d="m812.98 522.68-7.57 12.37 5.62 3.06 4.78-11.64c.63-1.55.01-3.32-1.45-4.13-.49-.26-1.08-.11-1.38.34Z" fill="#F99A9A"/><path opacity=".15" d="m812.61 534.24 3.19-7.77c.63-1.55.01-3.32-1.45-4.13-.1 1.13-.49 2.22-1.12 3.17l-4.13 6.22s1.82 1.33 3.51 2.51Z" fill="#000"/><path d="M834.55 512.181c-.76-.75-1.97-.8-2.79-.11l-33.14 28.02-2.13 9.51 8.91 8.91 26.9-17.45c.01 0 .01-.01.02-.01.77-.49 1.28-1.35 1.28-2.33 0-1.43-1.09-2.58-2.47-2.74l-.07-.1c.54-.56.89-1.32.89-2.16 0-1.72-1.39-3.11-3.11-3.11-.18 0-.35.02-.52.05a3.102 3.102 0 0 0-3.52-4.92l9.82-10.69c.75-.81.72-2.08-.07-2.87Z" fill="#F99A9A"/><path opacity=".15" d="m805.4 558.519 26.9-17.45c.01 0 .01-.01.02-.01.77-.49 1.28-1.35 1.28-2.33 0-.85-.39-1.61-1-2.11a4.774 4.774 0 0 1-2.56 3.05l-20.38 11.01c-.77.42-1.73.19-2.24-.53l-7.67-11.01-1.13.96 4.17 15.81 2.61 2.61Z" fill="#000"/><path d="M655.37 455.12c-.43.09-.56.57-.46 1 .09.43.57.56 1 .46l3.41-.95c1.68-.59 2.66-2.38 2.07-4.06-.38-1.08-1.25-1.87-2.28-2.14-1.37-.36-2.32-1.61-2.51-3.01-.08-.62-.15-1.12-.19-1.25-2.36-7.09-1.04 9.95-1.04 9.95Z" fill="#F99A9A"/><path opacity=".15" d="M661.39 451.57c-.3-.86-.91-1.52-1.66-1.9.04.09.08.18.12.28.59 1.68-.39 3.47-2.07 4.06l-2.45.68.03.42c-.43.09-.56.57-.46 1 .09.43.57.56 1 .46l3.41-.95c1.69-.58 2.67-2.37 2.08-4.05Z" fill="#000"/><path d="m654.36 431.93 5.57 35.76a10.94 10.94 0 0 1-7.06 11.96l-5.46 1.84-.27 19.65-11.68.95-22.29-.75 3.02-20.44 2.29-24.4 18.85-22.95 17.03-1.62Z" fill="#F99A9A"/><path d="M655.11 421.13c1.64 5.39 4.78 8.46.09 11.59l-2.03 1.35a6.736 6.736 0 0 0-3 5.75c.08 3.59-1.4 5.98-4.81 7.35-.43.17-.64.65-.51 1.1l.35 1.18 1.18 4.55a1.98 1.98 0 0 1-1.34 2.35c-.97.3-2.02-.19-2.41-1.13l-1.56-3-5.36 5.57-1.37 16.77a7.237 7.237 0 0 1-6.7 6.63l-11.15.58c-.58.03-1.11-.31-1.32-.85-1.79-4.65-4.13-9.06-6.93-13.18-4.83-7.1-8.13-14.14-8.69-22.67 0 0 8.84-5.92 11.96-7.52l-.81-4.94c-.85-5.11-1.21-3.25 3.58-5.24l9.36-3.88c9.7-4.04 17.83-5.24 28.19-3.46 4.75.83 3.28 1.1 3.28 1.1Z" fill="#21252B"/><path d="M651.65 413.161c-4.49-1.27-8.35-.29-10.73 1.76-1.42 1.44-3.28 1.38-5.1.12-2.76-2-7.23-5.19-13.61-2.91-8.36 2.83-10.19 8.83-10.74 11.91-.12 1.37-1.04 2.39-2.12 3.03-3.59 2.07-10.3 8-9.9 16.87.61 15.61 29.62 9.31 29.62 9.31-1.65-3.09-.29-6.93 2.88-8.39l23.25-12.14c7.51-3.97 5.4-16.9-3.55-19.56Z" fill="#21252B"/><path opacity=".15" d="m635.19 456.689.53 1.1s2.41.56 4.8.77l-5.38 3.1.05-4.97Z" fill="#000"/><path d="M641.45 453.15c1.16 3.14 2.34 5.41-1.91 5.72-8.1.57-10.45-10-6.11-12.76 3.82-2.41 5.78 1.33 5.78 1.33s-.01 0 2.24 5.71Z" fill="#FC9D9D"/><path opacity=".3" d="M639 452.06c-.3-1.11-.58-2.07-1.26-2.83-.66-.62-1.3-1.11-2.03-1.15-.72-.04-1.41.2-2.17.88-.12.16-.22.46-.02.86.18.26.46.22.72.04.5-.5 1.05-.72 1.49-.64.42-.06.76.32 1.26.83.66.62 1 2.01 1.04 2.29l.28.96c.04.28.34.38.62.34.28-.04.38-.34.34-.62l-.27-.96Z" fill="#000"/><path d="M660.34 450.14a.857.857 0 0 1-.88-.62l-3.63-12.12c-.13-.45.13-.92.59-1.05.46-.13.92.13 1.05.59l3.63 12.12c.13.45-.13.92-.59 1.05-.05.02-.11.03-.17.03Z" fill="#21252B"/><path d="m657.97 441.77-18.78 5.54.48 1.63 18.78-5.54-.48-1.63Z" fill="#21252B"/><path d="m554.49 677.53-4.05-.8c-.6-.12-1.21.14-1.54.65-.52.81-.15 1.89.76 2.2 1.3.45 3.12 1.08 4.72 1.64 2.17.75 4.57.22 6.23-1.36l5.01-4.81c3.08-2.95 4.17-7.41 2.81-11.45l-7-20.75-16.11 6.94 6.51 12.65-.31 2.28c-.25 1.88-.07 3.8.54 5.6l2.43 7.21Z" fill="#FA9B9B"/><path opacity=".15" d="m554.49 677.53-3.97-.78c-.55-.11-1.15.05-1.51.49-.32.39-.4.86-.3 1.29l4.57 1.18c.86.22 1.63-.56 1.41-1.42l-.2-.76Z" fill="#000"/><path d="m617.75 1041.1 53.87 1.27-20.64-14.74a13.912 13.912 0 0 1-4.76-6.04c-.77-1.91-1.02-3.99-.88-6.05l1-14.68-29.05-.05.46 40.29Z" fill="#FA9B9B"/><path opacity=".15" d="M646.23 1021.59c-.78-1.91-1.02-3.99-.88-6.05l1-14.68-29.05-.05.17 15.43 16.6 1.92a3.12 3.12 0 0 1 2.72 2.55c.72 4.09 2.85 12.47 8.37 14.51 2.3.85 6.5 3.52 11.19 6.81l15.27.36-20.64-14.74a14.135 14.135 0 0 1-4.75-6.06Z" fill="#000"/><path d="M616.32 1031.93v20.16c0 3.27 2.63 5.9 5.9 5.9h68.53c1.35 0 2.47-1.12 2.47-2.47 0-4.78-3.11-9.08-7.65-10.6l-15.46-5.1-19.6-15.22c-1.99-1.59-4.86-1.51-6.85.16l-8.69 7.41c-1.28 1.12-3.03 1.43-4.62.96l-11-3.43c-1.59-.4-3.03.72-3.03 2.23Z" fill="#3F4249"/><path d="M622.22 1057.99h68.53c1.35 0 2.47-1.12 2.47-2.47 0-.88-.08-1.67-.32-2.47h-76.5c.48 2.79 2.87 4.94 5.82 4.94Z" fill="#000"/><path d="M650.11 1032.65c-.16 0-.32-.08-.4-.16a.628.628 0 0 1 0-.88l4.14-4.46c.24-.24.64-.24.88 0s.24.64 0 .88l-4.14 4.46c-.16.08-.32.16-.48.16ZM653.38 1035.2c-.16 0-.32-.08-.4-.16a.628.628 0 0 1 0-.88l4.14-4.46c.24-.24.64-.24.88 0s.24.64 0 .88l-4.14 4.46c-.16.08-.32.16-.48.16ZM656.65 1037.75c-.16 0-.32-.08-.4-.16a.628.628 0 0 1 0-.88l4.14-4.46c.24-.24.64-.24.88 0s.24.64 0 .88l-4.14 4.46c-.09.08-.25.16-.48.16Z" fill="#fff"/><path d="m509.01 1018.13-46.23 19.84 15.01-19.16c2.73-3.23 5.43-6.12 7.18-12.14l5.06-18.591 28.94-6.39-9.96 36.441Z" fill="#FA9B9B"/><path opacity=".15" d="m498.47 1022.65 10.54-4.52 9.96-36.441-28.94 6.39-4.63 17.041 15.5-.1c1.7-.01 2.91 1.66 2.38 3.27l-4.81 14.36Z" fill="#000"/><path d="m513.89 1014.43 4.89 19.56a5.882 5.882 0 0 1-4.29 7.15L448 1057.76c-1.31.33-2.67-.48-3-1.8-1.16-4.64.81-9.57 4.85-12.14l13.76-8.7 15.33-19.52c1.55-2.03 4.35-2.65 6.69-1.51l10.22 5.08c1.51.77 3.29.66 4.72-.19l9.84-5.99c1.45-.76 3.12-.03 3.48 1.44Z" fill="#3F4249"/><path d="M514.49 1041.14 448 1057.76c-1.31.33-2.67-.48-3-1.8-.21-.85-.33-1.64-.29-2.47l74.22-18.55c.22 2.82-1.58 5.49-4.44 6.2Z" fill="#000"/><path d="M481.29 1023.32c.15-.04.29-.15.35-.25.17-.29.08-.68-.21-.85l-5.1-3.32a.627.627 0 0 0-.85.21c-.17.29-.08.68.21.85l5.1 3.32c.17.04.34.08.5.04ZM478.74 1026.59c.15-.04.29-.15.35-.25.17-.29.08-.68-.21-.85l-5.1-3.32a.627.627 0 0 0-.85.21c-.17.29-.08.68.21.85l5.1 3.32c.17.04.34.07.5.04ZM476.19 1029.85c.15-.04.29-.15.35-.25.17-.29.08-.68-.21-.85l-5.1-3.32a.627.627 0 0 0-.85.21c-.17.29-.08.68.21.85l5.1 3.32c.09.06.26.1.5.04Z" fill="#fff"/><path d="m606.72 500.679 4.02-6.98a3.281 3.281 0 0 1 2.96-1.64l33.7 1.24c1.54.06 2.83 1.18 3.11 2.69l1.25 6.86 31.47 9.79a27.873 27.873 0 0 1 15.19 11.59l30.8 48.16 69.41-32.31 10.49 18.35-79.97 47.64c-6.56 3.91-15 2.4-19.79-3.54l-29.13-36.07-22.44 127.25H562.5l8.17-135.16-27.94 27.27 22.48 66.4-15.84 7.52-38.4-70.89a17.271 17.271 0 0 1 2.36-19.79l51.55-57.17c4.7-5.21 11.2-8.46 18.19-9.09l23.65-2.12Z" class="change-color-in-svg" fill="#4D61FC" style="fill:#158566"/><path d="m563.16 684.5-78.67 314.95 31.46-1.64 86.97-269.59c.33-1.01 1.27-1.7 2.33-1.7 1.32 0 2.4 1.05 2.45 2.37l9.21 282.42h29.9l11.62-326.81h-95.27Z" fill="#21252B"/><path opacity=".4" d="M591.24 731.909 504.11 998.43l11.83-.62 86.97-269.591a2.458 2.458 0 0 1 2.33-1.699h-6.57c-3.37 0-6.37 2.179-7.43 5.389Z" fill="#000"/><path d="m636.87 684.5-1.05 326.81h10.98l12.59-326.81h-22.52ZM563.16 684.5l.49-8.08h97.17l-1.43 8.08h-96.23Z" fill="#000"/><path opacity=".15" d="m564.46 658.67.15.18.34-5.57-.27-.79-14.44 6.86.95 1.85 9.02-3.61c1.5-.61 3.23-.17 4.25 1.08ZM657.6 476.26l-7.44.53a2.972 2.972 0 0 0-2.76 2.97v1.73l5.46-1.84c1.92-.7 3.53-1.89 4.74-3.39ZM651.76 502.849l-.29-1.62-36.73-1.41a.8.8 0 0 0-.83.7c-.06.47.3.89.77.91l37.08 1.42Z" fill="#000"/><path d="M795.29 546.919a.939.939 0 1 0 0-1.88.939.939 0 1 0 0 1.88ZM794.35 566.351a.939.939 0 1 0 0-1.88.939.939 0 1 0 0 1.88ZM765.7 569.329a.939.939 0 1 0 0-1.88.939.939 0 1 0 0 1.88ZM728.28 575.95a.939.939 0 1 0 0-1.88.939.939 0 1 0 0 1.88ZM738.72 598.36a.939.939 0 1 0 0-1.88.939.939 0 1 0 0 1.88ZM708.97 549.441a.939.939 0 1 0 0-1.88.939.939 0 1 0 0 1.88ZM700.49 586.771a.939.939 0 1 0 0-1.88.939.939 0 1 0 0 1.88ZM642.53 508.31a.939.939 0 1 0 0-1.88.939.939 0 1 0 0 1.88ZM680.21 548.511a.939.939 0 1 0 0-1.88.939.939 0 1 0 0 1.88ZM665.61 583.04a.939.939 0 1 0 0-1.88.939.939 0 1 0 0 1.88ZM628.61 559.46a.939.939 0 1 0 0-1.88.939.939 0 1 0 0 1.88ZM651.76 535.181a.939.939 0 1 0 0-1.88.939.939 0 1 0 0 1.88ZM614.83 494.64a.939.939 0 1 0 0-1.88.939.939 0 1 0 0 1.88ZM588.21 552.931a.939.939 0 1 0 0-1.88.939.939 0 1 0 0 1.88ZM605.25 583.98a.939.939 0 1 0 0-1.88.939.939 0 1 0 0 1.88ZM633.76 599.29a.939.939 0 1 0 0-1.88.939.939 0 1 0 0 1.88ZM660.82 622.63a.939.939 0 1 0 0-1.88.939.939 0 1 0 0 1.88ZM575.37 599.29a.939.939 0 1 0 0-1.88.939.939 0 1 0 0 1.88ZM608.05 663.15a.939.939 0 1 0 0-1.88.939.939 0 1 0 0 1.88ZM571.45 639.829a.939.939 0 1 0 0-1.88.939.939 0 1 0 0 1.88ZM578.44 673.7a.939.939 0 1 0 0-1.88.939.939 0 1 0 0 1.88ZM607.12 624.499a.939.939 0 1 0 0-1.88.939.939 0 1 0 0 1.88ZM652.69 670.159a.939.939 0 1 0 0-1.88.939.939 0 1 0 0 1.88ZM635.15 640.771a.939.939 0 1 0 0-1.88.939.939 0 1 0 0 1.88ZM542.26 549.441a.939.939 0 1 0 0-1.88.939.939 0 1 0 0 1.88ZM515.47 589.05a.939.939 0 1 0 0-1.88.939.939 0 1 0 0 1.88ZM545.32 575.95a.939.939 0 1 0 0-1.88.939.939 0 1 0 0 1.88ZM544.39 609.191a.939.939 0 1 0 0-1.88.939.939 0 1 0 0 1.88ZM536.49 627.56a.939.939 0 1 0 0-1.88.939.939 0 1 0 0 1.88ZM556.14 648.21a.939.939 0 1 0 0-1.88.939.939 0 1 0 0 1.88ZM607.02 526.54a.939.939 0 1 0 0-1.88.939.939 0 1 0 0 1.88ZM579.37 512.521a.939.939 0 1 0 0-1.88.939.939 0 1 0 0 1.88ZM685.6 517.521a.939.939 0 1 0 0-1.88.939.939 0 1 0 0 1.88Z" fill="#fff"/><path opacity=".15" d="m680.21 566.481-3.89-4.84c-2.91-3.61-8.67-2.48-10 1.96l-33.68 112.82h28.17l19.4-109.94ZM542.73 585.831l-.88-2.58a9.838 9.838 0 0 1 2.66-10.43l23.15-21.24c1.3-1.19 3.39-.21 3.3 1.56l-.28 5.42-27.95 27.27ZM729.21 572.4l-30.8-48.16a27.873 27.873 0 0 0-15.19-11.59l-5.78-1.8s11 8.86 14.61 14.92l28.6 47.98a2.576 2.576 0 0 0 3.26 1.03l5.3-2.38ZM806.6 554.08l-90.02 49.01c-2.54 1.38-5.61.9-7.61-1l.37.46a15.34 15.34 0 0 0 19.79 3.54l79.97-47.64-2.5-4.37Z" fill="#000"/></svg>