<svg class="gridItem__media" xmlns="http://www.w3.org/2000/svg" width="1600" height="1200" style="enable-background:new 0 0 1600 1200" xml:space="preserve" fill="none"><path d="m1346.1 1027.7 35.8-520.2c1-14.1-3.5-28-12.5-38.9l-231.1-279c-11.5-13.8-29-21.2-46.9-19.7L417 225.7c-21.6 1.8-40.2 16.1-47.4 36.6L222.1 681.6c-3 8.6-3.9 17.8-2.5 26.8l49.9 318.5 1076.6.8Z" fill="#F4F4F4"/><path d="M498.1 690.4H397v62.8h101.1v-62.8Z" fill="#B2B6BB"/><path d="M498.1 690.4h-21.5v62.8h21.5v-62.8Z" fill="#61656D"/><path d="m347.999 695.601-16.3-80.4.5-.1 16.3 80.4-.5.1ZM352.557 588.036l-2.141 104.479.5.01 2.141-104.479-.5-.01Z" fill="#3F4249"/><path d="m376.473 607.326-24.908 31.3.392.311 24.908-31.3-.392-.311Z" fill="#3F4249"/><path d="m360.7 715.6-2.5-3.7c-2.5-3.7-3.8-8.1-3.8-12.6v-8.9h-9.6v8.9c0 4.5-1.3 8.9-3.8 12.6l-2.5 3.7c-5.2 7.8-6.8 17.5-4.5 26.6l2.8 11h25.6l2.8-11c2.3-9.1.6-18.8-4.5-26.6Z" fill="#868A91"/><path d="m360.7 715.6-2.5-3.7c-2.5-3.7-3.8-8.1-3.8-12.6v-8.9h-2.8v8.1c0 5 1.5 9.9 4.2 14.1 4.2 7.7 4.2 16.5 2.7 23.7-.9 4.3-2.6 8.4-4.9 12.1l-1.9 3.1c-.7 1.1-1.9 1.8-3.2 1.8h14l2.8-11c2.2-9.2.5-18.9-4.6-26.7Z" fill="#61656D"/><path d="m371.447 639.389-29.63 24.586.32.384 29.629-24.586-.319-.384ZM345.599 683.6l-26.2-24.8.3-.3 26.3 24.701-.4.399Z" fill="#3F4249"/><path d="m361.8 626.101 4.1-18c1.5-6.4 9.1-9.1 14.3-5 5.1 4.1 4.2 12.2-1.7 15l-16.7 8Z" class="change-color-in-svg" fill="#4D61FC" style="fill:#158566"/><path opacity=".3" d="m361.8 626.101 4.1-18c1.5-6.4 9.1-9.1 14.3-5 5.1 4.1 4.2 12.2-1.7 15l-16.7 8Z" fill="#fff"/><path d="M383.499 610.201c0 3.2-1.8 6.4-5.1 7.9l-16.7 8 18.4-23c2.4 1.8 3.5 4.5 3.4 7.1ZM352.299 618.1l-11.8-24.4c-4.2-8.7 2.1-18.8 11.8-18.8 9.6 0 16 10.1 11.8 18.8l-11.8 24.4Z" class="change-color-in-svg" fill="#4D61FC" style="fill:#158566"/><path opacity=".3" d="m352.299 618.1-11.8-24.4c-4.2-8.7 2.1-18.8 11.8-18.8 9.6 0 16 10.1 11.8 18.8l-11.8 24.4Z" fill="#fff"/><path opacity=".3" d="m352.9 575-.6 43.1 11.8-24.399c4.1-8.5-1.9-18.401-11.2-18.701Z" fill="#fff"/><path d="M339.2 650.6 322 630.2c-6.1-7.3-2.5-18.5 6.7-20.8 9.2-2.3 17.7 5.8 15.8 15.1l-5.3 26.1Z" class="change-color-in-svg" fill="#4D61FC" style="fill:#158566"/><path opacity=".3" d="M344.6 624.5c1.9-9.3-6.6-17.4-15.8-15.1l10.5 41.1 5.3-26Z" fill="#fff"/><path d="m336.8 674.9-7.8-19.5c-2.8-7-11.9-8.6-16.9-3.1-5.1 5.5-2.6 14.4 4.6 16.6l20.1 6Z" class="change-color-in-svg" fill="#4D61FC" style="fill:#158566"/><path opacity=".3" d="m336.8 674.9-7.8-19.5c-2.8-7-11.9-8.6-16.9-3.1-5.1 5.5-2.6 14.4 4.6 16.6l20.1 6Z" fill="#fff"/><path opacity=".3" d="m312.399 651.9 24.4 23-7.8-19.5c-2.7-6.8-11.5-8.5-16.6-3.5Z" fill="#fff"/><path d="m349.8 657.8 8.5-20.6c3-7.3 12.7-9 18-3.1 5.3 5.9 2.6 15.3-5.1 17.5l-21.4 6.2Z" class="change-color-in-svg" fill="#4D61FC" style="fill:#158566"/><path opacity=".3" d="m349.8 657.8 8.5-20.6c3-7.3 12.7-9 18-3.1 5.3 5.9 2.6 15.3-5.1 17.5l-21.4 6.2Z" fill="#fff"/><path d="m350.8 683.1-.2-.399 40.5-22.201.2.401-40.5 22.199Z" fill="#3F4249"/><path d="m357.3 679.2 14.7-20.1c5.2-7.2 16.2-6.4 20.3 1.4 4.2 7.8-1.3 17.3-10.1 17.7l-24.9 1Z" class="change-color-in-svg" fill="#4D61FC" style="fill:#158566"/><path opacity=".3" d="m357.3 679.2 14.7-20.1c5.2-7.2 16.2-6.4 20.3 1.4 4.2 7.8-1.3 17.3-10.1 17.7l-24.9 1Z" fill="#fff"/><path d="M392.7 671.1c-1.8 3.9-5.6 6.901-10.5 7.101l-24.9 1 35-18.701c1.9 3.6 1.8 7.4.4 10.6Z" class="change-color-in-svg" fill="#4D61FC" style="fill:#158566"/><path opacity=".3" d="m358.3 637.2-8.5 20.6 26.5-23.7c-5.3-5.8-14.9-4.2-18 3.1Z" fill="#fff"/><path d="M502.301 759.9h67.1c1.9 0 3.4-1.5 3.4-3.4s-1.5-3.4-3.4-3.4h-67.1v6.8Z" fill="#B2B6BB"/><path d="M560.7 756.6H493v208.5h67.7V756.6Z" fill="#B2B6BB"/><path d="M495.1 756.6H288v208.5h207.1V756.6Z" fill="#DADDDF"/><path d="M484.6 949.2H297.7V785.6l186.9.2v163.4Zm-185.4-1.5h183.9V787.3H299.2v160.4Z" fill="#B2B6BB"/><path d="M280.3 759.9h222.1c1.9 0 3.4-1.5 3.4-3.4s-1.5-3.4-3.4-3.4H280.3c-1.9 0-3.4 1.5-3.4 3.4.1 1.9 1.6 3.4 3.4 3.4Z" fill="#DADDDF"/><path d="M484.6 866.4H297.7v1.5h186.9v-1.5ZM383.1 811.9a5.2 5.2 0 1 0 0-10.4 5.2 5.2 0 0 0 0 10.4Z" fill="#B2B6BB"/><path opacity=".15" d="M385 806.7c0-2.3-1.5-4.2-3.5-4.9.5-.2 1.1-.3 1.7-.3 2.9 0 5.2 2.3 5.2 5.2 0 2.9-2.3 5.2-5.2 5.2-.6 0-1.1-.1-1.7-.3 2-.7 3.5-2.6 3.5-4.9Z" fill="#000"/><path d="M383.1 892.4a5.2 5.2 0 1 0 0-10.4 5.2 5.2 0 0 0 0 10.4Z" fill="#B2B6BB"/><path opacity=".15" d="M385 887.2c0-2.3-1.5-4.2-3.5-4.9.5-.2 1.1-.3 1.7-.3 2.9 0 5.2 2.3 5.2 5.2 0 2.9-2.3 5.2-5.2 5.2-.6 0-1.1-.1-1.7-.3 2-.7 3.5-2.6 3.5-4.9Z" fill="#000"/><path d="m505.8 766.9-10.7-7H288v3.2l217.8 3.8Z" fill="#B2B6BB"/><path d="m547.4 965.1 5.2 57.7c.4 2.1-1.2 4.1-3.3 4.1-1.4 0-2.7-.9-3.2-2.3L531 965.1h16.4Z" fill="#DADDDF"/><path d="m545.501 998.7-6.3-1.5-8.1-32h16.4l5.2 57.7c.3 1.6-.6 3.2-2 3.8l-5.2-28Z" fill="#B2B6BB"/><path d="m488.501 965.1 5.2 57.7c.4 2.1-1.2 4.1-3.3 4.1-1.4 0-2.7-.9-3.2-2.3l-15.1-59.5h16.4Z" fill="#DADDDF"/><path d="m483 971.5-9.4-1.8-1.6-4.6h16.4l5.2 57.7c.3 1.6-.6 3.2-2 3.8l-8.6-55.1Z" fill="#B2B6BB"/><path d="m358.7 965.1-5.2 57.7c-.4 2.1 1.2 4.1 3.3 4.1 1.4 0 2.7-.9 3.2-2.3l15.1-59.5h-16.4Z" fill="#DADDDF"/><path d="m361.6 995.8-5.6-1.4 2.7-29.3h16.4l-15.1 59.5c-.5 1.4-1.8 2.3-3.2 2.3h-.2l5-31.1Z" fill="#B2B6BB"/><path d="m298.2 965.1-5.2 57.7c-.4 2.1 1.2 4.1 3.3 4.1 1.4 0 2.7-.9 3.2-2.3l15.1-59.5h-16.4Z" fill="#DADDDF"/><path d="m304.601 970.1-7.2-1.3.8-3.7h16.4l-15.1 59.5c-.5 1.4-1.8 2.3-3.2 2.3h-.2l8.5-56.8Z" fill="#B2B6BB"/><path d="M440.799 967.2c1.2 4.4 1.4 6 1.3 10.3l.1 29c-.2 5-1.6 10-4.1 14.4l-.6 1c-1.5 2.6-4.2 4.2-7.2 4.2h-8.3c-3.8 0-7.1-2.6-8.1-6.3-1.1-4.3-1.2-8.8-.4-13.1l7-31c.5-2.6 1.2-5.6 2.5-8.4l17.8-.1Z" class="change-color-in-svg" fill="#4D61FC" style="fill:#158566"/><path d="m553.2 899.1 1.7 54.1c0 5.1 1.3 10.5 3.3 13.2l24.2 42.1-5.6 7.7-21.9-10.9-19.5-35.2c.1-6-.6-9.6-1.6-17.7l-9.7-59.7 29.1 6.4Z" fill="#FC9D9D"/><path opacity=".15" d="M554.799 971.8c-2.2-3.3-5.1-11-5.7-14.6l-2.6-19.3c-.2-1.5-1.3-2.6-2.8-2.8l-13.3-1.8-.2-2.9h24l.7 23c.1 3.7.8 9.6 3.3 13.2l24.2 42.1-3.4 5.7-24.2-42.6Z" fill="#000"/><path d="m593.8 1015.6-11.5-7c-8.3 1.4-16.7-1.8-22.1-8.3l-24.9-30.2c-4.5 9.6-6.1 20.3-4.6 30.9l3.6 25h2.9l.8-25.7c.1-1.9 2.4-2.7 3.6-1.2l15.2 18.6c4.3 5.3 10.8 8.4 17.6 8.4h23.7c1.9 0 3.1-1.9 2.4-3.6-1.3-3.1-3.7-5.6-6.7-6.9Z" class="change-color-in-svg" fill="#4D61FC" style="fill:#158566"/><path d="M441.899 954.1c-1.2 10.4-1.8 20.9-1.6 31.4l.2 12.5c-.2 5.5-4.7 9.9-10.2 9.9h-1.7c-6.2 0-11-5.5-10.1-11.6l2.9-14.8c1.5-7.5 2-15.2 1.6-22.9l-2.8-50.5 26.1.4-4.4 45.6Z" fill="#FC9D9D"/><path d="m523.9 548.4 18.2 42.5 2.1 23.2c2.6 29.3 4.3 58.6 5.1 88l6.1 228.2h-26.3l-48.9-319.7c-.3-2.2-2.2-3.7-4.4-3.7-2.3 0-4.2 1.8-4.4 4.1L446 930.3l-25.9-.2-11.4-236.2c-2.1-43.6 2-87.3 12.2-129.7l3.9-16 99.1.2Z" fill="#3F4249"/><path opacity=".15" d="M444.099 930.3s-3.1 32.4-3.4 36.7v.1c-.4 6.1-.5 12.2-.4 18.3l.2 12.5c-.2 5.3-4.4 9.6-9.7 9.8 4.8-3.7 4.4-9.7 4.5-14.2l.8-54.9c0-1.8-1.2-3.3-3-3.7l-11.6-2.1-.1-2.6 22.7.1Z" fill="#000"/><path opacity=".2" d="M555.3 930.3h-10.5l-16.7-323.4c-22.1 0-30.6-15.5-30.8-28-.2-10.3 1.9-20.5 1.9-30.5l-74.6-.2v-.1l74.6.2 24.3.1h.3l18.2 42.5 2.1 23.2c2.6 29.3 4.3 58.6 5.1 88l6.1 228.2Z" fill="#000"/><path d="m455.799 557.4 42.9.1c1.2-98.6 4.8-151.7 10.2-173.8l-6.3-1.8-48-.4-8.4 1.8c9.3 50.4 9.8 149.3 9.6 174.1Z" fill="#fff"/><path opacity=".2" d="M448 386.8c8.6 51.5 8 146.4 7.8 170.6h8.9c4.2-64.8-1-122.4-16.7-170.6Z" fill="#000"/><path opacity=".2" d="M424.999 550.7c-.7 3.6-2.6 7.6-5 11.8-4.2 13.7-7.7 27.6-10.3 41.7l24.4-1.2c15.1 0 27.8-11.6 29.1-26.7.8-9.5.9-9.7 1.4-19 .1.1-39.4-7.4-39.6-6.6Z" fill="#000"/><path d="M524.999 557.5h-98.1v8.9h98.1v-8.9Z" fill="#000"/><path d="M476.2 292.3c9.168 0 16.6-7.432 16.6-16.6 0-9.168-7.432-16.6-16.6-16.6-9.168 0-16.6 7.432-16.6 16.6 0 9.168 7.432 16.6 16.6 16.6Z" fill="#21252B"/><path d="M460.1 279.9c1.2 4.6 4.4 8.7 9.1 10.9 8.3 3.9 18.2.3 22.1-8.1.3-.5.5-1.1.7-1.7-6.5-4-20.6-7.6-31.9-1.1Z" class="change-color-in-svg" fill="#4D61FC" style="fill:#158566"/><path d="M490.6 352.1c-.8 17.9-4 27.6 6 28.1 15.9.7 29.4-13.2 30.2-31.1.8-17.9-11.5-32.9-27.4-33.6-4.3 15.3-8.1 18.8-8.8 36.6ZM485.727 354.632c1.394-15.901-10.723-29.952-27.063-31.384-16.341-1.433-30.717 10.295-32.112 26.196-1.394 15.9 10.723 29.951 27.063 31.384 16.341 1.433 30.718-10.296 32.112-26.196Z" fill="#21252B"/><path d="m451.1 382.3 2.9 2.4c14 11.8 34.5 11.7 48.4-.2l2.4-2.1-8.5-2.3c-1.5-.4-2.6-1.7-2.8-3.2l-1.3-9.9-1-7.3-3.5-26.4-.1-1.3-23.9 5.9-3.5 39.5c-.1 1.7-1.4 3.1-3 3.5l-6.1 1.4Z" fill="#FC9D9D"/><path d="M477 365.2c-10.8-.1-19.6-8.5-20.2-19.2l-2.5-42 46.3.3-3.1 41.9c-.7 10.8-9.7 19.1-20.5 19Z" fill="#FC9D9D"/><path d="M477 365.2c-10.8-.1-19.6-8.5-20.2-19.2l-2.5-42 46.3.3-3.1 41.9c-.7 10.8-9.7 19.1-20.5 19Z" fill="#FC9D9D"/><path d="M468.2 333.3a2.4 2.4 0 1 0-.001-4.801 2.4 2.4 0 0 0 .001 4.801Z" fill="#21252B"/><path d="M469.2 330.9a.5.5 0 1 0 0-1 .5.5 0 0 0 0 1Z" fill="#fff"/><path d="M486.9 333.3a2.4 2.4 0 1 0-.001-4.801 2.4 2.4 0 0 0 .001 4.801Z" fill="#21252B"/><path d="M488 330.8a.5.5 0 1 0 0-1 .5.5 0 0 0 0 1Z" fill="#fff"/><path opacity=".3" d="M477.9 344.9h-2.1c-.4 0-.7-.3-.7-.7 0-.4.3-.7.7-.7h2.1c.8 0 1.5-.6 1.5-1.5 0-.8-.6-1.5-1.5-1.5-.4 0-.7-.3-.7-.7 0-.4.3-.7.7-.7 1.6 0 2.9 1.3 2.9 2.9 0 1.6-1.3 2.9-2.9 2.9Z" fill="#000"/><path d="M438.6 328.7c3.6-2.5 2.3-7.2 2.3-7.2-.6-2-1.1-4.2-1.1-6.5-.2-5.3 2.3-8.9 3.9-10.6.8-.9 1.3-2.1 1.5-3.4 2.2-22.7 35.6-27.9 52.1-14.2 10.1 8.4 12.4 17.7 11.5 26.5 0 0-.6 3.9 3 5.8l-4.4 1.8c-1.7 6.5-4.8 9.5-6.5 14-3.6-2.4-2.7-12.7-2.7-12.7-9.9-1.1-11.2-9.9-11.2-9.9-9.1 19.1-32.2 14.9-32.2 14.9l-.2 4.9s-9.3-1.9-11.2-5.3l-3.7 2.6-1.1-.7Z" fill="#21252B"/><path d="M498.099 339.7s7.8-.7 8.2-8.6c.4-7.9-9.3-7.7-9.4.2l.4 8.6.8-.2Z" fill="#FC9D9D"/><path opacity=".3" d="M499.7 329.5c.3-1 .9-1.6 1.5-1.9.7-.3 1.4-.2 2.3.2.3.1.4.5.3.8-.1.2-.2.3-.3.3-.1.1-.3.1-.4 0-.6-.3-1-.4-1.4-.2-.3.2-.6.5-.9 1.2-.2.6-.3 1.5-.3 2.1 0 .3-.3.6-.6.6s-.6-.3-.6-.7c0-.7.1-1.7.4-2.4Z" fill="#000"/><path d="M500.151 338.212c.663-.014 1.184-.742 1.165-1.626-.019-.883-.572-1.588-1.234-1.573-.663.014-1.185.742-1.165 1.625.019.884.571 1.588 1.234 1.574Z" class="change-color-in-svg" fill="#4D61FC" style="fill:#158566"/><path opacity=".15" d="M499.699 337.9c.7 0 1.3-.8 1.2-1.7 0-.3-.1-.6-.2-.9.3.3.5.7.5 1.3 0 .9-.5 1.6-1.2 1.6-.3 0-.5-.1-.7-.3h.4Z" fill="#000"/><path d="M456.1 339.7s-7.8-.7-8.2-8.6c-.4-7.9 9.3-7.7 9.4.2l-.4 8.6-.8-.2Z" fill="#FC9D9D"/><path opacity=".3" d="M454.599 329.5c-.4-1-.9-1.6-1.6-1.9-.7-.3-1.5-.2-2.4.2-.3.1-.4.5-.3.8.1.2.2.3.3.3.1.1.3.1.4 0 .6-.3 1.1-.4 1.4-.2.4.2.7.5.9 1.2.2.6.3 1.5.4 2.1 0 .3.3.6.6.6s.6-.3.6-.7c.2-.7 0-1.7-.3-2.4Z" fill="#000"/><path d="M455.299 336.568c.02-.883-.502-1.611-1.165-1.626-.662-.014-1.215.691-1.234 1.574-.019.884.502 1.611 1.165 1.626.663.014 1.215-.69 1.234-1.574Z" class="change-color-in-svg" fill="#4D61FC" style="fill:#158566"/><path opacity=".15" d="M454.5 337.9c-.7 0-1.3-.8-1.2-1.7 0-.3.1-.6.2-.9-.3.3-.5.7-.5 1.3 0 .9.5 1.6 1.2 1.6.3 0 .5-.1.7-.3h-.4Z" fill="#000"/><path d="M483.6 348.8c.3 0 .5.3.4.6-1.2 2.3-3.5 3.9-6.2 3.9s-5-1.6-6.2-3.9c-.1-.3 0-.6.4-.6h11.6ZM487.7 323.8c-3 .3-5.6 1.9-7.2 4.3-2.7-.9-5-.3-6 .1-1.9-3-5.3-4.9-9.1-4.5-5.3.5-9.3 5.2-8.8 10.5s5.2 9.3 10.5 8.8 9.3-5.2 8.8-10.5c-.1-1.1-.4-2.2-.8-3.1.9-.3 2.7-.8 4.8-.1-.8 1.5-1.1 3.3-1 5.1.5 5.3 5.2 9.3 10.5 8.8s9.3-5.2 8.8-10.5c-.4-5.5-5.2-9.4-10.5-8.9Zm-20.6 17.9c-4.6.4-8.8-3-9.2-7.7-.4-4.6 3-8.8 7.7-9.2 4.6-.4 8.8 3 9.2 7.7.4 4.7-3.1 8.8-7.7 9.2Zm22.3.1c-4.6.4-8.8-3-9.2-7.7-.4-4.6 3-8.8 7.7-9.2 4.6-.4 8.8 3 9.2 7.7.3 4.7-3.1 8.8-7.7 9.2Z" fill="#fff"/><path opacity=".15" d="M468.6 365.1c2.8 1.2 5.5 1.6 8 1.6 1 0 1.9-.1 2.7-.2 1.6.6 3.7 1.2 5.7 1.2 2.5 0 4.9-.1 7-.8l-1-7.3c-1.5 1.4-3.3 2.6-5.2 3.5-1.5.7-4.8 1.8-8.7 1.9h-.6c-2.3 0-4.9-.4-7.4-1.5-.4-.2-.8 0-1 .4 0 .6.2 1 .5 1.2Z" fill="#000"/><path d="m392.899 416.5 21.3 23.6 6.8 57.8c2 17.4 1.4 35.1-1.9 52.3-2.6 13.6-6.1 31.2-9.9 49.7-.2 1.2.7 2.3 1.9 2.3h15.4c16.1 0 29.6-12.3 31-28.4 6.1-71.6 2.1-138.7-10.3-190.8l-34.2 6.7c-12.5 3.1-19.5 14.4-20.1 26.8ZM507.599 383.3c-5 20.3-12.2 102.4-10.8 193.2.2 14.3 11.9 25.8 26.2 25.9h16.9c2.5 0 4.5-2.2 4.2-4.7l-6-50.9c-2.5-21.6-2.8-43.4-.7-65l5.4-56.4 5.2-8.3c.1-12.9-6-23.7-18.3-27.6l-22.1-6.2Z" class="change-color-in-svg" fill="#4D61FC" style="fill:#158566"/><path d="m480.199 485.1 5.5-9.9c.6-1.1 1-2.3 1-3.6l.3-6.5c0-.3.3-.6.6-.5h.4c2.4.2 4.4 2 4.9 4.4l.1.3c.6 3.1.8 6.2.8 9.4v1.1l17.4 2.8c1.2.2 2 1.2 1.9 2.4v.1c-.1 1.4-1.4 2.4-2.8 2.1-.7-.1-1.2-.2-1.2-.2l1 .2c1.6.3 2.7 1.7 2.5 3.3-.1 1.7-1.6 2.9-3.3 2.9h-.8.8c1.7.1 2.9 1.5 2.8 3.2-.1 1.4-1.2 2.5-2.6 2.7l-1.4.1 1-.1c1.4-.1 2.7 1.1 2.6 2.5-.1 1-.8 1.8-1.7 2.1-5.7 1.5-11.7 2-17.6 1.4l-11.2-1-38.4 6-.1-21.7 37.5-3.5Z" fill="#FC9D9D"/><path d="m393.599 411.1 11.4-4.1c8.2 13.7 13.2 24.6 12.7 40.5l2.5 6.7-5.3 35.8 39-2.7-1.3 21.7-61.9 12c-8.1 1.6-15.3-5.5-13.9-13.6l16.8-96.3Z" class="change-color-in-svg" fill="#4D61FC" style="fill:#158566"/><path opacity=".15" d="M389.4 515.8c-5.5 1.1-10.5-1.8-12.8-6.3 0 7.2 6.6 12.9 14 11.5l61.9-12 .2-2.9-63.3 9.7ZM416.5 479.1l-6.9 9.1c-.7 1 0 2.4 1.3 2.3l4-.4 1.6-11ZM511.099 482.5l-4.4-.7c0 .2.1.3.2.5l.5.9c.4.7.3 1.6-.1 2.2-.4.6-.5 1.4-.2 2l.5 1.1c.3.7.2 1.4-.2 2l-.4.6c-.5.7-.5 1.7 0 2.4l.3.4c.5.7.5 1.7 0 2.4l-.2.4c-.5.7-.5 1.6-.1 2.3l.5.8c.4.7.4 1.5 0 2.2l-1.3 2.5c1.3-.2 2.6-.5 3.9-.8 1-.2 1.7-1.1 1.7-2.1.1-1.5-1.1-2.7-2.6-2.5h.4c1.4-.1 2.5-1.3 2.6-2.7.1-1.6-1.1-3.1-2.8-3.2 1.7.1 3.1-1.2 3.3-2.9.1-1.6-1-3-2.5-3.3h.2c1.4.3 2.7-.7 2.8-2.1v-.1c-.1-1-.9-2.1-2.1-2.3Zm-2.1 4.4h.2-.2ZM481.2 504.2l-.7-.1c-2.7-.3-5.5-.3-8.2 0l-19.5 2-.2 2.6" fill="#000"/><path opacity=".2" d="m458.7 485.5-38.9 2.8.2 1.5 38.8-2.8c.4 0 .7-.4.7-.8s-.4-.7-.8-.7ZM475.799 606.9c-1.2 0-2.2.4-3 1.2-.8.7-1.3 1.7-1.4 2.9l-25.5 319.4-9.2-.1 15.6-301c.7-12.6 11-22.4 23.5-22.4ZM544.1 597.6l-6-50.9c-2.5-21.6-2.8-43.4-.7-65l1.2-13-6.7-9.4c-1.1-1.5-3.5-1-3.8.9l-3.2 21.2c-3.4 22.4-4.6 45-3.8 67.6l5.8 53.4h13c2.5-.1 4.5-2.3 4.2-4.8Z" fill="#000"/><path d="m544.199 400.8 27.1 62.5 41-39.7 11.1 16.5-51.8 64.8c-5 6.3-14.9 5.3-18.5-1.9l-24.2-48" class="change-color-in-svg" fill="#4D61FC" style="fill:#158566"/><path opacity=".15" d="m621.2 442.7-48.6 60.7c-4.7 6.6-11.2 6.9-16.5 3.2 3.7-.1 7.3-1.2 10.1-4.5l54.6-65.1.4 5.7ZM567.899 467.4l3.4-4.1-18.1-41.6 10.4 44.6c.4 2.1 3 2.7 4.3 1.1Z" fill="#000"/><path d="M1247.4 692.9h-55.9v118h55.9v-118Z" fill="#DADDDF"/><path d="M1225.3 692.9h23.9v11.4h-1.8v106.6h-18.5V704.3h-3.6v-11.4Z" fill="#B2B6BB"/><path d="M1224.8 692.9h-33.3v11.4h33.3v-11.4Z" fill="#DADDDF"/><path d="M1235.5 704.3h-44v1.5h44v-1.5Z" fill="#B2B6BB"/><path d="M1269.1 604.5h-232v9.6h222.4v196.8h-222.4v9.6h222.4v206.4h9.6V604.5Z" fill="#fff"/><path d="M1311.8 604.5h-42.7v422.4h42.7V604.5Z" fill="#DADDDF"/><path d="M1374.4 1029.3h-1127c-.7 0-1.2-.5-1.2-1.2s.5-1.2 1.2-1.2h1127c.7 0 1.2.5 1.2 1.2 0 .6-.5 1.2-1.2 1.2Z" fill="#B2B6BB"/><path d="M1192.8 1027.6h-583c-7.9 0-14.2-6.4-14.2-14.2v-583c0-7.9 6.4-14.2 14.2-14.2h583c7.9 0 14.2 6.4 14.2 14.2v583c0 7.9-6.3 14.2-14.2 14.2Z" class="change-color-in-svg" fill="#4D61FC" style="fill:#158566"/><path opacity=".5" d="M1192.8 1027.6h-583c-7.9 0-14.2-6.4-14.2-14.2v-583c0-7.9 6.4-14.2 14.2-14.2h583c7.9 0 14.2 6.4 14.2 14.2v583c0 7.9-6.3 14.2-14.2 14.2Z" fill="#fff"/><path d="M1183 1027.6H600c-7.9 0-14.2-6.4-14.2-14.2v-583c0-7.9 6.4-14.2 14.2-14.2h583c7.9 0 14.2 6.4 14.2 14.2v583c0 7.9-6.3 14.2-14.2 14.2Z" class="change-color-in-svg" fill="#4D61FC" style="fill:#158566"/><path opacity=".7" d="M1183 1027.6H600c-7.9 0-14.2-6.4-14.2-14.2v-583c0-7.9 6.4-14.2 14.2-14.2h583c7.9 0 14.2 6.4 14.2 14.2v583c0 7.9-6.3 14.2-14.2 14.2Z" fill="#fff"/><path d="M900.9 277.8c0-26.7 20.2-48.7 46.2-51.6v-.3h5.7c28.7 0 51.9 23.2 51.9 51.9s-23.2 51.9-51.9 51.9h-5.7v-.3c-26-2.9-46.2-24.9-46.2-51.6Z" fill="#B2B6BB"/><path d="M947.1 329.7c28.664 0 51.9-23.237 51.9-51.9 0-28.664-23.236-51.9-51.9-51.9-28.663 0-51.9 23.236-51.9 51.9 0 28.663 23.237 51.9 51.9 51.9Z" fill="#868A91"/><path d="M947.1 324c25.516 0 46.2-20.684 46.2-46.2 0-25.515-20.684-46.2-46.2-46.2-25.515 0-46.2 20.685-46.2 46.2 0 25.516 20.685 46.2 46.2 46.2Z" fill="#fff"/><path d="M947.1 324c25.516 0 46.2-20.684 46.2-46.2 0-25.515-20.684-46.2-46.2-46.2-25.515 0-46.2 20.685-46.2 46.2 0 25.516 20.685 46.2 46.2 46.2Z" fill="#868A91"/><path opacity=".9" d="M947.1 324c25.516 0 46.2-20.684 46.2-46.2 0-25.515-20.684-46.2-46.2-46.2-25.515 0-46.2 20.685-46.2 46.2 0 25.516 20.685 46.2 46.2 46.2Z" fill="#fff"/><path d="M947.1 231.6c.8 0 1.7 0 2.5.1-24.4 1.3-43.7 21.4-43.7 46.1 0 24.7 19.4 44.8 43.7 46.1-.8 0-1.6.1-2.5.1-25.5 0-46.2-20.7-46.2-46.2 0-25.5 20.7-46.2 46.2-46.2Z" fill="#B2B6BB"/><path d="m946.7 281.4 15.3-30.5c.6-1.2.1-2.6-1.1-3.2-1.2-.6-2.6-.1-3.2 1.1L944.5 275l-17.6-8.6c-1.2-.6-2.6-.1-3.2 1.1-.6 1.2-.1 2.6 1.1 3.2l21.9 10.7Z" class="change-color-in-svg" fill="#4D61FC" style="fill:#158566"/><path opacity=".5" d="M907.5 301.6c-4.2-7-6.6-15.1-6.6-23.8 0-25.5 20.7-46.2 46.2-46.2 1.3 0 2.5.1 3.8.2l-43.4 69.8ZM957.8 232.9c2.2.5 4.4 1.2 6.5 2.1l-47.8 77.5c-1.9-1.6-3.6-3.5-5.2-5.4l46.5-74.2Z" fill="#fff"/><path d="M867.6 692.8H670.9c-4.2 0-7.5-3.4-7.5-7.5V488.6c0-4.2 3.4-7.5 7.5-7.5h196.7c4.2 0 7.5 3.4 7.5 7.5v196.7c.1 4.2-3.3 7.5-7.5 7.5Z" class="change-color-in-svg" fill="#4D61FC" style="fill:#158566"/><path opacity=".5" d="M867.6 692.8H670.9c-4.2 0-7.5-3.4-7.5-7.5V488.6c0-4.2 3.4-7.5 7.5-7.5h196.7c4.2 0 7.5 3.4 7.5 7.5v196.7c.1 4.2-3.3 7.5-7.5 7.5Z" fill="#fff"/><path d="M857.8 692.8H661.2c-4.2 0-7.5-3.4-7.5-7.5V488.6c0-4.2 3.4-7.5 7.5-7.5h196.7c4.2 0 7.5 3.4 7.5 7.5v196.7c0 4.2-3.4 7.5-7.6 7.5Z" fill="#fff"/><path d="M805.8 625.9h-92.6c-3.3 0-5.9-2.7-5.9-5.9 0-3.3 2.7-5.9 5.9-5.9h92.6c3.3 0 5.9 2.7 5.9 5.9.1 3.3-2.6 5.9-5.9 5.9Z" fill="#61656D"/><path d="M829.9 649H689.1c-1.7 0-3.1-1.4-3.1-3.1 0-1.7 1.4-3.1 3.1-3.1h140.8c1.7 0 3.1 1.4 3.1 3.1.1 1.7-1.3 3.1-3.1 3.1ZM801.5 668.2h-83.9c-1.7 0-3.1-1.4-3.1-3.1 0-1.7 1.4-3.1 3.1-3.1h83.9c1.7 0 3.1 1.4 3.1 3.1 0 1.7-1.4 3.1-3.1 3.1Z" fill="#B2B6BB"/><path d="M767.5 505.7h-8v.8c-18.6 3.7-32.7 20.2-32.7 39.9s14 36.2 32.7 39.9v.8h8c22.5 0 40.7-18.2 40.7-40.7 0-22.5-18.2-40.7-40.7-40.7Z" class="change-color-in-svg" fill="#4D61FC" style="fill:#158566"/><path opacity=".2" d="M767.5 505.7h-8v.8c-18.6 3.7-32.7 20.2-32.7 39.9s14 36.2 32.7 39.9v.8h8c22.5 0 40.7-18.2 40.7-40.7 0-22.5-18.2-40.7-40.7-40.7Z" fill="#000"/><path d="M759.5 587c22.478 0 40.7-18.222 40.7-40.7s-18.222-40.7-40.7-40.7-40.7 18.222-40.7 40.7 18.222 40.7 40.7 40.7Z" class="change-color-in-svg" fill="#4D61FC" style="fill:#158566"/><path d="m751.999 563.3-13.7-13.7c-.7-.7-.7-1.9 0-2.7l3.6-3.6c.7-.7 1.9-.7 2.7 0l8.8 8.8 21.2-21.3c.7-.7 1.9-.7 2.7 0l3.6 3.6c.7.7.7 1.9 0 2.7l-26.2 26.2c-.8.8-2 .8-2.7 0Z" fill="#fff"/><path d="M1131.6 692.8H934.9c-4.2 0-7.5-3.4-7.5-7.5V488.6c0-4.2 3.4-7.5 7.5-7.5h196.7c4.2 0 7.5 3.4 7.5 7.5v196.7c.1 4.2-3.3 7.5-7.5 7.5Z" class="change-color-in-svg" fill="#4D61FC" style="fill:#158566"/><path opacity=".5" d="M1131.6 692.8H934.9c-4.2 0-7.5-3.4-7.5-7.5V488.6c0-4.2 3.4-7.5 7.5-7.5h196.7c4.2 0 7.5 3.4 7.5 7.5v196.7c.1 4.2-3.3 7.5-7.5 7.5Z" fill="#fff"/><path d="M1121.9 692.8H925.2c-4.2 0-7.5-3.4-7.5-7.5V488.6c0-4.2 3.4-7.5 7.5-7.5h196.7c4.2 0 7.5 3.4 7.5 7.5v196.7c0 4.2-3.4 7.5-7.5 7.5Z" fill="#fff"/><path d="M1069.8 625.9h-92.6c-3.3 0-5.9-2.7-5.9-5.9 0-3.3 2.7-5.9 5.9-5.9h92.6c3.3 0 5.9 2.7 5.9 5.9.1 3.3-2.6 5.9-5.9 5.9Z" fill="#61656D"/><path d="M1093.9 649H953.1c-1.7 0-3.1-1.4-3.1-3.1 0-1.7 1.4-3.1 3.1-3.1h140.8c1.7 0 3.1 1.4 3.1 3.1.1 1.7-1.3 3.1-3.1 3.1ZM1065.5 668.2h-83.9c-1.7 0-3.1-1.4-3.1-3.1 0-1.7 1.4-3.1 3.1-3.1h83.9c1.7 0 3.1 1.4 3.1 3.1 0 1.7-1.4 3.1-3.1 3.1Z" fill="#B2B6BB"/><path d="M1031.5 505.7h-8v.8c-18.6 3.7-32.7 20.2-32.7 39.9s14 36.2 32.7 39.9v.8h8c22.5 0 40.7-18.2 40.7-40.7 0-22.5-18.2-40.7-40.7-40.7Z" class="change-color-in-svg" fill="#4D61FC" style="fill:#158566"/><path opacity=".2" d="M1031.5 505.7h-8v.8c-18.6 3.7-32.7 20.2-32.7 39.9s14 36.2 32.7 39.9v.8h8c22.5 0 40.7-18.2 40.7-40.7 0-22.5-18.2-40.7-40.7-40.7Z" fill="#000"/><path d="M1063.7 552.817c3.6-22.188-11.47-43.094-33.65-46.695-22.19-3.601-43.099 11.467-46.7 33.655-3.601 22.188 11.467 43.094 33.66 46.695 22.18 3.601 43.09-11.467 46.69-33.655Z" class="change-color-in-svg" fill="#4D61FC" style="fill:#158566"/><path d="m1016 563.3-13.7-13.7c-.7-.7-.7-1.9 0-2.7l3.6-3.6c.7-.7 1.9-.7 2.7 0l8.8 8.8 21.2-21.3c.7-.7 1.9-.7 2.7 0l3.6 3.6c.7.7.7 1.9 0 2.7l-26.2 26.2c-.8.8-2 .8-2.7 0Z" fill="#fff"/><path d="M867.6 970.6H670.9c-4.2 0-7.5-3.4-7.5-7.5V766.4c0-4.2 3.4-7.5 7.5-7.5h196.7c4.2 0 7.5 3.4 7.5 7.5v196.7c.1 4.1-3.3 7.5-7.5 7.5Z" class="change-color-in-svg" fill="#4D61FC" style="fill:#158566"/><path opacity=".5" d="M867.6 970.6H670.9c-4.2 0-7.5-3.4-7.5-7.5V766.4c0-4.2 3.4-7.5 7.5-7.5h196.7c4.2 0 7.5 3.4 7.5 7.5v196.7c.1 4.1-3.3 7.5-7.5 7.5Z" fill="#fff"/><path d="M857.8 970.6H661.2c-4.2 0-7.5-3.4-7.5-7.5V766.4c0-4.2 3.4-7.5 7.5-7.5h196.7c4.2 0 7.5 3.4 7.5 7.5v196.7c0 4.1-3.4 7.5-7.6 7.5Z" fill="#fff"/><path d="M805.8 903.7h-92.6c-3.3 0-5.9-2.7-5.9-5.9 0-3.3 2.7-5.9 5.9-5.9h92.6c3.3 0 5.9 2.7 5.9 5.9.1 3.3-2.6 5.9-5.9 5.9Z" fill="#61656D"/><path d="M829.9 926.801H689.1c-1.7 0-3.1-1.4-3.1-3.1 0-1.7 1.4-3.1 3.1-3.1h140.8c1.7 0 3.1 1.4 3.1 3.1.1 1.7-1.3 3.1-3.1 3.1ZM801.5 946h-83.9c-1.7 0-3.1-1.4-3.1-3.1 0-1.7 1.4-3.1 3.1-3.1h83.9c1.7 0 3.1 1.4 3.1 3.1 0 1.7-1.4 3.1-3.1 3.1Z" fill="#B2B6BB"/><path d="M767.5 783.5h-8v.8c-18.6 3.7-32.7 20.2-32.7 39.901 0 19.7 14 36.199 32.7 39.899v.801h8c22.5 0 40.7-18.2 40.7-40.7 0-22.5-18.2-40.701-40.7-40.701Z" class="change-color-in-svg" fill="#4D61FC" style="fill:#158566"/><path opacity=".2" d="M767.5 783.5h-8v.8c-18.6 3.7-32.7 20.2-32.7 39.901 0 19.7 14 36.199 32.7 39.899v.801h8c22.5 0 40.7-18.2 40.7-40.7 0-22.5-18.2-40.701-40.7-40.701Z" fill="#000"/><path d="M759.5 864.8c22.478 0 40.7-18.222 40.7-40.7s-18.222-40.7-40.7-40.7-40.7 18.222-40.7 40.7 18.222 40.7 40.7 40.7Z" class="change-color-in-svg" fill="#4D61FC" style="fill:#158566"/><path d="m751.999 841.1-13.7-13.7c-.7-.7-.7-1.9 0-2.7l3.6-3.6c.7-.7 1.9-.7 2.7 0l8.8 8.8 21.2-21.3c.7-.7 1.9-.7 2.7 0l3.6 3.6c.7.7.7 1.9 0 2.7l-26.2 26.2c-.8.8-2 .8-2.7 0Z" fill="#fff"/><path d="M1131.6 970.6H934.9c-4.2 0-7.5-3.4-7.5-7.5V766.4c0-4.2 3.4-7.5 7.5-7.5h196.7c4.2 0 7.5 3.4 7.5 7.5v196.7c.1 4.1-3.3 7.5-7.5 7.5Z" class="change-color-in-svg" fill="#4D61FC" style="fill:#158566"/><path opacity=".5" d="M1131.6 970.6H934.9c-4.2 0-7.5-3.4-7.5-7.5V766.4c0-4.2 3.4-7.5 7.5-7.5h196.7c4.2 0 7.5 3.4 7.5 7.5v196.7c.1 4.1-3.3 7.5-7.5 7.5Z" fill="#fff"/><path d="M1121.9 970.6H925.2c-4.2 0-7.5-3.4-7.5-7.5V766.4c0-4.2 3.4-7.5 7.5-7.5h196.7c4.2 0 7.5 3.4 7.5 7.5v196.7c0 4.1-3.4 7.5-7.5 7.5Z" fill="#fff"/><path d="M1069.8 903.7h-92.6c-3.3 0-5.9-2.7-5.9-5.9 0-3.3 2.7-5.9 5.9-5.9h92.6c3.3 0 5.9 2.7 5.9 5.9.1 3.3-2.6 5.9-5.9 5.9Z" fill="#61656D"/><path d="M1093.9 926.801H953.1c-1.7 0-3.1-1.4-3.1-3.1 0-1.7 1.4-3.1 3.1-3.1h140.8c1.7 0 3.1 1.4 3.1 3.1.1 1.7-1.3 3.1-3.1 3.1ZM1065.5 946h-83.9c-1.7 0-3.1-1.4-3.1-3.1 0-1.7 1.4-3.1 3.1-3.1h83.9c1.7 0 3.1 1.4 3.1 3.1 0 1.7-1.4 3.1-3.1 3.1Z" fill="#B2B6BB"/><path d="M1031.5 783.5h-8v.8c-18.6 3.7-32.7 20.2-32.7 39.901 0 19.7 14 36.199 32.7 39.899v.801h8c22.5 0 40.7-18.2 40.7-40.7 0-22.5-18.2-40.701-40.7-40.701Z" class="change-color-in-svg" fill="#4D61FC" style="fill:#158566"/><path opacity=".2" d="M1031.5 783.5h-8v.8c-18.6 3.7-32.7 20.2-32.7 39.901 0 19.7 14 36.199 32.7 39.899v.801h8c22.5 0 40.7-18.2 40.7-40.7 0-22.5-18.2-40.701-40.7-40.701Z" fill="#000"/><path d="M1063.7 830.623c3.6-22.188-11.46-43.094-33.65-46.695-22.19-3.601-43.095 11.466-46.696 33.654-3.601 22.188 11.466 43.094 33.656 46.695 22.19 3.601 43.09-11.466 46.69-33.654Z" class="change-color-in-svg" fill="#4D61FC" style="fill:#158566"/><path d="m1016 841.101-13.7-13.7c-.7-.7-.7-1.9 0-2.7l3.6-3.6c.7-.7 1.9-.7 2.7 0l8.8 8.8 21.2-21.3c.7-.7 1.9-.7 2.7 0l3.6 3.6c.7.7.7 1.9 0 2.7l-26.2 26.2c-.8.8-2 .8-2.7 0Z" fill="#fff"/><path d="M985.9 1009.9c-7.4 0-13.4 6-13.4 13.4 0 1.6 1.3 2.9 2.9 2.9h21.5c2.4 0 4.6-1.4 5.6-3.7l28-62.8-31.4-36.4c.5 1.8-13.2 86.6-13.2 86.6ZM1141 958.2h-53.2l21.4 20.5c3.1 3 4.5 7.3 3.7 11.6l-3.8 19.6c-7.1 0-12.8 5.7-12.8 12.8v.6c0 1.6 1.3 2.9 2.9 2.9h19.5c2.3 0 4.5-1.3 5.5-3.4l18.3-37.1c2.4-4.9 3-10.6 1.6-15.9l-3.1-11.6Z" fill="#3F4249"/><path d="M1169.9 916.2c11.2-3.4 32-15.4 41.6-27.7.7-1 .7-2.3 0-3.3-.8-1-2.2-1.2-3.3-.6-84.4 47.6-171-8.8-171-8.8-1.2-6.7-5.3-12.4-11.2-15.8-11.8-6.7-26.3-6.7-38.2-.1-4.1 2.3-9 2.8-13.5 1.2l-13.2-4.7c-2.3-.8-4.8.7-5 3.2l-.4 3.9c-1.3 11.6 2.8 23.2 11 31.5l56.6 57.4c6.4 6.5 9.3 15.6 8 24.6l-5 33c-7.4 0-13.4 6-13.4 13.4 0 1.6 1.3 2.9 2.9 2.9h21.5c2.4 0 4.6-1.4 5.6-3.7l28.5-64.3h56.5l21.4 20.5c3.1 3 4.5 7.3 3.7 11.6l-3.8 19.6c-7.1 0-12.8 5.7-12.8 12.8 0 2 1.6 3.5 3.5 3.5h18.8c2.3 0 4.5-1.3 5.5-3.4l18.3-37.1c2.4-4.9 3-10.6 1.6-15.9l-14.2-53.7Z" fill="#868A91"/><path d="M999.977 868.594c1.523-1.523 1.903-3.613.853-4.667-1.058-1.054-3.148-.674-4.671.849-1.523 1.523-1.903 3.612-.848 4.666 1.054 1.055 3.143.675 4.666-.848ZM1157.3 944c0 11.4 9.2 20.6 20.6 20.6 1.5 0 3-.2 4.5-.5l-10.3-39.8c-8.6 2.4-14.8 10.3-14.8 19.7ZM1067.5 966.5l-3.7-1.5c-5-2-10.6-.8-14.4 3-3.1 3.2-4.4 7.7-3.5 12.1l.7 3c.5 2.4.4 4.9-.4 7.3l-.3.8c-2 5.8-.9 12.2 3.1 17l18.5-41.7ZM1042.5 879.1l3.6 22.1c2 12.4 13.1 20.5 24.3 17.8l10.4-2.5c2.3-.6 4.8-.6 7.1-.2l22.3 4.3c10.9 2.1 21.8-3.3 27.6-13.6l1.8-3.2c-45.3 1.3-83.4-17.1-97.1-24.7ZM1183.7 895.7c2.1 1.6 4.7 2.5 7.6 2.5 6.5 0 11.9-4.9 12.6-11.2-6.8 3.5-13.5 6.4-20.2 8.7Z" fill="#3F4249"/><path d="M984.3 886.4c-3-4.1-4.2-9.2-3.6-14.2L982 862c-2.6.4-5.3.2-7.8-.7l-13.2-4.7c-2.3-.8-4.8.7-5 3.2l-.4 3.9c-1.3 11.6 2.8 23.2 11 31.5l16.6 16.8 2.4-4.4c3.7-6.8 3.2-15-1.3-21.2Z" fill="#B2B6BB"/><path d="m1034.6 879.7 10.3 25.9c2.6 6.1.1 14.2-5.4 17.8-6.5 4.3-15.3 4.6-23.9-3.7-11.7-11.2-6.8-36.1-.8-45.6M1127.6 958.3l-11.3-12.3 9.5 20.7 1.8-8.4ZM969.1 859.4l-7.9-2.8c-2.4-.9-5 .8-5.3 3.3l-.6 5.6c1 .2 2 .4 3 .4 4.7-.1 8.8-2.7 10.8-6.5Z" fill="#3F4249"/><path d="m1033.6 877.2 10.8 26.8c1.6 3.9.2 8.4-3.4 10.6-5.3 3.3-13.9 5.6-23.2-3.3-9.9-9.5-8.5-29.7-2.1-38.8" fill="#868A91"/><path d="M1031.3 918.2c-4.2 0-9-1.7-14-6.5-4.7-4.5-7.3-11.6-7.4-20.1-.1-7.5 1.9-15 5.2-19.7.2-.3.6-.4.9-.2.3.2.4.6.2.9-6 8.4-7.8 28.5 2 38 9 8.6 17.1 6.5 22.4 3.2 3.3-2.1 4.6-6.1 3.1-9.7l-10.8-26.8c-.1-.3 0-.7.4-.9.3-.1.7 0 .9.4l10.8 26.8c1.8 4.2.2 9-3.6 11.4-2.8 1.8-6.2 3.2-10.1 3.2Z" fill="#3F4249"/><path d="M1071.2 958.3s12-14.2 45.2-12.4l5.6 12.4h-50.8Z" fill="#B2B6BB"/><path d="m1169.1 912.8.8 3.5s8.5-2.7 16.1-7.3l-16.9 3.8ZM967.3 879.4c-2.7 0-5-.8-6.8-2.3-5.7-4.8-4.8-15.3-4.8-15.8 0-.4.4-.6.7-.6.4 0 .6.4.6.7 0 .1-.9 10.3 4.3 14.6 2.5 2.1 6 2.5 10.5 1.3.4-.1.7.1.8.5.1.4-.1.7-.5.8-1.6.6-3.3.8-4.8.8Z" fill="#3F4249"/><path d="M618.6 412.4c0 2.1 1.7 3.8 3.8 3.8h7.6l1.6 16c.1 1.2 1.2 2.2 2.4 2.2 1.3 0 2.3-1 2.4-2.3l1-15.3c0-.2.2-.4.5-.4.2 0 .4.2.5.4l1 15.3c.1 1.3 1.2 2.3 2.5 2.3s2.5-1.1 2.5-2.4c.2-5 .8-15.5.8-15.5l-.7 15.2c-.1 1.5 1.1 2.7 2.6 2.7 1.3 0 2.3-.9 2.5-2.2l2.3-15.6-1.7 11.6c-.2 1.2.8 2.4 2 2.4.9 0 1.7-.6 2-1.4l3.4-10.2c.5-2.5-.4-5.1-2.3-6.7-7.7-6.7-18.7-8-27.7-3.1l-8.4 2.6c-.3-.1-.6.3-.6.6Z" fill="#FC9D9D"/><path opacity=".15" d="m644.48 416.46-.468 14.091 1.399.047.468-14.092-1.399-.046ZM651.09 417.252l-.945 11.361 1.395.116.946-11.361-1.396-.116Z" fill="#000"/><path opacity=".2" d="M629.999 416.2h-6.6l4-3.8c.8-.8 2.2-.3 2.3.9l.3 2.9Z" fill="#000"/><path opacity=".15" d="m417.7 470.2 3.1-18.2c.1-.6 1-.6 1.1 0l5 35.8-7.1.5-2.1-18.1Z" fill="#000"/></svg>