<svg class="gridItem__media" xmlns="http://www.w3.org/2000/svg" width="1600" height="1200" style="enable-background:new 0 0 1600 1200" xml:space="preserve" fill="none"><path d="M416.12 197.83 167.61 607a36.364 36.364 0 0 0-7.1 21.61l84.62 386.9h1109.74l84.62-353.6a36.44 36.44 0 0 0-6.19-20.33l-244.48-442.5a36.425 36.425 0 0 0-13.12-11.815 36.437 36.437 0 0 0-17.13-4.265H445.46a36.424 36.424 0 0 0-29.34 14.83Z" fill="#F4F4F4"/><path d="M1399.06 1017H194.79a1.589 1.589 0 0 1-1.382-1.58 1.589 1.589 0 0 1 1.382-1.59h1204.27c.38.05.73.24.99.53.25.3.39.67.39 1.06 0 .38-.14.75-.39 1.05-.26.29-.61.48-.99.53Z" fill="#B2B6BB"/><path d="M844.84 671.141h61.1s0-51.3 53.31-52.22c27.68-.47 42 17.66 47.87 31.56 6.77 16.13 4.72 34.52-4.35 49.48-10.36 17.08-32.68 34.25-73.86 27l-.39 136.11h60.41v-80.69s84.73-21.9 84.73-115.27c0-89.34-72.24-108.64-111.07-109.88-21.61-.69-29.44-1.62-56.16 2.17-34.05 4.84-62.31 44.38-61.59 111.74ZM989.67 891.449h-61.31v57.26h61.31v-57.26Z" class="change-color-in-svg" fill="#4D61FC" style="fill:#00b77e"/><path opacity=".1" d="M989.67 891.449h-61.31v57.26h61.31v-57.26ZM844.84 671.141h61.1s0-51.3 53.31-52.22c27.68-.47 42 17.66 47.87 31.56 6.77 16.13 4.72 34.52-4.35 49.48-10.36 17.08-32.68 34.25-73.86 27l-.39 136.11h60.41v-80.69s84.73-21.9 84.73-115.27c0-89.34-72.24-108.64-111.07-109.88-21.61-.69-29.44-1.62-56.16 2.17-34.05 4.84-62.31 44.38-61.59 111.74Z" class="change-color-in-svg" fill="#4D61FC" style="fill:#00b77e"/><path opacity=".3" d="M844.84 671.141h61.1s0-51.3 53.31-52.22c27.68-.47 42 17.66 47.87 31.56 6.77 16.13 4.72 34.52-4.35 49.48-10.36 17.08-32.68 34.25-73.86 27l-.39 136.11h60.41v-80.69s84.73-21.9 84.73-115.27c0-89.34-72.24-108.64-111.07-109.88-21.61-.69-29.44-1.62-56.16 2.17-34.05 4.84-62.31 44.38-61.59 111.74ZM989.67 891.449h-61.31v57.26h61.31v-57.26Z" fill="#000"/><path d="M819.54 671.14h61.091s0-51.3 53.31-52.22c27.68-.47 42 17.66 47.87 31.56 6.77 16.13 4.72 34.52-4.35 49.48-10.36 17.08-33.071 32.61-74.241 25.36v137.75h60.411v-80.69s84.719-21.9 84.719-115.27c0-89.34-80.109-110.09-114.409-110.09-26.22-.02-115.561 6.34-114.401 114.12Z" class="change-color-in-svg" fill="#4D61FC" style="fill:#00b77e"/><path opacity=".3" d="M819.54 671.14h61.091s0-51.3 53.31-52.22c27.68-.47 42 17.66 47.87 31.56 6.77 16.13 4.72 34.52-4.35 49.48-10.36 17.08-33.071 32.61-74.241 25.36v137.75h60.411v-80.69s84.719-21.9 84.719-115.27c0-89.34-80.109-110.09-114.409-110.09-26.22-.02-115.561 6.34-114.401 114.12Z" class="change-color-in-svg" fill="#4D61FC" style="fill:#00b77e"/><path d="M964.36 891.449h-61.31v57.26h61.31v-57.26Z" class="change-color-in-svg" fill="#4D61FC" style="fill:#00b77e"/><path opacity=".3" d="M964.36 891.449h-61.31v57.26h61.31v-57.26Z" class="change-color-in-svg" fill="#4D61FC" style="fill:#00b77e"/><path d="m619.43 338.281 8.79 2.11s1.76-7.381 9.46-5.681a7.322 7.322 0 0 1 5.8 6.19 8.11 8.11 0 0 1-2.33 7c-2.08 2.1-5.88 3.55-11.55 1.09l-4.74 19.81 8.69 2.081 2.77-11.6s12.95-.241 16.16-13.671c3.08-12.85-7.73-18.589-12.66-19.769-3.82-.94-16.82-3.1-20.39 12.44ZM632.154 372.223l-8.798-2.086-1.948 8.216 8.798 2.086 1.948-8.216ZM766.07 383.2l9-1.11s-.93-7.53 6.88-8.63a7.296 7.296 0 0 1 7.6 3.76 8.08 8.08 0 0 1 .26 7.34c-1.21 2.7-4.26 5.39-10.43 5.07l2.5 20.22 8.87-1.09-1.47-11.85s12-4.75 10.34-18.46c-1.62-13.11-13.76-14.7-18.79-14.08-3.89.48-16.89 3.03-14.76 18.83ZM791.34 412.905l-9.001 1.115 1.041 8.405 9.001-1.114-1.041-8.406Z" fill="#B2B6BB"/><path d="M233.31 961.49h275.64v-248.5H178.96l54.35 248.5Z" fill="#D7DADC"/><path d="M230.84 950.181h266.19v-225.79H181.45l49.39 225.79Z" fill="#F2F2F2"/><path d="M537.26 712.99h-28.31v248.5h28.31v-248.5Z" fill="#AFB3B8"/><path d="M207.47 843.35h290.17v-12.12H204.82l2.65 12.12Z" fill="#D7DADC"/><path d="M231.52 732.641h-23.73v98.58h23.73v-98.58Z" fill="#AFB3B8"/><path d="M294.97 732.641h-63.45v98.58h63.45v-98.58Z" fill="#D7DADC"/><path d="M252.6 743.949h-13.34v87.28h13.34v-87.28Z" fill="#AFB3B8"/><path d="M288.35 743.949H252.6v87.28h35.75v-87.28Z" fill="#D7DADC"/><path d="M293.33 831.229h-19.85l-11.41-82.29h19.86l11.4 82.29Z" fill="#AFB3B8"/><path d="M293.33 831.229h52.96l-11.4-82.29h-52.96l11.4 82.29ZM473.13 924.619h-121.7v25.56h121.7v-25.56ZM437.28 883.98h-85.85v20.671h85.85V883.98Z" fill="#D7DADC"/><path d="M457.55 904.66H351.43v19.96h106.12v-19.96Z" fill="#D7DADC"/><path d="M398.96 751.381h-19.25v79.84h19.25v-79.84Z" fill="#AFB3B8"/><path d="M450.39 751.381h-51.43v79.84h51.43v-79.84Z" fill="#D7DADC"/><path d="M254.03 869.859h-19.25v79.84h19.25v-79.84Z" fill="#AFB3B8"/><path d="M305.46 869.859h-51.43v79.84h51.43v-79.84Z" fill="#D7DADC"/><path d="M441.42 760.551h-18.43v70.78h18.43v-70.78Z" fill="#AFB3B8"/><path d="M473 760.551h-31.57v70.78H473v-70.78Z" fill="#D7DADC"/><path d="M437.28 901.189h-85.85v3.46h85.85v-3.46ZM457.55 921.16H351.43v3.46h106.12v-3.46ZM473.13 946.721h-121.7v3.46h121.7v-3.46Z" fill="#AFB3B8"/><path d="m530.54 961.59 4.38 48.48a2.934 2.934 0 0 1-.591 2.35 2.918 2.918 0 0 1-2.159 1.11 2.661 2.661 0 0 1-1.651-.53 2.7 2.7 0 0 1-.999-1.41l-12.73-49.9h13.75v-.1Z" fill="#D7DADC"/><path d="m528.91 989.799-5.29-1.22-6.83-26.89h13.75l4.38 48.481a2.932 2.932 0 0 1-1.73 3.15l-4.28-23.521Z" fill="#AFB3B8"/><path d="m481.05 961.59 4.37 48.48a2.95 2.95 0 0 1-.588 2.36 2.961 2.961 0 0 1-2.162 1.1 2.705 2.705 0 0 1-1.648-.52 2.697 2.697 0 0 1-.992-1.42l-12.73-49.9h13.75v-.1Z" fill="#D7DADC"/><path d="m476.46 966.88-7.94-1.52-1.33-3.87h13.75l4.38 48.47c.105.64-.008 1.31-.322 1.88a2.936 2.936 0 0 1-1.408 1.28l-7.13-46.24Z" fill="#AFB3B8"/><path d="M1433.92 652.669v-8.32l-6.8-12.31v20.63h6.8Z" fill="#B2B6BB"/><path opacity=".1" d="M1433.92 652.669v-8.32l-6.8-12.31v20.63h6.8Z" fill="#000"/><path d="m1274.63 356.04-8.03-14.54-9.89 14.54h17.92ZM1319.53 539.48h-33.69v46.57l33.69-46.57ZM1158.27 356.04h28.01l47.76-73.46-4.92-8.9h-70.85v82.36ZM1371.67 531.671l-4.17-7.53-5.47 7.53h9.64ZM1230.95 451.66h-39.31l-33.37 49.03v30.98h16.01l56.67-80.01ZM1285.84 636.56h125.66v-32.789l-35.52-64.291h-19.62l-70.52 97.08ZM1249.86 635.79l28.17-38.94v-57.37h-22.62l-70.33 97.08h92.95v-.159l-28.17-.611ZM1158.27 636.56h22.41l-22.41-.55v.55ZM1158.27 539.48v14.78l10.48-14.78h-10.48ZM1158.27 363.85v35.26l22.93-35.26h-22.93ZM1236.48 443.85l41.55-58.66v-21.34h-26.64l-54.44 80h39.53ZM1285.84 497.47v34.2h39.33l26.36-36.44-24.07-43.57h-8.44l-33.18 45.81ZM1261.06 531.67h16.97v-23.42l-16.97 23.42ZM1158.27 451.66v49.03l33.37-49.03h-33.37Z" fill="#F4F4F4"/><path opacity=".7" d="M1158.27 451.66v49.03l33.37-49.03h-33.37Z" fill="#fff"/><path d="m1256.71 356.04 9.89-14.54-32.56-58.92-47.76 73.46h70.43Z" fill="#F4F4F4"/><path opacity=".7" d="m1256.71 356.04 9.89-14.54-32.56-58.92-47.76 73.46h70.43Z" fill="#fff"/><path d="M1251.39 363.85h-70.19l-22.93 35.26v44.74h38.68l54.44-80Z" fill="#F4F4F4"/><path opacity=".7" d="M1251.39 363.85h-70.19l-22.93 35.26v44.74h38.68l54.44-80Z" fill="#fff"/><path d="m1185 636.671.08-.11h-4.4l4.32.11Z" fill="#B2B6BB"/><path opacity=".7" d="m1185 636.671.08-.11h-4.4l4.32.11Z" fill="#fff"/><path d="m1168.75 539.48-10.48 14.78v81.75l22.41.55h4.4l70.33-97.08h-86.66Z" fill="#F4F4F4"/><path opacity=".7" d="m1168.75 539.48-10.48 14.78v81.75l22.41.55h4.4l70.33-97.08h-86.66Z" fill="#fff"/><path d="M1319.02 451.66h-33.18v45.81l33.18-45.81Z" fill="#F4F4F4"/><path opacity=".7" d="M1319.02 451.66h-33.18v45.81l33.18-45.81Z" fill="#fff"/><path d="M1278.03 443.849v-58.66l-41.55 58.66h41.55Z" fill="#F4F4F4"/><path opacity=".7" d="M1278.03 443.849v-58.66l-41.55 58.66h41.55Z" fill="#fff"/><path d="m1323.14 443.85-37.3-67.53v67.53h37.3Z" fill="#F4F4F4"/><path opacity=".7" d="m1323.14 443.85-37.3-67.53v67.53h37.3Z" fill="#fff"/><path d="m1261.06 531.67 16.97-23.42v-56.59h-47.08l-56.67 80.01h86.78Z" fill="#F4F4F4"/><path opacity=".7" d="m1261.06 531.67 16.97-23.42v-56.59h-47.08l-56.67 80.01h86.78Z" fill="#fff"/><path d="m1362.03 531.67 5.47-7.53-15.97-28.91-26.36 36.44h36.86Z" fill="#F4F4F4"/><path opacity=".7" d="m1362.03 531.67 5.47-7.53-15.97-28.91-26.36 36.44h36.86Z" fill="#fff"/><path d="m1319.53 539.48-33.69 46.57v50.51l70.52-97.08h-36.83Z" fill="#F4F4F4"/><path opacity=".7" d="m1319.53 539.48-33.69 46.57v50.51l70.52-97.08h-36.83Z" fill="#fff"/><path d="M1278.03 636.4v-39.55l-28.17 38.94 28.17.61Z" fill="#F4F4F4"/><path opacity=".7" d="M1278.03 636.4v-39.55l-28.17 38.94 28.17.61Z" fill="#fff"/><path d="M1411.5 603.77v32.79h-125.66v-97.08H1376l-4.31-7.81h-85.83v-80h41.62l-4.31-7.81h-37.31v-67.53l-6.9-12.48-4.31-7.81h-116.38v-82.36h70.85l-8-14.51h-77.54v393.62h283.55V632l-15.63-28.23ZM1278 508.25v23.42h-119.73v-80H1278v56.58Zm-96.83-144.4H1278v80h-119.73v-80h22.9Zm3.8 272.82-4.32-.11h-22.41v-97.08H1278v97.08h-93l-.03.11Z" fill="#B2B6BB"/><path d="M1323.69 781.43h-121.2a3.55 3.55 0 0 1-2.68-.937 3.598 3.598 0 0 1-.84-1.183c-.2-.448-.3-.931-.3-1.42 0-.489.1-.972.3-1.42.2-.448.48-.85.84-1.183a3.55 3.55 0 0 1 2.68-.937h121.2a3.625 3.625 0 0 1 3.45 2.139c.19.438.3.911.31 1.391-.05.963-.46 1.87-1.16 2.532a3.764 3.764 0 0 1-2.6 1.018" fill="#868A91"/><path d="m1315.45 781.43 18.93 233.13h-3.82l-28.46-233.13h13.35ZM1210.05 781.43l-19.07 233.13h3.82l28.46-233.13h-13.21Z" fill="#868A91"/><path opacity=".3" d="m1210.05 781.43-.55 4.49h6.54l-22.88 228.64h1.63l28.46-233.13h-13.2ZM1320.62 870.76h-3.4l-15.12-89.33h13.35l18.93 233.13h-1.91l-11.85-143.8Z" fill="#000"/><path d="m1254.58 781.43 2.99 233.13h3.82l6.53-233.13h-13.34Z" fill="#868A91"/><path opacity=".3" d="m1254.58 781.43 2.99 233.13h3.82l6.53-233.13h-13.34Z" fill="#000"/><path d="M356.34 657.461H419v31.54a20.838 20.838 0 0 1-6.098 14.735 20.807 20.807 0 0 1-6.759 4.518 20.815 20.815 0 0 1-7.973 1.587h-20.6a20.852 20.852 0 0 1-20.84-20.57l-.39-31.81Z" fill="#3F4249"/><path d="M391.89 647.999a10.772 10.772 0 0 0 10.5.88 11.32 11.32 0 0 0 5.74-9.07 12.902 12.902 0 0 0-10.48-.54 12.728 12.728 0 0 0-7 7.79M420.82 659.159a10.75 10.75 0 0 0 10.49.88 11.328 11.328 0 0 0 5.74-9.07 12.902 12.902 0 0 0-10.48-.54 12.77 12.77 0 0 0-7 7.8M404.58 634.229a10.798 10.798 0 0 0 8.28 6.52 11.382 11.382 0 0 0 9.79-4.42 12.158 12.158 0 0 0-13.814-6.021 12.17 12.17 0 0 0-4.766 2.481M415.13 647.15a10.807 10.807 0 0 0-9.44 4.67 11.41 11.41 0 0 0-.23 10.74 12.123 12.123 0 0 0 9.239-4.943 12.126 12.126 0 0 0 1.941-10.297M425.32 667.541a10.78 10.78 0 0 0 .26 10.54 11.326 11.326 0 0 0 9.64 4.73c.642-1.689.921-3.495.818-5.299a12.856 12.856 0 0 0-1.418-5.171c-1.66-3-4.65-4.52-8.41-5.38" class="change-color-in-svg" fill="#4D61FC" style="fill:#00b77e"/><path d="M442.14 670a7.587 7.587 0 0 0-2.49-1.6 11.068 11.068 0 0 0-3.43-.6c-1.561.001-3.12.091-4.67.27a13.582 13.582 0 0 1-5.74-.5 8.822 8.822 0 0 1-4.75-4.59 25.72 25.72 0 0 1-2-7 20.074 20.074 0 0 0-2.44-7.18 24.87 24.87 0 0 0-5.35-5.44 26.172 26.172 0 0 1-5.12-5.19 17.187 17.187 0 0 1-2.55-11.92 16.824 16.824 0 0 1 3.11-7.65c.455-.601.96-1.163 1.51-1.68a3.57 3.57 0 0 1 .61-.5c-.143.219-.311.42-.5.6a17.207 17.207 0 0 0-1.4 1.73 17.103 17.103 0 0 0-2.84 7.57 16.767 16.767 0 0 0 2.59 11.49 25.965 25.965 0 0 0 5 5 26.125 26.125 0 0 1 5.51 5.59 20.476 20.476 0 0 1 2.51 7.42 25.63 25.63 0 0 0 2 6.85A8.278 8.278 0 0 0 426 667c1.779.559 3.656.74 5.51.53a39.346 39.346 0 0 1 4.72-.16c1.205.036 2.393.286 3.51.74a6.175 6.175 0 0 1 1.91 1.22c.143.138.274.288.39.45a.976.976 0 0 1 .08.17" class="change-color-in-svg" fill="#4D61FC" style="fill:#00b77e"/><path d="M442.14 670a7.587 7.587 0 0 0-2.49-1.6 11.068 11.068 0 0 0-3.43-.6c-1.561.001-3.12.091-4.67.27a13.582 13.582 0 0 1-5.74-.5 8.822 8.822 0 0 1-4.75-4.59 25.72 25.72 0 0 1-2-7 20.074 20.074 0 0 0-2.44-7.18 24.87 24.87 0 0 0-5.35-5.44 26.172 26.172 0 0 1-5.12-5.19 17.187 17.187 0 0 1-2.55-11.92 16.824 16.824 0 0 1 3.11-7.65c.455-.601.96-1.163 1.51-1.68a3.57 3.57 0 0 1 .61-.5c-.143.219-.311.42-.5.6a17.207 17.207 0 0 0-1.4 1.73 17.103 17.103 0 0 0-2.84 7.57 16.767 16.767 0 0 0 2.59 11.49 25.965 25.965 0 0 0 5 5 26.125 26.125 0 0 1 5.51 5.59 20.476 20.476 0 0 1 2.51 7.42 25.63 25.63 0 0 0 2 6.85A8.278 8.278 0 0 0 426 667c1.779.559 3.656.74 5.51.53a39.346 39.346 0 0 1 4.72-.16c1.205.036 2.393.286 3.51.74a6.175 6.175 0 0 1 1.91 1.22c.143.138.274.288.39.45a.976.976 0 0 1 .08.17M320.87 674.78a15.993 15.993 0 0 0-13.859-16.686 16.007 16.007 0 0 0-7.811.906c3.65 8.38 12.57 14.74 21.67 15.76M317.41 676.221c-3.09 3.39-3.11 10.1-.89 14.12 2.22 4.02 6 6.9 9.84 9.45a20.814 20.814 0 0 0-8.95-23.57M332.18 661.53a18.456 18.456 0 0 0 13.612 16.008c2.408.641 4.922.788 7.388.432-1.2-5-3.2-10-7-13.36-3.8-3.36-9.9-4.63-14.15-1.78M332.12 654.73c-.77-4.52-5.29-6.09-9.85-6.52-4.56-.43-9.1 1.52-12.76 4.29a16.574 16.574 0 0 0 22.61 2.23ZM307.911 693.59c-4.35 3.71-5.07 11.68-3.27 17.09 1.8 5.41 6 9.75 10.79 12.91 1.83-5.37 3-11.13 2-16.72-1-5.59-4.33-11-9.53-13.28M331.78 643.19a12.205 12.205 0 0 1 9.87-5.26 13.521 13.521 0 0 1 10.87 4.59 11.808 11.808 0 0 1-10.24 6.83 11.528 11.528 0 0 1-10.5-6.16M336.7 630.699a17.35 17.35 0 0 1-14.113-1.813 17.353 17.353 0 0 1-8.017-11.757 39.394 39.394 0 0 1 10.46.151 16.994 16.994 0 0 1 9.25 4.559 9.189 9.189 0 0 1 2.398 4.106 9.168 9.168 0 0 1 .022 4.754M346.87 627a14.213 14.213 0 0 1-3.823-4.884 14.198 14.198 0 0 1 3.743-17.016 29.706 29.706 0 0 1 6.21 13.2 11.24 11.24 0 0 1-.05 5.47 4.999 4.999 0 0 1-3.83 3.59" class="change-color-in-svg" fill="#4D61FC" style="fill:#00b77e"/><path opacity=".4" d="M332.18 661.53a18.456 18.456 0 0 0 13.612 16.008c2.408.641 4.922.788 7.388.432-1.2-5-3.2-10-7-13.36-3.8-3.36-9.9-4.63-14.15-1.78M336.7 630.699a17.35 17.35 0 0 1-14.113-1.813 17.353 17.353 0 0 1-8.017-11.757 39.394 39.394 0 0 1 10.46.151 16.994 16.994 0 0 1 9.25 4.559 9.189 9.189 0 0 1 2.398 4.106 9.168 9.168 0 0 1 .022 4.754" class="change-color-in-svg" fill="#4D61FC" style="fill:#00b77e"/><path d="M364.091 659.12a1.548 1.548 0 0 1 0-.36c0-.27.05-.61.07-1 .06-.91.14-2.27.18-4a35.917 35.917 0 0 0-2.34-14.41 22.063 22.063 0 0 0-5.78-8.13 15.396 15.396 0 0 0-10.52-3.87c-2.07.019-4.106.53-5.94 1.49a11.75 11.75 0 0 0-4.59 4.38c-2.3 3.78-2.86 8.53-2.67 13.21.19 4.68.84 9.37.32 13.91a20.875 20.875 0 0 1-1.73 6.44 13.56 13.56 0 0 1-3.9 5.1 19.4 19.4 0 0 1-5.41 2.77 28.066 28.066 0 0 0-5.11 2.32 18.545 18.545 0 0 0-6.71 7.31 17.793 17.793 0 0 0-1.94 8 18.764 18.764 0 0 0 1 6.18 23.602 23.602 0 0 0 2.39 4.81 1.664 1.664 0 0 1-.23-.28 9.458 9.458 0 0 1-.61-.84 16.799 16.799 0 0 1-1.81-3.6 18.637 18.637 0 0 1-1.15-6.27 17.897 17.897 0 0 1 1.89-8.22 18.912 18.912 0 0 1 6.84-7.58c3.13-2.08 7.26-2.6 10.44-5.1 3.18-2.5 4.86-6.78 5.36-11.12.5-4.34-.16-9-.34-13.81-.18-4.81.37-9.64 2.77-13.59a12.392 12.392 0 0 1 4.85-4.61 13.878 13.878 0 0 1 6.24-1.53 16.065 16.065 0 0 1 10.9 4.07 22.4 22.4 0 0 1 5.86 8.38 29.542 29.542 0 0 1 2 8.21c.205 2.117.265 4.245.18 6.37-.07 1.74-.2 3.1-.31 4-.05.42-.09.76-.12 1a1.85 1.85 0 0 1-.08.32" class="change-color-in-svg" fill="#4D61FC" style="fill:#00b77e"/><path opacity=".4" d="M364.091 659.12a1.548 1.548 0 0 1 0-.36c0-.27.05-.61.07-1 .06-.91.14-2.27.18-4a35.917 35.917 0 0 0-2.34-14.41 22.063 22.063 0 0 0-5.78-8.13 15.396 15.396 0 0 0-10.52-3.87c-2.07.019-4.106.53-5.94 1.49a11.75 11.75 0 0 0-4.59 4.38c-2.3 3.78-2.86 8.53-2.67 13.21.19 4.68.84 9.37.32 13.91a20.875 20.875 0 0 1-1.73 6.44 13.56 13.56 0 0 1-3.9 5.1 19.4 19.4 0 0 1-5.41 2.77 28.066 28.066 0 0 0-5.11 2.32 18.545 18.545 0 0 0-6.71 7.31 17.793 17.793 0 0 0-1.94 8 18.764 18.764 0 0 0 1 6.18 23.602 23.602 0 0 0 2.39 4.81 1.664 1.664 0 0 1-.23-.28 9.458 9.458 0 0 1-.61-.84 16.799 16.799 0 0 1-1.81-3.6 18.637 18.637 0 0 1-1.15-6.27 17.897 17.897 0 0 1 1.89-8.22 18.912 18.912 0 0 1 6.84-7.58c3.13-2.08 7.26-2.6 10.44-5.1 3.18-2.5 4.86-6.78 5.36-11.12.5-4.34-.16-9-.34-13.81-.18-4.81.37-9.64 2.77-13.59a12.392 12.392 0 0 1 4.85-4.61 13.878 13.878 0 0 1 6.24-1.53 16.065 16.065 0 0 1 10.9 4.07 22.4 22.4 0 0 1 5.86 8.38 29.542 29.542 0 0 1 2 8.21c.205 2.117.265 4.245.18 6.37-.07 1.74-.2 3.1-.31 4-.05.42-.09.76-.12 1a1.85 1.85 0 0 1-.08.32" fill="#21252B"/><path d="M456.2 647.83c.592-1.477.91-3.049.94-4.64a11.629 11.629 0 0 0-1.23-5.35 11.45 11.45 0 0 0-9.22-6.08 13.136 13.136 0 0 0-4.55.53c-3.1.81-6.16 2.58-9.83 3.3-1.882.423-3.84.375-5.7-.14a8.538 8.538 0 0 1-4.64-3.71c-2.21-3.43-2.84-7.73-5.5-10.89a11 11 0 0 0-5-3.27 14.254 14.254 0 0 0-5.85-.59 15.003 15.003 0 0 0-9.71 5.06 22.908 22.908 0 0 0-4.81 8.95 27.003 27.003 0 0 0-1.1 8.8 96.135 96.135 0 0 0 1.64 12.92c.25 1.49.46 2.65.6 3.51.06.37.1.66.14.91a.897.897 0 0 1 0 .31 1.298 1.298 0 0 1-.09-.3c-.06-.25-.12-.54-.2-.9-.18-.85-.43-2-.73-3.48a88.07 88.07 0 0 1-1.87-13 27.305 27.305 0 0 1 1-9 23.146 23.146 0 0 1 4.9-9.19 17.661 17.661 0 0 1 4.44-3.55 15.21 15.21 0 0 1 11.8-1.13 11.399 11.399 0 0 1 5.37 3.5c2.82 3.38 3.42 7.71 5.54 11a7.9 7.9 0 0 0 4.27 3.44c1.756.499 3.609.551 5.39.15 3.53-.67 6.61-2.41 9.8-3.23a13.392 13.392 0 0 1 4.74-.51 11.92 11.92 0 0 1 4.26 1.15 11.43 11.43 0 0 1 6.44 10.77 10.606 10.606 0 0 1-.69 3.5 5.93 5.93 0 0 1-.53 1.16" fill="#21252B"/><path d="M419.211 624.86a12.227 12.227 0 0 0 11.27.739 11.365 11.365 0 0 0 5.75-9.079 12.145 12.145 0 0 0-10.468-.549 12.147 12.147 0 0 0-6.992 7.809M431.19 635.751a12.303 12.303 0 0 0 5.24 10 11.354 11.354 0 0 0 10.74.18 12.9 12.9 0 0 0-5-9.22 12.74 12.74 0 0 0-10.28-1.89M452 633.33a12.312 12.312 0 0 0 11.3-.46 11.36 11.36 0 0 0 4.74-9.64 12.146 12.146 0 0 0-14.495 4.13 12.15 12.15 0 0 0-2.095 4.95M401.73 617.65c-3-2.61-5.07-7.2-4.48-10.65a11.317 11.317 0 0 1 7-8.16 12.909 12.909 0 0 1 3.61 9.85 12.778 12.778 0 0 1-5.39 9M375.66 622.501a15.693 15.693 0 0 0 12-5 14.87 14.87 0 0 0 3.19-12.28 13.1 13.1 0 0 0-6.948.303 13.102 13.102 0 0 0-8.862 10.066 13.11 13.11 0 0 0 .58 6.931" class="change-color-in-svg" fill="#4D61FC" style="fill:#00b77e"/><path opacity=".7" d="M375.66 622.501a15.693 15.693 0 0 0 12-5 14.87 14.87 0 0 0 3.19-12.28 13.1 13.1 0 0 0-6.948.303 13.102 13.102 0 0 0-8.862 10.066 13.11 13.11 0 0 0 .58 6.931" fill="#fff"/><path d="M320.49 602.76s0-.09.12-.27l.43-.78c.38-.67 1-1.65 1.83-2.85a30.586 30.586 0 0 1 9.05-8.56 22.006 22.006 0 0 1 8.13-3 19.998 19.998 0 0 1 9.87 1 16.057 16.057 0 0 1 8.44 6.92c1.93 3.39 2.57 7.36 3.7 11.16a19.522 19.522 0 0 0 2.36 5.32 16.005 16.005 0 0 0 4 4c1.51 1.11 3.09 2.11 4.52 3.29a19.977 19.977 0 0 1 3.67 4 24.36 24.36 0 0 1 3.76 9.19c.551 2.841.722 5.743.51 8.63a65.471 65.471 0 0 1-2.21 12.28c-.37 1.43-.69 2.52-.91 3.27a7.65 7.65 0 0 1-.37 1.12c.051-.392.128-.779.23-1.16.19-.82.46-1.92.79-3.3a71.437 71.437 0 0 0 2-12.25 32.715 32.715 0 0 0-.58-8.5 23.925 23.925 0 0 0-3.72-8.93 18.674 18.674 0 0 0-3.57-3.83c-1.39-1.14-3-2.13-4.5-3.26a16.869 16.869 0 0 1-4.18-4.12 20.532 20.532 0 0 1-2.44-5.51c-1.15-3.86-1.77-7.78-3.63-11a15.423 15.423 0 0 0-8.08-6.66 19.605 19.605 0 0 0-9.57-1.06 21.735 21.735 0 0 0-7.95 2.83 31.903 31.903 0 0 0-9.09 8.27c-.88 1.18-1.51 2.13-1.93 2.78-.202.349-.43.683-.68 1" class="change-color-in-svg" fill="#4D61FC" style="fill:#00b77e"/><path d="M369.19 617.07a11.535 11.535 0 0 0-5.91 1.89 15.998 15.998 0 0 0-5.18 16.78 12.74 12.74 0 0 0 11.33-6 12.582 12.582 0 0 0-.24-12.72" class="change-color-in-svg" fill="#4D61FC" style="fill:#00b77e"/><path opacity=".7" d="M369.19 617.07a11.535 11.535 0 0 0-5.91 1.89 15.998 15.998 0 0 0-5.18 16.78 12.74 12.74 0 0 0 11.33-6 12.582 12.582 0 0 0-.24-12.72" fill="#fff"/><path d="M327.21 597.13c-.53-1.33-1.28-.94-2.66-1.31a8.816 8.816 0 0 0-4.24.08 16 16 0 0 0-11.91 12.92 12.476 12.476 0 0 0 12.803-.486 12.47 12.47 0 0 0 5.617-11.514M379.66 643.181a14.401 14.401 0 0 0-22.66 1.11 17.866 17.866 0 0 0 11.75 4.64 18.19 18.19 0 0 0 11.84-4.8M361.001 600.16a14.618 14.618 0 0 0 17.367-5.479 14.627 14.627 0 0 0 2.343-6.061 13.12 13.12 0 0 0-20.12 11.24M355.93 592.56a14.632 14.632 0 0 0-17.368 5.479 14.626 14.626 0 0 0-2.342 6.061 13.115 13.115 0 0 0 13.399.358 13.116 13.116 0 0 0 6.721-11.598M349.89 588.48a14.618 14.618 0 0 0 7.77-21.48 13.124 13.124 0 0 0-10.524 8.298 13.115 13.115 0 0 0 2.254 13.212M334.391 589.22a14.624 14.624 0 0 0-11.93-19.48 13.104 13.104 0 0 0 4.873 18.26 13.108 13.108 0 0 0 6.757 1.63" class="change-color-in-svg" fill="#4D61FC" style="fill:#00b77e"/><g opacity=".7"><g opacity=".7"><path opacity=".7" d="M391.89 647.999a10.772 10.772 0 0 0 10.5.88 11.32 11.32 0 0 0 5.74-9.07 12.902 12.902 0 0 0-10.48-.54 12.728 12.728 0 0 0-7 7.79M420.82 659.159a10.75 10.75 0 0 0 10.49.88 11.328 11.328 0 0 0 5.74-9.07 12.902 12.902 0 0 0-10.48-.54 12.77 12.77 0 0 0-7 7.8M404.58 634.229a10.798 10.798 0 0 0 8.28 6.52 11.382 11.382 0 0 0 9.79-4.42 12.158 12.158 0 0 0-13.814-6.021 12.17 12.17 0 0 0-4.766 2.481M415.13 647.15a10.807 10.807 0 0 0-9.44 4.67 11.41 11.41 0 0 0-.23 10.74 12.123 12.123 0 0 0 9.239-4.943 12.126 12.126 0 0 0 1.941-10.297M425.32 667.539a10.78 10.78 0 0 0 .26 10.54 11.338 11.338 0 0 0 4.224 3.58 11.34 11.34 0 0 0 5.416 1.15c.642-1.689.921-3.495.818-5.299a12.856 12.856 0 0 0-1.418-5.171c-1.66-3-4.65-4.52-8.41-5.38" fill="#fff"/></g><path opacity=".7" d="M442.141 670a7.587 7.587 0 0 0-2.49-1.6 11.068 11.068 0 0 0-3.43-.6c-1.561.001-3.12.091-4.67.27a13.582 13.582 0 0 1-5.74-.5 8.822 8.822 0 0 1-4.75-4.59 25.72 25.72 0 0 1-2-7 20.074 20.074 0 0 0-2.44-7.18 24.87 24.87 0 0 0-5.35-5.44 26.172 26.172 0 0 1-5.12-5.19 17.187 17.187 0 0 1-2.55-11.92 16.813 16.813 0 0 1 3.11-7.65c.455-.601.96-1.163 1.51-1.68a3.57 3.57 0 0 1 .61-.5c-.143.219-.311.42-.5.6a17.207 17.207 0 0 0-1.4 1.73 17.103 17.103 0 0 0-2.84 7.57 16.767 16.767 0 0 0 2.59 11.49 25.965 25.965 0 0 0 5 5 26.148 26.148 0 0 1 5.51 5.59 20.476 20.476 0 0 1 2.51 7.42 25.63 25.63 0 0 0 2 6.85 8.278 8.278 0 0 0 4.3 4.33c1.779.559 3.656.74 5.51.53a39.346 39.346 0 0 1 4.72-.16c1.204.036 2.393.286 3.51.74a6.175 6.175 0 0 1 1.91 1.22c.143.138.274.288.39.45a.976.976 0 0 1 .08.17" fill="#fff"/><path opacity=".7" d="M442.141 670a7.587 7.587 0 0 0-2.49-1.6 11.068 11.068 0 0 0-3.43-.6c-1.561.001-3.12.091-4.67.27a13.582 13.582 0 0 1-5.74-.5 8.822 8.822 0 0 1-4.75-4.59 25.72 25.72 0 0 1-2-7 20.074 20.074 0 0 0-2.44-7.18 24.87 24.87 0 0 0-5.35-5.44 26.172 26.172 0 0 1-5.12-5.19 17.187 17.187 0 0 1-2.55-11.92 16.813 16.813 0 0 1 3.11-7.65c.455-.601.96-1.163 1.51-1.68a3.57 3.57 0 0 1 .61-.5c-.143.219-.311.42-.5.6a17.207 17.207 0 0 0-1.4 1.73 17.103 17.103 0 0 0-2.84 7.57 16.767 16.767 0 0 0 2.59 11.49 25.965 25.965 0 0 0 5 5 26.148 26.148 0 0 1 5.51 5.59 20.476 20.476 0 0 1 2.51 7.42 25.63 25.63 0 0 0 2 6.85 8.278 8.278 0 0 0 4.3 4.33c1.779.559 3.656.74 5.51.53a39.346 39.346 0 0 1 4.72-.16c1.204.036 2.393.286 3.51.74a6.175 6.175 0 0 1 1.91 1.22c.143.138.274.288.39.45a.976.976 0 0 1 .08.17" fill="#21252B"/></g><g opacity=".7"><path opacity=".7" d="M327.21 597.131c-.53-1.33-1.28-.94-2.66-1.31a8.942 8.942 0 0 0-4.24.07 15.998 15.998 0 0 0-11.91 12.93 12.486 12.486 0 0 0 12.797-.495 12.476 12.476 0 0 0 5.623-11.505M379.66 643.181a14.401 14.401 0 0 0-22.66 1.11 17.866 17.866 0 0 0 11.75 4.64 18.19 18.19 0 0 0 11.84-4.8M361.001 600.16a14.618 14.618 0 0 0 17.367-5.479 14.627 14.627 0 0 0 2.343-6.061 13.12 13.12 0 0 0-20.12 11.24M355.931 592.56a14.632 14.632 0 0 0-17.368 5.479 14.626 14.626 0 0 0-2.342 6.061 13.115 13.115 0 0 0 13.399.358 13.116 13.116 0 0 0 6.721-11.598M349.89 588.48a14.618 14.618 0 0 0 7.77-21.48 13.124 13.124 0 0 0-10.524 8.298 13.115 13.115 0 0 0 2.254 13.212M334.391 589.22a14.624 14.624 0 0 0-11.93-19.48 13.104 13.104 0 0 0 4.873 18.26 13.108 13.108 0 0 0 6.757 1.63" fill="#fff"/><path opacity=".7" d="M320.49 602.76s0-.09.12-.27l.43-.78c.38-.67 1-1.65 1.83-2.85a30.586 30.586 0 0 1 9.05-8.56 22.006 22.006 0 0 1 8.13-3 19.998 19.998 0 0 1 9.87 1 16.057 16.057 0 0 1 8.44 6.92c1.93 3.39 2.57 7.36 3.7 11.16a19.522 19.522 0 0 0 2.36 5.32 16.005 16.005 0 0 0 4 4c1.51 1.11 3.09 2.11 4.52 3.29a19.977 19.977 0 0 1 3.67 4 24.36 24.36 0 0 1 3.76 9.19c.551 2.841.722 5.743.51 8.63a65.471 65.471 0 0 1-2.21 12.28c-.37 1.43-.69 2.52-.91 3.27a7.65 7.65 0 0 1-.37 1.12c.051-.392.128-.779.23-1.16.19-.82.46-1.92.79-3.3a71.437 71.437 0 0 0 2-12.25 32.715 32.715 0 0 0-.58-8.5 23.925 23.925 0 0 0-3.72-8.93 18.674 18.674 0 0 0-3.57-3.83c-1.39-1.14-3-2.13-4.5-3.26a16.869 16.869 0 0 1-4.18-4.12 20.532 20.532 0 0 1-2.44-5.51c-1.15-3.86-1.77-7.78-3.63-11a15.423 15.423 0 0 0-8.08-6.66 19.605 19.605 0 0 0-9.57-1.06 21.735 21.735 0 0 0-7.95 2.83 31.903 31.903 0 0 0-9.09 8.27c-.88 1.18-1.51 2.13-1.93 2.78-.202.349-.43.683-.68 1" fill="#21252B"/></g><path d="M457.15 396.23h-119.7v94.01h119.7v-94.01Z" fill="#fff"/><path d="M445.1 408.75h-95.61v68.96h95.61v-68.96Z" fill="#DDD"/><path d="M459.83 396.25h-2.73v93.93h2.73v-93.93Z" fill="#DADDDF"/><path d="M426.92 425.25h-59.24v23.63h59.24v-23.63Z" fill="#B1B5BA"/><path d="M397.3 462.279c6.721 0 12.17-5.448 12.17-12.17 0-6.721-5.449-12.17-12.17-12.17s-12.17 5.449-12.17 12.17c0 6.722 5.449 12.17 12.17 12.17ZM1305.18 757.631h-63.12v16.51h63.12a8.238 8.238 0 0 0 5.65-2.517 8.249 8.249 0 0 0 2.32-5.738c0-2.141-.83-4.198-2.32-5.738a8.234 8.234 0 0 0-5.65-2.517" class="change-color-in-svg" fill="#4D61FC" style="fill:#00b77e"/><path opacity=".2" d="M1305.18 757.631h-63.12v16.51h63.12a8.238 8.238 0 0 0 5.65-2.517 8.249 8.249 0 0 0 2.32-5.738c0-2.141-.83-4.198-2.32-5.738a8.234 8.234 0 0 0-5.65-2.517" fill="#fff"/><path d="M1247.32 774.141h-31.93v-2.36h9.89v-11.7h-9.89v-2.45h31.93c2.14.074 4.17.977 5.65 2.517a8.249 8.249 0 0 1 2.32 5.738c0 2.141-.83 4.198-2.32 5.738a8.238 8.238 0 0 1-5.65 2.517" class="change-color-in-svg" fill="#4D61FC" style="fill:#00b77e"/><path d="M1217.75 771.69h29.48a5.805 5.805 0 0 0 3.95-1.783 5.803 5.803 0 0 0 0-8.044 5.805 5.805 0 0 0-3.95-1.783h-29.48v11.61Z" fill="#fff"/><path d="M1314.61 744.93h-52.69v12.7h52.69a2.2 2.2 0 0 0 1.54-.638c.4-.406.63-.957.64-1.532v-8.35a2.19 2.19 0 0 0-2.18-2.18" class="change-color-in-svg" fill="#4D61FC" style="fill:#00b77e"/><path opacity=".2" d="M1284.68 749.199h18.14c.12-.001.24.021.35.066a.85.85 0 0 1 .29.194.899.899 0 0 1 .27.64v2.81a.878.878 0 0 1-.27.64.838.838 0 0 1-.29.195.907.907 0 0 1-.35.065h-18.14a.911.911 0 0 1-.64-.263.936.936 0 0 1-.26-.637v-2.81c0-.238.1-.467.26-.636.17-.169.4-.264.64-.264" fill="#000"/><path d="M1241.51 757.63h28.66a2.159 2.159 0 0 0 1.53-.638c.41-.406.64-.957.65-1.532v-8.35a2.19 2.19 0 0 0-2.18-2.18h-28.66v12.7Z" class="change-color-in-svg" fill="#4D61FC" style="fill:#00b77e"/><path opacity=".2" d="M1241.51 757.63h28.66a2.159 2.159 0 0 0 1.53-.638c.41-.406.64-.957.65-1.532v-8.35a2.19 2.19 0 0 0-2.18-2.18h-28.66v12.7Z" fill="#000"/><path d="M1241.51 755.73h27.84c.29-.001.57-.116.78-.32.2-.206.31-.482.31-.77v-6.8a1.2 1.2 0 0 0-.08-.419.933.933 0 0 0-.24-.355c-.1-.101-.22-.181-.35-.236a1.1 1.1 0 0 0-.42-.08h-27.84v8.98Z" fill="#fff"/><path d="M1225.28 744.93h62.31v-12.69h-62.31a3 3 0 0 0-2.13.87 3.104 3.104 0 0 0-.87 2.12V742c.03.778.35 1.516.91 2.057.56.541 1.31.844 2.09.843" class="change-color-in-svg" fill="#4D61FC" style="fill:#00b77e"/><path opacity=".3" d="M1225.28 744.93h62.31v-12.69h-62.31a3 3 0 0 0-2.13.87 3.104 3.104 0 0 0-.87 2.12V742c.03.778.35 1.516.91 2.057.56.541 1.31.844 2.09.843" fill="#fff"/><path d="M1308.9 734.141h-28.66a1.103 1.103 0 0 0-1.01.672c-.05.132-.08.274-.08.418v6.77c0 .143.03.285.08.417a1.112 1.112 0 0 0 1.01.673h28.66v-8.95Z" fill="#fff"/><path d="M1279.42 732.24H1311v1.9h-30.75c-.14-.008-.28.008-.41.05a.911.911 0 0 0-.35.21.957.957 0 0 0-.25.34c-.05.127-.08.263-.08.4V742c0 .141.03.28.08.41.06.126.14.239.25.33.1.1.22.173.35.21.13.029.27.029.41 0H1311v1.9h-31.57c-.58 0-1.13-.226-1.54-.63a2.159 2.159 0 0 1-.63-1.54v-8.35c0-.576.22-1.13.63-1.54.41-.403.96-.63 1.54-.63" class="change-color-in-svg" fill="#4D61FC" style="fill:#00b77e"/><path opacity=".2" d="M1279.42 732.24H1311v1.9h-30.75c-.14-.008-.28.008-.41.05a.911.911 0 0 0-.35.21.957.957 0 0 0-.25.34c-.05.127-.08.263-.08.4V742c0 .141.03.28.08.41.06.126.14.239.25.33.1.1.22.173.35.21.13.029.27.029.41 0H1311v1.9h-31.57c-.58 0-1.13-.226-1.54-.63a2.159 2.159 0 0 1-.63-1.54v-8.35c0-.576.22-1.13.63-1.54.41-.403.96-.63 1.54-.63" fill="#000"/><path d="M632.23 1001.46h24.74l4.58-41.87-29.24.09-.08 41.78Z" fill="#956363"/><path opacity=".2" d="M632.27 971.869v3.41h19.42a4.605 4.605 0 0 1 4.373 3.186c.198.614.265 1.263.197 1.904l-1.63 14.88h3l2.56-23.38h-27.92Z" fill="#000"/><path d="m634.78 985.579.75-.65c5.61-4.87 15.27-4.81 20.72.22l.41.42a6.28 6.28 0 0 1 2.15 4.58v2.73a13.016 13.016 0 0 0 .82 4.65l2.55 7.381c.656 1.77.995 3.63 1 5.52v.93c0 1.43-1.48 2.57-3.22 2.57h-29.63c-1.82 0-3.22-1.15-3.22-2.57v-.36a17.31 17.31 0 0 1 1.24-6.38l3-7.231a13.633 13.633 0 0 0 1.07-5.16l.09-2.07a6.714 6.714 0 0 1 2.27-4.58Z" fill="#25282F"/><path d="m634.78 985.579.75-.65c5.61-4.87 15.27-4.81 20.72.22l.41.42a6.28 6.28 0 0 1 2.15 4.58v2.73a13.016 13.016 0 0 0 .82 4.65l2.55 7.381c.656 1.77.995 3.63 1 5.52v.93c0 1.43-1.48 2.57-3.22 2.57h-29.63c-1.82 0-3.22-1.15-3.22-2.57v-.36a17.31 17.31 0 0 1 1.24-6.38l3-7.231a13.633 13.633 0 0 0 1.07-5.16l.09-2.07a6.714 6.714 0 0 1 2.27-4.58Z" fill="#25282F"/><path d="m728.65 972.14 1.65 24.33 48.22 2.24-16-16.18c-3.05-2.2-4.93-7-5.55-10.68l-28.32.29Z" fill="#956363"/><path opacity=".2" d="M745.88 976.2a12.001 12.001 0 0 1 10.72 6.52 11.876 11.876 0 0 0 3.33 4.07l11.49 11.59 7.1.33-16-16.18c-3.05-2.2-4.93-7-5.55-10.68l-28.28.29.28 4.22 16.91-.16Z" fill="#000"/><path d="M729.31 986.18s10.93 6.82 23.2.92a7.212 7.212 0 0 1 2.47-6.91c2-1.6 6.17-2.13 7.29-.65s2.87 3.92 5.8 7.48c4.07 4.91 9.58 10.58 13.84 11.48 7.82 1.63 23.6-6.35 24.69 10.34 0 0-15.42 5.8-29.77 4.35a119.347 119.347 0 0 1-27.38-6.54v6.71h-22.33s-5.06-18.82 2.19-27.18Z" fill="#25282F"/><path d="M725.49 1002.7c.219 3.61.768 7.18 1.64 10.69h22.33v-6.7a119.347 119.347 0 0 0 27.38 6.54c14.35 1.44 29.76-4.34 29.76-4.34a20.367 20.367 0 0 0-.6-3.82 49.217 49.217 0 0 1-36.26 3.29c-8.19-2.38-14.8-4-20.58-5.68 0-.03-19.16-.44-23.67.02ZM780.72 998.429s-12.17 4.151-20.7-2.37c-6.29-4.82-9.5-7.63-7-13.4 2.29-5.22 8.65-3.63 8.65-3.63s11.16 15.1 19.05 19.4Z" fill="#000"/><path d="m632.74 628.85 116.47.29 11.12 343.53H728l-29.87-280.38a3.543 3.543 0 0 0-3.49-3.18 3.499 3.499 0 0 0-3.61 3.18L663 972.67h-32.36l2.1-343.82Z" fill="#21252B"/><path opacity=".3" d="m739.32 639.119 13.56 333.63h7.22l-10.64-333.63h-10.14ZM651.66 972.751 675 704.081c1.07-8.54 8.65-14.94 17.56-14.94h2.39a3.628 3.628 0 0 0-3.66 3.24l-27.8 280.37h-11.83Z" fill="#000"/><path d="M748.85 508.38c-.08-2.34-.16-12.18-.22-21.14-.06-9.5-7.1-17.89-17.43-20.77l-21.65-6.05-2.56-.91-39.49-.33-.51.13-44.42 10.54c-11 2.55-21.62 13.66-21.38 25.69l-2.31 11.11 19.83 76 14.13 5.73-1.57 42.36a2.79 2.79 0 0 0 2.79 2.91h114.17a2.796 2.796 0 0 0 1.994-.839 2.792 2.792 0 0 0 .796-2.011l-2.17-122.42Z" class="change-color-in-svg" fill="#4D61FC" style="fill:#00b77e"/><path opacity=".6" d="M664.19 460a5.905 5.905 0 0 0 3.31 5.43L692.91 481a1.75 1.75 0 0 0 2.24-.35l13.33-15.55s2.14-2.89 1.07-4.63l-6.94-2.81-32 .86-6.42 1.48Z" fill="#000"/><path d="M876.84 541.47s-17-4.41-26.94-4.36l-1.84 5.34 16.53 2.21 12.25-3.19Z" fill="#956363"/><path opacity=".2" d="M876.84 541.47s-17-4.41-26.94-4.36l-1.84 5.34 16.53 2.21 12.25-3.19Z" fill="#000"/><path d="m864.39 549.24 11.92-1.69 8.3-13.3a1.638 1.638 0 0 0-.402-2.167 1.639 1.639 0 0 0-1.208-.313 2.824 2.824 0 0 0-1.8 1l-6.9 9.3-5.46 1-4.45 6.17Z" fill="#956363"/><path d="M889.55 539.06a1.925 1.925 0 0 0-1.001-1.921 1.909 1.909 0 0 0-.729-.219 3 3 0 0 0-1.82.37l-5 2.71-4.69 7.51 12.28-7a1.936 1.936 0 0 0 .96-1.45Z" fill="#956363"/><path opacity=".2" d="m877.77 537.439-3.08 6.49-10.3 5.31 4.45-6.14 5.46-.99 3.47-4.67Z" fill="#000"/><path d="m876.31 547.551 14.25-2c.249-.035.484-.134.683-.288.198-.155.352-.359.447-.592a1.443 1.443 0 0 0-.61-1.8l-.08-.05a1.655 1.655 0 0 0-1-.21l-6.11.6-7.58 4.34Z" fill="#956363"/><path opacity=".2" d="m883.08 538.891-6.77 8.66 4.69-7.51 2.08-1.15ZM886.22 542.881l-2.31.32-7.04 4.27 1.18-.16 8.17-4.43Z" fill="#000"/><path d="m843.29 555.929-10.15-12.69 9.12-9.54a8.806 8.806 0 0 1 7.49-4 50.12 50.12 0 0 0 12.15-1.16 1.551 1.551 0 0 1 1.56.52 1.805 1.805 0 0 1 .266 2.207 1.811 1.811 0 0 1-.546.573 10.69 10.69 0 0 1-5 2.51l-5.07 1.2c-.66.14-1.06 1.15-1.06 1.82a1.398 1.398 0 0 0 1.06 1.36l7.6 2.8a3.576 3.576 0 0 0 2.77-.42l4.27-2.63 4.32-9.18c.111-.232.278-.434.485-.588.208-.153.45-.253.705-.292h.13a1.571 1.571 0 0 1 1.77 1.33c.028.221.011.446-.05.66l-3.37 11.37-4.74 7.09-15.29 3.28-8.42 3.78Z" fill="#956363"/><path d="m845.67 558.68-77.11 35.79a16.118 16.118 0 0 1-19.33-8.47L714 493.11l32.79-13.86 28.41 78 59.58-19.86 10.89 21.29Z" class="change-color-in-svg" fill="#4D61FC" style="fill:#00b77e"/><path opacity=".7" d="M644.48 486a1.698 1.698 0 0 1-.66-.14 1.59 1.59 0 0 1-1-1.41.778.778 0 0 0-.36-.62 1.61 1.61 0 0 1 .31-2.86.795.795 0 0 0 .48-.53 1.596 1.596 0 0 1 1.221-1.186 1.604 1.604 0 0 1 1.599.586.73.73 0 0 0 .65.29 1.606 1.606 0 0 1 1.709 1.659c-.01.3-.103.591-.269.841a.78.78 0 0 0-.08.71 1.607 1.607 0 0 1-.303 1.667 1.618 1.618 0 0 1-1.627.473.78.78 0 0 0-.7.15 1.607 1.607 0 0 1-.97.37Zm.38-5.93h-.16a.756.756 0 0 0-.59.57 1.622 1.622 0 0 1-1 1.11.742.742 0 0 0-.5.63.752.752 0 0 0 .35.73 1.616 1.616 0 0 1 .75 1.3.74.74 0 0 0 .127.4.74.74 0 0 0 .323.27.767.767 0 0 0 .84-.08 1.59 1.59 0 0 1 1.46-.31.76.76 0 0 0 .92-1 1.599 1.599 0 0 1 .16-1.49.765.765 0 0 0 0-.81.766.766 0 0 0-.72-.38 1.575 1.575 0 0 1-1.36-.61.749.749 0 0 0-.263-.231.749.749 0 0 0-.337-.089v-.01ZM718.46 495.769a1.68 1.68 0 0 1-.66-.14 1.585 1.585 0 0 1-.95-1.41.774.774 0 0 0-.36-.62 1.597 1.597 0 0 1-.406-2.344c.185-.235.433-.414.716-.516a.782.782 0 0 0 .48-.53 1.6 1.6 0 0 1 2.82-.6.725.725 0 0 0 .65.29 1.573 1.573 0 0 1 1.49.8 1.609 1.609 0 0 1 0 1.7.771.771 0 0 0-.08.71 1.61 1.61 0 0 1-1.93 2.14.756.756 0 0 0-.7.15c-.301.248-.681.38-1.07.37Zm.38-5.93h-.17a.768.768 0 0 0-.58.56 1.6 1.6 0 0 1-1 1.11.77.77 0 0 0-.5.64.754.754 0 0 0 .35.73 1.597 1.597 0 0 1 .75 1.3.746.746 0 0 0 .45.67.767.767 0 0 0 .81-.11 1.599 1.599 0 0 1 1.46-.31.75.75 0 0 0 .768-.216.76.76 0 0 0 .152-.784 1.595 1.595 0 0 1-.104-.764c.027-.26.118-.509.264-.726a.788.788 0 0 0 0-.81.763.763 0 0 0-.72-.38 1.62 1.62 0 0 1-1.36-.61.771.771 0 0 0-.57-.3ZM797.11 568.85a1.521 1.521 0 0 1-.66-.14 1.572 1.572 0 0 1-1-1.4.752.752 0 0 0-.36-.62 1.62 1.62 0 0 1-.588-.659 1.607 1.607 0 0 1 .888-2.211.764.764 0 0 0 .308-.204.756.756 0 0 0 .172-.326 1.608 1.608 0 0 1 1.23-1.17 1.562 1.562 0 0 1 1.59.58.812.812 0 0 0 .65.29 1.598 1.598 0 0 1 1.712 1.65c-.01.3-.104.591-.272.84a.793.793 0 0 0-.121.346.793.793 0 0 0 .051.364 1.608 1.608 0 0 1-1.049 2.135 1.618 1.618 0 0 1-.881.005.799.799 0 0 0-.7.15 1.582 1.582 0 0 1-.97.37Zm.38-5.93h-.17a.735.735 0 0 0-.58.56 1.609 1.609 0 0 1-1 1.11.736.736 0 0 0-.49.64.761.761 0 0 0 .35.73 1.597 1.597 0 0 1 .75 1.29.758.758 0 0 0 .45.67.724.724 0 0 0 .8-.11 1.617 1.617 0 0 1 1.47-.3.754.754 0 0 0 .77-.23.753.753 0 0 0 .191-.379.749.749 0 0 0-.041-.421 1.56 1.56 0 0 1 .16-1.48.757.757 0 0 0 0-.81.751.751 0 0 0-.71-.38 1.652 1.652 0 0 1-1.37-.62.754.754 0 0 0-.26-.198.752.752 0 0 0-.32-.072ZM756.59 533.899a1.605 1.605 0 0 1-1.61-1.55.777.777 0 0 0-.35-.62 1.6 1.6 0 0 1 .3-2.86.768.768 0 0 0 .48-.53 1.6 1.6 0 0 1 2.102-1.117c.283.102.531.281.718.517a.737.737 0 0 0 .65.29 1.606 1.606 0 0 1 1.495.803 1.608 1.608 0 0 1-.055 1.697.78.78 0 0 0-.08.71 1.61 1.61 0 0 1-1.93 2.14.777.777 0 0 0-.7.15 1.604 1.604 0 0 1-1.02.37Zm.41-5.9a.43.43 0 0 0-.16 0 .753.753 0 0 0-.59.56 1.605 1.605 0 0 1-1 1.11.761.761 0 0 0-.15 1.36 1.627 1.627 0 0 1 .75 1.3.746.746 0 0 0 .45.67.76.76 0 0 0 .421.061.762.762 0 0 0 .389-.171 1.606 1.606 0 0 1 1.46-.31.76.76 0 0 0 .92-1 1.631 1.631 0 0 1 .16-1.49.737.737 0 0 0 0-.81.777.777 0 0 0-.72-.38 1.604 1.604 0 0 1-1.36-.61.76.76 0 0 0-.57-.29ZM679.32 522.63a1.667 1.667 0 0 1-.66-.14 1.589 1.589 0 0 1-.95-1.41.756.756 0 0 0-.36-.61 1.604 1.604 0 0 1-.741-1.528 1.616 1.616 0 0 1 1.041-1.342.758.758 0 0 0 .305-.206.76.76 0 0 0 .175-.324 1.614 1.614 0 0 1 1.224-1.173 1.608 1.608 0 0 1 1.596.573.769.769 0 0 0 .65.29 1.61 1.61 0 0 1 1.5.81 1.57 1.57 0 0 1-.06 1.69.743.743 0 0 0-.07.71 1.611 1.611 0 0 1-1.93 2.14.756.756 0 0 0-.7.15 1.637 1.637 0 0 1-1.02.37Zm.38-5.93a.485.485 0 0 0-.17 0 .743.743 0 0 0-.58.56 1.614 1.614 0 0 1-1 1.11.747.747 0 0 0-.49.64.772.772 0 0 0 .35.73 1.591 1.591 0 0 1 .75 1.29.755.755 0 0 0 .45.67.753.753 0 0 0 .8-.11 1.625 1.625 0 0 1 1.47-.31.749.749 0 0 0 .77-.22.758.758 0 0 0 .15-.8 1.606 1.606 0 0 1 .15-1.49.73.73 0 0 0 0-.8.756.756 0 0 0-.71-.39 1.61 1.61 0 0 1-1.37-.61.741.741 0 0 0-.57-.27ZM720.38 628.441a1.566 1.566 0 0 1-.66-.151 1.603 1.603 0 0 1-1-1.399.774.774 0 0 0-.35-.62 1.615 1.615 0 0 1-.741-1.529 1.607 1.607 0 0 1 1.041-1.341.735.735 0 0 0 .48-.53 1.597 1.597 0 0 1 1.22-1.17c.294-.067.601-.047.884.056.284.102.532.284.716.524a.759.759 0 0 0 .65.29 1.612 1.612 0 0 1 1.5.8 1.628 1.628 0 0 1-.06 1.7.776.776 0 0 0-.08.71 1.578 1.578 0 0 1-.3 1.67 1.624 1.624 0 0 1-1.63.47.744.744 0 0 0-.69.14c-.275.233-.62.367-.98.38Zm.38-5.94h-.16a.76.76 0 0 0-.59.56 1.594 1.594 0 0 1-1 1.11.752.752 0 0 0-.5.64.746.746 0 0 0 .36.729 1.63 1.63 0 0 1 .74 1.301.774.774 0 0 0 1.26.56 1.579 1.579 0 0 1 1.46-.31.775.775 0 0 0 .76-.224.777.777 0 0 0 .16-.776 1.636 1.636 0 0 1 .16-1.491.743.743 0 0 0 0-.81.773.773 0 0 0-.71-.38 1.605 1.605 0 0 1-1.37-.609.746.746 0 0 0-.57-.3ZM733.09 543.429a1.492 1.492 0 0 1-.65-.14 1.603 1.603 0 0 1-1-1.4.745.745 0 0 0-.35-.62 1.611 1.611 0 0 1 .3-2.87.744.744 0 0 0 .48-.53 1.61 1.61 0 0 1 2.82-.59.8.8 0 0 0 .292.22.788.788 0 0 0 .358.07 1.598 1.598 0 0 1 1.712 1.651c-.01.3-.104.591-.272.839a.756.756 0 0 0-.07.71 1.594 1.594 0 0 1-.31 1.67 1.574 1.574 0 0 1-1.62.47.765.765 0 0 0-.7.15 1.587 1.587 0 0 1-.99.37Zm.39-5.93h-.17a.773.773 0 0 0-.59.56 1.595 1.595 0 0 1-1 1.11.764.764 0 0 0-.429 1.059.76.76 0 0 0 .289.311 1.595 1.595 0 0 1 .74 1.29.77.77 0 0 0 .46.67.716.716 0 0 0 .8-.11 1.65 1.65 0 0 1 .693-.331c.254-.053.517-.046.767.021a.734.734 0 0 0 .78-.22.756.756 0 0 0 .14-.8 1.624 1.624 0 0 1 .16-1.48.737.737 0 0 0 0-.81.777.777 0 0 0-.71-.39 1.591 1.591 0 0 1-1.37-.61.74.74 0 0 0-.56-.27ZM647.09 560.409a1.607 1.607 0 0 1-1.61-1.54.768.768 0 0 0-.35-.62 1.611 1.611 0 0 1 .3-2.87.73.73 0 0 0 .48-.53 1.609 1.609 0 0 1 2.105-1.114c.284.103.532.285.715.524a.769.769 0 0 0 .65.29 1.61 1.61 0 0 1 1.44 2.5.78.78 0 0 0-.08.71 1.573 1.573 0 0 1-.3 1.67 1.616 1.616 0 0 1-1.63.47.752.752 0 0 0-.69.14 1.591 1.591 0 0 1-1.03.37Zm.38-5.93h-.16a.773.773 0 0 0-.59.56 1.595 1.595 0 0 1-1 1.11.757.757 0 0 0-.5.64.754.754 0 0 0 .36.73 1.612 1.612 0 0 1 .74 1.3.767.767 0 0 0 .874.73.776.776 0 0 0 .386-.17 1.582 1.582 0 0 1 1.46-.31.755.755 0 0 0 .78-.23.74.74 0 0 0 .14-.79 1.644 1.644 0 0 1 .16-1.49.753.753 0 0 0 .035-.809.77.77 0 0 0-.302-.294.77.77 0 0 0-.413-.087 1.633 1.633 0 0 1-1.37-.61.76.76 0 0 0-.267-.21.764.764 0 0 0-.333-.07ZM698.59 559.32a1.663 1.663 0 0 1-.66-.14 1.575 1.575 0 0 1-.95-1.41.756.756 0 0 0-.36-.61 1.615 1.615 0 0 1-.741-1.529 1.607 1.607 0 0 1 1.041-1.341.783.783 0 0 0 .48-.53c.074-.291.228-.554.445-.761a1.6 1.6 0 0 1 1.658-.353c.282.101.53.279.717.514a.759.759 0 0 0 .65.29 1.6 1.6 0 0 1 1.5.81 1.577 1.577 0 0 1-.06 1.69.743.743 0 0 0-.07.71 1.62 1.62 0 0 1-.3 1.67 1.605 1.605 0 0 1-1.63.47.756.756 0 0 0-.7.15 1.645 1.645 0 0 1-1.02.37Zm.38-5.93a.485.485 0 0 0-.17 0 .734.734 0 0 0-.58.56 1.622 1.622 0 0 1-1 1.11.74.74 0 0 0-.49.64.774.774 0 0 0 .35.73 1.591 1.591 0 0 1 .75 1.29.746.746 0 0 0 .45.67.752.752 0 0 0 .8-.11 1.627 1.627 0 0 1 1.47-.31.73.73 0 0 0 .77-.22.77.77 0 0 0 .15-.8 1.58 1.58 0 0 1 .16-1.49.756.756 0 0 0 0-.8.765.765 0 0 0-.71-.39 1.618 1.618 0 0 1-1.37-.61.751.751 0 0 0-.55-.27h-.03ZM649.94 625.209a1.65 1.65 0 0 1-.66-.14 1.584 1.584 0 0 1-.95-1.41.796.796 0 0 0-.33-.66 1.6 1.6 0 0 1 .3-2.86.758.758 0 0 0 .305-.206.76.76 0 0 0 .175-.324 1.614 1.614 0 0 1 1.224-1.173 1.608 1.608 0 0 1 1.596.573.797.797 0 0 0 .65.29 1.611 1.611 0 0 1 1.718 1.659c-.01.301-.107.593-.278.841a.743.743 0 0 0-.07.71 1.61 1.61 0 0 1-1.93 2.14.756.756 0 0 0-.7.15 1.637 1.637 0 0 1-1.05.41Zm.38-5.93h-.17a.778.778 0 0 0-.58.57 1.628 1.628 0 0 1-1 1.11.745.745 0 0 0-.49.63.765.765 0 0 0 .35.73 1.624 1.624 0 0 1 .75 1.3.746.746 0 0 0 .45.67.744.744 0 0 0 .8-.11 1.625 1.625 0 0 1 1.47-.31.749.749 0 0 0 .77-.22.754.754 0 0 0 .15-.8 1.606 1.606 0 0 1 .15-1.49.737.737 0 0 0 0-.81.77.77 0 0 0-.71-.38 1.604 1.604 0 0 1-1.37-.61.736.736 0 0 0-.57-.28Z" fill="#fff"/><path opacity=".3" d="M685.41 496.76a.98.98 0 0 1-.41-.09.997.997 0 0 1-.61-.89.471.471 0 0 0-.22-.39.996.996 0 0 1-.28-1.498c.122-.15.285-.262.47-.322a.49.49 0 0 0 .3-.34.997.997 0 0 1 .78-.74 1.003 1.003 0 0 1 1 .37.494.494 0 0 0 .42.18 1.006 1.006 0 0 1 .94.51 1.004 1.004 0 0 1 0 1.07.492.492 0 0 0 0 .45 1 1 0 0 1-1.22 1.36.489.489 0 0 0-.45.1.999.999 0 0 1-.72.23Zm.25-3.76h-.11a.496.496 0 0 0-.37.36 1.001 1.001 0 0 1-.64.7.486.486 0 0 0-.31.41.481.481 0 0 0 .22.46 1.008 1.008 0 0 1 .48.82.447.447 0 0 0 .28.42.462.462 0 0 0 .51-.06.997.997 0 0 1 .93-.2.467.467 0 0 0 .49-.14.488.488 0 0 0 .125-.24.489.489 0 0 0-.025-.27.999.999 0 0 1 .1-.94.503.503 0 0 0 .005-.51.5.5 0 0 0-.445-.25.999.999 0 0 1-.87-.38.47.47 0 0 0-.37-.18ZM735.46 482.459c-.141 0-.281-.031-.41-.089a1.002 1.002 0 0 1-.61-.89.468.468 0 0 0-.22-.39 1.006 1.006 0 0 1-.498-.972 1.004 1.004 0 0 1 .688-.849.453.453 0 0 0 .194-.131.457.457 0 0 0 .106-.209 1.002 1.002 0 0 1 .78-.739.997.997 0 0 1 1 .37.494.494 0 0 0 .41.179.995.995 0 0 1 1 .511.994.994 0 0 1 0 1.079.484.484 0 0 0-.05.451.997.997 0 0 1-.662 1.367 1.008 1.008 0 0 1-.568-.017.467.467 0 0 0-.44.1 1.047 1.047 0 0 1-.72.229Zm.24-3.759h-.1a.471.471 0 0 0-.37.36 1.001 1.001 0 0 1-.64.7.483.483 0 0 0-.31.41.48.48 0 0 0 .22.46.994.994 0 0 1 .47.82.49.49 0 0 0 .8.36 1.008 1.008 0 0 1 .93-.201.477.477 0 0 0 .498-.139.483.483 0 0 0 .082-.511 1.003 1.003 0 0 1 .1-.94.445.445 0 0 0 0-.509.47.47 0 0 0-.45-.25 1.002 1.002 0 0 1-.87-.38.468.468 0 0 0-.36-.18ZM663.999 539.66a.995.995 0 0 1-.409-.09 1 1 0 0 1-.611-.89.471.471 0 0 0-.22-.39 1.004 1.004 0 0 1-.28-1.498c.123-.151.286-.262.47-.322a.5.5 0 0 0 .31-.34 1.003 1.003 0 0 1 .771-.74 1.004 1.004 0 0 1 1 .36.49.49 0 0 0 .419.19 1 1 0 0 1 1 .51.996.996 0 0 1 0 1.07.49.49 0 0 0-.049.45 1.002 1.002 0 0 1-1.221 1.36.518.518 0 0 0-.45.09.985.985 0 0 1-.73.24Zm.25-3.76h-.11a.485.485 0 0 0-.369.35 1.005 1.005 0 0 1-.631.71.476.476 0 0 0-.32.4.491.491 0 0 0 .22.47 1 1 0 0 1 .481.82.437.437 0 0 0 .289.42.461.461 0 0 0 .5-.07 1.005 1.005 0 0 1 .93-.19.49.49 0 0 0 .5-.14.494.494 0 0 0 .09-.51 1.005 1.005 0 0 1 .1-.94.489.489 0 0 0 0-.52.476.476 0 0 0-.45-.24.994.994 0 0 1-.87-.39.457.457 0 0 0-.399-.17h.039ZM665.55 608a1.012 1.012 0 0 1-.41-.09 1.004 1.004 0 0 1-.61-.89.472.472 0 0 0-.22-.39 1.007 1.007 0 0 1-.386-.429c-.084-.178-.113-.377-.084-.571a.998.998 0 0 1 .66-.85.5.5 0 0 0 .3-.34.997.997 0 0 1 1.339-.728c.181.07.337.19.451.348a.489.489 0 0 0 .185.149.486.486 0 0 0 .235.041 1.006 1.006 0 0 1 .94.51 1.001 1.001 0 0 1 0 1.07.475.475 0 0 0 0 .45c.072.176.093.37.06.558a1.009 1.009 0 0 1-.25.502 1.007 1.007 0 0 1-1 .3.523.523 0 0 0-.45.09 1.013 1.013 0 0 1-.76.27Zm.25-3.76h-.11a.487.487 0 0 0-.37.35 1 1 0 0 1-.64.71.468.468 0 0 0-.31.4.487.487 0 0 0 .22.47.997.997 0 0 1 .48.82.447.447 0 0 0 .28.42.474.474 0 0 0 .51-.07 1 1 0 0 1 .93-.19.462.462 0 0 0 .49-.15.462.462 0 0 0 .1-.5.997.997 0 0 1 .1-.94.497.497 0 0 0 0-.52.472.472 0 0 0-.45-.24 1.01 1.01 0 0 1-.87-.39.464.464 0 0 0-.36-.19v.02ZM647.28 509.469a.98.98 0 0 1-.41-.09 1.008 1.008 0 0 1-.436-.355 1.004 1.004 0 0 1-.174-.535.472.472 0 0 0-.22-.39.996.996 0 0 1-.28-1.498.998.998 0 0 1 .47-.322.474.474 0 0 0 .3-.34.997.997 0 0 1 .78-.74 1.003 1.003 0 0 1 1 .37.483.483 0 0 0 .41.18 1.007 1.007 0 0 1 .95.51 1.004 1.004 0 0 1 0 1.08.48.48 0 0 0 0 .45.998.998 0 0 1-.177 1.074 1.003 1.003 0 0 1-1.053.276.465.465 0 0 0-.44.1c-.203.164-.46.246-.72.23Zm.24-3.76h-.1a.477.477 0 0 0-.37.36 1.001 1.001 0 0 1-.64.7.486.486 0 0 0-.31.41.473.473 0 0 0 .22.46 1.005 1.005 0 0 1 .47.82.483.483 0 0 0 .288.428.495.495 0 0 0 .512-.068.997.997 0 0 1 .93-.2.474.474 0 0 0 .497-.139.479.479 0 0 0 .083-.511.993.993 0 0 1 .1-.94.454.454 0 0 0 0-.51.476.476 0 0 0-.45-.25 1.001 1.001 0 0 1-.87-.38.469.469 0 0 0-.36-.18ZM635.37 546.811c-.145 0-.288-.03-.42-.09a1.001 1.001 0 0 1-.6-.89.483.483 0 0 0-.23-.39.998.998 0 0 1-.28-1.499.996.996 0 0 1 .47-.321.496.496 0 0 0 .31-.34.992.992 0 0 1 .77-.74.999.999 0 0 1 1 .36.456.456 0 0 0 .41.19.994.994 0 0 1 .95.51 1.001 1.001 0 0 1 0 1.07.48.48 0 0 0-.05.45.998.998 0 0 1-.652 1.373.998.998 0 0 1-.568-.013.523.523 0 0 0-.45.09 1.003 1.003 0 0 1-.66.24Zm.24-3.76h-.11a.479.479 0 0 0-.234.123.474.474 0 0 0-.136.227 1.001 1.001 0 0 1-.63.71.464.464 0 0 0-.32.4.503.503 0 0 0 .23.47 1.003 1.003 0 0 1 .47.82.475.475 0 0 0 .285.422.476.476 0 0 0 .505-.072.987.987 0 0 1 .93-.19.498.498 0 0 0 .496-.143.486.486 0 0 0 .094-.507.997.997 0 0 1 .1-.94.49.49 0 0 0 0-.52.472.472 0 0 0-.45-.24 1.01 1.01 0 0 1-.86-.39.48.48 0 0 0-.37-.17ZM613.92 491.199a.994.994 0 0 1-.42-.09.999.999 0 0 1-.6-.89.48.48 0 0 0-.23-.39.996.996 0 0 1-.28-1.498.998.998 0 0 1 .47-.322.494.494 0 0 0 .31-.34.996.996 0 0 1 .77-.74 1.004 1.004 0 0 1 1 .36.457.457 0 0 0 .41.19.998.998 0 0 1 1 .51 1.004 1.004 0 0 1 0 1.07.48.48 0 0 0 0 .45 1 1 0 0 1-1.22 1.36.502.502 0 0 0-.44.09 1.008 1.008 0 0 1-.77.24Zm.24-3.76h-.11a.496.496 0 0 0-.37.36 1.003 1.003 0 0 1-.63.7.473.473 0 0 0-.273.668c.04.084.104.154.183.202a1.005 1.005 0 0 1 .47.82.49.49 0 0 0 .8.35 1.005 1.005 0 0 1 .92-.19.486.486 0 0 0 .59-.65.999.999 0 0 1 .1-.94.513.513 0 0 0 0-.52.505.505 0 0 0-.46-.24.998.998 0 0 1-.86-.39.49.49 0 0 0-.36-.17ZM717.19 527.739a1.07 1.07 0 0 1-.42-.089 1.004 1.004 0 0 1-.6-.89.491.491 0 0 0-.23-.39 1.007 1.007 0 0 1-.46-1 1.006 1.006 0 0 1 .66-.85.47.47 0 0 0 .3-.33.998.998 0 0 1 .78-.75 1.002 1.002 0 0 1 1 .37.486.486 0 0 0 .41.179.995.995 0 0 1 1 .511.993.993 0 0 1 0 1.08.474.474 0 0 0 0 .45 1.004 1.004 0 0 1-1.19 1.35.505.505 0 0 0-.44.099 1.045 1.045 0 0 1-.81.26Zm.24-3.76h-.1a.46.46 0 0 0-.37.361 1.001 1.001 0 0 1-.64.699.48.48 0 0 0-.31.411.474.474 0 0 0 .22.459 1.005 1.005 0 0 1 .47.82.49.49 0 0 0 .8.361 1.003 1.003 0 0 1 .93-.2.483.483 0 0 0 .58-.651 1.003 1.003 0 0 1 .1-.94.467.467 0 0 0 0-.51.477.477 0 0 0-.45-.25.99.99 0 0 1-.87-.38.476.476 0 0 0-.36-.159v-.021ZM779.15 580.17a1.01 1.01 0 0 1-.848-.44 1.002 1.002 0 0 1-.172-.54.481.481 0 0 0-.22-.39.996.996 0 0 1-.28-1.498.991.991 0 0 1 .47-.322.496.496 0 0 0 .31-.33 1 1 0 0 1 1.78-.38.513.513 0 0 0 .42.18 1 1 0 0 1 .91 1.59.475.475 0 0 0 0 .45 1.004 1.004 0 0 1-.19 1.06 1.002 1.002 0 0 1-1 .3.484.484 0 0 0-.45.09 1.022 1.022 0 0 1-.342.188 1.018 1.018 0 0 1-.388.042Zm.25-3.76h-.11a.503.503 0 0 0-.37.36 1.009 1.009 0 0 1-.63.7.483.483 0 0 0-.32.41.463.463 0 0 0 .22.46 1.002 1.002 0 0 1 .48.82.464.464 0 0 0 .078.26.466.466 0 0 0 .212.17.465.465 0 0 0 .5-.07.997.997 0 0 1 .93-.2.488.488 0 0 0 .59-.65.997.997 0 0 1 .1-.94.472.472 0 0 0 0-.51.44.44 0 0 0-.45-.24 1.063 1.063 0 0 1-.87-.39.465.465 0 0 0-.36-.18ZM750.56 511.86c-.145 0-.288-.03-.42-.09a1.002 1.002 0 0 1-.6-.9.491.491 0 0 0-.23-.39 1.006 1.006 0 0 1-.498-.972 1.004 1.004 0 0 1 .688-.848.493.493 0 0 0 .31-.33.999.999 0 0 1 1.78-.38.462.462 0 0 0 .42.18 1.003 1.003 0 0 1 .975.497.998.998 0 0 1-.065 1.093.475.475 0 0 0 0 .45 1.004 1.004 0 0 1-.19 1.06.998.998 0 0 1-1 .3.484.484 0 0 0-.45.09 1.006 1.006 0 0 1-.72.24Zm.24-3.77h-.11a.499.499 0 0 0-.37.36.992.992 0 0 1-.63.7.488.488 0 0 0-.272.673c.041.081.104.15.182.197a.992.992 0 0 1 .47.82.483.483 0 0 0 .29.43.46.46 0 0 0 .5-.07 1.003 1.003 0 0 1 .93-.2.495.495 0 0 0 .5-.14.486.486 0 0 0 .09-.5 1.007 1.007 0 0 1 .1-.95.472.472 0 0 0 0-.51.442.442 0 0 0-.45-.24 1 1 0 0 1-.86-.39.49.49 0 0 0-.37-.18ZM811.73 554a.998.998 0 0 1-.42-.09.997.997 0 0 1-.6-.89.478.478 0 0 0-.23-.39.996.996 0 0 1-.28-1.498.996.996 0 0 1 .47-.322.504.504 0 0 0 .31-.34.997.997 0 0 1 .77-.74.998.998 0 0 1 1 .36.485.485 0 0 0 .42.19 1.004 1.004 0 0 1 1 .51 1.004 1.004 0 0 1 0 1.07.478.478 0 0 0-.05.45.998.998 0 0 1-.652 1.374c-.187.05-.384.045-.568-.014a.518.518 0 0 0-.45.09.997.997 0 0 1-.72.24Zm.24-3.76h-.11a.487.487 0 0 0-.37.35 1.003 1.003 0 0 1-.63.71.458.458 0 0 0-.32.4.479.479 0 0 0 .23.47.997.997 0 0 1 .47.82.48.48 0 0 0 .79.35 1.001 1.001 0 0 1 .93-.19.492.492 0 0 0 .616-.383.497.497 0 0 0-.026-.267 1.01 1.01 0 0 1 .1-.94.489.489 0 0 0 0-.52.49.49 0 0 0-.19-.185.49.49 0 0 0-.26-.055 1 1 0 0 1-.86-.39.494.494 0 0 0-.34-.21l-.03.04ZM670.32 567.46a1.05 1.05 0 0 1-.42-.09 1.002 1.002 0 0 1-.6-.89.49.49 0 0 0-.23-.39.998.998 0 0 1-.46-1 1.007 1.007 0 0 1 .66-.85.459.459 0 0 0 .3-.33 1.003 1.003 0 0 1 1.339-.728 1 1 0 0 1 .451.348.483.483 0 0 0 .41.18.999.999 0 0 1 .91 1.59.515.515 0 0 0 0 .45.996.996 0 0 1-.19 1.06.997.997 0 0 1-1 .29.505.505 0 0 0-.44.1c-.201.177-.462.27-.73.26Zm.24-3.76h-.1a.477.477 0 0 0-.37.36.99.99 0 0 1-.64.7.48.48 0 0 0-.31.41.47.47 0 0 0 .22.46 1.005 1.005 0 0 1 .47.82.507.507 0 0 0 .29.43.481.481 0 0 0 .51-.07 1.006 1.006 0 0 1 .93-.2.474.474 0 0 0 .269.003.474.474 0 0 0 .345-.385.483.483 0 0 0-.034-.268 1.003 1.003 0 0 1 .1-.94.47.47 0 0 0 0-.51.463.463 0 0 0-.45-.24 1.073 1.073 0 0 1-.87-.39.47.47 0 0 0-.36-.18ZM713.22 616.72a1.063 1.063 0 0 1-.42-.09 1.005 1.005 0 0 1-.6-.89.51.51 0 0 0-.23-.4 1.003 1.003 0 0 1-.47-1 .998.998 0 0 1 .67-.85.503.503 0 0 0 .192-.133.503.503 0 0 0 .108-.207 1 1 0 0 1 .78-.74.998.998 0 0 1 1 .36.476.476 0 0 0 .41.19.997.997 0 0 1 1 .51 1.001 1.001 0 0 1 0 1.07.475.475 0 0 0 0 .45 1 1 0 0 1-1.23 1.36.468.468 0 0 0-.44.09.996.996 0 0 1-.77.28Zm.24-3.76h-.1a.46.46 0 0 0-.37.35 1.054 1.054 0 0 1-.64.71.458.458 0 0 0-.32.4.478.478 0 0 0 .23.46.997.997 0 0 1 .47.83.48.48 0 0 0 .29.42.483.483 0 0 0 .51-.07.992.992 0 0 1 .93-.19.485.485 0 0 0 .49-.15.467.467 0 0 0 .09-.5 1 1 0 0 1 .1-1 .472.472 0 0 0 0-.51.494.494 0 0 0-.46-.24 1 1 0 0 1-.86-.39.476.476 0 0 0-.36-.08v-.04ZM689.39 626.999a.997.997 0 0 1-1-1 .487.487 0 0 0-.23-.39.996.996 0 0 1-.28-1.498.991.991 0 0 1 .47-.322.496.496 0 0 0 .31-.33.996.996 0 0 1 1.323-.709.996.996 0 0 1 .447.329.426.426 0 0 0 .41.18 1.001 1.001 0 0 1 .91 1.59.478.478 0 0 0 0 .45 1.004 1.004 0 0 1-.19 1.06 1.002 1.002 0 0 1-1 .3.457.457 0 0 0-.44.09 1.052 1.052 0 0 1-.73.25Zm.24-3.76h-.11a.496.496 0 0 0-.37.36 1.009 1.009 0 0 1-.63.7.49.49 0 0 0-.272.673.48.48 0 0 0 .182.197.997.997 0 0 1 .47.82.478.478 0 0 0 .29.43.465.465 0 0 0 .5-.07.997.997 0 0 1 .93-.2.495.495 0 0 0 .5-.14.477.477 0 0 0 .09-.5 1.005 1.005 0 0 1 .1-.95.488.488 0 0 0 0-.51.465.465 0 0 0-.46-.24.998.998 0 0 1-.86-.39.488.488 0 0 0-.36-.14v-.04Z" fill="#000"/><path opacity=".2" d="M623.1 572.459c.07-.43.2-1.14.28-1.57l10-51.77a.854.854 0 0 1 .321-.521.857.857 0 0 1 .589-.169.582.582 0 0 1 .53.6l-3 50.23a.748.748 0 0 0 .2.566.755.755 0 0 0 .55.244l52.07.62c.527.007 1.055-.016 1.58-.07l6.37-.63a5.748 5.748 0 0 0 1.51-.42l12.06-5.68c.4-.18.59 0 .42.4l-5 12a2 2 0 0 1-1 1l-74 26.12a.715.715 0 0 1-.811-.24.703.703 0 0 1-.129-.27l-4.36-17.9a4.743 4.743 0 0 1 0-1.55l1.82-10.99Z" fill="#000"/><path d="M706.32 413.241s-34.58-21.69-35.94 4.83l-.5 6.87-2.38 34.74a4.007 4.007 0 0 0 .94 2.63l24 13.64a1.653 1.653 0 0 0 1.95-.08l10.82-12.63a3.9 3.9 0 0 0 1.36-3.47l-2.2-20.59c.462-2.004.691-4.054.68-6.11.33-10.42 1.27-19.83 1.27-19.83Z" fill="#956363"/><path d="M708.01 414.86c7.119 0 12.89-5.771 12.89-12.89 0-7.119-5.771-12.89-12.89-12.89-7.119 0-12.89 5.771-12.89 12.89 0 7.119 5.771 12.89 12.89 12.89Z" fill="#000"/><path d="M710.21 394.52s12.29 51.52-14.15 55c-22.88 3.06-25.42-32.62-25.42-32.62l1.1-23.14 38.47.76Z" fill="#956363"/><path d="M701.22 373c-7.13 0-13.37 3-16.87 7.46a7.943 7.943 0 0 1-7.43 2.79c-.834-.03-1.669-.01-2.5.06-22.92 1.61-19.66 35.86 1.05 33.06 4.37-.59 8.29-3.68 10.5-8.6a7.39 7.39 0 0 1 8.75-4.16c2.118.58 4.304.873 6.5.87 11 0 19.84-7.05 19.84-15.74 0-8.69-8.88-15.74-19.84-15.74Z" fill="#000"/><path d="m692.59 572.999 13.58-7.81 1.71 2.74-2.88 6.07-12.41-1Z" fill="#956363"/><path opacity=".2" d="M669.74 426.66a5.814 5.814 0 0 0 3.39-.76l-3.73 5.76.34-5Z" fill="#000"/><path d="M671.15 412.899a4.736 4.736 0 0 0-4.809-3.201 4.758 4.758 0 0 0-1.971.581c-5.76 2.54-4.58 15.59 5.17 16.35 5.08.43 4.07-2.54 3.22-6.52l-1.61-7.21Z" fill="#956363"/><path opacity=".3" d="M664.11 413.669a3.785 3.785 0 0 1 2.8-.77 3.4 3.4 0 0 1 2.2 1.78 6.92 6.92 0 0 1 .94 3.56l.08 1.11a.586.586 0 0 1-.17.42.581.581 0 0 1-.42.17.596.596 0 0 1-.424-.169.587.587 0 0 1-.176-.421l-.08-1.11a7.2 7.2 0 0 0-.76-3 2.91 2.91 0 0 0-1.44-1.27 2.833 2.833 0 0 0-1.87.5.663.663 0 0 1-.85-.16c-.17-.05-.08-.39.17-.64ZM706.06 453.671l-.84-8.31c-2.21 2.29-8.56 5.6-15.77 3.9a17.554 17.554 0 0 1-9.23-5.76.521.521 0 0 0-.162-.141.523.523 0 0 0-.204-.067.534.534 0 0 0-.404.118.55.55 0 0 0-.08.77 19.115 19.115 0 0 0 12.2 6.52 18.938 18.938 0 0 0 14.49 2.97ZM697.59 439c0 .08-.08.07 0 0h-2.92a.678.678 0 0 1-.65-.65.635.635 0 0 1 .187-.47.625.625 0 0 1 .473-.18h2.84c.39 0 .68.27.66.58-.02.31-.28.78-.59.72Z" fill="#000"/><path d="M691.23 420.701a2.12 2.12 0 1 0 0-4.24 2.12 2.12 0 0 0 0 4.24Z" fill="#000"/><path d="M692.16 418.32a.42.42 0 1 0 0-.84.42.42 0 0 0 0 .84Z" fill="#fff"/><path d="M708.01 420.791a2.12 2.12 0 1 0 0-4.24 2.12 2.12 0 0 0 0 4.24Z" fill="#000"/><path d="M708.94 418.41a.42.42 0 1 0-.001-.84.42.42 0 0 0 .001.84Z" fill="#fff"/><path opacity=".3" d="m700.72 430.79-2.79.17a.638.638 0 0 1-.685-.595.652.652 0 0 1 .155-.465.658.658 0 0 1 .198-.154.661.661 0 0 1 .242-.066l2.8-.17a1.301 1.301 0 0 0 1.19-1.35 1.314 1.314 0 0 0-1.36-1.19.72.72 0 0 1-.68-.59c-.08-.34.26-.59.59-.68a2.612 2.612 0 0 1 2.72 2.3 2.66 2.66 0 0 1-2.38 2.79Z" fill="#000"/><path d="M714.92 414h-29.49a3.06 3.06 0 0 0-1.187.23 3.059 3.059 0 0 0-1.007.669 3.074 3.074 0 0 0-.906 2.191v2.41a8.43 8.43 0 1 0 16.86 0v-2.41a3 3 0 0 0-.69-1.89h3.26a3.003 3.003 0 0 0-.6 1.89v2.41a8.425 8.425 0 0 0 2.362 6.148 8.432 8.432 0 0 0 14.488-6.148v-2.41a3.059 3.059 0 0 0-.899-2.191 3.066 3.066 0 0 0-2.191-.899ZM698 417.06v2.41a7.18 7.18 0 0 1-14.36.09v-2.41a1.91 1.91 0 0 1 1.9-1.89h10.66a1.811 1.811 0 0 1 1.8 1.8Zm18.83 2.41a7.18 7.18 0 0 1-14.36.09v-2.41a1.912 1.912 0 0 1 1.89-1.89H715a1.91 1.91 0 0 1 1.9 1.89l-.07 2.32Z" fill="#000"/><path opacity=".2" d="M771.85 584.59c-.3.09-.6.18-.9.25-7.78 1.93-15.41-3.75-16.26-11.72l-10.45-59.68a.683.683 0 0 0-.504-.565.685.685 0 0 0-.846.755l7.43 74.31c0 .82 3.78 4.19 4.5 4.53a16.16 16.16 0 0 0 13.74 2l77.11-35.79-1.78-4.79-72.04 30.7Z" fill="#000"/><path opacity=".3" d="M693.08 434.11h.07a8.49 8.49 0 0 1 1.37-.27l.45-.06c3.6-.4 5.06 1.63 5.51 2.52v.08a.84.84 0 0 1-.23.82l-.07.06h-.09a.739.739 0 0 1-.21 0 .766.766 0 0 1-.6-.25l-.06-.08c-.41-.82-1.8-2.61-5.55-1.55a.713.713 0 0 1-.95-.33.712.712 0 0 1 .33-.95l.03.01Z" fill="#000"/><path opacity=".6" d="m828.14 539.55 11.62 21.87 5.91-2.74-10.88-21.34-6.65 2.21Z" fill="#000"/><path d="m684.55 601.461 36.83-63.59a3.57 3.57 0 0 1 4.18-1.5l51.92 17.56c.463.141.888.388 1.24.72a3.168 3.168 0 0 1 1.01 2.62c-.042.482-.188.95-.43 1.37l-34.69 60.269a3.603 3.603 0 0 1-1.71 1.471 3.549 3.549 0 0 1-2.25.14l-54.06-14.24a3.398 3.398 0 0 1-1.3-.72 3.438 3.438 0 0 1-1.13-2.67c.028-.499.161-.987.39-1.43Z" fill="#61656D"/><path opacity=".3" d="m684.55 601.461 36.83-63.59a3.57 3.57 0 0 1 4.18-1.5l51.92 17.56c.463.141.888.388 1.24.72a3.168 3.168 0 0 1 1.01 2.62c-.042.482-.188.95-.43 1.37l-34.69 60.269a3.603 3.603 0 0 1-1.71 1.471 3.549 3.549 0 0 1-2.25.14l-54.06-14.24a3.398 3.398 0 0 1-1.3-.72 3.438 3.438 0 0 1-1.13-2.67c.028-.499.161-.987.39-1.43Z" fill="#000"/><path d="m768.53 546.81-26.58-9a.574.574 0 0 0-.67.19l-2.47 3.79a.516.516 0 0 0 .35.76l26.58 9a.57.57 0 0 0 .67-.19l2.47-3.79a.52.52 0 0 0-.35-.76Z" fill="#868A91"/><path d="m686.38 602 36.82-63.59a3.564 3.564 0 0 1 4.18-1.5l51.92 17.56c.465.136.891.383 1.24.72a3.224 3.224 0 0 1 1 2.61 3.345 3.345 0 0 1-.44 1.38l-34.69 60.27a3.496 3.496 0 0 1-1.71 1.46 3.55 3.55 0 0 1-2.25.14l-54.06-14.24a3.242 3.242 0 0 1-1.31-.71 3.34 3.34 0 0 1-.87-1.2 3.54 3.54 0 0 1-.26-1.47c.031-.504.178-.993.43-1.43Z" fill="#61656D"/><path opacity=".15" d="m727.141 583.881-16.411-2M709.37 587.301l15.07.16" stroke="#000" stroke-width="1.22" stroke-miterlimit="10" stroke-linecap="round"/><path d="m680 575.649 4.89-.59c.367.004.732-.054 1.08-.17l17.33-4.81a16.505 16.505 0 0 1 5.6-.44l21.93 2.17a1.78 1.78 0 0 1 1.13 3.09c-.352.34-.821.533-1.31.54l-20.5-.08 20.83 5.25c.25.051.486.157.69.31.209.143.384.331.51.55a1.832 1.832 0 0 1 .19 1.47 2.082 2.082 0 0 1-2.17 1.57l-20.51-2.51 18.49 2.27c.243.026.477.101.69.22.218.111.409.268.56.46.154.189.269.407.34.64.065.234.085.478.06.72-.038.5-.263.968-.63 1.31a1.998 1.998 0 0 1-1.35.54l-18.3-.19 15.72.19c.199-.004.396.034.58.11a1.378 1.378 0 0 1 .82.82c.077.184.114.381.11.58.014.207-.014.414-.08.61a1.537 1.537 0 0 1-.31.52 1.62 1.62 0 0 1-.5.36 1.722 1.722 0 0 1-.6.13l-41.37 1.84-2.79.5-1.13-17.98Z" fill="#956363"/><path opacity=".15" d="M726.86 589.5a1.549 1.549 0 0 1-.39 1.13c-.14.151-.311.27-.5.35a1.383 1.383 0 0 1-.6.13L684 593l-2.79.5.47-3.82 45.18-.18ZM728.18 584.871h-.08l-17.23-2.15a.637.637 0 0 1-.534-.47.64.64 0 0 1 .062-.486.623.623 0 0 1 .632-.314l17.23 2.15a.64.64 0 0 1-.08 1.27ZM725.35 588.629l-15.82-.17a.619.619 0 0 1-.63-.64.603.603 0 0 1 .174-.466.613.613 0 0 1 .466-.174l15.82.17a.639.639 0 0 1 .452 1.093.638.638 0 0 1-.452.187h-.01Z" fill="#000"/><path d="m602.2 488.711-18.73 90.08c-4.33 31.27 20.94 33.22 32.6 31 .82-.49 58.9-11 59.83-11.23l13.6-3.16-4-22.14-63 2.44 15.18-77" class="change-color-in-svg" fill="#4D61FC" style="fill:#00b77e"/><path opacity=".2" d="M583 585c-.34 25.34 22.24 26.89 33.08 24.78.82-.49 58.9-11 59.83-11.23l13.6-3.16-.69-3.47h.79l-70.9 9C583 605.66 583.47 586.38 583 585Z" fill="#000"/><path opacity=".6" d="m679.17 573.421 4.2 23.17 6.14-1.24-4.04-22.14-6.3.21Z" fill="#000"/><path d="M627.11 1011v.36c0 1.42 1.4 2.57 3.22 2.57H660c1.74 0 3.22-1.14 3.22-2.57v-2.14h-36.01c-.063.59-.097 1.19-.1 1.78ZM637.43 983.559s-1.39 14.9 6.2 16.17l1.71.301a4.996 4.996 0 0 0 4.91-1.921c1.7-2.3 3.62-6.63 3.87-14.55 0 0-2-6.12-8.4-6.12-3.97 0-7.94 3.18-8.29 6.12Z" fill="#000"/><path opacity=".7" d="M613.91 566.23a1.563 1.563 0 0 1-.66-.14 1.61 1.61 0 0 1-1-1.4.768.768 0 0 0-.35-.62 1.604 1.604 0 0 1-.741-1.528 1.604 1.604 0 0 1 1.041-1.342.727.727 0 0 0 .48-.53 1.61 1.61 0 0 1 2.82-.59.775.775 0 0 0 .65.29 1.606 1.606 0 0 1 1.495.803 1.608 1.608 0 0 1-.055 1.697.76.76 0 0 0-.08.7 1.59 1.59 0 0 1-.3 1.68 1.624 1.624 0 0 1-1.63.47.773.773 0 0 0-.7.14 1.55 1.55 0 0 1-.97.37Zm.38-5.93h-.16a.769.769 0 0 0-.59.56 1.586 1.586 0 0 1-1 1.11.759.759 0 0 0-.14 1.37 1.618 1.618 0 0 1 .74 1.3.764.764 0 0 0 .456.67.769.769 0 0 0 .804-.11 1.575 1.575 0 0 1 1.46-.31.76.76 0 0 0 .78-.23.738.738 0 0 0 .14-.79 1.631 1.631 0 0 1 .16-1.49.737.737 0 0 0 0-.81.766.766 0 0 0-.72-.38 1.606 1.606 0 0 1-1.36-.61.766.766 0 0 0-.57-.28ZM647.28 599.601a1.667 1.667 0 0 1-.66-.14 1.59 1.59 0 0 1-1-1.41.737.737 0 0 0-.36-.61 1.627 1.627 0 0 1-.429-2.341c.177-.237.415-.42.689-.529a.783.783 0 0 0 .47-.53 1.614 1.614 0 0 1 1.224-1.174 1.618 1.618 0 0 1 1.596.574.803.803 0 0 0 .66.29 1.594 1.594 0 0 1 1.49.8 1.576 1.576 0 0 1-.06 1.7.78.78 0 0 0-.07.71 1.608 1.608 0 0 1-1.049 2.135 1.618 1.618 0 0 1-.881.005.768.768 0 0 0-.7.15 1.644 1.644 0 0 1-.92.37Zm.38-5.93a.485.485 0 0 0-.17 0 .735.735 0 0 0-.58.56 1.618 1.618 0 0 1-1 1.11.761.761 0 0 0-.15 1.36 1.615 1.615 0 0 1 .75 1.3.749.749 0 0 0 .45.67.753.753 0 0 0 .8-.11 1.627 1.627 0 0 1 1.47-.31.749.749 0 0 0 .77-.22.762.762 0 0 0 .15-.8 1.575 1.575 0 0 1 .16-1.49.766.766 0 0 0 0-.81.79.79 0 0 0-.71-.38 1.593 1.593 0 0 1-1.37-.61.741.741 0 0 0-.57-.27ZM606.53 520.391a1.518 1.518 0 0 1-.66-.14 1.572 1.572 0 0 1-1-1.4.752.752 0 0 0-.36-.62 1.62 1.62 0 0 1-.741-1.528 1.617 1.617 0 0 1 1.041-1.342.733.733 0 0 0 .48-.53 1.632 1.632 0 0 1 1.23-1.17 1.562 1.562 0 0 1 1.59.58.812.812 0 0 0 .65.29 1.604 1.604 0 0 1 1.496.803 1.616 1.616 0 0 1-.056 1.697.78.78 0 0 0-.07.71 1.6 1.6 0 0 1-1.93 2.13.79.79 0 0 0-.7.15 1.582 1.582 0 0 1-.97.37Zm.38-5.93h-.17a.735.735 0 0 0-.58.56 1.609 1.609 0 0 1-1 1.11.744.744 0 0 0-.49.64.761.761 0 0 0 .35.73 1.606 1.606 0 0 1 .75 1.3.775.775 0 0 0 .45.67.753.753 0 0 0 .8-.11 1.594 1.594 0 0 1 1.47-.31.775.775 0 0 0 .76-.224.765.765 0 0 0 .16-.776 1.575 1.575 0 0 1 .16-1.49.757.757 0 0 0 0-.81.753.753 0 0 0-.71-.38 1.67 1.67 0 0 1-1.37-.61.75.75 0 0 0-.58-.3Z" fill="#fff"/><path opacity=".3" d="M598.3 537.88a1.07 1.07 0 0 1-.42-.09 1.002 1.002 0 0 1-.6-.9.473.473 0 0 0-.22-.39 1.006 1.006 0 0 1-.498-.972 1.004 1.004 0 0 1 .688-.848.472.472 0 0 0 .3-.33.998.998 0 0 1 .78-.75 1.002 1.002 0 0 1 1 .37.484.484 0 0 0 .41.19 1 1 0 0 1 1 .5.994.994 0 0 1 0 1.08.475.475 0 0 0 0 .45 1 1 0 0 1-1.23 1.36.464.464 0 0 0-.44.09 1.006 1.006 0 0 1-.77.24Zm.24-3.77h-.1a.46.46 0 0 0-.37.35.993.993 0 0 1-.232.43.994.994 0 0 1-.408.27.49.49 0 0 0-.31.41.474.474 0 0 0 .22.46.997.997 0 0 1 .47.82.507.507 0 0 0 .29.43.483.483 0 0 0 .51-.07 1.003 1.003 0 0 1 .93-.2.478.478 0 0 0 .49-.14.46.46 0 0 0 .09-.5 1.063 1.063 0 0 1 .1-.95.447.447 0 0 0 0-.51.454.454 0 0 0-.45-.24 1.076 1.076 0 0 1-.87-.39.467.467 0 0 0-.36-.17ZM596.71 584.75a1 1 0 0 1-.41-.091.993.993 0 0 1-.61-.889.501.501 0 0 0-.22-.4 1 1 0 0 1-.47-1 1.003 1.003 0 0 1 .66-.84.512.512 0 0 0 .3-.34.992.992 0 0 1 .78-.75 1.003 1.003 0 0 1 1 .37.486.486 0 0 0 .41.19.996.996 0 0 1 1.108 1.043c-.009.193-.075.38-.188.537a.48.48 0 0 0-.05.45 1 1 0 0 1-1.23 1.36.468.468 0 0 0-.44.089 1 1 0 0 1-.64.271ZM597 581h-.11a.467.467 0 0 0-.37.349.998.998 0 0 1-.64.711.473.473 0 0 0-.315.401.483.483 0 0 0 .225.458 1 1 0 0 1 .48.82.475.475 0 0 0 .281.431.482.482 0 0 0 .509-.071 1.006 1.006 0 0 1 .93-.199.452.452 0 0 0 .49-.14.467.467 0 0 0 .09-.5 1.074 1.074 0 0 1 .1-1 .457.457 0 0 0 0-.51.463.463 0 0 0-.45-.24 1.01 1.01 0 0 1-.87-.39.457.457 0 0 0-.35-.12ZM659.47 583.16a1.063 1.063 0 0 1-.42-.09 1.005 1.005 0 0 1-.6-.89.497.497 0 0 0-.22-.4 1.006 1.006 0 0 1-.386-.411 1.005 1.005 0 0 1 .113-1.076 1 1 0 0 1 .463-.323.493.493 0 0 0 .3-.34 1 1 0 0 1 .78-.74 1.001 1.001 0 0 1 1 .36.476.476 0 0 0 .41.19 1.005 1.005 0 0 1 .974.491.999.999 0 0 1-.054 1.089.48.48 0 0 0-.05.45 1.005 1.005 0 0 1-.169 1.083.998.998 0 0 1-1.061.277.468.468 0 0 0-.44.09.997.997 0 0 1-.64.24Zm.24-3.76h-.1a.477.477 0 0 0-.37.35.998.998 0 0 1-.64.71.45.45 0 0 0-.31.4.468.468 0 0 0 .22.46 1.005 1.005 0 0 1 .47.83.483.483 0 0 0 .555.459.479.479 0 0 0 .245-.109 1.001 1.001 0 0 1 .93-.19.476.476 0 0 0 .49-.15.46.46 0 0 0 .09-.5 1.076 1.076 0 0 1 .1-.95.47.47 0 0 0 0-.51.485.485 0 0 0-.39-.2.998.998 0 0 1-.87-.39.456.456 0 0 0-.42-.21ZM620.55 597.46a1 1 0 0 1-1-1 .544.544 0 0 0-.23-.4 1.002 1.002 0 0 1 .19-1.81.496.496 0 0 0 .31-.34.987.987 0 0 1 .272-.494.994.994 0 0 1 1.058-.226c.179.067.335.186.45.34a.495.495 0 0 0 .42.19.998.998 0 0 1 1 .5 1.001 1.001 0 0 1 0 1.08.475.475 0 0 0 0 .45 1.002 1.002 0 0 1-.19 1.06 1.007 1.007 0 0 1-1 .3.484.484 0 0 0-.45.09 1.002 1.002 0 0 1-.83.26Zm.24-3.77h-.11a.479.479 0 0 0-.234.123.479.479 0 0 0-.136.227 1.001 1.001 0 0 1-.63.71.458.458 0 0 0-.32.4.466.466 0 0 0 .22.46 1 1 0 0 1 .48.83.475.475 0 0 0 .285.422.484.484 0 0 0 .505-.072 1 1 0 0 1 .93-.2.472.472 0 0 0 .5-.14.485.485 0 0 0 .09-.5.998.998 0 0 1 .1-1 .472.472 0 0 0 0-.51.472.472 0 0 0-.45-.24.998.998 0 0 1-.86-.39.507.507 0 0 0-.37-.12Z" fill="#000"/><path opacity=".2" d="M622.44 575.65h-8.22a.59.59 0 0 1-.21-1.13l9.39-3.75-.96 4.88Z" fill="#000"/></svg>