<svg xmlns="http://www.w3.org/2000/svg" xmlns:xlink="http://www.w3.org/1999/xlink" xml:space="preserve" width="1600" height="1200" fill="none" class="gridItem__media">
  <defs>
    <path id="reuse-0" fill="#000" d="M758.87 1012.11h-36.33c-.95 0-1.72-.76-1.72-1.72v-3.24h39.76v3.24c.01.96-.75 1.72-1.71 1.72Z" opacity=".5"/>
    <path id="reuse-1" fill="#fff" d="M1032.26 396.389c36.02 0 65.22-29.2 65.22-65.22 0-36.02-29.2-65.22-65.22-65.22-36.02 0-65.22 29.2-65.22 65.22 0 36.02 29.2 65.22 65.22 65.22Z"/>
    <path id="reuse-2" fill="#158566" d="M811.43 628.15c-23.44-11.95-51.1-32.93-65.19-59.76-13.98-26.6-17.74-61.85-18.8-89.83 12.52-6.17 21.24-18.97 21.51-33.76 17.16-8.39 38.92-12.95 62.48-12.95 23.56 0 45.32 4.55 62.48 12.95.28 14.79 8.99 27.59 21.51 33.76-1.06 27.97-4.83 63.22-18.8 89.83-14.09 26.83-41.75 47.81-65.19 59.76Z" class="change-color-in-svg"/>
  </defs>
  <path fill="#F2F2F2" d="M1396.42 1011.66H210.14l-74.02-456.75c-2.68-16.54 1.61-33.45 11.85-46.71l211.54-273.86c11.08-14.35 28.01-22.97 46.13-23.51l781.21-23.24c24.42-.73 46.89 13.29 56.97 35.55l215.63 476.05c5.59 12.34 6.88 26.19 3.67 39.35l-66.7 273.12Z"/>
  <path fill="#fff" d="M1351.98 692.449H854.67v263.66h497.31v-263.66Z"/>
  <path fill="#F2F2F2" d="M1339.93 944.04V704.5H866.74v239.54h473.19Z"/>
  <path fill="#F2F2F2" d="M1339.25 944.04V704.5H866.74v239.54h472.51Z"/>
  <path fill="#E8E8E8" d="M1382 956.109v-263.66h-30.01v263.66H1382Z"/>
  <path fill="#fff" d="M1339.93 830.71v-12.86H866.74v12.86h473.19Z"/>
  <path fill="#E8E8E8" d="M974.93 713.27h-25.19v104.579h25.19V713.27Z"/>
  <path fill="#fff" d="M974.93 817.849h67.33V713.27h-67.33v104.579Z"/>
  <path fill="#E8E8E8" d="M997.29 725.23H983.1v92.611h14.19V725.23Z"/>
  <path fill="#fff" d="M997.29 817.85h37.93v-92.61h-37.93v92.61Z"/>
  <path fill="#E8E8E8" d="M1040.46 817.85h-21.02l-12.12-87.28h21.02l12.12 87.28Z"/>
  <path fill="#fff" d="M1040.46 817.85h56.19l-12.12-87.28h-56.19l12.12 87.28Z"/>
  <path fill="#E8E8E8" d="M955.97 944.049h-21.02l-12.12-87.27h21.02l12.12 87.27Z"/>
  <path fill="#fff" d="M955.97 944.049h56.19l-12.12-87.27h-56.19l12.12 87.27Z"/>
  <path fill="#fff" d="M1257.84 944.06v-27.13h-129.12v27.13h129.12Z"/>
  <path fill="#fff" d="M1219.79 895.77v-21.93h-91.07v21.93h91.07Z"/>
  <path fill="#fff" d="M1241.36 916.919V895.77h-112.63v21.149h112.63Z"/>
  <path fill="#E8E8E8" d="M1235.22 733.119h-20.41v84.73h20.41v-84.73Z"/>
  <path fill="#fff" d="M1235.22 817.849h54.55v-84.73h-54.55v84.73Z"/>
  <path fill="#E8E8E8" d="M1280.33 742.811h-19.59v75.04h19.59v-75.04Z"/>
  <path fill="#fff" d="M1280.33 817.851h33.5v-75.04h-33.5v75.04Z"/>
  <path fill="#E8E8E8" d="M1219.79 892.119h-91.07v3.66h91.07v-3.66Z"/>
  <path fill="#E8E8E8" d="M1241.35 913.27h-112.63v3.66h112.63v-3.66Z"/>
  <path fill="#E8E8E8" d="M1257.84 940.4h-129.12v3.66h129.12v-3.66Z"/>
  <path fill="#fff" d="m1374.82 956.109 4.63 51.391c.36 1.87-1.07 3.65-2.94 3.65-1.25 0-2.4-.8-2.85-2.05l-13.45-52.991h14.61Z"/>
  <path fill="#E8E8E8" d="m1373.12 986.029-5.61-1.34-7.21-28.5h14.61l4.63 51.391c.27 1.42-.53 2.85-1.78 3.38l-4.64-24.931Z"/>
  <path fill="#fff" d="m1322.36 956.109 4.63 51.391c.36 1.87-1.07 3.65-2.94 3.65-1.25 0-2.4-.8-2.85-2.05l-13.45-52.991h14.61Z"/>
  <path fill="#E8E8E8" d="m1317.46 961.809-8.37-1.6-1.43-4.1h14.61l4.63 51.391c.27 1.42-.53 2.85-1.78 3.38l-7.66-49.071Z"/>
  <path fill="#fff" d="m933.33 956.109-4.63 51.391c-.36 1.87 1.07 3.65 2.94 3.65 1.25 0 2.4-.8 2.85-2.05l13.45-52.991h-14.61Z"/>
  <path fill="#E8E8E8" d="m935.91 983.45-4.99-1.25 2.4-26.1h14.61l-13.45 52.99c-.45 1.25-1.6 2.05-2.85 2.05h-.18l4.46-27.69Z"/>
  <path fill="#fff" d="m879.44 956.109-4.63 51.391c-.36 1.87 1.07 3.65 2.94 3.65 1.25 0 2.4-.8 2.85-2.05l13.45-52.991h-14.61Z"/>
  <path fill="#E8E8E8" d="m885.14 960.56-6.41-1.16.71-3.3h14.61l-13.45 52.99c-.45 1.25-1.6 2.05-2.85 2.05h-.18l7.57-50.58Z"/>
  <path fill="#F99A9A" d="m619.71 551.311 25.05-75.9-42-6.27-22.25 76.53 1.96 6.25c5.78 18.47 32.06 18.03 37.24-.61Z"/>
  <path fill="#F99A9A" d="m561.4 463.731-29.23-42.22c-.58-1.16-.22-2.56.83-3.32l.11-.08c1.23-.89 2.66-.84 3.77.72 2.95 4.12 10.52 13.17 10.52 13.17s-9.18-14.25-11.64-19.36c-.52-1.09-.24-2.38.68-3.16l.01-.01c1.27-1.07 3.19-.73 4.01.71 3.32 5.83 11.19 17.28 11.19 17.28-5.4-10.92-9.54-17.08-10.65-20.23-.39-1.11.01-2.34.97-3.03 1.3-.92 3.11-.5 3.87.89l10.25 18.86 3.6-8.25 15.4 3.37c1.49.38 2.34 1.96 1.81 3.41-.4 1.12-1.52 1.83-2.71 1.71l-8.78-.87-1.17 7.87c-.09.59.02 1.2.3 1.73 0 0 4.25 4.69 7.02 5.01 1.51-.04 2.02-1.19 2.03-2.7l.01-1.61c-.21-11.92 7.32-9.2 7.32-9.2l.74 12.82s4.55 9.98-.55 16.66l37.02 70.03c5.81 10.99 1.61 24.61-9.39 30.42-6.94 3.67-15.11 3.38-21.66-.35-3.3-1.88-5.65-5.08-6.52-8.77l-14.82-63.02-4.34-18.48Z"/>
  <path fill="#000" d="m557.45 426.351-1.35-2.4 3.6-8.24-2.25 10.64Z" opacity=".15"/>
  <path fill="#000" d="m552.98 426.149-1.32 1.31-10.35-19.46c-.44-.82-.62-1.86-.22-2.7l.19-.36 11.7 21.21Z" opacity=".15"/>
  <path fill="#000" d="M547.41 432.001s-9.26-14.57-11.79-19.75c-.3-.62.06-1.69.06-1.69l13.06 20.11-1.33 1.33Z" opacity=".15"/>
  <path fill="#000" d="M576.91 424.689s-1.08.35-2.11 2.2c-1.99 3.57-.56 9.03-1.73 10.36-1.17 1.32-2.91.22-3.47-.07-1.7-.91-4.02-3.19-4.02-3.19l4.04 4.28c1.54 1.64 4.3 1.32 5.32-.69.01-.01.01-.02.02-.04.59-1.18-.38-5.09-.28-6.11.1-1.03.03-4.45 2.23-6.74Z" opacity=".15"/>
  <path fill="#000" d="m617.97 527.41-20.11-41.83 3.41-11.34 18.66 52.36c.16.45 0 .96-.4 1.23-.54.37-1.27.17-1.56-.42Z" opacity=".15"/>
  <path fill="#F99A9A" d="m894.15 569.471-92.92-29.42c-3.9-1.32-7.22-3.96-9.38-7.47l-27.2-44.76 39.92-14.43 21.33 46.68 72.49 34.84"/>
  <path fill="#000" d="m883.87 571.749 2.36-5.74c-14.8-5.19-60.55-26.44-78.05-33.35-4.8-1.89-8.79-5.38-11.33-9.87l-21.92-38.17-7.52 7.74 22.41 37.93c2.72 4.54 6.95 7.98 11.95 9.71l82.1 31.75Z" opacity=".15"/>
  <path fill="#F99A9A" d="m725.9 364.32-.29 39.28c0 .95-.29 1.91-.86 2.67l.57 1.49c-9.53 14.21-30.13 16.15-43.29 5.28-1.33-1.14-2-2.86-1.72-4.58l7.15-47.29 38.44 3.15Z"/>
  <path fill="#F99A9A" d="M683.28 344.87s-7.82 51.68 20.69 53.77c27.84 2.1 28.7-50.15 28.7-50.15l.76-14.97-35.85-6.29-9.06 4.67-5.24 12.97Z"/>
  <path fill="#000" d="m682.61 394.36 2.1-14.21c2.57 9.15 7.91 16.78 17.26 18.31h-.1c.67.1 1.33.19 2 .29 7.44.57 13.63-2.86 18.31-10.2.19-.29.57-.38.86-.19.29.19.38.57.19.86-4.96 7.82-11.54 11.44-19.45 10.87-1.72-.1-3.34-.48-4.86-.95-5.06.55-10.88-.69-16.31-4.78Z" opacity=".15"/>
  <path fill="#21252B" d="M690.05 333.331s-9.06-6.01-13.35 4.29c-3.62 8.68 2.48 18.12 2.48 18.12l5.24-.57c2.19-.1 3.72-1.14 3.91-3.24l1.72-18.6Z"/>
  <path fill="#21252B" d="M683.56 327.041c-.76 9.82 7.63 12.39 11.06 12.68l28.13 2.38c2.29.19 4 2.19 3.91 4.48l-.48 8.96c-.1 1.24.76 2.29 2 2.48l1.72.19 1.91 2.38c11.06-2.67 15.64-34.04-4.67-40.33-2.1-.67-4.1-2.29-5.05-4.29-2.96-6.1-15.06-7.72-21.17-.86-1.33 1.53-2.86 2.1-4.86 2.1-7.35-.18-12.12 4.4-12.5 9.83Z"/>
  <path fill="#F99A9A" d="M729.81 361.27c.38-3.62 4.67-5.53 7.53-3.15l.1.1c4.86 4.2 1.72 17.35-8.96 16.21l1.33-13.16Z"/>
  <path fill="#F99A9A" d="m676.7 354.31.1-.1c3.15-1.91 7.06.57 6.96 4.2l-.58 12.59c-10.77-.39-11.82-13.26-6.48-16.69Z"/>
  <path fill="#21252B" d="M728.47 362.889c-.1.67.48 1.24 1.14 1.33.67.1 1.33-.38 1.43-.95l1.24-8.49-3.53.1-.28 8.01Z"/>
  <path fill="#21252B" d="M681.56 359.46c-.1.67.48 1.24 1.14 1.33.67.1 1.33-.38 1.43-.95l1.24-8.49-3.53.1-.28 8.01Z"/>
  <path fill="#F99A9A" d="M694.43 340.96c.86.1 1.33 0 1.43 0 .29 0 .57-.29.57-.67 0-.29-.29-.57-.67-.57-.1 0-5.72.29-8.1-3.43-.19-.29-.57-.38-.86-.19-.29.19-.38.57-.19.86 2.1 3.14 5.82 3.91 7.82 4Z"/>
  <path fill="#21252B" d="M715.6 368.61c1.37 0 2.48-1.11 2.48-2.48 0-1.37-1.11-2.48-2.48-2.48-1.37 0-2.48 1.11-2.48 2.48 0 1.37 1.11 2.48 2.48 2.48Z"/>
  <path fill="#fff" d="M716.74 366.419c.32 0 .57-.26.57-.57 0-.32-.26-.57-.57-.57-.31 0-.57.26-.57.57 0 .32.25.57.57.57Z"/>
  <path fill="#21252B" d="M696.53 367.181c1.37 0 2.48-1.11 2.48-2.48 0-1.37-1.11-2.48-2.48-2.48-1.37 0-2.48 1.11-2.48 2.48 0 1.37 1.11 2.48 2.48 2.48Z"/>
  <path fill="#fff" d="M697.67 365.079c.32 0 .57-.26.57-.57 0-.31-.26-.57-.57-.57-.31 0-.57.26-.57.57 0 .32.25.57.57.57Z"/>
  <g opacity=".45">
    <path fill="#000" d="m704.82 377.859-2-.19c-.38 0-.67-.38-.67-.76s.38-.67.76-.67l2 .19c.86.1 1.53-.57 1.62-1.43.09-.86-.57-1.53-1.43-1.62-.38 0-.67-.38-.67-.76s.38-.67.76-.67c1.62.1 2.86 1.53 2.67 3.15.02 1.71-1.41 2.86-3.04 2.76Z" opacity=".3"/>
  </g>
  <path fill="#21252B" d="m685.85 361.65-.19 2.76c-.29 5.34 3.81 9.92 9.15 10.2 5.34.29 9.92-3.81 10.2-9.15l.19-2.76c.1-.86-.19-1.53-.57-2.19l3.72.19c-.48.57-.86 1.33-.86 2.1l-.19 2.76c-.29 5.34 3.81 9.92 9.15 10.2 5.34.29 9.92-3.81 10.2-9.15l.19-2.76c.1-2-1.33-3.72-3.34-3.81l-12.11-.67h-.1l-9.44-.57-1.43-.1-10.77-.57c-1.99-.1-3.7 1.33-3.8 3.52Zm25.27-.86h.1l12.11.67c1.14.1 2.1 1.14 2 2.29l-.19 2.76c-.19 4.48-4.1 8.01-8.68 7.72-4.48-.19-8.01-4.1-7.72-8.68l.19-2.76c-.01-1.23 1.04-2.09 2.19-2Zm-23.93.77c.1-1.14 1.14-2.1 2.29-2l10.77.57 1.43.1c1.14.1 2.1 1.14 2 2.29l-.19 2.76c-.19 4.48-4.1 8.01-8.68 7.72-4.48-.19-8.01-4.1-7.72-8.68l.1-2.76Z"/>
  <g opacity=".45">
    <path fill="#000" d="M732.47 368.141c.38 0 .67-.29.76-.67l.19-1.53c.19-1.62.67-2.76 1.33-3.34.57-.48 1.14-.38 1.14-.38.38.1.76-.19.86-.57.1-.38-.19-.76-.57-.86-.1 0-1.14-.19-2.29.57-1.05.76-1.72 2.29-1.91 4.29l-.19 1.53c.02.48.3.86.68.96Z" opacity=".3"/>
  </g>
  <g opacity=".45">
    <path fill="#000" d="M680.04 364.23c-.38 0-.67-.38-.67-.76v-1.53c.1-1.62-.19-2.76-.86-3.43-.48-.57-1.05-.57-1.14-.57-.38 0-.67-.29-.76-.67 0-.38.29-.67.67-.76.1 0 1.24 0 2.1.95.95.95 1.33 2.48 1.24 4.58v1.53c.18.37-.11.66-.58.66Z" opacity=".3"/>
  </g>
  <g opacity=".45">
    <path fill="#000" d="M700.16 385.74c-.03.08.06.11 0 0 2.18.9 3.19 1.33 3.19 1.33.43.14.77-.03 1-.44.14-.43-.01-.86-.44-1 0 0-1.01-.42-3.1-1.3-.43-.14-.86.01-.97.35-.17.52-.03.95.32 1.06Z" opacity=".3"/>
  </g>
  <g opacity=".45">
    <path fill="#000" d="M699.96 382.24c5.58 2.77 9.29.46 10.74-.78.28-.29.31-.66.05-1.03-.29-.28-.66-.31-1.03-.05-1.37 1.27-5.39 3.67-11.7-.96-.32-.2-.72-.14-1 .15-.2.32-.14.72.15 1 1.01.71 1.96 1.31 2.79 1.67Z" opacity=".3"/>
  </g>
  <path fill="#3F4249" d="m759.75 615.961-10.61 345.91H717.2l-17.82-295.57c-.19-3.43-3.05-6.1-6.48-6.1-3.43 0-6.29 2.67-6.48 6.2l-16.22 295.46h-31.94l-9.82-342.34 131.31-3.56Z"/>
  <path fill="#F99A9A" d="m745.81 981.891.86-27.84h-27.08l1.24 28.69 24.98-.85Z"/>
  <path fill="#000" d="m719.88 961.86.86 20.88 6.48-.19-.19-12.3c0-2 1.33-3.72 3.24-4.2l16.21-4.2-26.6.01Z" opacity=".15"/>
  <path fill="#F99A9A" d="m641.88 981.891-.85-27.84h27.17l-1.24 28.69-25.08-.85Z"/>
  <path fill="#242830" d="M720.83 1007.06v-24.31c0-7.34 6.01-13.35 13.35-13.35h.57c6.01 0 11.25 4.2 12.39 10.11.67 3.53 2.29 6.77 4.58 9.44l3.81 4.48c3.24 3.81 5.05 8.68 5.05 13.63h-39.75Z"/>
  <path fill="#fff" d="M743.81 982.36c.19 0 .38-.1.48-.29.1-.29.1-.57-.19-.67-7.82-4.39-14.68 0-14.68 0-.19.19-.29.48-.1.67.19.19.48.29.67.1.1 0 6.39-4.1 13.63 0 0 .19.09.19.19.19Z"/>
  <path fill="#fff" d="M745.43 985.8c.19 0 .38-.1.48-.29.1-.29.1-.57-.19-.67-7.82-4.39-14.68 0-14.68 0-.19.19-.29.48-.1.67.19.19.48.29.67.1.1 0 6.39-4.1 13.63 0 0 .19.09.19.19.19Z"/>
  <path fill="#fff" d="M747.14 989.421c.19 0 .38-.1.48-.29.1-.29.1-.57-.19-.67-7.82-4.39-14.68 0-14.68 0-.19.19-.29.48-.1.67.19.19.48.29.67.1.1 0 6.39-4.1 13.63 0 .1.19.19.19.19.19Z"/>
  <use xlink:href="#reuse-0" opacity=".5"/>
  <path fill="#158566" d="m749.81 961.861.29-11.06h-34.32l.66 11.06h33.37Z" class="change-color-in-svg"/>
  <path fill="#21252B" d="m715.78 950.801.66 11.06h33.37l.29-11.06h-34.32Z"/>
  <path fill="#000" d="M692.89 660.189c3.43 0 6.29 2.67 6.48 6.1l17.16 284.51h10.2l-4.1-271.73c-.19-10.49-8.68-18.88-19.16-18.88h-10.58Z" opacity=".15"/>
  <path fill="#000" d="m716.44 961.861-.66-11.06h10.96l.19 11.06h-10.49Z" opacity=".2"/>
  <path fill="#000" d="m641.31 961.86.57 20.02 11.35.38-.19-13.54c0-1.24.76-2.48 2-2.86l12.78-4.1h-26.51v.1Z" opacity=".15"/>
  <path fill="#000" d="m628.52 622.06 9.74 339.8h3.05l-.28-7.81h11.82l-5-333.12-19.33 1.13Z" opacity=".15"/>
  <path fill="#242830" d="M666.96 1007.06v-24.31c0-7.34-6.01-13.35-13.35-13.35h-.57c-6.01 0-11.25 4.2-12.39 10.11-.67 3.53-2.29 6.77-4.58 9.44l-3.81 4.48c-3.24 3.81-5.05 8.68-5.05 13.63h39.75Z"/>
  <path fill="#fff" d="M643.89 982.359c.1 0 .19 0 .29-.1 7.34-4.1 13.63-.1 13.63 0 .19.19.57.1.67-.1.19-.19.1-.57-.1-.67-.1 0-6.86-4.48-14.68 0-.29.1-.29.48-.19.67.09.11.28.2.38.2Z"/>
  <path fill="#fff" d="M642.36 985.801c.1 0 .19 0 .29-.1 7.34-4.1 13.63-.1 13.63 0 .19.19.57.1.67-.1.19-.19.1-.57-.1-.67-.1 0-6.86-4.48-14.68 0-.29.1-.29.48-.19.67 0 .1.19.2.38.2Z"/>
  <path fill="#fff" d="M640.55 989.42c.1 0 .19 0 .29-.1 7.34-4.1 13.63-.1 13.63 0 .19.19.57.1.67-.1.19-.19.1-.57-.1-.67-.1 0-6.86-4.48-14.68 0-.29.1-.29.48-.19.67.09.1.19.2.38.2Z"/>
  <path fill="#3F4249" d="M628.92 1012.11h36.33c.95 0 1.72-.76 1.72-1.72v-3.24h-39.85v3.24c-.01.96.84 1.72 1.8 1.72Z"/>
  <use xlink:href="#reuse-0" opacity=".5"/>
  <use xlink:href="#reuse-0" opacity=".8"/>
  <path fill="#000" d="M628.92 1012.11h36.33c.95 0 1.72-.76 1.72-1.72v-3.24h-39.85v3.24c-.01.96.84 1.72 1.8 1.72Z" opacity=".8"/>
  <path fill="#21252B" d="m671.63 950.801-.67 11.06h-33.37l-.19-11.06h34.23Z"/>
  <path fill="#000" d="M652.85 950.801v11.06h-15.26l-.19-11.06h15.45Z" opacity=".2"/>
  <path fill="#fff" d="m725.55 404.33 28.85 7.69c.65.15 1.29.32 1.94.49 15.2 4.12 27.59 15.15 34.07 29.51l14.16 31.38-36.85 18.81-10.51-14.85"/>
  <path fill="#158566" d="m621.12 547.03 2.17 68.04c.11 3.75 3.08 6.8 6.83 6.98l127.2-2.2c3.86.19 7.19-2.7 7.53-6.55l-5.01-140.37 39.87 6.88 19.89-31.55-31.94-22.34c-8.35-5.84-17.68-10.13-27.54-12.68l-34.56-8.92s-6.25 15.36-22.59 14.7c-21.51-.86-21.88-15.6-21.88-15.6l-40.12 6.81c-15.48 2.63-27.88 14.28-31.46 29.58l-11.42 45.03 40.41 11.02 7.24-23.28-24.62 74.45Z" class="change-color-in-svg"/>
  <path fill="#000" d="m767.41 492.359-10.09-15.01.84-19.91 18.5 30.2-9.25 4.72Z" opacity=".2"/>
  <path stroke="#fff" stroke-linecap="round" stroke-linejoin="round" stroke-miterlimit="10" stroke-width="23" d="m750.12 520.18 22.45 34.08 80.62-64.93"/>
  <path fill="#B0B4B9" d="M1111.48 331.17c0-37.71-28.48-68.78-65.22-72.83v-.49h-8.09c-40.46 0-73.32 32.85-73.32 73.32 0 40.47 32.85 73.32 73.32 73.32l8.09-.49c36.74-4.05 65.22-35.12 65.22-72.83Z"/>
  <path fill="#84888F" d="M1032.26 404.49c40.49 0 73.32-32.83 73.32-73.32 0-40.49-32.83-73.32-73.32-73.32-40.49 0-73.32 32.83-73.32 73.32 0 40.49 32.83 73.32 73.32 73.32Z"/>
  <use xlink:href="#reuse-1"/>
  <path fill="#84888F" d="M1032.26 396.389c36.02 0 65.22-29.2 65.22-65.22 0-36.02-29.2-65.22-65.22-65.22-36.02 0-65.22 29.2-65.22 65.22 0 36.02 29.2 65.22 65.22 65.22Z"/>
  <use xlink:href="#reuse-1" opacity=".9"/>
  <path fill="#B0B4B9" d="M1032.28 265.939c1.13 0 2.27 0 3.56.16-34.31 1.78-61.66 30.27-61.66 65.06 0 34.79 27.35 63.28 61.66 65.06-1.13 0-2.27.16-3.56.16-36.09 0-65.22-29.13-65.22-65.22 0-36.08 29.13-65.22 65.22-65.22Z"/>
  <path fill="#158566" d="m1034.11 336.491-1.84-48.17c-.06-1.81 1.4-3.45 3.21-3.52 1.81-.06 3.45 1.4 3.52 3.21l1.53 41.45 27.57-.76c1.81-.06 3.45 1.4 3.45 3.35.06 1.81-1.4 3.45-3.35 3.45l-34.09.99Z" class="change-color-in-svg"/>
  <path fill="#fff" fill-rule="evenodd" d="m995.14 283.25 94.64 78.67s2.54-5.26 3.25-7.02c.61-1.5 2.02-6 2.02-6L1038 266.07s-20.88-2.73-42.86 17.18Z" clip-rule="evenodd" opacity=".7"/>
  <path fill="#fff" fill-rule="evenodd" d="m981.77 361.92 66.66 32.45s-5.9 2.31-14.94 1.69c-14.54-.99-36.69-8.16-51.72-34.14Z" clip-rule="evenodd" opacity=".7"/>
  <path fill="#B0B4B9" d="M315.29 740.201h-68.17c-1.93 0-3.45-1.52-3.45-3.45 0-1.93 1.52-3.45 3.45-3.45h68.17v6.9Z"/>
  <path fill="#B0B4B9" d="M324.73 736.85h-68.78v211.83h68.78V736.85Z"/>
  <path fill="#D8DBDD" d="M533.01 736.85H322.6v211.83h210.41V736.85Z"/>
  <path fill="#B0B4B9" d="m333.27 766.511 189.89-.2v166.21H333.27v-166.01Zm188.36 1.53H334.79v162.96h186.84v-162.96Z"/>
  <path fill="#D8DBDD" d="M540.83 740.201H315.18c-1.93 0-3.45-1.52-3.45-3.45 0-1.93 1.52-3.45 3.45-3.45h225.65c1.93 0 3.45 1.52 3.45 3.45-.1 1.93-1.62 3.45-3.45 3.45Z"/>
  <path fill="#B0B4B9" d="M523.16 848.4H333.27v1.52h189.89v-1.52Z"/>
  <path fill="#B0B4B9" d="M436.39 793.031c2.92 0 5.28-2.36 5.28-5.28 0-2.92-2.36-5.28-5.28-5.28-2.92 0-5.28 2.36-5.28 5.28 0 2.92 2.36 5.28 5.28 5.28Z"/>
  <path fill="#000" d="M434.46 787.751c0-2.34 1.52-4.27 3.56-4.98-.51-.2-1.12-.3-1.73-.3-2.95 0-5.28 2.34-5.28 5.28 0 2.94 2.34 5.28 5.28 5.28.61 0 1.12-.1 1.73-.3-2.04-.71-3.56-2.64-3.56-4.98Z" opacity=".15"/>
  <path fill="#B0B4B9" d="M436.39 874.81c2.92 0 5.28-2.36 5.28-5.28 0-2.92-2.36-5.28-5.28-5.28-2.92 0-5.28 2.36-5.28 5.28 0 2.92 2.36 5.28 5.28 5.28Z"/>
  <path fill="#000" d="M434.46 869.53c0-2.34 1.52-4.27 3.56-4.98-.51-.2-1.12-.3-1.73-.3-2.95 0-5.28 2.34-5.28 5.28 0 2.94 2.34 5.28 5.28 5.28.61 0 1.12-.1 1.73-.3-2.04-.71-3.56-2.64-3.56-4.98Z" opacity=".15"/>
  <path fill="#B0B4B9" d="m311.73 747.309 10.87-7.11h210.41v3.25l-221.28 3.86Z"/>
  <path fill="#D8DBDD" d="m269.46 948.68-5.28 58.62c-.41 2.13 1.22 4.17 3.35 4.17 1.42 0 2.74-.91 3.25-2.34l15.34-60.45h-16.66Z"/>
  <path fill="#B0B4B9" d="m271.4 982.819 6.4-1.52 8.23-32.51h-16.66l-5.28 58.621c-.3 1.63.61 3.25 2.03 3.86l5.28-28.451Z"/>
  <path fill="#D8DBDD" d="m329.31 948.68-5.28 58.62c-.41 2.13 1.22 4.17 3.35 4.17 1.42 0 2.74-.91 3.25-2.34l15.34-60.45h-16.66Z"/>
  <path fill="#B0B4B9" d="m334.89 955.18 9.55-1.83 1.63-4.67h-16.66l-5.28 58.62c-.3 1.63.61 3.25 2.03 3.86l8.73-55.98Z"/>
  <path fill="#D8DBDD" d="m461.18 948.68 5.28 58.62c.41 2.13-1.22 4.17-3.35 4.17-1.42 0-2.74-.91-3.25-2.34l-15.34-60.45h16.66Z"/>
  <path fill="#B0B4B9" d="m458.23 979.87 5.69-1.42-2.74-29.77h-16.66l15.34 60.45c.51 1.42 1.83 2.34 3.25 2.34h.2l-5.08-31.6Z"/>
  <path fill="#D8DBDD" d="m522.65 948.68 5.28 58.62c.41 2.13-1.22 4.17-3.35 4.17-1.42 0-2.74-.91-3.25-2.34l-15.34-60.45h16.66Z"/>
  <path fill="#B0B4B9" d="m516.14 953.76 7.32-1.32-.81-3.76h-16.66l15.34 60.45c.51 1.42 1.83 2.34 3.25 2.34h.2l-8.64-57.71Z"/>
  <path fill="#D8DBDD" d="M387.55 709.73h-34.09v23.56h34.09v-23.56Z"/>
  <path fill="#B0B4B9" d="M387.55 709.73h-90.89V733.29h56.8v-17.28h34.09v-6.28Z"/>
  <path fill="#B0B4B9" d="M430.43 733.29H409.1c-3.25 0-5.89-2.64-5.89-5.89 0-3.25 2.64-5.89 5.89-5.89h21.34v11.78h-.01Z"/>
  <path fill="#D8DBDD" d="M494.65 733.29h-64.21v-11.78h64.21c3.25 0 5.89 2.64 5.89 5.89 0 3.26-2.64 5.89-5.89 5.89Z"/>
  <path fill="#B0B4B9" d="M452.54 724.4h-28.87v-2.88h28.87c.8 0 1.44.65 1.44 1.44.01.79-.64 1.44-1.44 1.44Z"/>
  <path fill="#B0B4B9" d="M335.56 278.08h155.47c1.93 0 3.5 1.57 3.5 3.5v357.61c0 1.93-1.57 3.5-3.5 3.5H335.56c-1.93 0-3.5-1.57-3.5-3.5V281.57c0-1.93 1.57-3.49 3.5-3.49Z"/>
  <path fill="#D8DBDD" d="M342.61 278.08h155.47c1.93 0 3.5 1.57 3.5 3.5v357.61c0 1.93-1.57 3.5-3.5 3.5H342.61c-1.93 0-3.5-1.57-3.5-3.5V281.57c0-1.93 1.56-3.49 3.5-3.49Z"/>
  <path fill="#B0B4B9" d="M373.43 343.801h-6.61v169.83h6.61v-169.83Z"/>
  <path fill="#B0B4B9" d="M487.45 368.95v-6.61H350.51v6.61h136.94Z"/>
  <path fill="#B0B4B9" d="M411.16 380.199h-29.09v29.09h29.09v-29.09Z"/>
  <path fill="#B0B4B9" d="M454.97 417.43h-29.09v29.09h29.09v-29.09Z"/>
  <path fill="#B0B4B9" d="M490.4 383.99h-29.09v29.09h29.09v-29.09Z"/>
  <path fill="#B0B4B9" d="M480.25 461.381h-29.09v29.09h29.09v-29.09Z"/>
  <path fill="#158566" d="M890.39 444.081c0-2.84.56-5.55 1.54-8.04-23.18-14.82-53.01-20.65-80.49-20.65-27.48 0-57.31 5.83-80.49 20.65.98 2.49 1.54 5.2 1.54 8.04 0 12.09-9.78 21.89-21.85 21.94.54 35.43 4.01 77.65 21.02 110.04 18.36 34.96 55.1 59.22 79.78 70.38 24.68-11.16 61.42-35.42 79.78-70.38 17.01-32.39 20.48-74.61 21.02-110.04-12.08-.05-21.85-9.85-21.85-21.94Z" class="change-color-in-svg"/>
  <path fill="#fff" d="M890.39 444.081c0-2.84.56-5.55 1.54-8.04-23.18-14.82-53.01-20.65-80.49-20.65-27.48 0-57.31 5.83-80.49 20.65.98 2.49 1.54 5.2 1.54 8.04 0 12.09-9.78 21.89-21.85 21.94.54 35.43 4.01 77.65 21.02 110.04 18.36 34.96 55.1 59.22 79.78 70.38 24.68-11.16 61.42-35.42 79.78-70.38 17.01-32.39 20.48-74.61 21.02-110.04-12.08-.05-21.85-9.85-21.85-21.94Z" opacity=".5"/>
  <use xlink:href="#reuse-2" class="change-color-in-svg"/>
  <use xlink:href="#reuse-2" class="change-color-in-svg"/>
  <path fill="#fff" d="M811.43 621.889c-21.94-11.19-47.84-30.83-61.03-55.95-13.08-24.91-16.61-57.9-17.6-84.09 11.73-5.78 19.88-17.76 20.14-31.61 16.07-7.86 36.44-12.12 58.49-12.12 22.05 0 42.43 4.26 58.49 12.12.26 13.84 8.42 25.83 20.14 31.61-.99 26.19-4.52 59.19-17.6 84.09-13.19 25.12-39.08 44.76-61.03 55.95Z" opacity=".7"/>
  <path fill="#158566" d="m868.8 494.28-8.32-8.32c-.92-.81-2.08-1.21-3.21-1.21h-6.75l1.15 3.8-46.4 46.62-20.33-20.33c-1.85-1.62-4.62-1.62-6.24 0l-8.32 8.32c-1.62 1.85-1.62 4.62 0 6.24l29.72 29.72-1.73 3.32h6.67c1.13.01 2.3-.45 3.23-1.38l60.53-60.53c1.62-1.86 1.62-4.63 0-6.25Z" class="change-color-in-svg"/>
  <path fill="#fff" d="m868.8 494.28-8.32-8.32c-.92-.81-2.08-1.21-3.21-1.21h-6.75l1.15 3.8-46.4 46.62-20.33-20.33c-1.85-1.62-4.62-1.62-6.24 0l-8.32 8.32c-1.62 1.85-1.62 4.62 0 6.24l29.72 29.72-1.73 3.32h6.67c1.13.01 2.3-.45 3.23-1.38l60.53-60.53c1.62-1.86 1.62-4.63 0-6.25Z" opacity=".5"/>
  <path fill="#FFD16E" d="M895.43 478.591v-.02c-.32-.16-.63-.34-.95-.51.31.18.63.35.95.53Z"/>
  <path fill="#fff" d="m795.5 561.039-31.65-31.65c-1.62-1.62-1.62-4.39 0-6.24l8.32-8.32c1.62-1.62 4.39-1.62 6.24 0l20.33 20.33 48.97-49.21c1.62-1.62 4.39-1.62 6.24 0l8.32 8.32c1.62 1.62 1.62 4.39 0 6.24l-60.53 60.53c-1.85 1.85-4.62 1.85-6.24 0Z"/>
  <path fill="#F99A9A" d="M906.55 483.54c-.88-1.67.01-3.73 1.83-4.23l11.35-3.12c1.12-.31 2.29.3 2.68 1.39l1.23 3.46c.49 1.37-.45 2.83-1.89 2.95l-12.33 1.1c-1.18.12-2.31-.5-2.87-1.55Z"/>
  <path fill="#F99A9A" d="M902.82 496.36c-.02-2 1.61-3.62 3.61-3.58l1.39.03c.07.14.2.25.37.28l7.21 1.18c1.41.28 3.22.58 4.64.44l3.17-.41c.02 0 .03-.01.05-.01.08-.02.14-.06.2-.1.12.19.22.41.28.64l.9 3.42c.37 1.39-.6 2.79-2.04 2.93l-3.35.33c-1.21.12-2.43.08-3.63-.11l-9.82-1.57c-1.7-.28-2.96-1.75-2.98-3.47Z"/>
  <path fill="#F99A9A" d="m923.21 494.301-3.17.41c-1.42.14-3.24-.17-4.64-.44l-8.25-1.47 6.57.13 1.86.31c1.35.27 3.07.55 4.34.43l2.58-.34c.39.19.72.49.95.86-.06.05-.13.08-.2.1 0 0-.02.01-.04.01Z"/>
  <path fill="#F99A9A" d="m915.59 493.23-1.86-.31 7.8.16c.35.01.68.1.99.25l-2.58.34c-1.28.12-2.99-.17-4.35-.44Z"/>
  <path fill="#F99A9A" d="m917.21 502.699-11.74-1.88c.42-.48 1.04-.78 1.72-.79l10.13 1.62 3.25-.29c.39.24.69.57.89.98l-4.11.36c-.05.01-.09.01-.14 0Z"/>
  <path fill="#F99A9A" d="M904.89 502.17c.04-.52.26-.99.58-1.35l11.74 1.88c.04.01.09.01.13 0l4.11-.36c.18.38.28.81.23 1.26l-.25 2.34c-.15 1.44-1.57 2.4-2.96 2.01l-11.87-3.34c-1.08-.3-1.8-1.32-1.71-2.44Z"/>
  <path fill="#000" d="m923.21 494.301-3.17.41c-1.42.14-3.24-.17-4.64-.44l-8.25-1.47 6.57.13 1.86.31c1.35.27 3.07.55 4.34.43l2.58-.34c.39.19.72.49.95.86-.06.05-.13.08-.2.1 0 0-.02.01-.04.01Z" opacity=".15"/>
  <path fill="#000" d="m917.21 502.699-11.74-1.88c.42-.48 1.04-.78 1.72-.79l10.13 1.62 3.25-.29c.39.24.69.57.89.98l-4.11.36c-.05.01-.09.01-.14 0Z" opacity=".15"/>
  <path fill="#F99A9A" d="M906.58 485.41c-.14-.05-.24-.15-.3-.27.41-.24.89-.39 1.41-.41l2.38.42 1.15-.11c.11-.01.22 0 .33-.01l10.43-.94c.66.06 1.26.4 1.65.91l-11.99 1.08c-1.7.14-3.45-.09-5.06-.67Z"/>
  <path fill="#F99A9A" d="m911.23 485.04 5.49-.5 4.96-.46c.11 0 .21 0 .31.01l-10.43.94c-.11.01-.22.01-.33.01Z"/>
  <path fill="#F99A9A" d="M906.28 485.14c.06.12.16.22.3.27 1.61.58 3.36.81 5.07.67l11.99-1.08c.2.26.36.57.43.91l.98 4.46c.29 1.34-.62 2.64-1.97 2.82l-2.79.38c-1.37.19-2.76.1-4.1-.25l-7.57-1.24c-1.71-.28-3.14-1.47-3.72-3.11-.58-1.5.1-3.1 1.38-3.83Z"/>
  <path fill="#000" d="M906.58 485.41c-.14-.05-.24-.15-.3-.27.41-.24.89-.39 1.41-.41l2.38.42 1.15-.11c.11-.01.22 0 .33-.01l10.43-.94c.66.06 1.26.4 1.65.91l-11.99 1.08c-1.7.14-3.45-.09-5.06-.67Z" opacity=".15"/>
  <path fill="#B0B4B9" d="M1150.27 794.67h-23.43l32.39 216.4h13.13l-22.09-216.4Z"/>
  <path fill="#84888F" d="M1172.36 1011.07h-9.37l-21.43-176.34-8.7.08-.77-5.15 5.72-24.8c-.34-2.48-2.31-4.45-4.8-4.63l-5.48-.51-.69-4.97h23.42l22.1 216.32Z"/>
  <path fill="#B0B4B9" d="M1238.61 794.67h-23.42l30.11 216.4h13.14l-19.83-216.4Z"/>
  <path fill="#B0B4B9" d="M1019.12 1011.07h13.45l30.24-216.4h-23.75l-19.94 216.4Z"/>
  <path fill="#84888F" d="M1258.44 1011.07h-9.46l-16.91-128.68-5.23-3-10.97-79.75-.69-4.97h23.51l19.75 216.4Z"/>
  <path fill="#84888F" d="m1024.06 1011.07 16.45-127.65-5.91-4.11 5.36-47.88-4.28-.06.47-5.09h4.39l3.55-31.68h18.72l-30.23 216.48h-8.52v-.01Z"/>
  <path fill="#B0B4B9" d="M1241.67 597.529h-115.09c-8.1 0-14.67 6.57-14.67 14.67v203.76c0 8.1 6.57 14.67 14.67 14.67h115.09v-233.1Z"/>
  <path fill="#B0B4B9" d="M1241.43 808.25h-209.17c-6.2 0-11.23 5.03-11.23 11.23s5.03 11.23 11.23 11.23h209.17v-22.46Z"/>
  <path fill="#84888F" d="M1256.5 808.25h-110.15c-6.2 0-11.23 5.03-11.23 11.23s5.03 11.23 11.23 11.23h110.15v-22.46Z"/>
  <path fill="#84888F" d="M1245.27 597.529c-6.2 0-11.23 5.03-11.23 11.23v215.34c0 3.55 2.88 6.43 6.43 6.43h9.59c3.55 0 6.43-2.88 6.43-6.43v-215.34c.01-6.2-5.02-11.23-11.22-11.23Z"/>
  <path fill="#21252B" d="m1029.94 747.209 16.97-116.89c1.78-12.05 10.69-21.8 22.48-24.6l45.38-10.77 45.72.42 42.24 10.09c15.01 3.56 24.77 18.07 22.48 33.34l-4.92 32.4-8.31 17.98c-.42 1.02-.68 2.04-.93 3.05l-7.72 42.16c-1.36 7.46-7.89 11.64-15.44 11.64l-157.95 1.18Z"/>
  <path fill="#fff" d="M1214.85 623.47c-.19 0-.37-.07-.52-.21l-4.65-4.36c-.31-.29-.32-.77-.03-1.08.29-.31.77-.32 1.08-.03l4.65 4.36c.31.29.32.77.03 1.08-.15.16-.35.24-.56.24Z"/>
  <path fill="#fff" d="M1210.35 623.62c-.19 0-.37-.07-.52-.21-.31-.29-.32-.77-.03-1.08l4.36-4.65c.29-.31.77-.32 1.08-.03.31.29.32.77.03 1.08l-4.36 4.65c-.15.16-.36.24-.56.24Z"/>
  <path fill="#fff" d="M1160.37 643.701c-.19 0-.37-.07-.52-.21l-4.65-4.36c-.31-.29-.32-.77-.03-1.08.29-.31.77-.32 1.08-.03l4.65 4.36c.31.29.32.77.03 1.08-.15.16-.35.24-.56.24Z"/>
  <path fill="#fff" d="M1155.87 643.84c-.19 0-.37-.07-.52-.21-.31-.29-.32-.77-.03-1.08l4.36-4.65c.29-.31.77-.32 1.08-.03.31.29.32.77.03 1.08l-4.36 4.65c-.15.16-.36.24-.56.24Z"/>
  <path fill="#fff" d="M1113.96 623.521c-3.09 0-5.61-2.52-5.61-5.61 0-3.09 2.52-5.61 5.61-5.61 3.09 0 5.61 2.52 5.61 5.61 0 3.09-2.52 5.61-5.61 5.61Zm0-9.7c-2.25 0-4.09 1.83-4.09 4.09s1.83 4.09 4.09 4.09 4.09-1.83 4.09-4.09-1.84-4.09-4.09-4.09Z"/>
  <path fill="#fff" d="M1128.78 704.409c-.42 0-.76-.34-.76-.76 0-2.25-1.83-4.09-4.09-4.09-2.25 0-4.09 1.83-4.09 4.09 0 .42-.34.76-.76.76s-.76-.34-.76-.76c0-3.09 2.52-5.61 5.61-5.61 3.09 0 5.61 2.52 5.61 5.61 0 .41-.34.76-.76.76Z"/>
  <path fill="#fff" d="M1060.03 629.511c-.42 0-.76-.34-.76-.76 0-2.25-1.82-4.09-4.06-4.09-2.24 0-4.06 1.83-4.06 4.09 0 .42-.34.76-.76.76s-.76-.34-.76-.76c0-3.09 2.51-5.61 5.59-5.61s5.59 2.52 5.59 5.61c-.02.42-.36.76-.78.76Z"/>
  <path fill="#fff" d="M1053.42 704.409c-3.09 0-5.61-2.52-5.61-5.61 0-3.09 2.52-5.61 5.61-5.61 3.09 0 5.61 2.52 5.61 5.61-.01 3.1-2.52 5.61-5.61 5.61Zm0-9.69c-2.25 0-4.09 1.83-4.09 4.09 0 2.25 1.83 4.09 4.09 4.09 2.25 0 4.09-1.83 4.09-4.09-.01-2.26-1.84-4.09-4.09-4.09Z"/>
  <path fill="#fff" d="M1099.5 662.071c-.42 0-.76-.34-.76-.76 0-1.88 1.41-2.64 2.44-3.19.92-.5 1.3-.75 1.3-1.23 0-.42.34-.76.76-.76s.76.34.76.76c0 1.44-1.16 2.07-2.1 2.57-1.05.56-1.64.93-1.64 1.85 0 .42-.34.76-.76.76Z"/>
  <path fill="#fff" d="M1099.5 653.21c-.42 0-.76-.34-.76-.76 0-1.88 1.41-2.64 2.44-3.19.92-.5 1.3-.75 1.3-1.23 0-.42.34-.76.76-.76s.76.34.76.76c0 1.44-1.16 2.069-2.1 2.569-1.05.56-1.64.931-1.64 1.851 0 .42-.34.76-.76.76Z"/>
  <path fill="#fff" d="M1103.23 657.639c-.42 0-.76-.34-.76-.76 0-.49-.38-.74-1.3-1.23-1.03-.56-2.44-1.32-2.44-3.19 0-.42.34-.76.76-.76s.76.34.76.76c0 .92.62 1.31 1.64 1.85.93.5 2.1 1.13 2.1 2.57 0 .42-.34.76-.76.76Z"/>
  <path fill="#fff" d="M1103.23 648.78c-.42 0-.76-.34-.76-.76 0-.49-.38-.74-1.3-1.23-1.03-.56-2.44-1.32-2.44-3.19 0-.42.34-.76.76-.76s.76.34.76.76c0 .92.62 1.31 1.64 1.85.93.5 2.1 1.13 2.1 2.57 0 .42-.34.76-.76.76Z"/>
  <path fill="#fff" d="M1064.86 662.959h-10.93c-.42 0-.76-.34-.76-.76s.34-.76.76-.76h10.93c.42 0 .76.34.76.76s-.34.76-.76.76Z"/>
  <path fill="#fff" d="M1162.84 612.35h-10.93c-.42 0-.76-.34-.76-.76s.34-.76.76-.76h10.93c.42 0 .76.34.76.76.01.42-.34.76-.76.76Z"/>
  <path fill="#fff" d="M1202.85 651.7c-.19 0-.39-.07-.54-.22-.3-.3-.3-.78 0-1.08l7.73-7.73c.3-.3.78-.3 1.08 0 .3.3.3.78 0 1.08l-7.73 7.73c-.15.14-.35.22-.54.22Z"/>
  <path fill="#fff" d="M1120.91 626.98c-2.76 0-5-2.24-5-5s2.24-5 5-5 5 2.24 5 5-2.24 5-5 5Zm0-9.699c-2.59 0-4.7 2.109-4.7 4.699s2.11 4.7 4.7 4.7c2.59 0 4.7-2.11 4.7-4.7 0-2.59-2.11-4.699-4.7-4.699Z"/>
  <path fill="#fff" d="M1135.88 707.711h-.3c0-2.59-2.11-4.7-4.7-4.7-2.59 0-4.7 2.11-4.7 4.7h-.3c0-2.76 2.24-5 5-5s5 2.25 5 5Z"/>
  <path fill="#fff" d="M1067.13 632.82h-.3c0-2.59-2.1-4.7-4.67-4.7-2.58 0-4.67 2.11-4.67 4.7h-.3c0-2.76 2.23-5 4.98-5 2.73 0 4.96 2.24 4.96 5Z"/>
  <path fill="#fff" d="M1060.37 707.869c-2.76 0-5-2.24-5-5s2.24-5 5-5 5 2.24 5 5-2.25 5-5 5Zm0-9.69c-2.59 0-4.7 2.11-4.7 4.7 0 2.59 2.11 4.7 4.7 4.7 2.59 0 4.7-2.11 4.7-4.7-.01-2.6-2.11-4.7-4.7-4.7Z"/>
  <path fill="#fff" d="M1106.6 665.379h-.3c0-1.52 1.12-2.12 2.12-2.66.87-.47 1.62-.87 1.62-1.77h.3c0 1.08-.9 1.57-1.78 2.04-.97.51-1.96 1.05-1.96 2.39Z"/>
  <path fill="#fff" d="M1106.6 656.52h-.3c0-1.52 1.12-2.12 2.12-2.66.87-.47 1.62-.87 1.62-1.77h.3c0 1.08-.9 1.57-1.78 2.04-.97.52-1.96 1.05-1.96 2.39Z"/>
  <path fill="#fff" d="M1110.33 660.95h-.3c0-.9-.75-1.3-1.62-1.77-.99-.54-2.12-1.14-2.12-2.66h.3c0 1.33.99 1.869 1.96 2.389.88.47 1.78.961 1.78 2.041Z"/>
  <path fill="#fff" d="M1110.33 652.09h-.3c0-.9-.75-1.3-1.62-1.77-.99-.54-2.12-1.14-2.12-2.66h.3c0 1.33.99 1.87 1.96 2.39.88.47 1.78.96 1.78 2.04Z"/>
  <path fill="#fff" d="M1071.82 666.119h-10.93v.3h10.93v-.3Z"/>
  <path fill="#fff" d="M1169.8 615.5h-10.93v.3h10.93v-.3Z"/>
  <path fill="#fff" d="m1217.41 647.17-7.73 7.73.21.21 7.73-7.73-.21-.21Z"/>
  <path fill="#fff" d="M1141.89 673.56c-.2 0-.4-.02-.6-.07-.7-.16-1.29-.58-1.67-1.18-.38-.6-.5-1.32-.34-2.01.16-.7.58-1.29 1.18-1.67.6-.38 1.32-.5 2.01-.34.7.16 1.29.58 1.67 1.18.38.6.5 1.32.34 2.01-.16.7-.58 1.29-1.18 1.67-.42.27-.91.41-1.41.41Zm-.01-3.82c-.21 0-.42.06-.61.18-.26.16-.44.42-.51.72s-.02.61.15.87c.16.26.42.44.72.51s.61.02.87-.15c.26-.16.44-.42.51-.72s.02-.61-.15-.87c-.16-.26-.42-.44-.72-.51-.08-.02-.17-.03-.26-.03Z"/>
  <path fill="#fff" d="M1098.74 684.47c-.2 0-.4-.02-.6-.07-.7-.16-1.29-.58-1.67-1.18-.78-1.25-.41-2.9.84-3.68.6-.38 1.32-.5 2.01-.34.7.16 1.29.58 1.67 1.18.38.6.5 1.32.34 2.01-.16.7-.58 1.29-1.18 1.67-.43.27-.91.41-1.41.41Zm-.01-3.82c-.21 0-.42.06-.61.18-.53.34-.7 1.05-.36 1.58.16.26.42.44.72.51s.61.02.87-.15c.26-.16.44-.42.51-.72s.02-.61-.15-.87c-.16-.26-.42-.44-.72-.51-.09-.01-.17-.02-.26-.02Z"/>
  <path fill="#fff" d="M1088.27 623.46c-.2 0-.4-.02-.6-.07-.7-.16-1.29-.58-1.67-1.18-.38-.6-.5-1.32-.34-2.01.16-.7.58-1.29 1.18-1.67.6-.38 1.32-.5 2.01-.34.7.16 1.29.58 1.67 1.18.38.6.5 1.32.34 2.01-.16.7-.58 1.29-1.18 1.67-.43.27-.92.41-1.41.41Zm-.01-3.82c-.21 0-.42.06-.61.18-.26.16-.44.42-.51.72s-.02.61.15.87c.16.26.42.44.72.51s.61.02.87-.15c.26-.16.44-.42.51-.72s.02-.61-.15-.87c-.16-.26-.42-.44-.72-.51-.09-.02-.18-.03-.26-.03Z"/>
  <path fill="#fff" d="M1182.89 623.46c-.89 0-1.76-.44-2.26-1.25-.38-.6-.5-1.32-.34-2.01.16-.7.58-1.29 1.18-1.67.6-.38 1.32-.5 2.01-.34.7.16 1.29.58 1.67 1.18.38.6.5 1.32.34 2.01-.16.7-.58 1.29-1.18 1.67-.44.28-.94.41-1.42.41Zm-.01-3.82c-.21 0-.42.06-.61.18-.26.16-.44.42-.51.72s-.02.61.15.87c.34.54 1.05.7 1.58.36.26-.16.44-.42.51-.72s.02-.61-.15-.87c-.16-.26-.42-.44-.72-.51-.08-.02-.16-.03-.25-.03Z"/>
  <path fill="#000" d="m1171.1 709.04 6.79-67.27c.08-.85-1.1-1.1-1.36-.25l-21.04 69.73 15.61-2.21Z" opacity=".15"/>
  <path fill="#84888F" d="M1046.57 738.13c.85 1.02 2.38 1.269 3.48.419l15.01-11.029-19.09 8.74c-.08.69.18 1.36.6 1.87Z"/>
  <path fill="#000" d="m1073.12 641.431-8.06 79.48-7.04 6.96-6.45-4.24 14.08-76.35c1.45-6.28 7.47-6.78 7.47-5.85Z" opacity=".15"/>
  <path fill="#3F4249" d="M1159.44 497.471c12.42.33 16.22 14.36 15.78 31.17-.44 16.81-4.42 26.56-16.84 26.24-12.42-.32-22.23-10.44-21.79-27.25.44-16.82 10.43-30.49 22.85-30.16Z"/>
  <path fill="#F69797" d="M1117.28 533.799s41.01-24.25 41.78 6.74l-.05 8.02 1.58 46.72c-.03 1.19-46.24 2.34-46.01.87l.99-8.08 3.2-23.96c-.44-2.09-.67-4.47-.6-7.14-.09-12.17-.89-23.17-.89-23.17Z"/>
  <path fill="#3F4249" d="M1114.03 535.589c7.54 0 13.65-6.11 13.65-13.65s-6.11-13.65-13.65-13.65-13.65 6.11-13.65 13.65 6.11 13.65 13.65 13.65Z"/>
  <path fill="#F69797" d="M1113.3 511.83s-15.91 59.74 14.83 64.6c26.6 4.26 30.66-37.29 30.66-37.29l-.58-27.03-44.91-.28Z"/>
  <path fill="#3F4249" d="M1154.33 531.91c-.07 14.53-6.02 22.64-6.02 22.64-32.93-5.33-38.22.6-38.22.6s1.58 16.54 15.1 20.47c13.53 3.93 34.32-3.95 34.74-22.6.1-4.61-6.79-29.7-6.79-29.7l1.19 8.59Z"/>
  <path fill="#fff" d="M1128.53 561.101c7.17 1.19 10.66-5.78 10.25-6.11-.42-.22-14.3 2.6-14.52 3.02-.12.42 2.22 2.91 4.27 3.09Z"/>
  <path fill="#3F4249" d="M1150.85 503.671c.25-9.59-9.35-17.62-21.44-17.94-12.09-.32-22.1 7.2-22.35 16.79s9.35 17.62 21.44 17.94c12.09.31 22.1-7.2 22.35-16.79Z"/>
  <path fill="#3F4249" d="M1157.52 497.711c7.57.2 13.51 8.1 13.26 17.66s-6.65 19.21-14.22 19.01c-7.57-.2-13.46-10.17-13.2-19.73.24-9.56 6.58-17.14 14.16-16.94Z"/>
  <path fill="#000" d="M1159.39 550.529s-2.58.13-3.93-.99l4.17 6.84-.24-5.85Z" opacity=".15"/>
  <path fill="#F69797" d="M1156.02 534.27s4.43-5.38 10.29-2.65c6.65 3.14 4.86 18.33-6.53 18.92-5.95.34-4.67-3.09-3.56-7.71.26-5.54-.2-8.56-.2-8.56Z"/>
  <path fill="#000" d="M1166.51 535.58c-1.17-.82-2.25-1.15-3.24-.98-.99.17-1.9.84-2.63 2.01-.72 1.17-1.16 2.54-1.2 4.12l-.13 1.28c-.01.4.28.7.67.71.39.01.7-.28.71-.67l.13-1.28c.01-.4.26-2.37.98-3.44.52-.78 1.12-1.26 1.72-1.44.6-.08 1.38.14 2.16.65.29.21.79.12.99-.17.21-.08.13-.48-.16-.79Z" opacity=".3"/>
  <path fill="#F69797" d="M1112.97 516.669c1.17.92 3.74 2.19 3.74 2.19.28.11.72.08.86-.29.15-.37.08-.72-.29-.86 0 0-3.54-2.22-3.87-2.46-.62-.57-1.63-1.34-2.71-2.65-.2-.29-.6-.35-.9-.15-.3.2-.35.61-.15.9 1.02 1.46 2.93 3.01 3.32 3.32Z"/>
  <path fill="#000" d="m1116.66 580.511 1.11-9.2c3.22 3.26 8.61 5.85 17.13 5.19 0 0 5.78-.27 12.01-3.42.45-.27.72-.29.99-.06.2.29.1.56-.15.78-1.24 1-5.89 3.17-13.14 4.03-10.21 6.19-17.95 2.68-17.95 2.68Z" opacity=".15"/>
  <path fill="#21252B" d="m1104.63 536.93-.07 2.77c-.14 5.34 4.1 9.8 9.44 9.94 5.34.14 9.8-4.1 9.94-9.44l.07-2.77c.02-.79-.16-1.59-.64-2.19l3.76.1c-.51.58-.83 1.36-.85 2.15l-.07 2.77c-.14 5.34 4.1 9.8 9.44 9.94 5.34.14 9.8-4.1 9.94-9.44l.07-2.77c.05-1.98-1.49-3.6-3.47-3.65l-12.16-.32h-.1l-9.39-.25-1.48-.04-10.78-.28c-1.97-.04-3.6 1.5-3.65 3.48Zm25.17-1.42h.1l12.16.32c1.19.03 2.15 1.05 2.12 2.23l-.07 2.77c-.12 4.55-3.97 8.11-8.52 7.99-4.55-.12-8.11-3.97-7.99-8.52l.07-2.77c.03-1.18 1.04-2.05 2.13-2.02Zm-23.89 1.55c.03-1.19 1.05-2.15 2.23-2.12l10.78.28 1.48.04c1.19.03 2.15 1.05 2.12 2.23l-.07 2.77c-.12 4.55-3.97 8.11-8.52 7.99-4.55-.12-8.11-3.97-7.99-8.52l-.03-2.67Z"/>
  <path fill="#F69797" d="M1114.54 595.27c.19-7.18 10.75-12.72 23.59-12.38 12.84.34 20.1 5.61 22.45 12.39 2.16 6.22-10.29 13.93-23.13 13.59-12.84-.33-23.1-6.42-22.91-13.6Z"/>
  <path fill="#FA9B9B" d="m1096.6 718.929-12.37 1.31-25.7-2.29c-2.71.25-3.9.76-5.94 2.54l-15.86 14.17c-1.02.93-1.1 2.46-.25 3.48.85 1.02 2.38 1.27 3.48.42l15.01-11.03-9.76 11.54c-1.1 1.27-.59 3.31 1.02 3.9.93.34 1.87.08 2.54-.51l13.06-12.81-9.93 9.76c-1.19 1.19-.76 3.14.76 3.73.76.34 1.61.17 2.21-.25l13.91-10.18-9.42 6.96c-1.1.76-1.1 2.46 0 3.22.59.42 1.36.51 1.95.25l12.64-5.26c1.19-.51 2.63-.51 3.82.08l4.84 2.38c3.9 1.95 8.31 2.97 12.64 2.97h7.89c11.29 0-6.54-24.38-6.54-24.38Z"/>
  <path fill="#000" d="m1171.1 709.04 4.24-.34c1.27-.08 1.95-1.44 1.44-2.54l-4.5-9.08-1.18 11.96Z" opacity=".15"/>
  <path fill="#000" d="m1098.23 719.641 72.87-10.69 4.75-46.15 45.47 2.29-9.25 58.96c-1.78 11.11-11.28 19.26-22.48 19.26h-82.88l-8.48-23.67Z" opacity=".15"/>
  <path fill="#21252B" d="m1088.31 719.64 83.73-7.34 3.92-50.8 45.36 2.99-8.31 62.03c-1.78 11.11-11.28 19.26-22.48 19.26l-93.99-2.39-8.23-23.75Z"/>
  <path fill="#fff" d="M1167.44 740.65c-.19 0-.37-.07-.52-.21l-4.65-4.36c-.31-.29-.32-.77-.03-1.08.29-.31.77-.32 1.08-.03l4.65 4.36c.31.29.32.77.03 1.08-.15.16-.35.24-.56.24Z"/>
  <path fill="#fff" d="M1162.94 740.799c-.19 0-.37-.07-.52-.21-.31-.29-.32-.77-.03-1.08l4.36-4.65c.29-.31.77-.32 1.08-.03.31.29.32.77.03 1.08l-4.36 4.65c-.15.16-.36.24-.56.24Z"/>
  <path fill="#fff" d="M1188.96 672.599c-.2 0-.39-.08-.54-.22l-9.04-9.03c-.19-.19-.27-.47-.2-.74.07-.26.28-.47.54-.54l12.34-3.32c.26-.07.54 0 .74.2.19.19.27.47.2.74l-3.3 12.35c-.07.26-.28.47-.54.54-.07.02-.14.02-.2.02Zm-7.58-9.4 7.18 7.17 1.31-4.9 1.31-4.9-9.8 2.63Z"/>
  <path fill="#fff" d="M1188.37 718.04c-.42 0-.76-.34-.76-.76 0-1.88 1.41-2.64 2.44-3.19.92-.5 1.3-.75 1.3-1.23 0-.42.34-.76.76-.76s.76.34.76.76c0 1.44-1.16 2.07-2.1 2.57-1.01.55-1.64.93-1.64 1.85 0 .42-.34.76-.76.76Z"/>
  <path fill="#fff" d="M1188.37 709.18c-.42 0-.76-.34-.76-.76 0-1.88 1.41-2.64 2.44-3.19.92-.5 1.3-.75 1.3-1.23 0-.42.34-.76.76-.76s.76.34.76.76c0 1.44-1.16 2.07-2.1 2.57-1.05.56-1.64.93-1.64 1.85 0 .42-.34.76-.76.76Z"/>
  <path fill="#fff" d="M1192.1 713.61c-.42 0-.76-.34-.76-.76 0-.49-.38-.74-1.3-1.23-1.03-.56-2.44-1.32-2.44-3.19 0-.42.34-.76.76-.76s.76.34.76.76c0 .92.62 1.31 1.64 1.85.93.5 2.1 1.13 2.1 2.57 0 .42-.34.76-.76.76Z"/>
  <path fill="#fff" d="M1192.1 704.76c-.42 0-.76-.34-.76-.76 0-.49-.38-.74-1.3-1.23-1.03-.55-2.44-1.32-2.44-3.19 0-.42.34-.76.76-.76s.76.34.76.76c0 .92.62 1.31 1.64 1.85.93.5 2.1 1.13 2.1 2.57 0 .41-.34.76-.76.76Z"/>
  <path fill="#fff" d="M1115.3 729.441c-.19 0-.39-.07-.54-.22-.3-.3-.3-.78 0-1.08l7.73-7.73c.3-.3.78-.3 1.08 0 .3.3.3.78 0 1.08l-7.73 7.73c-.15.15-.35.22-.54.22Z"/>
  <path fill="#fff" d="m1195.99 676.209-9.42-9.4 12.85-3.45-3.43 12.85Zm-8.83-9.25 8.67 8.66 3.16-11.84-11.83 3.18Z"/>
  <path fill="#fff" d="M1195.47 721.35h-.3c0-1.52 1.12-2.12 2.12-2.66.87-.47 1.62-.87 1.62-1.77h.3c0 1.08-.9 1.57-1.78 2.04-.96.52-1.96 1.05-1.96 2.39Z"/>
  <path fill="#fff" d="M1195.47 712.491h-.3c0-1.52 1.12-2.12 2.12-2.66.87-.47 1.62-.87 1.62-1.77h.3c0 1.08-.9 1.57-1.78 2.04-.96.52-1.96 1.06-1.96 2.39Z"/>
  <path fill="#fff" d="M1199.2 716.92h-.3c0-.9-.75-1.3-1.62-1.77-.99-.54-2.12-1.14-2.12-2.66h.3c0 1.33.99 1.87 1.96 2.39.88.47 1.78.96 1.78 2.04Z"/>
  <path fill="#fff" d="M1199.2 708.061h-.3c0-.9-.75-1.3-1.62-1.77-.99-.54-2.12-1.14-2.12-2.66h.3c0 1.33.99 1.87 1.96 2.39.88.48 1.78.96 1.78 2.04Z"/>
  <path fill="#fff" d="m1129.86 724.92-7.73 7.73.21.21 7.73-7.73-.21-.21Z"/>
  <path fill="#fff" d="M1211.34 687.141c-.89 0-1.76-.44-2.26-1.25-.78-1.25-.41-2.9.84-3.68 1.25-.78 2.9-.41 3.68.84.38.6.5 1.32.34 2.01-.16.7-.58 1.29-1.18 1.67-.44.28-.93.41-1.42.41Zm-.01-3.82c-.21 0-.42.06-.61.18-.53.34-.7 1.05-.36 1.58.34.54 1.05.7 1.58.36.26-.16.44-.42.51-.72s.02-.61-.15-.87c-.21-.34-.59-.53-.97-.53Z"/>
  <path fill="#000" d="m1096.53 718.619-8.22 1.04 8.14 23.65h10.18l-10.1-24.69Z" opacity=".6"/>
  <path fill="#000" d="m1095.67 742.32 1.36 4.16 93.06-.58c11.2 0 20.78-8.14 22.48-19.26l12.66-87.67c2.29-15.27-7.46-29.77-22.48-33.34l-7.89-1.87c12.05 5.34 19.34 18.15 17.31 31.56l-11.64 81.55c-1.78 11.11-11.28 19.26-22.48 19.26l-82.38 6.19Z" opacity=".15"/>
  <path fill="#000" d="M1086.86 739.151c1.95 0 3.48-1.78 3.31-3.73l-1.87-15.78 8.23 23.67h-1.19c-4.41 0-8.74-1.02-12.64-2.97l-5.77-2.71c1.37.16 4.93 1.52 9.93 1.52Z" opacity=".15"/>
  <path fill="#21252B" d="M1107.82 742.631h-83.64c-.68 0-1.27.59-1.27 1.27v2.12c0 .68.59 1.27 1.27 1.27h83.64c.68 0 1.27-.59 1.27-1.27v-2.12c0-.68-.51-1.27-1.27-1.27Z"/>
  <path fill="#000" d="M1107.82 742.631h-83.64c-.68 0-1.27.59-1.27 1.27v2.12c0 .68.59 1.27 1.27 1.27h83.64c.68 0 1.27-.59 1.27-1.27v-2.12c0-.68-.51-1.27-1.27-1.27Z" opacity=".6"/>
  <path fill="#21252B" d="M1051.41 742.631H905.59c-.68 0-1.27.59-1.27 1.27v2.12c0 .68.59 1.27 1.27 1.27h145.82c.68 0 1.27-.59 1.27-1.27v-2.12c-.09-.68-.6-1.27-1.27-1.27Z"/>
  <path fill="#000" d="M907.45 743.481h148.45c.25 0 .42-.17.42-.42 0-.25-.17-.42-.42-.42H907.45c-.25 0-.42.17-.42.42 0 .25.25.42.42.42Z" opacity=".6"/>
  <path fill="#21252B" d="M1051.74 742.631h-21.97c-1.7 0-3.14-1.19-3.48-2.88l-18.41-96.79c-.42-2.21 1.27-4.16 3.48-4.16h21.97c1.7 0 3.14 1.19 3.48 2.88l18.41 96.79c.34 2.21-1.27 4.16-3.48 4.16Z"/>
  <path fill="#000" d="M1051.74 742.631h-21.97c-1.7 0-3.14-1.19-3.48-2.88l-18.41-96.79c-.42-2.21 1.27-4.16 3.48-4.16h21.97c1.7 0 3.14 1.19 3.48 2.88l18.41 96.79c.34 2.21-1.27 4.16-3.48 4.16Z" opacity=".6"/>
  <path fill="#21252B" d="M1048.61 742.631H907.54c-1.7 0-3.14-1.19-3.48-2.88l-18.41-96.79c-.42-2.21 1.27-4.16 3.48-4.16h140.99c1.7 0 3.14 1.19 3.48 2.88l18.41 96.79c.41 2.21-1.2 4.16-3.4 4.16Z"/>
  <path fill="#000" d="M968.02 688c.85 1.95-.08 3.65-2.04 3.65h-.34c2.29 2.54 5.77 4.33 8.82 4.24 4.16-.08 6.11-3.48 4.24-7.63-1.78-4.16-6.7-7.38-10.86-7.3-2.63.08-4.41 1.44-4.84 3.56 1.97.09 4.17 1.53 5.02 3.48Z" opacity=".6"/>
  <path fill="#FB9C9C" d="m847.57 950.239-9.56 27.22 15.86 14.49 19.68-8.94 10.09-18.88-20.9-23.77-15.17 9.88Z"/>
  <path fill="#158566" d="m846.68 952.781 36.01 14.06 85-158.86h150.88v-60.77H945.18c-10.72 0-20.39 6.5-24.46 16.41l-74.04 189.16Z" class="change-color-in-svg"/>
  <path fill="#fff" d="m846.68 952.781 36.01 14.06 85-158.86h150.88v-60.77H945.18c-10.72 0-20.39 6.5-24.46 16.41l-74.04 189.16Z" opacity=".2"/>
  <path fill="#000" d="M852.2 984.901h20.28l95.2-176.91h150.88v-60.77H975.08c-10.72 0-20.39 6.5-24.46 16.41l-98.42 221.27Z" opacity=".2"/>
  <path fill="#FB9C9C" d="m938.55 950.239-9.74 27.71 16.04 14 18.89-7.59 10.88-20.23-20.9-23.77-15.17 9.88Z"/>
  <path fill="#158566" d="m938.55 950.24 36.07 13.89 83.9-156.15h106.81c12.01 0 21.75-9.74 21.75-21.75V745.9l-151.07 1.31c-10.72 0-20.39 6.5-24.46 16.41l-73 186.62Z" class="change-color-in-svg"/>
  <path fill="#fff" d="m938.55 950.24 36.07 13.89 83.9-156.15h106.81c12.01 0 21.75-9.74 21.75-21.75V745.9l-151.07 1.31c-10.72 0-20.39 6.5-24.46 16.41l-73 186.62Z" opacity=".2"/>
  <path fill="#000" d="M1035.2 795.069c6.09-11.86 12.84-15.36 26.16-15.36h103.92l-3.49-33.67h25.3v39.8c0 12.23-9.91 22.14-22.14 22.14h-106.34l-98.94 183.97-15.81-5.06 91.34-191.82Z" opacity=".2"/>
  <path fill="#000" d="M869.79 979.2c-5.52 2.47-12.01 3.59-19.62-.15 0 0-3.02-9.29-11.45-3.89 0 0-9.73 10.88-24.19 13.81-20.05 4.06-20.95 13.4-20.95 13.4h82.28s-.3-12.67-1.64-20.68c-.33-2.06-2.52-3.35-4.43-2.49Z"/>
  <path fill="#3F4249" d="M814.42 986.211s9.12 4.2 13.33 20.809l-34.15-1.4s-.93-15.199 20.82-19.409Z"/>
  <path fill="#3F4249" d="M793.59 1011.66h82.28v-9.29h-82.28v9.29Z"/>
  <path fill="#fff" d="M829.32 990.021c.12.21.34.33.57.33.11 0 .22-.03.32-.09.31-.18.42-.58.24-.89-1.63-2.84-3.53-3.96-4.82-4.4-.59.31-1.2.61-1.82.9.1.06.21.11.34.11.11 0 2.89.06 5.17 4.04Z"/>
  <path fill="#fff" d="M833.41 987.831c.12.21.34.33.57.33.11 0 .22-.03.32-.09.31-.18.42-.58.24-.89-1.72-3-3.75-4.08-5.04-4.47-.51.33-1.04.65-1.59.98.1.06.2.1.32.1.12.01 2.9.06 5.18 4.04Z"/>
  <path fill="#fff" d="M837.59 985.24c.12.21.34.33.57.33.11 0 .22-.031.32-.091.31-.18.42-.579.24-.889-1.89-3.3-4.16-4.28-5.4-4.57-.42.33-.87.66-1.33 1 .12.1.27.17.43.17.11.01 2.89.07 5.17 4.05Z"/>
  <path fill="#000" d="M825.23 1002.36h-31.64s.03-.19.09-.44c.05-.24.13-.44.13-.44h31.42c.24 0 .44.2.44.44s-.2.44-.44.44Z"/>
  <path fill="#000" d="M959.84 979.2c-5.52 2.47-12.01 3.59-19.62-.15 0 0-3.02-9.29-11.45-3.89 0 0-9.73 10.88-24.19 13.81-20.05 4.06-20.95 13.4-20.95 13.4h82.28s-.3-12.67-1.64-20.68c-.33-2.06-2.52-3.35-4.43-2.49Z"/>
  <path fill="#3F4249" d="M904.47 986.211s9.12 4.2 13.33 20.809l-34.15-1.4c.01 0-.93-15.199 20.82-19.409Z"/>
  <path fill="#3F4249" d="M883.65 1011.66h82.28v-9.29h-82.28v9.29Z"/>
  <path fill="#fff" d="M919.37 990.021c.12.21.34.33.57.33.11 0 .22-.03.32-.09.31-.18.42-.58.24-.89-1.63-2.84-3.53-3.96-4.82-4.4-.59.31-1.2.61-1.82.9.1.06.21.11.34.11.12 0 2.9.06 5.17 4.04Z"/>
  <path fill="#fff" d="M923.46 987.831c.12.21.34.33.57.33.11 0 .22-.03.32-.09.31-.18.42-.58.24-.89-1.72-3-3.75-4.08-5.04-4.47-.51.33-1.04.65-1.59.98.1.06.2.1.32.1.12.01 2.9.06 5.18 4.04Z"/>
  <path fill="#fff" d="M927.64 985.24c.12.21.34.33.57.33.11 0 .22-.031.32-.091.31-.18.42-.579.24-.889-1.89-3.3-4.16-4.28-5.4-4.57-.42.33-.87.66-1.33 1 .12.1.27.17.43.17.11.01 2.89.07 5.17 4.05Z"/>
  <path fill="#000" d="M915.28 1002.36h-31.64s.03-.19.09-.44c.05-.24.13-.44.13-.44h31.42c.24 0 .44.2.44.44s-.2.44-.44.44Z"/>
  <path fill="#fff" d="M1160.58 595.279s.85 3.48-1.87 5.17c-3.05 1.78-14.85 9.67-31.47 4.67 0 0-5.26-1.44-10.26-5.09-1.1-.85-1.95-2.04-2.12-3.48V594.939l-4.67 1.1c0 1.44.42 4.16 2.8 6.53 1.36 1.36 21.46 16.88 47.08 2.54 0 0 5.6-2.21 5-8.74l-4.49-1.09Z"/>
  <path fill="#21252B" d="M1113.3 546.191c1.46-.01 2.64-1.21 2.62-2.68-.01-1.46-1.21-2.64-2.68-2.62-1.46.02-2.63 1.21-2.62 2.68.02 1.46 1.22 2.64 2.68 2.62Z"/>
  <path fill="#fff" d="M1112.06 544.47c.33 0 .61-.28.6-.62 0-.34-.28-.61-.61-.6-.34 0-.61.28-.61.62.01.33.28.6.62.6Z"/>
  <path fill="#21252B" d="M1133.72 547.509c1.46-.01 2.64-1.21 2.62-2.68-.01-1.46-1.21-2.64-2.68-2.62-1.46.02-2.63 1.21-2.62 2.68.02 1.46 1.21 2.63 2.68 2.62Z"/>
  <path fill="#fff" d="M1132.48 545.689c.33 0 .6-.28.6-.62 0-.34-.28-.61-.62-.6-.33 0-.6.28-.6.62 0 .33.28.6.62.6Z"/>
  <path fill="#000" d="m1125.46 551.399 2.13-.29c.41-.02.7-.44.68-.85-.02-.41-.44-.7-.85-.68l-2.13.29c-.91.14-1.66-.54-1.8-1.46-.14-.91.54-1.66 1.46-1.8.41-.02.7-.44.68-.85-.02-.41-.44-.7-.85-.68-1.73.17-2.99 1.76-2.71 3.48.08 1.86 1.66 3.02 3.39 2.84Z" opacity=".3"/>
  <path fill="#000" d="m645.74 472.58-24.62 74.45.51 26.86 24.11-89.27v-12.04Z" opacity=".15"/>
  <path fill="#000" d="m598.08 484.84 40.41 11.01 2.32-6.69-40.91-11.49-1.82 7.17Z" opacity=".6"/>
  <path fill="#000" d="M761.09 613.309s-32.58-28-42.48-73.13c-7.02-32-7.57-45.24-7.98-74.16 0 0 19.09-.05 21.7-19.32.62-4.61-.15-7.44-1.39-10.66 0 0 .59 16.75-12.84 21.73-4.98 1.85-20.88 2.46-20.88 2.46s-16.28 97.14 63.87 153.08Z" opacity=".15"/>
  <path fill="#000" d="M725.55 404.33s-6.25 15.36-22.59 14.7c-21.51-.86-21.88-15.6-21.88-15.6l-5.66.96s2.6 18.97 27.54 19.62c22.93.59 28.19-18.23 28.19-18.23l-5.6-1.45Z" opacity=".6"/>
  <path fill="#158566" d="m1139.4 657.881-3.9 17.65 4.97-3.61 3.71 5.36 1.85-15.31-6.63-4.09Z" class="change-color-in-svg"/>
  <path fill="#158566" d="m1161.36 657.881 3.9 17.65-4.97-3.61-3.71 5.36-1.85-15.31 6.63-4.09Z" class="change-color-in-svg"/>
  <path fill="#158566" d="M1150 665.419c9.22 0 16.69-7.47 16.69-16.69 0-9.22-7.47-16.69-16.69-16.69-9.22 0-16.69 7.47-16.69 16.69 0 9.22 7.47 16.69 16.69 16.69Z" class="change-color-in-svg"/>
  <path fill="#fff" d="M1150 665.419c9.22 0 16.69-7.47 16.69-16.69 0-9.22-7.47-16.69-16.69-16.69-9.22 0-16.69 7.47-16.69 16.69 0 9.22 7.47 16.69 16.69 16.69Z" opacity=".5"/>
  <path fill="#158566" d="M1150 660.751c6.64 0 12.02-5.38 12.02-12.02s-5.38-12.02-12.02-12.02-12.02 5.38-12.02 12.02 5.38 12.02 12.02 12.02Z" class="change-color-in-svg"/>
  <path fill="#fff" d="M1150 660.751c6.64 0 12.02-5.38 12.02-12.02s-5.38-12.02-12.02-12.02-12.02 5.38-12.02 12.02 5.38 12.02 12.02 12.02Z" opacity=".7"/>
  <path fill="#158566" d="m1152.25 646.37 5.02.73-3.63 3.54.86 5-4.49-2.36-4.49 2.36.85-5-3.63-3.54 5.02-.73 2.24-4.55 2.25 4.55Z" class="change-color-in-svg"/>
  <path fill="#ABAFB4" d="M1420.23 1013.27H174.82c-.4 0-.8-.3-.8-.8s.4-.8.8-.8h1245.5c.4 0 .8.3.8.8s-.39.8-.89.8Z"/>
</svg>