<svg class="gridItem__media" xmlns="http://www.w3.org/2000/svg" width="1600" height="1200" style="enable-background:new 0 0 1600 1200" xml:space="preserve" fill="none"><path d="m211.499 1082.19-47-576.191c-.06-.74-.11-1.47-.14-2.2-.82-17.81 7-34.93 20.37-46.68l295.71-281.73c15.87-13.92 31.66-28 46.64-42.83a60.787 60.787 0 0 1 54.67-16.65l576.161 66.74a61.835 61.835 0 0 1 29.9 10.855 61.788 61.788 0 0 1 20.54 24.285c8.06 17 16.05 34.11 24.76 50.83l195.62 338.25a56.658 56.658 0 0 1 5.18 39.21c-.16.65-.32 1.31-.5 2l-107.94 435.581-1113.971-1.47Z" fill="#F4F4F4"/><path d="M1038.4 959.001c24.06-4.91 24.26-96.19 24.44-176.72.11-51.4.22-99.94 7-113 12.65-24.57 37.77-24.26 38-24.26l.05-1.7c-.26 0-26.43-.37-39.59 25.17-6.93 13.47-7 60-7.16 113.82-.16 75.93-.37 170.42-23.08 175.06l.34 1.63Z" fill="#61656D"/><path d="M1036.53 946.431c14.9 0 24.49-20.61 29.34-63 4.17-36.42 4.33-83.63 4.46-125.28.15-45.51.28-84.82 5.39-99.11 9.24-25.88 31.32-22.91 32.25-22.77l.25-1.69c-.24 0-24.39-3.34-34.11 23.88-5.2 14.57-5.33 54-5.48 99.69-.28 83.13-.62 186.58-32.1 186.58v1.7Z" fill="#61656D"/><path d="M1039.11 967.73c27.85-5.42 27.47-109.34 27.16-192.83-.17-45.8-.32-85.35 4.3-97 10.16-25.63 37.65-23.24 37.93-23.21l.16-1.7c-.28 0-29.05-2.54-39.68 24.28-4.74 12-4.59 51.67-4.42 97.64.29 78.5.69 186-25.77 191.16l.32 1.66Z" fill="#61656D"/><path d="M1039.11 963.371c27.89-5.37 27.47-109.37 27.16-192.84-.17-45.79-.32-85.35 4.3-97 10.16-25.64 37.65-23.24 37.93-23.21l.16-1.7c-.28 0-29.05-2.54-39.68 24.28-4.74 12-4.59 51.67-4.42 97.64.29 78.5.69 186-25.77 191.16l.32 1.67Z" fill="#61656D"/><path d="M1038.4 1053.75c24.07-4.91 24.27-81.999 24.44-149.999.12-44 .22-85.49 7-98.59 12.67-24.6 37.78-24.25 38-24.25l.05-1.71c-.26 0-26.43-.36-39.59 25.18-6.93 13.47-7 53.27-7.16 99.37-.17 67.34-.37 143.679-23.08 148.309l.34 1.69Z" fill="#61656D"/><path d="M1036.53 1041.17c33.19 0 33.52-84.369 33.8-158.799.16-39.24.29-73.12 5.39-87.41 9.24-25.87 31.32-22.9 32.25-22.76l.25-1.69c-.24 0-24.39-3.35-34.11 23.88-5.2 14.56-5.33 48.58-5.48 88-.27 70-.61 157.099-32.1 157.099v1.68Z" fill="#61656D"/><path d="M1036.53 1046.62c33.19 0 33.52-84.369 33.8-158.799.16-39.24.29-73.12 5.39-87.41 9.24-25.87 31.32-22.9 32.25-22.76l.25-1.69c-.24 0-24.39-3.35-34.11 23.88-5.2 14.56-5.33 48.58-5.48 88-.27 70-.61 157.109-32.1 157.109v1.67Z" fill="#61656D"/><path d="M1036.53 1055.53c33.19 0 33.52-84.369 33.8-158.809.16-39.23.29-73.11 5.39-87.4 9.24-25.88 31.32-22.9 32.25-22.77l.25-1.68c-.24 0-24.39-3.35-34.11 23.87-5.2 14.57-5.33 48.59-5.48 88-.27 70-.61 157.099-32.1 157.099v1.69Z" fill="#61656D"/><path d="M1039.11 1062.48c27.84-5.42 27.46-93.16 27.16-163.66-.17-39.35-.32-73.33 4.3-85 10.16-25.64 37.65-23.24 37.93-23.21l.16-1.7c-.29 0-29.05-2.54-39.68 24.28-4.74 12-4.59 46.1-4.42 85.63.3 69.87.68 156.82-25.77 162l.32 1.66Z" fill="#61656D"/><path d="M1354.17 497.57h-67.22v518.31h67.22V497.57Z" class="change-color-in-svg" fill="#4D61FC" style="fill:#158566"/><path opacity=".15" d="M1354.17 497.57h-67.22v518.31h67.22V497.57Z" fill="#000"/><path d="M1287.41 497.609h-187.6v518.301h187.6V497.609Z" class="change-color-in-svg" fill="#4D61FC" style="fill:#158566"/><path opacity=".3" d="M1287.41 497.609h-187.6v518.301h187.6V497.609Z" fill="#fff"/><path d="M1274.69 572.439h-162.15v410.69h162.15v-410.69Z" class="change-color-in-svg" fill="#4D61FC" style="fill:#158566"/><path opacity=".2" d="M1274.69 572.439h-162.15v410.69h162.15v-410.69Z" fill="#000"/><path d="M1269.47 636.52h-151.72v49.959h151.72V636.52ZM1269.47 694.67h-151.72v49.96h151.72v-49.96ZM1269.47 752.811h-151.72v49.96h151.72v-49.96ZM1269.47 810.949h-151.72v49.96h151.72v-49.96ZM1269.47 869.09h-151.72v49.96h151.72v-49.96ZM1269.47 927.23h-151.72v49.96h151.72v-49.96ZM1269.47 578.381h-151.72v49.96h151.72v-49.96Z" class="change-color-in-svg" fill="#4D61FC" style="fill:#158566"/><g opacity=".3" fill="#fff"><path opacity=".3" d="M1269.47 636.521h-151.72v49.96h151.72v-49.96ZM1269.47 694.67h-151.72v49.96h151.72v-49.96ZM1269.47 752.811h-151.72v49.96h151.72v-49.96ZM1269.47 810.951h-151.72v49.96h151.72v-49.96ZM1269.47 869.092h-151.72v49.96h151.72v-49.96ZM1269.47 927.23h-151.72v49.96h151.72v-49.96ZM1269.47 578.381h-151.72v49.96h151.72v-49.96Z"/></g><path d="M1255.09 591.35h-125.06v24.83h125.06v-24.83Z" class="change-color-in-svg" fill="#4D61FC" style="fill:#158566"/><path opacity=".2" d="M1255.09 591.35h-125.06v24.83h125.06v-24.83Z" fill="#000"/><path d="M1224.78 598.15h-89.68v11.39h89.68v-11.39Z" class="change-color-in-svg" fill="#4D61FC" style="fill:#158566"/><path opacity=".2" d="M1230.98 606.871c1.59 0 2.88-1.357 2.88-3.03 0-1.674-1.29-3.03-2.88-3.03-1.59 0-2.88 1.356-2.88 3.03 0 1.673 1.29 3.03 2.88 3.03Z" fill="#000"/><path d="M1239.29 606.871c1.59 0 2.88-1.357 2.88-3.03 0-1.674-1.29-3.03-2.88-3.03-1.59 0-2.88 1.356-2.88 3.03 0 1.673 1.29 3.03 2.88 3.03Z" class="change-color-in-svg" fill="#4D61FC" style="fill:#158566"/><path d="M1247.61 606.871c1.59 0 2.88-1.357 2.88-3.03 0-1.674-1.29-3.03-2.88-3.03-1.59 0-2.88 1.356-2.88 3.03 0 1.673 1.29 3.03 2.88 3.03Z" fill="#B2B6BB"/><path d="M1255.09 650.15h-125.06v24.83h125.06v-24.83Z" class="change-color-in-svg" fill="#4D61FC" style="fill:#158566"/><path opacity=".2" d="M1255.09 650.15h-125.06v24.83h125.06v-24.83Z" fill="#000"/><path d="M1224.78 656.939h-89.68v11.39h89.68v-11.39ZM1255.09 708.939h-125.06v24.83h125.06v-24.83Z" class="change-color-in-svg" fill="#4D61FC" style="fill:#158566"/><path opacity=".2" d="M1255.09 708.939h-125.06v24.83h125.06v-24.83Z" fill="#000"/><path d="M1224.78 715.73h-89.68v11.39h89.68v-11.39ZM1255.09 767.73h-125.06v24.83h125.06v-24.83Z" class="change-color-in-svg" fill="#4D61FC" style="fill:#158566"/><path opacity=".2" d="M1255.09 767.73h-125.06v24.83h125.06v-24.83Z" fill="#000"/><path d="M1224.78 774.529h-89.68v11.39h89.68v-11.39ZM1255.09 824.98h-125.06v24.83h125.06v-24.83Z" class="change-color-in-svg" fill="#4D61FC" style="fill:#158566"/><path opacity=".2" d="M1255.09 824.98h-125.06v24.83h125.06v-24.83Z" fill="#000"/><path d="M1224.78 831.779h-89.68v11.39h89.68v-11.39Z" class="change-color-in-svg" fill="#4D61FC" style="fill:#158566"/><path opacity=".2" d="M1230.98 840.73c1.59 0 2.88-1.357 2.88-3.03 0-1.673-1.29-3.03-2.88-3.03-1.59 0-2.88 1.357-2.88 3.03 0 1.673 1.29 3.03 2.88 3.03Z" fill="#000"/><path d="M1239.29 840.73c1.59 0 2.88-1.357 2.88-3.03 0-1.673-1.29-3.03-2.88-3.03-1.59 0-2.88 1.357-2.88 3.03 0 1.673 1.29 3.03 2.88 3.03Z" class="change-color-in-svg" fill="#4D61FC" style="fill:#158566"/><path d="M1247.61 840.73c1.59 0 2.88-1.357 2.88-3.03 0-1.673-1.29-3.03-2.88-3.03-1.59 0-2.88 1.357-2.88 3.03 0 1.673 1.29 3.03 2.88 3.03Z" fill="#B2B6BB"/><path d="M1255.09 884h-125.06v24.83h125.06V884Z" class="change-color-in-svg" fill="#4D61FC" style="fill:#158566"/><path opacity=".2" d="M1255.09 884h-125.06v24.83h125.06V884Z" fill="#000"/><path d="M1224.78 890.789h-89.68v11.39h89.68v-11.39ZM1255.09 941.689h-125.06v24.83h125.06v-24.83Z" class="change-color-in-svg" fill="#4D61FC" style="fill:#158566"/><path opacity=".2" d="M1255.09 941.689h-125.06v24.83h125.06v-24.83Z" fill="#000"/><path d="M1224.78 948.48h-89.68v11.39h89.68v-11.39Z" class="change-color-in-svg" fill="#4D61FC" style="fill:#158566"/><path opacity=".3" d="M1224.78 598.15h-89.68v11.39h89.68v-11.39Z" fill="#fff"/><g opacity=".3"><path opacity=".3" d="M1224.78 656.939h-89.68v11.39h89.68v-11.39Z" fill="#fff"/></g><g opacity=".3"><path opacity=".3" d="M1224.78 715.73h-89.68v11.39h89.68v-11.39Z" fill="#fff"/></g><g opacity=".3"><path opacity=".3" d="M1224.78 774.529h-89.68v11.39h89.68v-11.39Z" fill="#fff"/></g><g opacity=".3"><path opacity=".3" d="M1224.78 831.779h-89.68v11.39h89.68v-11.39Z" fill="#fff"/></g><g opacity=".3"><path opacity=".3" d="M1224.78 890.789h-89.68v11.39h89.68v-11.39Z" fill="#fff"/></g><g opacity=".3"><path opacity=".3" d="M1224.78 948.48h-89.68v11.39h89.68v-11.39Z" fill="#fff"/></g><path opacity=".2" d="M1233.85 954.52a2.856 2.856 0 0 1-.54 1.567c-.33.457-.79.808-1.32 1.007-.53.2-1.1.239-1.65.114a2.874 2.874 0 0 1-2.2-2.295c-.1-.556-.04-1.129.19-1.648a2.86 2.86 0 0 1 2.65-1.745c.77.033 1.5.364 2.04.923.53.559.83 1.303.83 2.077Z" fill="#000"/><path d="M1242.17 954.52a2.856 2.856 0 0 1-.54 1.566c-.33.457-.79.808-1.32 1.007a2.864 2.864 0 0 1-3.09-.699 2.88 2.88 0 0 1-.58-3.123 2.94 2.94 0 0 1 1.06-1.273 2.915 2.915 0 0 1 1.59-.478c.78.031 1.51.36 2.05.92.53.559.83 1.304.83 2.08Z" class="change-color-in-svg" fill="#4D61FC" style="fill:#158566"/><path d="M1247.61 957.55c1.59 0 2.88-1.356 2.88-3.03 0-1.673-1.29-3.03-2.88-3.03-1.59 0-2.88 1.357-2.88 3.03 0 1.674 1.29 3.03 2.88 3.03Z" fill="#B2B6BB"/><path opacity=".2" d="M1233.85 663.109a2.871 2.871 0 0 1-1.86 2.575 2.87 2.87 0 0 1-1.65.114 2.861 2.861 0 0 1-2.2-2.296c-.1-.555-.04-1.128.19-1.648a2.863 2.863 0 0 1 2.65-1.745c.77.034 1.5.365 2.04.924.53.559.83 1.303.83 2.076Z" fill="#000"/><path d="M1242.17 663.109a2.85 2.85 0 0 1-.54 1.566c-.33.458-.79.808-1.32 1.008a2.864 2.864 0 0 1-3.09-.699 2.88 2.88 0 0 1-.58-3.123 2.94 2.94 0 0 1 1.06-1.273 2.925 2.925 0 0 1 1.59-.479 3.01 3.01 0 0 1 2.05.92c.53.56.83 1.305.83 2.08Z" class="change-color-in-svg" fill="#4D61FC" style="fill:#158566"/><path d="M1247.61 666.14c1.59 0 2.88-1.357 2.88-3.03 0-1.673-1.29-3.03-2.88-3.03-1.59 0-2.88 1.357-2.88 3.03 0 1.673 1.29 3.03 2.88 3.03Z" fill="#B2B6BB"/><path opacity=".2" d="M1233.85 721.279c-.02.565-.21 1.11-.54 1.567a2.878 2.878 0 0 1-2.97 1.122 2.861 2.861 0 0 1-2.2-2.296c-.1-.555-.04-1.129.19-1.648a2.863 2.863 0 0 1 2.65-1.745c.77.034 1.5.365 2.04.924.53.559.83 1.303.83 2.076Z" fill="#000"/><path d="M1242.17 721.279a2.85 2.85 0 0 1-.54 1.566c-.33.458-.79.808-1.32 1.008a2.864 2.864 0 0 1-3.09-.699 2.879 2.879 0 0 1-.58-3.123 2.94 2.94 0 0 1 1.06-1.273 2.925 2.925 0 0 1 1.59-.479 3.01 3.01 0 0 1 2.05.92c.53.56.83 1.305.83 2.08Z" class="change-color-in-svg" fill="#4D61FC" style="fill:#158566"/><path d="M1247.61 724.31c1.59 0 2.88-1.357 2.88-3.03 0-1.673-1.29-3.03-2.88-3.03-1.59 0-2.88 1.357-2.88 3.03 0 1.673 1.29 3.03 2.88 3.03Z" fill="#B2B6BB"/><path opacity=".2" d="M1233.85 780.4a2.871 2.871 0 0 1-1.86 2.575 2.87 2.87 0 0 1-1.65.114 2.861 2.861 0 0 1-2.2-2.296c-.1-.555-.04-1.128.19-1.648a2.863 2.863 0 0 1 2.65-1.745c.77.034 1.5.365 2.04.924.53.559.83 1.303.83 2.076Z" fill="#000"/><path d="M1242.17 780.4a2.85 2.85 0 0 1-.54 1.566c-.33.458-.79.808-1.32 1.008a2.864 2.864 0 0 1-3.09-.699 2.88 2.88 0 0 1-.58-3.123 2.94 2.94 0 0 1 1.06-1.273 2.925 2.925 0 0 1 1.59-.479 3.01 3.01 0 0 1 2.05.92c.53.56.83 1.305.83 2.08Z" class="change-color-in-svg" fill="#4D61FC" style="fill:#158566"/><path d="M1247.61 783.429c1.59 0 2.88-1.356 2.88-3.03 0-1.673-1.29-3.03-2.88-3.03-1.59 0-2.88 1.357-2.88 3.03 0 1.674 1.29 3.03 2.88 3.03Z" fill="#B2B6BB"/><path opacity=".2" d="M1233.85 896.77a2.856 2.856 0 0 1-.54 1.567c-.33.457-.79.808-1.32 1.007-.53.2-1.1.239-1.65.114a2.874 2.874 0 0 1-2.2-2.295c-.1-.556-.04-1.129.19-1.648a2.86 2.86 0 0 1 2.65-1.745 2.957 2.957 0 0 1 2.87 3Z" fill="#000"/><path d="M1242.17 896.77a2.856 2.856 0 0 1-.54 1.566c-.33.457-.79.808-1.32 1.007a2.864 2.864 0 0 1-3.09-.699 2.88 2.88 0 0 1-.58-3.123 2.94 2.94 0 0 1 1.06-1.273 2.915 2.915 0 0 1 1.59-.478c.78.031 1.51.36 2.05.92.53.559.83 1.304.83 2.08Z" class="change-color-in-svg" fill="#4D61FC" style="fill:#158566"/><path d="M1247.61 899.8c1.59 0 2.88-1.356 2.88-3.03 0-1.673-1.29-3.03-2.88-3.03-1.59 0-2.88 1.357-2.88 3.03 0 1.674 1.29 3.03 2.88 3.03Z" fill="#B2B6BB"/><path d="M1186.75 516.08h-68.94l-5.34-5.16h74.28v5.16ZM1186.75 523.871h-68.94l-5.34-5.16h74.28v5.16ZM1186.75 531.66h-68.94l-5.34-5.16h74.28v5.16ZM1186.75 539.439h-68.94l-5.34-5.15h74.28v5.15ZM1186.75 547.23h-68.94l-5.34-5.16h74.28v5.16ZM1186.75 555.019h-68.94l-5.34-5.16h74.28v5.16ZM1273.58 516.08h-68.94l-5.34-5.16h74.28v5.16ZM1273.58 523.871h-68.94l-5.34-5.16h74.28v5.16ZM1273.58 531.66h-68.94l-5.34-5.16h74.28v5.16ZM1273.58 539.439h-68.94l-5.34-5.15h74.28v5.15ZM1273.58 547.23h-68.94l-5.34-5.16h74.28v5.16ZM1273.58 555.019h-68.94l-5.34-5.16h74.28v5.16Z" class="change-color-in-svg" fill="#4D61FC" style="fill:#158566"/><g opacity=".3" fill="#000"><path opacity=".3" d="M1186.75 516.08h-68.94l-5.34-5.16h74.28v5.16ZM1186.75 523.869h-68.94l-5.34-5.16h74.28v5.16ZM1186.75 531.66h-68.94l-5.34-5.16h74.28v5.16ZM1186.75 539.439h-68.94l-5.34-5.15h74.28v5.15ZM1186.75 547.23h-68.94l-5.34-5.16h74.28v5.16ZM1186.75 555.019h-68.94l-5.34-5.16h74.28v5.16Z"/></g><g opacity=".3" fill="#000"><path opacity=".3" d="M1273.58 516.08h-68.94l-5.34-5.16h74.28v5.16ZM1273.58 523.869h-68.94l-5.34-5.16h74.28v5.16ZM1273.58 531.66h-68.94l-5.34-5.16h74.28v5.16ZM1273.58 539.439h-68.94l-5.34-5.15h74.28v5.15ZM1273.58 547.23h-68.94l-5.34-5.16h74.28v5.16ZM1273.58 555.019h-68.94l-5.34-5.16h74.28v5.16Z"/></g><path d="M1344.29 583.599h-47.45v-31.66h47.45v31.66Zm-46.93-.52h46.4v-30.61h-46.4v30.61ZM1344.29 627.49h-47.45v-31.66h47.45v31.66Zm-46.93-.52h46.4v-30.61h-46.4v30.61ZM1344.29 673.63h-47.45V642h47.45v31.63Zm-46.93-.53h46.4v-30.61h-46.4v30.61ZM1344.29 717.519h-47.45v-31.66h47.45v31.66Zm-46.93-.53h46.4v-30.61h-46.4v30.61ZM1344.29 961.499h-47.45v-227.14h47.45v227.14Zm-46.93-.53h46.4v-226.09h-46.4v226.09Z" class="change-color-in-svg" fill="#4D61FC" style="fill:#158566"/><path d="M1139.2 1016h221.14c.08 0 .16.03.22.09s.09.14.09.22v65.38c0 .08-.03.17-.09.23s-.14.09-.23.09H1139.2a.31.31 0 0 1-.22-.09.31.31 0 0 1-.09-.22v-65.38c0-.08.03-.16.09-.22s.14-.1.22-.1Z" fill="#61656D"/><g opacity=".2"><path opacity=".2" d="M1139.2 1016h221.14c.08 0 .16.03.22.09s.09.14.09.22v65.38c0 .08-.03.17-.09.23s-.14.09-.23.09H1139.2a.31.31 0 0 1-.22-.09.31.31 0 0 1-.09-.22v-65.38c0-.08.03-.16.09-.22s.14-.1.22-.1Z" fill="#000"/></g><path d="M1297.46 1016h-206.65c-.04 0-.08.01-.12.03-.03.01-.07.04-.09.07-.03.03-.05.06-.06.1-.02.04-.02.08-.02.12v65.37c0 .04.01.08.02.12.01.04.04.07.06.1.03.03.07.06.1.07.04.02.08.03.12.03h206.65c.04 0 .08-.01.11-.03.04-.01.07-.04.1-.06.03-.03.05-.07.06-.1.02-.04.02-.08.02-.12v-65.38c0-.04-.01-.08-.02-.12-.01-.04-.04-.07-.06-.1-.03-.03-.06-.06-.1-.07a.266.266 0 0 0-.12-.03Z" fill="#61656D"/><path d="M1159.24 1024.17h-61.72v8.63h61.72v-8.63Z" fill="#DADDDF"/><path d="M536.237 960.001c-24.07-4.91-24.27-96.19-24.44-176.73-.12-51.39-.22-99.93-7-113-12.66-24.57-37.78-24.25-38-24.25v-1.71c.26 0 26.43-.37 39.58 25.18 6.94 13.47 7 60 7.16 113.82.17 75.93.38 170.42 23.08 175l-.38 1.69Z" fill="#61656D"/><path d="M538.1 947.391c-14.89 0-24.49-20.61-29.34-63-4.16-36.42-4.32-83.63-4.46-125.28-.15-45.51-.28-84.82-5.38-99.12-9.24-25.87-31.32-22.9-32.25-22.76l-.26-1.69c.25 0 24.39-3.35 34.12 23.88 5.2 14.57 5.33 54 5.48 99.69.27 83.12.61 186.58 32.09 186.58v1.7Z" fill="#61656D"/><path d="M535.52 968.7c-27.84-5.42-27.46-109.34-27.15-192.84.17-45.79.32-85.35-4.3-97-10.16-25.64-37.65-23.24-37.93-23.21L466 654c.29 0 29-2.54 39.68 24.28 4.74 12 4.6 51.67 4.43 97.64-.29 78.5-.69 186 25.77 191.16l-.36 1.62Z" fill="#61656D"/><path d="M535.519 964.342c-27.84-5.42-27.46-109.34-27.15-192.84.17-45.8.32-85.35-4.3-97-10.16-25.64-37.65-23.24-37.93-23.21l-.17-1.7c.29 0 29-2.54 39.68 24.28 4.74 12 4.6 51.66 4.43 97.64-.29 78.5-.69 186 25.77 191.15l-.33 1.68Z" fill="#61656D"/><path d="M536.237 1054.72c-24.07-4.91-24.27-82-24.44-150-.12-44-.23-85.49-7-98.59-12.68-24.61-37.78-24.25-38-24.25v-1.71c.26 0 26.43-.37 39.58 25.18 6.94 13.46 7 53.27 7.16 99.37.18 67.34.37 143.67 23.08 148.31l-.38 1.69Z" fill="#61656D"/><path d="M538.1 1042.14c-33.18 0-33.51-84.37-33.8-158.81-.15-39.23-.28-73.11-5.38-87.4-9.24-25.88-31.32-22.9-32.25-22.77l-.26-1.68c.24 0 24.39-3.35 34.12 23.88 5.2 14.56 5.33 48.58 5.48 88 .27 70 .61 157.1 32.09 157.1v1.68Z" fill="#61656D"/><path d="M538.1 1047.59c-33.18 0-33.51-84.369-33.8-158.799-.15-39.24-.28-73.12-5.38-87.41-9.24-25.87-31.32-22.9-32.25-22.76l-.26-1.69c.24 0 24.39-3.35 34.12 23.88 5.2 14.56 5.33 48.58 5.48 88 .27 70 .61 157.099 32.09 157.099v1.68Z" fill="#61656D"/><path d="M538.1 1056.49c-33.18 0-33.51-84.36-33.8-158.8-.15-39.23-.28-73.12-5.38-87.4-9.24-25.88-31.32-22.91-32.25-22.77l-.26-1.69c.25 0 24.39-3.35 34.12 23.88 5.2 14.56 5.33 48.58 5.48 88 .27 70 .61 157.11 32.09 157.11v1.67Z" fill="#61656D"/><path d="M535.519 1063.45c-27.84-5.43-27.46-93.159-27.15-163.659.17-39.35.32-73.33-4.3-85-10.16-25.64-37.65-23.24-37.93-23.22l-.17-1.69c.29 0 29-2.54 39.68 24.28 4.75 12 4.6 46.1 4.43 85.62-.31 69.87-.69 156.829 25.77 161.999l-.33 1.67Z" fill="#61656D"/><path d="M473.611 498.539h-67.22v518.311h67.22V498.539Z" class="change-color-in-svg" fill="#4D61FC" style="fill:#158566"/><path opacity=".15" d="M473.611 498.539h-67.22v518.311h67.22V498.539Z" fill="#000"/><path d="M406.85 498.57h-187.6v518.3h187.6v-518.3Z" class="change-color-in-svg" fill="#4D61FC" style="fill:#158566"/><path opacity=".3" d="M406.85 498.57h-187.6v518.3h187.6v-518.3Z" fill="#fff"/><path d="M394.13 573.41H231.98V984.1h162.15V573.41Z" class="change-color-in-svg" fill="#4D61FC" style="fill:#158566"/><path opacity=".2" d="M394.13 573.41H231.98V984.1h162.15V573.41Z" fill="#000"/><path d="M388.911 637.49h-151.72v49.96h151.72v-49.96ZM388.911 695.631h-151.72v49.96h151.72v-49.96ZM388.911 753.77h-151.72v49.959h151.72V753.77ZM388.911 811.92h-151.72v49.96h151.72v-49.96ZM388.911 870.061h-151.72v49.96h151.72v-49.96ZM388.911 928.199h-151.72v49.96h151.72v-49.96ZM388.911 579.35h-151.72v49.96h151.72v-49.96Z" class="change-color-in-svg" fill="#4D61FC" style="fill:#158566"/><g opacity=".3" fill="#fff"><path opacity=".3" d="M388.911 637.49h-151.72v49.96h151.72v-49.96ZM388.911 695.629h-151.72v49.96h151.72v-49.96ZM388.911 753.77h-151.72v49.959h151.72V753.77ZM388.911 811.92h-151.72v49.96h151.72v-49.96ZM388.911 870.061h-151.72v49.96h151.72v-49.96ZM388.911 928.199h-151.72v49.96h151.72v-49.96ZM388.911 579.35h-151.72v49.96h151.72v-49.96Z"/></g><path d="M374.529 592.32h-125.06v24.83h125.06v-24.83Z" class="change-color-in-svg" fill="#4D61FC" style="fill:#158566"/><path opacity=".2" d="M374.529 592.32h-125.06v24.83h125.06v-24.83Z" fill="#000"/><path d="M344.219 599.109h-89.68v11.39h89.68v-11.39Z" class="change-color-in-svg" fill="#4D61FC" style="fill:#158566"/><path opacity=".2" d="M350.419 607.839c1.591 0 2.88-1.356 2.88-3.03 0-1.673-1.289-3.03-2.88-3.03s-2.88 1.357-2.88 3.03c0 1.674 1.289 3.03 2.88 3.03Z" fill="#000"/><path d="M358.732 607.839c1.59 0 2.88-1.356 2.88-3.03 0-1.673-1.29-3.03-2.88-3.03-1.591 0-2.88 1.357-2.88 3.03 0 1.674 1.289 3.03 2.88 3.03Z" class="change-color-in-svg" fill="#4D61FC" style="fill:#158566"/><path d="M367.052 607.839c1.59 0 2.88-1.356 2.88-3.03 0-1.673-1.29-3.03-2.88-3.03-1.591 0-2.88 1.357-2.88 3.03 0 1.674 1.289 3.03 2.88 3.03Z" fill="#B2B6BB"/><path d="M374.529 651.109h-125.06v24.83h125.06v-24.83Z" class="change-color-in-svg" fill="#4D61FC" style="fill:#158566"/><path opacity=".2" d="M374.529 651.109h-125.06v24.83h125.06v-24.83Z" fill="#000"/><path d="M344.219 657.91h-89.68v11.39h89.68v-11.39ZM374.529 709.91h-125.06v24.83h125.06v-24.83Z" class="change-color-in-svg" fill="#4D61FC" style="fill:#158566"/><path opacity=".2" d="M374.529 709.91h-125.06v24.83h125.06v-24.83Z" fill="#000"/><path d="M344.219 716.699h-89.68v11.39h89.68v-11.39ZM374.529 768.699h-125.06v24.83h125.06v-24.83Z" class="change-color-in-svg" fill="#4D61FC" style="fill:#158566"/><path opacity=".2" d="M374.529 768.699h-125.06v24.83h125.06v-24.83Z" fill="#000"/><path d="M344.219 775.49h-89.68v11.39h89.68v-11.39ZM374.529 825.949h-125.06v24.83h125.06v-24.83Z" class="change-color-in-svg" fill="#4D61FC" style="fill:#158566"/><path opacity=".2" d="M374.529 825.949h-125.06v24.83h125.06v-24.83Z" fill="#000"/><path d="M344.219 832.74h-89.68v11.39h89.68v-11.39Z" class="change-color-in-svg" fill="#4D61FC" style="fill:#158566"/><path opacity=".2" d="M350.419 841.701c1.591 0 2.88-1.357 2.88-3.03 0-1.674-1.289-3.03-2.88-3.03s-2.88 1.356-2.88 3.03c0 1.673 1.289 3.03 2.88 3.03Z" fill="#000"/><path d="M358.732 841.701c1.59 0 2.88-1.357 2.88-3.03 0-1.674-1.29-3.03-2.88-3.03-1.591 0-2.88 1.356-2.88 3.03 0 1.673 1.289 3.03 2.88 3.03Z" class="change-color-in-svg" fill="#4D61FC" style="fill:#158566"/><path d="M367.052 841.701c1.59 0 2.88-1.357 2.88-3.03 0-1.674-1.29-3.03-2.88-3.03-1.591 0-2.88 1.356-2.88 3.03 0 1.673 1.289 3.03 2.88 3.03Z" fill="#B2B6BB"/><path d="M374.529 884.961h-125.06v24.83h125.06v-24.83Z" class="change-color-in-svg" fill="#4D61FC" style="fill:#158566"/><path opacity=".2" d="M374.529 884.961h-125.06v24.83h125.06v-24.83Z" fill="#000"/><path d="M344.219 891.76h-89.68v11.39h89.68v-11.39ZM374.529 942.66h-125.06v24.83h125.06v-24.83Z" class="change-color-in-svg" fill="#4D61FC" style="fill:#158566"/><path opacity=".2" d="M374.529 942.66h-125.06v24.83h125.06v-24.83Z" fill="#000"/><path d="M344.219 949.449h-89.68v11.39h89.68v-11.39Z" class="change-color-in-svg" fill="#4D61FC" style="fill:#158566"/><path opacity=".3" d="M344.219 599.109h-89.68v11.39h89.68v-11.39Z" fill="#fff"/><g opacity=".3"><path opacity=".3" d="M344.219 657.91h-89.68v11.39h89.68v-11.39Z" fill="#fff"/></g><g opacity=".3"><path opacity=".3" d="M344.219 716.699h-89.68v11.39h89.68v-11.39Z" fill="#fff"/></g><g opacity=".3"><path opacity=".3" d="M344.219 775.49h-89.68v11.39h89.68v-11.39Z" fill="#fff"/></g><g opacity=".3"><path opacity=".3" d="M344.219 832.74h-89.68v11.39h89.68v-11.39Z" fill="#fff"/></g><g opacity=".3"><path opacity=".3" d="M344.219 891.76h-89.68v11.39h89.68v-11.39Z" fill="#fff"/></g><g opacity=".3"><path opacity=".3" d="M344.219 949.449h-89.68v11.39h89.68v-11.39Z" fill="#fff"/></g><path opacity=".2" d="M353.289 955.49a2.88 2.88 0 1 1-2.87-3 3.004 3.004 0 0 1 2.87 3Z" fill="#000"/><path d="M361.609 955.49a2.88 2.88 0 1 1-2.88-3 3 3 0 0 1 2.88 3Z" class="change-color-in-svg" fill="#4D61FC" style="fill:#158566"/><path d="M367.052 958.521c1.59 0 2.88-1.357 2.88-3.03 0-1.674-1.29-3.03-2.88-3.03-1.591 0-2.88 1.356-2.88 3.03 0 1.673 1.289 3.03 2.88 3.03Z" fill="#B2B6BB"/><path opacity=".2" d="M353.289 664.08a2.885 2.885 0 0 1-1.861 2.575 2.886 2.886 0 0 1-3.098-.704 2.886 2.886 0 0 1-.566-3.126 2.88 2.88 0 0 1 2.655-1.745 3.003 3.003 0 0 1 2.87 3Z" fill="#000"/><path d="M361.609 664.08a2.88 2.88 0 1 1-2.88-3 3 3 0 0 1 2.88 3Z" class="change-color-in-svg" fill="#4D61FC" style="fill:#158566"/><path d="M367.052 667.111c1.59 0 2.88-1.357 2.88-3.03 0-1.674-1.29-3.03-2.88-3.03-1.591 0-2.88 1.356-2.88 3.03 0 1.673 1.289 3.03 2.88 3.03Z" fill="#B2B6BB"/><path opacity=".2" d="M353.289 722.24a2.88 2.88 0 1 1-2.87-3 2.95 2.95 0 0 1 2.87 3Z" fill="#000"/><path d="M361.609 722.24a2.88 2.88 0 1 1-2.88-3 3 3 0 0 1 2.88 3Z" class="change-color-in-svg" fill="#4D61FC" style="fill:#158566"/><path d="M367.052 725.271c1.59 0 2.88-1.357 2.88-3.03 0-1.674-1.29-3.03-2.88-3.03-1.591 0-2.88 1.356-2.88 3.03 0 1.673 1.289 3.03 2.88 3.03Z" fill="#B2B6BB"/><path opacity=".2" d="M353.289 781.369a2.885 2.885 0 0 1-1.861 2.575 2.886 2.886 0 0 1-3.098-.704 2.886 2.886 0 0 1-.566-3.126 2.88 2.88 0 0 1 2.655-1.745 3.003 3.003 0 0 1 2.87 3Z" fill="#000"/><path d="M361.609 781.369a2.88 2.88 0 1 1-2.88-3 3 3 0 0 1 2.88 3Z" class="change-color-in-svg" fill="#4D61FC" style="fill:#158566"/><path d="M367.052 784.4c1.59 0 2.88-1.357 2.88-3.03 0-1.674-1.29-3.03-2.88-3.03-1.591 0-2.88 1.356-2.88 3.03 0 1.673 1.289 3.03 2.88 3.03Z" fill="#B2B6BB"/><path opacity=".2" d="M353.289 897.74a2.88 2.88 0 1 1-2.87-3 3.004 3.004 0 0 1 2.87 3Z" fill="#000"/><path d="M361.609 897.74a2.88 2.88 0 1 1-2.88-3 3 3 0 0 1 2.88 3Z" class="change-color-in-svg" fill="#4D61FC" style="fill:#158566"/><path d="M367.052 900.771c1.59 0 2.88-1.357 2.88-3.03 0-1.674-1.29-3.03-2.88-3.03-1.591 0-2.88 1.356-2.88 3.03 0 1.673 1.289 3.03 2.88 3.03Z" fill="#B2B6BB"/><path d="M306.19 517.051h-68.94l-5.34-5.16h74.28v5.16ZM306.19 524.84h-68.94l-5.34-5.16h74.28v5.16ZM306.19 532.621h-68.94l-5.34-5.15h74.28v5.15ZM306.19 540.41h-68.94l-5.34-5.16h74.28v5.16ZM306.19 548.199h-68.94l-5.34-5.16h74.28v5.16ZM306.19 555.99h-68.94l-5.34-5.16h74.28v5.16ZM393.018 517.051h-68.95l-5.33-5.16h74.28v5.16ZM393.018 524.84h-68.95l-5.33-5.16h74.28v5.16ZM393.018 532.621h-68.95l-5.33-5.15h74.28v5.15ZM393.018 540.41h-68.95l-5.33-5.16h74.28v5.16ZM393.018 548.199h-68.95l-5.33-5.16h74.28v5.16ZM393.018 555.99h-68.95l-5.33-5.16h74.28v5.16Z" class="change-color-in-svg" fill="#4D61FC" style="fill:#158566"/><g opacity=".3" fill="#000"><path opacity=".3" d="M306.19 517.051h-68.94l-5.34-5.16h74.28v5.16ZM306.19 524.84h-68.94l-5.34-5.16h74.28v5.16ZM306.19 532.621h-68.94l-5.34-5.15h74.28v5.15ZM306.19 540.41h-68.94l-5.34-5.16h74.28v5.16ZM306.19 548.201h-68.94l-5.34-5.16h74.28v5.16ZM306.19 555.99h-68.94l-5.34-5.16h74.28v5.16Z"/></g><g opacity=".3" fill="#000"><path opacity=".3" d="M393.018 517.051h-68.95l-5.33-5.16h74.28v5.16ZM393.018 524.84h-68.95l-5.33-5.16h74.28v5.16ZM393.018 532.621h-68.95l-5.33-5.15h74.28v5.15ZM393.018 540.41h-68.95l-5.33-5.16h74.28v5.16ZM393.018 548.201h-68.95l-5.33-5.16h74.28v5.16ZM393.018 555.99h-68.95l-5.33-5.16h74.28v5.16Z"/></g><path d="M463.721 584.57h-47.44v-31.66h47.44v31.66Zm-46.92-.52h46.4v-30.61h-46.4v30.61ZM463.721 628.461h-47.44v-31.66h47.44v31.66Zm-46.92-.53h46.4v-30.61h-46.4v30.61ZM463.721 674.599h-47.44v-31.66h47.44v31.66Zm-46.92-.53h46.4v-30.61h-46.4v30.61ZM463.721 718.48h-47.44v-31.66h47.44v31.66Zm-46.92-.48h46.4v-30.65h-46.4V718ZM463.721 962.47h-47.44V735.33h47.44v227.14Zm-46.92-.53h46.4V735.85h-46.4v226.09Z" class="change-color-in-svg" fill="#4D61FC" style="fill:#158566"/><path d="M258.638 1016.93h221.13c.082 0 .161.03.219.09a.32.32 0 0 1 .091.22v65.38c0 .08-.034.17-.094.23a.316.316 0 0 1-.226.09h-221.12a.301.301 0 0 1-.219-.09.32.32 0 0 1-.091-.22v-65.38c0-.08.032-.16.09-.22.058-.06.137-.1.22-.1Z" fill="#61656D"/><g opacity=".2"><path opacity=".2" d="M258.638 1016.93h221.13c.082 0 .161.03.219.09a.32.32 0 0 1 .091.22v65.38c0 .08-.034.17-.094.23a.316.316 0 0 1-.226.09h-221.12a.301.301 0 0 1-.219-.09.32.32 0 0 1-.091-.22v-65.38c0-.08.032-.16.09-.22.058-.06.137-.1.22-.1Z" fill="#000"/></g><path d="M416.902 1016.93h-206.65c-.04 0-.079.01-.114.03-.036.01-.069.04-.096.06a.314.314 0 0 0-.08.22v65.38a.293.293 0 0 0 .077.22c.027.03.06.06.096.07.037.02.076.03.117.03h206.66c.04 0 .079-.01.116-.03a.22.22 0 0 0 .097-.07.284.284 0 0 0 .077-.22v-65.37a.336.336 0 0 0-.02-.12.277.277 0 0 0-.064-.1.226.226 0 0 0-.099-.07.245.245 0 0 0-.117-.03Z" fill="#61656D"/><path d="M278.681 1025.13h-61.72v8.63h61.72v-8.63Z" fill="#DADDDF"/><path d="M835.441 815.57h-138v7h138v-7Z" fill="#61656D"/><path d="M1399.78 1085.6H163.648a1.506 1.506 0 0 1-1.5-1.5 1.506 1.506 0 0 1 1.5-1.5H1399.78a1.499 1.499 0 0 1 1.06 2.56c-.28.28-.66.44-1.06.44ZM705.871 831.48h-45.34v251.06h45.34V831.48Z" fill="#B2B6BB"/><path opacity=".2" d="M705.871 831.48h-45.34v251.06h45.34V831.48Z" fill="#000"/><path d="M668.29 831.48H530.75v251.06h137.54V831.48Z" fill="#B2B6BB"/><g opacity=".2"><path opacity=".2" d="M657.82 890.761H540.48v-43.62h117.34v43.62Zm-115.77-1.56h114.21v-40.49H542.05v40.49Z" fill="#000"/></g><path opacity=".2" d="M617.148 866.949h-36v4h36v-4Z" fill="#000"/><g opacity=".2"><path opacity=".2" d="M657.82 944.761H540.48v-43.62h117.34v43.62Zm-115.77-1.56h114.21v-40.49H542.05v40.49Z" fill="#000"/></g><path opacity=".2" d="M617.148 920.949h-36v4h36v-4Z" fill="#000"/><g opacity=".2"><path opacity=".2" d="M657.82 998.761H540.48v-43.62h117.34v43.62Zm-115.77-1.56h114.21v-40.49H542.05v40.49Z" fill="#000"/></g><path opacity=".2" d="M617.148 974.949h-36v4h36v-4Z" fill="#000"/><g opacity=".2"><path opacity=".2" d="M657.82 1052.76H540.48v-43.62h117.34v43.62Zm-115.77-1.56h114.21v-40.49H542.05v40.49Z" fill="#000"/></g><path opacity=".2" d="M617.148 1028.95h-36v4h36v-4Z" fill="#000"/><path d="M1039.5 826.57h-45.34v255.97h45.34V826.57Z" fill="#B2B6BB"/><path opacity=".2" d="M1039.5 826.57h-45.34v255.97h45.34V826.57Z" fill="#000"/><path d="M1001.92 831.48H864.379v251.06h137.541V831.48Z" fill="#B2B6BB"/><path d="M1048.44 822.16H521.551v10.19h526.889v-10.19Z" fill="#B2B6BB"/><path opacity=".2" d="M668.441 832.57h-138v4h138v-4ZM1001.94 832.57H864.441v4h137.499v-4Z" fill="#000"/><g opacity=".2"><path opacity=".2" d="M991.82 890.761H874.48v-43.62h117.34v43.62Zm-115.77-1.56h114.21v-40.49H876.05v40.49Z" fill="#000"/></g><path opacity=".2" d="M951.148 866.949h-36v4h36v-4Z" fill="#000"/><g opacity=".2"><path opacity=".2" d="M991.82 944.761H874.48v-43.62h117.34v43.62Zm-115.77-1.56h114.21v-40.49H876.05v40.49Z" fill="#000"/></g><path opacity=".2" d="M951.148 920.949h-36v4h36v-4Z" fill="#000"/><g opacity=".2"><path opacity=".2" d="M991.82 998.761H874.48v-43.62h117.34v43.62Zm-115.77-1.56h114.21v-40.49H876.05v40.49Z" fill="#000"/></g><path opacity=".2" d="M951.148 974.949h-36v4h36v-4Z" fill="#000"/><g opacity=".2"><path opacity=".2" d="M991.82 1052.76H874.48v-43.62h117.34v43.62Zm-115.77-1.56h114.21v-40.49H876.05v40.49Z" fill="#000"/></g><path opacity=".2" d="M951.148 1028.95h-36v4h36v-4Z" fill="#000"/><path d="M696.149 821.21h-34.27l-29.25-117.28h34.27l29.25 117.28Z" fill="#61656D"/><path opacity=".2" d="M696.149 821.21h-34.27l-29.25-117.28h34.27l29.25 117.28Z" fill="#000"/><path d="M693.782 821.21h-34.27l-29.25-117.28h34.27l29.25 117.28Z" fill="#61656D"/><path opacity=".2" d="M687.631 787.071h-36.7l-1.54-6.18h36.7l1.54 6.18Z" fill="#000"/><path d="M756.792 661.211h-195.28v119.66h195.28v-119.66Z" fill="#61656D"/><path d="M749.95 666.73H568.34v108.62h181.61V666.73Z" fill="#3F4249"/><path d="M638.349 674.27h-59.06v4.63h59.06v-4.63ZM624.429 682.18h-45.14v4.63h45.14v-4.63ZM633.279 690.08h-53.99v4.63h53.99v-4.63ZM622.959 697.99h-43.67v4.63h43.67v-4.63ZM642.751 705.891h-49.36v4.63h49.36v-4.63ZM638.351 715.4h-44.96v4.63h44.96v-4.63ZM624.429 723.301h-45.14v4.63h45.14v-4.63ZM633.279 731.211h-53.99v4.63h53.99v-4.63ZM622.959 739.109h-43.67v4.63h43.67v-4.63ZM642.749 747.02h-63.46v4.63h63.46v-4.63ZM652.638 756.07h-53.99v4.63h53.99v-4.63ZM642.749 765.131h-63.46v4.63h63.46v-4.63Z" class="change-color-in-svg" fill="#4D61FC" style="fill:#158566"/><g opacity=".2" fill="#000"><path opacity=".2" d="M638.349 674.27h-59.06v4.63h59.06v-4.63ZM624.429 682.18h-45.14v4.63h45.14v-4.63ZM633.279 690.08h-53.99v4.63h53.99v-4.63ZM622.959 697.99h-43.67v4.63h43.67v-4.63ZM642.751 705.889h-49.36v4.63h49.36v-4.63ZM638.351 715.4h-44.96v4.63h44.96v-4.63ZM624.429 723.299h-45.14v4.63h45.14v-4.63ZM633.279 731.209h-53.99v4.63h53.99v-4.63ZM622.959 739.109h-43.67v4.63h43.67v-4.63ZM642.749 747.02h-63.46v4.63h63.46v-4.63ZM652.638 756.07h-53.99v4.63h53.99v-4.63ZM642.749 765.129h-63.46v4.63h63.46v-4.63Z"/></g><path d="M727.072 674.27h-59.06v4.63h59.06v-4.63ZM713.152 682.18h-45.14v4.63h45.14v-4.63ZM722.002 690.08h-53.99v4.63h53.99v-4.63ZM711.682 697.99h-43.67v4.63h43.67v-4.63ZM731.462 705.891h-49.36v4.63h49.36v-4.63ZM727.062 715.4h-44.96v4.63h44.96v-4.63ZM713.152 723.301h-45.14v4.63h45.14v-4.63ZM722.002 731.211h-53.99v4.63h53.99v-4.63ZM711.682 739.109h-43.67v4.63h43.67v-4.63ZM731.472 747.02h-63.46v4.63h63.46v-4.63ZM741.361 756.07h-53.99v4.63h53.99v-4.63ZM731.472 765.131h-63.46v4.63h63.46v-4.63Z" class="change-color-in-svg" fill="#4D61FC" style="fill:#158566"/><g opacity=".2" fill="#fff"><path opacity=".2" d="M727.072 674.27h-59.06v4.63h59.06v-4.63ZM713.152 682.18h-45.14v4.63h45.14v-4.63ZM722.002 690.08h-53.99v4.63h53.99v-4.63ZM711.682 697.99h-43.67v4.63h43.67v-4.63ZM731.462 705.889h-49.36v4.63h49.36v-4.63ZM727.062 715.4h-44.96v4.63h44.96v-4.63ZM713.152 723.299h-45.14v4.63h45.14v-4.63ZM722.002 731.209h-53.99v4.63h53.99v-4.63ZM711.682 739.109h-43.67v4.63h43.67v-4.63ZM731.472 747.02h-63.46v4.63h63.46v-4.63ZM741.361 756.07h-53.99v4.63h53.99v-4.63ZM731.472 765.129h-63.46v4.63h63.46v-4.63Z"/></g><path d="M759.46 661.18h-2.69v119.69h2.69V661.18Z" fill="#61656D"/><path opacity=".2" d="M759.46 661.18h-2.69v119.69h2.69V661.18Z" fill="#000"/><path d="M725.438 818.32h-95.45v4.5h95.45v-4.5ZM933.149 821.21h-34.27l-29.25-117.28h34.27l29.25 117.28Z" fill="#61656D"/><path opacity=".2" d="M933.149 821.21h-34.27l-29.25-117.28h34.27l29.25 117.28Z" fill="#000"/><path d="M930.782 821.21h-34.27l-29.25-117.28h34.27l29.25 117.28Z" fill="#61656D"/><path opacity=".2" d="M924.631 787.071h-36.7l-1.54-6.18h36.7l1.54 6.18Z" fill="#000"/><path d="M993.792 661.211h-195.28v119.66h195.28v-119.66Z" fill="#61656D"/><path d="M986.95 666.73H805.34v108.62h181.61V666.73Z" fill="#3F4249"/><path d="M875.349 674.27h-59.06v4.63h59.06v-4.63ZM861.429 682.18h-45.14v4.63h45.14v-4.63ZM870.279 690.08h-53.99v4.63h53.99v-4.63ZM859.959 697.99h-43.67v4.63h43.67v-4.63ZM879.751 705.891h-49.36v4.63h49.36v-4.63ZM875.351 715.4h-44.96v4.63h44.96v-4.63ZM861.429 723.301h-45.14v4.63h45.14v-4.63ZM870.279 731.211h-53.99v4.63h53.99v-4.63ZM859.959 739.109h-43.67v4.63h43.67v-4.63ZM879.749 747.02h-63.46v4.63h63.46v-4.63ZM889.638 756.07h-53.99v4.63h53.99v-4.63ZM879.749 765.131h-63.46v4.63h63.46v-4.63Z" class="change-color-in-svg" fill="#4D61FC" style="fill:#158566"/><g opacity=".2" fill="#000"><path opacity=".2" d="M875.349 674.27h-59.06v4.63h59.06v-4.63ZM861.429 682.18h-45.14v4.63h45.14v-4.63ZM870.279 690.08h-53.99v4.63h53.99v-4.63ZM859.959 697.99h-43.67v4.63h43.67v-4.63ZM879.751 705.889h-49.36v4.63h49.36v-4.63ZM875.351 715.4h-44.96v4.63h44.96v-4.63ZM861.429 723.299h-45.14v4.63h45.14v-4.63ZM870.279 731.209h-53.99v4.63h53.99v-4.63ZM859.959 739.109h-43.67v4.63h43.67v-4.63ZM879.749 747.02h-63.46v4.63h63.46v-4.63ZM889.638 756.07h-53.99v4.63h53.99v-4.63ZM879.749 765.129h-63.46v4.63h63.46v-4.63Z"/></g><path d="M964.072 674.27h-59.06v4.63h59.06v-4.63ZM950.152 682.18h-45.14v4.63h45.14v-4.63ZM959.002 690.08h-53.99v4.63h53.99v-4.63ZM948.682 697.99h-43.67v4.63h43.67v-4.63ZM968.462 705.891h-49.36v4.63h49.36v-4.63ZM964.062 715.4h-44.96v4.63h44.96v-4.63ZM950.152 723.301h-45.14v4.63h45.14v-4.63ZM959.002 731.211h-53.99v4.63h53.99v-4.63ZM948.682 739.109h-43.67v4.63h43.67v-4.63ZM968.472 747.02h-63.46v4.63h63.46v-4.63ZM978.361 756.07h-53.99v4.63h53.99v-4.63ZM968.472 765.131h-63.46v4.63h63.46v-4.63Z" class="change-color-in-svg" fill="#4D61FC" style="fill:#158566"/><g opacity=".2" fill="#fff"><path opacity=".2" d="M964.072 674.27h-59.06v4.63h59.06v-4.63ZM950.152 682.18h-45.14v4.63h45.14v-4.63ZM959.002 690.08h-53.99v4.63h53.99v-4.63ZM948.682 697.99h-43.67v4.63h43.67v-4.63ZM968.462 705.889h-49.36v4.63h49.36v-4.63ZM964.062 715.4h-44.96v4.63h44.96v-4.63ZM950.152 723.299h-45.14v4.63h45.14v-4.63ZM959.002 731.209h-53.99v4.63h53.99v-4.63ZM948.682 739.109h-43.67v4.63h43.67v-4.63ZM968.472 747.02h-63.46v4.63h63.46v-4.63ZM978.361 756.07h-53.99v4.63h53.99v-4.63ZM968.472 765.129h-63.46v4.63h63.46v-4.63Z"/></g><path d="M996.46 661.18h-2.69v119.69h2.69V661.18Z" fill="#61656D"/><path opacity=".2" d="M996.46 661.18h-2.69v119.69h2.69V661.18Z" fill="#000"/><path d="M962.438 818.32h-95.45v4.5h95.45v-4.5Z" fill="#61656D"/><path d="m762.39 809.58 6.29 5.93a1.462 1.462 0 0 1 .061 2.075 1.466 1.466 0 0 1-.651.395l-2.19.63a3.2 3.2 0 0 1-2.5-.29l-10.4-5.91 10.36-2.78" fill="#C46F69"/><path opacity=".15" d="m762.39 809.58 6.29 5.93a1.462 1.462 0 0 1 .061 2.075 1.466 1.466 0 0 1-.651.395l-2.19.63a3.2 3.2 0 0 1-2.5-.29l-10.4-5.91" fill="#000"/><path d="m747.472 808.091 10.81-1.8a5.998 5.998 0 0 1 4.23.86l8.63 5.54a1.247 1.247 0 0 1 .55 1.294 1.227 1.227 0 0 1-1.71.886l-8.21-3.56-7.77 1.76a.856.856 0 0 0-.61.55.831.831 0 0 0 .59 1.06l4.43 1.08a2.833 2.833 0 0 1 2.11 3.22.71.71 0 0 1-.7.59h-20.54l-5.52-13.07 13.71 1.59ZM672.121 732l-3.52 28.89a5.402 5.402 0 0 1-4.42 4.61l-3.38.64 7.13 5.32a28.34 28.34 0 0 0 24.74 4.68 26.933 26.933 0 0 0 4.52-1.7l8.67-4.14-3.6-1.39a5.363 5.363 0 0 1-3.44-4.86l-.56-34.79-26.14 2.74Z" fill="#C46F69"/><path d="m696.689 759.26-1.37.22a17.881 17.881 0 0 1-20.32-15.07l-3.68-24.88a6.003 6.003 0 0 1 5.05-6.79l23.27-3.51a7.768 7.768 0 0 1 8.82 6.54l3.41 23.13a18.062 18.062 0 0 1-15.18 20.36Z" fill="#C46F69"/><path d="M710.859 732.73a34.46 34.46 0 0 1 3.56 5c1 2-2.79 2.51-2.79 2.51l-.77-7.51Z" fill="#C46F69"/><g opacity=".15"><g opacity=".15"><g opacity=".15"><path opacity=".15" d="M667.999 745.211h2.75l-2.94 5.79.19-5.79Z" fill="#000"/></g></g></g><path opacity=".15" d="M692.23 759.489a17.78 17.78 0 0 0 6.53-.71l.06 5-6.59-4.29Z" fill="#000"/><path d="m704.64 816.16 17.8 35.57 26.17-7.13-18.67-55.36a32.001 32.001 0 0 0-7.34-12.17 20.258 20.258 0 0 0-6.804-4.883 20.252 20.252 0 0 0-8.196-1.717l-42.07-.47h-14.22a21.887 21.887 0 0 0-21.88 21.88v101.18h84.81l-.13-32.74a4.936 4.936 0 0 1 1.36-3.43c3.89-4.06 9.72-8.78 6.18-21.29" class="change-color-in-svg" fill="#4D61FC" style="fill:#158566"/><path d="m822.501 1082.68-9.91-6.83v-41.35c-.2-61.691-1.22-99.601-3.92-122.721-2.56-21.89-25.16-3.8-31.49-6.77-3.8-1.78-6.32-8.88-13.9-9.25-13.37-.66-17.76-10.39-17.76-10.39l-6.31 42.63 34.56 1.54c-.95 35.72 13.66 62.29 20.37 99.831-3.68 2.34-6.41 6.74-6.41 13.35 16.27 5.41 14.5 35.16 14.5 35.16l20.27 4.8Z" fill="#C46F69"/><path opacity=".2" d="M773.771 929.511c-.95 35.72 13.65 62.29 20.36 99.829-3.68 2.34-6.41 6.74-6.41 13.35 16.28 5.41 14.51 35.16 14.51 35.16l20.27 4.83-9.91-6.83-.15.72c-3.26-4.5-7.48-42.81-8.27-47.23-6.71-37.539-21.37-63.999-20.43-99.719l-33.53-1 6.49-34.88c-7.51-4.81-12.2-8.35-12.2-8.35l-5.29 42.61" fill="#000"/><path d="M821.889 1083.24h-16.84c-1.127 0-2.217-.4-3.074-1.14a4.726 4.726 0 0 1-1.596-2.86c-1.2-8.3-4.71-27.26-12.66-36.5 0 0-2.41-9.62 6.41-13.36 0 0 8.82 5.83 6 23.24l4.9 18.82s11.93 3.75 17.65 10.14c.129.15.213.33.24.52.027.2-.004.39-.088.57a.985.985 0 0 1-.942.57Z" class="change-color-in-svg" fill="#4D61FC" style="fill:#158566"/><path d="m787.72 1042.7-1.72 40.54h1.69l4.43-40.54h-4.4Z" class="change-color-in-svg" fill="#4D61FC" style="fill:#158566"/><path d="m780.349 1082.68-9.91-6.83v-41.35c-.2-61.69-1.21-99.6-3.91-122.72-2.56-21.89-25.17-3.8-31.5-6.77-3.79-1.78-6.31-8.88-13.9-9.25-13.4-.66-33.93-9.76-33.93-9.76l-7.84 42.15 52.26 1.2c-1 35.73 13.66 62.47 20.37 100-3.68 2.34-6.41 6.74-6.41 13.35 16.28 5.4 14.51 35.16 14.51 35.16l20.26 4.82Z" fill="#C46F69"/><g opacity=".2"><path opacity=".2" d="M746.572 905c2.79 1.31 8.76-1.48 14.77-3.13-4.54-2.47-11.16-.22-16.83 1.63a7.905 7.905 0 0 0 2.06 1.5Z" fill="#000"/></g><path opacity=".2" d="M770.442 1076.57c-3.26-4.5-7.64-42.81-8.43-47.23-6.71-37.54-19.77-60.29-18.82-96l-52.26-1.2 6.53-38.42c-7.46-4.82-10.27-7.72-10.27-7.72l-7.84 46.15 52.26 1.2c-1 35.73 13.67 58.47 20.37 96-3.68 2.34-6.4 6.74-6.4 13.35 16.27 5.41 14.5 35.16 14.5 35.16l20.27 4.83-9.91-6.83v.71Z" fill="#000"/><path d="M779.73 1083.24h-16.84c-1.126 0-2.214-.4-3.069-1.14a4.715 4.715 0 0 1-1.591-2.86c-1.21-8.3-4.72-27.26-12.66-36.5 0 0-2.41-9.62 6.41-13.36 0 0 8.82 5.83 6 23.24l4.9 18.82s11.93 3.75 17.64 10.14a1.004 1.004 0 0 1-.233 1.52.988.988 0 0 1-.557.14Z" class="change-color-in-svg" fill="#4D61FC" style="fill:#158566"/><path d="m745.569 1042.7-1.69 40.54h1.69l4.43-40.54h-4.43Z" class="change-color-in-svg" fill="#4D61FC" style="fill:#158566"/><path d="M750.412 1021.49c-7.79-33.701-20.66-58.501-19.18-93.111l-71.36-.58a19.238 19.238 0 0 1-19.08-19l-.37-28.61s60.37-.65 73.74 0c7.58.37 17 19.87 20.83 21.65 6.33 3 28.93-15.13 31.5 6.77 2.57 21.9 3.59 56.95 3.87 112.881h-19.95Z" fill="#21252B"/><path d="m811.211 944.94-.76-43.66a21.778 21.778 0 0 0-21.761-21.41l-123.21-.11.71 29.93a19.229 19.229 0 0 0 19 18.79l88.55 1c-.77 33.93 10.371 54 18.601 90.83h20.149c-.13-31.13-.489-55.83-1.279-75.37Z" fill="#21252B"/><path d="M714.169 879.79s-12.17 2.02-30.17 9.21c-20.14 8-41.94.21-41.94.21v-21.3l72.11 11.88Z" class="change-color-in-svg" fill="#4D61FC" style="fill:#158566"/><path opacity=".3" d="M803.23 1020.46c-7-34.641-20.24-56.901-19.49-90.841l-111.42-1.25a25.407 25.407 0 0 1-25-25.41v-23.09h-6.58l-.81 22.13c0 13.86 5.66 26.42 22.4 26.42l111.42 1.25c-.76 33.93 11.61 56.09 18.6 90.721l20.15.12h-9.27v-.05Z" fill="#000"/><path opacity=".2" d="m713.379 829.859 8 19.65a18.102 18.102 0 0 1-3 4.42l-5-24.07Z" fill="#000"/><path d="m689.35 731.521-.1-1.12 21.51-3.921.09 1.12-21.5 3.921Z" fill="#fff"/><path d="M711.27 733a.578.578 0 0 1-.39-.46l-1.51-10.2a.562.562 0 0 1 .47-.64.568.568 0 0 1 .64.48l1.52 10.2a.57.57 0 0 1-.48.64.953.953 0 0 1-.25-.02Z" fill="#fff"/><path d="M691.499 759.899c-9.53-10.51-3.84-29.08-3.84-29.08l1-.44a16.83 16.83 0 0 1 .91 4.56c.002.13.03.258.083.377a.96.96 0 0 0 .559.509.956.956 0 0 0 .753-.06.954.954 0 0 0 .495-.976l-.4-5.54c18.11-8.78 17.29-16 17.55-21.29.28-5.57-15.71-20.93-43.14-11.28-29.06 10.21-23 53.61-23.92 64.21-1.47 17.18-25.87 20.88-24.67 46.58.44 9.24 11 15.33 35.4 14.43 24.4-.9 38.72-36 44.72-44.17 5.15-6.92 13.53-6.92 13.53-6.92-7.78-9-13.53-4.81-19.03-10.91Z" fill="#000"/><path opacity=".15" d="M687.079 739.769a1.646 1.646 0 0 1-1.521-1.081 1.647 1.647 0 0 1-.099-.649c.033-.303.143-.592.32-.84a1.707 1.707 0 0 0-.73 1.22 1.497 1.497 0 0 0 .411 1.11 1.49 1.49 0 0 0 1.089.46c.324.032.648-.057.91-.25a.65.65 0 0 0-.38.03ZM686.051 740.77s1.4.36 1.88.43 2 .159 2 .159-2 2.661-3.92 3.211c.04 0-.07-2.74.04-3.8Z" fill="#000"/><path opacity=".3" d="M759.4 1021.47c-7-34.81-19.71-57.919-18.8-92.139l-52.27-1.211 7.28-38.77c-5-1.85-8.42-3.37-8.42-3.37l-7.85 42.15 52.26 1.201c-.91 34.22 11.78 57.359 18.8 92.159l9-.02Z" fill="#000"/><path d="M711.61 745.211c-1.38.218-2.773.338-4.17.36-2 0 3.41 2.2 3.41 2.2l.76-2.56Z" fill="#fff"/><path d="m771.66 828.519 5.42-1.3a20.183 20.183 0 0 0 8.19-4.11l2.93-2.43a3.254 3.254 0 0 1 2.61-.68l9.54 1.54a1.46 1.46 0 0 0 1.31-.49 1.406 1.406 0 0 0 .003-1.832 1.426 1.426 0 0 0-.533-.388l-7.61-3.23 11.23 4.71a1.62 1.62 0 0 0 1.47-2.88l-8.42-5.08 11.07 6.65a1.763 1.763 0 0 0 1.83-.07 1.731 1.731 0 0 0 .592-2.216 1.745 1.745 0 0 0-.532-.634l-8.6-6.32 12.13 5.11a1.796 1.796 0 0 0 2.418-2.186 1.782 1.782 0 0 0-.848-1.024l-13.22-7.13a6.112 6.112 0 0 0-4.5-.78l-17.28 5.79-8.42 4s-8.54 16.82-.78 14.98Z" fill="#C46F69"/><path opacity=".15" d="M801.4 818.939a.284.284 0 0 0-.054-.324.305.305 0 0 0-.096-.066l-7-3c-.14-.09-.3 0-.39.16-.09.16 0 .3.15.39l7 3a.203.203 0 0 0 .09.022.203.203 0 0 0 .09-.022.541.541 0 0 0 .21-.16ZM806.438 817.611a.267.267 0 0 0 .042-.107.262.262 0 0 0-.004-.115.271.271 0 0 0-.138-.178l-7.92-4.77a.279.279 0 0 0-.4.1.283.283 0 0 0 .005.33.308.308 0 0 0 .085.08l7.92 4.76c0 .06.13 0 .19 0s.18-.03.22-.1ZM789.591 819.3l-1.45 1.39a3.249 3.249 0 0 1 2.61-.68l9.54 1.54a1.437 1.437 0 0 0 1.624-1.263 1.458 1.458 0 0 0-.144-.817s-.17 1.33-2 .79c-1.31-.36-5-1.26-7.26-1.78a3.333 3.333 0 0 0-2.92.82Z" fill="#000"/><path opacity=".15" d="m788.721 820.3-3.52 2.81a19.901 19.901 0 0 1-8.2 4.11l-.81.2 2.25-14.85.83 8.39a2.421 2.421 0 0 0 1.009 1.622 2.414 2.414 0 0 0 1.871.378 30.336 30.336 0 0 0 6.57-2.66Z" fill="#000"/><path d="m707.461 819.4 10.61 33.31a15.672 15.672 0 0 0 13.6 7.79c4.46 0 54.59-33.11 57.77-36.93v.3l-8.63-14.66-41.38 20.36-7-30-24.97 19.83Z" class="change-color-in-svg" fill="#4D61FC" style="fill:#158566"/><path opacity=".2" d="m742.23 827.611.101 2a1.502 1.502 0 0 0 .971 1.387 1.508 1.508 0 0 0 1.649-.387l4.489-6.06-7.21 3.06Z" fill="#000"/><path opacity=".2" d="M718.071 852.71a15.69 15.69 0 0 0 13.6 7.79c4.46 0 54.59-33.11 57.77-36.93v.3l-2.28-3.87-49.45 30.6c-13.79 7.76-31.27-32-31.27-32l7.73 21.9 3.9 12.21ZM718.511 853.69l-1.07-1.12c-4 3-11 4-11 4l-.57 25.11 8.32-1.39-.08-20a4.94 4.94 0 0 1 1.36-3.43c.95-.96 2.02-2 3.04-3.17Z" fill="#000"/><path d="M689.318 741.291s-7.72.31-9.07-7.32c-1.35-7.63 8.15-8.75 9.2-1l.51 8.4-.64-.08Z" fill="#C46F69"/><path opacity=".15" d="M682.002 730.929a2.35 2.35 0 0 1 3.77 0 5.275 5.275 0 0 1 1.25 2.39l.25.81a.44.44 0 0 1-.85.2l-.25-.8a5.006 5.006 0 0 0-1-2 1.808 1.808 0 0 0-1.23-.66 1.844 1.844 0 0 0-1.26.68.438.438 0 0 1-.598-.004.442.442 0 0 1-.042-.596l-.04-.02Z" fill="#000"/><path d="M685.062 738.22a1.517 1.517 0 0 1 2.705-.746 1.52 1.52 0 1 1-2.705.746Z" class="change-color-in-svg" fill="#4D61FC" style="fill:#158566"/><path d="M555.941 388.571a53.33 53.33 0 0 1 47.4-52.95v-.31h5.85a53.256 53.256 0 0 1 52.531 53.255 53.258 53.258 0 0 1-15.343 37.401 53.257 53.257 0 0 1-37.188 15.854h-5.85v-.31a53.324 53.324 0 0 1-47.4-52.94" fill="#B2B6BB"/><path d="M603.34 441.82a53.25 53.25 0 1 0 0-106.501 53.25 53.25 0 0 0 0 106.501" fill="#868A91"/><path d="M603.341 436a47.409 47.409 0 0 0 33.534-80.934 47.409 47.409 0 0 0-80.934 33.534 47.4 47.4 0 0 0 47.4 47.4" fill="#fff"/><path d="M603.341 436a47.409 47.409 0 0 0 33.534-80.934 47.409 47.409 0 0 0-80.934 33.534 47.4 47.4 0 0 0 47.4 47.4" fill="#868A91"/><path d="M603.341 436a47.409 47.409 0 0 0 33.534-80.934 47.409 47.409 0 0 0-80.934 33.534 47.4 47.4 0 0 0 47.4 47.4" fill="#F4F4F4"/><path d="M603.339 341.161c.854-.018 1.71.018 2.56.11a47.37 47.37 0 0 0 0 94.6c-.82 0-1.64.1-2.56.1a47.407 47.407 0 0 1-33.078-14.126 47.408 47.408 0 0 1 33.078-80.684" fill="#B2B6BB"/><path d="m602.93 392.261 15.7-31.26a2.453 2.453 0 0 0 .213-1.941 2.463 2.463 0 0 0-2.235-1.733 2.455 2.455 0 0 0-1.827.69 2.463 2.463 0 0 0-.561.824l-13.55 26.86-18.06-8.83a2.453 2.453 0 0 0-2.15 4.41l22.47 10.98Z" class="change-color-in-svg" fill="#4D61FC" style="fill:#158566"/><path opacity=".4" d="M562.71 413a47.41 47.41 0 0 1 40.63-71.83c1.33 0 2.56.11 3.9.21L562.71 413ZM614.32 342.5a39.001 39.001 0 0 1 6.67 2.15l-49 79.52a45.084 45.084 0 0 1-5.33-5.54l47.66-76.13Z" fill="#fff"/><path d="M734.941 388.571a53.33 53.33 0 0 1 47.4-52.95v-.31h5.85a53.256 53.256 0 0 1 52.531 53.255 53.258 53.258 0 0 1-15.343 37.401 53.257 53.257 0 0 1-37.188 15.854h-5.85v-.31a53.324 53.324 0 0 1-47.4-52.94Z" fill="#B2B6BB"/><path d="M782.34 441.82a53.25 53.25 0 1 0 0-106.501 53.25 53.25 0 0 0 0 106.501" fill="#868A91"/><path d="M782.341 436a47.409 47.409 0 0 0 33.534-80.934 47.409 47.409 0 0 0-80.934 33.534 47.4 47.4 0 0 0 47.4 47.4" fill="#fff"/><path d="M782.341 436a47.409 47.409 0 0 0 33.534-80.934 47.409 47.409 0 0 0-80.934 33.534 47.4 47.4 0 0 0 47.4 47.4" fill="#868A91"/><path d="M782.341 435.999a47.4 47.4 0 1 0 0-94.8 47.4 47.4 0 0 0 0 94.8" fill="#F4F4F4"/><path d="M782.339 341.161c.854-.018 1.71.018 2.56.11a47.37 47.37 0 0 0 0 94.6c-.82 0-1.64.1-2.56.1a47.407 47.407 0 0 1-33.078-14.126 47.408 47.408 0 0 1 33.078-80.684" fill="#B2B6BB"/><path d="m780.221 391.85-18-15.91a2.503 2.503 0 0 1-.145-3.455 2.505 2.505 0 0 1 3.445-.295l16 14.09 29.68-8.61a2.497 2.497 0 0 1 3.1 1.7 2.498 2.498 0 0 1-1.7 3.1l-32.38 9.38Z" class="change-color-in-svg" fill="#4D61FC" style="fill:#158566"/><path opacity=".4" d="M741.71 413a47.41 47.41 0 0 1 40.63-71.83c1.33 0 2.56.11 3.9.21L741.71 413ZM793.32 342.5a39.001 39.001 0 0 1 6.67 2.15l-49 79.52a45.084 45.084 0 0 1-5.33-5.54l47.66-76.13Z" fill="#fff"/><path d="M913.941 388.571a53.33 53.33 0 0 1 47.4-52.95v-.31h5.85a53.26 53.26 0 0 1 37.189 15.853 53.261 53.261 0 0 1-37.189 90.657h-5.85v-.31a53.324 53.324 0 0 1-47.4-52.94" fill="#B2B6BB"/><path d="M961.34 441.82a53.255 53.255 0 0 0 49.2-32.872 53.29 53.29 0 0 0 3.03-30.766 53.294 53.294 0 0 0-14.577-27.265 53.243 53.243 0 0 0-27.265-14.573 53.246 53.246 0 0 0-63.638 52.226 53.253 53.253 0 0 0 15.596 37.654 53.253 53.253 0 0 0 37.654 15.596" fill="#868A91"/><path d="M961.341 436a47.409 47.409 0 0 0 46.509-56.657 47.409 47.409 0 0 0-93.909 9.257 47.4 47.4 0 0 0 47.4 47.4" fill="#fff"/><path d="M961.341 436a47.409 47.409 0 0 0 46.509-56.657 47.409 47.409 0 0 0-93.909 9.257 47.4 47.4 0 0 0 47.4 47.4" fill="#868A91"/><path d="M961.341 435.999a47.4 47.4 0 0 0 26.334-7.988 47.34 47.34 0 0 0 17.455-21.273 47.37 47.37 0 0 0 2.7-27.386 47.4 47.4 0 1 0-46.489 56.647" fill="#F4F4F4"/><path d="M961.339 341.161c.854-.018 1.71.018 2.56.11a47.37 47.37 0 0 0 0 94.6c-.82 0-1.64.1-2.56.1a47.407 47.407 0 0 1-33.078-14.126 47.408 47.408 0 0 1 33.078-80.684" fill="#B2B6BB"/><path d="M984.941 408.57a2.447 2.447 0 0 1-1.49-.5l-24.51-18.25v-25.25c0-.663.264-1.299.733-1.767a2.497 2.497 0 0 1 3.535 0c.469.468.732 1.104.732 1.767v22.74l22.49 16.75a2.501 2.501 0 0 1-.023 4.037c-.427.309-.94.474-1.467.473Z" class="change-color-in-svg" fill="#4D61FC" style="fill:#158566"/><path opacity=".4" d="M920.71 413a47.41 47.41 0 0 1 40.63-71.83c1.33 0 2.56.11 3.9.21L920.71 413ZM972.32 342.5a39.001 39.001 0 0 1 6.67 2.15l-49 79.52a45.084 45.084 0 0 1-5.33-5.54l47.66-76.13Z" fill="#fff"/><path d="m585.25 1082.55 25.6-133.929c.5-3.36-1.09-5.5 2.31-5.5h56.19a7.598 7.598 0 0 1 7.2 6.19l19.64 133.999h7.22l-18.53-134.719c-.85-5.72-8.34-10.37-14.12-10.37h-59a12.55 12.55 0 0 0-12 10.37l-26.33 133.999 11.82-.04Z" fill="#868A91"/><g opacity=".5"><g opacity=".5"><g opacity=".5"><path opacity=".5" d="M603.861 941.289h13v1.81h-3.7c-3.28 0-1.91 2-2.26 5.17h-11.1a12.308 12.308 0 0 1 4.06-6.98Z" fill="#000"/></g></g></g><path d="M585.252 1082.55h-4.4l26.15-135.409a10.932 10.932 0 0 1 3.7-6.01 10.934 10.934 0 0 1 6.6-2.5h60.38a10.443 10.443 0 0 1 10 8.65l20 135.999h-4.28l-19.7-135.409a6.32 6.32 0 0 0-6-5.17h-60.35a6.773 6.773 0 0 0-4.027 1.542 6.775 6.775 0 0 0-2.283 3.658l-25.79 134.649Z" fill="#868A91"/><g opacity=".5"><g opacity=".5"><path opacity=".5" d="M585.252 1082.55h-4.4l26.15-135.409a10.932 10.932 0 0 1 3.7-6.01 10.934 10.934 0 0 1 6.6-2.5h60.38a10.443 10.443 0 0 1 10 8.65l20 135.999h-4.28l-19.7-135.409a6.32 6.32 0 0 0-6-5.17h-60.35a6.773 6.773 0 0 0-4.027 1.542 6.775 6.775 0 0 0-2.283 3.658l-25.79 134.649Z" fill="#000"/></g></g><path d="M592.73 942.52c-11.12-.74-2.479-25.69-4.149-35.68l-.331-2 4-.67.331 2c2.47 14.82-4.92 32.28.13 32.28 2.36 0 5.789-.11 10.539-.26 12.46-.4 33.31-1.07 70.85-1.07h2v4.07h-2c-37.48 0-58.29.66-70.72 1.06-4.78.16-8.23.27-10.65.27Z" fill="#868A91"/><path d="M678.541 941.189h-81.91c-6.5 0-6.399-5.46-4.669-15.08a59.337 59.337 0 0 0 .529-20l4-.67c2.41 14.51-5 31.64.13 31.64h81.911v4.08l.009.03Z" fill="#61656D"/><path d="M778.142 945.599a42.995 42.995 0 0 1-21.65 5.94h-108.2c-24.09 0-49.92-1.75-53.77-11.52-3.85-9.77 165.38-6.24 165.38-6.24s13.34 2.39 14.74 3.44c1.4 1.05 3.5 8.38 3.5 8.38Z" fill="#61656D"/><path d="m594.539 903.709-14.37-104.89c-.27-1.82-9.29-2.58-8.94-4.2 1.3-5.82 6.85-15 21.39-15h73.3a18.41 18.41 0 0 1 17.61 15.19s15.61 103.19 15 105.46c-.61 2.27-2.68 7-6.51 7-3.83 0-96.87.69-96.87.69l-.61-4.25ZM686 942.099h-86.35a7.332 7.332 0 0 1-7.33-7.33 7.333 7.333 0 0 1 7.33-7.33H686a7.332 7.332 0 0 1 5.183 12.514 7.33 7.33 0 0 1-5.183 2.146Z" fill="#868A91"/><path d="M783.732 953.171a6.11 6.11 0 0 1-6-5.31c-.13-.58-1.84-7-16-7h-74.73a6.238 6.238 0 0 1-6.3-5.7 6.098 6.098 0 0 1 6.09-6.52h75c22.52 0 28 13.51 28.11 18.23a6.112 6.112 0 0 1-5.76 6.27l-.41.03Zm-6.11-6.12a4.67 4.67 0 0 0 .06.8v-.33c0-.11-.06-.32-.06-.47Z" fill="#868A91"/><path opacity=".1" d="M783.732 953.171a6.11 6.11 0 0 1-6-5.31c-.13-.58-1.84-7-16-7h-74.73a6.238 6.238 0 0 1-6.3-5.7 6.098 6.098 0 0 1 6.09-6.52h75c22.52 0 28 13.51 28.11 18.23a6.112 6.112 0 0 1-5.76 6.27l-.41.03Zm-6.11-6.12a4.67 4.67 0 0 0 .06.8v-.33c0-.11-.06-.32-.06-.47Z" fill="#fff"/><path d="M771.789 941.191h-81.27a4.752 4.752 0 0 1-3.382-1.515 4.745 4.745 0 0 1-1.258-3.485c.1-8.78 3.26-13.38.4-30.53l-1.15-.86 4.75-.67.33 2c2.84 17.05-4.19 31 .29 31h81.29v4.06Z" fill="#868A91"/><path d="M774.182 941.851h-80.76c-10 0-.75-17.63-4.24-35.63l4.11-.75c2.47 14.84-3.55 32.31 1.48 32.31h79.41v4.07Z" fill="#61656D"/><path d="m792.651 1082.55-19.6-139.35a6.27 6.27 0 0 0-5.95-5.2h-60.38a6.297 6.297 0 0 0-6 5.16l-19.55 139.35h-4.37l19.9-139.92a10.385 10.385 0 0 1 3.444-6.127 10.382 10.382 0 0 1 6.556-2.533h60.4a10.386 10.386 0 0 1 10 8.66l19.9 139.96h-4.35Z" fill="#868A91"/><path d="M681.11 1083.32 700.22 944c.5-3.37-1.09-6.74 2.31-6.74l56.19 1.23a7.61 7.61 0 0 1 7.2 6.2l19.54 137.89h7.18l-18.4-138.61c-.85-5.72-8.55-10.16-14.34-10.16l-58.77-.21a12.555 12.555 0 0 0-12 10.37l-19.79 139.38 11.77-.03Z" fill="#868A91"/><g opacity=".5"><g opacity=".5"><path opacity=".5" d="m792.65 1082.55-19.6-139.35a6.27 6.27 0 0 0-5.95-5.2h-60.38a6.3 6.3 0 0 0-6 5.16l-19.66 140.12h-4.38l20-140.69a10.389 10.389 0 0 1 10-8.66h60.37a10.386 10.386 0 0 1 10 8.66L797 1082.55h-4.35Z" fill="#000"/></g></g><path d="m589.832 903.699-14.37-104.88c-.27-1.82-6.51-2.58-6.15-4.2 1.3-5.82 12.65-11 19.25-11h73.3a18.406 18.406 0 0 1 11.512 4.464 18.408 18.408 0 0 1 6.098 10.736l14.14 108.1-4.19 1h-98.95l-.64-4.22Z" fill="#61656D"/><path d="M588.571 783.619h73.3a18.305 18.305 0 0 1 14.43 7.64 1.99 1.99 0 0 1-.93-.65c-2.09-2.33-4 2.55-4 4.42 0 1.47-65.95 7.74-95 10.18l-.94-6.39c-.27-1.82-6.51-2.58-6.15-4.2 1.33-5.82 12.72-11 19.29-11Z" fill="#61656D"/><path d="M581.91 907.9 567.54 803a12.903 12.903 0 0 1 7.51-14.121 12.894 12.894 0 0 1 5.6-1.079h76.8a18.408 18.408 0 0 1 17.61 15.2l14.37 104.88s-22.81 5.82-59.11 5.82-48.41-5.8-48.41-5.8Z" fill="#868A91"/><g opacity=".5"><g opacity=".5"><g opacity=".5"><path opacity=".5" d="M689.629 941.85h-94l1.44 1.51h92.19l.37-1.51Z" fill="#000"/></g></g></g></svg>