<svg class="gridItem__media" xmlns="http://www.w3.org/2000/svg" width="1600" height="1200" style="enable-background:new 0 0 1600 1200" xml:space="preserve" fill="none"><path d="m328.67 968.12-106.4-382.23a34.11 34.11 0 0 1 3.92-27.19l196.29-314.83a34.105 34.105 0 0 1 30.38-16L1153.17 274a34.081 34.081 0 0 1 18.72 6.564 34.076 34.076 0 0 1 11.9 15.876L1375.54 575a58.18 58.18 0 0 1 3.08 26.77l-123.7 366.37-926.25-.02Z" fill="#F4F4F4"/><path d="M1332.65 971.3H258.17a1.61 1.61 0 0 1 0-3.18h1074.48c.38.06.72.253.97.545.25.291.39.662.39 1.045 0 .383-.14.754-.39 1.045-.25.292-.59.485-.97.545Z" fill="#B2B6BB"/><path d="M1119 363.84H461.55V816H1119V363.84Z" class="change-color-in-svg" fill="#4D61FC" style="fill:#158566"/><path opacity=".8" d="M1119 363.84H461.55V816H1119V363.84Z" fill="#fff"/><path d="M1086 429.72H495.39v-30.9H1086v30.9Zm-589.61-1H1085v-28.9H496.39v28.9Z" class="change-color-in-svg" fill="#4D61FC" style="fill:#158566"/><path d="M738.42 399.32h-1v29.56h1v-29.56ZM1084 556.85H913.46V447.06H1084v109.79Zm-169.53-1H1083V448.06H914.46l.01 107.79Z" class="change-color-in-svg" fill="#4D61FC" style="fill:#158566"/><path d="M1083.49 463.74H913.96v1h169.53v-1Z" class="change-color-in-svg" fill="#4D61FC" style="fill:#158566"/><path d="M1001.89 447.22h-1v17.02h1v-17.02ZM1083.26 573.64H914.18v1h169.08v-1ZM1083.26 585.13H914.18v1h169.08v-1ZM1083.26 595.45H914.18v1h169.08v-1ZM664.56 736.79H494V627h170.56v109.79Zm-169.52-1h168.52V628H495l.04 107.79Z" class="change-color-in-svg" fill="#4D61FC" style="fill:#158566"/><path d="M664.07 643.69H494.54v1h169.53v-1Z" class="change-color-in-svg" fill="#4D61FC" style="fill:#158566"/><path d="M582.47 627.17h-1v17.02h1v-17.02ZM663.84 753.59H494.76v1h169.08v-1ZM663.84 765.08H494.76v1h169.08v-1ZM663.84 775.39H494.76v1h169.08v-1ZM874.28 736.79H703.75V627h170.53v109.79Zm-169.53-1h168.53V628H704.75v107.79Z" class="change-color-in-svg" fill="#4D61FC" style="fill:#158566"/><path d="M873.78 643.69H704.25v1h169.53v-1Z" class="change-color-in-svg" fill="#4D61FC" style="fill:#158566"/><path d="M792.18 627.17h-1v17.02h1v-17.02ZM873.55 753.59H704.47v1h169.08v-1ZM873.55 765.08H704.47v1h169.08v-1ZM873.55 775.39H704.47v1h169.08v-1ZM1084 736.79H913.46V627H1084v109.79Zm-169.53-1H1083V628H914.46l.01 107.79Z" class="change-color-in-svg" fill="#4D61FC" style="fill:#158566"/><path d="M1083.49 643.69H913.96v1h169.53v-1Z" class="change-color-in-svg" fill="#4D61FC" style="fill:#158566"/><path d="M1001.89 627.17h-1v17.02h1v-17.02ZM1083.26 753.59H914.18v1h169.08v-1ZM1083.26 765.08H914.18v1h169.08v-1ZM1083.26 775.39H914.18v1h169.08v-1ZM664.56 556.85H494v-109.8h170.56v109.8Zm-169.52-1h168.52v-107.8H495l.04 107.8Z" class="change-color-in-svg" fill="#4D61FC" style="fill:#158566"/><path d="M664.07 463.74H494.54v1h169.53v-1Z" class="change-color-in-svg" fill="#4D61FC" style="fill:#158566"/><path d="M582.47 447.22h-1v17.02h1v-17.02ZM663.84 573.64H494.76v1h169.08v-1ZM663.84 585.13H494.76v1h169.08v-1ZM663.84 595.45H494.76v1h169.08v-1ZM629.39 509a.192.192 0 0 1-.18-.14c-.37-1.64-.67-1.95-2.31-2.31a.192.192 0 0 1-.14-.18.179.179 0 0 1 .14-.18c1.64-.37 1.94-.68 2.31-2.32a.195.195 0 0 1 .074-.082.199.199 0 0 1 .286.082c.37 1.64.67 2 2.31 2.32a.178.178 0 0 1 .108.062.176.176 0 0 1 .042.118.19.19 0 0 1-.15.18c-1.64.36-1.94.67-2.31 2.31a.174.174 0 0 1-.065.102.177.177 0 0 1-.115.038Zm-2-2.63a2.004 2.004 0 0 0 1.965 1.628 2.002 2.002 0 0 0 1.54-3.276 1.987 1.987 0 0 0-1.54-.724 2.002 2.002 0 0 0-1.937 1.501 2 2 0 0 0-.028.871Zm4.39-.12v.15-.15ZM646.39 490a.192.192 0 0 1-.18-.14c-.37-1.64-.67-1.95-2.31-2.31a.192.192 0 0 1-.14-.18.179.179 0 0 1 .14-.18c1.64-.37 1.94-.68 2.31-2.32a.195.195 0 0 1 .074-.082.199.199 0 0 1 .286.082c.37 1.64.67 2 2.31 2.32a.178.178 0 0 1 .108.062.176.176 0 0 1 .042.118.19.19 0 0 1-.15.18c-1.64.36-1.94.67-2.31 2.31a.174.174 0 0 1-.065.102.177.177 0 0 1-.115.038Zm-2-2.63a2.004 2.004 0 0 0 1.965 1.628 2.002 2.002 0 0 0 1.54-3.276 1.987 1.987 0 0 0-1.54-.724 2.002 2.002 0 0 0-1.937 1.501 2 2 0 0 0-.028.871Zm4.39-.12v.15-.15ZM540.39 488a.192.192 0 0 1-.18-.14c-.37-1.64-.67-1.95-2.31-2.31a.192.192 0 0 1-.14-.18.179.179 0 0 1 .14-.18c1.64-.37 1.94-.68 2.31-2.32a.195.195 0 0 1 .074-.082.199.199 0 0 1 .286.082c.37 1.64.67 2 2.31 2.32a.178.178 0 0 1 .108.062.176.176 0 0 1 .042.118.19.19 0 0 1-.15.18c-1.64.36-1.94.67-2.31 2.31a.174.174 0 0 1-.065.102.177.177 0 0 1-.115.038Zm-2-2.63a2.004 2.004 0 0 0 1.965 1.628 2.002 2.002 0 0 0 1.54-3.276 1.987 1.987 0 0 0-1.54-.724 2.002 2.002 0 0 0-1.937 1.501 2 2 0 0 0-.028.871Zm4.39-.12v.15-.15ZM510.45 515a.159.159 0 0 1-.16-.13c-.23-1-.4-1.17-1.4-1.4h-.12v-.15a.159.159 0 0 1 .13-.16c1-.23 1.17-.4 1.4-1.4v-.12h.14a.169.169 0 0 1 .17.13c.23 1 .4 1.17 1.4 1.4h.11v.14a.169.169 0 0 1-.13.17c-1 .23-1.17.4-1.4 1.4v.11l-.14.01Zm-1-1.7a1.33 1.33 0 0 1 1 1 1.355 1.355 0 0 1 1-1 1.33 1.33 0 0 1-1-1 1.297 1.297 0 0 1-1.02.97l.02.03ZM600.45 542a.159.159 0 0 1-.16-.13c-.23-1-.4-1.17-1.4-1.4h-.12v-.15a.159.159 0 0 1 .13-.16c1-.23 1.17-.4 1.4-1.4v-.12h.14a.169.169 0 0 1 .17.13c.23 1 .4 1.17 1.4 1.4h.11v.14a.169.169 0 0 1-.13.17c-1 .23-1.17.4-1.4 1.4v.11l-.14.01Zm-1-1.7a1.33 1.33 0 0 1 1 1 1.355 1.355 0 0 1 1-1 1.33 1.33 0 0 1-1-1 1.297 1.297 0 0 1-1.02.97l.02.03ZM605.45 477a.159.159 0 0 1-.16-.13c-.23-1-.4-1.17-1.4-1.4h-.12v-.15a.159.159 0 0 1 .13-.16c1-.23 1.17-.4 1.4-1.4v-.12h.14a.169.169 0 0 1 .17.13c.23 1 .4 1.17 1.4 1.4h.11v.14a.169.169 0 0 1-.13.17c-1 .23-1.17.4-1.4 1.4v.11l-.14.01Zm-1-1.7a1.33 1.33 0 0 1 1 1 1.355 1.355 0 0 1 1-1 1.33 1.33 0 0 1-1-1 1.297 1.297 0 0 1-1.02.97l.02.03ZM542.39 544a.192.192 0 0 1-.18-.14c-.37-1.64-.67-2-2.31-2.31a.192.192 0 0 1-.14-.18.179.179 0 0 1 .14-.18c1.64-.37 1.94-.68 2.31-2.32a.195.195 0 0 1 .074-.082.199.199 0 0 1 .286.082c.37 1.64.67 1.95 2.31 2.32a.178.178 0 0 1 .108.062.176.176 0 0 1 .042.118.19.19 0 0 1-.15.18c-1.64.36-1.94.67-2.31 2.31a.174.174 0 0 1-.065.102.177.177 0 0 1-.115.038Zm-2-2.63a2.004 2.004 0 0 0 1.965 1.628 2.002 2.002 0 0 0 1.54-3.276 1.987 1.987 0 0 0-1.54-.724 1.988 1.988 0 0 0-1.54.724 2.001 2.001 0 0 0-.425 1.648Zm4.39-.12v.15-.15ZM569.88 489.66a4.29 4.29 0 1 1 0-8.579 4.29 4.29 0 0 1 0 8.579Zm0-8a3.71 3.71 0 1 0 2.613 1.09 3.7 3.7 0 0 0-2.613-1.08v-.01ZM514.58 495.12a.997.997 0 0 0 1-1 1 1 0 1 0-1 1ZM524.27 541a.997.997 0 0 0 1-1 .997.997 0 0 0-1-1 .997.997 0 0 0-1 1 .997.997 0 0 0 1 1ZM568.84 531.5a.997.997 0 0 0 1-1 .997.997 0 0 0-1-1 .997.997 0 0 0-1 1 .997.997 0 0 0 1 1ZM646.11 477.05a1.557 1.557 0 0 0 1.56-1.56 1.558 1.558 0 0 0-2.663-1.103 1.558 1.558 0 0 0 1.103 2.663ZM540.54 524.77a9.15 9.15 0 1 1-.003-18.302 9.15 9.15 0 0 1 .003 18.302Zm0-18a8.848 8.848 0 0 0-8.169 5.47 8.852 8.852 0 0 0 6.456 12.061 8.848 8.848 0 0 0 10.573-8.681 8.87 8.87 0 0 0-8.86-8.85Z" class="change-color-in-svg" fill="#4D61FC" style="fill:#158566"/><path d="M539.15 524.48h-.3a3.493 3.493 0 0 0-1-2.59c-1.73-1.7-5-1.67-5.09-1.67v-.3c.14 0 3.48 0 5.3 1.76a3.774 3.774 0 0 1 1.09 2.8ZM533.93 515.16a3.435 3.435 0 0 1-2.34-1.12l.22-.2a2.912 2.912 0 0 0 2.9.88 1.78 1.78 0 0 0 1.11-1.76v-.59a2.084 2.084 0 0 1 1.2-2.07 2.002 2.002 0 0 1 1.41 0 4.343 4.343 0 0 0 2.38.26 2.12 2.12 0 0 0 1.43-1 3.503 3.503 0 0 0 0-2.74l.29-.08a3.762 3.762 0 0 1-.08 3 2.407 2.407 0 0 1-1.62 1.08 4.716 4.716 0 0 1-2.55-.27 1.71 1.71 0 0 0-1.2 0 1.764 1.764 0 0 0-1 1.77v.59a2.09 2.09 0 0 1-1.3 2.06c-.271.11-.558.174-.85.19ZM541.67 521.53h-.22c-1.12-.27-1.75-1.24-1.84-2.78a6.274 6.274 0 0 1 1.3-4.21 6.429 6.429 0 0 1 1.66-1.55 4.002 4.002 0 0 1 3.44-.76 3.17 3.17 0 0 1 2 4.14 3.072 3.072 0 0 1-2.24 1.77 2.258 2.258 0 0 0-1.89 1.69 2.003 2.003 0 0 1-2.21 1.7Zm3.43-9.13a4.057 4.057 0 0 0-2.37.84 5.907 5.907 0 0 0-1.58 1.48 5.999 5.999 0 0 0-1.24 4c.08 1.42.62 2.27 1.6 2.51 0 0 1.89.18 2.11-1.45a2.488 2.488 0 0 1 2.11-1.94 2.81 2.81 0 0 0 1.19-.556c.348-.276.625-.63.81-1.034a2.685 2.685 0 0 0 0-2.1 2.764 2.764 0 0 0-1.78-1.64 3.435 3.435 0 0 0-.85-.11ZM587.05 526.19a17.938 17.938 0 0 1-13.829-29.359 17.939 17.939 0 0 1 31.449 8.009 18.003 18.003 0 0 1-14.2 21 18.103 18.103 0 0 1-3.42.35Zm.05-35.47a17.53 17.53 0 1 0 17.16 14.2 17.534 17.534 0 0 0-17.16-14.2Z" class="change-color-in-svg" fill="#4D61FC" style="fill:#158566"/><path d="M576.75 509.11c-4.34 0-6.43-1.6-7.44-3.1v-.14a17.893 17.893 0 0 1 2.2-6.5l.13-.22.19.17c4.6 4 11.42 3.2 16.33 1.82a21.336 21.336 0 0 0 10-6.77l.13-.15.16.12a17.812 17.812 0 0 1 5.72 8.3l.1.31h-.32a21.136 21.136 0 0 0-6.45.36 57.796 57.796 0 0 0-7 2.31c-3.61 1.35-7.71 2.87-10.51 3.28a22.799 22.799 0 0 1-3.24.21Zm-7-3.27c1.19 1.72 3.92 3.53 10.2 2.61 2.76-.41 6.83-1.92 10.43-3.26a57.605 57.605 0 0 1 7-2.33 21.857 21.857 0 0 1 6.25-.4 17.368 17.368 0 0 0-5.33-7.67 21.494 21.494 0 0 1-10 6.75c-4.94 1.39-11.78 2.19-16.52-1.74a17.3 17.3 0 0 0-2.08 6.04h.05ZM587 526.19a17.95 17.95 0 0 1-3-.25l-.27-.05.12-.25a14.541 14.541 0 0 1 1.91-2.91c3.73-4.27 10.41-5.06 11.16-5.14a10.203 10.203 0 0 0 6.44-3l.72-.75-.38 1a17.867 17.867 0 0 1-13.27 11c-1.13.225-2.278.343-3.43.35Zm-2.65-.62a17.552 17.552 0 0 0 18.58-10 10.836 10.836 0 0 1-6 2.41c-.73.07-7.26.85-10.89 5a14.513 14.513 0 0 0-1.65 2.59h-.04ZM575.68 522.11l-.08-.06a17.836 17.836 0 0 1-5.86-9.13v-.14l.11-.08c1-.75 4.35-2.4 14.37-1.63 3.142.287 6.306.246 9.44-.12 7.22-.95 9.79-3.85 10.67-5.5l.05-.09h.13l.26-.16v.3l.06.44c0 .19 0 .34.06.49 0 .33.06.67.08 1 .02.33 0 .6 0 .89v1.52c0 .14 0 .29-.05.44v.37c0 .28-.08.55-.13.82v.07c-.8 1-2.19 1.75-4.39 2.29a29.598 29.598 0 0 1-4.69.58 48.185 48.185 0 0 0-9.63 1.5 21.563 21.563 0 0 0-9.83 5.9l-.27.28-.3.02Zm-5.5-9.16a17.392 17.392 0 0 0 5.54 8.66l.14-.14a21.828 21.828 0 0 1 10-6 48.466 48.466 0 0 1 9.71-1.51 29.429 29.429 0 0 0 4.62-.58c2-.49 3.4-1.17 4.12-2.07 0-.25.08-.5.12-.75v-.79a3.23 3.23 0 0 0 0-.44v-.85a1.335 1.335 0 0 0 0-.2v-.87c0-.33 0-.65-.07-1v-.4c-1.09 1.75-3.87 4.44-10.77 5.34a46.32 46.32 0 0 1-9.52.13c-9.44-.73-12.81.72-13.89 1.52v-.05Z" class="change-color-in-svg" fill="#4D61FC" style="fill:#158566"/><g opacity=".5"><path opacity=".5" d="M576.75 509.11c-4.34 0-6.43-1.6-7.44-3.1v-.14a17.893 17.893 0 0 1 2.2-6.5l.13-.22.19.17c4.6 4 11.42 3.2 16.33 1.82a21.336 21.336 0 0 0 10-6.77l.13-.15.16.12a17.812 17.812 0 0 1 5.72 8.3l.1.31h-.32a21.136 21.136 0 0 0-6.45.36 57.796 57.796 0 0 0-7 2.31c-3.61 1.35-7.71 2.87-10.51 3.28a22.799 22.799 0 0 1-3.24.21Zm-7-3.27c1.19 1.72 3.92 3.53 10.2 2.61 2.76-.41 6.83-1.92 10.43-3.26a57.605 57.605 0 0 1 7-2.33 21.857 21.857 0 0 1 6.25-.4 17.368 17.368 0 0 0-5.33-7.67 21.494 21.494 0 0 1-10 6.75c-4.94 1.39-11.78 2.19-16.52-1.74a17.3 17.3 0 0 0-2.08 6.04h.05ZM587 526.19a17.742 17.742 0 0 1-3-.25l-.27-.05.12-.25a14.598 14.598 0 0 1 1.91-2.91c3.73-4.27 10.41-5.06 11.16-5.14a10.198 10.198 0 0 0 6.44-3l.72-.75-.38 1a17.854 17.854 0 0 1-13.27 11c-1.13.226-2.278.343-3.43.35Zm-2.65-.62a17.545 17.545 0 0 0 18.58-10 10.822 10.822 0 0 1-6 2.41c-.73.07-7.26.85-10.89 5a14.55 14.55 0 0 0-1.65 2.59h-.04ZM575.68 522.11l-.08-.06a17.836 17.836 0 0 1-5.86-9.13v-.14l.11-.08c1-.75 4.35-2.4 14.37-1.63 3.142.287 6.306.246 9.44-.12 7.22-.95 9.79-3.85 10.67-5.5l.05-.09h.13l.26-.16v.3l.06.44c0 .19 0 .34.06.49 0 .33.06.67.08 1 .02.33 0 .6 0 .89v1.52c0 .14 0 .29-.05.44v.37c0 .28-.08.55-.13.82v.07c-.8 1-2.19 1.75-4.39 2.29a29.598 29.598 0 0 1-4.69.58 48.185 48.185 0 0 0-9.63 1.5 21.563 21.563 0 0 0-9.83 5.9l-.27.28-.3.02Zm-5.5-9.16a17.392 17.392 0 0 0 5.54 8.66l.14-.14a21.828 21.828 0 0 1 10-6 48.466 48.466 0 0 1 9.71-1.51 29.429 29.429 0 0 0 4.62-.58c2-.49 3.4-1.17 4.12-2.07 0-.25.08-.5.12-.75v-.79a3.23 3.23 0 0 0 0-.44v-.85a1.335 1.335 0 0 0 0-.2v-.87c0-.33 0-.65-.07-1v-.4c-1.09 1.75-3.87 4.44-10.77 5.34a46.32 46.32 0 0 1-9.52.13c-9.44-.73-12.81.72-13.89 1.52v-.05Z" class="change-color-in-svg" fill="#4D61FC" style="fill:#158566"/></g><path d="M577.54 500.52a1.776 1.776 0 0 1-1.9-1.17c-.16-.86.68-1.74 1.89-2s2.31.27 2.48 1.12c.16.85-.68 1.73-1.89 2a2.818 2.818 0 0 1-.58.05Zm.58-2.9a2.648 2.648 0 0 0-.54.05c-1 .2-1.78.93-1.64 1.62.14.69 1.09 1.09 2.13.89 1.04-.2 1.78-.93 1.65-1.62-.11-.56-.78-.94-1.6-.94ZM574.42 504.81a1.64 1.64 0 0 1-.6-.11.84.84 0 0 1-.56-.6c-.1-.52.42-1.05 1.19-1.2.77-.15 1.44.15 1.54.67.1.52-.42 1.05-1.18 1.2a1.705 1.705 0 0 1-.39.04Zm.41-1.65h-.33c-.58.12-1 .51-1 .85a.535.535 0 0 0 .38.38c.261.102.547.123.82.06.58-.11 1-.5 1-.85s-.42-.44-.87-.44ZM598.06 516.67a1.555 1.555 0 0 1-1.006-.208 1.554 1.554 0 0 1-.654-.792c-.14-.74.61-1.51 1.67-1.71a2.46 2.46 0 0 1 1.41.11 1.11 1.11 0 0 1 .38 1.94 2.543 2.543 0 0 1-1.27.63c-.175.03-.353.04-.53.03Zm.54-2.49a2.65 2.65 0 0 0-.47.05c-.91.17-1.55.79-1.44 1.37.11.58.94.91 1.84.73a2.19 2.19 0 0 0 1.12-.55.918.918 0 0 0 .35-.78.924.924 0 0 0-.6-.63 1.93 1.93 0 0 0-.8-.19ZM585.68 524a1.769 1.769 0 0 1-.77-.17 1.14 1.14 0 0 1-.65-.78 1.657 1.657 0 0 1 1.341-1.516 1.66 1.66 0 0 1 1.809.906 1.127 1.127 0 0 1-.31 1 1.863 1.863 0 0 1-1 .56c-.14.012-.28.012-.42 0Zm.31-2.21c-.11-.01-.22-.01-.33 0-.71.14-1.2.66-1.1 1.17a.787.787 0 0 0 .48.57c.312.146.664.184 1 .11.334-.057.639-.222.87-.47a.79.79 0 0 0 .23-.7 1 1 0 0 0-1.14-.68h-.01ZM562 521.81c-2 0-3.63-.37-4-1.43-.8-2 3.45-5.84 11.38-10.2l.29-.16v.33c.05.42.12.83.19 1.23 0 .15.06.3.1.45v.15l-.13.1c-3.75 2.38-5.75 4.41-5.35 5.44.4 1.03 3.34 1.14 7.83.28a99.06 99.06 0 0 0 16.54-5.09 97.883 97.883 0 0 0 15.56-7.61c3.86-2.43 5.91-4.5 5.5-5.54-.41-1.04-3.24-1.13-7.59-.32h-.15l-.08-.14a16.399 16.399 0 0 0-1-1.48l-.2-.27.32-.08c9-2.33 14.87-2.49 15.68-.42 1.18 3-8.05 8.33-12.07 10.5a153.005 153.005 0 0 1-31.31 12.32 53.407 53.407 0 0 1-11.51 1.94Zm7.26-11.08c-7.31 4.06-11.58 7.77-10.89 9.49.69 1.72 6.47 1.49 15.06-.75a151.808 151.808 0 0 0 31.22-12.28c7.91-4.27 12.57-8.17 11.87-9.95-.7-1.78-6.51-1.52-14.84.61.26.36.5.74.73 1.12 3.31-.6 7.3-1 7.94.63.64 1.63-2.73 4.22-5.68 6.08a111.568 111.568 0 0 1-32.26 12.75c-3.43.67-7.67 1.11-8.32-.55-.65-1.66 2.55-4.08 5.39-5.9 0-.11 0-.21-.07-.32-.03-.3-.09-.61-.13-.93h-.02Z" class="change-color-in-svg" fill="#4D61FC" style="fill:#158566"/><path d="m638.1 527.9.4-.41c-.13.15-.27.27-.4.41ZM633.14 537.09c.1-.41.21-.81.34-1.21-.12.4-.24.8-.34 1.21ZM640.8 525.48c.21-.16.44-.31.66-.46-.22.15-.46.3-.66.46ZM642.41 524.38c.23-.14.48-.27.72-.4-.24.14-.49.26-.72.4ZM633.72 535.11l-.06.21c.021-.069.047-.136.08-.2l-.02-.01ZM639.3 526.72l.61-.52-.61.52ZM632.69 547.37l.08.32v-.06l-.08-.26ZM632.16 539.5c0-.21.07-.42.1-.64-.03.22-.07.43-.1.64ZM643 523.49c.36-.2.71-.4 1.09-.58-.42.18-.77.38-1.09.58ZM632.35 545.82c-.05-.26-.08-.52-.12-.77.04.25.07.51.12.77ZM632.1 544l-.06-.83.06.83ZM632.48 537.64c0-.25.12-.49.18-.74-.06.25-.13.49-.18.74ZM638.06 527.23ZM633 535.75c.07-.23.14-.45.22-.67-.1.22-.17.44-.22.67ZM632.76 539ZM632.75 545ZM632.54 541.27c0-.57.06-1.13.13-1.7-.07.57-.11 1.13-.13 1.7ZM633.19 547.27ZM639.53 525.85c.34-.28.67-.56 1-.82-.33.26-.66.54-1 .82ZM641.18 524.59c.35-.24.7-.48 1.06-.7-.36.22-.71.46-1.06.7ZM632.56 543.09v-1.13c-.03.38-.02.75 0 1.13Z" fill="#000"/><path d="M642.18 555.23c-.621.163-1.232.364-1.83.6H642l.33-.1a16.243 16.243 0 0 1 7.32.1h2a18.134 18.134 0 0 0-9.47-.6Z" class="change-color-in-svg" fill="#4D61FC" style="fill:#158566"/><path d="M653.29 521.29c2.928.003 5.821.627 8.49 1.83.641.299 1.265.633 1.87 1v-.58c-.54-.3-1.09-.59-1.66-.85a21.164 21.164 0 0 0-16.27-.47c-.42.16-.81.35-1.21.53l-.29.14-.17.09c-.38.18-.73.38-1.09.58-.36.2-.49.26-.72.4-.23.14-.71.46-1.06.7-.35.24-.43.29-.63.44-.2.15-.68.54-1 .82-.19.16-.38.31-.56.48-.18.17-.62.59-.91.9-.13.13-.28.25-.4.39l-.07.07a21.475 21.475 0 0 0-3.72 5.65c-.18.41-.33.83-.49 1.25l-.06.16c0 .1-.06.21-.1.31-.04.1-.15.44-.22.67-.07.23-.22.77-.32 1.15-.1.38-.13.49-.18.74-.09.41-.15.82-.22 1.22 0 .22-.07.43-.1.64-.07.59-.11 1.17-.14 1.76v1.87l.06.83c0 .36.08.72.13 1.09.05.37.07.51.12.77.09.52.21 1 .34 1.55l.06.26v.06c.17.63.38 1.27.61 1.89a21.391 21.391 0 0 0 3.69 6.2h.67a21 21 0 0 1-3.88-6.38c-.21-.56-.38-1.12-.54-1.69h.15a25.465 25.465 0 0 1 13.56 1 56.872 56.872 0 0 1 10.35 5.12c1.28.76 2.44 1.44 3.55 2h1.24a40.708 40.708 0 0 1-4.53-2.44 57.517 57.517 0 0 0-10.44-5.16 25.278 25.278 0 0 0-8.62-1.5 28.443 28.443 0 0 0-5.2.5h-.2c-.14-.54-.26-1.08-.35-1.62 0-.22-.06-.43-.09-.65-.06-.38-.11-.77-.14-1.15-.03-.38 0-.51-.05-.76s0-.75 0-1.13v-.69c0-.57.06-1.13.13-1.7 0-.19.06-.38.09-.58.06-.41.13-.82.22-1.23 0-.22.1-.45.16-.67.1-.41.22-.81.34-1.21.06-.18.11-.37.18-.56l.06-.21c1.57 0 5.83.94 14.51 8.11a54.96 54.96 0 0 0 9.32 6.37 27.372 27.372 0 0 0 6.08 2.4v-.54a27.331 27.331 0 0 1-5.84-2.31 55.028 55.028 0 0 1-9.24-6.32c-8.46-7-12.85-8.13-14.63-8.22.13-.35.25-.7.4-1a20.834 20.834 0 0 1 3.27-5.13c.19 2.58 1.9 6.12 8.37 9.38 3 1.52 8 2.83 12.43 4 1.88.5 3.69 1 5.24 1.44v-.54c-1.53-.45-3.29-.92-5.11-1.39-4.4-1.16-9.38-2.47-12.33-4-6.68-3.37-8.11-7-8.11-9.44.13-.14.27-.26.4-.39s.53-.54.8-.79l.61-.52c.29-.24.58-.49.89-.72.31-.23.44-.31.66-.46.22-.15.62-.44.95-.64.33-.2.48-.26.72-.4s.65-.38 1-.54c1.92 7 9.1 10.92 14.83 13 1.511.508 3.074.844 4.66 1v-.52a20.523 20.523 0 0 1-4.48-1c-5.64-2-12.7-5.8-14.52-12.67.41-.19.82-.39 1.25-.55a20.86 20.86 0 0 1 7.43-1.44Z" class="change-color-in-svg" fill="#4D61FC" style="fill:#158566"/><path d="M644.44 531.31c-1.18-.51-2.42-.26-2.78.55-.36.81.31 1.9 1.49 2.41a3.07 3.07 0 0 0 1.23.27c.143.016.287.016.43 0a1.41 1.41 0 0 0 1.11-.78c.36-.86-.31-1.94-1.48-2.45Zm1.17 2.27a1.102 1.102 0 0 1-.86.59 2.66 2.66 0 0 1-1.47-.21c-1-.44-1.58-1.32-1.3-2 .28-.68 1.32-.81 2.32-.38 1 .43 1.59 1.36 1.31 2ZM660.22 532.41a1.31 1.31 0 0 0-.593.238 1.313 1.313 0 0 0-.407.492 1.717 1.717 0 0 0 1.15 2.09c.292.132.609.2.93.2a1.446 1.446 0 0 0 1.39-.78 1.717 1.717 0 0 0-1.15-2.1 2.19 2.19 0 0 0-1.32-.14Zm2.21 2.1a1.388 1.388 0 0 1-1.87.41c-.78-.34-1.22-1.08-1-1.64a.998.998 0 0 1 .71-.54 1.824 1.824 0 0 1 1.16.13c.81.34 1.25 1.13 1 1.64ZM645 544.53a.995.995 0 0 0-.62-.07.616.616 0 0 0-.44.34.597.597 0 0 0 0 .55 1.047 1.047 0 0 0 .89.5.67.67 0 0 0 .64-.36.626.626 0 0 0 0-.55 1.003 1.003 0 0 0-.47-.41Zm.33.87c-.1.24-.46.31-.79.17a.828.828 0 0 1-.37-.32.413.413 0 0 1 .29-.59h.16a.783.783 0 0 1 .33.07.76.76 0 0 1 .38.32.399.399 0 0 1 .02.35h-.02ZM874.27 556.85H703.75v-109.8h170.52v109.8Zm-169.52-1h168.52v-107.8H704.75v107.8Z" class="change-color-in-svg" fill="#4D61FC" style="fill:#158566"/><path d="M873.78 463.74H704.25v1h169.53v-1Z" class="change-color-in-svg" fill="#4D61FC" style="fill:#158566"/><path d="M792.18 447.22h-1v17.02h1v-17.02ZM873.55 573.64H704.47v1h169.08v-1ZM873.55 585.13H704.47v1h169.08v-1ZM873.55 595.45H704.47v1h169.08v-1ZM858.55 483.26a10.493 10.493 0 0 0-10.333 12.515 10.49 10.49 0 1 0 10.333-12.515Zm0 20.3a9.822 9.822 0 0 1-9.631-11.736 9.82 9.82 0 0 1 19.451 1.916 9.833 9.833 0 0 1-9.82 9.82ZM861.86 522.5c3.41 0 3.42-5.31 0-5.31s-3.42 5.31 0 5.31ZM753.79 545c3.42 0 3.42-5.31 0-5.31s-3.42 5.31 0 5.31ZM745.62 492.28c3.41 0 3.42-5.3 0-5.3s-3.42 5.3 0 5.3ZM796.83 539.6a31.132 31.132 0 0 1-24.962-49.878 31.13 31.13 0 1 1 35.962 47.828 31.008 31.008 0 0 1-11 2.05Zm0-61.33a30.311 30.311 0 0 0-24.642 48.054 30.311 30.311 0 0 0 53.366-8.275 30.309 30.309 0 0 0-28.694-39.779h-.03Z" class="change-color-in-svg" fill="#4D61FC" style="fill:#158566"/><path d="m826.36 518.14-.44-.39a36.458 36.458 0 0 0-9.46-5.9 101.672 101.672 0 0 0-12.14-3.65c-6.45-1.7-13.75-3.61-18.12-5.82-10.26-5.18-12.32-10.81-12.24-14.63v-.15l.1-.1a30.917 30.917 0 0 1 9.57-7l.42-.2.11.45c2.52 10.23 13 15.87 21.26 18.8 9.1 3.2 17.92 1 20.82.34l.35-.09.11.35a30.868 30.868 0 0 1-.17 17.43l-.17.56Zm-51.65-30.24c0 3.61 2 8.88 11.83 13.81 4.29 2.17 11.56 4.08 18 5.76a101 101 0 0 1 12.25 3.7 37.996 37.996 0 0 1 9.22 5.64 30.086 30.086 0 0 0 .09-16.11c-3.27.79-11.93 2.71-20.9-.44-8.36-2.95-18.84-8.62-21.63-18.89a30.331 30.331 0 0 0-8.86 6.53ZM796.87 539.6a31.148 31.148 0 0 1-21.89-9l-.35-.35.43-.24a24.86 24.86 0 0 1 5.6-2.22c9.53-2.33 19.76 3.19 20.89 3.83a17.596 17.596 0 0 0 12 2.22l1.85-.35-1.57 1a30.992 30.992 0 0 1-16.96 5.11Zm-21-9.2a30.334 30.334 0 0 0 36.13 4.39 18.733 18.733 0 0 1-10.78-2.54c-1.1-.62-11.1-6-20.35-3.76a25.13 25.13 0 0 0-5 1.91ZM816.31 531a17.582 17.582 0 0 1-6.25-1.46 52.25 52.25 0 0 1-7.21-3.84 83.029 83.029 0 0 0-15.1-7.46 37.163 37.163 0 0 0-19.75-1.4l-.66.11h-.12l-.26-.13-.05-.16a30.882 30.882 0 0 1 .8-18.75l.09-.23h.2c2.13-.09 8.55.93 21.94 12a79.218 79.218 0 0 0 13.46 9.21c11.15 5.84 17.66 4.28 20.54 2.84l.16-.08h.77l-.22.5-.37.74c-.13.25-.25.47-.38.7-.28.51-.57 1-.88 1.49-.31.49-.56.87-.86 1.28-.06.1-.14.2-.21.3l-.12.16-.39.53-.4.51-.48.59c-.16.19-.33.39-.5.57l-.43.48c-.33.36-.66.7-1 1l-.14.09a7.783 7.783 0 0 1-2.18.41Zm-40.88-15.66c4.286.003 8.54.751 12.57 2.21a83.382 83.382 0 0 1 15.23 7.53 52.477 52.477 0 0 0 7.11 3.78c3.38 1.33 6 1.71 7.87 1.16.31-.31.61-.62.9-.94l.43-.48c.17-.18.33-.37.48-.55l.48-.58.37-.48c.15-.19.27-.36.39-.53l.12-.16.21-.28c.287-.42.567-.84.84-1.26.3-.48.58-1 .86-1.46l.31-.57c-3.31 1.38-9.9 2.39-20.51-3.17a81.116 81.116 0 0 1-13.59-9.3c-12.69-10.49-18.9-11.81-21.18-11.83a30 30 0 0 0-.78 17.72h.32a41.133 41.133 0 0 1 7.57-.79v-.02Z" class="change-color-in-svg" fill="#4D61FC" style="fill:#158566"/><path d="M799.42 538a5.064 5.064 0 0 1-2-.43 4.78 4.78 0 0 1-2.15-1.78 2.36 2.36 0 0 1-.28-2.24c.59-1.38 2.66-1.81 4.6-1 .874.363 1.62.979 2.14 1.77a2.412 2.412 0 0 1 .29 2.25 2.688 2.688 0 0 1-2.6 1.43Zm-1.84-5.35a2.197 2.197 0 0 0-2.13 1.1 1.936 1.936 0 0 0 .25 1.78 4.194 4.194 0 0 0 1.93 1.58c1.68.73 3.45.42 3.94-.7a1.908 1.908 0 0 0-.25-1.78 4.218 4.218 0 0 0-1.92-1.63 4.619 4.619 0 0 0-1.82-.39v.04ZM783.86 497.59a4.575 4.575 0 0 1-1.8-.39c-1.71-.74-2.68-2.32-2.16-3.51s2.33-1.56 4.05-.81c1.72.75 2.68 2.32 2.16 3.52a2.057 2.057 0 0 1-1.62 1.14 3.246 3.246 0 0 1-.63.05Zm-3.5-3.7c-.41.94.45 2.22 1.9 2.85a3.752 3.752 0 0 0 2.14.31 1.618 1.618 0 0 0 1.25-.85c.41-.94-.44-2.22-1.9-2.86-1.46-.64-3-.39-3.39.55ZM808.61 498.9a3.485 3.485 0 0 1-1.35-.29c-1.4-.61-2.15-2-1.68-3.06a1.882 1.882 0 0 1 1.38-1.07 3.193 3.193 0 0 1 2 .22c1.4.61 2.15 2 1.68 3.05a2.131 2.131 0 0 1-2.03 1.15Zm-2.61-3.15c-.36.82.28 1.9 1.42 2.4a2.001 2.001 0 0 0 2.72-.6c.36-.82-.28-1.9-1.42-2.39a2.639 2.639 0 0 0-1.69-.19 1.42 1.42 0 0 0-.593.271 1.42 1.42 0 0 0-.407.509H806ZM784.62 514.08a1.552 1.552 0 0 1-1.3-.72.855.855 0 0 1-.068-.8.852.852 0 0 1 .628-.5 1.528 1.528 0 0 1 1.6.7.876.876 0 0 1 .07.8.998.998 0 0 1-.93.52Zm-.44-1.75h-.23a.558.558 0 0 0-.46.601.555.555 0 0 0 .09.259c.129.211.322.376.55.47a.848.848 0 0 0 1.14-.24.594.594 0 0 0 0-.53 1.123 1.123 0 0 0-.55-.47c-.171-.07-.356-.1-.54-.09ZM716.27 506.05a20.624 20.624 0 0 0-11.8 3.7v.85a19.995 19.995 0 0 1 11.8-3.87c1.32.002 2.636.132 3.93.39.72 2.6.67 4.63-.16 6a4.728 4.728 0 0 1-3.24 2.14 9.837 9.837 0 0 1-5.43-.58 4.485 4.485 0 0 0-3.21 0 4.693 4.693 0 0 0-2.71 4.7c0 .48.06.93.08 1.33a4.15 4.15 0 0 1-1.06 3v.94a4.798 4.798 0 0 0 1.74-4c0-.413-.03-.864-.09-1.35a3.995 3.995 0 0 1 2.3-4 3.85 3.85 0 0 1 2.74 0c1.839.724 3.841.932 5.79.6a5.434 5.434 0 0 0 3.68-2.46c.89-1.51 1-3.6.32-6.2a20.099 20.099 0 0 1 9.007 34.862A20.1 20.1 0 0 1 716.27 547a19.707 19.707 0 0 1-3.18-.28 8.504 8.504 0 0 0-2.55-6.06 13.637 13.637 0 0 0-6.07-3.2v.72a12.793 12.793 0 0 1 5.6 3 7.868 7.868 0 0 1 2.34 5.47 20.013 20.013 0 0 1-7.94-3.48v.83a20.781 20.781 0 0 0 8.994 3.488 20.781 20.781 0 0 0 17.74-6.124 20.792 20.792 0 0 0-5.549-33.031 20.786 20.786 0 0 0-9.385-2.233v-.05Z" class="change-color-in-svg" fill="#4D61FC" style="fill:#158566"/><path d="M717.1 524.38a14.311 14.311 0 0 0-3 9.56c.2 3.51 1.63 5.7 4.19 6.33h.5c1.28 0 4.63-.35 5.09-3.89 0-.12.45-2.92 4.28-3.84a6.655 6.655 0 0 0 2.804-1.145 6.654 6.654 0 0 0 2.79-5.196 6.646 6.646 0 0 0-.594-2.969 6.909 6.909 0 0 0-4.52-4.11 9.06 9.06 0 0 0-7.82 1.73 14.105 14.105 0 0 0-3.72 3.53Zm9.52-4.84a7.17 7.17 0 0 1 1.91.26 6.526 6.526 0 0 1 4.547 5.897 6.51 6.51 0 0 1-.397 2.593 6.375 6.375 0 0 1-4.63 3.61c-4.31 1-4.78 4.28-4.8 4.41-.48 3.71-4.66 3.3-4.79 3.29-2.23-.55-3.45-2.47-3.63-5.7a13.632 13.632 0 0 1 2.81-9.1 13.833 13.833 0 0 1 3.61-3.36 9.208 9.208 0 0 1 5.37-1.9ZM844.6 526a.181.181 0 0 1-.18-.15c-.37-1.64-.67-1.94-2.31-2.31a.17.17 0 0 1-.14-.18.177.177 0 0 1 .038-.115.174.174 0 0 1 .102-.065c1.64-.37 1.94-.67 2.31-2.31a.196.196 0 0 1 .069-.094.192.192 0 0 1 .222 0 .196.196 0 0 1 .069.094c.37 1.64.67 1.94 2.31 2.31a.174.174 0 0 1 .102.065.177.177 0 0 1 .038.115.175.175 0 0 1-.035.117.172.172 0 0 1-.105.063c-1.64.37-1.94.67-2.31 2.31a.181.181 0 0 1-.18.15Zm-2-2.64a2.002 2.002 0 0 0 1.103 2.205 2.002 2.002 0 0 0 2.799-1.327c.071-.288.077-.588.018-.878a2.001 2.001 0 1 0-3.92 0Zm4.39-.11v.14-.14ZM736.6 477a.176.176 0 0 1-.118-.042.178.178 0 0 1-.062-.108c-.37-1.64-.67-1.94-2.31-2.31a.17.17 0 0 1-.14-.18.177.177 0 0 1 .038-.115.174.174 0 0 1 .102-.065c1.64-.37 1.94-.67 2.31-2.31a.196.196 0 0 1 .069-.094.192.192 0 0 1 .222 0 .196.196 0 0 1 .069.094c.37 1.64.67 1.94 2.31 2.31a.174.174 0 0 1 .102.065.177.177 0 0 1 .038.115.175.175 0 0 1-.035.117.172.172 0 0 1-.105.063c-1.64.37-1.94.67-2.31 2.31a.178.178 0 0 1-.062.108.176.176 0 0 1-.118.042Zm-2-2.64a2.002 2.002 0 0 0 1.103 2.205 2.002 2.002 0 0 0 2.799-1.327c.071-.288.077-.588.018-.878a2.001 2.001 0 1 0-3.92 0Zm4.39-.11v.14-.14ZM723.66 498a.181.181 0 0 1-.17-.14c-.22-1-.39-1.17-1.39-1.39h-.12v-.14a.169.169 0 0 1 .13-.17c1-.22 1.17-.39 1.39-1.39v-.12h.14a.181.181 0 0 1 .17.14c.22 1 .39 1.17 1.39 1.39h.12v.14a.181.181 0 0 1-.14.17c-1 .22-1.17.39-1.39 1.39v.12h-.13Zm-1-1.7a1 1 0 1 0 1.998 0 1 1 0 0 0-1.998 0ZM852.66 480a.181.181 0 0 1-.17-.14c-.22-1-.39-1.17-1.39-1.39h-.12v-.14a.169.169 0 0 1 .13-.17c1-.22 1.17-.39 1.39-1.39v-.12h.14a.181.181 0 0 1 .17.14c.22 1 .39 1.17 1.39 1.39h.12v.14a.181.181 0 0 1-.14.17c-1 .22-1.17.39-1.39 1.39v.12h-.13Zm-1-1.7a1 1 0 1 0 1.998 0 1 1 0 0 0-1.998 0ZM840.66 541a.181.181 0 0 1-.17-.14c-.22-1-.39-1.17-1.39-1.39h-.12v-.14a.169.169 0 0 1 .13-.17c1-.22 1.17-.39 1.39-1.39v-.12h.14a.181.181 0 0 1 .17.14c.22 1 .39 1.17 1.39 1.39h.12v.14a.181.181 0 0 1-.14.17c-1 .22-1.17.39-1.39 1.39v.12h-.13Zm-1-1.7a1 1 0 1 0 1.998 0 1 1 0 0 0-1.998 0ZM827.66 475a.181.181 0 0 1-.17-.14c-.22-1-.39-1.17-1.39-1.39h-.12v-.14a.169.169 0 0 1 .13-.17c1-.22 1.17-.39 1.39-1.39v-.12h.14a.181.181 0 0 1 .17.14c.22 1 .39 1.17 1.39 1.39h.12v.14a.181.181 0 0 1-.14.17c-1 .22-1.17.39-1.39 1.39v.12h-.13Zm-1-1.7a1 1 0 1 0 1.998 0 1 1 0 0 0-1.998 0ZM755.6 527a.181.181 0 0 1-.18-.15c-.37-1.64-.67-1.94-2.31-2.31a.17.17 0 0 1-.14-.18.177.177 0 0 1 .038-.115.174.174 0 0 1 .102-.065c1.64-.37 1.94-.67 2.31-2.31a.196.196 0 0 1 .069-.094.192.192 0 0 1 .222 0 .196.196 0 0 1 .069.094c.37 1.64.67 1.94 2.31 2.31a.174.174 0 0 1 .102.065.177.177 0 0 1 .038.115.175.175 0 0 1-.035.117.172.172 0 0 1-.105.063c-1.64.37-1.94.67-2.31 2.31a.181.181 0 0 1-.18.15Zm-2-2.64a2.002 2.002 0 0 0 1.103 2.205 2.002 2.002 0 0 0 2.799-1.327c.071-.288.077-.588.018-.878a2.001 2.001 0 1 0-3.92 0Zm4.39-.11v.14-.14ZM496.253 338.834l-60.048 82.377 15.378 11.21 60.048-82.377-15.378-11.21ZM1121.64 741.66l-60.05 82.377 15.38 11.21 60.04-82.377-15.37-11.21ZM432.75 888.54a11.509 11.509 0 0 1 9.53 3.1c2.87 2.61 4.07 6.74 6.5 9.79a8 8 0 0 0 6 3.15c5.5.18 5.69-7.78 4.51-12.09-1.88-6.87-6.31-9.87-11.46-13.81" class="change-color-in-svg" fill="#4D61FC" style="fill:#158566"/><path d="M401.36 908.58c.46-43.92 48.31-42.57 54.29-23.08-7.49-1.76-15.7 1-21.3 7-3.21 3.44-5.58 7.82-8.88 11.15-5.81 5.86-13.78 7.78-21.41 9a7.915 7.915 0 0 1-4-.06 3.62 3.62 0 0 1-2.39-3.31M349.72 871.36a45.083 45.083 0 0 0-15.72 2.29 19.28 19.28 0 0 0-6.36 8.11c-1.59 4.14-.81 9.33 2.44 12.27 2.52 2.27 6.08 3 9.42 2.75a10.165 10.165 0 0 0 4.69-1.26c3.58-2.18 4.41-7 6.43-10.74a16.206 16.206 0 0 1 14-8.39" class="change-color-in-svg" fill="#4D61FC" style="fill:#158566"/><path d="M336.73 888.43c.15-3.51.49-7.14 2.18-10.29a16.309 16.309 0 0 1 9.16-7.38 18.202 18.202 0 0 1 3.58-.79c1.15-.14 2.33-.13 3.47-.34.22 0 .17-.33 0-.39-2-.76-4.58-.27-6.6.31a18.122 18.122 0 0 0-6 3 15.623 15.623 0 0 0-5.87 9.32 34.804 34.804 0 0 0-.6 6.53.34.34 0 0 0 .67 0l.01.03Z" class="change-color-in-svg" fill="#4D61FC" style="fill:#158566"/><path d="M334 873.65c7.91-1.47 16.33 1.76 22 7.66 2.65 2.78 5.19 6.36 9 6.69 3.81.33 8.81.72 8.95-7.45.11-6.2-3.64-7.8-6.93-10-3.29-2.2-7.27-3-11.17-3.24-4.57-.35-15.67 0-21.77 6.31" class="change-color-in-svg" fill="#4D61FC" style="fill:#158566"/><g opacity=".3"><path opacity=".3" d="M334 873.65c7.91-1.47 16.33 1.76 22 7.66 2.65 2.78 5.19 6.36 9 6.69 3.81.33 8.81.72 8.95-7.45.11-6.2-3.64-7.8-6.93-10-3.29-2.2-7.27-3-11.17-3.24-4.57-.35-15.67 0-21.77 6.31" fill="#fff"/></g><path d="M356.81 869.27c10.17 5.39 13.6 18 14.54 28.59.15 1.73.25 3.47.34 5.21a47.29 47.29 0 0 0 .29 5.32c.07.35.68.36.74 0 .162-1.575.188-3.161.08-4.74 0-1.69-.12-3.38-.25-5.07a63.146 63.146 0 0 0-1.47-9.66A34.742 34.742 0 0 0 363.9 874a20.432 20.432 0 0 0-6.81-5.25c-.32-.15-.6.31-.28.48v.04ZM377.31 818.19c-3.72-3.94-9.5-4.75-14.81-5.34-2.94-.33-6.05-.64-8.75.61a12.21 12.21 0 0 0-3.86 3 16 16 0 0 0-4.21 8.48 9.898 9.898 0 0 0 3 8.72 12.083 12.083 0 0 0 7.43 2.38 12.67 12.67 0 0 0 5.26-.72c4.27-1.71 6.45-6.46 9.69-9.77a17.61 17.61 0 0 1 14.43-5.17" class="change-color-in-svg" fill="#4D61FC" style="fill:#158566"/><path d="M386.93 839.4c-12.3-2.12-12.23-11.24-15.51-16.36-4.4-6.88-10.44-8.39-16.56-10 4.08-3.37 9.44-4.2 16.22-3.73 5-1.2 11.68-2.4 16.38-.27a16.308 16.308 0 0 1 9.44 11.7c.88 5.19 2.21 15.34-10 18.66M377.11 889.33c4.75-8.77 3.26-23.89.8-33.6a54.944 54.944 0 0 0-15.14-25.35c-5-4.91-11-9-17.68-10.93-6.68-1.93-14.25-1.29-20.09 2.55s-9.56 11.29-8.26 18.29c1.67 9 9.91 15.61 18.37 18.54 24.43 8.45 29.14 30.48 42 30.48M425.52 860.3a12.858 12.858 0 0 1 5.959.24 12.859 12.859 0 0 1 5.211 2.9c2.7 2.51 4.82 5.1 8.69 5.54 5.82.65 13.66-5.07 10-11.59a10.784 10.784 0 0 0-5.18-4.34 30.757 30.757 0 0 0-6.55-1.77c-2.38-.46-4.84-.92-7.18-.29" class="change-color-in-svg" fill="#4D61FC" style="fill:#158566"/><g opacity=".3"><path opacity=".3" d="M377.11 889.33c4.75-8.77 3.26-23.89.8-33.6a54.944 54.944 0 0 0-15.14-25.35c-5-4.91-11-9-17.68-10.93-6.68-1.93-14.25-1.29-20.09 2.55s-9.56 11.29-8.26 18.29c1.67 9 9.91 15.61 18.37 18.54 24.43 8.45 29.14 30.48 42 30.48" fill="#fff"/></g><g opacity=".3"><path opacity=".3" d="M401.36 908.58c.46-43.92 48.31-42.57 54.29-23.08-7.49-1.76-15.7 1-21.3 7-3.21 3.44-5.58 7.82-8.88 11.15-5.81 5.86-13.78 7.78-21.41 9a7.915 7.915 0 0 1-4-.06 3.62 3.62 0 0 1-2.39-3.31" fill="#fff"/></g><path d="M318.8 835.46c6.13-4.06 14.05-2 20.18.95a59.573 59.573 0 0 1 16.43 12.05c10.4 10.66 16.92 24.39 20.61 38.7 1.12 4.35 2 8.76 2.7 13.19.7 4.43 1.1 8.92 1.71 13.37.06.4.71.3.7-.1a99.97 99.97 0 0 0-1.2-12.44c-.6-4.08-1.35-8.13-2.32-12.14a100.743 100.743 0 0 0-8.25-22.63c-6.4-12.43-16.13-23.62-28.71-30-6.58-3.36-15.46-6-22-1.25-.22.15 0 .5.2.35l-.05-.05ZM446.36 851.85c-7.33-.43-13.3 6.67-16.51 14a32.225 32.225 0 0 1-13.77 15.2c-5.75 3.18-14 5.65-19.9 1.56l-.36-.27c-2.85-2.23-3.85-6.6-3.16-10.39a22.53 22.53 0 0 1 5.11-10c11.65-14.37 32.21-16.67 48.59-10.16" class="change-color-in-svg" fill="#4D61FC" style="fill:#158566"/><g opacity=".3"><path opacity=".3" d="M446.36 851.85c-7.33-.43-13.3 6.67-16.51 14a32.225 32.225 0 0 1-13.77 15.2c-5.75 3.18-14 5.65-19.9 1.56l-.36-.27c-2.85-2.23-3.85-6.6-3.16-10.39a22.53 22.53 0 0 1 5.11-10c11.65-14.37 32.21-16.67 48.59-10.16" fill="#fff"/></g><g opacity=".3"><path opacity=".3" d="M386.93 839.4c-12.3-2.12-12.23-11.24-15.51-16.36-4.4-6.88-10.44-8.39-16.56-10 4.08-3.37 9.44-4.2 16.22-3.73 5-1.2 11.68-2.4 16.38-.27a16.308 16.308 0 0 1 9.44 11.7c.88 5.19 2.21 15.34-10 18.66" fill="#fff"/></g><path d="M394.91 920.8c.013-7.215.767-14.409 2.25-21.47a135.343 135.343 0 0 1 5.19-19.6c4-11.09 11-22 22.17-27a27.503 27.503 0 0 1 10.53-2.33c3.776.034 7.527.627 11.13 1.76.46.12.8-.59.34-.81a25.075 25.075 0 0 0-9.81-2.11 28.707 28.707 0 0 0-9.95 1.4 34.801 34.801 0 0 0-14.4 9.59c-9 9.78-12.82 23-15.45 35.72-1.68 8.14-3 16.47-2.58 24.8a.29.29 0 0 0 .58 0v.05ZM371.37 809.87c5.47 1.43 8.75 6.48 10.74 11.44a57.74 57.74 0 0 1 2.6 8.86c.82 3.633 1.463 7.3 1.93 11 1.91 14.89 1.63 30 1.07 45a817.923 817.923 0 0 1-.6 12.7c-.23 4.32-.58 8.68-.55 13a.378.378 0 0 0 .38.38.38.38 0 0 0 .38-.38c.5-3.94.67-8 .91-11.93.24-3.93.42-7.75.58-11.63.34-7.86.52-15.72.42-23.58a192.954 192.954 0 0 0-1.41-22.73c-.47-3.64-1.08-7.25-1.88-10.83a63.809 63.809 0 0 0-2.7-9.4c-2.09-5.39-5.69-11.09-11.76-12.33a.207.207 0 0 0-.141.035.207.207 0 0 0-.072.263.209.209 0 0 0 .103.102v.03ZM448 876.21c-3.42-1.81-7.79-1.2-11.26.09a33.59 33.59 0 0 0-9.84 6 48.46 48.46 0 0 0-13 17.5 44.194 44.194 0 0 0-3.44 12.51c0 .24.38.3.42.06a52.692 52.692 0 0 1 8.29-20.25A42.445 42.445 0 0 1 434.93 878a20.754 20.754 0 0 1 6.23-2 16.745 16.745 0 0 1 6.71.59c.22.06.37-.26.16-.37l-.03-.01Z" class="change-color-in-svg" fill="#4D61FC" style="fill:#158566"/><path d="M417.11 968H374l-8.03-59.16h59.16L417.11 968Z" fill="#61656D"/><path d="M430.14 917.87h-69.18l-1-13.04h71.18l-1 13.04Z" fill="#61656D"/><path opacity=".2" d="M367.2 917.87h56.7L417.11 968l-6.81-.47 3.8-45.65-46.47-.79-.43-3.22ZM415.33 904.92l-2.01 12.95h16.82l1-13.04-15.81.09Z" fill="#000"/><path opacity=".2" d="M421.12 932.75h-51.29v1h51.29v-1ZM421.12 936.76h-51.29v1h51.29v-1Z" fill="#fff"/><path d="m1211.3 747.9 34.9 219.7h4.5l-27.8-219.7h-11.6ZM1019.8 747.9 992 967.6h4.5l34.9-219.7h-11.6Z" fill="#61656D"/><path opacity=".2" d="M1250.7 967.6h-2l-29.9-212.7a3.506 3.506 0 0 0-1-2.22 3.595 3.595 0 0 0-2.25-1l-3.8-.4-.4-3.4h11.6l27.75 219.72ZM994.9 967.6l31.1-212.4a3.655 3.655 0 0 0-.65-2.485 3.634 3.634 0 0 0-2.15-1.415l-3.7-.7.3-2.7h11.6l-34.8 219.7h-1.7Z" fill="#000"/><path d="M1258.6 747.9H1247l34.9 219.7h4.5l-27.8-219.7ZM1027.7 967.6h4.6l34.9-219.7h-11.6l-27.9 219.7Z" fill="#61656D"/><path opacity=".2" d="M1286.4 967.6h-1.9l-11.7-88.5-4.6-2.1-20.7-125.7-.5-3.4h11.6l27.8 219.7ZM1030.6 967.6l11.3-87.8-3.1-2.8 16.8-129.1h11.6l-34.9 219.7h-1.7Z" fill="#000"/><path d="M1034.1 743.4c0 1.177.46 2.308 1.28 3.15a4.478 4.478 0 0 0 3.12 1.35h239.3a4.474 4.474 0 0 0 2.74-1.514 4.516 4.516 0 0 0 1.09-2.936c0-1.077-.39-2.119-1.09-2.936a4.474 4.474 0 0 0-2.74-1.514h-239.3a4.205 4.205 0 0 0-1.68.34c-.54.218-1.02.541-1.43.95-.42.407-.76.893-1 1.43a4.4 4.4 0 0 0-.33 1.68" fill="#61656D"/><path opacity=".2" d="M1034.1 743.4c0 1.177.46 2.308 1.28 3.15a4.478 4.478 0 0 0 3.12 1.35h239.3a4.474 4.474 0 0 0 2.74-1.514 4.516 4.516 0 0 0 1.09-2.936c0-1.077-.39-2.119-1.09-2.936a4.474 4.474 0 0 0-2.74-1.514h-239.3a4.205 4.205 0 0 0-1.68.34c-.54.218-1.02.541-1.43.95-.42.407-.76.893-1 1.43a4.4 4.4 0 0 0-.33 1.68" fill="#000"/><path d="M999.3 743.4a4.49 4.49 0 0 0 4.4 4.5h189.6a4.474 4.474 0 0 0 2.74-1.514 4.516 4.516 0 0 0 1.09-2.936c0-1.078-.39-2.119-1.09-2.936a4.474 4.474 0 0 0-2.74-1.514h-189.6c-1.17 0-2.29.464-3.11 1.289a4.397 4.397 0 0 0-1.29 3.111" fill="#61656D"/><path d="m1220.67 703.38-.79.04.79-.05-.86-13.77-2.92.18.84 13.75h-.02l2.17 34.56 2.93-.22-2.14-34.49Z" fill="#B2B6BB"/><path d="m1219.81 689.6-2.92.18.83-2.52.48-1.44.58 1.35 1.03 2.43Z" fill="#FC9D9D"/><path d="M1218.44 687.26a1.7 1.7 0 0 1-.71 0l.47-1.45.58 1.36-.34.09ZM1220.56 738c-.02 0-.04-.008-.05-.021a.086.086 0 0 1-.02-.049l-2.69-48.1c0-.009 0-.019.01-.027 0-.009 0-.016.01-.023.01-.006.01-.011.02-.015a.105.105 0 0 1 .03-.005c.02 0 .04.007.05.02.02.012.03.03.03.05l2.68 48.09c0 .019-.01.038-.02.053s-.03.024-.05.027ZM1222.05 737.87a.08.08 0 0 1-.03-.006c-.01-.003-.01-.008-.02-.015-.01-.006-.01-.014-.01-.022-.01-.009-.01-.018-.01-.027l-3.11-48c0-.02.01-.039.02-.054a.072.072 0 0 1 .05-.026s.08 0 .08.07l3.1 48v.029c0 .01 0 .019-.01.027 0 .008-.01.014-.02.018a.08.08 0 0 1-.03.006h-.01Z" fill="#000"/><path d="m1227.02 703.46-.79-.01h.79l.1-13.8-2.92-.02-.13 13.77h-.02l-.25 34.63 2.93-.01.29-34.56Z" class="change-color-in-svg" fill="#4D61FC" style="fill:#158566"/><path d="m1227.12 689.65-2.92-.02 1.01-2.46.58-1.41.48 1.39.85 2.5Z" fill="#FC9D9D"/><path d="M1225.92 687.22c-.24.033-.48.016-.71-.05l.58-1.41.48 1.39c-.11.035-.23.058-.35.07ZM1224.49 738c-.02 0-.04-.007-.05-.021a.086.086 0 0 1-.02-.049l.69-48.16c0-.02.01-.039.02-.053a.07.07 0 0 1 .05-.027.07.07 0 0 1 .05.027c.01.014.02.033.02.053l-.69 48.16c0 .018-.01.036-.02.049-.01.014-.03.021-.05.021ZM1226 738c-.02 0-.04-.007-.05-.02a.057.057 0 0 1-.03-.05l.27-48.15c0-.019.01-.038.02-.053s.03-.024.05-.027c.02.002.04.011.05.026.02.015.03.034.03.054l-.27 48.15c0 .019-.01.037-.02.05-.01.013-.03.02-.05.02Z" fill="#000"/><path d="m1231.94 703.37-.79.04.79-.06-1.01-13.76-2.91.21.98 13.74h-.02l2.54 34.54 2.92-.25-2.5-34.46Z" fill="#B2B6BB"/><path d="m1230.93 689.59-2.91.21.81-2.53.46-1.45.59 1.35 1.05 2.42Z" fill="#FC9D9D"/><path d="M1229.54 687.26a1.7 1.7 0 0 1-.71 0l.46-1.45.59 1.35-.34.1ZM1232.19 738c-.02-.002-.03-.01-.05-.023a.08.08 0 0 1-.02-.047l-3.19-48.06c0-.02.01-.038.02-.053a.07.07 0 0 1 .05-.027c.02.002.04.009.05.022.02.013.03.029.03.048l3.19 48.06c0 .02-.01.039-.02.053a.07.07 0 0 1-.05.027h-.01ZM1233.69 737.83c-.02.001-.04-.005-.05-.016-.02-.011-.03-.026-.03-.044l-3.61-48c0-.02.01-.039.02-.053a.07.07 0 0 1 .05-.027c.02.003.04.011.05.023.01.013.02.029.03.047l3.61 48c0 .019-.01.036-.02.049-.01.014-.03.021-.05.021Z" fill="#000"/><path d="m1238.05 703.53-.79-.05.78.04.8-13.78-2.92-.17-.81 13.75h-.03l-1.98 34.57 2.93.14 2.02-34.5Z" fill="#3F4249"/><path d="m1238.84 689.75-2.92-.18 1.13-2.4.65-1.38.41 1.41.73 2.55Z" fill="#FC9D9D"/><path d="M1237.76 687.26c-.24.015-.48-.015-.71-.09l.65-1.38.41 1.41-.35.06ZM1233.79 737.87c-.02-.003-.04-.012-.05-.027a.101.101 0 0 1-.02-.053l3.1-48.06c0-.01 0-.02.01-.029 0-.01.01-.018.01-.025a.135.135 0 0 1 .03-.014.061.061 0 0 1 .03-.002.07.07 0 0 1 .05.027c.01.014.02.033.02.053l-3.1 48.06c0 .019-.01.037-.03.05-.01.013-.03.02-.05.02ZM1235.29 737.94s-.08 0-.07-.08l2.67-48.08c0-.019.01-.037.03-.05.01-.013.03-.02.05-.02a.07.07 0 0 1 .05.027c.01.014.02.033.02.053l-2.68 48.08c0 .019-.01.036-.02.049-.01.014-.03.021-.05.021Z" fill="#000"/><path d="m1217.44 703.84-.79.05.78-.07-1.13-13.75-2.91.24 1.11 13.73h-.03l2.87 34.51 2.92-.27-2.82-34.44Z" class="change-color-in-svg" fill="#4D61FC" style="fill:#158566"/><path d="m1216.3 690.07-2.91.24.78-2.54.45-1.45.6 1.34 1.08 2.41Z" fill="#FC9D9D"/><path d="M1214.89 687.76c-.24.05-.48.05-.72 0l.45-1.45.6 1.34-.33.11ZM1218 738.44c-.02 0-.04-.007-.05-.02a.086.086 0 0 1-.02-.05l-3.64-48v-.029c0-.01 0-.019.01-.027 0-.008.01-.014.02-.018a.065.065 0 0 1 .03-.006c.05 0 .08 0 .08.06l3.64 48s0 .07-.06.08l-.01.01ZM1219.5 738.29c-.02 0-.04-.007-.05-.021a.083.083 0 0 1-.02-.049l-4.06-48s0-.07.06-.08c.06-.01.08 0 .08.07l4.06 48s0 .07-.06.08h-.01Z" fill="#000"/><path d="M1236 739h-20l-3-38h26l-3 38Z" class="change-color-in-svg" fill="#4D61FC" style="fill:#158566"/><path d="M1240 701h-28v2h28v-2Z" class="change-color-in-svg" fill="#4D61FC" style="fill:#158566"/><path opacity=".2" d="M1240 701h-28v2h28v-2Z" fill="#000"/><path opacity=".31" d="M1225.5 722c2.49 0 4.5-2.015 4.5-4.5s-2.01-4.5-4.5-4.5-4.5 2.015-4.5 4.5 2.01 4.5 4.5 4.5ZM1218.5 733a4.41 4.41 0 0 0-2.89 1.08l.39 4.92h6.72c.18-.48.27-.987.28-1.5a4.44 4.44 0 0 0-.34-1.724 4.546 4.546 0 0 0-.98-1.461 4.372 4.372 0 0 0-1.46-.975 4.453 4.453 0 0 0-1.72-.34ZM1219 712c1.66 0 3-1.343 3-3s-1.34-3-3-3-3 1.343-3 3 1.34 3 3 3ZM1236.86 728.06a4.492 4.492 0 0 0-2.64 1.369 4.528 4.528 0 0 0-1.2 2.718 4.446 4.446 0 0 0 .77 2.872 4.477 4.477 0 0 0 2.39 1.761l.68-8.72ZM1235.5 705a3.506 3.506 0 0 0-3.51 3.306c-.03.593.09 1.184.35 1.719.25.535.65.995 1.13 1.337.49.342 1.05.554 1.64.618a3.53 3.53 0 0 0 1.74-.255 3.57 3.57 0 0 0 1.39-1.065l.3-3.86c-.3-.544-.74-.998-1.27-1.314a3.507 3.507 0 0 0-1.77-.486ZM1222.5 730a2.5 2.5 0 1 0 0-5 2.5 2.5 0 0 0 0 5ZM1214.5 719.5l-.27-2.48h.27c.66-.019 1.31.227 1.79.683.48.455.76 1.084.78 1.747.02.663-.23 1.306-.68 1.788-.46.482-1.09.763-1.75.782l-.14-2.52ZM1235.5 717a2.494 2.494 0 0 0-2.5 2.5 2.494 2.494 0 0 0 3.56 2.26c.33-.158.62-.386.85-.67l.23-2.86a2.47 2.47 0 0 0-.91-.9c-.37-.216-.8-.33-1.23-.33Z" fill="#fff"/><path d="M1145.45 723.34h-59.68V739h59.68a7.808 7.808 0 0 0 7.53-7.805c0-2.023-.78-3.967-2.19-5.423a7.8 7.8 0 0 0-5.34-2.382" class="change-color-in-svg" fill="#4D61FC" style="fill:#158566"/><path opacity=".2" d="M1145.45 723.34h-59.68V739h59.68a7.808 7.808 0 0 0 7.53-7.805c0-2.023-.78-3.967-2.19-5.423a7.8 7.8 0 0 0-5.34-2.382" fill="#000"/><path d="M1090.75 739h-30.18v-2.23h9.34v-11.11h-9.34v-2.32h30.18a7.8 7.8 0 0 1 5.34 2.382 7.787 7.787 0 0 1 2.19 5.423 7.808 7.808 0 0 1-7.53 7.805" class="change-color-in-svg" fill="#4D61FC" style="fill:#158566"/><path d="M1062.8 736.63h27.86a5.5 5.5 0 1 0 0-11h-27.86v11Z" fill="#fff"/><path d="M1154.36 711.34h-49.81v12h49.81c.27.008.54-.04.8-.14.25-.101.48-.252.68-.445a2.02 2.02 0 0 0 .58-1.475v-7.88a2.02 2.02 0 0 0-.58-1.475 2.018 2.018 0 0 0-1.48-.585Z" class="change-color-in-svg" fill="#4D61FC" style="fill:#158566"/><path opacity=".2" d="M1126.07 715.37h17.15c.11 0 .22.022.33.066.1.043.2.107.27.187.08.08.15.175.19.279.04.104.06.216.06.328v2.65c0 .226-.09.442-.25.601a.838.838 0 0 1-.6.249h-17.15a.842.842 0 0 1-.6-.248.819.819 0 0 1-.26-.602v-2.65a.86.86 0 0 1 .86-.86Z" fill="#000"/><path d="M1085.26 723.34h27.09c.27.008.54-.04.8-.14.25-.101.48-.252.68-.445a2.02 2.02 0 0 0 .58-1.475v-7.88a2.02 2.02 0 0 0-.58-1.475 2.018 2.018 0 0 0-1.48-.585h-27.09v12Z" class="change-color-in-svg" fill="#4D61FC" style="fill:#158566"/><path opacity=".2" d="M1085.26 723.34h27.09c.27.008.54-.04.8-.14.25-.101.48-.252.68-.445a2.02 2.02 0 0 0 .58-1.475v-7.88a2.02 2.02 0 0 0-.58-1.475 2.018 2.018 0 0 0-1.48-.585h-27.09v12Z" fill="#000"/><path d="M1085.26 721.54h26.32c.27-.002.53-.11.73-.3.1-.095.17-.209.23-.334.05-.126.07-.26.07-.396v-6.43c0-.265-.11-.52-.29-.707a1 1 0 0 0-.71-.293h-26.32l-.03 8.46Z" fill="#fff"/><path d="m391.086 433.335-53.337 11.104a.32.32 0 0 0-.248.378l11.177 53.689a.32.32 0 0 0 .379.248l53.336-11.104a.32.32 0 0 0 .248-.378l-11.177-53.689a.32.32 0 0 0-.378-.248Z" fill="#DADDDF"/><path d="m374.53 433.327-21.588 4.494 1.611 7.734 21.587-4.494-1.61-7.734Z" class="change-color-in-svg" fill="#4D61FC" style="fill:#158566"/><path d="m348.013 556.016-53.717-9.086a.32.32 0 0 0-.369.262l-9.146 54.072a.32.32 0 0 0 .262.369l53.717 9.086a.32.32 0 0 0 .369-.262l9.146-54.072a.32.32 0 0 0-.262-.369Z" fill="#DADDDF"/><path d="m332.587 549.98-21.742-3.677-1.317 7.79 21.741 3.677 1.318-7.79Z" class="change-color-in-svg" fill="#4D61FC" style="fill:#158566"/><path d="m414.36 641.218-54.48 3.269a.32.32 0 0 0-.301.339l3.29 54.84a.321.321 0 0 0 .34.301l54.48-3.269a.32.32 0 0 0 .3-.339l-3.29-54.84a.32.32 0 0 0-.339-.301Z" fill="#DADDDF"/><path d="m399.779 635.82-22.005 1.415.507 7.884 22.005-1.416-.507-7.883Z" class="change-color-in-svg" fill="#4D61FC" style="fill:#158566"/><path d="m1243.76 418.558-49 10.2a.315.315 0 0 0-.24.379l10.26 49.323c.04.173.21.284.38.248l49-10.201a.321.321 0 0 0 .25-.379l-10.27-49.322a.315.315 0 0 0-.38-.248Z" fill="#DADDDF"/><path d="m1228.55 418.544-19.85 4.134 1.48 7.107 19.85-4.133-1.48-7.108Z" class="change-color-in-svg" fill="#4D61FC" style="fill:#158566"/><path d="m1290.6 528.251-49.35-8.347a.319.319 0 0 0-.37.263l-8.4 49.674c-.03.174.09.34.26.369l49.35 8.347c.17.029.34-.088.37-.262l8.4-49.675a.322.322 0 0 0-.26-.369Z" fill="#DADDDF"/><path d="m1276.45 522.703-20-3.382-1.21 7.159 20 3.382 1.21-7.159Z" class="change-color-in-svg" fill="#4D61FC" style="fill:#158566"/><path d="m1231.95 619.039-50.05 3.003a.319.319 0 0 0-.3.34l3.02 50.38c.01.176.16.311.34.3l50.05-3.003c.18-.01.31-.162.3-.339l-3.02-50.38a.325.325 0 0 0-.34-.301Z" fill="#DADDDF"/><path d="m1216.93 610.455-20.24 1.302.47 7.245 20.24-1.302-.47-7.245Z" class="change-color-in-svg" fill="#4D61FC" style="fill:#158566"/><path d="m803.33 602.82 1.13 20.76a15.688 15.688 0 0 1-1.58 7.95 14.998 14.998 0 0 1-7.72 7.13l-15.77 3.54 3-32.4 20.94-6.98Z" fill="#FC9D9D"/><path d="M764.55 927.86a176.105 176.105 0 0 1 1.16 22.14l-1.16 8.8c-1.55 8.18 4.32 6.95 8.19 6.95h1.15C778.3 965.77 787 967 789 963c.63-1.26-1.07-5.52-1.07-5.52-2.63-3.94-2.93-19.48-3.45-26.48l-.86-101.87-27.57 7.87 8.5 90.86Z" fill="#FB9C9C"/><path opacity=".15" d="m756.52 840.73 8 87.12c.38 3 .61 6 .85 9.11v.04c.23 4.32.39 8.64.31 13l-1.15 8.81c-1.56 7.18 4.09 6.71 7.8 6.94-3.4-2.62-3.09-6.87-3.17-10l-6-105.57a7.94 7.94 0 0 1 4.64-7.65l15.52-7.1.07-1.39-26.87 6.69Z" fill="#000"/><path d="m675.8 597.32-15-34.67-.77-16.31a7.202 7.202 0 0 0-.74-2.84l-2.89-5.81c-4.1-7.17-5.77-3.87-5.77-3.87l3.67 8.76-.48.75a2.453 2.453 0 0 1-3.17.84 2.424 2.424 0 0 1-1.18-1.39l-.82-2.46-.81-5.76c-.31-4.51-1.5-4.67-2.44-4a2.936 2.936 0 0 0-1.19 2.46l.13 7c-2.62-.94-3 4.89-3 4.89-2.83-1.13-2.83 4.53-2.83 4.53-2.17.86-.34 7.06.62 9.89a4.742 4.742 0 0 0 1.65 2.27l7.1 5.36c7.31 35.36 15.32 54.19 19 61.68a15.392 15.392 0 0 0 8.36 7.65c5.63 2.09 12.68 1.08 15.71-1.62 3.03-2.7 5-7.34 5.77-11.27L701 606l-25.2-8.68Z" fill="#FC9D9D"/><path opacity=".1" d="M676.6 603.24 674.35 614s-.79-1.75 0-5.73c.42-2.15.76-4.31 1-6.49l.47-4.48.78 5.94Z" fill="#000"/><path d="M689.24 923.56c-.35 6.39-1 14.28-2.1 21a5.465 5.465 0 0 1-3.3 4.19L657 960c-11 8 30.09 1.66 33.9 2.31l1.14.2c4.34.74 16 3.49 14.86-5.76l.1-7.75c.31-4.14.14-13.68 1.35-19l16.38-100.5-28.5 3.1-6.99 90.96Z" fill="#FB9C9C"/><path d="M790 965.33v.32a2.398 2.398 0 0 1-2.41 2.35h-22.18a2.384 2.384 0 0 1-2.22-1.44 2.373 2.373 0 0 1-.19-.91v-.85c0-.32 0-2.65.06-3H790v3.53Z" fill="#21252B"/><path d="m704.4 655.19-16.69 275.43 22.35 1.31 33.38-203 16.17-7.28-16.17 7.35 19.22 203 23.67-1.31s-1.65-134.66.46-181.06c.8-17.68 1.82-41.79-4.33-61.26-3.06-9.7-8-27.68-6.49-32.76l-71.57-.42Z" class="change-color-in-svg" fill="#4D61FC" style="fill:#158566"/><path opacity=".2" d="m750.16 728 9.16-4.78a1.207 1.207 0 0 0 .63-1.36 1.215 1.215 0 0 0-1.166-.947 1.215 1.215 0 0 0-.524.107l-14.82 6.66 19.22 204.3h6.57L750.16 728Z" fill="#000"/><path d="M655 966.11a2.51 2.51 0 0 0 2.34 1.57l29.12-.09a2.496 2.496 0 0 0 2.33-1.58l.2-.52a.409.409 0 0 1 .73 0l.51.88a2.503 2.503 0 0 0 2.25 1.25l13.3-.32a2.49 2.49 0 0 0 2.44-2.44V962l-54.25 1a17.285 17.285 0 0 0 1.03 3.11ZM668.21 962.67c-.59-3-4.05-6.18-4.05-6.18l8.22-3c3.08 2.26 5 9.07 5 9.07l-9.17.11Z" fill="#21252B"/><path opacity=".3" d="m786.27 925.32-24.1 1.24.49 5.37 23.67-1.31-.06-5.3ZM710.84 927.01l-22.8-1.69-.33 5.3 22.35 1.31.78-4.92Z" fill="#000"/><path d="M683.15 565.84c-2.62 8.74-8.27 36.4-8.27 36.4l25.43 8.43 1.09 5.85.88 4.69.28 40.1 76.52.67 4.35-52.18 22.08-6.68-8.07-39.12a18.006 18.006 0 0 0-6.24-10 38.463 38.463 0 0 0-11.81-6l-20.8-5.19-35.84-1.08-24.41 7.38a18.883 18.883 0 0 0-5.15 2.44 26.23 26.23 0 0 0-10.04 14.29Z" fill="#3F4249"/><path d="M745.91 524.69v15h-27.73l.63-12.46a.29.29 0 0 0-.014-.124.294.294 0 0 0-.286-.206c-12.54.26-15.56-.76-17.6-17.62a.279.279 0 0 0-.24-.25 2.788 2.788 0 0 1-1.471-.841 2.79 2.79 0 0 1-.709-1.539c0-.38.24-.64.44-1 .68-1.13 2.37-2.61 3.19-4.3l2.46-14.94s.69-1.37.7-1.4l5.82-8.2a.3.3 0 0 1 .118-.119.306.306 0 0 1 .162-.041l23 1.52a.227.227 0 0 1 .11 0l12.44 6a.31.31 0 0 1 .16.33c-.64 3-.88 38.61-1.18 40" fill="#FC9D9D"/><path opacity=".15" d="m711.14 523.27 5.24-.42s-.21 2.08-5.54 2.59l.3-2.17Z" fill="#000"/><path d="M706.931 499.504a1.67 1.67 0 1 0-3.334-.218 1.67 1.67 0 0 0 3.334.218Z" fill="#000"/><path d="M704.964 499.061a.32.32 0 1 0-.638-.042.32.32 0 0 0 .638.042Z" fill="#fff"/><path d="M702.86 494.52c.11.33 1.46.28 3 .57 1.54.29 2.81.77 3.05.5.24-.27-.1-.45-.59-.8a5.627 5.627 0 0 0-2.22-.88 5.896 5.896 0 0 0-2.41.06c-.56.16-.88.39-.83.55Z" fill="#000"/><path d="M704.93 513.18c.27 0 .35.18.3.38a4.733 4.733 0 0 1-3.3 2.8c-.16-.9-.32-1.87-.47-2.92l3.47-.26Z" fill="#fff"/><path d="M780 570h-60.89c-1.94-3.24-3-11.08-2.77-14.87-2.52 2.93-3.71 11-3.26 14.87-.22-.11-8.85.3-8.66-.33-7.61-15.45 18.91-28.25 8.63-41.13C710 524 712 518.4 715.54 515a12.486 12.486 0 0 0 3.928-7.317 12.485 12.485 0 0 0-1.528-8.163 15.003 15.003 0 0 0-4.24-4.64c-5.52-3.76-11.45-6.88-11.93-10.53-.6-4.59 5.61-8.94 13.58-13.61 10.28-6 33.44-5.34 37.95 6.37 1.79 4.64 4.19 6.88 7.52 10.25 6.78 9.64-5.49 24 8.33 30a13.91 13.91 0 0 1 8.19 17.21c-1 3.45-1.14 5.06-.24 8.53 2.64 4.81 5.36 10.99 2.9 26.9Z" fill="#000"/><path d="M715.44 504.05c-.5 3.08-1.17 5.36 2.78 4.88 7.5-.93 7.74-11 3.28-12.75a3.598 3.598 0 0 0-4.266.896 3.603 3.603 0 0 0-.734 1.364l-1.06 5.61Z" fill="#FA9B9B"/><path opacity=".3" d="M717.48 502.62a6.075 6.075 0 0 1 .64-2.82 3.2 3.2 0 0 1 1.64-1.41 2.694 2.694 0 0 1 2.14.41.75.75 0 0 1 .18.79c-.12.27-.38.28-.65.16a1.679 1.679 0 0 0-1.48-.31c-.39 0-.64.43-1 1a4.445 4.445 0 0 0-.54 2.28l-.08.93c0 .27-.25.41-.51.43-.26.02-.41-.25-.42-.51l.08-.93" fill="#000"/><path d="m713.2 492.18 1 11.21a1.147 1.147 0 0 0 1.15 1.15 1.15 1.15 0 0 0 1.14-1l.89-6.8-4.18-4.56Z" fill="#000"/><path opacity=".2" d="m782.97 584.31-.57 25.49" stroke="#000" stroke-width=".67" stroke-miterlimit="10"/><path opacity=".3" d="m706 616-1.14-3.12a19.008 19.008 0 0 1-1.12-7.24l1-22.86a.897.897 0 0 0-.895-.805.899.899 0 0 0-.895.805l-1.31 28-1.1-.44.91 6.08.88 4.69 1.3 40.1 9.3-.36-4.71-35.35A40.11 40.11 0 0 0 706 616Z" fill="#000"/><path opacity=".1" d="m785.45 608.79 1 13.49a6.393 6.393 0 0 1-2.69 5.21l-3 1.44 1.58-19.39 3.11-.75Z" fill="#000"/><path d="m649.12 530.3-.49.22.48-.23-4-8.35-1.77.84 3.98 8.35h-.01l10.04 20.97 1.76-.87-9.99-20.93Z" class="change-color-in-svg" fill="#4D61FC" style="fill:#158566"/><path d="m645.11 521.94-1.77.84-.11-1.78-.07-1.02.7.7 1.25 1.26Z" fill="#FC9D9D"/><path d="M643.67 520.82c-.132.09-.282.152-.44.18l-.07-1 .7.7a.753.753 0 0 1-.19.12ZM657.75 551.86h-.06l-13.76-29.26a.06.06 0 0 1 0-.07h.06l13.76 29.26v.07ZM658.65 551.41h-.06l-14-29.13v-.06a.06.06 0 0 1 .07 0l14 29.13-.01.06Z" fill="#000"/><path opacity=".15" d="M638.51 549.37s.85 4.8 2 5.93M641.34 544.84A11.293 11.293 0 0 0 645 552M644.38 540a15.435 15.435 0 0 0 2.28 9.42" stroke="#000" stroke-width=".57" stroke-miterlimit="10"/><path opacity=".3" d="m676.62 598.11 24.12 7.96M784.11 604.4l19.48-5.34" stroke="#000" stroke-width="1.02" stroke-miterlimit="10"/><path opacity=".2" d="M785.45 589.23a37.786 37.786 0 0 1-2.71 8.88" stroke="#000" stroke-width=".67" stroke-miterlimit="10"/><path opacity=".2" d="m776.31 666.78-.31-4.82-62.93-.42.01-.26-8.67.22-16.7 269.12 5.71.33 19.36-265.46 63.53 1.29Z" fill="#000"/><path d="M786 943h-21v5h21v-5Z" fill="#21252B"/><g opacity=".3"><path opacity=".3" d="M714.83 650.85a.505.505 0 0 1-.45-.27l-2.77-5.33a.51.51 0 0 1 .408-.735.495.495 0 0 1 .482.275l2.77 5.33a.497.497 0 0 1-.21.67.528.528 0 0 1-.23.06Z" fill="#fff"/></g><g opacity=".3"><path opacity=".3" d="M718 650.76a.502.502 0 0 1-.44-.27l-2.77-5.33a.494.494 0 0 1-.036-.383.494.494 0 0 1 .246-.297.494.494 0 0 1 .383-.036.51.51 0 0 1 .297.246l2.77 5.34a.504.504 0 0 1-.45.73Z" fill="#fff"/></g><g opacity=".3"><path opacity=".3" d="M789.83 577.85a.505.505 0 0 1-.45-.27l-2.77-5.33a.51.51 0 0 1 .22-.68.498.498 0 0 1 .67.22l2.77 5.33a.5.5 0 0 1-.44.73Z" fill="#fff"/></g><g opacity=".3"><path opacity=".3" d="M793 577.76a.502.502 0 0 1-.44-.27l-2.77-5.33a.51.51 0 0 1 .21-.68.521.521 0 0 1 .68.21l2.77 5.34a.502.502 0 0 1-.22.67.462.462 0 0 1-.23.06Z" fill="#fff"/></g><g opacity=".3"><path opacity=".3" d="M745.83 639.85a.505.505 0 0 1-.45-.27l-2.77-5.33a.51.51 0 0 1 .408-.735.495.495 0 0 1 .482.275l2.77 5.33a.497.497 0 0 1-.21.67.528.528 0 0 1-.23.06Z" fill="#fff"/></g><g opacity=".3"><path opacity=".3" d="M749 639.76a.502.502 0 0 1-.44-.27l-2.77-5.33a.494.494 0 0 1-.036-.383.494.494 0 0 1 .246-.297.494.494 0 0 1 .383-.036.51.51 0 0 1 .297.246l2.77 5.34a.504.504 0 0 1-.45.73Z" fill="#fff"/></g><g opacity=".3"><path opacity=".3" d="M774.83 629.85a.505.505 0 0 1-.45-.27l-2.77-5.33a.51.51 0 0 1 .408-.735.495.495 0 0 1 .482.275l2.77 5.33a.497.497 0 0 1-.21.67.528.528 0 0 1-.23.06Z" fill="#fff"/></g><g opacity=".3"><path opacity=".3" d="M778 629.76a.502.502 0 0 1-.44-.27l-2.77-5.33a.494.494 0 0 1-.036-.383.494.494 0 0 1 .246-.297.494.494 0 0 1 .383-.036.51.51 0 0 1 .297.246l2.77 5.34a.504.504 0 0 1-.45.73Z" fill="#fff"/></g><g opacity=".3"><path opacity=".3" d="M712.83 620.85a.505.505 0 0 1-.45-.27l-2.77-5.33a.51.51 0 0 1 .408-.735.495.495 0 0 1 .482.275l2.77 5.33a.497.497 0 0 1-.21.67.528.528 0 0 1-.23.06Z" fill="#fff"/></g><g opacity=".3"><path opacity=".3" d="M716 620.76a.502.502 0 0 1-.44-.27l-2.77-5.33a.494.494 0 0 1-.036-.383.494.494 0 0 1 .246-.297.494.494 0 0 1 .383-.036.51.51 0 0 1 .297.246l2.77 5.34a.504.504 0 0 1-.45.73Z" fill="#fff"/></g><g opacity=".3"><path opacity=".3" d="M733.9 574.85a.5.5 0 0 1-.44-.25l-2.91-5.26a.507.507 0 0 1 .579-.725c.128.035.236.12.301.235l2.9 5.26a.51.51 0 0 1 .064.185.49.49 0 0 1-.254.495.527.527 0 0 1-.24.06Z" fill="#fff"/></g><g opacity=".3"><path opacity=".3" d="M737.11 574.68a.495.495 0 0 1-.44-.26l-2.9-5.26a.496.496 0 0 1-.045-.379.496.496 0 0 1 .235-.301.507.507 0 0 1 .68.2l2.91 5.26a.507.507 0 0 1-.2.68.527.527 0 0 1-.24.06Z" fill="#fff"/></g><g opacity=".3"><path opacity=".3" d="M691.9 592.85a.5.5 0 0 1-.44-.25l-2.91-5.26a.507.507 0 0 1 .579-.725c.128.035.236.12.301.235l2.9 5.26a.51.51 0 0 1 .064.185.49.49 0 0 1-.254.495.527.527 0 0 1-.24.06Z" fill="#fff"/></g><g opacity=".3"><path opacity=".3" d="M695.11 592.68a.495.495 0 0 1-.44-.26l-2.9-5.26a.496.496 0 0 1-.045-.379.496.496 0 0 1 .235-.301.507.507 0 0 1 .68.2l2.91 5.26a.507.507 0 0 1-.2.68.527.527 0 0 1-.24.06Z" fill="#fff"/></g><g opacity=".3"><path opacity=".3" d="M735.22 609.67a.533.533 0 0 1-.208-.045.532.532 0 0 1-.172-.125.512.512 0 0 1 0-.71l4.52-4a.499.499 0 0 1 .813.41.497.497 0 0 1-.153.34l-4.52 4a.483.483 0 0 1-.28.13Z" fill="#fff"/></g><g opacity=".3"><path opacity=".3" d="M734.36 606.57a.496.496 0 0 1-.204-.044.467.467 0 0 1-.166-.126.497.497 0 0 1-.148-.355.493.493 0 0 1 .148-.355l4.52-4a.51.51 0 0 1 .71 0 .474.474 0 0 1 .147.35.5.5 0 0 1-.147.35l-4.52 4a.458.458 0 0 1-.34.18Z" fill="#fff"/></g><g opacity=".3"><path opacity=".3" d="M710.22 595.67a.533.533 0 0 1-.208-.045.532.532 0 0 1-.172-.125.512.512 0 0 1 0-.71l4.52-4a.499.499 0 0 1 .813.41.497.497 0 0 1-.153.34l-4.52 4a.483.483 0 0 1-.28.13Z" fill="#fff"/></g><g opacity=".3"><path opacity=".3" d="M709.36 592.57a.496.496 0 0 1-.204-.044.467.467 0 0 1-.166-.126.497.497 0 0 1-.148-.355.493.493 0 0 1 .148-.355l4.52-4a.51.51 0 0 1 .71 0 .474.474 0 0 1 .147.35.5.5 0 0 1-.147.35l-4.52 4a.458.458 0 0 1-.34.18Z" fill="#fff"/></g><g opacity=".3"><path opacity=".3" d="M693.22 566.67a.533.533 0 0 1-.208-.045.532.532 0 0 1-.172-.125.512.512 0 0 1 0-.71l4.52-4a.499.499 0 0 1 .813.41.497.497 0 0 1-.153.34l-4.52 4a.483.483 0 0 1-.28.13Z" fill="#fff"/></g><g opacity=".3"><path opacity=".3" d="M692.36 563.57a.496.496 0 0 1-.204-.044.467.467 0 0 1-.166-.126.497.497 0 0 1-.148-.355.493.493 0 0 1 .148-.355l4.52-4a.51.51 0 0 1 .71 0 .474.474 0 0 1 .147.35.5.5 0 0 1-.147.35l-4.52 4a.458.458 0 0 1-.34.18Z" fill="#fff"/></g><g opacity=".3"><path opacity=".3" d="M758.22 578.67a.533.533 0 0 1-.208-.045.532.532 0 0 1-.172-.125.512.512 0 0 1 0-.71l4.52-4a.499.499 0 0 1 .813.41.497.497 0 0 1-.153.34l-4.52 4a.483.483 0 0 1-.28.13Z" fill="#fff"/></g><g opacity=".3"><path opacity=".3" d="M757.36 575.57a.496.496 0 0 1-.204-.044.467.467 0 0 1-.166-.126.497.497 0 0 1-.148-.355.493.493 0 0 1 .148-.355l4.52-4a.51.51 0 0 1 .71 0 .474.474 0 0 1 .147.35.5.5 0 0 1-.147.35l-4.52 4a.458.458 0 0 1-.34.18Z" fill="#fff"/></g><g opacity=".3"><path opacity=".3" d="M763.22 659.67a.533.533 0 0 1-.208-.045.532.532 0 0 1-.172-.125.512.512 0 0 1 0-.71l4.52-4a.499.499 0 0 1 .813.41.497.497 0 0 1-.153.34l-4.52 4a.483.483 0 0 1-.28.13Z" fill="#fff"/></g><g opacity=".3"><path opacity=".3" d="M762.36 656.57a.496.496 0 0 1-.204-.044.467.467 0 0 1-.166-.126.497.497 0 0 1-.148-.355.493.493 0 0 1 .148-.355l4.52-4a.51.51 0 0 1 .71 0 .474.474 0 0 1 .147.35.5.5 0 0 1-.147.35l-4.52 4a.458.458 0 0 1-.34.18Z" fill="#fff"/></g><g opacity=".3"><path opacity=".3" d="M770.22 599.67a.533.533 0 0 1-.208-.045.532.532 0 0 1-.172-.125.512.512 0 0 1 0-.71l4.52-4a.499.499 0 0 1 .813.41.497.497 0 0 1-.153.34l-4.52 4a.483.483 0 0 1-.28.13Z" fill="#fff"/></g><g opacity=".3"><path opacity=".3" d="M769.36 596.57a.496.496 0 0 1-.204-.044.467.467 0 0 1-.166-.126.497.497 0 0 1-.148-.355.493.493 0 0 1 .148-.355l4.52-4a.51.51 0 0 1 .71 0 .474.474 0 0 1 .147.35.5.5 0 0 1-.147.35l-4.52 4a.458.458 0 0 1-.34.18Z" fill="#fff"/></g><path d="m708.122 941.58-20.982-1.081-.257 4.993 20.982 1.082.257-4.994Z" fill="#21252B"/><path d="m707.87 946.56.4 15.39-5.11.09 1.78-15.48h2.93ZM769.64 948l-2.38 15.82H787L782.08 948h-12.44Z" fill="#21252B"/><path opacity=".1" d="M666.45 619.15c-.53-1.55-1.12-3.08-1.72-4.61C659.48 601.35 650 566 650 566l-9.51-6.35-2.5-4.34.62 2.3c.18.61.37 1.17.52 1.63a4.742 4.742 0 0 0 1.65 2.27l7.1 5.36c7.31 35.36 15.32 54.19 19 61.68a15.388 15.388 0 0 0 8.36 7.65c5.63 2.09 12.68 1.08 15.71-1.62-16.24 3.76-22.67-10.13-24.5-15.43Z" fill="#000"/></svg>