<svg class="gridItem__media" xmlns="http://www.w3.org/2000/svg" width="1600" height="1200" style="enable-background:new 0 0 1600 1200" xml:space="preserve" fill="none"><path d="m216.88 617.9 92.2 403.1h1007.4l42.6-333.3a56.4 56.4 0 0 0-1.5-21.6L1269 345.7a55.179 55.179 0 0 0-16.6-26.566A55.149 55.149 0 0 0 1224 305.9l-674.6-99a54.858 54.858 0 0 0-51.2 20.4L227.28 571.6a55.004 55.004 0 0 0-10.4 46.3Z" fill="#F4F4F4"/><path d="m347.999 630-65.22 26.25a7.361 7.361 0 0 0-4.15 8.15l37.88 188.86h68.19L347.999 630Z" fill="#868A91"/><path d="m341.69 638.82 43 214.44h195.19l-43.6-217.34a7.37 7.37 0 0 0-7.22-5.92H348.91a7.375 7.375 0 0 0-7.146 5.59 7.367 7.367 0 0 0-.074 3.23Z" fill="#B2B6BB"/><path d="M630.039 963.3h-28.55l-42.55-214.43 76.06.13-4.96 214.3Z" fill="#868A91"/><path d="M630 963.3h57.42V756.24a7.37 7.37 0 0 0-7.37-7.37h-42.64a7.365 7.365 0 0 0-5.211 2.159 7.365 7.365 0 0 0-2.159 5.211L630 963.3Z" fill="#B2B6BB"/><path d="M630.029 853.26h-222.92V963.3h222.92V853.26Z" fill="#B2B6BB"/><path d="M630.029 805.69h-222.92v48.02h222.92v-48.02Z" fill="#B2B6BB"/><path d="m260.34 963.3 1.41 17.37 3.3 40.14h15.13l3.3-40.14 1.42-17.37h-24.56Z" fill="#868A91"/><g opacity=".2"><g opacity=".2"><path opacity=".2" d="M260.34 963.3h24.56l-1.42 17.37h-21.73l-1.41-17.37Z" fill="#000"/></g></g><path d="m366.119 963.3 1.42 17.37 3.29 40.14h15.14l3.3-40.14 1.41-17.37h-24.56Z" fill="#868A91"/><g opacity=".2"><g opacity=".2"><path opacity=".2" d="M366.119 963.3h24.56l-1.41 17.37h-21.73l-1.42-17.37Z" fill="#000"/></g></g><path d="m541.58 963.3 1.42 17.37 3.3 40.14h15.13l3.3-40.14 1.41-17.37h-24.56Z" fill="#868A91"/><path d="M1399.3 275.86H732.77c-5.523 0-10 4.477-10 10V768.9c0 5.523 4.477 10 10 10h666.53c5.52 0 10-4.477 10-10V285.86c0-5.523-4.48-10-10-10Z" fill="#fff"/><path d="M722 317.17h394V780H730.8a8.776 8.776 0 0 1-6.208-2.572 8.776 8.776 0 0 1-2.572-6.208v-454l-.02-.05Z" class="change-color-in-svg" fill="#4D61FC" style="fill:#158566"/><path opacity=".6" d="M722 317.17h394V780H730.8a8.776 8.776 0 0 1-6.208-2.572 8.776 8.776 0 0 1-2.572-6.208v-454l-.02-.05Z" fill="#fff"/><path d="M1367 568.49h-207a2.2 2.2 0 0 1-1.44-.716 2.19 2.19 0 0 1-.56-1.504V552a2.19 2.19 0 0 1 .56-1.504 2.2 2.2 0 0 1 1.44-.716h207a2.2 2.2 0 0 1 1.44.716c.37.412.57.949.56 1.504v14.24a2.098 2.098 0 0 1-.53 1.542c-.19.209-.41.379-.67.501-.25.121-.52.192-.8.207ZM1367 602h-207a2.2 2.2 0 0 1-1.44-.716 2.19 2.19 0 0 1-.56-1.504v-14.24c-.01-.554.19-1.092.56-1.504a2.2 2.2 0 0 1 1.44-.716h207a2.2 2.2 0 0 1 1.44.716c.37.412.57.95.56 1.504v14.24c.03.559-.17 1.106-.54 1.522-.38.416-.9.667-1.46.698Z" class="change-color-in-svg" fill="#4D61FC" style="fill:#158566"/><path opacity=".6" d="M1367 568.49h-207a2.2 2.2 0 0 1-1.44-.716 2.19 2.19 0 0 1-.56-1.504V552a2.19 2.19 0 0 1 .56-1.504 2.2 2.2 0 0 1 1.44-.716h207a2.2 2.2 0 0 1 1.44.716c.37.412.57.949.56 1.504v14.24a2.098 2.098 0 0 1-.53 1.542c-.19.209-.41.379-.67.501-.25.121-.52.192-.8.207ZM1367 602h-207a2.2 2.2 0 0 1-1.44-.716 2.19 2.19 0 0 1-.56-1.504v-14.24c-.01-.554.19-1.092.56-1.504a2.2 2.2 0 0 1 1.44-.716h207a2.2 2.2 0 0 1 1.44.716c.37.412.57.95.56 1.504v14.24c.03.559-.17 1.106-.54 1.522-.38.416-.9.667-1.46.698Z" fill="#fff"/><path d="M1305.77 646.19h-84.54a4.814 4.814 0 0 1-4.82-4.82v-13.8a4.828 4.828 0 0 1 4.82-4.83h84.54c1.28.003 2.51.512 3.41 1.418a4.81 4.81 0 0 1 1.42 3.412v13.8c0 .635-.12 1.265-.36 1.853a4.746 4.746 0 0 1-1.04 1.571 4.797 4.797 0 0 1-3.43 1.396ZM1208.81 716c-2.34 0-4.65-.461-6.81-1.356a17.784 17.784 0 0 1-5.78-3.861 17.949 17.949 0 0 1-3.86-5.778 17.83 17.83 0 0 1 3.86-19.401 17.807 17.807 0 0 1 25.18.002 17.815 17.815 0 0 1 5.22 12.594 17.833 17.833 0 0 1-5.22 12.584 17.833 17.833 0 0 1-12.59 5.216Z" class="change-color-in-svg" fill="#4D61FC" style="fill:#158566"/><path d="M1206.1 708.91h4.33v-10.86h3l.32-3.63h-3.35v-2.07c0-.86.17-1.2 1-1.2h2.35v-3.77h-3c-3.23 0-4.68 1.42-4.68 4.14v2.9h-2.26v3.68h2.26l.03 10.81Z" fill="#fff"/><path d="M1263.5 716c-2.34 0-4.65-.461-6.81-1.356a17.679 17.679 0 0 1-5.78-3.861 17.949 17.949 0 0 1-3.86-5.778 17.9 17.9 0 0 1-1.35-6.815c0-4.721 1.87-9.248 5.21-12.586a17.807 17.807 0 0 1 25.18.002 17.815 17.815 0 0 1 5.22 12.594 17.813 17.813 0 0 1-17.81 17.8Z" class="change-color-in-svg" fill="#4D61FC" style="fill:#158566"/><path d="M1263.5 690.64c2.45 0 2.74 0 3.7.05.58.004 1.16.112 1.7.32.4.142.76.375 1.06.68.3.28.53.621.68 1 .2.544.31 1.119.32 1.7v7.41a5.19 5.19 0 0 1-.32 1.7c-.15.397-.38.756-.68 1.05a2.8 2.8 0 0 1-1.06.68c-.54.208-1.12.316-1.7.32h-7.4a4.883 4.883 0 0 1-1.7-.32 2.738 2.738 0 0 1-1-.68 2.97 2.97 0 0 1-.69-1.05c-.2-.549-.3-1.127-.31-1.71 0-1-.06-1.25-.06-3.7s0-2.73.06-3.7c.01-.58.11-1.154.31-1.7.16-.377.39-.717.69-1 .28-.299.62-.531 1-.68a4.883 4.883 0 0 1 1.7-.32c1 0 1.26-.05 3.7-.05Zm0-1.65h-3.77c-.76.018-1.52.163-2.23.43-.61.212-1.16.553-1.62 1a4.3 4.3 0 0 0-1.05 1.63c-.27.709-.42 1.46-.43 2.22 0 1-.05 1.29-.06 3.77-.01 2.48 0 2.8.06 3.78.01.759.16 1.511.43 2.22.22.612.58 1.166 1.05 1.62.46.468 1.01.83 1.62 1.06.71.267 1.47.412 2.23.43h7.55a6.733 6.733 0 0 0 2.22-.43c.61-.23 1.16-.588 1.62-1.05.47-.458.83-1.015 1.06-1.63.27-.71.41-1.461.43-2.22 0-1 .05-1.29.05-3.77s0-2.8-.05-3.78a6.738 6.738 0 0 0-.43-2.22 4.448 4.448 0 0 0-1.06-1.63 4.566 4.566 0 0 0-1.62-1 6.733 6.733 0 0 0-2.22-.43h-3.78Z" fill="#fff"/><path d="M1263.5 693.44c-.93 0-1.84.277-2.62.795a4.691 4.691 0 0 0-1.73 2.115 4.702 4.702 0 0 0 3.44 6.421c.91.18 1.86.086 2.72-.272a4.733 4.733 0 0 0 2.11-1.739 4.71 4.71 0 0 0-.59-5.944 4.725 4.725 0 0 0-3.33-1.376Zm0 7.76a3.076 3.076 0 0 1-2.83-1.889 3.066 3.066 0 0 1 .67-3.335c.42-.428.97-.719 1.56-.837a3.06 3.06 0 0 1 3.66 3.001c0 .812-.32 1.59-.9 2.164-.57.574-1.35.896-2.16.896ZM1269.49 693.26c0 .218-.07.43-.19.611a1.089 1.089 0 0 1-1.13.468c-.21-.043-.4-.147-.56-.301a1.11 1.11 0 0 1-.24-1.199c.09-.201.23-.373.41-.494.18-.12.39-.185.61-.185.29 0 .57.116.78.322.2.207.32.486.32.778" fill="#fff"/><path d="M1318.19 716c-2.34 0-4.65-.461-6.81-1.356a17.784 17.784 0 0 1-5.78-3.861 17.949 17.949 0 0 1-3.86-5.778 17.9 17.9 0 0 1-1.35-6.815c0-2.338.46-4.654 1.36-6.814.89-2.16 2.2-4.123 3.86-5.776a17.733 17.733 0 0 1 5.77-3.858 17.859 17.859 0 0 1 6.82-1.352c2.34 0 4.65.461 6.81 1.356 2.16.895 4.13 2.207 5.78 3.861a17.949 17.949 0 0 1 3.86 5.778 17.9 17.9 0 0 1 1.35 6.815c0 2.338-.46 4.654-1.36 6.814-.89 2.16-2.2 4.123-3.86 5.776a17.67 17.67 0 0 1-5.78 3.858 17.772 17.772 0 0 1-6.81 1.352Z" class="change-color-in-svg" fill="#4D61FC" style="fill:#158566"/><path d="M1307.57 704.82a12.378 12.378 0 0 0 12.88.306 12.38 12.38 0 0 0 4.68-4.785 12.452 12.452 0 0 0 1.51-6.521 9.052 9.052 0 0 0 2.18-2.25c-.8.349-1.65.578-2.51.68a4.4 4.4 0 0 0 1.92-2.41c-.86.507-1.79.865-2.77 1.06a4.359 4.359 0 0 0-5.26-.871 4.402 4.402 0 0 0-1.92 2.065 4.367 4.367 0 0 0-.25 2.806 12.34 12.34 0 0 1-4.99-1.314 12.389 12.389 0 0 1-4.01-3.236c-.56.96-.73 2.096-.48 3.177a4.421 4.421 0 0 0 1.83 2.643 4.245 4.245 0 0 1-2-.55 4.418 4.418 0 0 0 .96 2.794c.64.79 1.53 1.334 2.53 1.536-.65.183-1.34.21-2 .08.28.861.83 1.613 1.56 2.15.72.538 1.6.835 2.51.85a8.755 8.755 0 0 1-6.37 1.79Z" fill="#fff"/><path d="M1400.48 779.77H731.59c-2.547.024-5-.964-6.819-2.747a9.614 9.614 0 0 1-2.881-6.763V284.51a9.622 9.622 0 0 1 9.7-9.51h668.89c2.55-.021 5 .968 6.82 2.75a9.656 9.656 0 0 1 2.88 6.76v485.75a9.621 9.621 0 0 1-2.88 6.763 9.611 9.611 0 0 1-6.82 2.747Zm-668.89-503a7.879 7.879 0 0 0-7.94 7.78v485.71a7.879 7.879 0 0 0 7.94 7.78h668.89c2.08.019 4.09-.79 5.58-2.248a7.848 7.848 0 0 0 2.36-5.532V284.51a7.848 7.848 0 0 0-2.36-5.532 7.883 7.883 0 0 0-5.58-2.248l-668.89.04Z" class="change-color-in-svg" fill="#4D61FC" style="fill:#158566"/><g opacity=".6"><path opacity=".6" d="M1400.48 779.77H731.59c-2.547.024-5-.964-6.819-2.747a9.614 9.614 0 0 1-2.881-6.763V284.51a9.622 9.622 0 0 1 9.7-9.51h668.89c2.55-.021 5 .968 6.82 2.75a9.656 9.656 0 0 1 2.88 6.76v485.75a9.621 9.621 0 0 1-2.88 6.763 9.611 9.611 0 0 1-6.82 2.747Zm-668.89-503a7.879 7.879 0 0 0-7.94 7.78v485.71a7.879 7.879 0 0 0 7.94 7.78h668.89c2.08.019 4.09-.79 5.58-2.248a7.848 7.848 0 0 0 2.36-5.532V284.51a7.848 7.848 0 0 0-2.36-5.532 7.883 7.883 0 0 0-5.58-2.248l-668.89.04Z" fill="#fff"/></g><path d="M731.84 275.1h668.29c2.65 0 5.2 1.054 7.07 2.929a9.981 9.981 0 0 1 2.93 7.071v32.6H721.84v-32.6a9.997 9.997 0 0 1 10-10Z" class="change-color-in-svg" fill="#4D61FC" style="fill:#158566"/><path d="M745.699 303.17a6.08 6.08 0 1 0 0-12.16 6.08 6.08 0 0 0 0 12.16ZM765.019 303.17a6.08 6.08 0 1 0 0-12.16 6.08 6.08 0 0 0 0 12.16ZM784.349 303.17a6.08 6.08 0 1 0 0-12.161 6.08 6.08 0 0 0 0 12.161ZM1263.5 513.48c31.45 0 56.94-25.493 56.94-56.94s-25.49-56.94-56.94-56.94-56.94 25.493-56.94 56.94 25.49 56.94 56.94 56.94Z" fill="#fff"/><path d="m1309.64 489.7-29.54-8.93h-.1l-1.86-.81-2.47.54-15.56.41-6.87-1.37-1.92-.63v.05l-24.47 7c-.62.18-1.25.32-1.89.46-2.66.633-5.2 1.719-7.49 3.21a56.945 56.945 0 0 0 46.08 23.499 56.945 56.945 0 0 0 46.08-23.499l.01.07Zm-29.6-8.87v.14c.01-.09-.04-.14-.04-.14h.04Z" class="change-color-in-svg" fill="#4D61FC" style="fill:#158566"/><path d="m1251.36 453 .18 24.78a2.75 2.75 0 0 0 .54 1.68l.24.42a18.215 18.215 0 0 0 5.41 5.255 18.157 18.157 0 0 0 14.61 2.107 18.198 18.198 0 0 0 6.68-3.512c.41-.346.73-.793.92-1.298.19-.504.24-1.05.16-1.582l-4.51-29.83-24.23 1.98Z" fill="#FC9D9D"/><path d="M1278.24 440.78s4.93 32.59-13 33.91c-17.56 1.33-18.1-31.63-18.1-31.63l-.49-9.44 22.62-4 5.71 3 3.26 8.16Z" fill="#FC9D9D"/><path opacity=".15" d="m1278.66 472-1.33-9c-1.62 5.77-5 10.58-10.88 11.54h.06l-1.26.18c-4.69.36-8.6-1.8-11.55-6.43a.39.39 0 0 0-.54-.12.372.372 0 0 0-.17.245.383.383 0 0 0 .05.295c3.13 4.93 7.28 7.22 12.27 6.86 1.04-.076 2.07-.28 3.06-.61 3.68.378 7.37-.683 10.29-2.96Z" fill="#000"/><path d="M1274 433.5s5.71-3.79 8.41 2.71c2.29 5.47-1.56 11.42-1.56 11.42l-3.31-.36a2.243 2.243 0 0 1-1.64-.493 2.244 2.244 0 0 1-.82-1.507L1274 433.5Z" fill="#000"/><path d="M1278.06 429.53c.48 6.2-4.82 7.82-7 8l-17.74 1.5c-.7.066-1.34.396-1.8.923a2.72 2.72 0 0 0-.67 1.907l.3 5.65c.03.373-.08.745-.32 1.037-.23.292-.57.483-.94.533l-1.08.12-1.2 1.5c-7-1.68-9.87-21.47 2.94-25.44a5.465 5.465 0 0 0 3.19-2.7c1.86-3.85 9.5-4.87 13.35-.54.37.443.85.793 1.38 1.022a3.73 3.73 0 0 0 1.69.298c4.65-.12 7.65 2.76 7.9 6.19Z" fill="#000"/><path d="M1248.89 451.12a2.965 2.965 0 0 0-.55-1.459 2.95 2.95 0 0 0-1.22-.967 2.944 2.944 0 0 0-1.55-.199c-.53.075-1.02.291-1.43.625l-.06.06c-3.07 2.64-1.08 10.94 5.65 10.22l-.84-8.28ZM1282.38 446.73l-.06-.06a2.927 2.927 0 0 0-4.04 1.148c-.25.46-.37.979-.35 1.502l.37 7.93c6.79-.25 7.45-8.35 4.08-10.52Z" fill="#FC9D9D"/><path d="M1249.73 452.14c.01.206-.05.41-.19.567a.77.77 0 0 1-.53.273.821.821 0 0 1-.57-.128.829.829 0 0 1-.33-.472l-.78-5.35 2.22.06.18 5.05ZM1279.32 450c.01.206-.05.41-.19.567a.77.77 0 0 1-.53.273.82.82 0 0 1-.91-.6l-.78-5.35 2.23.06.18 5.05Z" fill="#000"/><path d="M1271.2 438.31c-.3.036-.6.036-.9 0a.443.443 0 0 1-.15-.041.616.616 0 0 1-.12-.094.348.348 0 0 1-.07-.133c-.02-.049-.02-.101-.02-.152a.357.357 0 0 1 .14-.267.387.387 0 0 1 .28-.093c.06 0 3.61.18 5.11-2.16a.374.374 0 0 1 .24-.178c.05-.012.1-.014.16-.006a.38.38 0 0 1 .31.304c.03.103.01.211-.05.3a6.372 6.372 0 0 1-2.17 1.831c-.86.436-1.8.672-2.76.689Z" fill="#FC9D9D"/><path d="M1257.85 455.75c.31.002.62-.089.88-.26.25-.172.46-.417.58-.704a1.575 1.575 0 0 0-1.15-2.146c-.3-.06-.62-.029-.91.092-.28.12-.53.322-.7.582-.17.26-.26.565-.26.876 0 .414.16.811.46 1.103.29.293.69.457 1.1.457Z" fill="#000"/><path d="M1257.13 454.37c.07 0 .14-.021.2-.061.06-.039.1-.095.13-.161a.3.3 0 0 0 .02-.208.342.342 0 0 0-.1-.185.348.348 0 0 0-.18-.098.371.371 0 0 0-.21.02.356.356 0 0 0-.11.588c.06.067.15.105.25.105Z" fill="#fff"/><path d="M1269.88 454.85a1.573 1.573 0 0 0 1.11-2.684 1.596 1.596 0 0 0-.81-.427c-.31-.06-.62-.027-.91.093a1.6 1.6 0 0 0-.7.583c-.17.26-.26.564-.26.875 0 .206.04.409.12.599.08.19.19.363.34.508.15.145.32.259.51.337.19.078.39.117.6.116Z" fill="#000"/><path d="M1269.16 453.53a.363.363 0 0 0 .22-.126.354.354 0 0 0 .09-.239.354.354 0 0 0-.09-.239.363.363 0 0 0-.38-.118.38.38 0 0 0-.14.075.53.53 0 0 0-.1.127.413.413 0 0 0 0 .311c.03.048.06.092.1.126.04.035.09.06.14.075.05.014.11.017.16.008Z" fill="#fff"/><path opacity=".3" d="m1264.65 461.58 1.26-.12a.421.421 0 0 0 .17-.046.46.46 0 0 0 .23-.259c.02-.057.02-.116.02-.175a.35.35 0 0 0-.05-.17.405.405 0 0 0-.1-.139.502.502 0 0 0-.33-.111l-1.27.12a1.05 1.05 0 0 1-.55-.326 1.056 1.056 0 0 1-.24-.589 1.03 1.03 0 0 1 .17-.614.977.977 0 0 1 .5-.391.454.454 0 0 0 .42-.48.454.454 0 0 0-.15-.309.456.456 0 0 0-.33-.111c-.24.013-.48.077-.7.186a1.7 1.7 0 0 0-.57.45 1.766 1.766 0 0 0-.41 1.364c0 .243.06.483.16.705.1.221.24.419.43.581a1.724 1.724 0 0 0 1.34.434Z" fill="#000"/><path d="m1274.21 449.14-6.8.36-.9.06-6 .36h-.06l-7.64.42c-.3.017-.59.092-.86.222-.26.13-.5.312-.7.536-.2.223-.35.483-.44.765-.09.282-.13.58-.11.877l.12 1.75a6.11 6.11 0 0 0 6.43 5.775 6.106 6.106 0 0 0 4.22-2.021 6.08 6.08 0 0 0 1.56-4.414l-.12-1.75a2.214 2.214 0 0 0-.54-1.32l2.35-.12c-.28.403-.41.891-.37 1.38l.12 1.75a6.146 6.146 0 0 0 2.02 4.219 6.128 6.128 0 0 0 4.42 1.551 6.11 6.11 0 0 0 5.77-6.44l-.12-1.74a2.2 2.2 0 0 0-.19-.875c-.12-.277-.3-.526-.52-.733a2.097 2.097 0 0 0-.76-.473 2.233 2.233 0 0 0-.88-.139Zm-12.15 2.94.12 1.75a5.39 5.39 0 0 1-.24 2.035 5.155 5.155 0 0 1-1.02 1.782 5.167 5.167 0 0 1-5.63 1.482 5.177 5.177 0 0 1-2.97-2.706 5.1 5.1 0 0 1-.48-1.993l-.12-1.75c-.01-.356.11-.703.34-.971.24-.268.56-.436.92-.469l7.64-.42h.06c.17-.017.35.003.52.059a1.233 1.233 0 0 1 .75.689c.07.162.11.336.11.512Zm13.77 1a5.19 5.19 0 0 1-.25 2.032 5.122 5.122 0 0 1-1.01 1.778c-.45.519-1 .943-1.62 1.247a5.185 5.185 0 0 1-4.01.236 5.137 5.137 0 0 1-1.75-1.048 5.173 5.173 0 0 1-1.22-1.646 5.267 5.267 0 0 1-.48-1.989l-.12-1.75c-.01-.356.11-.703.34-.971.24-.268.56-.436.92-.469l.9-.06 6.8-.36c.36-.014.7.108.97.343.27.234.44.563.47.917l.06 1.74Z" fill="#000"/><path d="m1260.8 464.05 7.63-.54c.05-.001.09.008.13.027.04.019.08.046.11.081s.05.075.06.119c.01.043.01.089 0 .133-.24.857-.73 1.62-1.41 2.187-.69.567-1.53.909-2.41.981-.89.073-1.78-.13-2.54-.578a4.315 4.315 0 0 1-1.75-1.93v-.06a.293.293 0 0 1-.05-.126c0-.046.01-.092.02-.134a.27.27 0 0 1 .09-.106.216.216 0 0 1 .12-.054Z" fill="#fff"/><path opacity=".3" d="M1247.21 455.45a.533.533 0 0 1-.32-.127.552.552 0 0 1-.17-.293l-.12-1a3.294 3.294 0 0 0-.84-2.11c-.2-.171-.46-.258-.72-.24a.444.444 0 0 1-.36-.052.456.456 0 0 1-.14-.129.525.525 0 0 1-.07-.173.587.587 0 0 1 0-.187c.01-.061.04-.12.08-.171a.415.415 0 0 1 .31-.188c.51-.056 1.02.071 1.44.36.38.342.68.76.89 1.227.21.467.32.972.32 1.483l.12 1a.558.558 0 0 1-.11.372.563.563 0 0 1-.31.228ZM1280.28 453c.12-.01.23-.066.31-.155.07-.09.11-.206.11-.325v-1c-.07-.378-.05-.765.04-1.137s.26-.72.5-1.023c.08-.11.19-.2.32-.262a.909.909 0 0 1 .4-.098.43.43 0 0 0 .29-.134.442.442 0 0 0 .04-.605.428.428 0 0 0-.27-.171 1.855 1.855 0 0 0-1.32.61c-.32.399-.56.862-.69 1.358a3.558 3.558 0 0 0-.09 1.522v1c-.12.22.08.42.36.42Z" fill="#000"/><path d="M1263.5 519a62.444 62.444 0 0 1-34.68-10.548 62.477 62.477 0 0 1-22.98-28.036 62.481 62.481 0 0 1-3.54-36.076 62.524 62.524 0 0 1 17.1-31.963 62.493 62.493 0 0 1 31.98-17.079 62.433 62.433 0 0 1 36.07 3.558 62.427 62.427 0 0 1 28.02 22.997A62.444 62.444 0 0 1 1326 456.54a62.538 62.538 0 0 1-18.33 44.163A62.49 62.49 0 0 1 1263.5 519Zm0-123.49a61.014 61.014 0 0 0-33.89 10.28 61.038 61.038 0 0 0-22.47 27.376 61.091 61.091 0 0 0-3.47 35.245 61.066 61.066 0 0 0 16.7 31.233 61 61 0 0 0 31.23 16.694 60.98 60.98 0 0 0 35.24-3.471 60.98 60.98 0 0 0 27.38-22.467 61.023 61.023 0 0 0 10.28-33.89 61.104 61.104 0 0 0-17.9-43.108 61.096 61.096 0 0 0-43.1-17.902v.01Zm0 118.58a57.56 57.56 0 0 1-31.98-9.677 57.51 57.51 0 0 1-21.21-25.813 57.51 57.51 0 0 1-3.29-33.247 57.47 57.47 0 0 1 15.74-29.472 57.528 57.528 0 0 1 62.7-12.498 57.493 57.493 0 0 1 25.83 21.188 57.493 57.493 0 0 1 9.71 31.969 57.607 57.607 0 0 1-16.86 40.652 57.607 57.607 0 0 1-40.64 16.888v.01Zm0-113.68a56.15 56.15 0 0 0-51.87 34.656 56.1 56.1 0 0 0-3.19 32.436 56.094 56.094 0 0 0 15.36 28.745 56.152 56.152 0 0 0 61.18 12.17 56.128 56.128 0 0 0 34.66-51.867 56.17 56.17 0 0 0-16.46-39.686 56.178 56.178 0 0 0-39.68-16.464v.01Z" class="change-color-in-svg" fill="#4D61FC" style="fill:#158566"/><path opacity=".2" d="M1058.12 683.48c-32.8 11.71-69.41-14.81-104.58-9.6-33 4.9-54.06 36.17-87.44 39.24-15.24 1.4-30.27-3.51-43.93-9.29-13.66-5.78-27-12.58-41.92-15.45-21.27-4.08-44 4.24-58.24 17.52v65.31a8.78 8.78 0 0 0 8.78 8.78L1116 780V646c-23.4 5.15-35.14 29.37-57.88 37.48Z" class="change-color-in-svg" fill="#4D61FC" style="fill:#158566"/><path opacity=".2" d="M1064.66 690.89c-13-3.64-27.72-.69-39.61 4.6-11.89 5.29-21.75 12.74-32.66 19.11-25.23 14.7-61.07 23.36-89.06 11.81-13.48-5.56-23.21-15-34.69-22.67-11.48-7.67-26.86-14-41.74-11.06-12.19 2.38-20.82 10.25-31 15.77-13.42 7.25-48.11 25.43-73.85 14.45v48.31a8.78 8.78 0 0 0 8.78 8.78L1116 780v-67.36c-14.91-6.47-42.5-19.26-51.34-21.75Z" class="change-color-in-svg" fill="#4D61FC" style="fill:#158566"/><path opacity=".2" d="M722 462.31c6.74 7.23 13 15.68 20.73 20 13 7.22 27.73 1.38 39.61-9.13 11.88-10.51 21.75-25.3 32.66-37.93 25.23-29.19 61.07-46.37 89.06-23.45 13.48 11 23.21 29.75 34.69 45 11.48 15.25 26.86 27.73 41.74 21.95 12.19-4.73 20.82-20.35 31-31.31C1026 432 1061.91 399.69 1116 426V318H722v144.31Z" fill="#fff"/><path opacity=".2" d="M722 416.87c20.71-4.54 44.09.24 61.28 12.84 11.59 8.5 21.37 20.6 35.2 24.27 16.87 4.48 34.31-5.19 47.32-17 13.01-11.81 24-26.34 39.33-34.89 31.73-17.77 72.37-4.45 101 18.18 12.37 9.79 23.56 21.25 37 29.4 13.44 8.15 30.23 12.67 44.9 7.07 10.46-4 18.52-12.53 28-18.59V318h-394l-.03 98.87Z" fill="#fff"/><g style="mix-blend-mode:overlay" opacity=".7"><g style="mix-blend-mode:overlay" opacity=".7"><path d="M803.759 408.14a3.068 3.068 0 0 1-5.237 2.184 3.072 3.072 0 0 1 .46-4.726 3.073 3.073 0 0 1 1.707-.518 3.066 3.066 0 0 1 2.17.893 3.047 3.047 0 0 1 .9 2.167Z" fill="#fff"/></g><g style="mix-blend-mode:overlay" opacity=".7"><path d="M1009 654.45c0 .608-.18 1.202-.52 1.707a3.09 3.09 0 0 1-1.38 1.13 3.075 3.075 0 0 1-3.35-.67c-.42-.43-.72-.978-.83-1.574a3.001 3.001 0 0 1 .18-1.775c.23-.561.62-1.039 1.13-1.375a3.072 3.072 0 0 1 2.88-.279c.37.154.71.381 1 .666a3.072 3.072 0 0 1 .89 2.17Z" fill="#fff"/></g><g style="mix-blend-mode:overlay" opacity=".7"><path d="M803.11 736.52a1.574 1.574 0 0 1-.963 1.458 1.573 1.573 0 0 1-1.714-.334 1.574 1.574 0 0 1 .233-2.419 1.573 1.573 0 0 1 1.98.191c.295.293.461.689.464 1.104Z" fill="#fff"/></g><g style="mix-blend-mode:overlay" opacity=".7"><path d="M1064.22 654.02a3.35 3.35 0 1 0 0-6.7 3.35 3.35 0 0 0 0 6.7Z" fill="#fff"/></g><g style="mix-blend-mode:overlay" opacity=".7"><path d="M820.529 711.6a3.851 3.851 0 0 1-4.601 3.776 3.846 3.846 0 0 1-3.025-3.025 3.856 3.856 0 0 1 1.637-3.952 3.851 3.851 0 0 1 5.989 3.201Z" fill="#fff"/></g><g style="mix-blend-mode:overlay" opacity=".7"><path d="M807.559 387.21a1.839 1.839 0 1 1-1.84-1.84 1.849 1.849 0 0 1 1.84 1.84Z" fill="#fff"/></g><g style="mix-blend-mode:overlay" opacity=".7"><path d="M1056.79 678.18c0 .364-.11.721-.31 1.023-.2.303-.49.539-.83.678-.34.139-.71.175-1.06.103a1.868 1.868 0 0 1-.95-.506 1.898 1.898 0 0 1-.5-.945 1.846 1.846 0 0 1 .79-1.888 1.857 1.857 0 0 1 2.33.235 1.883 1.883 0 0 1 .53 1.3Z" fill="#fff"/></g><g style="mix-blend-mode:overlay" opacity=".7"><path d="M764.78 399.64a1.1 1.1 0 1 0-.001-2.201 1.1 1.1 0 0 0 .001 2.201Z" fill="#fff"/></g><g style="mix-blend-mode:overlay" opacity=".7"><path d="M1096 552.25c0 .22-.06.436-.18.62s-.3.328-.5.413c-.2.086-.43.109-.64.066a1.134 1.134 0 0 1-.58-.304 1.13 1.13 0 0 1-.3-.571c-.04-.216-.02-.44.07-.644.08-.203.22-.376.41-.497a1.116 1.116 0 0 1 1.4.139c.2.206.32.486.32.778Z" fill="#fff"/></g><g style="mix-blend-mode:overlay" opacity=".7"><path d="M855.21 680.89a1.085 1.085 0 0 1-.66 1.005 1.08 1.08 0 1 1 .66-1.005Z" fill="#fff"/></g><g style="mix-blend-mode:overlay" opacity=".7"><path d="M754.899 661.31a2.272 2.272 0 0 1-1.401 2.097 2.264 2.264 0 0 1-1.311.129 2.263 2.263 0 0 1-1.784-1.783 2.267 2.267 0 0 1 2.226-2.713 2.267 2.267 0 0 1 2.27 2.27Z" fill="#fff"/></g><g style="mix-blend-mode:overlay" opacity=".7"><path d="M1067.06 583.94c.61 0 1.1-.492 1.1-1.1 0-.607-.49-1.1-1.1-1.1-.61 0-1.1.493-1.1 1.1 0 .608.49 1.1 1.1 1.1Z" fill="#fff"/></g></g><g style="mix-blend-mode:overlay" opacity=".6"><path d="M1037.24 679c0 1.852-.55 3.663-1.57 5.204a9.377 9.377 0 0 1-4.2 3.452 9.377 9.377 0 0 1-10.21-2.027 9.352 9.352 0 0 1-2.56-4.795 9.326 9.326 0 0 1 3.99-9.611 9.356 9.356 0 0 1 14.55 7.777Z" fill="#fff"/></g><g style="mix-blend-mode:overlay" opacity=".6"><g style="mix-blend-mode:overlay" opacity=".6"><path d="M1027.89 697.89a18.892 18.892 0 0 1-10.5-3.18 18.897 18.897 0 0 1-8.05-19.401 18.938 18.938 0 0 1 5.17-9.68 18.885 18.885 0 0 1 9.68-5.175 18.892 18.892 0 0 1 19.4 8.035 18.881 18.881 0 0 1 3.19 10.501c-.01 5.009-2 9.812-5.54 13.355a18.912 18.912 0 0 1-13.35 5.545Zm0-36.79a17.92 17.92 0 0 0-9.95 3.012 17.961 17.961 0 0 0-6.6 8.031 17.948 17.948 0 0 0-1.02 10.343c.69 3.473 2.4 6.663 4.9 9.168 2.5 2.504 5.69 4.21 9.16 4.901 3.48.692 7.08.338 10.35-1.017a17.903 17.903 0 0 0 8.03-6.592 17.882 17.882 0 0 0 3.02-9.946c0-4.745-1.89-9.295-5.24-12.651a17.932 17.932 0 0 0-12.65-5.249Z" fill="#fff"/></g></g><g style="mix-blend-mode:overlay" opacity=".6"><path d="M788.089 446.92a9.35 9.35 0 0 0 9.35-9.35 9.35 9.35 0 0 0-9.35-9.35 9.35 9.35 0 0 0-9.35 9.35 9.35 9.35 0 0 0 9.35 9.35Z" fill="#fff"/></g><g style="mix-blend-mode:overlay" opacity=".6"><g style="mix-blend-mode:overlay" opacity=".6"><path d="M788.089 456.47a18.898 18.898 0 0 1-18.525-22.593 18.9 18.9 0 0 1 37.435 3.693 18.917 18.917 0 0 1-18.91 18.9Zm0-36.79a17.906 17.906 0 0 0-16.531 11.059 17.906 17.906 0 0 0 3.891 19.505 17.902 17.902 0 0 0 27.539-2.728 17.9 17.9 0 0 0 3.011-9.946 17.92 17.92 0 0 0-17.91-17.89Z" fill="#fff"/></g></g><path d="M1054.05 380.71a13.304 13.304 0 0 1-14.72-1.394 13.276 13.276 0 0 1-4.31-6.408 13.369 13.369 0 0 1-.03-7.724 13.34 13.34 0 0 1 4.28-6.436 13.303 13.303 0 0 1 7.13-2.975c2.61-.265 5.25.253 7.57 1.488a13.303 13.303 0 0 1 5.48 5.449 13.255 13.255 0 0 1 1.02 10.117 13.288 13.288 0 0 1-6.42 7.883Z" fill="#fff"/><path d="M1047.74 389.61a20.607 20.607 0 0 1-20.21-24.631c.79-3.998 2.75-7.67 5.64-10.552a20.58 20.58 0 0 1 10.55-5.641c4-.795 8.14-.387 11.91 1.173a20.668 20.668 0 0 1 9.25 7.591 20.643 20.643 0 0 1 3.47 11.45 20.664 20.664 0 0 1-6.04 14.568 20.652 20.652 0 0 1-14.57 6.042Zm0-40.22c-3.88 0-7.67 1.15-10.89 3.305a19.628 19.628 0 0 0-7.23 8.801 19.615 19.615 0 0 0-1.11 11.33 19.565 19.565 0 0 0 5.36 10.04 19.645 19.645 0 0 0 10.04 5.367c3.81.757 7.75.369 11.33-1.116a19.623 19.623 0 0 0 8.81-7.222 19.643 19.643 0 0 0 3.3-10.895 19.634 19.634 0 0 0-19.61-19.61Z" fill="#fff"/><g opacity=".8"><path opacity=".8" d="M1007.92 505.58H830.1a2.09 2.09 0 0 0-2.09 2.09v16.82a2.09 2.09 0 0 0 2.09 2.09h177.82c1.15 0 2.09-.936 2.09-2.09v-16.82c0-1.154-.94-2.09-2.09-2.09Z" fill="#fff"/><g opacity=".8"><path opacity=".8" d="M1047.74 549.6H797.629a1.503 1.503 0 0 1-1.5-1.5 1.503 1.503 0 0 1 1.5-1.5h250.111c.4 0 .78.158 1.06.439.28.282.44.663.44 1.061 0 .398-.16.779-.44 1.061-.28.281-.66.439-1.06.439Z" fill="#fff"/></g><g opacity=".8"><path opacity=".8" d="M1071 567.39H774.369a1.63 1.63 0 0 1 0-3.26H1071c.43 0 .85.172 1.15.478.31.305.48.72.48 1.152 0 .432-.17.847-.48 1.153-.3.305-.72.477-1.15.477Z" fill="#fff"/></g><g opacity=".8"><path opacity=".8" d="M1047.74 584.93H797.629a1.503 1.503 0 0 1-1.5-1.5 1.503 1.503 0 0 1 1.5-1.5h250.111c.4 0 .78.158 1.06.439.28.282.44.663.44 1.061 0 .398-.16.779-.44 1.061-.28.281-.66.439-1.06.439Z" fill="#fff"/></g><g opacity=".8"><path opacity=".8" d="M1022.37 602.43H823a1.341 1.341 0 0 1-1.456-1.335 1.35 1.35 0 0 1 .434-.987 1.342 1.342 0 0 1 1.022-.348h199.37c.18-.016.37.007.55.067.17.059.33.155.47.281.14.125.25.278.32.448a1.261 1.261 0 0 1 0 1.079c-.07.17-.18.322-.32.448-.14.125-.3.221-.47.281-.18.06-.37.082-.55.066Z" fill="#fff"/></g></g><g opacity=".2"><g opacity=".2"><path opacity=".2" d="M541.58 963.3h24.56l-1.41 17.37H543l-1.42-17.37Z" fill="#000"/></g></g><path d="m647.39 963.3 1.42 17.37 3.3 40.14h15.13l3.3-40.14 1.41-17.37h-24.56Z" fill="#868A91"/><g opacity=".2"><g opacity=".2"><path opacity=".2" d="m671.95 963.3-1.41 17.37h-21.73l-1.42-17.37h24.56Z" fill="#000"/></g></g><path d="M630 956.5a.504.504 0 0 1-.354-.146.504.504 0 0 1-.146-.354V749.35c0-.133.053-.26.146-.354a.504.504 0 0 1 .708 0 .504.504 0 0 1 .146.354V956c0 .133-.053.26-.146.354a.504.504 0 0 1-.354.146ZM626.44 806.19H414.71a.504.504 0 0 1-.354-.146.504.504 0 0 1 0-.708.504.504 0 0 1 .354-.146h211.73c.133 0 .26.053.354.146a.504.504 0 0 1 0 .708.504.504 0 0 1-.354.146ZM626.44 853.19H414.71a.504.504 0 0 1-.354-.146.504.504 0 0 1 0-.708.504.504 0 0 1 .354-.146h211.73c.133 0 .26.053.354.146a.504.504 0 0 1 0 .708.504.504 0 0 1-.354.146Z" fill="#868A91"/><path d="m539.999 761.51-15.8-108.83a27.675 27.675 0 0 0-20.93-22.9l-42.25-10-42.56.4-39.33 9.39a27.668 27.668 0 0 0-20.93 31l4.58 30.17 7.74 16.74c.359.928.649 1.88.87 2.85l7.18 39.25a14.58 14.58 0 0 0 14.43 11.93h147Z" class="change-color-in-svg" fill="#4D61FC" style="fill:#158566"/><path d="M515.519 652a1.183 1.183 0 0 1-1.19-1l-.55-3.79a1.204 1.204 0 0 1 1.011-1.449 1.203 1.203 0 0 1 1.359 1.129l.55 3.79a1.16 1.16 0 0 1-.218.88 1.168 1.168 0 0 1-.782.46l-.18-.02ZM469.789 695.25a1.198 1.198 0 0 1-1.19-1.1l-.39-3.87a1.184 1.184 0 0 1 .26-.908 1.2 1.2 0 0 1 .375-.304 1.202 1.202 0 0 1 .943-.063 1.183 1.183 0 0 1 .792 1.115l.42 3.88a1.11 1.11 0 0 1-1.1 1.26l-.11-.01ZM406.059 650.87a1.212 1.212 0 0 1-1.19-1.11l-.389-3.87a1.185 1.185 0 0 1 1.109-1.193 1.188 1.188 0 0 1 1.261 1.033l.389 3.87a1.115 1.115 0 0 1-.64 1.167 1.122 1.122 0 0 1-.459.103c0-.08-.081 0-.081 0ZM432.83 703.94a1.094 1.094 0 0 1-.71-.24 1.218 1.218 0 0 1-.12-1.7l2.45-3a1.184 1.184 0 0 1 .81-.499 1.197 1.197 0 0 1 .915.26 1.178 1.178 0 0 1 .349 1.331 1.185 1.185 0 0 1-.264.408l-2.44 3c-.271.253-.62.408-.99.44ZM487.799 635.15a1.143 1.143 0 0 1-.79-.31 1.223 1.223 0 0 1-.16-1.66l2.29-2.77a1.177 1.177 0 0 1 1.592-.078 1.181 1.181 0 0 1 .218 1.578l-2.29 2.77a1.09 1.09 0 0 1-.86.47ZM433.3 668.56a1.349 1.349 0 0 1-1-.55l-1.9-3.09a1.201 1.201 0 0 1 .835-1.818 1.195 1.195 0 0 1 .896.214c.128.092.236.209.319.344l1.9 3.08a1.26 1.26 0 0 1-.4 1.66 2.319 2.319 0 0 1-.65.16ZM495.219 716.26a1.117 1.117 0 0 1-.79-.32 1.232 1.232 0 0 1-.16-1.66l2.29-2.76a1.182 1.182 0 0 1 2.056.649c.035.303-.05.608-.236.851l-2.29 2.76a.847.847 0 0 1-.87.48Z" fill="#fff"/><path d="m582.85 980.71 2.84 4.42a29.999 29.999 0 0 0 16 12.4l35.93 12.72c3.24 1 2.84 5.76-.55 5.76h-4.5c-.29.4-.671.72-1.111.94-.44.22-.927.34-1.419.33a4.566 4.566 0 0 1-2.77-1.11c-.07-.08-.15-.08-.23-.16h-.63c-.08.08-.24.08-.32.24-.296.34-.659.62-1.068.81-.408.19-.852.29-1.302.3a4.683 4.683 0 0 1-2.61-1 .701.701 0 0 0-.263-.16.79.79 0 0 0-.305-.04.99.99 0 0 0-.296.08.798.798 0 0 0-.236.2c-.232.28-.523.5-.852.65a2.37 2.37 0 0 1-1.048.22 4.015 4.015 0 0 1-2.21-.79.845.845 0 0 0-.512-.14.876.876 0 0 0-.488.21c-.474.44-1.092.7-1.74.72a2.36 2.36 0 0 1-1.238-.35 2.432 2.432 0 0 1-.892-.92h-.32l-44.46-.71c-4.27-.08-7.43-1.42-9.24-4.74l-.16-23.42 26-6.46Z" fill="#FC9D9D"/><path opacity=".15" d="M638.53 1010.64c-.08-.08-.24-.16-.32-.23a5.194 5.194 0 0 0-.55-.24l-.71-.24h-.08c-.12.06-.229.14-.32.24a3 3 0 0 1-1.059.82c-.41.19-.859.29-1.311.28-.95 0-1.869-.33-2.6-.94a.89.89 0 0 0-.57-.17.8.8 0 0 0-.54.25c-.23.28-.519.5-.847.65-.327.14-.684.22-1.043.21-.8-.03-1.571-.31-2.21-.79a.84.84 0 0 0-.513-.12.807.807 0 0 0-.487.2c-.228.23-.5.41-.799.53a2.52 2.52 0 0 1-.941.18 2.36 2.36 0 0 1-1.242-.33 2.338 2.338 0 0 1-.888-.93h-.32l-21.91-.35 4.62-11.34a42.712 42.712 0 0 1-10.1 11.25l-17.07-.27c-4.26-.08-7.42-1.42-9.24-4.74a9.702 9.702 0 0 1 2-12l13.38-11.89L563 986l-6 1v23.64c1.81 3.32 5 4.66 9.24 4.74l44.46.71h.32a2.435 2.435 0 0 0 2.13 1.26 2.596 2.596 0 0 0 1.73-.71.839.839 0 0 1 1-.07 4.01 4.01 0 0 0 2.21.78c.361.01.719-.07 1.047-.21.329-.15.62-.37.853-.65a.802.802 0 0 1 .237-.2.976.976 0 0 1 .295-.08c.104-.01.208.01.305.04.098.03.187.09.263.16.752.58 1.664.9 2.61.94.45-.01.894-.11 1.302-.3.408-.19.772-.46 1.068-.8.08-.16.24-.16.32-.24h.63c.08.08.15.08.23.16a4.563 4.563 0 0 0 2.77 1.11c.492 0 .978-.11 1.418-.33.44-.22.821-.54 1.112-.94h4.5c3.06-.01 3.69-3.79 1.48-5.37Z" fill="#000"/><path d="M487.8 670.3a.476.476 0 0 1-.32-.08l-3.87-1.22a1.2 1.2 0 0 1 .71-2.29l3.87 1.19a1.213 1.213 0 0 1 .79 1.5 1.19 1.19 0 0 1-1.18.9ZM517.65 698.41l-.24-.24-2.29-3.39a1.207 1.207 0 1 1 2-1.35l2.29 3.4a1.188 1.188 0 0 1-.196 1.532 1.191 1.191 0 0 1-1.544.048h-.02Z" fill="#fff"/><path d="m680.85 979.71 2.84 4.42a29.999 29.999 0 0 0 16 12.4l35.93 12.72c3.24 1 2.84 5.76-.55 5.76h-4.5c-.29.4-.671.72-1.111.94-.44.22-.927.34-1.419.33a4.566 4.566 0 0 1-2.77-1.11c-.07-.08-.15-.08-.23-.16h-.63c-.08.08-.24.08-.32.24-.296.34-.659.62-1.068.81-.408.19-.852.29-1.302.3a4.683 4.683 0 0 1-2.61-1 .701.701 0 0 0-.263-.16.79.79 0 0 0-.305-.04.99.99 0 0 0-.296.08.798.798 0 0 0-.236.2c-.232.28-.523.5-.852.65a2.37 2.37 0 0 1-1.048.22 4.015 4.015 0 0 1-2.21-.79.845.845 0 0 0-.512-.14.876.876 0 0 0-.488.21c-.474.44-1.092.7-1.74.72a2.36 2.36 0 0 1-1.238-.35 2.432 2.432 0 0 1-.892-.92h-.32l-44.46-.71c-4.27-.08-7.43-1.42-9.24-4.74l-.16-23.42 26-6.46Z" fill="#FC9D9D"/><path opacity=".15" d="M736.53 1009.64c-.08-.08-.24-.16-.32-.23a5.194 5.194 0 0 0-.55-.24l-.71-.24h-.08c-.12.06-.229.14-.32.24a3 3 0 0 1-1.059.82c-.41.19-.859.29-1.311.28-.95 0-1.869-.33-2.6-.94a.89.89 0 0 0-.57-.17.8.8 0 0 0-.54.25c-.23.28-.519.5-.847.65-.327.14-.684.22-1.043.21-.8-.03-1.571-.31-2.21-.79a.84.84 0 0 0-.513-.12.807.807 0 0 0-.487.2c-.228.23-.5.41-.799.53a2.52 2.52 0 0 1-.941.18 2.36 2.36 0 0 1-1.242-.33 2.338 2.338 0 0 1-.888-.93h-.32l-21.91-.35 4.62-11.34a42.712 42.712 0 0 1-10.1 11.25l-17.07-.27c-4.26-.08-7.42-1.42-9.24-4.74a9.702 9.702 0 0 1 2-12l13.38-11.89L661 985l-6 1v23.64c1.81 3.32 5 4.66 9.24 4.74l44.46.71h.32a2.435 2.435 0 0 0 2.13 1.26 2.596 2.596 0 0 0 1.73-.71.839.839 0 0 1 1-.07 4.01 4.01 0 0 0 2.21.78c.361.01.719-.07 1.047-.21.329-.15.62-.37.853-.65a.802.802 0 0 1 .237-.2.976.976 0 0 1 .295-.08c.104-.01.208.01.305.04.098.03.187.09.263.16.752.58 1.664.9 2.61.94.45-.01.894-.11 1.302-.3.408-.19.772-.46 1.068-.8.08-.16.24-.16.32-.24h.63c.08.08.15.08.23.16a4.563 4.563 0 0 0 2.77 1.11c.492 0 .978-.11 1.418-.33.44-.22.821-.54 1.112-.94h4.5c3.06-.01 3.69-3.79 1.48-5.37Z" fill="#000"/><path d="M737.479 1018.41h-81.48c-.586 0-1.148-.23-1.563-.65a2.19 2.19 0 0 1-.647-1.56c0-.59.233-1.15.647-1.56.415-.42.977-.65 1.563-.65h83.64v2.21a2.18 2.18 0 0 1-.624 1.55c-.404.42-.957.65-1.536.66Z" class="change-color-in-svg" fill="#4D61FC" style="fill:#158566"/><path d="M739.61 1014a11.34 11.34 0 0 0-2.205-6.31 11.316 11.316 0 0 0-5.375-3.96l-27-9.4a2.061 2.061 0 0 0-2.69 1.42c-1.18 4-4.1 12.4-9.87 18.25H656c-.291 0-.579.05-.848.17-.268.11-.513.27-.718.47-.205.21-.368.45-.479.72-.11.27-.167.56-.165.85-.007.29.045.58.154.85.109.28.271.52.478.73.206.2.453.37.724.48.271.1.562.16.854.15h81.51a2.124 2.124 0 0 0 2.13-2.13l-.03-2.29Z" class="change-color-in-svg" fill="#4D61FC" style="fill:#158566"/><path d="M739.61 1014a11.34 11.34 0 0 0-2.205-6.31 11.316 11.316 0 0 0-5.375-3.96l-27-9.4a2.061 2.061 0 0 0-2.69 1.42c-1.18 4-4.1 12.4-9.87 18.25H656c-.291 0-.579.05-.848.17-.268.11-.513.27-.718.47-.205.21-.368.45-.479.72-.11.27-.167.56-.165.85-.007.29.045.58.154.85.109.28.271.52.478.73.206.2.453.37.724.48.271.1.562.16.854.15h81.51a2.124 2.124 0 0 0 2.13-2.13l-.03-2.29Z" fill="#21252B"/><path opacity=".4" d="M739.61 1014a11.28 11.28 0 0 0-1.441-5.11c-.88-1.57-2.121-2.9-3.619-3.89 3.87 2.77 3.16 5.53-2.37 5.29-28.51-1.34-32.22-1.34-35.53-1.65a.293.293 0 0 0 .059-.11.338.338 0 0 0 .011-.13 33.283 33.283 0 0 1-4.34 5.61H656c-.291 0-.579.05-.848.17-.268.11-.513.27-.718.47-.205.21-.368.45-.479.72-.11.27-.167.56-.165.85-.007.29.045.58.154.85s.271.52.478.73c.206.2.453.37.724.48.271.1.562.16.854.15h81.51a2.124 2.124 0 0 0 2.13-2.13l-.03-2.3Z" fill="#000"/><path opacity=".4" d="M739.61 1013.27h-46.52l-.63.72h47.15v-.72Z" fill="#000"/><path d="M462.439 648.89a.474.474 0 0 1-.31-.08l-3.87-1.18a1.198 1.198 0 0 1-.232-2.235 1.205 1.205 0 0 1 .942-.055l3.87 1.18a1.22 1.22 0 0 1 .79 1.5 1.333 1.333 0 0 1-1.19.87ZM459.13 727.47a.476.476 0 0 1-.32-.08l-3.87-1.18a1.2 1.2 0 0 1 .71-2.29l3.87 1.18c.3.099.55.311.698.59.147.28.18.606.092.91a1.313 1.313 0 0 1-1.18.87Z" fill="#fff"/><path opacity=".2" d="m408.499 724.71-6.23-61.36a.64.64 0 1 1 1.26-.24l19.47 63.73-14.5-2.13ZM496.09 749.35l.08-.08.15.16-.23-.08Z" fill="#000"/><path d="M524.519 753.06a2.35 2.35 0 0 1-3.24.4l-14-10.27 17.77 8.13a2.31 2.31 0 0 1-.53 1.74Z" fill="#868A91"/><path d="m689 990-36.84-.78-39-168.64H469.47v-59.07H638a25.717 25.717 0 0 1 23.77 16L689 990Z" fill="#3F4249"/><path opacity=".2" d="m663 990-10.84-.78-39-168.64H469.47v-59.07h139.47a25.702 25.702 0 0 1 23.77 16L663 990Z" fill="#000"/><path d="m593 990-40.21.22-28.95-169.64H381.18v-59.07h168.53a25.706 25.706 0 0 1 23.77 16L593 990Z" fill="#3F4249"/><path opacity=".2" d="M550.929 813.77a22.632 22.632 0 0 0-6.53-14.5c-4.7-4.61-10.54-6.17-19.33-6.17h-90.07a16.152 16.152 0 0 1-14.85-9.78l-9.15-21.32-3.84-.49v59.07h117.6l28 169.64 11.24-.22-13.07-176.23Z" fill="#000"/><path opacity=".6" d="M454.47 708.05a1.581 1.581 0 1 0-.002-3.162 1.581 1.581 0 0 0 .002 3.162ZM520.33 679.69a1.584 1.584 0 0 0 1.46-.975 1.586 1.586 0 0 0-.343-1.722 1.58 1.58 0 0 0-2.697 1.117 1.573 1.573 0 0 0 1.58 1.58ZM489.85 649.45a1.581 1.581 0 1 0-.002-3.162 1.581 1.581 0 0 0 .002 3.162Z" fill="#000"/><path d="M639.479 1019.41h-81.48c-.586 0-1.148-.23-1.563-.65a2.19 2.19 0 0 1-.647-1.56c0-.59.233-1.15.647-1.56.415-.42.977-.65 1.563-.65h83.64v2.21a2.18 2.18 0 0 1-.624 1.55c-.404.42-.957.65-1.536.66Z" class="change-color-in-svg" fill="#4D61FC" style="fill:#158566"/><path d="M641.61 1015a11.34 11.34 0 0 0-2.205-6.31 11.316 11.316 0 0 0-5.375-3.96l-27-9.4a2.061 2.061 0 0 0-2.69 1.42c-1.18 4-4.1 12.4-9.87 18.25H558c-.291 0-.579.05-.848.17-.268.11-.513.27-.718.47-.205.21-.368.45-.479.72-.11.27-.167.56-.165.85-.007.29.045.58.154.85.109.28.271.52.478.73.206.2.453.37.724.48.271.1.562.16.854.15h81.51a2.124 2.124 0 0 0 2.13-2.13l-.03-2.29Z" class="change-color-in-svg" fill="#4D61FC" style="fill:#158566"/><path d="M641.61 1015a11.34 11.34 0 0 0-2.205-6.31 11.316 11.316 0 0 0-5.375-3.96l-27-9.4a2.061 2.061 0 0 0-2.69 1.42c-1.18 4-4.1 12.4-9.87 18.25H558c-.291 0-.579.05-.848.17-.268.11-.513.27-.718.47-.205.21-.368.45-.479.72-.11.27-.167.56-.165.85-.007.29.045.58.154.85.109.28.271.52.478.73.206.2.453.37.724.48.271.1.562.16.854.15h81.51a2.124 2.124 0 0 0 2.13-2.13l-.03-2.29Z" fill="#21252B"/><path opacity=".4" d="M641.61 1015a11.28 11.28 0 0 0-1.441-5.11c-.88-1.57-2.121-2.9-3.619-3.89 3.87 2.77 3.16 5.53-2.37 5.29-28.51-1.34-32.22-1.34-35.53-1.65a.293.293 0 0 0 .059-.11.338.338 0 0 0 .011-.13 33.283 33.283 0 0 1-4.34 5.61H558c-.291 0-.579.05-.848.17-.268.11-.513.27-.718.47-.205.21-.368.45-.479.72-.11.27-.167.56-.165.85-.007.29.045.58.154.85s.271.52.478.73c.206.2.453.37.724.48.271.1.562.16.854.15h81.51a2.124 2.124 0 0 0 2.13-2.13l-.03-2.3Z" fill="#000"/><path opacity=".4" d="M641.61 1014.27h-46.52l-.63.72h47.15v-.72Z" fill="#000"/><path opacity=".6" d="M456.519 671.09a1.584 1.584 0 0 0 1.46-.975 1.577 1.577 0 0 0-.342-1.722 1.583 1.583 0 0 0-1.722-.343 1.577 1.577 0 0 0-.976 1.46 1.58 1.58 0 0 0 1.58 1.58ZM496.399 728.42a1.584 1.584 0 0 0 1.46-.975 1.577 1.577 0 0 0-.342-1.722 1.583 1.583 0 0 0-1.722-.343 1.577 1.577 0 0 0-.976 1.46 1.58 1.58 0 0 0 1.58 1.58ZM490.56 693.28a1.578 1.578 0 0 0 .336-3.128A1.578 1.578 0 0 0 489 691.7a1.58 1.58 0 0 0 1.56 1.58ZM428.64 640.36a1.581 1.581 0 1 0-1.463-.974 1.563 1.563 0 0 0 .856.857 1.6 1.6 0 0 0 .607.117ZM420 680.56a1.587 1.587 0 0 0 1.46-.975 1.586 1.586 0 0 0-.343-1.722A1.58 1.58 0 1 0 420 680.56Z" fill="#000"/><path d="M371.83 656.94a1.094 1.094 0 0 1-.71-.24 1.218 1.218 0 0 1-.12-1.7l2.45-3a1.184 1.184 0 0 1 .81-.499 1.197 1.197 0 0 1 .915.26 1.178 1.178 0 0 1 .349 1.331 1.185 1.185 0 0 1-.264.408l-2.44 3c-.271.253-.62.408-.99.44Z" fill="#fff"/><path opacity=".6" d="M388 636.56a1.587 1.587 0 0 0 1.46-.975 1.586 1.586 0 0 0-.343-1.722A1.58 1.58 0 1 0 388 636.56ZM388 664.56a1.587 1.587 0 0 0 1.46-.975 1.586 1.586 0 0 0-.343-1.722A1.58 1.58 0 1 0 388 664.56ZM421.54 722.66a1.587 1.587 0 0 0 1.46-.975 1.586 1.586 0 0 0-.343-1.722 1.58 1.58 0 1 0-1.117 2.697Z" fill="#000"/><path opacity=".2" d="m499.8 663 7.5 74 6.56 6.48 6-4-13.11-71.08c-1.34-5.77-6.95-6.24-6.95-5.4Z" fill="#000"/><path opacity=".6" d="M418.379 620.15s-.79 3.23 1.73 4.81c2.85 1.66 13.82 9 29.3 4.35a33.225 33.225 0 0 0 9.56-4.74 4.8 4.8 0 0 0 2-3.24v-1.5l4.35 1a8.678 8.678 0 0 1-2.61 6.08c-1.26 1.26-20 15.71-43.83 2.37a7.918 7.918 0 0 1-4.66-8.14l4.16-.99Z" fill="#000"/><path d="m478.24 734.9 11.21 1.5 23.93-2.14a8.086 8.086 0 0 1 5.53 2.37l14.77 13.19a2.363 2.363 0 0 1 .255 3.267 2.358 2.358 0 0 1-3.255.373l-14-10.27 9.08 10.74a2.275 2.275 0 0 1-.044 3.023 2.27 2.27 0 0 1-.906.607 2.32 2.32 0 0 1-2.36-.47l-12.15-11.93 9.24 9.09a2.105 2.105 0 0 1 .596 1.93c-.07.346-.227.668-.456.937-.228.27-.52.477-.85.603a2.07 2.07 0 0 1-2.05-.24L503.83 748l8.76 6.47a1.845 1.845 0 0 1 .774 1.5 1.835 1.835 0 0 1-.774 1.5 1.874 1.874 0 0 1-1.81.24L499 752.82a4.308 4.308 0 0 0-3.55.08l-4.45 2.21a26.459 26.459 0 0 1-11.76 2.77h-7.35c-10.55 0 6.35-22.98 6.35-22.98Z" fill="#FC9D9D"/><path opacity=".15" d="m408.58 726-3.95-.31a1.653 1.653 0 0 1-1.502-1.596 1.654 1.654 0 0 1 .162-.774l4.19-8.45 1.1 11.13ZM512.59 754.88a.266.266 0 0 1-.125-.013.26.26 0 0 1-.105-.067l-8.06-5.92a.4.4 0 1 1 .48-.64l8.05 5.93a.377.377 0 0 1 .159.258.364.364 0 0 1-.009.154.4.4 0 0 1-.07.138.613.613 0 0 1-.32.16ZM519.46 754.64c-.07 0-.23 0-.23-.08l-8.69-8.56a.389.389 0 0 1 .281-.644.39.39 0 0 1 .269.094l8.69 8.53a.386.386 0 0 1 .117.275.386.386 0 0 1-.117.275.485.485 0 0 1-.32.11ZM501.62 751.4c2.68 1.35 7.18 3.64 8.76 4.5 2.21 1.27 2.85-.39 2.85-.39a1.93 1.93 0 0 1-.72 2 1.874 1.874 0 0 1-1.81.24l-11.77-4.9a4.308 4.308 0 0 0-3.55.08l2.29-1.34a4.369 4.369 0 0 1 3.95-.19Z" fill="#000"/><path d="m476.419 735.84-67.84-10-4.42-43-42.33 2.13 8.61 55.03a21.209 21.209 0 0 0 20.93 17.93h77.16l7.89-22.09Z" class="change-color-in-svg" fill="#4D61FC" style="fill:#158566"/><path d="m485.659 735.84-77.08-9.84-4.42-43-42.33 2.13 8.61 54.87a21.212 21.212 0 0 0 20.93 18h86.63l7.66-22.16Z" class="change-color-in-svg" fill="#4D61FC" style="fill:#158566"/><path opacity=".6" d="m478 734.9 7.66.94-7.58 22h-9.48l9.4-22.94Z" fill="#000"/><g opacity=".2"><path opacity=".2" d="M478.79 734.34a.573.573 0 0 1-.55.48h-.08l-69.66-10.11-.15-1.26 70 10.18a.62.62 0 0 1 .44.71Z" fill="#000"/></g><path d="M391.11 717a1.203 1.203 0 0 1-1.19-1.11l-.39-3.87a1.172 1.172 0 0 1 .036-.482 1.174 1.174 0 0 1 .602-.731c.145-.075.304-.118.466-.128.163-.011.326.012.479.068a1.194 1.194 0 0 1 .787 1.123l.39 3.87a1.107 1.107 0 0 1-1.1 1.26h-.08ZM407.79 745a.471.471 0 0 1-.31-.08l-3.87-1.19a1.2 1.2 0 0 1 .71-2.29l3.87 1.19a1.213 1.213 0 0 1 .79 1.5 1.187 1.187 0 0 1-.445.641 1.184 1.184 0 0 1-.745.229ZM441.52 746.19a1.07 1.07 0 0 1-.71-.24 1.208 1.208 0 0 1-.16-1.66l2.45-3a1.178 1.178 0 0 1 2.007.668 1.18 1.18 0 0 1-.197.832l-2.45 3a1.66 1.66 0 0 1-.94.4Z" fill="#fff"/><path opacity=".6" d="M425.8 737.42c.312 0 .618-.093.878-.266a1.585 1.585 0 0 0 .671-1.622 1.578 1.578 0 0 0-2.154-1.152 1.582 1.582 0 0 0-.513 2.577 1.58 1.58 0 0 0 1.118.463ZM402.8 718.42c.312 0 .618-.093.878-.266a1.585 1.585 0 0 0 .671-1.622 1.578 1.578 0 0 0-2.154-1.152 1.582 1.582 0 0 0-.513 2.577 1.58 1.58 0 0 0 1.118.463ZM378.8 732.42c.312 0 .618-.093.878-.266a1.585 1.585 0 0 0 .671-1.622 1.578 1.578 0 0 0-2.154-1.152 1.582 1.582 0 0 0-.513 2.577 1.58 1.58 0 0 0 1.118.463ZM454.47 754.8a1.581 1.581 0 1 0-.002-3.162 1.581 1.581 0 0 0 .002 3.162Z" fill="#000"/><path opacity=".15" d="m479.35 753.93-1.27 3.87h-86.63a21.152 21.152 0 0 1-20.93-17.93l-12.4-79.37a27.648 27.648 0 0 1 20.93-31l7.34-1.74a27.624 27.624 0 0 0-16.11 29.38l11.45 73.13a21.213 21.213 0 0 0 20.93 17.92l76.69 5.74Z" fill="#000"/><path opacity=".15" d="M486.999 754a3.192 3.192 0 0 1-2.295-1.071 3.19 3.19 0 0 1-.785-2.409l1.73-14.69-7.66 22h1.11a26.288 26.288 0 0 0 11.77-2.77l5.37-2.52c-1.24.21-4.57 1.46-9.24 1.46Z" fill="#000"/><path d="M464.5 573.16s-36.17-26.54-39.73 2.37l-1 7.58-5.37 37v.08l-.08.78a3.78 3.78 0 0 0 .79 2.93v.1l.08.08c.254.346.573.638.94.86a36.21 36.21 0 0 0 7.19 3.64 33.857 33.857 0 0 0 32.62-4.74 4.506 4.506 0 0 0 1-3.16l-.63-19.27a32.454 32.454 0 0 0 1.27-6.63c1.18-11.36 2.92-21.62 2.92-21.62Z" fill="#FC9D9D"/><path opacity=".6" d="M376 701.56a1.587 1.587 0 0 0 1.46-.975 1.586 1.586 0 0 0-.343-1.722A1.58 1.58 0 1 0 376 701.56Z" fill="#000"/><path d="M468.599 575.21a12.884 12.884 0 0 0 11.908-7.946 12.879 12.879 0 0 0-9.387-17.567 12.878 12.878 0 0 0-15.391 12.643 12.882 12.882 0 0 0 12.87 12.87Z" fill="#21252B"/><path d="M388.44 686.89a.473.473 0 0 1-.31-.08l-3.87-1.18a1.195 1.195 0 0 1-.667-.594 1.199 1.199 0 0 1 1.377-1.696l3.87 1.18a1.223 1.223 0 0 1 .79 1.5 1.335 1.335 0 0 1-1.19.87Z" fill="#fff"/><path d="M470.259 553s9.32 57.41-20 59.07c-25.35 1.5-25.19-37.75-25.19-37.75l3.08-25.27 42.11 3.95Z" fill="#FC9D9D"/><path d="M468.37 556.41h-25.75a5.832 5.832 0 0 0-5.84 5.85 5.832 5.832 0 0 1-5.85 5.84 1.58 1.58 0 0 0-1.58 1.58v5.69a1.333 1.333 0 0 1-1.34 1.34 1.273 1.273 0 0 1-1.26-1.11l-.79-5.44-1-1.9-6.32 3.32s-8.68-15.8-3-29.15c3.24-7.66 11.22-9.79 14.85-10a4.183 4.183 0 0 0 3-1.66c1.66-2.45 5.61-6.56 13.66-5.61a13.427 13.427 0 0 1 10.9 7.19 4.08 4.08 0 0 0 4.82 1.81 11.136 11.136 0 0 1 5.575-.605 11.142 11.142 0 0 1 5.165 2.185c8.18 5.67 3.76 19.96-5.24 20.67Z" fill="#21252B"/><path opacity=".15" d="M423.43 585s2.37.4 3.71-.55l-4.5 6 .79-5.45Z" fill="#000"/><path d="m468.449 557.6-3 .08a.602.602 0 0 1-.636-.309.601.601 0 0 1 .556-.881l3-.08a4.535 4.535 0 0 0 1.1-.15 14.938 14.938 0 0 0 3.56-1.43.565.565 0 0 1 .65.057.556.556 0 0 1 .14.183.55.55 0 0 1-.24.79 13.84 13.84 0 0 1-3.87 1.5c-.398.17-.827.252-1.26.24Z" fill="#FC9D9D"/><path opacity=".15" d="m460.94 617.46-.31-9.16c-2.61 2.37-9.87 5.45-17.53 3a19.308 19.308 0 0 1-9.64-7 .628.628 0 0 0-.79-.16.617.617 0 0 0-.16.79 21.001 21.001 0 0 0 12.8 8.14 20.68 20.68 0 0 0 15.63 4.39Z" fill="#000"/><path opacity=".3" d="M453.36 600.8h-3.55a.79.79 0 1 1 0-1.58h3.47a.784.784 0 0 1 .561.228.78.78 0 0 1 .229.562 1.005 1.005 0 0 1-.71.79ZM454.779 597.56c-6.39.47-9-3.16-9.87-5a.722.722 0 0 1 .32-.94.743.743 0 0 1 .95.31c.86 1.74 3.71 5.61 11.53 3.64a.71.71 0 0 1 .86.55.728.728 0 0 1-.55.87 16.727 16.727 0 0 1-3.24.57Z" fill="#000"/><path d="M447.439 581.76a2.29 2.29 0 1 0 .001-4.58 2.29 2.29 0 0 0-.001 4.58Z" fill="#21252B"/><path d="M448.55 580.5a.491.491 0 0 0 .181-.044A.482.482 0 0 0 449 580a.485.485 0 0 0-.112-.383.491.491 0 0 0-.163-.123.493.493 0 0 0-.4 0 .491.491 0 0 0-.261.302.485.485 0 0 0-.014.204.466.466 0 0 0 .137.363.467.467 0 0 0 .363.137Z" fill="#fff"/><path d="M465.76 583.19a2.287 2.287 0 0 0 2.115-1.414 2.287 2.287 0 0 0-1.669-3.122 2.29 2.29 0 1 0-.446 4.536Z" fill="#21252B"/><path d="M466.869 581.84a.472.472 0 0 0 .333-.802.472.472 0 0 0-.803.332.47.47 0 0 0 .47.47Z" fill="#fff"/><path opacity=".3" d="M456.92 592h-3.16a.71.71 0 0 1 0-1.42h3.16a1.422 1.422 0 0 0 1.004-2.424 1.422 1.422 0 0 0-1.004-.416.706.706 0 0 1-.656-.438.706.706 0 0 1 .154-.774.715.715 0 0 1 .502-.208 2.84 2.84 0 0 1 0 5.68Z" fill="#000"/><path d="m472.87 575.29-10.11-.71-1.34-.08-8.85-.63h-.08l-11.37-.79a3.305 3.305 0 0 0-2.422.794 3.298 3.298 0 0 0-1.128 2.286l-.16 2.6a9.094 9.094 0 0 0 2.221 6.602 9.103 9.103 0 0 0 9.761 2.644 9.092 9.092 0 0 0 5.249-4.578 9.11 9.11 0 0 0 .929-3.428l.16-2.61a3.003 3.003 0 0 0-.55-2l3.55.23a3.55 3.55 0 0 0-.87 2l-.15 2.6a9.095 9.095 0 0 0 2.21 6.607 9.102 9.102 0 0 0 15.95-5.337l.16-2.61a3.508 3.508 0 0 0-3.16-3.59Zm-18.56 2.13-.16 2.61a7.764 7.764 0 0 1-13.588 4.498 7.759 7.759 0 0 1-1.892-5.608l.16-2.6c.013-.265.078-.526.192-.766a2.008 2.008 0 0 1 1.938-1.134l11.38.79h.07a2.104 2.104 0 0 1 1.9 2.21Zm20.14 4a7.767 7.767 0 0 1-5.227 7.207 7.764 7.764 0 0 1-8.56-2.448A7.755 7.755 0 0 1 459 580.26l.16-2.6c.013-.265.078-.526.192-.766a2.017 2.017 0 0 1 1.155-1.03c.252-.086.518-.122.783-.104l1.34.08 10.11.71a1.995 1.995 0 0 1 1.397.666c.177.199.312.43.399.681.086.252.121.518.104.783l-.19 2.74Z" fill="#21252B"/><path d="M426 570.08a5.182 5.182 0 0 0-7.19-3.4c-6.47 2.29-6.32 16.74 4.35 18.32 5.6.87 4.65-2.45 4-6.87l-1.16-8.05Z" fill="#FC9D9D"/><path opacity=".3" d="M418.22 570.31a3.924 3.924 0 0 1 3.16-.55 4.007 4.007 0 0 1 2.29 2.13 8.28 8.28 0 0 1 .79 4v1.26a.645.645 0 0 1-.215.476.666.666 0 0 1-.23.134.663.663 0 0 1-.265.03.639.639 0 0 1-.63-.71v-1.27a7.871 7.871 0 0 0-.64-3.31 2.75 2.75 0 0 0-1.5-1.51 3 3 0 0 0-2.13.48.626.626 0 0 1-.709-.049.617.617 0 0 1-.161-.191.662.662 0 0 1-.072-.51.684.684 0 0 1 .312-.41Z" fill="#000"/><path d="M466.08 757.35H544a1.223 1.223 0 0 1 1.19 1.18v2a1.222 1.222 0 0 1-1.19 1.18h-77.92a1.208 1.208 0 0 1-1.18-1.18v-2a1.163 1.163 0 0 1 .725-1.096 1.16 1.16 0 0 1 .455-.084Z" fill="#21252B"/><path opacity=".6" d="M466.08 757.35H544a1.223 1.223 0 0 1 1.19 1.18v2a1.222 1.222 0 0 1-1.19 1.18h-77.92a1.208 1.208 0 0 1-1.18-1.18v-2a1.163 1.163 0 0 1 .725-1.096 1.16 1.16 0 0 1 .455-.084Z" fill="#000"/><path d="M518.6 757.35h135.76a1.212 1.212 0 0 1 1.18 1.18v2a1.21 1.21 0 0 1-1.18 1.18H518.6a1.21 1.21 0 0 1-1.18-1.18v-2a1.27 1.27 0 0 1 1.18-1.18Z" fill="#21252B"/><g opacity=".6"><path opacity=".6" d="M652.62 758.14h-138.2a.395.395 0 0 1-.323-.091.393.393 0 0 1-.14-.304.407.407 0 0 1 .14-.304.4.4 0 0 1 .323-.091h138.2a.375.375 0 0 1 .372.237c.02.048.03.101.028.153a.428.428 0 0 1-.4.4Z" fill="#000"/></g><path d="M518.29 757.35h20.45a3.3 3.3 0 0 0 3.24-2.69l17.14-90.11a3.262 3.262 0 0 0-3.24-3.87h-20.46a3.291 3.291 0 0 0-3.23 2.69l-17.14 90.11a3.28 3.28 0 0 0 .059 1.425 3.274 3.274 0 0 0 1.788 2.136c.436.204.911.309 1.393.309Z" fill="#21252B"/><path opacity=".6" d="M518.29 757.35h20.45a3.3 3.3 0 0 0 3.24-2.69l17.14-90.11a3.262 3.262 0 0 0-3.24-3.87h-20.46a3.291 3.291 0 0 0-3.23 2.69l-17.14 90.11a3.28 3.28 0 0 0 .059 1.425 3.274 3.274 0 0 0 1.788 2.136c.436.204.911.309 1.393.309Z" fill="#000"/><path d="M521.209 757.35h131.33a3.301 3.301 0 0 0 3.24-2.69l17.14-90.11a3.247 3.247 0 0 0-.702-2.703 3.266 3.266 0 0 0-2.538-1.167h-131.26a3.29 3.29 0 0 0-3.23 2.69l-17.14 90.11a3.2 3.2 0 0 0 3.16 3.87Z" fill="#21252B"/><path opacity=".6" d="M596.23 706.49c-.79 1.81.08 3.39 1.9 3.39h.32a11.505 11.505 0 0 1-8.22 4c-3.87-.08-5.68-3.24-4-7.11 1.68-3.87 6.24-6.87 10.11-6.79 2.45.08 4.11 1.35 4.5 3.32a5.707 5.707 0 0 0-4.61 3.19Z" fill="#000"/><path d="M245.18 963.3h104.51L355 749l-102.45-.13a7.367 7.367 0 0 0-7.37 7.37V963.3Z" fill="#868A91"/><path d="M407.109 963.3h-57.42V756.24a7.37 7.37 0 0 1 7.37-7.37h42.68a7.367 7.367 0 0 1 7.37 7.37V963.3Z" fill="#B2B6BB"/><path d="M408.57 956.5a.5.5 0 0 1-.5-.5l-1-201a5.45 5.45 0 0 0-5.34-5.42l-27.68-.58a.506.506 0 0 1-.456-.318.484.484 0 0 1-.034-.192.488.488 0 0 1 .51-.49l28.62.6A5.452 5.452 0 0 1 408 754l1.05 202a.5.5 0 0 1-.5.5h.02Z" fill="#868A91"/><path d="M1370.42 1019H228.579c-.398 0-.779.16-1.061.44-.281.28-.439.66-.439 1.06s.158.78.439 1.06c.282.28.663.44 1.061.44H1370.42a1.499 1.499 0 0 0 1.06-2.56c-.28-.28-.66-.44-1.06-.44ZM581.309 387a51.517 51.517 0 0 0-45.86-51.21v-.34h-5.7a51.546 51.546 0 0 0-36.451 15.099 51.546 51.546 0 0 0 0 72.902 51.546 51.546 0 0 0 36.451 15.099h5.7v-.34a51.518 51.518 0 0 0 45.86-51.21Z" fill="#B2B6BB"/><path d="M535.45 438.55a51.548 51.548 0 0 0 50.548-61.613 51.547 51.547 0 0 0-40.505-40.497A51.552 51.552 0 0 0 483.89 387a51.54 51.54 0 0 0 15.102 36.455 51.554 51.554 0 0 0 36.458 15.095Z" fill="#868A91"/><path d="M535.449 432.86a45.855 45.855 0 0 0 42.362-28.317 45.862 45.862 0 0 0-33.429-62.523 45.868 45.868 0 0 0-47.075 19.503 45.863 45.863 0 0 0 5.708 57.909 45.86 45.86 0 0 0 32.434 13.428Z" fill="#fff"/><path d="M535.449 432.86a45.855 45.855 0 0 0 42.362-28.317 45.862 45.862 0 0 0-33.429-62.523 45.868 45.868 0 0 0-47.075 19.503 45.863 45.863 0 0 0 5.708 57.909 45.86 45.86 0 0 0 32.434 13.428Z" fill="#868A91"/><path opacity=".9" d="M535.449 432.86a45.855 45.855 0 0 0 42.362-28.317 45.862 45.862 0 0 0-33.429-62.523 45.868 45.868 0 0 0-47.075 19.503 45.863 45.863 0 0 0 5.708 57.909 45.86 45.86 0 0 0 32.434 13.428Z" fill="#fff"/><path d="M535.449 341.14a20.044 20.044 0 0 0-2.51.11A45.822 45.822 0 0 1 576.228 387a45.821 45.821 0 0 1-43.289 45.75c.8 0 1.59.11 2.51.11a45.86 45.86 0 0 0 0-91.72Z" fill="#B2B6BB"/><path d="m535.899 390.53-15.25-30.27a2.37 2.37 0 0 1 4.21-2.17l13.14 26.06 17.41-8.53a2.396 2.396 0 0 1 2.775.276c.249.219.45.488.59.789a2.402 2.402 0 0 1 .035 1.929 2.38 2.38 0 0 1-1.4 1.326l-21.51 10.59Z" class="change-color-in-svg" fill="#4D61FC" style="fill:#158566"/><path opacity=".5" d="M574.709 410.56a45.838 45.838 0 0 0-16.127-63.315A45.837 45.837 0 0 0 535.449 341c-1.26 0-2.51.12-3.76.12l43.02 69.44ZM524.75 342.39a53.532 53.532 0 0 0-6.49 2.05l47.46 76.93a44.946 44.946 0 0 0 5.12-5.35l-46.09-73.63Z" fill="#fff"/><path d="M1023.8 946.5H848.3v71.5h175.5v-71.5Z" fill="#DADDDF"/><path opacity=".1" d="M1023.8 946.5H912v71.5h111.8v-71.5Z" fill="#000"/><path d="M1032.9 940H839.199v16.9H1032.9V940Z" fill="#DADDDF"/><path opacity=".1" d="M1032.9 940H912v16.9h120.9V940ZM1023.8 956.9H848.3v2.6h175.5v-2.6Z" fill="#000"/><path d="M900.299 990.7h-41.6v15.6h41.6v-15.6Z" fill="#fff"/><path opacity=".1" d="M893.8 971.2h-31.2v6.5h31.2v-6.5Z" fill="#000"/><path d="M1137.7 946.5H962.199v71.5H1137.7v-71.5Z" fill="#DADDDF"/><path opacity=".1" d="M1137.7 946.5h-111.8v71.5h111.8v-71.5Z" fill="#000"/><path d="M1146.8 940H953.1v16.9h193.7V940Z" fill="#DADDDF"/><path opacity=".1" d="M1146.8 940h-120.9v16.9h120.9V940ZM1137.7 956.9H962.199v2.6H1137.7v-2.6Z" fill="#000"/><path d="M1014.2 990.7h-41.6v15.6h41.6v-15.6Z" fill="#fff"/><path opacity=".1" d="M1007.7 971.2h-31.2v6.5h31.2v-6.5Z" fill="#000"/><path d="M1234.43 953.57c-.58-14.74 5.06-29 12.27-41.51 5-8.69 10.77-16.81 16.15-25.26a3.735 3.735 0 0 1 4.27-1.568c.78.245 1.46.743 1.93 1.415.48.672.71 1.482.68 2.303a97.649 97.649 0 0 1-3.23 23c-2.07 7.54-5.3 14.58-8.54 21.63-3.81 8.28-7.54 16.57-11.35 24.85" class="change-color-in-svg" fill="#4D61FC" style="fill:#158566"/><g opacity=".3"><g opacity=".3"><path opacity=".3" d="M1234.43 953.57c-.58-14.74 5.06-29 12.27-41.51 5-8.69 10.77-16.81 16.15-25.26a3.735 3.735 0 0 1 4.27-1.568c.78.245 1.46.743 1.93 1.415.48.672.71 1.482.68 2.303a97.649 97.649 0 0 1-3.23 23c-2.07 7.54-5.3 14.58-8.54 21.63-3.81 8.28-7.54 16.57-11.35 24.85" fill="#000"/></g></g><path d="M1199.89 951.83a202.466 202.466 0 0 1-10.11-74.89c.05-.845.39-1.648.95-2.279a3.798 3.798 0 0 1 2.16-1.197 3.755 3.755 0 0 1 4.1 2.226 253.581 253.581 0 0 1 18.72 80.2" class="change-color-in-svg" fill="#4D61FC" style="fill:#158566"/><g opacity=".3"><g opacity=".3"><path opacity=".3" d="M1199.89 951.83a202.466 202.466 0 0 1-10.11-74.89c.05-.845.39-1.648.95-2.279a3.798 3.798 0 0 1 2.16-1.197 3.755 3.755 0 0 1 4.1 2.226 253.581 253.581 0 0 1 18.72 80.2" fill="#000"/></g></g><path d="m1242.8 951-.66-.25a403.896 403.896 0 0 1 19.8-48l.66.33a394.923 394.923 0 0 0-19.8 47.92ZM1205.85 948a591.51 591.51 0 0 1-12-71.33l.66-.08a576.377 576.377 0 0 0 12 71.25l-.66.16Z" fill="#21252B"/><path d="M1195.25 959a156.1 156.1 0 0 1-23.12-65.54c-.09-.793.08-1.592.48-2.282a3.776 3.776 0 0 1 4.06-1.796c.77.169 1.48.582 2.01 1.178 6.54 7.38 11.6 16.33 15.49 25.69 5.22 12.59 8.45 26 11.68 39.35M1209.41 956.31c-6.87-27.67-5.63-69.93.92-96.44.2-.829.68-1.565 1.35-2.084a3.738 3.738 0 0 1 4.69.109 3.728 3.728 0 0 1 1.25 2.145c5.3 29.24 5.63 64.37 5.88 95.94" class="change-color-in-svg" fill="#4D61FC" style="fill:#158566"/><path d="M1225.4 962.94a105.298 105.298 0 0 1-5.46-46.07c1.65-14.66 4.55-29.16 7.45-43.58.5-2.32.91-4.64 1.41-7 .17-.84.63-1.596 1.29-2.138.67-.542 1.5-.839 2.35-.839.86 0 1.69.297 2.36.839a3.732 3.732 0 0 1 1.29 2.138c4.39 23.2 5.06 58.24 2.9 81.44" class="change-color-in-svg" fill="#4D61FC" style="fill:#158566"/><g opacity=".3"><g opacity=".3"><path opacity=".3" d="M1225.4 962.94a105.298 105.298 0 0 1-5.46-46.07c1.65-14.66 4.55-29.16 7.45-43.58.5-2.32.91-4.64 1.41-7 .17-.84.63-1.596 1.29-2.138.67-.542 1.5-.839 2.35-.839.86 0 1.69.297 2.36.839a3.732 3.732 0 0 1 1.29 2.138c4.39 23.2 5.06 58.24 2.9 81.44" fill="#000"/></g></g><path d="M1226.73 953.91c-2.07-14.09 5.39-79 5.47-79.62l.66.08c-.08.66-7.54 65.45-5.47 79.45l-.66.09Z" fill="#21252B"/><path d="M1231.37 946.45c0-27.34 7-57.5 13.75-78 .25-.801.77-1.493 1.47-1.963a3.7 3.7 0 0 1 2.37-.621 3.75 3.75 0 0 1 2.24.992 3.718 3.718 0 0 1 1.13 2.172 168.242 168.242 0 0 1 2.49 34.13c-.67 15.91-4.23 31.82-11.77 45.57" class="change-color-in-svg" fill="#4D61FC" style="fill:#158566"/><path d="M1199 964c-5.46-29.49-21.12-66.86-21.29-67.19l.66-.25c.17.42 15.91 37.78 21.38 67.36l-.75.08ZM1213.72 874.62h-.74l.24 88.32h.75l-.25-88.32ZM1238 945.7l-.67-.25a218.83 218.83 0 0 0 9.86-58.16h.75a224.974 224.974 0 0 1-9.94 58.41Z" fill="#21252B"/><path d="m1187 951.83 1 20.88 3.47 41.18a7.993 7.993 0 0 0 2.57 5.24 8.091 8.091 0 0 0 5.43 2.13h46.4c2.01-.03 3.93-.8 5.41-2.16a8.153 8.153 0 0 0 2.59-5.21l3.48-41.18 1.08-21.29-71.43.41Z" fill="#84888F"/><g opacity=".2"><g opacity=".2"><path opacity=".2" d="m1245.37 951.42-1.08 21.21-3.48 41.18a7.96 7.96 0 0 1-2.56 5.25 7.946 7.946 0 0 1-5.44 2.12h12.84c2.01-.03 3.93-.8 5.4-2.16a8.165 8.165 0 0 0 2.6-5.21l3.48-41.18 1.07-21.29-12.83.08Z" fill="#000"/></g></g><path d="m1186.88 950.51.58 11.1h70.34l.5-10.19-71.42-.91Z" fill="#61656D"/><path d="M1188.29 960.28H1257c1.56 0 3.05-.619 4.16-1.722a5.891 5.891 0 0 0 1.72-4.158c0-1.559-.62-3.055-1.72-4.158a5.896 5.896 0 0 0-4.16-1.722h-68.68a5.93 5.93 0 0 0-4.16 1.727 5.93 5.93 0 0 0-1.73 4.153 5.68 5.68 0 0 0 .43 2.265 5.78 5.78 0 0 0 5.46 3.615" fill="#84888F"/><g opacity=".2"><g opacity=".2"><path opacity=".2" d="M1257 948.44h-11.43c.77 0 1.54.152 2.25.448a5.96 5.96 0 0 1 1.91 1.274 5.87 5.87 0 0 1 1.27 1.908c.3.713.45 1.478.45 2.25s-.15 1.537-.45 2.25a5.87 5.87 0 0 1-1.27 1.908 5.96 5.96 0 0 1-1.91 1.274c-.71.296-1.48.448-2.25.448H1257a5.9 5.9 0 0 0 4.16-1.722 5.89 5.89 0 0 0 0-8.316 5.896 5.896 0 0 0-4.16-1.722" fill="#000"/></g></g></svg>