<svg class="gridItem__media" xmlns="http://www.w3.org/2000/svg" width="1600" height="1200" style="enable-background:new 0 0 1600 1200" xml:space="preserve" fill="none"><path d="m1228.94 1017.07 159.54-316.721a56.08 56.08 0 0 0 5.96-27.07 56.115 56.115 0 0 0-7.76-26.61l-247.27-418.56a55.95 55.95 0 0 0-19.62-19.662 55.972 55.972 0 0 0-26.65-7.818l-607.999-21.08a56.01 56.01 0 0 0-26.098 5.445 56.012 56.012 0 0 0-20.622 16.895l-221.29 294.64a55.996 55.996 0 0 0-9.35 48l125.33 472.561 895.829-.02Z" fill="#3F4249"/><path d="M286.391 849.48H1313.39l-84.41 167.59H333.111l-46.72-167.59Z" fill="#858990"/><path d="M819.16 396s-41.56 44-72.07 72.45c-21.51 20.08-87.17 80.45-87.17 80.45s51.86 32.37 72.57 44.42c16.12 9.38 65.24 38.41 65.24 38.41s99.5-48.39 132.2-65.83c18.07-9.66 70.86-40.9 70.86-40.9s-77.42-47.56-102.16-65.13C878 445.15 819.16 396 819.16 396Z" fill="#D9DCDE"/><path d="M659.92 548.86s65.66-60.36 87.17-80.45C777.6 439.93 819.16 396 819.16 396v54.81l-17.88 1.74 29.07 34.86-54.88-1.16L786.88 510l-91.61 66.06-35.35-27.2Z" fill="#fff"/><path d="M1102.3 439.119s-107.301 65.32-145.601 86.21c-45.89 25-191.51 95.46-191.51 95.46l211.51 143.48 376.141-109.7-53-105s-82.36-37.59-108.37-51.49a594.753 594.753 0 0 1-89.17-58.96Z" fill="#D9DCDE"/><path opacity=".2" d="M1102.3 439.119s-107.301 65.32-145.601 86.21c-45.89 25-191.51 95.46-191.51 95.46l211.51 143.48 376.141-109.7-53-105s-82.36-37.59-108.37-51.49a594.753 594.753 0 0 1-89.17-58.96Z" fill="#000"/><path d="M765.189 620.789s145.62-70.42 191.51-95.46c38.29-20.89 145.601-86.21 145.601-86.21l-52.21 71 41.53 13.47-58.41 13.59 3.17 29.84-118.901 25.68 27.69 25.89-165.55 22.35-14.43-20.15Z" fill="#fff"/><path d="M535.49 409s63.6 43.48 84.67 57.35c84.23 55.47 419.1 247.42 419.1 247.42l-204.26 85L234 642l-15-53.44s115.25-52.67 162.78-78.14C434.77 482.09 535.49 409 535.49 409Z" fill="#858990"/><path d="M219.061 588.59s95.51-39.43 162.78-78.14C451.071 470.61 535.501 409 535.501 409l14.5 60.63-51.3 18.55 39.3 21.82-283.95 172.58-34.99-93.99Z" fill="#fff"/><path d="m243.75 461.08-27 35.94a55.995 55.995 0 0 0-9.6 47l48.6 197.62 266.08 10.06 56.36-54.59s-51.271-41-86.1-1.05c0 0 12.879-114.53-48.761-132-18.11-5.12-41.759 5.56-51.939 33.7 0 0-3.05-34.06-28.69-42.86-14.21-4.87-23.32 3.37-28.621 11.7 0 0 .281-32.86-38.509-28.23-.01.04-.72-55.27-51.82-77.29ZM751.891 780s31.11-73 104-65.38c17.92 1.88 44.58 19 46.94 34 0 0 3.14-31.23 39.55-31a52.094 52.094 0 0 1 27.25 7.67s-7.94-30.84 34.719-33c0 0-14.609-43.85 0-49.77 14.61-5.92 22.43 23.94 22.43 23.94s-6.56-49.74 5.5-52.49c12.06-2.75 22 43.57 22 43.57s5.38-72.89 92.09-60.59c0 0-16.47-39.3 7-42.28 6.59-.84 12.27 2.92 17 8.76 0 0-8.08-43.19 39.13-63.26 0 0-19.85-26.53-6.06-33.93 9.85-5.29 23.77 13 30.92 23.95 0 0 10.47-33.27 36.08-40.29l116 196.44a56.622 56.622 0 0 1 7.84 27c.3 9.516-1.8 18.954-6.12 27.44l-75.63 148.78H788.531L751.891 780Z" fill="#D9DCDE"/><path d="M292.68 650.24a130.777 130.777 0 0 0 4.9 12.84 83.823 83.823 0 0 0-4.9-12.84Z" fill="#AFB3B8"/><path d="M521.819 751.711c-.6-8.27-6.18-13.36-12.21-16.28-21-10.18-33.44 8.6-33.44 8.6.53-13.23-2.24-24.76-11.42-30.33-29.37-17.81-50.62 15.3-50.62 15.3s3.12-36.25-11.56-67.81c-14.68-31.56-43.43 5.62-43.43 5.62s11.87-79.37-12.19-75c-24.06 4.37-20.95 59.82-20.95 59.82s-12.81-55.74-30.62-43.86c-11.55 7.7-7.2 28.67-2.71 42.47a82.405 82.405 0 0 1 4.9 12.84 131.031 131.031 0 0 1-4.9-12.84c-5.45-11.41-15.63-25.72-31.35-21.84-25.31 6.25-10.19 97.23-10.19 97.23l35.25 123.86h164l71.44-97.78ZM1313.2 849.541l-399.641-.06s-8-35.67 7.11-44.66c15.11-8.99 34.38 19.46 34.38 19.46s-3.65-18.46 9.79-18c6.77.25 10.84 8.25 12 16.25 0 0-4.05-59.3 72.591-49.55 0 0-7-19.73 20.25-24.89 0 0 13-63 77.23-43.16 0 0-4.31-24 11.74-33.75 13.43-8.21 22.95-3.34 28.71 2.49 0 0-13-23.78 5.41-41.89a40.893 40.893 0 0 1 23.53-11.63s8.4-36.66 58.35-30c20 2.68 33.11 10.08 41.58 18 0 0 12.24-28.78 41.86-9.9l27.91 48.08a58.094 58.094 0 0 1 8.22 26.943 58.028 58.028 0 0 1-5.45 27.637l-75.57 148.63Z" fill="#AFB3B8"/><path d="M603.57 1017.07s-7.8-33.179 1.61-37.159c9.41-3.98 5.65 27.459 5.65 27.459s7.45-58.469 26.93-57.879c19.48.59-11.51 54.309-11.51 54.309s20.3-20.519 27.44-12.599c6.73 7.47-14.87 25.869-14.87 25.869h-35.25Z" fill="#000"/><path d="M1001 734.65s-3.811 22.06-11.411 38.8-10.66 38-10.66 45.65c0 7.65-16.73 12.17-16.73 12.17l-5.33 57.83h273.901s-14.46-37.29-23.59-37.29c-9.13 0-28.15-3-28.15-3l-29.67-64.67-17.76-24.72a66.877 66.877 0 0 0-25.04-21.106 66.865 66.865 0 0 0-32.05-6.694l-73.51 3.03Z" fill="#3F4249"/><path opacity=".2" d="M1001 734.65s20.54 3.8 26.63 9.89c6.09 6.09 16.74 42.61 16.74 42.61l7.6 18.25 68.48 5.33 26.17-30.44-20.82-29a48.415 48.415 0 0 0-18.14-15.295 48.42 48.42 0 0 0-23.22-4.845l-83.44 3.5Z" fill="#fff"/><path opacity=".3" d="m997.73 889.101 51.93-15.79 101.57 15.79h-153.5ZM1051.94 805.4l-2.28 67.91 101.57 15.79-30.81-78.37-68.48-5.33Z" fill="#000"/><path d="M1122.89 850.1c0 .271.08.536.23.762a1.379 1.379 0 0 0 2.11.207c.19-.191.32-.436.37-.701.06-.266.03-.541-.07-.792-.11-.25-.28-.464-.51-.615a1.36 1.36 0 0 0-1.28-.126 1.389 1.389 0 0 0-.75.741c-.06.166-.1.345-.1.524Z" fill="#514A4A"/><path opacity=".3" d="M1009.91 769.84S991.081 798 991.081 814.4c0 16.4-12.08 28.2-18.26 34.33-6.18 6.13 0 40.37 0 40.37h24.91s-16.34-29-7.73-37.63c8.61-8.63 10.999-26.91 10.999-40.74 0-13.83 8.91-40.89 8.91-40.89Z" fill="#000"/><path opacity=".2" d="M1206.77 856.239s-46.77 27.76-46.77 20.76 15.22-23.39 15.22-23.39 1.52 1.38 6.08 1.9c9.43 1.05 25.47-3.07 25.47.73Z" fill="#fff"/><path d="M658.221 1017.07s20-24.111 51.7-23.571c31.7.54 49.57 23.571 49.57 23.571h-101.27ZM909.42 1017.07s6.14-12.39 35.1-13c18.7-.39 32.25 10.56 32.25 10.56s4.85-11.82 16.27-10.9c11.42.92 26 13.34 26 13.34H909.42Z" class="change-color-in-svg" fill="#4D61FC" style="fill:#158566"/><path d="M746.66 1017.07S736 1001.78 744 996.371c8-5.41 31.4 20.699 31.4 20.699h-28.74ZM781.529 1017.07s7-41.84 21-43.06c14-1.22-2.2 38.74-2.2 38.74s27.25-31.9 43.14-30.06c15.89 1.84-14 29.94-14 29.94s26.73-15.11 49.13-8.68c17.62 5.06 23.71 13.12 23.71 13.12h-120.78ZM1224.34 1017.06h-185.07s8.1-15.75 37.45-17.39c0 0-21.35-14.73-14.91-21.72 6.44-6.99 32.45 16.78 32.45 16.78s-6.45-19.56 0-22c6.45-2.44 18.13 19.86 18.13 19.86s2.38-25.11 37.94-18.94c0 0-21-24.65-2.1-38.06 8.23-5.84 19.93-2.45 30.51 3.24 0 0-35.69-46.26-11.19-56.14 24.5-9.88 55.07 33.31 55.07 33.31s6.57-37.94 58.36-2.82l-52 103.89" fill="#000"/><path d="M1257.27 1020.49H309.05c-.34 0-.57-.69-.57-1.71s.23-1.71.57-1.71h948.34c.34 0 .57.68.57 1.71 0 1.03-.35 1.71-.69 1.71Z" fill="#B2B6BB"/><path d="M669.749 249.119a56.242 56.242 0 0 1-33.539 85.985 56.237 56.237 0 0 1-35.341-2.985 54.863 54.863 0 0 0 42.224 19.831 54.877 54.877 0 0 0 42.225-19.829 54.873 54.873 0 0 0 2.291-67.122 54.881 54.881 0 0 0-17.86-15.88ZM830.35 273.411a1.928 1.928 0 0 0 1.893-2.307 1.934 1.934 0 0 0-1.517-1.516 1.927 1.927 0 0 0-1.981.821c-.212.317-.325.69-.325 1.072a1.943 1.943 0 0 0 1.93 1.93ZM710.561 228.831a1.92 1.92 0 0 0 1.072-.326 1.923 1.923 0 0 0 .821-1.981 1.934 1.934 0 0 0-1.517-1.516 1.927 1.927 0 0 0-1.981.82 1.934 1.934 0 0 0-.325 1.073 1.94 1.94 0 0 0 1.93 1.93ZM1102.3 273.411c.38 0 .75-.113 1.07-.325.32-.213.57-.514.71-.867.15-.352.19-.74.11-1.115a1.901 1.901 0 0 0-.53-.988 1.919 1.919 0 0 0-2.1-.418c-.35.146-.65.393-.87.711-.21.317-.32.69-.32 1.072 0 .512.2 1.003.56 1.365.37.361.86.565 1.37.565ZM325.629 408.049a1.928 1.928 0 0 0 1.893-2.306 1.927 1.927 0 0 0-1.516-1.516 1.925 1.925 0 0 0-1.982.82 1.933 1.933 0 0 0-.325 1.072 1.941 1.941 0 0 0 1.93 1.93ZM911.25 331.68a1.934 1.934 0 0 0 1.783-1.191 1.927 1.927 0 0 0-.418-2.103 1.933 1.933 0 0 0-3.295 1.364 1.943 1.943 0 0 0 1.93 1.93ZM1000.79 251.049a1.934 1.934 0 0 0 1.78-1.191c.15-.353.19-.741.11-1.115a1.901 1.901 0 0 0-.53-.988 1.919 1.919 0 0 0-2.1-.419 1.932 1.932 0 0 0-.625 3.148c.362.362.855.565 1.365.565ZM1154.91 371.821c.38 0 .76-.113 1.07-.325.32-.212.57-.514.71-.866.15-.353.19-.741.11-1.116a1.886 1.886 0 0 0-.52-.988 1.944 1.944 0 0 0-2.11-.418c-.35.146-.65.393-.86.711-.22.317-.33.69-.33 1.072 0 .512.2 1.003.57 1.365.36.362.85.565 1.36.565ZM1008.73 421.889c.38 0 .76-.113 1.07-.325.32-.212.57-.513.71-.866.15-.353.19-.741.11-1.115a1.878 1.878 0 0 0-.52-.988 1.944 1.944 0 0 0-2.11-.419 1.92 1.92 0 0 0-.86.711c-.22.317-.33.691-.33 1.072 0 .512.2 1.003.57 1.365.36.362.85.565 1.36.565ZM765.19 364.309a1.93 1.93 0 1 0-1.93-1.93 1.939 1.939 0 0 0 1.93 1.93ZM420.84 439.12a1.92 1.92 0 0 0 1.072-.326 1.923 1.923 0 0 0 .821-1.981 1.927 1.927 0 0 0-2.631-1.406 1.93 1.93 0 0 0-1.192 1.783c.003.511.207 1 .568 1.362.362.361.851.565 1.362.568ZM490.34 335.54a1.929 1.929 0 0 0 1.783-1.192 1.925 1.925 0 0 0-.418-2.103 1.927 1.927 0 0 0-2.103-.418 1.93 1.93 0 0 0-1.192 1.783c.003.511.207 1 .568 1.362.362.361.851.565 1.362.568ZM332.151 489.889a1.93 1.93 0 1 0-1.93-1.93 1.939 1.939 0 0 0 1.93 1.93ZM569.26 287.59a1.928 1.928 0 0 0 1.893-2.306 1.934 1.934 0 0 0-1.516-1.516 1.929 1.929 0 0 0-2.307 1.892 1.941 1.941 0 0 0 1.93 1.93ZM480.311 232.69a1.928 1.928 0 0 0 1.893-2.306 1.933 1.933 0 0 0-3.498-.696c-.212.317-.325.69-.325 1.072a1.939 1.939 0 0 0 1.93 1.93ZM619.619 406.12a1.927 1.927 0 0 0 1.784-1.192 1.927 1.927 0 0 0-2.522-2.521 1.928 1.928 0 0 0-.623 3.145c.361.361.85.565 1.361.568ZM745.141 429.491a1.928 1.928 0 0 0 1.893-2.307 1.934 1.934 0 0 0-1.517-1.516 1.927 1.927 0 0 0-1.981.821c-.212.317-.325.69-.325 1.072a1.943 1.943 0 0 0 1.93 1.93ZM394.891 337.46a1.929 1.929 0 0 0 1.783-1.192 1.934 1.934 0 0 0-.418-2.103 1.926 1.926 0 0 0-2.104-.418 1.933 1.933 0 0 0-1.191 1.783 1.94 1.94 0 0 0 1.93 1.93Z" fill="#fff"/><path d="M535.18 691 374.33 877l.76.65 160.84-186-.75-.65Z" fill="#000"/><path d="M535.569 691.35s76.71 21 169.15-1.44l-124.4 187.45h-180.63l135.88-186.01ZM704.72 689.91l102.49 187.45H580.32l124.4-187.45Z" class="change-color-in-svg" fill="#4D61FC" style="fill:#158566"/><path opacity=".3" d="m704.72 689.91 102.49 187.45H580.32l124.4-187.45Z" fill="#fff"/><path d="m704.721 689.91-9 11.55h16.56l-7.56-11.55Z" class="change-color-in-svg" fill="#4D61FC" style="fill:#158566"/><path opacity=".5" d="m704.721 689.91-9 11.55h16.56l-7.56-11.55Z" fill="#000"/><path opacity=".3" d="M699.77 701.461s-22.6 114.27-73.94 162.54c0 0 16.8 4.58 21.92 13.38 0 0 46-56.56 57-157.2 11 100.63 57 157.2 57 157.2 5.12-8.8 21.92-13.38 21.92-13.38-51.34-48.26-73.94-162.53-73.94-162.53l-9.96-.01Z" fill="#fff"/><path d="m559.369 877.361 6.38-8.23h72.58s7.26 3.9 9.42 8.23h-88.38ZM807.211 877.361l-4.79-8.23h-31.29s-7.26 3.9-9.42 8.23h45.5Z" class="change-color-in-svg" fill="#4D61FC" style="fill:#158566"/><g opacity=".3" fill="#000"><path opacity=".3" d="m399.689 877.361 6-8.23h232.64s7.26 3.9 9.42 8.23h-248.06ZM807.209 877.361l-4.79-8.23h-31.29s-7.26 3.9-9.42 8.23h45.5Z"/></g><path d="m565.38 870.431-.79-.62 140.16-180.76.38.58 116.94 179.23-.84.55-116.55-178.64-139.3 179.66Z" fill="#000"/><path opacity=".5" d="M546.53 747.5c6.19 1.73 29.09 6.93 61.8.39a2.597 2.597 0 0 1 2.691 1.176A2.603 2.603 0 0 1 610.9 752l-43 54.81a2.591 2.591 0 0 1-2 1h-62.25a2.605 2.605 0 0 1-2.324-1.451 2.61 2.61 0 0 1 .254-2.729l42.18-55.24a2.608 2.608 0 0 1 2.77-.89Z" fill="#000"/><path opacity=".4" d="M547.69 753.53c4.95 1.38 23.27 5.55 49.43.31a2.081 2.081 0 0 1 2 3.32L564.78 801a2.09 2.09 0 0 1-1.64.8h-49.76a2.078 2.078 0 0 1-1.86-1.159 2.077 2.077 0 0 1 .21-2.181l33.74-44.19a2.078 2.078 0 0 1 2.22-.74Z" fill="#fff"/><path d="m608.359 758.83-24.789-2.07a116.141 116.141 0 0 0-21.911.12l-19.49 1.94a9.399 9.399 0 0 1-9.399-9.401 9.398 9.398 0 0 1 9.399-9.399l20.411 1.86c6.374.581 12.786.638 19.17.169l26.159-2 .45 18.781Z" class="change-color-in-svg" fill="#4D61FC" style="fill:#158566"/><path opacity=".3" d="m608.359 758.83-24.789-2.07a116.141 116.141 0 0 0-21.911.12l-19.49 1.94a9.399 9.399 0 0 1-9.399-9.401 9.398 9.398 0 0 1 9.399-9.399l20.411 1.86c6.374.581 12.786.638 19.17.169l26.159-2 .45 18.781Z" fill="#fff"/><path d="M607.78 750.529a2.993 2.993 0 0 0 2.867-.308 2.997 2.997 0 0 0 1.283-2.582 3.623 3.623 0 0 0-3-3.33 4.569 4.569 0 0 0-4.723 1.987 4.573 4.573 0 0 0-.667 1.673 5.66 5.66 0 0 0 2.47 5.82 5.261 5.261 0 0 0 4.79.38 7.241 7.241 0 0 0 4.6-8.73 7.478 7.478 0 0 0-7.48-5.42 9.406 9.406 0 0 0-6.357 2.687 9.405 9.405 0 0 0-.554 12.828 9.404 9.404 0 0 0 6.101 3.225 11.092 11.092 0 0 0 12.22-9.34l-3.84-.54" class="change-color-in-svg" fill="#4D61FC" style="fill:#158566"/><g opacity=".5"><g opacity=".5"><path opacity=".5" d="M607.78 750.529a2.993 2.993 0 0 0 2.867-.308 2.997 2.997 0 0 0 1.283-2.582 3.623 3.623 0 0 0-3-3.33 4.569 4.569 0 0 0-4.723 1.987 4.573 4.573 0 0 0-.667 1.673 5.66 5.66 0 0 0 2.47 5.82 5.261 5.261 0 0 0 4.79.38 7.241 7.241 0 0 0 4.6-8.73 7.478 7.478 0 0 0-7.48-5.42 9.406 9.406 0 0 0-6.357 2.687 9.405 9.405 0 0 0-.554 12.828 9.404 9.404 0 0 0 6.101 3.225 11.092 11.092 0 0 0 12.22-9.34l-3.84-.54" fill="#fff"/></g></g><path d="M554.699 877.359v-22.8a1.53 1.53 0 0 1 1.53-1.53h1.77a1.533 1.533 0 0 1 1.52 1.34l.73 5.54 1-4.63a1.53 1.53 0 0 1 1.5-1.21h1.25a1.53 1.53 0 0 1 1.53 1.53v21.76h-10.83ZM821 877.359v-26.27a.81.81 0 0 1 .81-.81h3.11a.813.813 0 0 1 .81.74l.83 8.89 1-5.95a.815.815 0 0 1 .357-.547.81.81 0 0 1 .643-.113l2.65.62a.807.807 0 0 1 .63.79v22.65H821ZM369.279 877.359v-22.8a1.53 1.53 0 0 1 1.53-1.53h1.78a1.533 1.533 0 0 1 1.52 1.34l.73 5.54 1-4.63a1.53 1.53 0 0 1 1.5-1.21h1.22a1.53 1.53 0 0 1 1.53 1.53v21.76h-10.81Z" class="change-color-in-svg" fill="#4D61FC" style="fill:#158566"/><g opacity=".5" fill="#000"><path opacity=".5" d="M554.699 877.359v-22.8a1.53 1.53 0 0 1 1.53-1.53h1.77a1.533 1.533 0 0 1 1.52 1.34l.73 5.54 1-4.63a1.53 1.53 0 0 1 1.5-1.21h1.25a1.53 1.53 0 0 1 1.53 1.53v21.76h-10.83ZM369.279 877.359v-22.8a1.53 1.53 0 0 1 1.53-1.53h1.78a1.533 1.533 0 0 1 1.52 1.34l.73 5.54 1-4.63a1.53 1.53 0 0 1 1.5-1.21h1.22a1.53 1.53 0 0 1 1.53 1.53v21.76h-10.81ZM821 877.359v-26.27a.81.81 0 0 1 .81-.81h3.11a.813.813 0 0 1 .81.74l.83 8.89 1-5.95a.815.815 0 0 1 .357-.547.81.81 0 0 1 .643-.113l2.65.62a.807.807 0 0 1 .63.79v22.65H821Z"/></g><path opacity=".3" d="M531.639 696.729s-3.82 34.55 78 30c49.67-2.74 82.26-26.94 95-36.87 0 0-34 9.38-85.38 10.24-37.33.62-65.21-5.14-83.76-8.79l-3.86 5.42Z" fill="#fff"/><path opacity=".5" d="M535.151 691.189s-2.8 30.91 65.34 27.15c41.35-2.28 63.55-14.34 74.18-22.61 0 0-22.37 4.55-65 4.45-42.63-.1-74.52-8.99-74.52-8.99Z" fill="#fff"/><path d="M647.75 877.36s46-56.56 57-157.2c11 100.63 57 157.2 57 157.2h-114Z" fill="#000"/><path d="M700.88 746.681s1.46-8.58 1.89-11.47c.56-3.73 1.94-15 1.94-15s1.27 10.47 1.78 14c.46 3.13 2 12.54 2 12.54v130.61h-7.67v-130.68h.06ZM608.36 759.28c-.435.001-.869-.022-1.3-.07a9.903 9.903 0 0 1-8.62-8.47 9.848 9.848 0 0 1 9.45-11.16 7.795 7.795 0 0 1 3.367.584A7.801 7.801 0 0 1 616 748.51l3.38.47a.448.448 0 0 1 .38.5 11.5 11.5 0 0 1-11.4 9.8Zm-.21-18.81h-.22a8.998 8.998 0 0 0-6.283 14.641 9.004 9.004 0 0 0 5.513 3.209 10.66 10.66 0 0 0 11.66-8.52l-3-.42a7.837 7.837 0 0 1-4.88 5.2 5.682 5.682 0 0 1-5.18-.41 6.135 6.135 0 0 1-2.68-6.31 4.986 4.986 0 0 1 2.115-3.24 4.992 4.992 0 0 1 3.795-.76 4.088 4.088 0 0 1 3.37 3.77 3.475 3.475 0 0 1-1.62 3 3.37 3.37 0 0 1-3.17.29.436.436 0 0 1-.159-.101.452.452 0 0 1-.088-.523.44.44 0 0 1 .284-.233.438.438 0 0 1 .187-.01.43.43 0 0 1 .176.067 2.486 2.486 0 0 0 2.3-.24 2.546 2.546 0 0 0 1.21-2.24 3.188 3.188 0 0 0-2.65-2.9 4.09 4.09 0 0 0-3.133.631 4.094 4.094 0 0 0-1.727 2.689 5.188 5.188 0 0 0 2.27 5.35 4.776 4.776 0 0 0 4.4.34 7.151 7.151 0 0 0 4.42-4.89v-.11a6.848 6.848 0 0 0-.12-3.16 7.07 7.07 0 0 0-6.79-5.12Z" class="change-color-in-svg" fill="#4D61FC" style="fill:#158566"/><g opacity=".5"><g opacity=".5"><g opacity=".5"><path opacity=".5" d="M608.36 759.28c-.435.001-.869-.022-1.3-.07a9.903 9.903 0 0 1-8.62-8.47 9.848 9.848 0 0 1 9.45-11.16 7.795 7.795 0 0 1 3.367.584A7.801 7.801 0 0 1 616 748.51l3.38.47a.448.448 0 0 1 .38.5 11.5 11.5 0 0 1-11.4 9.8Zm-.21-18.81h-.22a8.998 8.998 0 0 0-6.283 14.641 9.004 9.004 0 0 0 5.513 3.209 10.66 10.66 0 0 0 11.66-8.52l-3-.42a7.837 7.837 0 0 1-4.88 5.2 5.682 5.682 0 0 1-5.18-.41 6.135 6.135 0 0 1-2.68-6.31 4.986 4.986 0 0 1 2.115-3.24 4.992 4.992 0 0 1 3.795-.76 4.088 4.088 0 0 1 3.37 3.77 3.475 3.475 0 0 1-1.62 3 3.37 3.37 0 0 1-3.17.29.436.436 0 0 1-.159-.101.452.452 0 0 1-.088-.523.44.44 0 0 1 .284-.233.438.438 0 0 1 .187-.01.43.43 0 0 1 .176.067 2.486 2.486 0 0 0 2.3-.24 2.546 2.546 0 0 0 1.21-2.24 3.188 3.188 0 0 0-2.65-2.9 4.09 4.09 0 0 0-3.133.631 4.094 4.094 0 0 0-1.727 2.689 5.188 5.188 0 0 0 2.27 5.35 4.776 4.776 0 0 0 4.4.34 7.151 7.151 0 0 0 4.42-4.89v-.11a6.848 6.848 0 0 0-.12-3.16 7.07 7.07 0 0 0-6.79-5.12Z" fill="#000"/></g></g></g><path d="M570.109 756.359a15.263 15.263 0 0 1-.156-7.399 15.269 15.269 0 0 1 3.346-6.601h1.09l-.08.2c-.06.14-2.27 4.91 2.06 13.58l.1.21h-1c-2.78-5.66-2.87-9.72-2.53-12a14.23 14.23 0 0 0-1.93 11.9v.11h-.9ZM565.509 872.64l-10.81-7.58v-1.22l10.81 7.58v1.22Z" fill="#000"/><path d="M554.699 872.6v-1.14l10.81-5.89v1.14l-10.81 5.89ZM831.8 872.64l-10.8-7.58v-1.22l10.82 7.58-.02 1.22Z" fill="#000"/><path d="M821 872.6v-1.14l10.82-5.89v1.14L821 872.6ZM273.211 802.2c1.23-2.13 2.78-3.33 4.76-3.07 10.54 1.39 24.68 56.3 24.68 56.3s-5.52-38.23 2.53-40.91c8.05-2.68 11.49 38.31 11.49 38.31s-4.41-64.17 9.58-64.17 6.51 76.43 6.51 76.43 12.68-24.58 21.15-21.16c8.47 3.42-7 40-7 40s19.56-20.47 36.65-14.53c17.09 5.94 20.55 43.09 20.55 43.09s13.14-10 24.22-2.42c11.08 7.58 1 22 1 22s57.82-26.2 89.34 29.65c6.5 11.51 10 26.76 11.49 43.7 0 0 23.25-22.25 49.92-5.76a35.377 35.377 0 0 1 14.58 17.37h-261.55l-59.9-214.83Z" fill="#000"/><path d="m841 913 2.06 6.67a1.935 1.935 0 0 1-.195 1.567 1.937 1.937 0 0 1-1.295.903L778.69 934 776 919.68l62.84-8A1.909 1.909 0 0 1 841 913Z" fill="#3F4249"/><path opacity=".2" d="m841 913 2.06 6.67a1.935 1.935 0 0 1-.195 1.567 1.937 1.937 0 0 1-1.295.903L778.69 934 776 919.68l62.84-8A1.909 1.909 0 0 1 841 913Z" fill="#000"/><path d="M778.739 933.999c1.68-.31 2.45-3.78 1.71-7.74-.74-3.96-2.7-6.92-4.39-6.61-1.69.31-2.44 3.78-1.71 7.74.73 3.96 2.71 6.95 4.39 6.61Z" fill="#21252B"/><path opacity=".3" d="M778.739 933.999c1.68-.31 2.45-3.78 1.71-7.74-.74-3.96-2.7-6.92-4.39-6.61-1.69.31-2.44 3.78-1.71 7.74.73 3.96 2.71 6.95 4.39 6.61Z" fill="#000"/><path opacity=".3" d="m780.679 928.34 21.28-4a9.794 9.794 0 0 0 4.57-2.19 8.642 8.642 0 0 1 4.36-2l7.85-1.18a.573.573 0 0 0 .415-.631.569.569 0 0 0-.575-.489l-7.85 1.15a9.773 9.773 0 0 0-4.93 2.25 8.645 8.645 0 0 1-4 1.94l-21.18 4 .06 1.15Z" fill="#61656D"/><g opacity=".3"><path opacity=".3" d="M811.54 925h.09l31.45-5v-.17c-.06-.23-.28-.92-.28-.92l-31.31 5a.57.57 0 0 0-.47.65.576.576 0 0 0 .52.44Z" fill="#000"/></g><path opacity=".3" d="m780.091 924.82 13.539-2.33a.582.582 0 0 0 .393-.226.562.562 0 0 0 .104-.441.578.578 0 0 0-.25-.377.562.562 0 0 0-.447-.076l-13.7 2.36.361 1.09Z" fill="#61656D"/><path d="M808.681 916.001c-30.12-3-27.21-32.67-27.21-32.67a17.3 17.3 0 0 0 7.5 6.81s-9-14.06-6-30.24c0 0 1.81 5 9.52 7.84 0 0-11.08-36.23 21.63-56.18 0 0-7 12.59 2.73 26.26 8.69 12.22 10.83 12.17 8.4 28.71 0 0 4-14.26 17-12.24 0 0-9 2.35-5.22 12.9 5.25 14.57 11.73 52.74-28.35 48.81Z" fill="#fff"/><path d="M808.671 916s-14.95-.49-17.06-29.6a9.45 9.45 0 0 1 6.49 6.69s1.45-8.74-3.63-14.71c-5.08-5.97-5-8.64-5-8.64s5.67 3.38 11.21 3.41c0 0-4.7-4.25-3-14.15 1.7-9.9 9.39-23.5 9.39-23.5a23.36 23.36 0 0 0 9.53 21.92c12 9.08 3.92 29.46 3.92 29.46s4.34-16 11.48-20.86c0 0-1.66 6.13 2.6 14.85 5.75 11.73 1.19 40.32-25.93 35.13ZM830.999 849.181c-.32-1.94 0-5.22 3-10.38a18.205 18.205 0 0 0 .17 6c.7 2.35 1.001 3.22.841 4.38a2.006 2.006 0 0 1-4.011 0ZM852.44 860.34c-1 5.46-5.14 3.7-7.44 5.65-2.3 1.95.16 7.4.16 7.4a6.454 6.454 0 0 1 4.11-3.92c5.45-1.68 3.17-9.13 3.17-9.13ZM770.629 861.599c-1.58-1.31-4.14-4.77-1.26-12.31 0 0-1.31 4.17 1.83 6.37 2.75 1.93 3.82 5.13 1.95 6.24a2.239 2.239 0 0 1-2.52-.3ZM777.54 883.75c-2.38 0-5.34-2.07-6.46-7 0 0 3 2.53 5.52 2.83 3.6.42 2.55 4.15.94 4.17Z" class="change-color-in-svg" fill="#4D61FC" style="fill:#158566"/><path d="m787.241 914.851-2.06 6.67a1.923 1.923 0 0 0 .19 1.569 1.935 1.935 0 0 0 1.3.901l62.84 11.83 2.66-14.33-62.84-8a1.922 1.922 0 0 0-2.09 1.36Z" fill="#3F4249"/><path d="M853.921 929.19c.74-4 0-7.43-1.71-7.74-1.71-.31-3.65 2.64-4.38 6.61s0 7.43 1.71 7.74c1.71.31 3.64-2.65 4.38-6.61Z" fill="#3F4249"/><path opacity=".3" d="M853.921 929.19c.74-4 0-7.43-1.71-7.74-1.71-.31-3.65 2.64-4.38 6.61s0 7.43 1.71 7.74c1.71.31 3.64-2.65 4.38-6.61Z" fill="#000"/><path opacity=".3" d="m847.53 930.15-21.28-4a9.783 9.783 0 0 1-4.571-2.19 8.64 8.64 0 0 0-4.359-2l-7.851-1.18a.562.562 0 0 1-.326-.237.563.563 0 0 1-.088-.393.565.565 0 0 1 .575-.49l7.849 1.18a9.782 9.782 0 0 1 4.93 2.25 8.654 8.654 0 0 0 4 1.94l21.181 4-.06 1.12ZM816.659 926.849h-.09l-31.45-5.06v-.17c.06-.23.28-.92.28-.92l31.31 5a.556.556 0 0 1 .383.196.563.563 0 0 1-.255.899.554.554 0 0 1-.218.025l.04.03ZM848.119 926.629l-13.54-2.33a.568.568 0 0 1-.205-1.01.57.57 0 0 1 .405-.11l13.7 2.36-.36 1.09Z" fill="#868A91"/><path opacity=".2" d="M1032.28 938.089c64.29 0 116.41-11.972 116.41-26.74 0-14.768-52.12-26.74-116.41-26.74-64.292 0-116.411 11.972-116.411 26.74 0 14.768 52.119 26.74 116.411 26.74Z" fill="#000"/><path d="m1099.64 789.74 13.36 21.93a12.165 12.165 0 0 1 1.69 8.973 12.14 12.14 0 0 1-5.05 7.607l-50.92 31.36-8.93-11.5 33.44-32.61-6.81-10.06 23.22-15.7ZM935.879 789.74l-13.34 21.93a12.131 12.131 0 0 0 3.35 16.58l52.41 31.36 8.93-11.5-34.93-32.61 6.81-10.06-23.23-15.7Z" fill="#FC9D9D"/><path d="m1036.28 738.721-36.339-1.26-31.66 6.35a18.37 18.37 0 0 0-12.39 8.33l-21.67 38.46 24.48 16.51 11.87-17.26v72.84h94.809v-72.84l10.67 16.42 25-15.69-21.15-38.58a18.39 18.39 0 0 0-13-8.61l-30.66-4.64" fill="#21252B"/><path d="m998.68 702.301-.35 35.31c-.006.79.243 1.562.71 2.2l.32.55c8.39 13 28.9 8.84 35.5 2.13a4.13 4.13 0 0 0 1.21-1.699c.24-.66.32-1.374.21-2.071l-5.9-39-31.7 2.58Z" fill="#FC9D9D"/><path d="M1033.84 686.249s6.45 42.63-17.07 44.36c-22.999 1.73-23.679-41.37-23.679-41.37l-.62-12.35 29.529-5.19 7.47 3.85 4.37 10.7Z" fill="#FC9D9D"/><path opacity=".15" d="m1034.39 727.07-1.73-11.72c-2.12 7.56-6.53 13.85-14.24 15.11h.08l-1.65.23c-6.14.47-11.25-2.36-15.1-8.41a.509.509 0 0 0-.32-.227.525.525 0 0 0-.39.067.539.539 0 0 0-.23.321c-.03.134 0 .273.07.389 4.09 6.45 9.52 9.44 16 9 1.36-.097 2.7-.359 4-.78 4.85.485 9.7-.943 13.51-3.98Z" fill="#000"/><path d="M1028.26 676.73s7.47-5 11 3.54c3 7.16-2 15-2 15l-4.32-.47c-1.81-.08-3.07-1-3.23-2.68l-1.45-15.39Z" fill="#21252B"/><path d="M1033.6 671.541c.63 8.1-6.29 10.23-9.12 10.46l-23.2 2a3.562 3.562 0 0 0-3.23 3.7l.39 7.39a1.897 1.897 0 0 1-1.65 2l-1.41.16-1.58 2c-9.12-2.2-12.9-28.08 3.86-33.27a7.172 7.172 0 0 0 4.17-3.54c2.43-5 12.42-6.37 17.46-.71.49.579 1.1 1.036 1.8 1.336a4.86 4.86 0 0 0 2.2.394c6.07-.18 10 3.6 10.31 8.08Z" fill="#21252B"/><path d="M995.45 699.78a3.827 3.827 0 0 0-2.328-3.157 3.818 3.818 0 0 0-3.882.557l-.08.08c-4 3.46-1.41 14.32 7.4 13.37l-1.11-10.85ZM1039.27 694l-.08-.08a3.825 3.825 0 0 0-1.95-.52c-.69.006-1.36.195-1.94.549-.59.354-1.07.859-1.4 1.463a3.847 3.847 0 0 0-.45 1.968l.47 10.38c8.89-.27 9.75-10.89 5.35-13.76Z" fill="#FC9D9D"/><path d="M996.56 701.12a1.052 1.052 0 0 1-.95 1.1 1.074 1.074 0 0 1-1.18-.79l-1-7 2.91.08.22 6.61ZM1035.26 698.28c.01.279-.08.553-.27.761-.19.208-.45.333-.73.349a1.09 1.09 0 0 1-.74-.174 1.118 1.118 0 0 1-.44-.616l-1-7 2.91.08.27 6.6Z" fill="#21252B"/><path d="M1024.64 682.999c-.39.042-.79.042-1.18 0a.495.495 0 0 1-.26-.207.526.526 0 0 1 .05-.629.545.545 0 0 1 .29-.164c.07 0 4.72.24 6.68-2.83a.513.513 0 0 1 .71-.16c.12.073.2.189.23.322s0 .273-.07.388a8.182 8.182 0 0 1-2.85 2.386 8.201 8.201 0 0 1-3.6.894Z" fill="#FC9D9D"/><path d="M1007.17 707.92c.4 0 .78-.117 1.11-.337a1.99 1.99 0 0 0 .85-2.053 2.02 2.02 0 0 0-.55-1.024c-.28-.28-.63-.47-1.02-.548a2.022 2.022 0 0 0-1.16.114 2.015 2.015 0 0 0-1.23 1.848c0 .53.21 1.039.59 1.414.37.375.88.586 1.41.586Z" fill="#21252B"/><path d="M1007.27 707.161a.496.496 0 0 0 .34-.143c.09-.09.14-.211.14-.337a.464.464 0 0 0-.14-.333.482.482 0 0 0-.34-.137.473.473 0 0 0-.33.806c.09.09.21.141.33.144Z" fill="#fff"/><path d="M1022.91 706.74c.4 0 .78-.117 1.11-.337a1.989 1.989 0 0 0 .85-2.053 2.024 2.024 0 0 0-.55-1.024c-.28-.28-.63-.47-1.02-.547a2.021 2.021 0 0 0-1.16.113 2.015 2.015 0 0 0-1.23 1.848c0 .531.21 1.039.59 1.414.37.376.88.586 1.41.586Z" fill="#21252B"/><path d="M1023 706.049a.492.492 0 0 0 .26-.084.57.57 0 0 0 .17-.213c.03-.086.04-.18.02-.27a.52.52 0 0 0-.13-.238.482.482 0 0 0-.24-.126.459.459 0 0 0-.27.028.443.443 0 0 0-.21.173.464.464 0 0 0 .06.593c.09.088.21.137.34.137Z" fill="#fff"/><g opacity=".3"><path opacity=".3" d="m1016.06 713.469 1.65-.16c.16-.015.3-.088.4-.205a.611.611 0 0 0 .16-.425.582.582 0 0 0-.21-.4.581.581 0 0 0-.42-.15l-1.66.16c-.16.01-.33-.013-.49-.067-.15-.054-.3-.139-.42-.249-.13-.11-.23-.243-.3-.392a1.343 1.343 0 0 1-.06-.965c.06-.156.14-.301.25-.425.11-.124.25-.225.39-.297.15-.073.32-.115.48-.125a.572.572 0 0 0 .22-.06.604.604 0 0 0 .19-.141.517.517 0 0 0 .11-.2.45.45 0 0 0 .03-.229.447.447 0 0 0-.06-.223.512.512 0 0 0-.14-.182.583.583 0 0 0-.43-.145 2.37 2.37 0 0 0-1.66.822c-.2.242-.36.524-.45.828-.09.304-.12.624-.09.94 0 .32.07.636.2.929.13.292.31.554.55.77.24.215.52.379.82.481.3.102.62.139.94.11Z" fill="#000"/></g><path d="m1074.75 910.311-18.63-3.43-2.47 17.75 18.26 2 2.84-16.32Z" fill="#FC9D9D"/><path opacity=".15" d="m1056.46 924.83 6.44-17.15-.25 8.87c.08.406.28.778.58 1.06.31.283.69.461 1.1.51l8.86 1.11-1.28 7.38-15.45-1.78Z" fill="#000"/><path d="M1087 938.49a13.943 13.943 0 0 1-8.44-4.54l-2.58-2.9a13.477 13.477 0 0 0-5.75-3.85 8.314 8.314 0 0 1-4.35-3.52 8.289 8.289 0 0 1-1.12-5.48v-.37a8.84 8.84 0 0 1 3.42-5.8 8.808 8.808 0 0 1 6.51-1.7l15.88 2.21-3.57 25.95Z" class="change-color-in-svg" fill="#4D61FC" style="fill:#158566"/><path d="M1072.24 925.571c-.13 0-.38 0-.41-.18a9.61 9.61 0 0 1-.62-4.974 9.58 9.58 0 0 1 1.95-4.616.293.293 0 0 1 .23-.102.29.29 0 0 1 .22.102.36.36 0 0 1 .07.1.257.257 0 0 1 0 .24.36.36 0 0 1-.07.1 8.807 8.807 0 0 0-1.83 4.286 8.813 8.813 0 0 0 .59 4.624c.01.029.02.062.02.095s-.01.065-.02.095a.508.508 0 0 1-.13.23ZM1074.35 926.88c-.14 0-.39 0-.42-.18a9.619 9.619 0 0 1-.62-4.976 9.579 9.579 0 0 1 1.96-4.614.304.304 0 0 1 .34-.071c.04.016.07.04.1.071.03.029.05.064.07.102a.269.269 0 0 1 0 .245.375.375 0 0 1-.07.103 8.888 8.888 0 0 0-1.83 4.281 8.796 8.796 0 0 0 .59 4.619.34.34 0 0 1 0 .2c.02.11-.06.23-.12.22ZM1076.55 928.4c-.13 0-.38 0-.42-.19a9.72 9.72 0 0 1-.62-4.975 9.692 9.692 0 0 1 1.96-4.615.314.314 0 0 1 .34-.067c.04.016.07.039.1.067.03.029.05.064.07.101.01.038.02.079.02.119 0 .041-.01.082-.02.119a.364.364 0 0 1-.07.101 8.814 8.814 0 0 0-1.83 4.287 8.81 8.81 0 0 0 .59 4.623c.01.03.02.063.02.095 0 .033-.01.066-.02.095a.366.366 0 0 1-.12.24Z" fill="#fff"/><path d="m1089.18 938.851-2.11-.29 3.63-26 2.11.29a1.137 1.137 0 0 1 1 1.28l-3.31 23.73a1.183 1.183 0 0 1-1.32.99Z" fill="#3F4249"/><path d="m962.761 924.729 18.14-2.84-3.31-17.61-18.45 4.3 3.62 16.15Z" fill="#FC9D9D"/><path opacity=".15" d="m975.8 922.66-13 2.07-1.63-7.31 8.79-1.52a2.003 2.003 0 0 0 1.61-1.65l2.34-9.1 2 17.5-.11.01Z" fill="#000"/><path d="m943.391 911.551 15.75-3a8.83 8.83 0 0 1 10.28 7l.07.37a8.291 8.291 0 0 1-5 9.26 13.5 13.5 0 0 0-5.56 4.12l-2.44 3a13.904 13.904 0 0 1-8.22 4.93l-4.88-25.68Z" class="change-color-in-svg" fill="#4D61FC" style="fill:#158566"/><path d="M962.2 923.49a.25.25 0 0 1 0-.2 8.866 8.866 0 0 0-1.66-8.83.306.306 0 0 1-.071-.103.304.304 0 0 1 .071-.347.305.305 0 0 1 .339-.068.3.3 0 0 1 .101.068 9.698 9.698 0 0 1 1.79 9.52c0 .2-.27.24-.41.2a.574.574 0 0 1-.16-.24Z" fill="#fff"/><path d="M960.16 924.9a.25.25 0 0 1 0-.2 8.884 8.884 0 0 0-1.66-8.84.312.312 0 0 1 .196-.541.31.31 0 0 1 .224.081 9.622 9.622 0 0 1 1.79 9.52c0 .19-.27.24-.41.2-.14-.04-.11-.12-.14-.22ZM958 926.509a.21.21 0 0 1-.022-.095.21.21 0 0 1 .022-.095 8.856 8.856 0 0 0-1.66-8.84.316.316 0 0 1-.092-.22.305.305 0 0 1 .092-.22.3.3 0 0 1 .45 0 9.673 9.673 0 0 1 1.79 9.51c0 .2-.28.25-.41.21a.301.301 0 0 1-.17-.25Z" fill="#fff"/><path d="m944.751 936.821-4.43-23.54a1.138 1.138 0 0 1 .9-1.33l2.1-.39 4.86 25.83-2.1.39a1.168 1.168 0 0 1-1.33-.96Z" fill="#3F4249"/><path d="m1028.57 697.179-8.89.48-1.18.07-7.79.48h-.07l-10 .55a2.93 2.93 0 0 0-2.759 3.14l.16 2.28a8.005 8.005 0 0 0 5.339 7.126 8.02 8.02 0 0 0 6.12-.329 7.953 7.953 0 0 0 2.5-1.874 7.945 7.945 0 0 0 2.04-5.783l-.16-2.28a2.78 2.78 0 0 0-.71-1.73l3.07-.16a2.896 2.896 0 0 0-.47 1.81l.16 2.28c.06 1.051.32 2.08.77 3.029.46.949 1.1 1.799 1.88 2.502a7.918 7.918 0 0 0 2.69 1.595 8.02 8.02 0 0 0 6.12-.329 7.953 7.953 0 0 0 2.5-1.874 7.945 7.945 0 0 0 2.04-5.783l-.15-2.29c-.01-.404-.1-.803-.27-1.17a3.01 3.01 0 0 0-.71-.97 2.95 2.95 0 0 0-1.04-.612 2.991 2.991 0 0 0-1.19-.158Zm-15.89 3.82.16 2.28a6.766 6.766 0 0 1-1.78 4.766 6.802 6.802 0 0 1-4.6 2.181 6.768 6.768 0 0 1-4.82-1.631 6.757 6.757 0 0 1-2.329-4.526l-.16-2.29a1.813 1.813 0 0 1 1.649-1.88l10-.55h.08a1.67 1.67 0 0 1 1.27.427c.17.156.3.345.39.555.09.211.14.438.14.668Zm18 1.26a6.8 6.8 0 0 1-1.79 4.759 6.778 6.778 0 0 1-9.41.542 6.753 6.753 0 0 1-2.33-4.521l-.15-2.28c-.02-.466.14-.923.45-1.274.31-.352.74-.572 1.2-.616l1.18-.07 8.89-.48c.47-.019.92.142 1.28.452.35.309.56.742.6 1.208l.08 2.28Z" fill="#21252B"/><path d="m1011 716.69 10-.71c.23 0 .47.241.39.471a5.66 5.66 0 0 1-1.85 2.865 5.659 5.659 0 0 1-6.48.531c-1-.587-1.8-1.469-2.29-2.527v-.08a.324.324 0 0 1-.06-.164c-.01-.06 0-.12.02-.175a.36.36 0 0 1 .27-.211Z" fill="#fff"/><g opacity=".3"><path opacity=".3" d="M993.25 705.439a.668.668 0 0 1-.63-.55l-.15-1.26a4.314 4.314 0 0 0-1.11-2.75 1.256 1.256 0 0 0-.94-.31.63.63 0 0 1-.71-.48.596.596 0 0 1 .47-.7 2.785 2.785 0 0 1 1.89.47 4.842 4.842 0 0 1 1.58 3.54l.15 1.26a.774.774 0 0 1-.55.78Z" fill="#000"/></g><g opacity=".3"><path opacity=".3" d="M1036.51 702.22c.16-.016.3-.089.4-.206.1-.117.16-.269.15-.424v-1.26a3.74 3.74 0 0 1 .06-1.49c.12-.487.34-.943.65-1.34.12-.151.27-.271.45-.353.17-.081.36-.122.55-.117a.676.676 0 0 0 .63-.55.688.688 0 0 0-.16-.412.682.682 0 0 0-.39-.218 2.446 2.446 0 0 0-1.74.78 4.812 4.812 0 0 0-.89 1.785 4.8 4.8 0 0 0-.11 1.995v1.26c-.22.33.01.55.4.55Z" fill="#000"/></g><path opacity=".15" d="m1058.7 859.61-.8.56 51.72-31.92a12.137 12.137 0 0 0 5.05-7.607c.62-3.097.02-6.316-1.69-8.973l-2.6-4.27s6.71 11.46-9.35 21.61l-45.28 28.81 2.95 1.79ZM931.501 827.749c-10.89-5.25-8-17.64-8-17.64l-.94 1.56a12.131 12.131 0 0 0 3.35 16.58l52.6 31.36-1.2-.61 3.61-2.5-49.42-28.75Z" fill="#000"/><path d="m927.68 855.25 42.89 4.86h94.81l40.72-4.86-7.09 42.81H944.96l-15.79-41.58" class="change-color-in-svg" fill="#4D61FC" style="fill:#158566"/><path opacity=".3" d="m927.68 855.25 42.89 4.86h94.81l40.72-4.86-7.09 42.81H944.96l-15.79-41.58" fill="#000"/><path d="m1017.05 889.131 69.57-27.81c7.12-2.848 14.49-5.06 22-6.61 4.06-.835 8.29-.282 12 1.57a21.955 21.955 0 0 1 11 12.64l.38 1.08a18.517 18.517 0 0 1-1 14.12 18.489 18.489 0 0 1-12.31 9.8l-141.641 33.72-5.86-22.64 45.861-15.87Z" class="change-color-in-svg" fill="#4D61FC" style="fill:#158566"/><path opacity=".2" d="M1131.05 884.131a18.517 18.517 0 0 0 1-14.12l-.36-1.09a21.97 21.97 0 0 0-5.21-8.45s7 23.81-18.15 29.25l-35 8.58a34.125 34.125 0 0 1-15.73.13l-39.72-9.07 13.5 25.38 87.44-20.81a18.48 18.48 0 0 0 7.2-3.541 18.472 18.472 0 0 0 5.03-6.259Z" fill="#000"/><path d="m1017.8 889.361-69.571-27.81a130.037 130.037 0 0 0-22-6.61 18.498 18.498 0 0 0-12 1.57 21.914 21.914 0 0 0-11 12.65l-.36 1.08a18.512 18.512 0 0 0 1 14.12 18.547 18.547 0 0 0 12.32 9.81l143.471 33.7 4.07-22.6-45.93-15.91Z" class="change-color-in-svg" fill="#4D61FC" style="fill:#158566"/><path d="M1064.37 882.281h-92.3l-4.4-60a3.182 3.182 0 0 1 3.16-3.4h94.79c.43.002.87.093 1.26.267.4.175.76.429 1.06.748.29.319.52.695.67 1.105.14.41.2.846.17 1.28l-4.41 60Z" fill="#61656D"/><path d="M1064.37 884h-92.3l-4.4-60a3.173 3.173 0 0 1 3.16-3.4h94.79c.44 0 .87.09 1.27.264a3.179 3.179 0 0 1 1.89 3.136l-4.41 60Z" fill="#868A91"/><path opacity=".4" d="M972.07 879.359h92.33c.08.003.16.037.22.097.06.059.1.139.1.223v4c0 .084-.04.164-.1.224a.33.33 0 0 1-.22.096h-92a.316.316 0 0 1-.32-.3l-.3-4a.331.331 0 0 1 .29-.34Z" fill="#000"/><path opacity=".2" d="m972.029 908.759 35.121 11.72 9.74-2.34-45.111-10.7.25 1.32ZM1060.57 924.42 937.2 891.64c-3-.8-6-1.49-9-2.15C903.43 884 904.05 867 904.05 867c-.32.7-.6 1.41-.85 2.14l-.36 1.08a18.508 18.508 0 0 0 1 14.12 18.535 18.535 0 0 0 12.32 9.81l143.47 33.7.94-3.43Z" fill="#000"/><path opacity=".4" d="M1023.64 852.329c-.71 0-1.41-.204-2.01-.589a3.752 3.752 0 0 1-1.38-1.58 3.705 3.705 0 0 1-.31-2.075c.09-.707.39-1.372.85-1.916a6.663 6.663 0 0 0-4.17-.319 6.72 6.72 0 0 0-3.55 2.231 6.648 6.648 0 0 0-1.51 3.902 6.716 6.716 0 0 0 1.11 4.037 6.67 6.67 0 0 0 3.29 2.581c1.35.484 2.82.522 4.19.109a6.644 6.644 0 0 0 3.42-2.407 6.626 6.626 0 0 0 1.32-3.974v-.22c-.4.146-.82.221-1.25.22Z" fill="#000"/><path d="m1098.5 786.099-25.6 16.411 2.84 4.428 25.6-16.411-2.84-4.428ZM933.885 790.33l25.074 17.207 2.976-4.337-25.073-17.207-2.977 4.337ZM1017.34 752.001a26.66 26.66 0 0 1-7.24-1 26.037 26.037 0 0 1-9.19-4.587 26.005 26.005 0 0 1-6.711-7.783l4.13-1c.14.29 3.611 6.75 12.891 9.35a24.462 24.462 0 0 0 15-.79c3.69-1.34 8.85-3.42 10-7.45l4.07.61c-1.33 4.52-6.1 8.37-12.68 10.76a30.19 30.19 0 0 1-10.27 1.89Z" fill="#fff"/><path opacity=".3" d="m1065.38 789.849-4.98-5.9-.81 34.91h6.03l-.24-29.01Z" fill="#000"/></svg>